<?xml version="1.0" encoding="UTF-8" standalone="no"?>
<!-- Created with Inkscape (http://www.inkscape.org/) -->

<svg
   width="5cm"
   height="5cm"
   viewBox="0 0 50 50"
   version="1.1"
   id="svg267"
   inkscape:version="1.2.2 (732a01da63, 2022-12-09)"
   sodipodi:docname="Ak.svg"
   xmlns:inkscape="http://www.inkscape.org/namespaces/inkscape"
   xmlns:sodipodi="http://sodipodi.sourceforge.net/DTD/sodipodi-0.dtd"
   xmlns="http://www.w3.org/2000/svg"
   xmlns:svg="http://www.w3.org/2000/svg">
  <sodipodi:namedview
     id="namedview269"
     pagecolor="#ffffff"
     bordercolor="#000000"
     borderopacity="0.25"
     inkscape:showpageshadow="2"
     inkscape:pageopacity="0.0"
     inkscape:pagecheckerboard="0"
     inkscape:deskcolor="#d1d1d1"
     inkscape:document-units="mm"
     showgrid="false"
     inkscape:zoom="1.6819304"
     inkscape:cx="137.34219"
     inkscape:cy="79.075804"
     inkscape:window-width="1440"
     inkscape:window-height="837"
     inkscape:window-x="-8"
     inkscape:window-y="-8"
     inkscape:window-maximized="1"
     inkscape:current-layer="layer1" />
  <defs
     id="defs264" />
  <g
     inkscape:label="Capa 1"
     inkscape:groupmode="layer"
     id="layer1">
    <g
       id="g2643">
      <ellipse
         style="fill:none;fill-opacity:1;stroke:#030704;stroke-width:0.802941;stroke-linejoin:round;stroke-dasharray:none;stroke-opacity:1"
         id="path1240"
         cx="25"
         cy="25"
         rx="24.800913"
         ry="24.796494" />
      <g
         id="g1184"
         transform="matrix(1.3540776,0.00187742,-0.00176806,1.4378338,2.3996399,5.945425)">
        <text
           xml:space="preserve"
           style="font-size:27.577px;font-family:'Baskerville Old Face';-inkscape-font-specification:'Baskerville Old Face, Normal';fill:#433ca5;fill-opacity:1;stroke:#fbfbfd;stroke-width:0.1;stroke-linejoin:round;stroke-opacity:1"
           x="3.1461864"
           y="22.337925"
           id="text360"><tspan
             sodipodi:role="line"
             id="tspan358"
             style="fill:#433ca5;fill-opacity:1;stroke:#fbfbfd;stroke-width:0.1;stroke-opacity:1"
             x="3.1461864"
             y="22.337925">A</tspan></text>
        <text
           xml:space="preserve"
           style="font-size:27.577px;font-family:'Baskerville Old Face';-inkscape-font-specification:'Baskerville Old Face, Normal';fill:#433ca5;fill-opacity:1;stroke:#fbfbfd;stroke-width:0.1;stroke-linejoin:round;stroke-opacity:1"
           x="8.8575754"
           y="26.921194"
           id="text1178"
           transform="rotate(-28.713995)"><tspan
             sodipodi:role="line"
             id="tspan1176"
             style="stroke-width:0.1"
             x="8.8575754"
             y="26.921194">k</tspan></text>
      </g>
      <path
         style="fill:#5edc75;stroke:#000000;stroke-width:1.75277;stroke-linejoin:round;stroke-dasharray:none;fill-opacity:1"
         d="M 87.919731,186.00134 C 53.504856,183.86785 22.211232,160.99708 9.2402337,128.49885 -2.0883488,100.11562 1.2597864,68.827301 18.355909,43.31287 39.762644,11.365237 79.319298,-3.9651964 116.31047,5.3499534 c 17.02383,4.2869548 31.4119,12.5059756 43.6248,24.9201766 18.64843,18.955793 27.77517,43.76606 26.05732,70.83464 -2.63794,41.56681 -34.80802,77.04057 -75.99993,83.80466 -8.19782,1.34617 -13.633876,1.61508 -22.072929,1.09191 z M 54.699053,143.31065 c 0,-0.87017 -0.641418,-1.33684 -2.526859,-1.83847 -3.329585,-0.88584 -5.980617,-2.95517 -7.271824,-5.67618 -1.853999,-3.90701 -1.031943,-9.06146 3.356657,-21.0469 l 3.809801,-10.40471 14.923399,-0.15871 c 13.799061,-0.14674 14.954846,-0.0796 15.340742,0.89184 6.763728,17.02589 8.84489,23.28265 8.887603,26.7194 0.06984,5.62003 -2.618212,8.46463 -9.173537,9.70782 -3.64433,0.69114 -3.836686,0.80881 -3.358617,2.05463 0.308889,0.80496 3.161421,0.91748 23.261092,0.91748 22.19673,0 22.90902,-0.0355 22.90902,-1.14187 0,-0.81652 -0.55057,-1.24657 -1.9323,-1.50933 -7.79664,-1.48264 -10.33478,-3.42779 -13.74612,-10.5346 -1.14936,-2.39447 -9.306077,-22.94828 -18.126031,-45.675142 L 75.015803,44.294341 72.65555,44.114884 c -2.119071,-0.161119 -2.420534,-0.0092 -2.950098,1.486387 -2.848851,8.045804 -25.755112,70.156779 -27.530713,74.650299 -5.88282,14.88771 -9.94447,19.92449 -17.352071,21.51799 -0.899264,0.19345 -1.635026,0.73971 -1.635026,1.21392 0,0.90589 2.481198,1.05288 23.039003,1.36481 8.064235,0.12236 8.472408,0.0724 8.472408,-1.03764 z m 75.508477,-23.96674 c 13.09566,-7.61334 15.9015,-9.98943 10.60881,-8.98392 -4.00954,0.76173 -6.33867,0.54023 -8.09313,-0.76967 -0.8866,-0.66194 -3.4451,-4.58221 -5.68557,-8.7117 -3.62746,-6.685942 -4.03186,-7.755065 -3.69269,-9.762579 0.71401,-4.22615 0.22028,-4.260171 14.33707,0.987829 7.138,2.653588 13.59354,5.402816 14.34566,6.109391 1.89749,1.7826 1.72975,3.786339 -0.48641,5.810499 -1.64052,1.49838 -1.92581,2.99613 -0.5707,2.99613 0.44977,0 27.91292,-15.777269 28.52017,-16.384511 0.15557,-0.155566 0.0114,-0.554298 -0.32037,-0.886071 -0.40793,-0.40793 -1.73742,-0.307807 -4.10647,0.309257 -4.34491,1.1317 -7.72301,0.613325 -17.50685,-2.686454 -12.87736,-4.343135 -30.02386,-11.133981 -30.19042,-11.956874 -0.31051,-1.534113 4.6597,-20.864091 6.20404,-24.128566 1.05927,-2.239107 2.35871,-3.832714 4.16125,-5.103257 1.55044,-1.092858 2.53811,-2.220223 2.41807,-2.760095 -0.11161,-0.501953 -0.52741,-0.843779 -0.92399,-0.759612 -0.84818,0.18001 -22.13268,12.490927 -22.96079,13.280479 -0.35497,0.338452 -0.30708,0.796278 0.12892,1.232276 0.52863,0.528625 1.27175,0.433103 3.12218,-0.401326 4.35752,-1.964966 7.09907,0.213781 7.11342,5.65313 0.006,2.238125 -4.91939,25.937465 -5.514,26.532079 -0.10566,0.105653 -7.45705,-13.91422 -16.33643,-31.155276 C 94.326043,37.508027 88.334356,26.483149 87.782199,26.529904 c -0.469027,0.03972 -4.239183,2.67725 -8.378129,5.861189 -5.14724,3.959581 -7.45736,6.097471 -7.31019,6.765172 0.118341,0.536906 0.600596,0.870346 1.071686,0.740978 0.471089,-0.129368 1.823821,-0.509466 3.006075,-0.844663 2.595143,-0.735785 5.082404,0.473823 7.721996,3.755374 1.635008,2.032646 16.561953,30.527185 29.799543,56.88535 5.7588,11.466696 6.65565,13.650076 6.8798,16.748906 0.25531,3.52964 0.23259,3.5905 -2.4021,6.43475 -2.39891,2.5897 -3.17602,4.8597 -1.42675,4.16767 0.37426,-0.14806 6.43279,-3.61338 13.4634,-7.70072 z"
         id="path1241"
         transform="scale(0.26458333)" />
      <path
         style="fill:#edcfd5;stroke:#000000;stroke-width:1.75277;stroke-linejoin:round;stroke-dasharray:none;fill-opacity:1"
         d="m 53.788406,99.43931 c 0.223126,-0.572259 3.097081,-8.531863 6.386567,-17.688009 3.289486,-9.156145 6.145487,-16.83426 6.34667,-17.062477 0.319654,-0.362609 13.755191,34.182689 13.746576,35.345046 -0.0018,0.24525 -6.051798,0.44591 -13.444401,0.44591 -12.559221,0 -13.41448,-0.0683 -13.035412,-1.04047 z"
         id="path1243"
         transform="scale(0.26458333)" />
      <path
         style="fill:#5edc75;fill-opacity:1;stroke:#000000;stroke-width:1.75277;stroke-linejoin:round;stroke-dasharray:none"
         d="m 55.435536,98.547478 c 0.148032,-0.408757 2.651492,-7.362478 5.563243,-15.452714 2.911752,-8.090236 5.463552,-14.712091 5.670667,-14.715234 0.207115,-0.0031 0.514335,0.462498 0.682712,1.034757 0.168377,0.572259 2.741304,7.256299 5.717616,14.853422 2.976312,7.597124 5.411475,14.085204 5.411475,14.417957 0,0.389733 -4.147941,0.605005 -11.657431,0.605005 -9.073122,0 -11.597765,-0.164757 -11.388282,-0.743193 z"
         id="path2625"
         transform="scale(0.26458333)" />
      <path
         style="fill:#5edc75;fill-opacity:1;stroke:#000000;stroke-width:1.75277;stroke-linejoin:round;stroke-dasharray:none"
         d="M 83.534966,184.54222 C 73.306053,183.04616 63.020651,179.86884 54.401775,175.54253 9.428204,152.96769 -8.8280614,99.149542 13.369878,54.583463 24.34638,32.546298 43.549336,15.879958 66.590151,8.3933245 115.22644,-7.4100277 167.27675,20.36514 181.59088,69.760199 c 4.86779,16.797728 4.28377,37.840081 -1.50769,54.322821 -7.59214,21.60749 -24.00177,40.37128 -44.59909,50.99735 -12.99825,6.70574 -23.40955,9.23721 -39.166203,9.52313 -6.049596,0.10978 -11.801915,0.0822 -12.782931,-0.0613 z M 54.947345,144.88346 c 0.588567,-0.43037 0.972248,-1.29071 0.852624,-1.91186 -0.215677,-1.11992 -1.099238,-1.70706 -5.423149,-3.60376 -4.847283,-2.12627 -6.188994,-6.97332 -4.069158,-14.70019 0.688734,-2.51046 2.484129,-7.90953 3.989767,-11.99795 l 2.737524,-7.43348 h 13.891341 c 13.209298,0 13.922092,0.0575 14.517783,1.17052 0.344545,0.64379 2.263964,5.52657 4.265385,10.85063 2.682037,7.13461 3.716105,10.73127 3.932392,13.67752 0.436849,5.95082 -0.860072,7.49927 -7.826299,9.34417 -4.088986,1.0829 -5.347897,2.43862 -3.749638,4.03799 0.959148,0.95982 2.91408,1.06703 22.392543,1.2281 11.73791,0.0971 22.22959,-0.0536 23.31487,-0.33483 2.10083,-0.54438 2.8328,-2.01723 1.68803,-3.39659 -0.37536,-0.45228 -2.04388,-1.1143 -3.70782,-1.47115 -4.31303,-0.92498 -7.38624,-2.84837 -9.39373,-5.87913 -1.82247,-2.75143 -9.08522,-20.70613 -26.119131,-64.570814 C 80.66024,55.522242 75.761928,43.55349 75.355537,43.295406 c -0.40639,-0.258084 -1.736041,-0.47334 -2.954771,-0.478347 -1.649825,-0.0068 -2.438252,0.332625 -3.0864,1.328644 -0.478789,0.735761 -4.741689,11.905962 -9.473115,24.822668 -20.978064,57.269739 -23.236621,62.710489 -28.019346,67.497189 -1.31529,1.31638 -3.327861,2.74541 -4.472379,3.17562 -4.354584,1.63686 -4.799515,1.87789 -5.149349,2.78955 -0.70766,1.84413 0.932342,2.33859 8.89353,2.68141 15.531001,0.66878 22.72055,0.59986 23.853638,-0.22868 z m 70.815695,-21.58247 c 13.40857,-7.71486 18.71381,-11.3013 18.71381,-12.65089 0,-1.50943 -0.8005,-1.73838 -4.85204,-1.38774 -5.28014,0.45697 -6.0393,0.0565 -9.04336,-4.7702 -4.19393,-6.73852 -6.44261,-11.935792 -5.97328,-13.805757 0.48967,-1.951014 0.49655,-1.949718 11.54491,2.175269 10.57461,3.948118 15.39209,6.158875 15.81342,7.256838 0.18945,0.4937 -0.34802,1.80552 -1.19438,2.91516 -1.71117,2.24345 -2.00256,4.44014 -0.65746,4.9563 1.09433,0.41994 15.15777,-7.25649 29.95456,-16.350471 0.52395,-0.322017 0.66349,-0.96284 0.39432,-1.810907 -0.40462,-1.274833 -0.59011,-1.301558 -6.45918,-0.93055 -5.41679,0.342422 -6.58136,0.223309 -11.24474,-1.150137 -6.08184,-1.791198 -24.45101,-8.573369 -30.28133,-11.180308 -3.75795,-1.680319 -4.01424,-1.914354 -3.68481,-3.36483 1.31549,-5.792071 3.44888,-13.886425 4.72308,-17.919972 1.28459,-4.066466 1.96355,-5.206444 4.74335,-7.96412 1.78429,-1.770093 3.24416,-3.455623 3.24416,-3.745624 0,-0.84199 -1.34463,-1.955106 -2.34849,-1.944136 -0.80073,0.0088 -19.52453,10.568457 -23.22164,13.096364 -0.98197,0.671423 -1.23553,1.255642 -0.94385,2.174655 0.56881,1.792132 1.71398,2.033043 4.74875,0.998993 3.38732,-1.154178 4.91009,-0.451953 5.46792,2.521535 0.40994,2.185136 -3.70881,24.600891 -4.52025,24.600891 -0.21337,0 -5.28713,-9.431127 -11.27504,-20.95806 C 90.660802,27.967536 89.296287,25.565862 87.539115,25.565862 c -1.742932,0 -15.020871,10.296398 -16.257355,12.60679 -0.502845,0.939573 -0.436249,1.416259 0.300839,2.153346 0.817465,0.817465 1.321321,0.846434 3.692329,0.212288 2.421449,-0.64764 2.965883,-0.605752 4.610446,0.354726 1.025625,0.598995 2.573477,2.144438 3.439679,3.434316 2.337141,3.480274 14.674614,27.037462 25.827507,49.315072 11.68092,23.33232 11.84784,23.92467 8.04049,28.5321 -2.84159,3.43872 -3.28794,6.24936 -0.99243,6.24936 0.36233,0 4.66542,-2.30529 9.56242,-5.12287 z"
         id="path2631"
         transform="scale(0.26458333)" />
    </g>
  </g>
</svg>
