<?xml version="1.0" encoding="UTF-8" standalone="no"?>
<svg
   version="1.1"
   width="403.47827"
   height="341.73914"
   id="svg39"
   sodipodi:docname="FunConj.svg"
   inkscape:export-batch-path="..\Desktop\Akemicos\Akdemicos-Front\public"
   inkscape:export-batch-name="ConFun"
   xml:space="preserve"
   xmlns:inkscape="http://www.inkscape.org/namespaces/inkscape"
   xmlns:sodipodi="http://sodipodi.sourceforge.net/DTD/sodipodi-0.dtd"
   xmlns="http://www.w3.org/2000/svg"
   xmlns:svg="http://www.w3.org/2000/svg"><sodipodi:namedview
     id="namedview39"
     pagecolor="#ffffff"
     bordercolor="#000000"
     borderopacity="0.25"
     inkscape:showpageshadow="2"
     inkscape:pageopacity="0.0"
     inkscape:pagecheckerboard="0"
     inkscape:deskcolor="#d1d1d1"
     showgrid="false"
     inkscape:zoom="1.15"
     inkscape:cx="362.6087"
     inkscape:cy="223.04348"
     inkscape:window-width="1440"
     inkscape:window-height="837"
     inkscape:window-x="-8"
     inkscape:window-y="-8"
     inkscape:window-maximized="1"
     inkscape:current-layer="svg39"><inkscape:page
       x="0"
       y="0"
       width="403.47827"
       height="341.73914"
       id="page1"
       margin="0"
       bleed="0" /></sodipodi:namedview><defs
     id="defs1"><marker
       style="overflow:visible"
       id="marker58"
       refX="0"
       refY="0"
       orient="auto-start-reverse"
       inkscape:stockid="Concave triangle arrow"
       markerWidth="1"
       markerHeight="1"
       viewBox="0 0 1 1"
       inkscape:isstock="true"
       inkscape:collect="always"
       preserveAspectRatio="xMidYMid"><path
         transform="scale(0.7)"
         d="M -2,-4 9,0 -2,4 c 2,-2.33 2,-5.66 0,-8 z"
         style="fill:context-stroke;fill-rule:evenodd;stroke:none"
         id="path58" /></marker><marker
       style="overflow:visible"
       id="ConcaveTriangle"
       refX="0"
       refY="0"
       orient="auto-start-reverse"
       inkscape:stockid="Concave triangle arrow"
       markerWidth="1"
       markerHeight="1"
       viewBox="0 0 1 1"
       inkscape:isstock="true"
       inkscape:collect="always"
       preserveAspectRatio="xMidYMid"><path
         transform="scale(0.7)"
         d="M -2,-4 9,0 -2,4 c 2,-2.33 2,-5.66 0,-8 z"
         style="fill:context-stroke;fill-rule:evenodd;stroke:none"
         id="path7" /></marker><clipPath
       clipPathUnits="userSpaceOnUse"
       id="clipPath65"><rect
         style="fill:#040404;fill-opacity:1;stroke:#000000;stroke-width:1.3;stroke-miterlimit:3.7;stroke-dasharray:none;stroke-opacity:1"
         id="rect66"
         width="403.47827"
         height="341.73914"
         x="223.47826"
         y="399.13043" /></clipPath></defs><g
     id="g63"
     clip-path="url(#clipPath65)"
     transform="translate(-223.47826,-399.13043)"><rect
       fill="#ffffff"
       stroke="none"
       x="19.260868"
       y="381.84784"
       width="1044"
       height="731"
       fill-opacity="1"
       id="rect1-4" /><path
       fill="none"
       stroke="#000000"
       paint-order="fill stroke markers"
       d="m 298.26087,412.33916 c -38.93407,0 -70.49638,64.25102 -70.49638,143.50867 0,79.25765 31.56231,143.50867 70.49638,143.50867 38.93407,0 70.49638,-64.25102 70.49638,-143.50867 0,-79.25765 -31.56231,-143.50867 -70.49638,-143.50867 z"
       stroke-opacity="0.698039"
       stroke-linecap="round"
       stroke-linejoin="round"
       stroke-miterlimit="10"
       stroke-width="2.5"
       id="path2-8" /><path
       fill="none"
       stroke="#000000"
       paint-order="fill stroke markers"
       d="m 548.26087,412.33916 c -38.93407,0 -70.49638,64.25102 -70.49638,143.50867 0,79.25765 31.56231,143.50867 70.49638,143.50867 38.93407,0 70.49638,-64.25102 70.49638,-143.50867 0,-79.25765 -31.56231,-143.50867 -70.49638,-143.50867 z"
       stroke-opacity="0.698039"
       stroke-linecap="round"
       stroke-linejoin="round"
       stroke-miterlimit="10"
       stroke-width="2.5"
       id="path3-8" /><path
       fill="#4d4dff"
       stroke="none"
       paint-order="stroke fill markers"
       d="m 288.04348,450.67392 c 0,2.76142 -2.23858,5 -5,5 -2.76142,0 -5,-2.23858 -5,-5 0,-2.76142 2.23858,-5 5,-5 2.76142,0 5,2.23858 5,5 z"
       fill-opacity="1"
       id="path4-2" /><path
       fill="none"
       stroke="#000000"
       paint-order="fill stroke markers"
       d="m 288.04348,450.67392 c 0,2.76142 -2.23858,5 -5,5 -2.76142,0 -5,-2.23858 -5,-5 0,-2.76142 2.23858,-5 5,-5 2.76142,0 5,2.23858 5,5 z"
       stroke-opacity="1"
       stroke-linecap="round"
       stroke-linejoin="round"
       stroke-miterlimit="10"
       id="path5-4" /><path
       fill="#4d4dff"
       stroke="none"
       paint-order="stroke fill markers"
       d="m 298.95652,516.54348 c 0,2.76142 -2.23858,5 -5,5 -2.76142,0 -5,-2.23858 -5,-5 0,-2.76142 2.23858,-5 5,-5 2.76142,0 5,2.23858 5,5 z"
       fill-opacity="1"
       id="path6-5" /><path
       fill="none"
       stroke="#000000"
       paint-order="fill stroke markers"
       d="m 298.95652,516.54348 c 0,2.76142 -2.23858,5 -5,5 -2.76142,0 -5,-2.23858 -5,-5 0,-2.76142 2.23858,-5 5,-5 2.76142,0 5,2.23858 5,5 z"
       stroke-opacity="1"
       stroke-linecap="round"
       stroke-linejoin="round"
       stroke-miterlimit="10"
       id="path7-5" /><path
       fill="#4d4dff"
       stroke="none"
       paint-order="stroke fill markers"
       d="m 279.91304,572.23913 c 0,2.76142 -2.23858,5 -5,5 -2.76142,0 -5,-2.23858 -5,-5 0,-2.76142 2.23858,-5 5,-5 2.76142,0 5,2.23858 5,5 z"
       fill-opacity="1"
       id="path8-1" /><path
       fill="none"
       stroke="#000000"
       paint-order="fill stroke markers"
       d="m 279.91304,571.36957 c 0,2.76142 -2.23858,5 -5,5 -2.76142,0 -5,-2.23858 -5,-5 0,-2.76142 2.23858,-5 5,-5 2.76142,0 5,2.23858 5,5 z"
       stroke-opacity="1"
       stroke-linecap="round"
       stroke-linejoin="round"
       stroke-miterlimit="10"
       id="path9-7" /><path
       fill="#4d4dff"
       stroke="none"
       paint-order="stroke fill markers"
       d="m 307.26087,653.84783 c 0,2.76142 -2.23858,5 -5,5 -2.76142,0 -5,-2.23858 -5,-5 0,-2.76142 2.23858,-5 5,-5 2.76142,0 5,2.23858 5,5 z"
       fill-opacity="1"
       id="path10-1" /><path
       fill="none"
       stroke="#000000"
       paint-order="fill stroke markers"
       d="m 307.26087,653.84783 c 0,2.76142 -2.23858,5 -5,5 -2.76142,0 -5,-2.23858 -5,-5 0,-2.76142 2.23858,-5 5,-5 2.76142,0 5,2.23858 5,5 z"
       stroke-opacity="1"
       stroke-linecap="round"
       stroke-linejoin="round"
       stroke-miterlimit="10"
       id="path11-1" /><path
       fill="#4d4dff"
       stroke="none"
       paint-order="stroke fill markers"
       d="m 539.26087,460.84783 c 0,2.76142 -2.23858,5 -5,5 -2.76142,0 -5,-2.23858 -5,-5 0,-2.76142 2.23858,-5 5,-5 2.76142,0 5,2.23858 5,5 z"
       fill-opacity="1"
       id="path12-5" /><path
       fill="none"
       stroke="#000000"
       paint-order="fill stroke markers"
       d="m 539.26087,460.84783 c 0,2.76142 -2.23858,5 -5,5 -2.76142,0 -5,-2.23858 -5,-5 0,-2.76142 2.23858,-5 5,-5 2.76142,0 5,2.23858 5,5 z"
       stroke-opacity="1"
       stroke-linecap="round"
       stroke-linejoin="round"
       stroke-miterlimit="10"
       id="path13-2" /><path
       fill="#4d4dff"
       stroke="none"
       paint-order="stroke fill markers"
       d="m 548.26087,525.84783 c 0,2.76142 -2.23858,5 -5,5 -2.76142,0 -5,-2.23858 -5,-5 0,-2.76142 2.23858,-5 5,-5 2.76142,0 5,2.23858 5,5 z"
       fill-opacity="1"
       id="path14-7" /><path
       fill="none"
       stroke="#000000"
       paint-order="fill stroke markers"
       d="m 548.26087,525.84783 c 0,2.76142 -2.23858,5 -5,5 -2.76142,0 -5,-2.23858 -5,-5 0,-2.76142 2.23858,-5 5,-5 2.76142,0 5,2.23858 5,5 z"
       stroke-opacity="1"
       stroke-linecap="round"
       stroke-linejoin="round"
       stroke-miterlimit="10"
       id="path15-6" /><path
       fill="#4d4dff"
       stroke="none"
       paint-order="stroke fill markers"
       d="m 551.26087,642.84783 c 0,2.76142 -2.23858,5 -5,5 -2.76142,0 -5,-2.23858 -5,-5 0,-2.76142 2.23858,-5 5,-5 2.76142,0 5,2.23858 5,5 z"
       fill-opacity="1"
       id="path18-2" /><path
       fill="none"
       stroke="#000000"
       paint-order="fill stroke markers"
       d="m 551.26087,642.84783 c 0,2.76142 -2.23858,5 -5,5 -2.76142,0 -5,-2.23858 -5,-5 0,-2.76142 2.23858,-5 5,-5 2.76142,0 5,2.23858 5,5 z"
       stroke-opacity="1"
       stroke-linecap="round"
       stroke-linejoin="round"
       stroke-miterlimit="10"
       id="path19-3" /><text
       xml:space="preserve"
       style="font-style:italic;font-variant:normal;font-weight:normal;font-stretch:normal;font-size:29.3333px;font-family:'Bell MT';-inkscape-font-specification:'Bell MT, Italic';font-variant-ligatures:normal;font-variant-caps:normal;font-variant-numeric:normal;font-variant-east-asian:normal;text-align:start;writing-mode:lr-tb;direction:ltr;text-anchor:start;fill:#000000;stroke:#000000;stroke-width:0.623622;stroke-dasharray:none;stroke-opacity:1"
       x="259.13043"
       y="466.95654"
       id="text54"><tspan
         sodipodi:role="line"
         id="tspan54"
         x="259.13043"
         y="466.95654">a</tspan></text><text
       xml:space="preserve"
       style="font-style:italic;font-variant:normal;font-weight:normal;font-stretch:normal;font-size:29.3333px;font-family:'Bell MT';-inkscape-font-specification:'Bell MT, Italic';font-variant-ligatures:normal;font-variant-caps:normal;font-variant-numeric:normal;font-variant-east-asian:normal;text-align:start;writing-mode:lr-tb;direction:ltr;text-anchor:start;fill:#000000;stroke:#000000;stroke-width:0.623622;stroke-dasharray:none;stroke-opacity:1"
       x="277.3913"
       y="647.82605"
       id="text55"><tspan
         sodipodi:role="line"
         id="tspan55"
         x="277.3913"
         y="647.82605">x</tspan></text><path
       style="fill:none;stroke:#000000;stroke-width:2.32162;stroke-dasharray:none;stroke-opacity:1;marker-end:url(#ConcaveTriangle)"
       d="m 289.49762,447.49221 c 0,0 111.02886,-96.79554 226.46365,-1.24097"
       id="path56" /><path
       style="fill:none;stroke:#000000;stroke-width:2.39401;stroke-dasharray:none;stroke-opacity:1;marker-end:url(#marker58)"
       d="m 302.56315,513.25901 c 0,0 119.24825,-49.43932 220.96,1.56952"
       id="path57" /><path
       style="fill:none;stroke:#000000;stroke-width:2.50961;stroke-dasharray:none;stroke-opacity:1;marker-end:url(#ConcaveTriangle)"
       d="m 284.34782,573.04348 c 0,0 156.52174,40 240.86957,-33.04348"
       id="path59" /><path
       style="fill:none;stroke:#000000;stroke-width:2.47619;stroke-dasharray:none;stroke-opacity:1;marker-end:url(#ConcaveTriangle)"
       d="m 310.63521,653.22433 211.67658,-9.79312"
       id="path60" /><text
       xml:space="preserve"
       style="font-style:italic;font-variant:normal;font-weight:normal;font-stretch:normal;font-size:21.8856px;font-family:'Bell MT';-inkscape-font-specification:'Bell MT, Italic';font-variant-ligatures:normal;font-variant-caps:normal;font-variant-numeric:normal;font-variant-east-asian:normal;text-align:start;writing-mode:lr-tb;direction:ltr;text-anchor:start;fill:none;stroke:#000000;stroke-width:1.372;stroke-miterlimit:3.7;stroke-dasharray:none;stroke-opacity:1"
       x="565.48584"
       y="454.26169"
       id="text60"
       transform="scale(0.97021883,1.0306953)"><tspan
         sodipodi:role="line"
         id="tspan60"
         x="565.48584"
         y="454.26169"
         style="stroke-width:1.372;stroke-miterlimit:3.7;stroke-dasharray:none">f(a)</tspan></text><text
       xml:space="preserve"
       style="font-style:italic;font-variant:normal;font-weight:normal;font-stretch:normal;font-size:23.5173px;font-family:'Bell MT';-inkscape-font-specification:'Bell MT, Italic';font-variant-ligatures:normal;font-variant-caps:normal;font-variant-numeric:normal;font-variant-east-asian:normal;text-align:start;writing-mode:lr-tb;direction:ltr;text-anchor:start;fill:none;stroke:#000000;stroke-width:1.3;stroke-miterlimit:3.7;stroke-dasharray:none;stroke-opacity:1"
       x="547.21906"
       y="659.63202"
       id="text61"
       transform="scale(1.0181405,0.98218272)"><tspan
         sodipodi:role="line"
         id="tspan61"
         x="547.21906"
         y="659.63202"
         style="stroke-width:1.3;stroke-dasharray:none">f(x)</tspan></text><text
       xml:space="preserve"
       style="font-style:italic;font-variant:normal;font-weight:normal;font-stretch:normal;font-size:25.7751px;font-family:'Bell MT';-inkscape-font-specification:'Bell MT, Italic';font-variant-ligatures:normal;font-variant-caps:normal;font-variant-numeric:normal;font-variant-east-asian:normal;text-align:start;writing-mode:lr-tb;direction:ltr;text-anchor:start;fill:#040404;fill-opacity:1;stroke:#000000;stroke-width:1.14231;stroke-miterlimit:3.7;stroke-dasharray:none;stroke-opacity:1"
       x="235.09581"
       y="777.43188"
       id="text62"
       transform="scale(1.0578391,0.94532336)"><tspan
         sodipodi:role="line"
         id="tspan62"
         x="235.09581"
         y="777.43188"
         style="stroke-width:1.14231">Dominio</tspan></text><text
       xml:space="preserve"
       style="font-style:italic;font-variant:normal;font-weight:normal;font-stretch:normal;font-size:25.9217px;font-family:'Bell MT';-inkscape-font-specification:'Bell MT, Italic';font-variant-ligatures:normal;font-variant-caps:normal;font-variant-numeric:normal;font-variant-east-asian:normal;text-align:start;writing-mode:lr-tb;direction:ltr;text-anchor:start;fill:#040404;fill-opacity:1;stroke:#000000;stroke-width:1.1488;stroke-miterlimit:3.7;stroke-dasharray:none;stroke-opacity:1"
       x="474.13171"
       y="800.09143"
       id="text63"
       transform="scale(1.0930132,0.91490204)"><tspan
         sodipodi:role="line"
         id="tspan63"
         x="474.13171"
         y="800.09143"
         style="stroke-width:1.1488">Rango</tspan></text></g></svg>
