<?xml version="1.0" encoding="UTF-8" standalone="no"?>
<!-- Created with Inkscape (http://www.inkscape.org/) -->

<svg
   version="1.1"
   id="svg1"
   width="167.61905"
   height="42.857143"
   viewBox="0 0 167.61905 42.857143"
   sodipodi:docname="writetex.pdf"
   inkscape:export-batch-path="..\Akemicos\Akdemicos-Front\public"
   inkscape:export-batch-name="DomcosenoHiperbolico"
   xmlns:inkscape="http://www.inkscape.org/namespaces/inkscape"
   xmlns:sodipodi="http://sodipodi.sourceforge.net/DTD/sodipodi-0.dtd"
   xmlns="http://www.w3.org/2000/svg"
   xmlns:svg="http://www.w3.org/2000/svg">
  <defs
     id="defs1">
    <clipPath
       clipPathUnits="userSpaceOnUse"
       id="clipPath238">
      <rect
         style="fill:#000000;stroke:#000000;stroke-width:0.623622;stroke-dasharray:none;stroke-opacity:1"
         id="rect239"
         width="167.61905"
         height="42.857143"
         x="129.5238"
         y="550.4762" />
    </clipPath>
  </defs>
  <sodipodi:namedview
     id="namedview1"
     pagecolor="#ffffff"
     bordercolor="#000000"
     borderopacity="0.25"
     inkscape:showpageshadow="2"
     inkscape:pageopacity="0.0"
     inkscape:pagecheckerboard="0"
     inkscape:deskcolor="#d1d1d1"
     showgrid="false">
    <inkscape:page
       x="0"
       y="0"
       width="167.61905"
       height="42.857143"
       id="page1"
       margin="0"
       bleed="0" />
  </sodipodi:namedview>
  <g
     id="g1"
     inkscape:groupmode="layer"
     inkscape:label="1"
     clip-path="url(#clipPath238)"
     style="stroke:#000000;stroke-width:1.00157;stroke-dasharray:none;stroke-opacity:1"
     transform="translate(-129.5238,-550.4762)">
    <g
       id="g42"
       aria-label="Cosenohiperbolico&#10;cosh(α)=&#10;e&#10;α&#10;+e&#10;−α"
       transform="matrix(1.3333333,0,0,1.3333333,131.12933,525.79867)"
       style="stroke:#000000;stroke-width:0.751181;stroke-dasharray:none;stroke-opacity:1">
      <path
         id="path43"
         d="M 9.9254609,-1.2435313 9.7496797,-1.4193125 C 8.8238984,-0.93884375 7.8863984,-0.69275 6.9606172,-0.69275 c -2.5195313,0 -4.1835938,-1.78125 -4.1835938,-4.4882813 0,-2.4609375 1.40625,-3.984375 3.6796875,-3.984375 1.078125,0 1.78125,0.2695313 2.5546875,0.984375 l 0.070312,1.2421875 h 0.5625 c 0.1523438,-1.3828125 0.1992188,-1.6523437 0.328125,-2.203125 l -0.09375,-0.1523437 C 8.5778047,-9.8099375 7.7692109,-9.974 6.5270234,-9.974 c -3.6328125,0 -5.89453121,1.921875 -5.89453121,4.9921875 0,3.2109375 2.20312501,5.2265625 5.75390621,5.2265625 1.3125,0 2.1679688,-0.19921875 3.2226563,-0.796875 z m 4.5468751,-5.5195312 c -2.273438,0 -3.539063,1.265625 -3.539063,3.5507812 0,2.203125 1.171875,3.4570313 3.257813,3.4570313 2.296875,0 3.585937,-1.3125 3.585937,-3.6328125 0,-2.1796875 -1.183593,-3.375 -3.304687,-3.375 z m -0.164063,0.6914062 c 1.03125,0 1.511719,1.0195313 1.511719,3.1289063 0,1.7460937 -0.398437,2.49609375 -1.371094,2.49609375 -1.03125,0 -1.570312,-1.04296875 -1.570312,-3.11718755 0,-1.734375 0.433594,-2.5078125 1.429687,-2.5078125 z m 9.216797,1.3945313 0.117188,-1.7460938 c -0.5625,-0.2460937 -1.007813,-0.3398437 -1.769531,-0.3398437 -1.933594,0 -2.976563,0.7851562 -2.976563,2.2148437 0,0.9492188 0.515625,1.546875 1.511719,1.7929688 l 1.242187,0.3046875 c 0.65625,0.1523437 0.902344,0.3984375 0.902344,0.9023437 0,0.6679688 -0.515625,1.10156255 -1.324219,1.10156255 -0.667968,0 -1.148437,-0.2109375 -1.605468,-0.75000005 l -0.07031,-0.984375 h -0.5625 l -0.09375,2.0273438 c 0.820313,0.28125 1.464844,0.3984375 2.214844,0.3984375 1.816406,0 3.035156,-0.99609375 3.035156,-2.4726563 0,-1.03125 -0.539062,-1.5585937 -1.828125,-1.8515625 l -1.171875,-0.2578125 c -0.5625,-0.1289062 -0.785156,-0.3515625 -0.785156,-0.796875 0,-0.5742187 0.480469,-0.9375 1.253906,-0.9375 0.574219,0 1.207031,0.28125 1.253906,0.5625 l 0.140625,0.8320313 z m 7.78711,0.4453125 c 0,-1.5351563 -1.078125,-2.53125 -2.707032,-2.53125 -0.503906,0 -0.878906,0.1054687 -1.265625,0.3398437 l -0.667968,0.3984375 c -0.949219,0.5625 -1.371094,1.4179688 -1.371094,2.7773438 0,2.28515625 1.148437,3.4921875 3.292969,3.4921875 0.808593,0 1.347656,-0.140625 2.261718,-0.62109375 L 31.171555,-1.06775 30.995773,-1.2786875 c -0.667968,0.375 -1.101562,0.50390625 -1.675781,0.50390625 -0.75,0 -1.441406,-0.39843755 -1.804687,-1.01953125 -0.234375,-0.3984375 -0.316407,-0.7265625 -0.339844,-1.40625 h 1.875 c 0.820312,0 1.464844,-0.082031 2.261719,-0.28125 z m -3.023438,0.3164062 h -0.05859 c -0.08203,0 -0.46875,-0.011719 -0.691406,-0.035156 l -0.457031,-0.011719 c 0.04687,-1.4179687 0.386719,-1.9921875 1.21875,-1.9921875 0.820312,0 1.160156,0.5742188 1.195312,1.9921875 z m 3.928711,-1.7109375 0.644531,0.046875 c 0.339844,0.023437 0.375,0.1523438 0.375,1.0078125 v 3.140625 c 0,0.77343755 -0.07031,0.8789063 -0.515625,0.91406255 l -0.503906,0.0234375 v 0.5390625 l 1.851563,-0.046875 c 0.292968,0 0.984375,0.01171875 1.945312,0.046875 v -0.5390625 l -0.503906,-0.0234375 c -0.445313,-0.0351563 -0.515625,-0.140625 -0.515625,-0.91406255 v -3.1171875 c 0,-0.5039062 0.585937,-0.9726562 1.21875,-0.9726562 0.9375,0 1.347656,0.5039062 1.347656,1.6523437 v 3.91406255 c 0.808594,-0.03515625 1.054688,-0.046875 1.289063,-0.046875 0.199218,0 0.199218,0 1.441406,0.046875 v -0.5390625 l -0.46875,-0.0234375 c -0.445313,-0.0351563 -0.515625,-0.140625 -0.515625,-0.91406255 v -2.671875 c 0,-1.1015625 -0.128906,-1.6523437 -0.503906,-2.0507812 -0.375,-0.3867188 -0.960938,-0.609375 -1.664063,-0.609375 -0.433594,0 -0.773437,0.09375 -0.996094,0.28125 l -1.148437,0.890625 v -1.078125 l -0.09375,-0.09375 c -1.488281,0.4921875 -1.886719,0.5742187 -2.683594,0.6210937 z m 12.539063,-1.1367187 c -2.273438,0 -3.539063,1.265625 -3.539063,3.5507812 0,2.203125 1.171875,3.4570313 3.257813,3.4570313 2.296875,0 3.585937,-1.3125 3.585937,-3.6328125 0,-2.1796875 -1.183594,-3.375 -3.304687,-3.375 z m -0.164063,0.6914062 c 1.03125,0 1.511719,1.0195313 1.511719,3.1289063 0,1.7460937 -0.398438,2.49609375 -1.371094,2.49609375 -1.03125,0 -1.570312,-1.04296875 -1.570312,-3.11718755 0,-1.734375 0.433593,-2.5078125 1.429687,-2.5078125 z m 11.200195,-4.2539067 -1.03125,0.316407 c -0.375,0.1054685 -0.855468,0.1992185 -1.628906,0.2929685 v 0.515625 l 0.644531,0.046875 c 0.339844,0.035156 0.375,0.1640625 0.375,1.0078125 v 6.7148437 c 0,0.77343755 -0.07031,0.8789063 -0.515625,0.91406255 l -0.503906,0.0234375 v 0.5390625 l 1.851563,-0.046875 c 0.292968,0 0.984375,0.01171875 1.945312,0.046875 v -0.5390625 l -0.503906,-0.0234375 c -0.445313,-0.0351563 -0.515625,-0.140625 -0.515625,-0.91406255 v -3.1171875 c 0,-0.5039062 0.585937,-0.9726562 1.21875,-0.9726562 0.9375,0 1.347656,0.5039062 1.347656,1.6640625 v 3.90234375 c 0.808594,-0.03515625 1.054688,-0.046875 1.289063,-0.046875 0.199218,0 0.199218,0 1.441406,0.046875 v -0.5390625 l -0.46875,-0.0234375 c -0.445313,-0.0351563 -0.515625,-0.140625 -0.515625,-0.91406255 v -2.671875 c 0,-1.1015625 -0.128906,-1.6523437 -0.503906,-2.0507812 -0.375,-0.3867188 -0.960938,-0.609375 -1.664063,-0.609375 -0.433594,0 -0.773437,0.09375 -0.996094,0.28125 l -1.148437,0.890625 v -4.6523435 z m 8.882813,3.5625005 -1.007813,0.3164062 c -0.457031,0.1523438 -0.808593,0.2109375 -1.40625,0.28125 -0.04687,0 -0.117187,0.011719 -0.210937,0.023437 v 0.515625 l 0.644531,0.046875 c 0.328125,0.023437 0.375,0.1523438 0.375,1.0078125 v 3.140625 c 0,0.77343755 -0.08203,0.8789063 -0.527344,0.91406255 l -0.492187,0.0234375 v 0.5390625 l 1.851562,-0.046875 c 0.28125,0 0.972657,0.01171875 1.933594,0.046875 v -0.5390625 l -0.503906,-0.0234375 c -0.445313,-0.0351563 -0.515625,-0.140625 -0.515625,-0.91406255 V -6.669313 Z m -0.773438,-3.3632815 c -0.621093,0 -1.101562,0.4570315 -1.101562,1.0546877 0,0.609375 0.480469,1.0898438 1.078125,1.0898438 0.585937,0 1.078125,-0.4804688 1.078125,-1.0664063 0,-0.5976562 -0.46875,-1.0781252 -1.054688,-1.0781252 z m 5.469727,3.3632815 -0.996094,0.3164062 c -0.492187,0.1523438 -0.738281,0.1875 -1.464844,0.2929688 l -0.164062,0.011719 v 0.515625 l 0.65625,0.046875 c 0.328125,0.023437 0.363281,0.1523438 0.363281,1.0078125 v 6.796875 c 0,0.7734375 -0.07031,0.890625 -0.515625,0.9140625 l -0.503906,0.035156 v 0.5273437 l 1.851562,-0.046875 c 0.1875,0 0.222657,0 2.085938,0.046875 V 3.1744375 L 70.039719,3.1392812 C 69.594406,3.1275625 69.524094,2.9986562 69.524094,2.2252187 V -0.00134375 C 70.227219,0.197875 70.449875,0.24475 70.801437,0.24475 c 0.480469,0 0.984375,-0.2578125 1.957032,-1.03125 0.09375,-0.0585938 0.175781,-0.12890625 0.246093,-0.1875 0.949219,-0.7148438 1.464844,-1.8398438 1.464844,-3.1289063 0,-1.5234375 -1.101562,-2.6601562 -2.601562,-2.6601562 -0.550782,0 -0.972657,0.1640625 -1.476563,0.5625 l -0.867187,0.703125 v -1.171875 z m 0.152344,2.015625 c 0.316406,-0.4804688 0.785156,-0.7148438 1.371093,-0.7148438 1.101563,0 1.769532,0.8554688 1.769532,2.2851563 0,1.5 -0.644532,2.44921875 -1.699219,2.44921875 -0.597656,0 -1.054688,-0.24609375 -1.441406,-0.79687505 z m 12.1875,0.515625 c 0,-1.5351563 -1.078125,-2.53125 -2.707032,-2.53125 -0.503906,0 -0.878906,0.1054687 -1.265625,0.3398437 l -0.667968,0.3984375 c -0.949219,0.5625 -1.371094,1.4179688 -1.371094,2.7773438 0,2.28515625 1.148437,3.4921875 3.292969,3.4921875 0.808593,0 1.347656,-0.140625 2.261718,-0.62109375 L 81.570969,-1.06775 81.395187,-1.2786875 c -0.667968,0.375 -1.101562,0.50390625 -1.675781,0.50390625 -0.75,0 -1.441406,-0.39843755 -1.804687,-1.01953125 -0.234375,-0.3984375 -0.316407,-0.7265625 -0.339844,-1.40625 h 1.875 c 0.820312,0 1.464844,-0.082031 2.261719,-0.28125 z m -3.023438,0.3164062 h -0.05859 c -0.08203,0 -0.46875,-0.011719 -0.691406,-0.035156 l -0.457031,-0.011719 c 0.04687,-1.4179687 0.386719,-1.9921875 1.21875,-1.9921875 0.820312,0 1.160156,0.5742188 1.195312,1.9921875 z m 6.644531,-2.8476562 -1.007812,0.3164062 c -0.457031,0.1523438 -0.714844,0.1875 -1.617188,0.3046875 v 0.515625 l 0.644532,0.046875 c 0.328125,0.023437 0.375,0.1523438 0.375,1.0078125 v 3.140625 c 0,0.77343755 -0.07031,0.8789063 -0.515625,0.91406255 l -0.503907,0.0234375 v 0.5390625 l 1.851563,-0.046875 c 0.1875,0 0.222656,0 2.15625,0.046875 v -0.5390625 l -0.550781,-0.0234375 C 85.543625,-0.552125 85.473312,-0.63415625 85.473312,-1.4310313 v -2.8476562 c 0,-0.4453125 0.585938,-0.9140625 1.148438,-0.9140625 0.351562,0 0.621094,0.1757812 0.820312,0.515625 l 0.339844,-0.140625 0.07031,-1.8515625 c -0.140625,-0.058594 -0.328125,-0.09375 -0.527344,-0.09375 -0.398438,0 -0.679688,0.1757812 -1.21875,0.7617187 l -0.632813,0.6914063 v -1.359375 z m 5.545899,-3.4804685 -0.117188,-0.08203 -1.03125,0.316407 c -0.410156,0.128906 -0.902343,0.2109372 -1.734375,0.2929685 v 0.515625 l 0.761719,0.046875 c 0.316406,0.011719 0.375,0.1640625 0.375,1.0078125 v 5.8242187 c 0,0.7617188 -0.04687,1.61718755 -0.128906,2.3789063 l 0.316406,0.1171875 0.5625,-0.45703125 c 0.65625,0.3515625 1.253906,0.52734375 1.875,0.52734375 0.445313,0 0.832031,-0.1171875 1.242188,-0.36328125 0.574218,-0.33984375 1.242187,-0.78515625 1.640625,-1.11328125 0.714843,-0.5859375 1.195312,-1.6992188 1.195312,-2.8007813 0,-1.59375 -1.078125,-2.7304687 -2.601562,-2.7304687 -0.5625,0 -0.972657,0.1640625 -1.476563,0.5625 l -0.878906,0.703125 z m 0,5.4960935 c 0.316406,-0.4804688 0.796875,-0.7148438 1.382812,-0.7148438 1.101563,0 1.757813,0.8554688 1.757813,2.2851563 0,1.5 -0.644531,2.44921875 -1.6875,2.44921875 -0.609375,0 -1.066406,-0.24609375 -1.453125,-0.79687505 z m 9.855464,-2.015625 c -2.273433,0 -3.539058,1.265625 -3.539058,3.5507812 0,2.203125 1.171875,3.4570313 3.257808,3.4570313 2.29688,0 3.58594,-1.3125 3.58594,-3.6328125 0,-2.1796875 -1.18359,-3.375 -3.30469,-3.375 z m -0.16406,0.6914062 c 1.03125,0 1.51172,1.0195313 1.51172,3.1289063 0,1.7460937 -0.39844,2.49609375 -1.37109,2.49609375 -1.031253,0 -1.570315,-1.04296875 -1.570315,-3.11718755 0,-1.734375 0.433593,-2.5078125 1.429685,-2.5078125 z m 7.14551,-4.2539067 -1.04297,0.316407 c -0.41016,0.128906 -0.90234,0.2109372 -1.73437,0.2929685 v 0.515625 l 0.76171,0.046875 c 0.31641,0.011719 0.375,0.1640625 0.375,1.0078125 v 6.7148437 c 0,0.77343755 -0.0703,0.8789063 -0.51562,0.91406255 l -0.50391,0.0234375 v 0.5390625 l 1.85157,-0.046875 c 0.29296,0 0.97265,0.01171875 1.93359,0.046875 v -0.5390625 l -0.50391,-0.0234375 c -0.43359,-0.0351563 -0.51562,-0.140625 -0.51562,-0.91406255 v -8.8124997 z m 4.77832,3.5625005 -1.00781,0.3164062 c -0.45703,0.1523438 -0.8086,0.2109375 -1.40625,0.28125 -0.0469,0 -0.11719,0.011719 -0.21094,0.023437 v 0.515625 l 0.64453,0.046875 c 0.32813,0.023437 0.375,0.1523438 0.375,1.0078125 v 3.140625 c 0,0.77343755 -0.082,0.8789063 -0.52734,0.91406255 l -0.49219,0.0234375 v 0.5390625 l 1.85156,-0.046875 c 0.28125,0 0.97266,0.01171875 1.9336,0.046875 v -0.5390625 l -0.50391,-0.0234375 c -0.44531,-0.0351563 -0.51562,-0.140625 -0.51562,-0.91406255 V -6.669313 Z m -0.77344,-3.3632815 c -0.62109,0 -1.10156,0.4570315 -1.10156,1.0546877 0,0.609375 0.48047,1.0898438 1.07813,1.0898438 0.58593,0 1.07812,-0.4804688 1.07812,-1.0664063 0,-0.5976562 -0.46875,-1.0781252 -1.05469,-1.0781252 z m 8.02149,5.8593752 c 0.0937,-0.9140625 0.16406,-1.3828125 0.29297,-2.015625 l -0.10547,-0.1875 c -0.65625,-0.234375 -0.96094,-0.2929687 -1.47657,-0.2929687 -0.53906,0 -0.94921,0.1054687 -1.28906,0.3046875 l -0.75,0.4453125 c -1.27734,0.7617187 -1.73437,1.4765625 -1.73437,2.7304687 0,2.2734375 1.13672,3.5273438 3.1875,3.5273438 0.71484,0 1.2539,-0.12890625 1.92187,-0.4921875 l 0.30469,-0.65625 -0.12891,-0.140625 c -0.49218,0.19921875 -0.80859,0.26953125 -1.21875,0.26953125 -1.40625,0 -2.28515,-1.13671875 -2.28515,-2.95312505 0,-1.3125 0.49218,-2.015625 1.40625,-2.015625 0.64453,0 1.21875,0.2929688 1.26562,0.6210938 l 0.0937,0.8554687 z m 4.89258,-2.4960937 c -2.27344,0 -3.53907,1.265625 -3.53907,3.5507812 0,2.203125 1.17188,3.4570313 3.25782,3.4570313 2.29687,0 3.58593,-1.3125 3.58593,-3.6328125 0,-2.1796875 -1.18359,-3.375 -3.30468,-3.375 z m -0.16407,0.6914062 c 1.03125,0 1.51172,1.0195313 1.51172,3.1289063 0,1.7460937 -0.39844,2.49609375 -1.37109,2.49609375 -1.03125,0 -1.57031,-1.04296875 -1.57031,-3.11718755 0,-1.734375 0.43359,-2.5078125 1.42968,-2.5078125 z m 0,0"
         style="fill:#000000;fill-opacity:1;fill-rule:nonzero;stroke:#000000;stroke-width:0.751181;stroke-dasharray:none;stroke-opacity:1" />
      <path
         id="path44"
         d="m 5.7184297,35.433227 c 0,-0.65625 0.070312,-1.242188 0.2109375,-1.757813 -0.5742188,-0.351562 -1.078125,-0.503906 -1.6640625,-0.503906 -0.6914063,0 -1.5,0.269531 -2.3554688,0.820312 -1.00781246,0.632813 -1.53515621,1.628907 -1.53515621,2.894532 0,1.933593 1.35937501,3.292968 3.28125001,3.292968 0.75,0 1.828125,-0.269531 1.96875,-0.480468 L 5.9293672,39.24182 5.7770234,39.019164 c -0.5273437,0.292969 -0.984375,0.421875 -1.5,0.421875 -1.59375,0 -2.6367187,-1.230469 -2.6367187,-3.128906 0,-1.535156 0.7148437,-2.390625 2.0039062,-2.390625 0.6328125,0 1.3242188,0.28125 1.5820313,0.644531 l 0.09375,0.867188 z m 4.6464843,-2.261719 c -2.0859374,0 -3.5390624,1.476562 -3.5390624,3.609375 0,2.027344 1.2773437,3.398437 3.1289062,3.398437 2.2031252,0 3.7851562,-1.523437 3.7851562,-3.679687 0,-1.933594 -1.40625,-3.328125 -3.375,-3.328125 z m -0.257812,0.46875 c 1.324218,0 2.296875,1.441406 2.296875,3.386719 0,1.652343 -0.726563,2.683593 -1.886719,2.683593 -1.4062502,0 -2.3554689,-1.371093 -2.3554689,-3.410156 0,-1.722656 0.6914062,-2.660156 1.9453129,-2.660156 z m 4.68164,4.207031 c 0,0.984375 -0.03516,1.417969 -0.152344,1.992188 0.738282,0.246093 1.300782,0.339843 1.957032,0.339843 1.886718,0 3.222656,-0.996093 3.222656,-2.402343 0,-0.445313 -0.128906,-0.773438 -0.410156,-1.066407 -0.375,-0.351562 -0.84375,-0.527343 -2.109375,-0.773437 -1.171875,-0.222656 -1.558594,-0.515625 -1.558594,-1.171875 0,-0.714844 0.503906,-1.125 1.371094,-1.125 0.960937,0 1.699218,0.503906 1.699218,1.183594 v 0.328125 h 0.398438 c 0.01172,-0.832032 0.03516,-1.183594 0.07031,-1.617188 -0.761718,-0.257812 -1.277343,-0.363281 -1.863281,-0.363281 -1.664062,0 -2.683594,0.785156 -2.683594,2.074219 0,0.691406 0.316407,1.183593 0.984375,1.476562 0.386719,0.175781 1.136719,0.410156 2.121094,0.621094 0.644531,0.140625 0.914063,0.445312 0.914063,0.996094 0,0.773437 -0.714844,1.3125 -1.734375,1.3125 -1.042969,0 -1.792969,-0.503907 -1.792969,-1.21875 v -0.585938 z m 5.601563,-7.429687 h 0.796875 c 0.257812,0 0.363281,0.152343 0.363281,0.585937 v 7.429688 c 0,0.902343 -0.04687,1.007812 -0.539063,1.03125 l -0.644531,0.04687 v 0.433593 c 0.984375,-0.03516 1.371094,-0.04687 1.78125,-0.04687 0.421875,0 0.808594,0.01172 1.78125,0.04687 v -0.433593 l -0.644531,-0.04687 c -0.492188,-0.02344 -0.527344,-0.128907 -0.527344,-1.03125 V 35.39807 c 0,-0.644531 0.9375,-1.347656 1.816406,-1.347656 0.960938,0 1.59375,0.714844 1.59375,1.816406 v 4.078125 c 0.878907,-0.04687 0.890625,-0.04687 1.136719,-0.04687 0.199219,0 0.199219,0 1.183594,0.04687 v -0.433593 l -0.585938,-0.04687 c -0.492187,-0.02344 -0.527343,-0.117188 -0.527343,-1.03125 v -2.765625 c 0,-1.675782 -0.796875,-2.496094 -2.402344,-2.496094 -0.527344,0 -0.832031,0.105469 -1.125,0.363281 l -1.089844,0.9375 v -4.875 l -0.128906,-0.117187 c -0.632813,0.246093 -1.113281,0.363281 -2.238281,0.539062 z m 0,0"
         style="fill:#000000;fill-opacity:1;fill-rule:nonzero;stroke:#000000;stroke-width:0.751181;stroke-dasharray:none;stroke-opacity:1" />
      <path
         id="path45"
         d="m 33.761398,43.484008 c 0,-0.04687 0,-0.07031 -0.246093,-0.328125 -1.875,-1.886719 -2.355469,-4.710938 -2.355469,-6.996094 0,-2.601562 0.574219,-5.203125 2.414062,-7.078125 0.1875,-0.175781 0.1875,-0.199219 0.1875,-0.246094 0,-0.105468 -0.05859,-0.152343 -0.140625,-0.152343 -0.152343,0 -1.5,1.019531 -2.378906,2.917968 -0.761719,1.640625 -0.949219,3.304688 -0.949219,4.558594 0,1.171875 0.164063,2.976563 0.996094,4.664063 0.890625,1.839843 2.179688,2.8125 2.332031,2.8125 0.08203,0 0.140625,-0.04687 0.140625,-0.152344 z m 0,0"
         style="fill:#000000;fill-opacity:1;fill-rule:nonzero;stroke:#000000;stroke-width:0.751181;stroke-dasharray:none;stroke-opacity:1" />
      <path
         id="path46"
         d="m 41.929367,38.49182 c -0.539062,0.445313 -0.878906,0.5625 -1.113281,0.5625 -0.210938,0 -0.386719,-0.04687 -0.527344,-0.316406 -0.128906,-0.269531 -0.304687,-0.878906 -0.375,-1.3125 -0.03516,-0.234375 -0.07031,-0.457031 -0.09375,-0.667969 0.421875,-0.574218 0.84375,-1.207031 1.054688,-1.523437 0.199218,-0.304688 0.738281,-1.160156 0.820312,-1.441406 -0.08203,-0.164063 -0.140625,-0.292969 -0.234375,-0.503907 -0.03516,-0.03516 -0.152344,-0.07031 -0.210937,-0.105468 -0.328125,1.195312 -0.515625,1.59375 -1.042969,2.4375 -0.05859,0.09375 -0.292969,0.445312 -0.457031,0.691406 -0.257813,-1.722656 -0.316407,-2.121094 -0.410157,-2.625 -0.128906,-0.644531 -0.527343,-0.703125 -0.832031,-0.703125 -0.316406,0.01172 -0.785156,0.257812 -1.253906,0.703125 -0.351563,0.316406 -0.621094,0.691406 -0.878906,1.136719 -0.632813,1.277343 -1.089844,2.976562 -1.089844,4.125 0,0.480468 0.210937,1.101562 0.539062,1.101562 0.5625,0 1.019532,-0.28125 1.464844,-0.609375 0.609375,-0.515625 1.253906,-1.160156 1.699219,-1.664062 0.152344,1.488281 0.585937,2.273437 1.125,2.273437 0.316406,0 0.761719,-0.234375 1.242187,-0.65625 l 0.703125,-0.632812 z m -3,-1.160156 c -0.421875,0.492188 -0.832031,0.914063 -1.195312,1.21875 -0.445313,0.375 -0.84375,0.503906 -1.101563,0.503906 -0.1875,0 -0.257812,-0.199218 -0.257812,-0.574218 0,-0.925782 0.234375,-2.472657 0.703125,-3.65625 0.1875,-0.480469 0.539062,-0.890625 0.855468,-0.890625 0.421875,0 0.574219,0.257812 0.667969,0.890625 z m 0,0"
         style="fill:#000000;fill-opacity:1;fill-rule:nonzero;stroke:#000000;stroke-width:0.751181;stroke-dasharray:none;stroke-opacity:1" />
      <path
         id="path47"
         d="m 47.226242,36.159789 c 0,-1.171875 -0.164062,-2.976562 -0.984375,-4.664062 -0.902344,-1.839844 -2.191406,-2.8125 -2.34375,-2.8125 -0.08203,0 -0.140625,0.05859 -0.140625,0.152343 0,0.04687 0,0.07031 0.28125,0.339844 1.464844,1.476563 2.320313,3.855469 2.320313,6.984375 0,2.554688 -0.550782,5.191406 -2.414063,7.078125 -0.1875,0.175781 -0.1875,0.199219 -0.1875,0.246094 0,0.09375 0.05859,0.152344 0.140625,0.152344 0.152344,0 1.5,-1.019532 2.378906,-2.917969 0.761719,-1.640625 0.949219,-3.304688 0.949219,-4.558594 z m 16.086914,-1.148437 c 0.222656,0 0.503906,0 0.503906,-0.304688 0,-0.292969 -0.28125,-0.292969 -0.492187,-0.292969 H 54.37175 c -0.210938,0 -0.503906,0 -0.503906,0.292969 0,0.304688 0.292968,0.304688 0.515625,0.304688 z m 0.01172,2.894531 c 0.210937,0 0.492187,0 0.492187,-0.292969 0,-0.304687 -0.28125,-0.304687 -0.503906,-0.304687 H 54.38347 c -0.222657,0 -0.515625,0 -0.515625,0.304687 0,0.292969 0.292968,0.292969 0.503906,0.292969 z m 0,0"
         style="fill:#000000;fill-opacity:1;fill-rule:nonzero;stroke:#000000;stroke-width:0.751181;stroke-dasharray:none;stroke-opacity:1" />
      <path
         id="path48"
         d="m 74.90007,28.589477 -0.339843,0.246093 c -0.761719,0.539063 -1.453125,0.832032 -1.96875,0.832032 -0.667969,0 -1.089844,-0.527344 -1.089844,-1.394532 0,-0.351562 0.04687,-0.738281 0.117187,-1.160156 l 1.183594,-0.28125 c 0.234375,-0.05859 0.621094,-0.210937 0.984375,-0.363281 1.21875,-0.527344 1.78125,-1.195313 1.78125,-2.074219 0,-0.679687 -0.492187,-1.125 -1.207031,-1.125 -0.9375,0 -2.519531,0.984375 -3.082031,1.910156 -0.433594,0.714844 -0.867188,2.425782 -0.867188,3.386719 0,1.113281 0.632813,1.769531 1.664063,1.769531 0.820312,0 1.628906,-0.398437 2.941406,-1.476562 z m -3.082031,-2.332032 c 0.246094,-0.996093 0.539063,-1.605468 0.949219,-1.980468 0.257812,-0.234375 0.703125,-0.410157 1.042969,-0.410157 0.421875,0 0.691406,0.292969 0.691406,0.75 0,0.632813 -0.503906,1.300782 -1.242188,1.664063 -0.410156,0.199219 -0.925781,0.363281 -1.570312,0.503906 z m 0,0"
         style="fill:#000000;fill-opacity:1;fill-rule:nonzero;stroke:#000000;stroke-width:0.751181;stroke-dasharray:none;stroke-opacity:1" />
      <path
         id="path49"
         d="m 80.914719,24.004516 c -0.363282,0.304687 -0.609375,0.386718 -0.761719,0.386718 -0.152344,0 -0.269531,-0.03516 -0.375,-0.222656 -0.08203,-0.1875 -0.199219,-0.609375 -0.257813,-0.902344 -0.02344,-0.175781 -0.04687,-0.316406 -0.07031,-0.46875 0.304687,-0.398437 0.585937,-0.84375 0.738281,-1.054687 0.140625,-0.210938 0.515625,-0.808594 0.574219,-1.007813 -0.05859,-0.105468 -0.105469,-0.199218 -0.164063,-0.351562 -0.02344,-0.02344 -0.105468,-0.04687 -0.152343,-0.07031 -0.222657,0.832032 -0.351563,1.113282 -0.726563,1.699219 -0.03516,0.05859 -0.199219,0.304688 -0.316406,0.46875 -0.175781,-1.195312 -0.222656,-1.464844 -0.28125,-1.816406 -0.08203,-0.445313 -0.363281,-0.492188 -0.574219,-0.492188 -0.222656,0.01172 -0.550781,0.1875 -0.878906,0.492188 -0.234375,0.222656 -0.421875,0.480469 -0.609375,0.785156 -0.433594,0.890625 -0.75,2.074219 -0.75,2.871094 0,0.328125 0.140625,0.761719 0.375,0.761719 0.386719,0 0.703125,-0.199219 1.019531,-0.421875 0.410156,-0.363282 0.867188,-0.808594 1.171875,-1.160157 0.105469,1.042969 0.410156,1.582032 0.785156,1.582032 0.222657,0 0.527344,-0.164063 0.855469,-0.457032 l 0.492188,-0.433593 z M 78.8405,23.195922 c -0.292969,0.339844 -0.585938,0.632812 -0.832031,0.84375 -0.304688,0.257812 -0.585938,0.351562 -0.761719,0.351562 -0.128906,0 -0.1875,-0.140625 -0.1875,-0.398437 0,-0.644531 0.164062,-1.710938 0.492187,-2.542969 0.128907,-0.328125 0.375,-0.621094 0.597657,-0.621094 0.292968,0 0.398437,0.1875 0.457031,0.621094 z m 0,0"
         style="fill:#000000;fill-opacity:1;fill-rule:nonzero;stroke:#000000;stroke-width:0.751181;stroke-dasharray:none;stroke-opacity:1" />
      <path
         id="path50"
         d="m 91.054367,26.749633 h 4.171875 c 0.210938,0 0.492188,0 0.492188,-0.304688 0,-0.304687 -0.28125,-0.304687 -0.492188,-0.304687 h -4.171875 v -4.183594 c 0,-0.210937 0,-0.492187 -0.304687,-0.492187 -0.292969,0 -0.292969,0.28125 -0.292969,0.492187 v 4.183594 h -4.183594 c -0.210937,0 -0.503906,0 -0.503906,0.304687 0,0.304688 0.292969,0.304688 0.503906,0.304688 h 4.183594 v 4.183594 c 0,0.210937 0,0.492187 0.292969,0.492187 0.304687,0 0.304687,-0.28125 0.304687,-0.492187 z m 0,0"
         style="fill:#000000;fill-opacity:1;fill-rule:nonzero;stroke:#000000;stroke-width:0.751181;stroke-dasharray:none;stroke-opacity:1" />
      <path
         id="path51"
         d="m 104.40495,28.589477 -0.33984,0.246093 c -0.76172,0.539063 -1.45313,0.832032 -1.96875,0.832032 -0.66797,0 -1.08984,-0.527344 -1.08984,-1.394532 0,-0.351562 0.0469,-0.738281 0.11718,-1.160156 l 1.1836,-0.28125 c 0.23437,-0.05859 0.62109,-0.210937 0.98437,-0.363281 1.21875,-0.527344 1.78125,-1.195313 1.78125,-2.074219 0,-0.679687 -0.49219,-1.125 -1.20703,-1.125 -0.9375,0 -2.51953,0.984375 -3.08203,1.910156 -0.43359,0.714844 -0.867188,2.425782 -0.867188,3.386719 0,1.113281 0.632808,1.769531 1.664058,1.769531 0.82032,0 1.62891,-0.398437 2.94141,-1.476562 z m -3.08203,-2.332032 c 0.2461,-0.996093 0.53906,-1.605468 0.94922,-1.980468 0.25781,-0.234375 0.70313,-0.410157 1.04297,-0.410157 0.42187,0 0.69141,0.292969 0.69141,0.75 0,0.632813 -0.50391,1.300782 -1.24219,1.664063 -0.41016,0.199219 -0.92578,0.363281 -1.57031,0.503906 z m 0,0"
         style="fill:#000000;fill-opacity:1;fill-rule:nonzero;stroke:#000000;stroke-width:0.751181;stroke-dasharray:none;stroke-opacity:1" />
      <path
         id="path52"
         d="m 112.43523,22.586547 c 0.17578,0 0.36328,0 0.36328,-0.210938 0,-0.199218 -0.1875,-0.199218 -0.36328,-0.199218 h -5.61328 c -0.1875,0 -0.36329,0 -0.36329,0.199218 0,0.210938 0.17579,0.210938 0.36329,0.210938 z m 0,0"
         style="fill:#000000;fill-opacity:1;fill-rule:nonzero;stroke:#000000;stroke-width:0.751181;stroke-dasharray:none;stroke-opacity:1" />
      <path
         id="path53"
         d="m 118.73698,24.004516 c -0.36328,0.304687 -0.60937,0.386718 -0.76171,0.386718 -0.15235,0 -0.26954,-0.03516 -0.375,-0.222656 -0.082,-0.1875 -0.19922,-0.609375 -0.25782,-0.902344 -0.0234,-0.175781 -0.0469,-0.316406 -0.0703,-0.46875 0.30469,-0.398437 0.58594,-0.84375 0.73828,-1.054687 0.14063,-0.210938 0.51563,-0.808594 0.57422,-1.007813 -0.0586,-0.105468 -0.10547,-0.199218 -0.16406,-0.351562 -0.0234,-0.02344 -0.10547,-0.04687 -0.15235,-0.07031 -0.22265,0.832032 -0.35156,1.113282 -0.72656,1.699219 -0.0352,0.05859 -0.19922,0.304688 -0.3164,0.46875 -0.17579,-1.195312 -0.22266,-1.464844 -0.28125,-1.816406 -0.082,-0.445313 -0.36329,-0.492188 -0.57422,-0.492188 -0.22266,0.01172 -0.55078,0.1875 -0.87891,0.492188 -0.23437,0.222656 -0.42187,0.480469 -0.60937,0.785156 -0.4336,0.890625 -0.75,2.074219 -0.75,2.871094 0,0.328125 0.14062,0.761719 0.375,0.761719 0.38671,0 0.70312,-0.199219 1.01953,-0.421875 0.41015,-0.363282 0.86718,-0.808594 1.17187,-1.160157 0.10547,1.042969 0.41016,1.582032 0.78516,1.582032 0.22265,0 0.52734,-0.164063 0.85547,-0.457032 l 0.49218,-0.433593 z m -2.07421,-0.808594 c -0.29297,0.339844 -0.58594,0.632812 -0.83204,0.84375 -0.30468,0.257812 -0.58593,0.351562 -0.76171,0.351562 -0.12891,0 -0.1875,-0.140625 -0.1875,-0.398437 0,-0.644531 0.16406,-1.710938 0.49218,-2.542969 0.12891,-0.328125 0.375,-0.621094 0.59766,-0.621094 0.29297,0 0.39844,0.1875 0.45703,0.621094 z m 0,0"
         style="fill:#000000;fill-opacity:1;fill-rule:nonzero;stroke:#000000;stroke-width:0.751181;stroke-dasharray:none;stroke-opacity:1" />
    </g>
    <path
       id="path54"
       d="M 0,0 H 49.77"
       style="fill:none;stroke:#000000;stroke-width:0.751181;stroke-linecap:butt;stroke-linejoin:miter;stroke-miterlimit:10;stroke-dasharray:none;stroke-opacity:1"
       transform="matrix(1.3333333,0,0,-1.3333333,224.492,574.212)" />
    <path
       id="path55"
       d="m 0.23434375,-0.32723438 v 0.375 C 2.9062187,8.90625e-4 2.9062187,8.90625e-4 3.4335625,8.90625e-4 c 0.515625,0 0.515625,0 3.28125,0.046874995 -0.035156,-0.3046875 -0.035156,-0.4453125 -0.035156,-0.64453125 0,-0.1875 0,-0.33984375 0.035156,-0.64453127 -1.6523438,0.070312 -2.3085938,0.082031 -4.96875,0.140625 l 2.6132812,-2.765625 c 1.3945313,-1.4882812 1.828125,-2.2734375 1.828125,-3.3515625 0,-1.640625 -1.125,-2.6601562 -2.9414062,-2.6601562 -1.0429688,0 -1.734375,0.28125 -2.4375,0.9960937 L 0.56246875,-6.9248906 H 0.972625 l 0.1875,-0.65625 c 0.234375,-0.8320313 0.75,-1.1953125 1.7109375,-1.1953125 1.2304687,0 2.015625,0.7734375 2.015625,1.9921875 0,1.078125 -0.5976563,2.1328125 -2.2148438,3.8554687 z m 0,0"
       style="fill:#000000;fill-opacity:1;fill-rule:nonzero;stroke:#000000;stroke-width:0.751181;stroke-dasharray:none;stroke-opacity:1"
       aria-label="2"
       transform="matrix(1.3333333,0,0,1.3333333,252.89067,592.116)" />
  </g>
</svg>
