<?xml version="1.0" encoding="UTF-8" standalone="no"?>
<!-- Created with Inkscape (http://www.inkscape.org/) -->

<svg
   version="1.1"
   id="svg1"
   width="80.35714"
   height="42.857143"
   viewBox="0 0 80.35714 42.857143"
   sodipodi:docname="writetex.pdf"
   inkscape:export-batch-path="..\Akemicos\Akdemicos-Front\public"
   inkscape:export-batch-name="coseno"
   xmlns:inkscape="http://www.inkscape.org/namespaces/inkscape"
   xmlns:sodipodi="http://sodipodi.sourceforge.net/DTD/sodipodi-0.dtd"
   xmlns="http://www.w3.org/2000/svg"
   xmlns:svg="http://www.w3.org/2000/svg">
  <defs
     id="defs1">
    <clipPath
       clipPathUnits="userSpaceOnUse"
       id="clipPath176">
      <rect
         style="fill:#000000"
         id="rect177"
         width="80.35714"
         height="42.857143"
         x="131.25"
         y="325" />
    </clipPath>
  </defs>
  <sodipodi:namedview
     id="namedview1"
     pagecolor="#ffffff"
     bordercolor="#000000"
     borderopacity="0.25"
     inkscape:showpageshadow="2"
     inkscape:pageopacity="0.0"
     inkscape:pagecheckerboard="0"
     inkscape:deskcolor="#d1d1d1"
     showgrid="false">
    <inkscape:page
       x="0"
       y="0"
       width="80.35714"
       height="42.857143"
       id="page1"
       margin="0"
       bleed="0" />
  </sodipodi:namedview>
  <g
     id="g1"
     inkscape:groupmode="layer"
     inkscape:label="1"
     clip-path="url(#clipPath176)"
     style="stroke:#000000;stroke-opacity:1"
     transform="translate(-131.25,-325)">
    <g
       id="g13"
       aria-label="Coseno&#10;cosθ=&#10;x"
       transform="matrix(1.3333333,0,0,1.3333333,131.12933,304.296)"
       style="stroke:#000000;stroke-opacity:1">
      <path
         id="path14"
         d="M 9.9254609,-1.2415312 9.7496797,-1.4173125 C 8.8238984,-0.93684375 7.8863984,-0.69075 6.9606172,-0.69075 c -2.5195313,0 -4.1835938,-1.78125 -4.1835938,-4.4882812 0,-2.4609375 1.40625,-3.984375 3.6796875,-3.984375 1.078125,0 1.78125,0.2695312 2.5546875,0.984375 l 0.070312,1.2421875 h 0.5625 c 0.1523438,-1.3828125 0.1992188,-1.6523438 0.328125,-2.203125 l -0.09375,-0.1523438 C 8.5778047,-9.8079375 7.7692109,-9.972 6.5270234,-9.972 c -3.6328125,0 -5.89453121,1.921875 -5.89453121,4.9921875 0,3.2109375 2.20312501,5.2265625 5.75390621,5.2265625 1.3125,0 2.1679688,-0.19921875 3.2226563,-0.796875 z m 4.5468751,-5.5195313 c -2.273438,0 -3.539063,1.265625 -3.539063,3.5507813 0,2.203125 1.171875,3.4570312 3.257813,3.4570312 2.296875,0 3.585937,-1.3125 3.585937,-3.6328125 0,-2.1796875 -1.183593,-3.375 -3.304687,-3.375 z m -0.164063,0.6914063 c 1.03125,0 1.511719,1.0195312 1.511719,3.1289062 0,1.7460938 -0.398437,2.49609375 -1.371094,2.49609375 -1.03125,0 -1.570312,-1.04296875 -1.570312,-3.11718745 0,-1.734375 0.433594,-2.5078125 1.429687,-2.5078125 z m 9.216797,1.3945312 0.117188,-1.7460937 c -0.5625,-0.2460938 -1.007813,-0.3398438 -1.769531,-0.3398438 -1.933594,0 -2.976563,0.7851563 -2.976563,2.2148438 0,0.9492187 0.515625,1.546875 1.511719,1.7929687 l 1.242187,0.3046875 c 0.65625,0.1523438 0.902344,0.3984375 0.902344,0.9023438 0,0.6679687 -0.515625,1.10156245 -1.324219,1.10156245 -0.667968,0 -1.148437,-0.2109375 -1.605468,-0.74999995 l -0.07031,-0.984375 h -0.5625 l -0.09375,2.0273437 c 0.820313,0.28125 1.464844,0.3984375 2.214844,0.3984375 1.816406,0 3.035156,-0.99609375 3.035156,-2.4726562 0,-1.03125 -0.539062,-1.5585938 -1.828125,-1.8515625 l -1.171875,-0.2578125 c -0.5625,-0.1289063 -0.785156,-0.3515625 -0.785156,-0.796875 0,-0.5742188 0.480469,-0.9375 1.253906,-0.9375 0.574219,0 1.207031,0.28125 1.253906,0.5625 l 0.140625,0.8320312 z m 7.78711,0.4453125 c 0,-1.5351562 -1.078125,-2.53125 -2.707032,-2.53125 -0.503906,0 -0.878906,0.1054688 -1.265625,0.3398438 l -0.667968,0.3984375 c -0.949219,0.5625 -1.371094,1.4179687 -1.371094,2.7773437 0,2.28515625 1.148437,3.4921875 3.292969,3.4921875 0.808593,0 1.347656,-0.140625 2.261718,-0.62109375 L 31.171555,-1.06575 30.995773,-1.2766875 c -0.667968,0.375 -1.101562,0.50390625 -1.675781,0.50390625 -0.75,0 -1.441406,-0.39843745 -1.804687,-1.01953125 -0.234375,-0.3984375 -0.316407,-0.7265625 -0.339844,-1.40625 h 1.875 c 0.820312,0 1.464844,-0.082031 2.261719,-0.28125 z m -3.023438,0.3164063 h -0.05859 c -0.08203,0 -0.46875,-0.011719 -0.691406,-0.035156 l -0.457031,-0.011719 c 0.04687,-1.4179688 0.386719,-1.9921875 1.21875,-1.9921875 0.820312,0 1.160156,0.5742187 1.195312,1.9921875 z m 3.928711,-1.7109375 0.644531,0.046875 c 0.339844,0.023437 0.375,0.1523437 0.375,1.0078125 v 3.140625 c 0,0.77343745 -0.07031,0.8789062 -0.515625,0.91406245 l -0.503906,0.0234375 v 0.5390625 l 1.851563,-0.046875 c 0.292968,0 0.984375,0.01171875 1.945312,0.046875 v -0.5390625 l -0.503906,-0.0234375 c -0.445313,-0.0351563 -0.515625,-0.140625 -0.515625,-0.91406245 v -3.1171875 c 0,-0.5039063 0.585937,-0.9726563 1.21875,-0.9726563 0.9375,0 1.347656,0.5039063 1.347656,1.6523438 v 3.91406245 c 0.808594,-0.03515625 1.054688,-0.046875 1.289063,-0.046875 0.199218,0 0.199218,0 1.441406,0.046875 v -0.5390625 l -0.46875,-0.0234375 c -0.445313,-0.0351563 -0.515625,-0.140625 -0.515625,-0.91406245 v -2.671875 c 0,-1.1015625 -0.128906,-1.6523438 -0.503906,-2.0507813 -0.375,-0.3867187 -0.960938,-0.609375 -1.664063,-0.609375 -0.433594,0 -0.773437,0.09375 -0.996094,0.28125 l -1.148437,0.890625 v -1.078125 l -0.09375,-0.09375 c -1.488281,0.4921875 -1.886719,0.5742188 -2.683594,0.6210938 z m 12.539063,-1.1367188 c -2.273438,0 -3.539063,1.265625 -3.539063,3.5507813 0,2.203125 1.171875,3.4570312 3.257813,3.4570312 2.296875,0 3.585937,-1.3125 3.585937,-3.6328125 0,-2.1796875 -1.183594,-3.375 -3.304687,-3.375 z m -0.164063,0.6914063 c 1.03125,0 1.511719,1.0195312 1.511719,3.1289062 0,1.7460938 -0.398438,2.49609375 -1.371094,2.49609375 -1.03125,0 -1.570312,-1.04296875 -1.570312,-3.11718745 0,-1.734375 0.433593,-2.5078125 1.429687,-2.5078125 z m 0,0"
         style="fill:#000000;fill-opacity:1;fill-rule:nonzero;stroke:#000000;stroke-opacity:1" />
      <path
         id="path15"
         d="m 5.7184297,31.401047 c 0,-0.65625 0.070312,-1.242188 0.2109375,-1.757813 -0.5742188,-0.351562 -1.078125,-0.503906 -1.6640625,-0.503906 -0.6914063,0 -1.5,0.269531 -2.3554688,0.820313 -1.00781246,0.632812 -1.53515621,1.628906 -1.53515621,2.894531 0,1.933594 1.35937501,3.292969 3.28125001,3.292969 0.75,0 1.828125,-0.269532 1.96875,-0.480469 L 5.9293672,35.209641 5.7770234,34.986984 c -0.5273437,0.292969 -0.984375,0.421875 -1.5,0.421875 -1.59375,0 -2.6367187,-1.230468 -2.6367187,-3.128906 0,-1.535156 0.7148437,-2.390625 2.0039062,-2.390625 0.6328125,0 1.3242188,0.28125 1.5820313,0.644531 l 0.09375,0.867188 z m 4.6464843,-2.261719 c -2.0859374,0 -3.5390624,1.476563 -3.5390624,3.609375 0,2.027344 1.2773437,3.398438 3.1289062,3.398438 2.2031252,0 3.7851562,-1.523438 3.7851562,-3.679688 0,-1.933594 -1.40625,-3.328125 -3.375,-3.328125 z m -0.257812,0.46875 c 1.324218,0 2.296875,1.441406 2.296875,3.386719 0,1.652344 -0.726563,2.683594 -1.886719,2.683594 -1.4062502,0 -2.3554689,-1.371094 -2.3554689,-3.410157 0,-1.722656 0.6914062,-2.660156 1.9453129,-2.660156 z m 4.68164,4.207031 c 0,0.984375 -0.03516,1.417969 -0.152344,1.992188 0.738282,0.246094 1.300782,0.339844 1.957032,0.339844 1.886718,0 3.222656,-0.996094 3.222656,-2.402344 0,-0.445313 -0.128906,-0.773438 -0.410156,-1.066406 -0.375,-0.351563 -0.84375,-0.527344 -2.109375,-0.773438 -1.171875,-0.222656 -1.558594,-0.515625 -1.558594,-1.171875 0,-0.714844 0.503906,-1.125 1.371094,-1.125 0.960937,0 1.699218,0.503906 1.699218,1.183594 v 0.328125 h 0.398438 c 0.01172,-0.832031 0.03516,-1.183594 0.07031,-1.617188 -0.761718,-0.257812 -1.277343,-0.363281 -1.863281,-0.363281 -1.664062,0 -2.683594,0.785156 -2.683594,2.074219 0,0.691406 0.316407,1.183594 0.984375,1.476562 0.386719,0.175782 1.136719,0.410157 2.121094,0.621094 0.644531,0.140625 0.914063,0.445313 0.914063,0.996094 0,0.773437 -0.714844,1.3125 -1.734375,1.3125 -1.042969,0 -1.792969,-0.503906 -1.792969,-1.21875 v -0.585938 z m 0,0"
         style="fill:#000000;fill-opacity:1;fill-rule:nonzero;stroke:#000000;stroke-opacity:1" />
      <path
         id="path16"
         d="m 27.403977,25.670578 c -0.621094,0 -1.242188,0.292969 -1.910157,0.949219 -1.277343,1.21875 -2.226562,3.375 -2.226562,6.023437 0,2.273438 0.46875,3.375 1.664062,3.375 0.761719,0 1.652344,-0.527343 2.332032,-1.382812 0.972656,-1.253906 1.863281,-3.621094 1.863281,-5.789063 0,-1.992187 -0.550781,-3.175781 -1.722656,-3.175781 z m -1.230469,5.460938 c 0.972656,0 1.371094,0.04687 1.617187,0.164062 -0.316406,1.441406 -0.84375,2.730469 -1.300781,3.480469 -0.292969,0.445312 -0.679687,0.703125 -1.113281,0.703125 -0.855469,0 -1.007813,-1.101563 -1.007813,-2.8125 0,-0.445313 0.02344,-0.902344 0.09375,-1.359375 0.304688,-0.128906 0.691407,-0.175781 1.710938,-0.175781 z m 0.867187,-4.921875 c 0.914063,0 0.996094,1.183593 0.996094,2.953125 0,0.410156 -0.03516,0.820312 -0.08203,1.21875 -0.292969,0.105468 -0.738281,0.152343 -1.6875,0.152343 -0.972656,0 -1.382813,-0.04687 -1.640625,-0.152343 0.363281,-1.6875 1.03125,-3.234375 1.546875,-3.84375 0.199219,-0.210938 0.527344,-0.328125 0.867187,-0.328125 z m 0,0"
         style="fill:#000000;fill-opacity:1;fill-rule:nonzero;stroke:#000000;stroke-opacity:1" />
      <path
         id="path17"
         d="m 44.276047,30.979172 c 0.222656,0 0.503906,0 0.503906,-0.304688 0,-0.292968 -0.28125,-0.292968 -0.492187,-0.292968 h -8.953125 c -0.210938,0 -0.503907,0 -0.503907,0.292968 0,0.304688 0.292969,0.304688 0.515625,0.304688 z m 0.01172,2.894531 c 0.210937,0 0.492187,0 0.492187,-0.292969 0,-0.304687 -0.28125,-0.304687 -0.503906,-0.304687 H 35.34636 c -0.222656,0 -0.515625,0 -0.515625,0.304687 0,0.292969 0.292969,0.292969 0.503907,0.292969 z m 0,0"
         style="fill:#000000;fill-opacity:1;fill-rule:nonzero;stroke:#000000;stroke-opacity:1" />
      <path
         id="path18"
         d="m 51.708664,24.888352 c 0,0.292968 -0.03516,0.480468 -0.117187,0.9375 -0.03516,0.175781 -0.04687,0.210937 -0.05859,0.316406 0.210937,0.117187 0.445312,0.164062 0.621094,0.164062 0.46875,0 1.03125,-0.410156 1.476562,-1.089843 l 1.089844,-1.675782 0.152344,0.996094 c 0.1875,1.21875 0.515625,1.769531 1.03125,1.769531 0.316406,0 0.773437,-0.234375 1.242187,-0.65625 l 0.703125,-0.632812 -0.128906,-0.269531 c -0.527344,0.433593 -0.878906,0.644531 -1.113281,0.644531 -0.210938,0 -0.398438,-0.140625 -0.539063,-0.433594 -0.128906,-0.269531 -0.292969,-0.796875 -0.363281,-1.21875 l -0.257813,-1.441406 0.503907,-0.703125 c 0.679687,-0.9375 1.066406,-1.265625 1.511718,-1.265625 0.222657,0 0.398438,0.117187 0.46875,0.328125 l 0.199219,-0.05859 0.210938,-1.21875 c -0.164063,-0.09375 -0.292969,-0.140625 -0.421875,-0.140625 -0.574219,0 -1.148438,0.515625 -2.039063,1.839844 l -0.527344,0.785156 -0.09375,-0.691406 c -0.164062,-1.417969 -0.550781,-1.933594 -1.40625,-1.933594 -0.375,0 -0.679687,0.117188 -0.808593,0.304688 l -0.832032,1.183593 0.234375,0.152344 c 0.433594,-0.492187 0.726563,-0.691406 0.996094,-0.691406 0.46875,0 0.785156,0.585937 1.03125,1.992187 l 0.152344,0.890625 -0.574219,0.890625 c -0.609375,0.960938 -1.101562,1.417969 -1.5,1.417969 -0.210937,0 -0.375,-0.05859 -0.398437,-0.128906 l -0.164063,-0.398438 z m 0,0"
         style="fill:#000000;fill-opacity:1;fill-rule:nonzero;stroke:#000000;stroke-opacity:1" />
    </g>
    <path
       id="path19"
       d="M 0,0 H 7.919"
       style="fill:none;stroke:#000000;stroke-width:0.574;stroke-linecap:butt;stroke-linejoin:miter;stroke-miterlimit:10;stroke-dasharray:none;stroke-opacity:1"
       transform="matrix(1.3333333,0,0,-1.3333333,199.10267,347.33467)" />
    <g
       id="g19"
       aria-label="r&#10;Dominio=R,Rango=[-1,1],Periodo=2π"
       transform="matrix(1.3333333,0,0,1.3333333,200.47067,365.23867)"
       style="stroke:#000000;stroke-opacity:1">
      <path
         id="path20"
         d="m 5.272,-5.2385703 c 0.046875,-0.5390625 0.1171875,-0.9960938 0.234375,-1.59375 -0.1523438,-0.070312 -0.2109375,-0.082031 -0.28125,-0.082031 -0.4453125,0 -0.890625,0.3398438 -1.40625,1.078125 l -0.3867188,0.5625 c -0.5625,0.796875 -0.7382812,1.1015625 -0.9609375,1.6054688 l 0.1054688,-0.5976563 c 0.058594,-0.328125 0.1757812,-0.9023437 0.2578125,-1.21875 L 2.92825,-5.847945 c 0.058594,-0.2460938 0.082031,-0.4335938 0.082031,-0.609375 0,-0.28125 -0.1171875,-0.4570313 -0.328125,-0.4570313 -0.3046875,0 -0.84375,0.3046875 -1.9101562,1.0664063 l -0.3984375,0.28125 0.09375,0.2929687 0.46875,-0.3046875 C 1.3345,-5.8362266 1.4868437,-5.9065391 1.61575,-5.9065391 c 0.1523437,0 0.2460937,0.1289063 0.2460937,0.3164063 0,0.8320312 -0.6210937,3.7851562 -1.1835937,5.61328124 l 0.140625,0.10546875 c 0.2109375,-0.0703125 0.4453125,-0.1171875 0.7734375,-0.1875 l 0.1875,-0.0234375 0.375,-1.72265629 c 0.2578125,-1.1953125 0.5859375,-1.9570312 1.21875,-2.765625 0.4804687,-0.6328125 0.8671875,-0.9375 1.1835937,-0.9375 0.2226563,0 0.3632813,0.070312 0.515625,0.2695313 z m 0,0"
         style="fill:#000000;fill-opacity:1;fill-rule:nonzero;stroke:#000000;stroke-opacity:1" />
      <path
         id="path21"
         d="m -51.186008,51.447953 v 0.328125 c 1.664063,-0.04687 1.664063,-0.04687 1.992188,-0.04687 0.257812,0 0.492187,0 0.75,0.01172 1.125,0.03516 1.125,0.03516 1.324218,0.03516 1.839844,0 3.222657,-0.480469 4.21875,-1.464844 1.03125,-1.019531 1.664063,-2.566406 1.664063,-4.101562 0,-2.671875 -1.980469,-4.40625 -5.003906,-4.40625 -0.105469,0 -0.28125,0 -0.539063,0.01172 -0.726562,0.01172 -1.335937,0.03516 -1.957031,0.03516 -0.527344,0 -1.324219,-0.02344 -2.953125,-0.04687 v 0.433594 l 0.574219,0.03516 c 0.65625,0.04687 0.726562,0.175781 0.726562,1.300781 v 6.796875 c 0,0.410156 -0.128906,0.726563 -0.351562,0.84375 z m 2.167969,-8.953125 c 0.363281,-0.07031 0.867187,-0.117187 1.582031,-0.117187 1.054688,0 2.203125,0.1875 2.800781,0.457031 0.316407,0.128906 0.585938,0.328125 0.84375,0.585937 0.691407,0.691407 1.019532,1.722657 1.019532,3.164063 0,1.605469 -0.480469,2.835937 -1.429688,3.609375 -0.867187,0.703125 -1.722656,0.949219 -3.339844,0.949219 -0.667968,0 -1.113281,-0.03516 -1.476562,-0.117188 z m 12.111328,2.507813 c -2.085937,0 -3.539062,1.476562 -3.539062,3.609375 0,2.027343 1.277343,3.398437 3.128906,3.398437 2.203125,0 3.785156,-1.523437 3.785156,-3.679687 0,-1.933594 -1.40625,-3.328125 -3.375,-3.328125 z m -0.257812,0.46875 c 1.324218,0 2.296875,1.441406 2.296875,3.386718 0,1.652344 -0.726563,2.683594 -1.886719,2.683594 -1.40625,0 -2.355469,-1.371094 -2.355469,-3.410156 0,-1.722656 0.691406,-2.660156 1.945313,-2.660156 z m 4.353515,0.515625 h 0.527344 c 0.574219,0 0.632812,0.105468 0.632812,1.054687 v 3.222656 c 0,0.902344 -0.03516,1.007813 -0.527343,1.03125 l -0.65625,0.04687 v 0.433594 c 1.371093,-0.04687 1.417968,-0.04687 1.816406,-0.04687 0.398437,0 0.773437,0.01172 1.710937,0.04687 v -0.433594 l -0.609375,-0.04687 c -0.480468,-0.02344 -0.527343,-0.128906 -0.527343,-1.03125 v -3.035156 c 0,-0.644531 0.949218,-1.347656 1.804687,-1.347656 0.773438,0 1.3125,0.726562 1.3125,1.816406 v 2.566406 c 0,0.902344 -0.04687,1.007813 -0.539062,1.03125 l -0.65625,0.04687 v 0.433594 c 1.429687,-0.04687 1.429687,-0.04687 1.792968,-0.04687 0.363282,0 0.363282,0 1.792969,0.04687 v -0.433594 l -0.65625,-0.04687 c -0.492187,-0.02344 -0.539062,-0.128906 -0.539062,-1.03125 v -3.035156 c 0,-0.644531 0.949218,-1.347656 1.816406,-1.347656 0.773437,0 1.300781,0.726562 1.300781,1.816406 v 4.078125 c 0.878906,-0.04687 0.890625,-0.04687 1.136719,-0.04687 0.1875,0 0.1875,0 1.277344,0.04687 v -0.433594 l -0.679688,-0.04687 c -0.480469,-0.02344 -0.527344,-0.128906 -0.527344,-1.03125 v -2.953125 c 0,-1.417968 -0.832031,-2.308593 -2.15625,-2.308593 -0.503906,0 -0.914062,0.128906 -1.171875,0.363281 l -1.089843,0.972656 c -0.457032,-0.949219 -1.054688,-1.335937 -2.039063,-1.335937 -0.527344,0 -0.9375,0.128906 -1.195312,0.363281 l -0.984375,0.914062 v -1.21875 l -0.128907,-0.05859 c -0.726562,0.304687 -1.476562,0.503906 -2.238281,0.585937 z m 15.105469,-0.925782 -0.128906,-0.05859 c -0.726563,0.304687 -1.476563,0.503906 -2.238282,0.585937 v 0.398438 h 0.527344 c 0.574219,0 0.632813,0.105468 0.632813,1.054687 v 3.222656 c 0,0.902344 -0.03516,1.007813 -0.527344,1.03125 l -0.65625,0.04687 v 0.433594 c 1.429687,-0.04687 1.429687,-0.04687 1.792969,-0.04687 0.351562,0 0.351562,0 1.792968,0.04687 v -0.433594 l -0.667968,-0.04687 c -0.480469,-0.02344 -0.527344,-0.128906 -0.527344,-1.03125 z m -0.65625,-3.1875 c -0.433594,0 -0.808594,0.375 -0.808594,0.808594 0,0.410156 0.375,0.785156 0.796875,0.785156 0.410156,0 0.796875,-0.375 0.796875,-0.785156 0,-0.410156 -0.386719,-0.808594 -0.785156,-0.808594 z m 8.018555,9.902344 c 0.8789059,-0.04687 0.8906246,-0.04687 1.1367184,-0.04687 0.1992187,0 0.1992187,0 1.1835937,0.04687 v -0.433594 l -0.5859375,-0.04687 c -0.4921875,-0.02344 -0.5273437,-0.117187 -0.5273437,-1.03125 v -2.765625 c 0,-1.675781 -0.796875,-2.496093 -2.4023439,-2.496093 -0.527344,0 -0.832031,0.105468 -1.125,0.363281 l -1.089844,0.9375 v -1.242188 l -0.128906,-0.05859 c -0.738281,0.304687 -1.488281,0.503906 -2.238281,0.585937 v 0.398438 h 0.527344 c 0.574218,0 0.632812,0.105468 0.632812,1.054687 v 3.222656 c 0,0.902344 -0.04687,1.007813 -0.539062,1.03125 l -0.644532,0.04687 v 0.433594 c 0.984375,-0.03516 1.371094,-0.04687 1.78125,-0.04687 0.421875,0 0.808594,0.01172 1.78125,0.04687 v -0.433594 l -0.644531,-0.04687 c -0.492187,-0.02344 -0.527344,-0.128906 -0.527344,-1.03125 v -3.035156 c 0,-0.644531 0.9375,-1.347656 1.816407,-1.347656 0.960937,0 1.59375,0.714844 1.59375,1.816406 z m 5.162109,-6.714844 -0.1289063,-0.05859 c -0.7265625,0.304687 -1.4765625,0.503906 -2.2382812,0.585937 v 0.398438 h 0.5273437 c 0.5742188,0 0.6328125,0.105468 0.6328125,1.054687 v 3.222656 c 0,0.902344 -0.035156,1.007813 -0.5273437,1.03125 l -0.65625,0.04687 v 0.433594 c 1.4296875,-0.04687 1.4296875,-0.04687 1.7929687,-0.04687 0.3515625,0 0.3515625,0 1.7929688,0.04687 v -0.433594 l -0.6679688,-0.04687 C -5.13425,51.272172 -5.181125,51.166703 -5.181125,50.264359 Z m -0.65625,-3.1875 c -0.4335938,0 -0.8085938,0.375 -0.8085938,0.808594 0,0.410156 0.375,0.785156 0.796875,0.785156 0.4101563,0 0.796875,-0.375 0.796875,-0.785156 0,-0.410156 -0.3867187,-0.808594 -0.7851562,-0.808594 z m 6.13183594,3.128907 c -2.08593754,0 -3.53906254,1.476562 -3.53906254,3.609375 0,2.027343 1.2773438,3.398437 3.12890629,3.398437 2.20312501,0 3.78515621,-1.523437 3.78515621,-3.679687 0,-1.933594 -1.40625,-3.328125 -3.37499996,-3.328125 z m -0.2578125,0.46875 c 1.32421876,0 2.29687496,1.441406 2.29687496,3.386718 0,1.652344 -0.7265625,2.683594 -1.88671871,2.683594 -1.40625,0 -2.35546879,-1.371094 -2.35546879,-3.410156 0,-1.722656 0.6914063,-2.660156 1.94531254,-2.660156 z M 16.261258,46.197953 H 9.0307891 v 0.796875 h 7.2304689 z m 0,2.777344 H 9.0307891 v 0.808594 h 7.2304689 z m 0,0"
         style="fill:#000000;fill-opacity:1;fill-rule:nonzero;stroke:#000000;stroke-opacity:1" />
      <path
         id="path22"
         d="m 17.315945,42.237016 0.632813,0.03516 c 0.585937,0.04687 0.726562,0.164062 0.726562,1.300781 v 6.433594 c 0,1.136719 -0.140625,1.265625 -0.726562,1.289062 l -0.632813,0.04687 v 0.433594 c 0.84375,-0.03516 2.167969,-0.04687 2.90625,-0.04687 0.75,0 2.132813,0.01172 2.976563,0.04687 v -0.433594 l -0.691406,-0.04687 C 21.86282,51.260453 21.780789,51.14327 21.780789,50.088582 V 42.51827 c 0.492188,-0.128907 0.914063,-0.164063 1.40625,-0.164063 1.488281,0 2.320313,0.679688 2.320313,1.898438 0,1.324218 -1.054688,2.15625 -2.71875,2.15625 -0.08203,0 -0.222657,0 -0.410157,-0.01172 l -0.08203,0.164062 c 0.152344,0.1875 0.199219,0.246094 0.363281,0.433594 0.210938,0.234375 0.246094,0.292969 0.375,0.457031 l 2.648438,3.550782 c 0.08203,0.105468 0.164062,0.222656 0.257812,0.328125 l 0.328125,0.445312 c 0.585938,-0.03516 0.796875,-0.04687 0.972657,-0.04687 0.152343,0 0.339843,0.01172 1.03125,0.04687 v -0.433594 c -0.457032,-0.04687 -0.691407,-0.128906 -0.878907,-0.375 L 24.147978,46.7253 c 0.785156,-0.1875 1.136718,-0.351563 1.605468,-0.65625 0.785157,-0.550781 1.183594,-1.265625 1.183594,-2.109375 0,-1.394531 -0.984375,-2.15625 -2.8125,-2.15625 h -0.19922 c -0.28125,0.01172 -0.527343,0.01172 -0.726562,0.02344 -0.433594,0.02344 -0.972656,0.02344 -1.523438,0.02344 h -1.453125 c -0.738281,0 -2.0625,-0.02344 -2.90625,-0.04687 z m 3.09375,1.335937 v 6.433594 c 0,1.136719 -0.07031,1.253906 -0.527343,1.289062 -0.457032,-0.03516 -0.539063,-0.152343 -0.539063,-1.289062 v -6.433594 c 0,-1.136719 0.08203,-1.253906 0.539063,-1.300781 0.457031,0.03516 0.527343,0.164062 0.527343,1.300781 z m 0,0"
         style="fill:#000000;fill-opacity:1;fill-rule:nonzero;stroke:#000000;stroke-opacity:1" />
      <path
         id="path23"
         d="m 35.726102,49.959672 c -0.386719,0.128906 -0.644532,0.222656 -1.40625,0.433594 -0.105469,1.089843 -0.457032,2.027343 -1.289063,3.398437 l 0.199219,0.164063 0.585937,-0.28125 c 1.160157,-1.5 1.710938,-2.402344 2.109375,-3.503907 z m 7.924804,-7.441406 c 0.492188,-0.117188 0.925781,-0.164063 1.40625,-0.164063 1.5,0 2.332031,0.679688 2.332031,1.898438 0,1.324218 -1.054687,2.15625 -2.71875,2.15625 -0.09375,0 -0.222656,0 -0.410156,-0.01172 l -0.09375,0.164062 c 0.164063,0.1875 0.210938,0.246094 0.375,0.433594 0.199219,0.234375 0.246094,0.292969 0.375,0.457031 l 2.636719,3.550782 c 0.09375,0.105468 0.175781,0.222656 0.257812,0.328125 0.105469,0.128906 0.1875,0.257812 0.328125,0.445312 0.679688,-0.04687 0.820313,-0.04687 0.984375,-0.04687 0.128907,0 0.128907,0 1.03125,0.04687 v -0.433594 c -0.457031,-0.04687 -0.691406,-0.128906 -0.878906,-0.375 l -3.257812,-4.242187 c 0.808593,-0.199219 1.183593,-0.363281 1.652343,-0.691406 0.75,-0.527344 1.148438,-1.242188 1.148438,-2.074219 0,-1.382813 -1.007813,-2.15625 -2.777344,-2.15625 h -0.234375 c -1.863281,0.04687 -1.863281,0.04687 -2.355469,0.04687 -0.46875,0 -0.46875,0 -2.484375,-0.04687 v 0.433594 l 0.597657,0.03516 c 0.65625,0.04687 0.726562,0.175781 0.726562,1.300781 v 6.433594 c 0,1.136719 -0.07031,1.253906 -0.726562,1.289062 l -0.691407,0.04687 v 0.433594 c 0.84375,-0.03516 1.347657,-0.04687 2.097657,-0.04687 0.738281,0 1.253906,0.01172 2.109375,0.04687 v -0.433594 l -0.691407,-0.04687 c -0.65625,-0.03516 -0.738281,-0.152343 -0.738281,-1.289062 z m 11.141602,8.039062 -0.08203,1.21875 c 0.9375,-0.04687 0.9375,-0.04687 1.125,-0.04687 0.07031,0 0.433593,0.01172 1.066406,0.04687 v -0.433594 l -0.5625,-0.02344 c -0.351563,-0.02344 -0.410156,-0.140625 -0.410156,-0.832031 v -2.625 c 0,-2.097657 -0.597657,-2.859375 -2.261719,-2.859375 -0.621094,0 -1.183594,0.152343 -1.734375,0.492187 l -0.761719,0.457031 v 0.925782 l 0.375,0.105468 0.1875,-0.445312 c 0.304688,-0.679688 0.445313,-0.773438 1.101563,-0.773438 1.347656,0 1.910156,0.527344 1.957031,1.828125 l -1.429688,0.269532 c -1.945312,0.351562 -2.765625,1.03125 -2.765625,2.273437 0,1.125 0.679688,1.769531 1.804688,1.769531 0.257812,0 0.503906,-0.04687 0.609375,-0.117187 z m 0,-0.609375 c -0.421875,0.585938 -1.324219,1.136719 -1.886719,1.136719 -0.574219,0 -1.078125,-0.527344 -1.078125,-1.148438 0,-0.527343 0.292969,-1.03125 0.726563,-1.300781 0.351562,-0.222656 1.148437,-0.421875 2.238281,-0.574219 z m 8.402344,1.828125 c 0.878906,-0.04687 0.890625,-0.04687 1.136718,-0.04687 0.199219,0 0.199219,0 1.183594,0.04687 v -0.433594 l -0.585937,-0.04687 c -0.492188,-0.02344 -0.527344,-0.117187 -0.527344,-1.03125 v -2.765625 c 0,-1.675781 -0.796875,-2.496093 -2.402344,-2.496093 -0.527344,0 -0.832031,0.105468 -1.125,0.363281 l -1.089844,0.9375 v -1.242188 l -0.128906,-0.05859 c -0.738281,0.304687 -1.488281,0.503906 -2.238281,0.585937 v 0.398438 h 0.527344 c 0.574218,0 0.632812,0.105468 0.632812,1.054687 v 3.222656 c 0,0.902344 -0.04687,1.007813 -0.539062,1.03125 l -0.644532,0.04687 v 0.433594 c 0.984375,-0.03516 1.371094,-0.04687 1.78125,-0.04687 0.421875,0 0.808594,0.01172 1.78125,0.04687 v -0.433594 l -0.644531,-0.04687 c -0.492187,-0.02344 -0.527344,-0.128906 -0.527344,-1.03125 v -3.035156 c 0,-0.644531 0.9375,-1.347656 1.816407,-1.347656 0.960937,0 1.59375,0.714844 1.59375,1.816406 z m 9.908203,-5.472656 0.363281,-0.585938 -0.05859,-0.175781 -2.039062,0.05859 c -0.527344,-0.421875 -1.042969,-0.597656 -1.746094,-0.597656 -0.632813,0 -1.359375,0.199218 -1.957031,0.539062 -0.796875,0.46875 -1.21875,1.171875 -1.21875,2.039063 0,1.066406 0.667968,1.792968 1.722656,1.910156 l -1.125,0.878906 c -0.152344,0.210938 -0.222656,0.398438 -0.222656,0.609375 0,0.410156 0.257812,0.632813 0.949218,0.832031 l -1.253906,0.679688 c -0.199219,0.117187 -0.398437,0.644531 -0.398437,1.089844 0,1.300781 1.277343,2.203125 3.105468,2.203125 2.15625,0 3.867188,-1.359375 3.867188,-3.105469 0,-1.03125 -0.691406,-1.757813 -1.6875,-1.757813 h -2.296875 c -0.75,0 -1.089844,-0.164062 -1.089844,-0.550781 0,-0.1875 0.117188,-0.351562 0.480469,-0.667969 0.09375,-0.07031 0.117187,-0.09375 0.175781,-0.152343 0.140625,0.01172 0.234375,0.02344 0.339844,0.02344 0.621094,0 1.382812,-0.269531 1.96875,-0.679687 0.644531,-0.480469 0.960937,-1.054688 0.960937,-1.816407 0,-0.28125 -0.04687,-0.46875 -0.152343,-0.773437 z m -3.996094,-0.808594 c 0.972656,0 1.628906,0.796875 1.628906,2.015625 0,0.9375 -0.597656,1.582031 -1.476562,1.582031 -0.960938,0 -1.605469,-0.75 -1.605469,-1.851562 0,-1.101563 0.527344,-1.746094 1.453125,-1.746094 z m 0.667969,6.433594 c 1.628906,0 2.179687,0.328125 2.179687,1.265625 0,1.230469 -1.125,2.144531 -2.636719,2.144531 -1.242187,0 -2.109375,-0.726562 -2.109375,-1.792969 0,-0.644531 0.375,-1.230468 0.949219,-1.476562 0.234375,-0.105469 0.632813,-0.140625 1.617188,-0.140625 z m 7.860351,-6.925781 c -2.085937,0 -3.539062,1.476562 -3.539062,3.609375 0,2.027343 1.277343,3.398437 3.128906,3.398437 2.203125,0 3.785156,-1.523437 3.785156,-3.679687 0,-1.933594 -1.40625,-3.328125 -3.375,-3.328125 z m -0.257812,0.46875 c 1.324218,0 2.296875,1.441406 2.296875,3.386718 0,1.652344 -0.726563,2.683594 -1.886719,2.683594 -1.40625,0 -2.355469,-1.371094 -2.355469,-3.410156 0,-1.722656 0.691406,-2.660156 1.945313,-2.660156 z m 12.049804,0.726562 h -7.230468 v 0.796875 h 7.230468 z m 0,2.777344 h -7.230468 v 0.808594 h 7.230468 z m 2.003907,5.390625 c 1.019531,-0.02344 1.042968,-0.02344 1.382812,-0.02344 0.351563,0 0.421875,0 1.394531,0.02344 l 0.09375,-0.08203 v -0.375 l -0.05859,-0.07031 h -0.550782 c -0.386718,0 -0.703125,-0.08203 -0.878906,-0.234375 -0.128906,-0.128906 -0.164062,-0.328125 -0.164062,-0.796875 0,-0.01172 0,-0.316406 -0.01172,-0.75 v -8.4375 c 0.01172,-0.398437 0.01172,-0.714844 0.01172,-0.726562 0,-0.46875 0.03516,-0.691407 0.164062,-0.820313 0.175781,-0.140625 0.492188,-0.222656 0.878906,-0.222656 h 0.550782 l 0.05859,-0.07031 v -0.375 l -0.09375,-0.09375 c -1.007812,0.03516 -1.042968,0.03516 -1.394531,0.03516 -0.328125,0 -0.398437,0 -1.382812,-0.03516 l -0.128907,0.1875 c 0.08203,0.363282 0.105469,0.832032 0.105469,1.945313 0,0.210937 0,0.386719 0.02344,0.527344 v 7.746093 c -0.02344,0.222657 -0.02344,0.246094 -0.02344,0.480469 v 0.164063 c 0,0.972656 -0.02344,1.371093 -0.105469,1.816406 z m 7.555664,-5.71875 0.433593,-0.960938 -0.07031,-0.07031 h -3.773438 l -0.386718,0.960937 0.07031,0.07031 z m 1.693356,-4.875 h 0.14063 l 1.85156,-0.832031 c 0.0117,-0.02344 0.0352,-0.02344 0.0469,-0.02344 0.082,0 0.11718,0.128906 0.11718,0.480469 v 6.949219 c 0,0.75 -0.16406,0.914062 -0.9375,0.949218 l -0.79687,0.04687 v 0.433594 c 2.20312,-0.04687 2.20312,-0.04687 2.35547,-0.04687 0.1875,0 0.5039,0 0.99609,0.01172 0.17578,0.01172 0.66797,0.01172 1.26563,0.03516 v -0.433594 l -0.75,-0.04687 c -0.78516,-0.03516 -0.9375,-0.199218 -0.9375,-0.949218 v -8.496094 l -0.19922,-0.07031 c -0.92578,0.480469 -1.94532,0.914063 -3.25782,1.371094 z m 9.14356,6.1875 c -0.38672,0.128906 -0.64453,0.222656 -1.40625,0.433594 -0.10547,1.089843 -0.45703,2.027343 -1.28906,3.398437 l 0.19921,0.164063 0.58594,-0.28125 c 1.16016,-1.5 1.71094,-2.402344 2.10938,-3.503907 z m 1.61719,-6.1875 h 0.14062 l 1.85156,-0.832031 c 0.0117,-0.02344 0.0352,-0.02344 0.0469,-0.02344 0.082,0 0.11719,0.128906 0.11719,0.480469 v 6.949219 c 0,0.75 -0.16407,0.914062 -0.9375,0.949218 l -0.79688,0.04687 v 0.433594 c 2.20313,-0.04687 2.20313,-0.04687 2.35547,-0.04687 0.1875,0 0.50391,0 0.99609,0.01172 0.17578,0.01172 0.66797,0.01172 1.26563,0.03516 v -0.433594 l -0.75,-0.04687 c -0.78516,-0.03516 -0.9375,-0.199218 -0.9375,-0.949218 v -8.496094 l -0.19922,-0.07031 c -0.92578,0.480469 -1.94531,0.914063 -3.25781,1.371094 z m 9.72656,-2.460938 c -1.01953,0.03516 -1.06641,0.03516 -1.39453,0.03516 -0.33985,0 -0.41016,0 -1.39453,-0.03516 l -0.082,0.09375 v 0.375 l 0.0586,0.07031 h 0.53906 c 0.39844,0 0.69141,0.08203 0.86719,0.222656 0.14062,0.128906 0.1875,0.328125 0.1875,0.820313 0,0.04687 0,0.328125 0.0117,0.726562 v 8.4375 c -0.0117,0.421875 -0.0117,0.679688 -0.0117,0.714844 0,0.492187 -0.0469,0.703125 -0.1875,0.832031 -0.17578,0.152344 -0.46875,0.234375 -0.86719,0.234375 h -0.53906 l -0.0586,0.07031 v 0.375 l 0.082,0.08203 c 1.00781,-0.02344 1.04296,-0.02344 1.39453,-0.02344 0.32812,0 0.39843,0 1.39453,0.02344 l 0.1289,-0.1875 c -0.082,-0.339844 -0.10546,-0.785156 -0.11718,-1.886719 0,-0.199219 0,-0.386719 -0.0117,-0.574219 v -7.746093 c 0.0117,-0.164063 0.0117,-0.351563 0.0117,-0.550782 0,-1.101562 0.0352,-1.570312 0.11718,-1.921875 z m 8.36719,8.648438 c -0.38672,0.128906 -0.64454,0.222656 -1.40625,0.433594 -0.10547,1.089843 -0.45704,2.027343 -1.28907,3.398437 l 0.19922,0.164063 0.58594,-0.28125 c 1.16016,-1.5 1.71094,-2.402344 2.10937,-3.503907 z m 7.9248,-7.441406 c 0.50391,-0.117188 0.92578,-0.164063 1.40625,-0.164063 1.55859,0 2.39062,0.714844 2.39062,2.074219 0,1.289062 -0.8789,2.191406 -2.13281,2.191406 -0.29297,0 -0.51562,-0.02344 -0.89062,-0.140625 l 0.15234,0.515625 c 0.33984,0.07031 0.53906,0.08203 0.83203,0.08203 1.95703,0 3.46875,-1.324218 3.46875,-3.046875 0,-1.382812 -1.125,-2.226562 -2.9414,-2.226562 -0.0703,0 -0.21094,0 -0.39844,0.01172 -0.53906,0.01172 -1.62891,0.03516 -2.03906,0.03516 -0.31641,0 -0.31641,0 -2.61329,-0.04687 v 0.433594 l 0.64454,0.03516 c 0.64453,0.04687 0.76171,0.234375 0.76171,1.300781 v 6.433594 c 0,1.136719 -0.0703,1.253906 -0.72656,1.289062 l -0.6914,0.04687 v 0.433594 c 0.84375,-0.03516 1.34765,-0.04687 2.09765,-0.04687 0.73828,0 1.25391,0.01172 2.10938,0.04687 v -0.433594 l -0.69141,-0.04687 c -0.65625,-0.03516 -0.73828,-0.152343 -0.73828,-1.289062 z m 11.8418,8.203125 -0.1875,-0.140625 c -0.91407,0.550781 -1.25391,0.679687 -1.86328,0.679687 -0.9375,0 -1.71094,-0.421875 -2.10938,-1.125 -0.26953,-0.46875 -0.375,-0.878906 -0.39844,-1.710937 h 2.08594 c 0.99609,0 1.60547,-0.03516 2.60156,-0.199219 0.0117,-0.199219 0.0234,-0.328125 0.0234,-0.492188 0,-1.652343 -1.05469,-2.730468 -2.66016,-2.730468 -0.53906,0 -1.14843,0.1875 -1.73437,0.527343 -1.18359,0.679688 -1.65234,1.570313 -1.65234,3.058594 0,0.902344 0.21093,1.675781 0.59765,2.226563 0.57422,0.761718 1.53516,1.195312 2.61328,1.195312 0.52735,0 1.06641,-0.105469 1.65235,-0.363281 0.38672,-0.164063 0.6914,-0.351563 0.73828,-0.433594 z m -1.125,-2.824219 c -0.73828,0.03516 -1.08985,0.04687 -1.60547,0.04687 -0.65625,0 -1.03125,-0.01172 -1.80469,-0.08203 0,-0.679688 0.0586,-0.996094 0.24609,-1.371094 0.30469,-0.632813 0.91407,-1.019531 1.60547,-1.019531 0.46875,0 0.84375,0.1875 1.10157,0.574218 0.3164,0.480469 0.42187,0.890625 0.45703,1.851563 z m 2.05371,-1.910156 h 0.52734 c 0.57422,0 0.63281,0.105468 0.63281,1.054687 v 3.222656 c 0,0.902344 -0.0352,1.007813 -0.52734,1.03125 l -0.65625,0.04687 v 0.433594 c 1.03125,-0.03516 1.40625,-0.04687 1.75781,-0.04687 0.29297,0 0.29297,0 2.05078,0.04687 v -0.433594 l -0.73828,-0.04687 c -0.64453,-0.03516 -0.67968,-0.08203 -0.67968,-1.03125 v -2.460937 c 0,-0.867188 0.57421,-1.582031 1.27734,-1.582031 0.43359,0 0.72656,0.199218 0.96094,0.65625 h 0.30468 l 0.12891,-1.722657 c -0.16406,-0.09375 -0.42187,-0.152343 -0.67969,-0.152343 -0.42187,0 -0.89062,0.234375 -1.18359,0.585937 l -0.80859,0.949219 v -1.476563 l -0.12891,-0.05859 c -0.72656,0.304687 -1.47656,0.503906 -2.23828,0.585937 z m 8.03613,-0.925782 -0.12891,-0.05859 c -0.72656,0.304687 -1.47656,0.503906 -2.23828,0.585937 v 0.398438 h 0.52735 c 0.57422,0 0.63281,0.105468 0.63281,1.054687 v 3.222656 c 0,0.902344 -0.0352,1.007813 -0.52734,1.03125 l -0.65625,0.04687 v 0.433594 c 1.42968,-0.04687 1.42968,-0.04687 1.79296,-0.04687 0.35157,0 0.35157,0 1.79297,0.04687 v -0.433594 l -0.66797,-0.04687 c -0.48046,-0.02344 -0.52734,-0.128906 -0.52734,-1.03125 z m -0.65625,-3.1875 c -0.43359,0 -0.80859,0.375 -0.80859,0.808594 0,0.410156 0.375,0.785156 0.79687,0.785156 0.41016,0 0.79688,-0.375 0.79688,-0.785156 0,-0.410156 -0.38672,-0.808594 -0.78516,-0.808594 z m 6.13184,3.128907 c -2.08594,0 -3.53907,1.476562 -3.53907,3.609375 0,2.027343 1.27735,3.398437 3.12891,3.398437 2.20313,0 3.78516,-1.523437 3.78516,-3.679687 0,-1.933594 -1.40625,-3.328125 -3.375,-3.328125 z m -0.25782,0.46875 c 1.32422,0 2.29688,1.441406 2.29688,3.386718 0,1.652344 -0.72656,2.683594 -1.88672,2.683594 -1.40625,0 -2.35547,-1.371094 -2.35547,-3.410156 0,-1.722656 0.69141,-2.660156 1.94531,-2.660156 z m 9.99903,-0.01172 c -0.79688,-0.339844 -1.20703,-0.457031 -1.69922,-0.457031 -0.38672,0 -0.73828,0.08203 -1.08985,0.269531 l -1.26562,0.667969 c -0.82031,0.421875 -1.34766,1.476562 -1.34766,2.695312 0,1.148438 0.38672,2.085938 1.08985,2.660156 0.48047,0.421875 1.16015,0.609375 2.09765,0.609375 0.28125,0 0.60938,-0.05859 0.67969,-0.117187 l 1.59375,-1.335938 -0.0703,1.324219 c 0.70312,-0.03516 0.9375,-0.04687 1.10156,-0.04687 0.11719,0 0.31641,0 0.62109,0.01172 0.10547,0.01172 0.38672,0.01172 0.69141,0.03516 v -0.433594 l -0.66797,-0.04687 c -0.48047,-0.02344 -0.52734,-0.128906 -0.52734,-1.03125 v -8.835937 l -0.12891,-0.117188 c -0.63281,0.246094 -1.10156,0.363282 -2.23828,0.539063 v 0.398437 h 0.80859 c 0.25782,0 0.35157,0.152344 0.35157,0.585938 z m 0,3.09375 c 0,0.9375 -0.0234,1.078125 -0.21094,1.40625 -0.39844,0.679687 -1.10156,1.125 -1.78125,1.125 -1.26563,0 -2.16797,-1.21875 -2.16797,-2.929688 0,-1.558593 0.77344,-2.484375 2.07422,-2.484375 0.53906,0 1.11328,0.1875 1.61719,0.539063 0.30468,0.199219 0.46875,0.386719 0.46875,0.503906 z m 6.85547,-3.550781 c -2.08594,0 -3.53907,1.476562 -3.53907,3.609375 0,2.027343 1.27735,3.398437 3.12891,3.398437 2.20312,0 3.78516,-1.523437 3.78516,-3.679687 0,-1.933594 -1.40625,-3.328125 -3.375,-3.328125 z m -0.25782,0.46875 c 1.32422,0 2.29688,1.441406 2.29688,3.386718 0,1.652344 -0.72656,2.683594 -1.88672,2.683594 -1.40625,0 -2.35547,-1.371094 -2.35547,-3.410156 0,-1.722656 0.69141,-2.660156 1.94531,-2.660156 z m 16.22754,0.726562 h -7.23047 v 0.796875 h 7.23047 z m 0,2.777344 h -7.23047 v 0.808594 h 7.23047 z m 5.14453,2.425781 v 0.375 c 2.67188,-0.04687 2.67188,-0.04687 3.19922,-0.04687 0.51563,0 0.51563,0 3.28125,0.04687 -0.0352,-0.304687 -0.0352,-0.445312 -0.0352,-0.644531 0,-0.1875 0,-0.339844 0.0352,-0.644531 -1.65234,0.07031 -2.30859,0.08203 -4.96875,0.140625 l 2.61328,-2.765625 c 1.39454,-1.488282 1.82813,-2.273438 1.82813,-3.351563 0,-1.640625 -1.125,-2.660156 -2.94141,-2.660156 -1.04297,0 -1.73437,0.28125 -2.4375,0.996094 l -0.24609,1.957031 h 0.41016 l 0.1875,-0.65625 c 0.23437,-0.832031 0.75,-1.195313 1.71093,-1.195313 1.23047,0 2.01563,0.773438 2.01563,1.992188 0,1.078125 -0.59766,2.132812 -2.21485,3.855469 z m 0,0"
         style="fill:#000000;fill-opacity:1;fill-rule:nonzero;stroke:#000000;stroke-opacity:1" />
      <path
         id="path24"
         d="m 209.95462,46.666703 0.1289,-0.105469 c 0.29297,-0.855468 0.86719,-0.902343 1.6875,-0.902343 0.17578,0 0.4336,0.01172 0.72657,0.01172 -1.19532,3.28125 -1.7461,4.265625 -2.90625,6.082032 l 0.1289,0.128906 1.05469,-0.363281 c 0.52734,-1.125 1.39453,-3.304688 2.19141,-5.824219 l 2.66015,0.09375 c -0.24609,0.890625 -1.07812,3.492187 -1.07812,4.40625 0,1.511719 0.55078,1.6875 0.99609,1.6875 0.72656,0 1.14844,-0.175781 2.05078,-0.9375 l -0.11719,-0.28125 -0.33984,0.246094 c 0.0352,-0.02344 -0.375,0.304687 -0.62109,0.304687 -0.66797,0 -0.87891,-0.421875 -0.87891,-1.300781 0,-0.363281 0.0352,-0.75 0.11719,-1.171875 0.24609,-1.183594 0.49219,-2.367188 0.62109,-2.953125 0.32813,0 0.65625,-0.01172 0.98438,-0.05859 0.25781,0 0.57422,-0.140625 0.80859,-0.222656 0.15234,-0.304688 0.21094,-0.328125 0.48047,-0.679688 l -0.0937,-0.164062 c -0.38672,0.128906 -1.03125,0.269531 -1.51172,0.269531 -0.16406,0.01172 -0.52734,0.02344 -0.89062,0.02344 -1.52344,-0.01172 -3.89063,-0.128907 -4.52344,-0.128907 -1.07813,0 -1.46485,0.480469 -1.88672,1.722657 z m 0,0"
         style="fill:#000000;fill-opacity:1;fill-rule:nonzero;stroke:#000000;stroke-opacity:1" />
    </g>
  </g>
</svg>
