<?xml version="1.0" encoding="UTF-8" standalone="no"?>
<!-- Created with Inkscape (http://www.inkscape.org/) -->

<svg
   version="1.1"
   id="svg1"
   width="258.09525"
   height="51.42857"
   viewBox="0 0 258.09525 51.42857"
   sodipodi:docname="writetex.pdf"
   inkscape:export-batch-path="..\Akemicos\Akdemicos-Front\public"
   inkscape:export-batch-name="CotHiperbolica"
   xmlns:inkscape="http://www.inkscape.org/namespaces/inkscape"
   xmlns:sodipodi="http://sodipodi.sourceforge.net/DTD/sodipodi-0.dtd"
   xmlns="http://www.w3.org/2000/svg"
   xmlns:svg="http://www.w3.org/2000/svg">
  <defs
     id="defs1">
    <clipPath
       clipPathUnits="userSpaceOnUse"
       id="clipPath249">
      <rect
         style="fill:#000000;stroke:#000000;stroke-width:0.623622;stroke-dasharray:none;stroke-opacity:1"
         id="rect249"
         width="258.09525"
         height="51.42857"
         x="1802.8572"
         y="193.33333" />
    </clipPath>
  </defs>
  <sodipodi:namedview
     id="namedview1"
     pagecolor="#ffffff"
     bordercolor="#000000"
     borderopacity="0.25"
     inkscape:showpageshadow="2"
     inkscape:pageopacity="0.0"
     inkscape:pagecheckerboard="0"
     inkscape:deskcolor="#d1d1d1"
     showgrid="false">
    <inkscape:page
       x="0"
       y="0"
       width="258.09525"
       height="51.42857"
       id="page1"
       margin="0"
       bleed="0" />
  </sodipodi:namedview>
  <g
     id="g186"
     inkscape:groupmode="layer"
     inkscape:label="3"
     clip-path="url(#clipPath249)"
     style="stroke:#000000;stroke-width:1.00157;stroke-dasharray:none;stroke-opacity:1"
     transform="translate(-1802.8572,-193.33333)">
    <g
       id="g187"
       aria-label="Cotangentehiperbolica&#10;coth(α)=&#10;1"
       transform="matrix(1.3333333,0,0,1.3333333,1803.1293,171.88533)"
       style="stroke:#000000;stroke-width:0.751181;stroke-dasharray:none;stroke-opacity:1">
      <path
         id="path188"
         d="M 9.9254609,-1.2411484 9.7496797,-1.4169297 c -0.9257813,0.48046876 -1.8632813,0.72656251 -2.7890625,0.72656251 -2.5195313,0 -4.1835938,-1.78125001 -4.1835938,-4.48828121 0,-2.4609375 1.40625,-3.984375 3.6796875,-3.984375 1.078125,0 1.78125,0.2695312 2.5546875,0.984375 l 0.070312,1.2421875 h 0.5625 c 0.1523438,-1.3828125 0.1992188,-1.6523438 0.328125,-2.203125 l -0.09375,-0.1523438 c -1.3007812,-0.515625 -2.109375,-0.6796875 -3.3515625,-0.6796875 -3.6328125,0 -5.89453121,1.921875 -5.89453121,4.9921875 0,3.2109375 2.20312501,5.22656251 5.75390621,5.22656251 1.3125,0 2.1679688,-0.19921875 3.2226563,-0.796875 z m 4.5468751,-5.5195313 c -2.273438,0 -3.539063,1.265625 -3.539063,3.5507813 0,2.203125 1.171875,3.45703121 3.257813,3.45703121 2.296875,0 3.585937,-1.31250001 3.585937,-3.63281251 0,-2.1796875 -1.183593,-3.375 -3.304687,-3.375 z m -0.164063,0.6914063 c 1.03125,0 1.511719,1.0195312 1.511719,3.1289062 0,1.7460938 -0.398437,2.49609376 -1.371094,2.49609376 -1.03125,0 -1.570312,-1.04296876 -1.570312,-3.11718746 0,-1.734375 0.433594,-2.5078125 1.429687,-2.5078125 z m 8.677735,5.21484371 -0.117188,-0.28125001 c -0.292968,0.15234376 -0.433593,0.18750001 -0.667968,0.18750001 -0.667969,0 -0.878907,-0.22265621 -0.878907,-0.92578121 v -3.421875 h 1.511719 l 0.117188,-0.9257813 -1.628907,0.082031 v -0.8320313 c 0,-0.7617187 0.03516,-1.2304687 0.164063,-1.9453125 l -0.199219,-0.1523437 c -0.574219,0.28125 -1.019531,0.4453125 -1.746094,0.7265625 0.03516,0.7382812 0.05859,1.0195312 0.05859,1.3125 v 0.8671875 l -0.949219,0.609375 v 0.3164062 l 0.914063,-0.058594 v 3.7148437 c 0,1.27734376 0.539062,1.82812501 1.78125,1.82812501 0.445312,0 0.808594,-0.10546875 0.9375,-0.2578125 z m 4.415039,-0.10546875 -0.07031,0.890625 0.07031,0.1171875 c 0.890625,-0.03515625 1.136719,-0.046875 1.300781,-0.046875 0.175781,0 0.410156,0.01171875 1.265625,0.046875 v -0.5390625 l -0.433594,-0.0351563 c -0.316406,-0.0585938 -0.386718,-0.19921875 -0.398437,-0.87890616 v -0.3046875 c -0.01172,-0.4570314 -0.02344,-0.8554689 -0.02344,-1.1953125 0,-0.3984375 0.01172,-0.8554689 0.02344,-1.3945313 0.01172,-0.1875 0.01172,-0.3164062 0.01172,-0.421875 0,-1.2773437 -0.855469,-2.0390625 -2.308594,-2.0390625 -0.597656,0 -1.183594,0.1640625 -1.722656,0.4921875 l -0.761719,0.4570313 v 0.9960937 l 0.433594,0.09375 0.316406,-0.7148437 c 0.04687,-0.09375 0.445312,-0.1992188 0.832031,-0.1992188 0.960938,0 1.417969,0.515625 1.464844,1.6875 l -1.265625,0.2578125 c -1.804688,0.375 -2.449219,0.9375 -2.449219,2.15625 0,1.16015621 0.585938,1.78124996 1.675781,1.78124996 0.316407,0 0.5625,-0.0585938 0.703125,-0.17578125 z m 0,-0.69140626 c -0.269531,0.375 -0.808594,0.6445313 -1.230469,0.6445313 -0.457031,0 -0.738281,-0.3398438 -0.738281,-0.9023438 0,-0.703125 0.304687,-0.984375 1.324219,-1.265625 l 0.644531,-0.1640625 z m 3.222656,-3.9726562 0.644531,0.046875 c 0.339844,0.023437 0.375,0.1523437 0.375,1.0078125 v 3.140625 c 0,0.77343746 -0.07031,0.87890621 -0.515625,0.91406246 l -0.503906,0.0234375 v 0.5390625 l 1.851563,-0.046875 c 0.292968,0 0.984375,0.01171875 1.945312,0.046875 v -0.5390625 l -0.503906,-0.0234375 c -0.445313,-0.0351563 -0.515625,-0.140625 -0.515625,-0.91406246 v -3.1171875 c 0,-0.5039063 0.585937,-0.9726563 1.21875,-0.9726563 0.9375,0 1.347656,0.5039063 1.347656,1.6523438 v 3.91406246 c 0.808594,-0.03515625 1.054688,-0.046875 1.289063,-0.046875 0.199218,0 0.199218,0 1.441406,0.046875 v -0.5390625 l -0.46875,-0.0234375 c -0.445313,-0.0351563 -0.515625,-0.140625 -0.515625,-0.91406246 v -2.671875 c 0,-1.1015625 -0.128906,-1.6523438 -0.503906,-2.0507813 -0.375,-0.3867187 -0.960938,-0.609375 -1.664063,-0.609375 -0.433594,0 -0.773437,0.09375 -0.996094,0.28125 l -1.148437,0.890625 v -1.078125 l -0.09375,-0.09375 c -1.488281,0.4921875 -1.886719,0.5742188 -2.683594,0.6210938 z m 16.007813,0.3515625 0.08203,-0.9257813 c -0.597656,0.058594 -0.867188,0.070312 -1.183594,0.070312 -0.117187,0 -0.28125,0 -0.515625,-0.011719 -0.585937,-0.4335938 -1.265625,-0.6210938 -2.179687,-0.6210938 -1.839844,0 -3.105469,1.0664063 -3.105469,2.578125 0,0.5273438 0.175781,0.9960938 0.527344,1.3710938 0.269531,0.2929687 0.480468,0.421875 0.984375,0.5859375 l -1.019532,0.7734375 c -0.140625,0.1054687 -0.234375,0.4101562 -0.234375,0.69140621 0,0.515625 0.257813,0.7734375 0.972657,0.9609375 l -1.160157,0.69140625 c -0.222656,0.12890624 -0.375,0.50390624 -0.375,0.89062504 0,1.2421875 1.207032,2.0390625 3.09375,2.0390625 2.507813,0 4.207032,-1.3125 4.207032,-3.22265629 0,-1.1953125 -0.679688,-1.76953121 -2.121094,-1.76953121 h -0.351563 c -1.417968,0.035156 -1.933593,0.058594 -2.085937,0.058594 -0.445313,0 -0.679688,-0.1523437 -0.679688,-0.4335937 0,-0.2226563 0.128907,-0.3867188 0.421875,-0.5625 0.257813,0.011719 0.398438,0.035156 0.574219,0.035156 0.984375,0 1.898438,-0.3398437 2.496094,-0.9257812 0.433594,-0.4453125 0.621094,-0.9492188 0.621094,-1.6640625 0,-0.2226563 -0.01172,-0.3984375 -0.07031,-0.6679688 z m -3.972657,-0.7617188 c 0.761719,0 1.183594,0.609375 1.183594,1.7460938 0,1.0195312 -0.386719,1.546875 -1.148437,1.546875 -0.75,0 -1.207032,-0.6445313 -1.207032,-1.7226563 0,-1.03125 0.398438,-1.5703125 1.171875,-1.5703125 z m 0.292969,6.24609376 c 1.746094,0 2.179688,0.234375 2.179688,1.14843754 0,0.9960937 -0.960938,1.734375 -2.238282,1.734375 -1.277343,0 -2.121093,-0.5976563 -2.121093,-1.4882813 0,-0.5273437 0.304687,-1.01953124 0.726562,-1.23046874 0.234375,-0.10546875 0.75,-0.1640625 1.453125,-0.1640625 z m 10.68457,-4.44140626 c 0,-1.5351562 -1.078125,-2.53125 -2.707031,-2.53125 -0.503906,0 -0.878906,0.1054688 -1.265625,0.3398438 l -0.667969,0.3984375 c -0.949218,0.5625 -1.371093,1.4179687 -1.371093,2.7773437 0,2.28515626 1.148437,3.49218751 3.292968,3.49218751 0.808594,0 1.347657,-0.140625 2.261719,-0.62109375 l 0.316406,-0.69140626 -0.175781,-0.2109375 c -0.667969,0.37500001 -1.101562,0.50390626 -1.675781,0.50390626 -0.75,0 -1.441406,-0.39843746 -1.804688,-1.01953126 -0.234375,-0.3984375 -0.316406,-0.7265625 -0.339843,-1.40625 h 1.875 c 0.820312,0 1.464843,-0.082031 2.261718,-0.28125 z m -3.023437,0.3164063 h -0.05859 c -0.08203,0 -0.46875,-0.011719 -0.691406,-0.035156 l -0.457031,-0.011719 c 0.04687,-1.4179688 0.386718,-1.9921875 1.21875,-1.9921875 0.820312,0 1.160156,0.5742187 1.195312,1.9921875 z m 3.925781,-1.7109375 0.644531,0.046875 c 0.339844,0.023437 0.375,0.1523437 0.375,1.0078125 v 3.140625 c 0,0.77343746 -0.07031,0.87890621 -0.515625,0.91406246 l -0.503906,0.0234375 v 0.5390625 l 1.851563,-0.046875 c 0.292968,0 0.984375,0.01171875 1.945312,0.046875 v -0.5390625 l -0.503906,-0.0234375 c -0.445313,-0.0351563 -0.515625,-0.140625 -0.515625,-0.91406246 v -3.1171875 c 0,-0.5039063 0.585937,-0.9726563 1.21875,-0.9726563 0.9375,0 1.347656,0.5039063 1.347656,1.6523438 v 3.91406246 c 0.808594,-0.03515625 1.054688,-0.046875 1.289063,-0.046875 0.199218,0 0.199218,0 1.441406,0.046875 v -0.5390625 l -0.46875,-0.0234375 c -0.445313,-0.0351563 -0.515625,-0.140625 -0.515625,-0.91406246 v -2.671875 c 0,-1.1015625 -0.128906,-1.6523438 -0.503906,-2.0507813 -0.375,-0.3867187 -0.960938,-0.609375 -1.664063,-0.609375 -0.433594,0 -0.773437,0.09375 -0.996094,0.28125 l -1.148437,0.890625 v -1.078125 l -0.09375,-0.09375 c -1.488281,0.4921875 -1.886719,0.5742188 -2.683594,0.6210938 z M 67.616867,-0.85442969 67.49968,-1.1356797 c -0.292969,0.15234376 -0.433594,0.18750001 -0.667969,0.18750001 -0.667969,0 -0.878906,-0.22265621 -0.878906,-0.92578121 v -3.421875 h 1.511718 l 0.117188,-0.9257813 -1.628906,0.082031 v -0.8320313 c 0,-0.7617187 0.03516,-1.2304687 0.164062,-1.9453125 l -0.199219,-0.1523437 c -0.574218,0.28125 -1.019531,0.4453125 -1.746093,0.7265625 0.03516,0.7382812 0.05859,1.0195312 0.05859,1.3125 v 0.8671875 l -0.949218,0.609375 v 0.3164062 l 0.914062,-0.058594 v 3.7148437 c 0,1.27734376 0.539063,1.82812501 1.78125,1.82812501 0.445313,0 0.808594,-0.10546875 0.9375,-0.2578125 z m 6.735352,-3.37500001 c 0,-1.5351562 -1.078125,-2.53125 -2.707032,-2.53125 -0.503906,0 -0.878906,0.1054688 -1.265625,0.3398438 l -0.667968,0.3984375 c -0.949219,0.5625 -1.371094,1.4179687 -1.371094,2.7773437 0,2.28515626 1.148437,3.49218751 3.292969,3.49218751 0.808593,0 1.347656,-0.140625 2.261718,-0.62109375 l 0.316407,-0.69140626 -0.175782,-0.2109375 c -0.667968,0.37500001 -1.101562,0.50390626 -1.675781,0.50390626 -0.75,0 -1.441406,-0.39843746 -1.804687,-1.01953126 -0.234375,-0.3984375 -0.316407,-0.7265625 -0.339844,-1.40625 h 1.875 c 0.820312,0 1.464844,-0.082031 2.261719,-0.28125 z m -3.023438,0.3164063 h -0.05859 c -0.08203,0 -0.46875,-0.011719 -0.691406,-0.035156 l -0.457031,-0.011719 c 0.04687,-1.4179688 0.386719,-1.9921875 1.21875,-1.9921875 0.820312,0 1.160156,0.5742187 1.195312,1.9921875 z m 10.760742,-6.4101566 -1.03125,0.316407 c -0.375,0.1054683 -0.855468,0.1992183 -1.628906,0.2929683 v 0.515625 l 0.644531,0.046875 c 0.339844,0.035156 0.375,0.1640625 0.375,1.0078125 v 6.7148438 c 0,0.77343746 -0.07031,0.87890621 -0.515625,0.91406246 l -0.503906,0.0234375 v 0.5390625 l 1.851563,-0.046875 c 0.292968,0 0.984375,0.01171875 1.945312,0.046875 v -0.5390625 l -0.503906,-0.0234375 c -0.445313,-0.0351563 -0.515625,-0.140625 -0.515625,-0.91406246 v -3.1171875 c 0,-0.5039063 0.585937,-0.9726563 1.21875,-0.9726563 0.9375,0 1.347656,0.5039063 1.347656,1.6640625 v 3.90234376 c 0.808594,-0.03515625 1.054688,-0.046875 1.289063,-0.046875 0.199218,0 0.199218,0 1.441406,0.046875 v -0.5390625 l -0.46875,-0.0234375 c -0.445313,-0.0351563 -0.515625,-0.140625 -0.515625,-0.91406246 v -2.671875 c 0,-1.1015625 -0.128906,-1.6523438 -0.503906,-2.0507813 -0.375,-0.3867187 -0.960938,-0.609375 -1.664063,-0.609375 -0.433594,0 -0.773437,0.09375 -0.996094,0.28125 l -1.148437,0.890625 v -4.6523433 z m 8.882813,3.5625003 -1.007813,0.3164063 c -0.457031,0.1523437 -0.808593,0.2109375 -1.40625,0.28125 -0.04687,0 -0.117187,0.011719 -0.210937,0.023437 v 0.515625 l 0.644531,0.046875 c 0.328125,0.023437 0.375,0.1523437 0.375,1.0078125 v 3.140625 c 0,0.77343746 -0.08203,0.87890621 -0.527344,0.91406246 l -0.492187,0.0234375 v 0.5390625 l 1.851562,-0.046875 c 0.28125,0 0.972657,0.01171875 1.933594,0.046875 v -0.5390625 l -0.503906,-0.0234375 c -0.445313,-0.0351563 -0.515625,-0.140625 -0.515625,-0.91406246 v -5.2382813 z m -0.773438,-3.3632813 c -0.621093,0 -1.101562,0.4570313 -1.101562,1.0546876 0,0.609375 0.480469,1.0898437 1.078125,1.0898437 0.585937,0 1.078125,-0.4804687 1.078125,-1.0664062 0,-0.5976563 -0.46875,-1.0781251 -1.054688,-1.0781251 z m 5.469727,3.3632813 -0.996094,0.3164063 c -0.492187,0.1523437 -0.738281,0.1875 -1.464844,0.2929687 l -0.164062,0.011719 v 0.515625 l 0.65625,0.046875 c 0.328125,0.023437 0.363281,0.1523437 0.363281,1.0078125 v 6.796875 c 0,0.7734375 -0.07031,0.890625 -0.515625,0.9140625 l -0.503906,0.035156 v 0.5273438 l 1.851562,-0.046875 c 0.1875,0 0.222657,0 2.085938,0.046875 V 3.1768203 L 96.336594,3.1416641 C 95.891281,3.1299453 95.820969,3.0010391 95.820969,2.2276016 V 0.00103906 c 0.703125,0.19921875 0.925781,0.24609375 1.277343,0.24609375 0.480469,0 0.984375,-0.2578125 1.957032,-1.03125 0.09375,-0.0585938 0.175781,-0.12890625 0.246093,-0.1875 0.949223,-0.71484371 1.464843,-1.83984371 1.464843,-3.12890621 0,-1.5234375 -1.101561,-2.6601563 -2.601561,-2.6601563 -0.550782,0 -0.972657,0.1640625 -1.476563,0.5625 l -0.867187,0.703125 v -1.171875 z m 0.152344,2.015625 c 0.316406,-0.4804687 0.785156,-0.7148437 1.371093,-0.7148437 1.101563,0 1.769532,0.8554687 1.769532,2.2851562 0,1.5 -0.644532,2.44921876 -1.699219,2.44921876 -0.597656,0 -1.054688,-0.24609375 -1.441406,-0.79687496 z m 12.187501,0.515625 c 0,-1.5351562 -1.07813,-2.53125 -2.70703,-2.53125 -0.50391,0 -0.87891,0.1054688 -1.26563,0.3398438 l -0.66797,0.3984375 c -0.94922,0.5625 -1.37109,1.4179687 -1.37109,2.7773437 0,2.28515626 1.14844,3.49218751 3.29297,3.49218751 0.80859,0 1.34765,-0.140625 2.26172,-0.62109375 l 0.3164,-0.69140626 -0.17578,-0.2109375 c -0.66797,0.37500001 -1.10156,0.50390626 -1.67578,0.50390626 -0.75,0 -1.44141,-0.39843746 -1.80469,-1.01953126 -0.23437,-0.3984375 -0.3164,-0.7265625 -0.33984,-1.40625 h 1.875 c 0.82031,0 1.46484,-0.082031 2.26172,-0.28125 z m -3.02344,0.3164063 h -0.0586 c -0.082,0 -0.46875,-0.011719 -0.69141,-0.035156 l -0.45703,-0.011719 c 0.0469,-1.4179688 0.38672,-1.9921875 1.21875,-1.9921875 0.82031,0 1.16016,0.5742187 1.19531,1.9921875 z m 6.64453,-2.8476563 -1.00781,0.3164063 c -0.45703,0.1523437 -0.71484,0.1875 -1.61719,0.3046875 v 0.515625 l 0.64453,0.046875 c 0.32813,0.023437 0.375,0.1523437 0.375,1.0078125 v 3.140625 c 0,0.77343746 -0.0703,0.87890621 -0.51562,0.91406246 l -0.50391,0.0234375 v 0.5390625 l 1.85156,-0.046875 c 0.1875,0 0.22266,0 2.15625,0.046875 v -0.5390625 l -0.55078,-0.0234375 c -0.62109,-0.0351563 -0.6914,-0.1171875 -0.6914,-0.91406246 v -2.8476563 c 0,-0.4453125 0.58593,-0.9140625 1.14843,-0.9140625 0.35157,0 0.6211,0.1757813 0.82032,0.515625 l 0.33984,-0.140625 0.0703,-1.8515625 c -0.14062,-0.058594 -0.32812,-0.09375 -0.52734,-0.09375 -0.39844,0 -0.67969,0.1757813 -1.21875,0.7617188 l -0.63281,0.6914062 v -1.359375 z m 5.5459,-3.4804683 -0.11719,-0.08203 -1.03125,0.316407 c -0.41015,0.1289058 -0.90234,0.2109371 -1.73437,0.2929683 v 0.515625 l 0.76172,0.046875 c 0.3164,0.011719 0.375,0.1640625 0.375,1.0078125 v 5.8242188 c 0,0.7617187 -0.0469,1.61718746 -0.12891,2.37890621 l 0.31641,0.1171875 0.5625,-0.45703125 c 0.65625,0.3515625 1.2539,0.52734375 1.875,0.52734375 0.44531,0 0.83203,-0.1171875 1.24218,-0.36328125 0.57422,-0.33984375 1.24219,-0.78515625 1.64063,-1.11328126 0.71484,-0.5859375 1.19531,-1.6992187 1.19531,-2.8007812 0,-1.59375 -1.07812,-2.7304688 -2.60156,-2.7304688 -0.5625,0 -0.97266,0.1640625 -1.47656,0.5625 l -0.87891,0.703125 z m 0,5.4960933 c 0.31641,-0.4804687 0.79688,-0.7148437 1.38281,-0.7148437 1.10157,0 1.75782,0.8554687 1.75782,2.2851562 0,1.5 -0.64454,2.44921876 -1.6875,2.44921876 -0.60938,0 -1.06641,-0.24609375 -1.45313,-0.79687496 z m 9.85547,-2.015625 c -2.27344,0 -3.53906,1.265625 -3.53906,3.5507813 0,2.203125 1.17187,3.45703121 3.25781,3.45703121 2.29687,0 3.58594,-1.31250001 3.58594,-3.63281251 0,-2.1796875 -1.1836,-3.375 -3.30469,-3.375 z m -0.16406,0.6914063 c 1.03125,0 1.51172,1.0195312 1.51172,3.1289062 0,1.7460938 -0.39844,2.49609376 -1.3711,2.49609376 -1.03125,0 -1.57031,-1.04296876 -1.57031,-3.11718746 0,-1.734375 0.43359,-2.5078125 1.42969,-2.5078125 z m 7.1455,-4.2539066 -1.04296,0.316407 c -0.41016,0.1289058 -0.90235,0.2109371 -1.73438,0.2929683 v 0.515625 l 0.76172,0.046875 c 0.31641,0.011719 0.375,0.1640625 0.375,1.0078125 v 6.7148438 c 0,0.77343746 -0.0703,0.87890621 -0.51563,0.91406246 l -0.5039,0.0234375 v 0.5390625 l 1.85156,-0.046875 c 0.29297,0 0.97266,0.01171875 1.93359,0.046875 v -0.5390625 l -0.5039,-0.0234375 c -0.4336,-0.0351563 -0.51563,-0.140625 -0.51563,-0.91406246 v -8.8124996 z m 4.7754,3.5625003 -1.00782,0.3164063 c -0.45703,0.1523437 -0.80859,0.2109375 -1.40625,0.28125 -0.0469,0 -0.11718,0.011719 -0.21093,0.023437 v 0.515625 l 0.64453,0.046875 c 0.32812,0.023437 0.375,0.1523437 0.375,1.0078125 v 3.140625 c 0,0.77343746 -0.082,0.87890621 -0.52735,0.91406246 l -0.49218,0.0234375 v 0.5390625 l 1.85156,-0.046875 c 0.28125,0 0.97265,0.01171875 1.93359,0.046875 v -0.5390625 l -0.5039,-0.0234375 c -0.44532,-0.0351563 -0.51563,-0.140625 -0.51563,-0.91406246 v -5.2382813 z m -0.77344,-3.3632813 c -0.6211,0 -1.10156,0.4570313 -1.10156,1.0546876 0,0.609375 0.48046,1.0898437 1.07812,1.0898437 0.58594,0 1.07813,-0.4804687 1.07813,-1.0664062 0,-0.5976563 -0.46875,-1.0781251 -1.05469,-1.0781251 z m 8.02441,5.8593751 c 0.0937,-0.9140625 0.16406,-1.3828125 0.29297,-2.015625 l -0.10547,-0.1875 c -0.65625,-0.234375 -0.96094,-0.2929688 -1.47656,-0.2929688 -0.53906,0 -0.94922,0.1054688 -1.28906,0.3046875 l -0.75,0.4453125 c -1.27735,0.7617188 -1.73438,1.4765625 -1.73438,2.7304688 0,2.2734375 1.13672,3.52734371 3.1875,3.52734371 0.71485,0 1.25391,-0.12890625 1.92188,-0.4921875 l 0.30468,-0.65625 -0.1289,-0.14062501 c -0.49219,0.19921876 -0.8086,0.26953126 -1.21875,0.26953126 -1.40625,0 -2.28516,-1.13671876 -2.28516,-2.95312496 0,-1.3125 0.49219,-2.015625 1.40625,-2.015625 0.64453,0 1.21875,0.2929687 1.26563,0.6210937 l 0.0937,0.8554688 z m 5.06836,3.30468746 -0.0703,0.890625 0.0703,0.1171875 c 0.89063,-0.03515625 1.13672,-0.046875 1.30078,-0.046875 0.17578,0 0.41016,0.01171875 1.26563,0.046875 v -0.5390625 l -0.4336,-0.0351563 c -0.3164,-0.0585938 -0.38671,-0.19921875 -0.39843,-0.87890616 v -0.3046875 c -0.0117,-0.4570313 -0.0234,-0.8554688 -0.0234,-1.1953125 0,-0.3984375 0.0117,-0.8554688 0.0234,-1.3945313 0.0117,-0.1875 0.0117,-0.3164062 0.0117,-0.421875 0,-1.2773437 -0.85547,-2.0390625 -2.3086,-2.0390625 -0.59765,0 -1.18359,0.1640625 -1.72265,0.4921875 l -0.76172,0.4570313 v 0.9960937 l 0.43359,0.09375 0.31641,-0.7148437 c 0.0469,-0.09375 0.44531,-0.1992188 0.83203,-0.1992188 0.96094,0 1.41797,0.515625 1.46484,1.6875 l -1.26562,0.2578125 c -1.80469,0.375 -2.44922,0.9375 -2.44922,2.15625 0,1.16015621 0.58594,1.78124996 1.67578,1.78124996 0.31641,0 0.5625,-0.0585938 0.70312,-0.17578125 z m 0,-0.69140626 c -0.26953,0.375 -0.80859,0.6445313 -1.23047,0.6445313 -0.45703,0 -0.73828,-0.3398438 -0.73828,-0.9023438 0,-0.703125 0.30469,-0.984375 1.32422,-1.265625 l 0.64453,-0.1640625 z m 0,0"
         style="fill:#000000;fill-opacity:1;fill-rule:nonzero;stroke:#000000;stroke-width:0.751181;stroke-dasharray:none;stroke-opacity:1" />
      <path
         id="path189"
         d="m 5.7184297,35.42975 c 0,-0.65625 0.070312,-1.242188 0.2109375,-1.757813 -0.5742188,-0.351562 -1.078125,-0.503906 -1.6640625,-0.503906 -0.6914063,0 -1.5,0.269531 -2.3554688,0.820313 -1.00781246,0.632812 -1.53515621,1.628906 -1.53515621,2.894531 0,1.933594 1.35937501,3.292969 3.28125001,3.292969 0.75,0 1.828125,-0.269532 1.96875,-0.480469 L 5.9293672,39.238344 5.7770234,39.015687 c -0.5273437,0.292969 -0.984375,0.421875 -1.5,0.421875 -1.59375,0 -2.6367187,-1.230468 -2.6367187,-3.128906 0,-1.535156 0.7148437,-2.390625 2.0039062,-2.390625 0.6328125,0 1.3242188,0.28125 1.5820313,0.644531 l 0.09375,0.867188 z m 4.6464843,-2.261719 c -2.0859374,0 -3.5390624,1.476563 -3.5390624,3.609375 0,2.027344 1.2773437,3.398438 3.1289062,3.398438 2.2031252,0 3.7851562,-1.523438 3.7851562,-3.679688 0,-1.933594 -1.40625,-3.328125 -3.375,-3.328125 z m -0.257812,0.46875 c 1.324218,0 2.296875,1.441406 2.296875,3.386719 0,1.652344 -0.726563,2.683594 -1.886719,2.683594 -1.4062502,0 -2.3554689,-1.371094 -2.3554689,-3.410157 0,-1.722656 0.6914062,-2.660156 1.9453129,-2.660156 z m 5.501953,0.773438 v 4.136718 c 0,1.066407 0.46875,1.523438 1.582031,1.523438 0.328125,0 0.667969,-0.07031 0.75,-0.175781 l 0.691406,-0.761719 -0.1875,-0.246094 c -0.351562,0.199219 -0.574219,0.28125 -0.84375,0.28125 -0.5625,0 -0.785156,-0.292969 -0.785156,-0.996094 v -3.761718 h 1.828125 l 0.128906,-0.773438 -1.957031,0.09375 V 33.17975 c 0,-0.597656 0.03516,-1.113281 0.152344,-2.039063 l -0.164063,-0.152343 c -0.351562,0.210937 -0.785156,0.398437 -1.21875,0.539062 0.03516,0.433594 0.04687,0.703125 0.04687,1.136719 v 1.007812 l -1.113281,0.503907 v 0.292968 z m 3.375,-3.996094 h 0.796875 c 0.257812,0 0.363281,0.152344 0.363281,0.585937 v 7.429688 c 0,0.902344 -0.04687,1.007812 -0.539063,1.03125 l -0.644531,0.04687 v 0.433594 c 0.984375,-0.03516 1.371094,-0.04687 1.78125,-0.04687 0.421875,0 0.808594,0.01172 1.78125,0.04687 V 39.507875 L 21.878586,39.461 c -0.492188,-0.02344 -0.527344,-0.128906 -0.527344,-1.03125 v -3.035156 c 0,-0.644532 0.9375,-1.347657 1.816406,-1.347657 0.960938,0 1.59375,0.714844 1.59375,1.816407 v 4.078125 c 0.878907,-0.04687 0.890625,-0.04687 1.136719,-0.04687 0.199219,0 0.199219,0 1.183594,0.04687 V 39.507875 L 26.495773,39.461 C 26.003586,39.437562 25.96843,39.343812 25.96843,38.42975 v -2.765625 c 0,-1.675781 -0.796875,-2.496094 -2.402344,-2.496094 -0.527344,0 -0.832031,0.105469 -1.125,0.363281 l -1.089844,0.9375 v -4.875 l -0.128906,-0.117187 c -0.632813,0.246094 -1.113281,0.363281 -2.238281,0.539062 z m 0,0"
         style="fill:#000000;fill-opacity:1;fill-rule:nonzero;stroke:#000000;stroke-width:0.751181;stroke-dasharray:none;stroke-opacity:1" />
      <path
         id="path190"
         d="m 32.355148,43.480531 c 0,-0.04687 0,-0.07031 -0.246093,-0.328125 -1.875,-1.886719 -2.355469,-4.710937 -2.355469,-6.996094 0,-2.601562 0.574219,-5.203125 2.414062,-7.078125 0.1875,-0.175781 0.1875,-0.199218 0.1875,-0.246093 0,-0.105469 -0.05859,-0.152344 -0.140625,-0.152344 -0.152343,0 -1.5,1.019531 -2.378906,2.917969 -0.761719,1.640625 -0.949219,3.304687 -0.949219,4.558593 0,1.171875 0.164063,2.976563 0.996094,4.664063 0.890625,1.839844 2.179688,2.8125 2.332031,2.8125 0.08203,0 0.140625,-0.04687 0.140625,-0.152344 z m 0,0"
         style="fill:#000000;fill-opacity:1;fill-rule:nonzero;stroke:#000000;stroke-width:0.751181;stroke-dasharray:none;stroke-opacity:1" />
      <path
         id="path191"
         d="m 40.523117,38.488344 c -0.539062,0.445312 -0.878906,0.5625 -1.113281,0.5625 -0.210938,0 -0.386719,-0.04687 -0.527344,-0.316407 -0.128906,-0.269531 -0.304687,-0.878906 -0.375,-1.3125 -0.03516,-0.234375 -0.07031,-0.457031 -0.09375,-0.667968 0.421875,-0.574219 0.84375,-1.207032 1.054688,-1.523438 0.199218,-0.304687 0.738281,-1.160156 0.820312,-1.441406 -0.08203,-0.164063 -0.140625,-0.292969 -0.234375,-0.503906 -0.03516,-0.03516 -0.152344,-0.07031 -0.210937,-0.105469 -0.328125,1.195312 -0.515625,1.59375 -1.042969,2.4375 -0.05859,0.09375 -0.292969,0.445312 -0.457031,0.691406 -0.257813,-1.722656 -0.316407,-2.121094 -0.410157,-2.625 -0.128906,-0.644531 -0.527343,-0.703125 -0.832031,-0.703125 -0.316406,0.01172 -0.785156,0.257813 -1.253906,0.703125 -0.351563,0.316406 -0.621094,0.691406 -0.878906,1.136719 -0.632813,1.277344 -1.089844,2.976562 -1.089844,4.125 0,0.480469 0.210937,1.101562 0.539062,1.101562 0.5625,0 1.019532,-0.28125 1.464844,-0.609375 0.609375,-0.515625 1.253906,-1.160156 1.699219,-1.664062 0.152344,1.488281 0.585937,2.273437 1.125,2.273437 0.316406,0 0.761719,-0.234375 1.242187,-0.65625 l 0.703125,-0.632812 z m -3,-1.160157 c -0.421875,0.492188 -0.832031,0.914063 -1.195312,1.21875 -0.445313,0.375 -0.84375,0.503907 -1.101563,0.503907 -0.1875,0 -0.257812,-0.199219 -0.257812,-0.574219 0,-0.925781 0.234375,-2.472656 0.703125,-3.65625 0.1875,-0.480469 0.539062,-0.890625 0.855468,-0.890625 0.421875,0 0.574219,0.257812 0.667969,0.890625 z m 0,0"
         style="fill:#000000;fill-opacity:1;fill-rule:nonzero;stroke:#000000;stroke-width:0.751181;stroke-dasharray:none;stroke-opacity:1" />
      <path
         id="path192"
         d="m 45.819992,36.156312 c 0,-1.171875 -0.164062,-2.976562 -0.984375,-4.664062 -0.902344,-1.839844 -2.191406,-2.8125 -2.34375,-2.8125 -0.08203,0 -0.140625,0.05859 -0.140625,0.152344 0,0.04687 0,0.07031 0.28125,0.339843 1.464844,1.476563 2.320313,3.855469 2.320313,6.984375 0,2.554688 -0.550782,5.191407 -2.414063,7.078125 -0.1875,0.175782 -0.1875,0.199219 -0.1875,0.246094 0,0.09375 0.05859,0.152344 0.140625,0.152344 0.152344,0 1.5,-1.019531 2.378906,-2.917969 0.761719,-1.640625 0.949219,-3.304687 0.949219,-4.558594 z m 16.086914,-1.148437 c 0.222656,0 0.503906,0 0.503906,-0.304688 0,-0.292968 -0.28125,-0.292968 -0.492187,-0.292968 H 52.9655 c -0.210938,0 -0.503906,0 -0.503906,0.292968 0,0.304688 0.292968,0.304688 0.515625,0.304688 z m 0.01172,2.894531 c 0.210937,0 0.492187,0 0.492187,-0.292969 0,-0.304687 -0.28125,-0.304687 -0.503906,-0.304687 H 52.97722 c -0.222657,0 -0.515625,0 -0.515625,0.304687 0,0.292969 0.292968,0.292969 0.503906,0.292969 z m 0,0"
         style="fill:#000000;fill-opacity:1;fill-rule:nonzero;stroke:#000000;stroke-width:0.751181;stroke-dasharray:none;stroke-opacity:1" />
      <path
         id="path193"
         d="m 90.386398,22.225648 h 0.140625 l 1.851563,-0.832031 c 0.01172,-0.02344 0.03516,-0.02344 0.04687,-0.02344 0.08203,0 0.117187,0.128906 0.117187,0.480468 v 6.949219 c 0,0.75 -0.164062,0.914063 -0.9375,0.949219 l -0.796875,0.04687 v 0.433594 c 2.203125,-0.04687 2.203125,-0.04687 2.355469,-0.04687 0.1875,0 0.503906,0 0.996094,0.01172 0.175781,0.01172 0.667969,0.01172 1.265625,0.03516 v -0.433594 l -0.75,-0.04687 c -0.785156,-0.03516 -0.9375,-0.199219 -0.9375,-0.949219 V 20.30378 l -0.199219,-0.07031 c -0.925781,0.480469 -1.945312,0.914062 -3.257812,1.371094 z m 0,0"
         style="fill:#000000;fill-opacity:1;fill-rule:nonzero;stroke:#000000;stroke-width:0.751181;stroke-dasharray:none;stroke-opacity:1" />
    </g>
    <path
       id="path194"
       d="M 0,0 H 48.791"
       style="fill:none;stroke:#000000;stroke-width:0.751181;stroke-linecap:butt;stroke-linejoin:miter;stroke-miterlimit:10;stroke-dasharray:none;stroke-opacity:1"
       transform="matrix(1.3333333,0,0,-1.3333333,1894.6173,220.29867)" />
    <g
       id="g194"
       aria-label="tanh(α)&#10;=&#10;e&#10;α&#10;+e&#10;−α"
       transform="matrix(1.3333333,0,0,1.3333333,1894.6173,238.20267)"
       style="stroke:#000000;stroke-width:0.751181;stroke-dasharray:none;stroke-opacity:1">
      <path
         id="path195"
         d="m 1.4061406,-5.4840313 v 4.1367188 c 0,1.06640625 0.46875,1.5234375 1.5820313,1.5234375 0.328125,0 0.6679687,-0.0703125 0.75,-0.17578125 l 0.6914062,-0.76171875 -0.1875,-0.2460938 c -0.3515625,0.1992188 -0.5742187,0.28125005 -0.84375,0.28125005 -0.5625,0 -0.7851562,-0.29296875 -0.7851562,-0.99609375 v -3.7617188 h 1.828125 l 0.1289062,-0.7734375 -1.9570312,0.09375 V -6.7145 c 0,-0.5976563 0.035156,-1.1132813 0.1523437,-2.0390625 L 2.6014531,-8.9059063 c -0.3515625,0.2109375 -0.7851562,0.3984375 -1.21875,0.5390625 0.035156,0.4335938 0.046875,0.703125 0.046875,1.1367188 v 1.0078125 l -1.11328122,0.5039062 v 0.2929688 z m 7.921875,4.3125 -0.082031,1.21875005 c 0.9374994,-0.046875 0.9374994,-0.046875 1.1249994,-0.046875 0.07031,0 0.433594,0.01171875 1.066407,0.046875 V -0.386375 l -0.5625,-0.0234375 C 10.523328,-0.43325 10.464734,-0.5504375 10.464734,-1.2418438 v -2.625 c 0,-2.0976562 -0.5976559,-2.859375 -2.2617184,-2.859375 -0.6210937,0 -1.1835937,0.1523438 -1.734375,0.4921875 L 5.7069219,-5.777 v 0.9257812 l 0.375,0.1054688 0.1875,-0.4453125 C 6.5741094,-5.87075 6.7147344,-5.9645 7.3709844,-5.9645 c 1.3476562,0 1.9101562,0.5273437 1.9570312,1.828125 l -1.4296875,0.2695312 c -1.9453125,0.3515625 -2.765625,1.03125 -2.765625,2.2734375 0,1.12500005 0.6796875,1.7695313 1.8046875,1.7695313 0.2578125,0 0.5039063,-0.046875 0.609375,-0.1171875 z m 0,-0.609375 c -0.421875,0.5859375 -1.3242187,1.1367188 -1.8867187,1.1367188 -0.5742188,0 -1.078125,-0.5273438 -1.078125,-1.1484375 0,-0.5273438 0.2929687,-1.03125 0.7265625,-1.3007813 0.3515625,-0.2226562 1.1484375,-0.421875 2.2382812,-0.5742187 z m 8.4052734,1.82812505 c 0.878906,-0.046875 0.890625,-0.046875 1.136719,-0.046875 0.199219,0 0.199219,0 1.183594,0.046875 V -0.386375 L 19.467664,-0.43325 C 18.975477,-0.4566875 18.94032,-0.5504375 18.94032,-1.4645 v -2.765625 c 0,-1.6757813 -0.796875,-2.4960938 -2.402343,-2.4960938 -0.527344,0 -0.832032,0.1054688 -1.125,0.3632813 l -1.089844,0.9375 V -6.667625 l -0.128906,-0.058594 c -0.738282,0.3046875 -1.488282,0.5039063 -2.238282,0.5859375 v 0.3984375 h 0.527344 c 0.574219,0 0.632813,0.1054688 0.632813,1.0546875 V -1.4645 c 0,0.90234375 -0.04687,1.0078125 -0.539063,1.03125 l -0.644531,0.046875 v 0.43359375 c 0.984375,-0.03515625 1.371094,-0.046875 1.78125,-0.046875 0.421875,0 0.808594,0.01171875 1.78125,0.046875 V -0.386375 L 14.850477,-0.43325 C 14.358289,-0.4566875 14.323133,-0.56215625 14.323133,-1.4645 v -3.0351563 c 0,-0.6445312 0.9375,-1.3476562 1.816406,-1.3476562 0.960938,0 1.59375,0.7148437 1.59375,1.8164062 z M 20.305555,-9.480125 h 0.796875 c 0.257812,0 0.363281,0.1523437 0.363281,0.5859375 V -1.4645 c 0,0.90234375 -0.04687,1.0078125 -0.539063,1.03125 l -0.644531,0.046875 v 0.43359375 c 0.984375,-0.03515625 1.371094,-0.046875 1.78125,-0.046875 0.421875,0 0.808594,0.01171875 1.78125,0.046875 V -0.386375 L 23.200086,-0.43325 C 22.707898,-0.4566875 22.672742,-0.56215625 22.672742,-1.4645 v -3.0351563 c 0,-0.6445312 0.9375,-1.3476562 1.816406,-1.3476562 0.960938,0 1.59375,0.7148437 1.59375,1.8164062 v 4.07812505 c 0.878907,-0.046875 0.890625,-0.046875 1.136719,-0.046875 0.199219,0 0.199219,0 1.183594,0.046875 V -0.386375 L 27.817273,-0.43325 C 27.325086,-0.4566875 27.28993,-0.5504375 27.28993,-1.4645 v -2.765625 c 0,-1.6757813 -0.796875,-2.4960938 -2.402344,-2.4960938 -0.527344,0 -0.832031,0.1054688 -1.125,0.3632813 l -1.089844,0.9375 v -4.8750005 l -0.128906,-0.117187 c -0.632813,0.246094 -1.113281,0.363281 -2.238281,0.5390625 z m 0,0"
         style="fill:#000000;fill-opacity:1;fill-rule:nonzero;stroke:#000000;stroke-width:0.751181;stroke-dasharray:none;stroke-opacity:1" />
      <path
         id="path196"
         d="m 33.673719,3.5862812 c 0,-0.046875 0,-0.070312 -0.246094,-0.328125 -1.875,-1.8867187 -2.355469,-4.7109375 -2.355469,-6.9960937 0,-2.6015625 0.574219,-5.203125 2.414063,-7.0781255 0.1875,-0.175781 0.1875,-0.199218 0.1875,-0.246093 0,-0.105469 -0.05859,-0.152344 -0.140625,-0.152344 -0.152344,0 -1.5,1.019531 -2.378906,2.9179687 -0.761719,1.640625 -0.949219,3.3046875 -0.949219,4.5585938 0,1.171875 0.164062,2.9765625 0.996094,4.6640625 0.890625,1.8398437 2.179687,2.8125 2.332031,2.8125 0.08203,0 0.140625,-0.046875 0.140625,-0.1523438 z m 0,0"
         style="fill:#000000;fill-opacity:1;fill-rule:nonzero;stroke:#000000;stroke-width:0.751181;stroke-dasharray:none;stroke-opacity:1" />
      <path
         id="path197"
         d="m 41.844617,-1.4059063 c -0.539062,0.44531255 -0.878906,0.56250005 -1.113281,0.56250005 -0.210938,0 -0.386719,-0.046875 -0.527344,-0.31640625 -0.128906,-0.2695313 -0.304687,-0.8789063 -0.375,-1.3125 -0.03516,-0.234375 -0.07031,-0.4570313 -0.09375,-0.6679688 0.421875,-0.5742187 0.84375,-1.2070312 1.054688,-1.5234375 0.199218,-0.3046875 0.738281,-1.1601562 0.820312,-1.4414062 -0.08203,-0.1640625 -0.140625,-0.2929688 -0.234375,-0.5039063 -0.03516,-0.035156 -0.152344,-0.070312 -0.210937,-0.1054687 -0.328125,1.1953125 -0.515625,1.59375 -1.042969,2.4375 -0.05859,0.09375 -0.292969,0.4453125 -0.457031,0.6914062 -0.257813,-1.7226562 -0.316407,-2.1210937 -0.410157,-2.625 -0.128906,-0.6445312 -0.527343,-0.703125 -0.832031,-0.703125 -0.316406,0.011719 -0.785156,0.2578125 -1.253906,0.703125 -0.351563,0.3164063 -0.621094,0.6914063 -0.878906,1.1367188 -0.632813,1.2773437 -1.089844,2.9765625 -1.089844,4.125 0,0.48046875 0.210937,1.1015625 0.539062,1.1015625 0.5625,0 1.019532,-0.28125 1.464844,-0.609375 0.609375,-0.515625 1.253906,-1.1601563 1.699219,-1.6640625 0.152344,1.48828125 0.585937,2.2734375 1.125,2.2734375 0.316406,0 0.761719,-0.234375 1.242187,-0.65625 l 0.703125,-0.6328125 z m -3,-1.1601562 c -0.421875,0.4921875 -0.832031,0.9140625 -1.195312,1.21875 -0.445313,0.375 -0.84375,0.50390625 -1.101563,0.50390625 -0.1875,0 -0.257812,-0.19921875 -0.257812,-0.57421875 0,-0.9257813 0.234375,-2.4726563 0.703125,-3.65625 0.1875,-0.4804688 0.539062,-0.890625 0.855468,-0.890625 0.421875,0 0.574219,0.2578125 0.667969,0.890625 z m 0,0"
         style="fill:#000000;fill-opacity:1;fill-rule:nonzero;stroke:#000000;stroke-width:0.751181;stroke-dasharray:none;stroke-opacity:1" />
      <path
         id="path198"
         d="m 47.141492,-3.7379375 c 0,-1.171875 -0.164062,-2.9765625 -0.984375,-4.6640625 -0.902344,-1.839844 -2.191406,-2.8125 -2.34375,-2.8125 -0.08203,0 -0.140625,0.05859 -0.140625,0.152344 0,0.04687 0,0.07031 0.28125,0.339843 1.464844,1.476563 2.320313,3.8554692 2.320313,6.9843755 0,2.5546875 -0.550782,5.1914062 -2.414063,7.078125 -0.1875,0.1757812 -0.1875,0.1992187 -0.1875,0.2460937 0,0.09375 0.05859,0.1523438 0.140625,0.1523438 0.152344,0 1.5,-1.0195313 2.378906,-2.91796875 0.761719,-1.640625 0.949219,-3.30468755 0.949219,-4.55859375 z M 64.429578,-14.730125 c 0.222656,0 0.503906,0 0.503906,-0.304688 0,-0.292968 -0.28125,-0.292968 -0.492187,-0.292968 h -8.953125 c -0.210938,0 -0.503906,0 -0.503906,0.292968 0,0.304688 0.292968,0.304688 0.515625,0.304688 z m 0.01172,2.894531 c 0.210937,0 0.492187,0 0.492187,-0.292969 0,-0.304687 -0.28125,-0.304687 -0.503906,-0.304687 h -8.929687 c -0.222657,0 -0.515625,0 -0.515625,0.304687 0,0.292969 0.292968,0.292969 0.503906,0.292969 z m 0,0"
         style="fill:#000000;fill-opacity:1;fill-rule:nonzero;stroke:#000000;stroke-width:0.751181;stroke-dasharray:none;stroke-opacity:1" />
      <path
         id="path199"
         d="m 76.010633,-21.14907 -0.339844,0.246093 c -0.761719,0.539063 -1.453125,0.832032 -1.96875,0.832032 -0.667969,0 -1.089844,-0.527344 -1.089844,-1.394532 0,-0.351562 0.04687,-0.738281 0.117188,-1.160156 l 1.183594,-0.28125 c 0.234375,-0.05859 0.621093,-0.210937 0.984375,-0.363281 1.21875,-0.527344 1.78125,-1.195313 1.78125,-2.074219 0,-0.679687 -0.492188,-1.125 -1.207032,-1.125 -0.9375,0 -2.519531,0.984375 -3.082031,1.910156 -0.433594,0.714844 -0.867187,2.425782 -0.867187,3.386719 0,1.113281 0.632812,1.769531 1.664062,1.769531 0.820313,0 1.628906,-0.398437 2.941406,-1.476562 z m -3.082031,-2.332032 c 0.246093,-0.996093 0.539062,-1.605468 0.949218,-1.980468 0.257813,-0.234375 0.703125,-0.410157 1.042969,-0.410157 0.421875,0 0.691406,0.292969 0.691406,0.75 0,0.632813 -0.503906,1.300782 -1.242187,1.664063 -0.410156,0.199219 -0.925781,0.363281 -1.570313,0.503906 z m 0,0"
         style="fill:#000000;fill-opacity:1;fill-rule:nonzero;stroke:#000000;stroke-width:0.751181;stroke-dasharray:none;stroke-opacity:1" />
      <path
         id="path200"
         d="m 82.022352,-25.734031 c -0.363282,0.304687 -0.609375,0.386718 -0.761719,0.386718 -0.152344,0 -0.269531,-0.03516 -0.375,-0.222656 -0.08203,-0.1875 -0.199219,-0.609375 -0.257813,-0.902344 -0.02344,-0.175781 -0.04687,-0.316406 -0.07031,-0.46875 0.304687,-0.398437 0.585937,-0.84375 0.738281,-1.054687 0.140625,-0.210938 0.515625,-0.808594 0.574219,-1.007813 -0.05859,-0.105468 -0.105469,-0.199218 -0.164063,-0.351562 -0.02344,-0.02344 -0.105468,-0.04687 -0.152343,-0.07031 -0.222657,0.832032 -0.351563,1.113282 -0.726563,1.699219 -0.03516,0.05859 -0.199219,0.304688 -0.316406,0.46875 -0.175781,-1.195312 -0.222656,-1.464844 -0.28125,-1.816406 -0.08203,-0.445313 -0.363281,-0.492188 -0.574219,-0.492188 -0.222656,0.01172 -0.550781,0.1875 -0.878906,0.492188 -0.234375,0.222656 -0.421875,0.480469 -0.609375,0.785156 -0.433594,0.890625 -0.75,2.074219 -0.75,2.871094 0,0.328125 0.140625,0.761719 0.375,0.761719 0.386719,0 0.703125,-0.199219 1.019531,-0.421875 0.410156,-0.363282 0.867188,-0.808594 1.171875,-1.160157 0.105469,1.042969 0.410156,1.582032 0.785156,1.582032 0.222657,0 0.527344,-0.164063 0.855469,-0.457032 l 0.492188,-0.433593 z m -2.074219,-0.808594 c -0.292969,0.339844 -0.585938,0.632812 -0.832031,0.84375 -0.304688,0.257812 -0.585938,0.351562 -0.761719,0.351562 -0.128906,0 -0.1875,-0.140625 -0.1875,-0.398437 0,-0.644531 0.164062,-1.710938 0.492187,-2.542969 0.128907,-0.328125 0.375,-0.621094 0.597657,-0.621094 0.292968,0 0.398437,0.1875 0.457031,0.621094 z m 0,0"
         style="fill:#000000;fill-opacity:1;fill-rule:nonzero;stroke:#000000;stroke-width:0.751181;stroke-dasharray:none;stroke-opacity:1" />
      <path
         id="path201"
         d="m 92.16493,-22.988914 h 4.171875 c 0.210937,0 0.492187,0 0.492187,-0.304688 0,-0.304687 -0.28125,-0.304687 -0.492187,-0.304687 H 92.16493 v -4.183594 c 0,-0.210937 0,-0.492187 -0.304688,-0.492187 -0.292969,0 -0.292969,0.28125 -0.292969,0.492187 v 4.183594 H 87.38368 c -0.210938,0 -0.503907,0 -0.503907,0.304687 0,0.304688 0.292969,0.304688 0.503907,0.304688 h 4.183593 v 4.183594 c 0,0.210937 0,0.492187 0.292969,0.492187 0.304688,0 0.304688,-0.28125 0.304688,-0.492187 z m 0,0"
         style="fill:#000000;fill-opacity:1;fill-rule:nonzero;stroke:#000000;stroke-width:0.751181;stroke-dasharray:none;stroke-opacity:1" />
      <path
         id="path202"
         d="m 105.51552,-21.14907 -0.33985,0.246093 c -0.76172,0.539063 -1.45312,0.832032 -1.96875,0.832032 -0.66797,0 -1.08984,-0.527344 -1.08984,-1.394532 0,-0.351562 0.0469,-0.738281 0.11719,-1.160156 l 1.18359,-0.28125 c 0.23437,-0.05859 0.62109,-0.210937 0.98437,-0.363281 1.21875,-0.527344 1.78125,-1.195313 1.78125,-2.074219 0,-0.679687 -0.49218,-1.125 -1.20703,-1.125 -0.9375,0 -2.51953,0.984375 -3.08203,1.910156 -0.43359,0.714844 -0.86719,2.425782 -0.86719,3.386719 0,1.113281 0.63282,1.769531 1.66407,1.769531 0.82031,0 1.6289,-0.398437 2.9414,-1.476562 z m -3.08204,-2.332032 c 0.2461,-0.996093 0.53907,-1.605468 0.94922,-1.980468 0.25782,-0.234375 0.70313,-0.410157 1.04297,-0.410157 0.42188,0 0.69141,0.292969 0.69141,0.75 0,0.632813 -0.50391,1.300782 -1.24219,1.664063 -0.41016,0.199219 -0.92578,0.363281 -1.57031,0.503906 z m 0,0"
         style="fill:#000000;fill-opacity:1;fill-rule:nonzero;stroke:#000000;stroke-width:0.751181;stroke-dasharray:none;stroke-opacity:1" />
      <path
         id="path203"
         d="m 113.54286,-27.152 c 0.17578,0 0.36328,0 0.36328,-0.210938 0,-0.199218 -0.1875,-0.199218 -0.36328,-0.199218 h -5.61328 c -0.1875,0 -0.36328,0 -0.36328,0.199218 0,0.210938 0.17578,0.210938 0.36328,0.210938 z m 0,0"
         style="fill:#000000;fill-opacity:1;fill-rule:nonzero;stroke:#000000;stroke-width:0.751181;stroke-dasharray:none;stroke-opacity:1" />
      <path
         id="path204"
         d="m 119.84755,-25.734031 c -0.36328,0.304687 -0.60938,0.386718 -0.76172,0.386718 -0.15235,0 -0.26953,-0.03516 -0.375,-0.222656 -0.082,-0.1875 -0.19922,-0.609375 -0.25781,-0.902344 -0.0234,-0.175781 -0.0469,-0.316406 -0.0703,-0.46875 0.30469,-0.398437 0.58594,-0.84375 0.73828,-1.054687 0.14063,-0.210938 0.51563,-0.808594 0.57422,-1.007813 -0.0586,-0.105468 -0.10547,-0.199218 -0.16406,-0.351562 -0.0234,-0.02344 -0.10547,-0.04687 -0.15234,-0.07031 -0.22266,0.832032 -0.35157,1.113282 -0.72657,1.699219 -0.0352,0.05859 -0.19921,0.304688 -0.3164,0.46875 -0.17578,-1.195312 -0.22266,-1.464844 -0.28125,-1.816406 -0.082,-0.445313 -0.36328,-0.492188 -0.57422,-0.492188 -0.22266,0.01172 -0.55078,0.1875 -0.87891,0.492188 -0.23437,0.222656 -0.42187,0.480469 -0.60937,0.785156 -0.4336,0.890625 -0.75,2.074219 -0.75,2.871094 0,0.328125 0.14062,0.761719 0.375,0.761719 0.38672,0 0.70312,-0.199219 1.01953,-0.421875 0.41016,-0.363282 0.86719,-0.808594 1.17187,-1.160157 0.10547,1.042969 0.41016,1.582032 0.78516,1.582032 0.22266,0 0.52734,-0.164063 0.85547,-0.457032 l 0.49219,-0.433593 z m -2.07422,-0.808594 c -0.29297,0.339844 -0.58594,0.632812 -0.83203,0.84375 -0.30469,0.257812 -0.58594,0.351562 -0.76172,0.351562 -0.12891,0 -0.1875,-0.140625 -0.1875,-0.398437 0,-0.644531 0.16406,-1.710938 0.49219,-2.542969 0.1289,-0.328125 0.375,-0.621094 0.59765,-0.621094 0.29297,0 0.39844,0.1875 0.45703,0.621094 z m 0,0"
         style="fill:#000000;fill-opacity:1;fill-rule:nonzero;stroke:#000000;stroke-width:0.751181;stroke-dasharray:none;stroke-opacity:1" />
    </g>
    <path
       id="path205"
       d="M 0,0 H 49.77"
       style="fill:none;stroke:#000000;stroke-width:0.751181;stroke-linecap:butt;stroke-linejoin:miter;stroke-miterlimit:10;stroke-dasharray:none;stroke-opacity:1"
       transform="matrix(1.3333333,0,0,-1.3333333,1989.46,220.29867)" />
    <g
       id="g205"
       aria-label="e&#10;α&#10;−e&#10;−α"
       transform="matrix(1.3333333,0,0,1.3333333,1989.6987,238.20267)"
       style="stroke:#000000;stroke-width:0.751181;stroke-dasharray:none;stroke-opacity:1">
      <path
         id="path206"
         d="m 4.6996328,-1.5934063 -0.3398437,0.2460938 c -0.7617188,0.5390625 -1.453125,0.83203125 -1.96875,0.83203125 -0.6679688,0 -1.0898438,-0.52734375 -1.0898438,-1.39453125 0,-0.3515625 0.046875,-0.7382813 0.1171875,-1.1601563 l 1.1835938,-0.28125 c 0.234375,-0.058594 0.6210937,-0.2109375 0.984375,-0.3632812 1.21875,-0.5273438 1.78125,-1.1953125 1.78125,-2.0742188 0,-0.6796875 -0.4921875,-1.125 -1.2070313,-1.125 -0.9375,0 -2.5195312,0.984375 -3.0820312,1.9101563 -0.43359379,0.7148437 -0.86718754,2.4257812 -0.86718754,3.3867187 0,1.1132813 0.6328125,1.7695313 1.66406254,1.7695313 0.8203125,0 1.6289062,-0.3984375 2.9414062,-1.4765625 z M 1.6176016,-3.9254375 c 0.2460937,-0.9960938 0.5390625,-1.6054688 0.9492187,-1.9804688 0.2578125,-0.234375 0.703125,-0.4101562 1.0429688,-0.4101562 0.421875,0 0.6914062,0.2929687 0.6914062,0.75 0,0.6328125 -0.5039062,1.3007812 -1.2421875,1.6640625 -0.4101562,0.1992187 -0.9257812,0.3632812 -1.5703125,0.5039062 z m 0,0"
         style="fill:#000000;fill-opacity:1;fill-rule:nonzero;stroke:#000000;stroke-width:0.751181;stroke-dasharray:none;stroke-opacity:1" />
      <path
         id="path207"
         d="m 10.711352,-5.1178203 c -0.363282,0.3046875 -0.609375,0.3867187 -0.7617192,0.3867187 -0.1523437,0 -0.2695312,-0.035156 -0.375,-0.2226562 -0.082031,-0.1875 -0.1992187,-0.609375 -0.2578125,-0.9023438 -0.023437,-0.1757812 -0.046875,-0.3164062 -0.070312,-0.46875 0.3046875,-0.3984375 0.5859375,-0.84375 0.7382813,-1.0546875 0.1406254,-0.2109375 0.5156254,-0.8085937 0.5742194,-1.0078125 -0.05859,-0.1054687 -0.105469,-0.1992187 -0.164063,-0.3515625 -0.02344,-0.023437 -0.105468,-0.046875 -0.152343,-0.070312 -0.222657,0.8320313 -0.3515634,1.1132813 -0.7265634,1.6992188 -0.035156,0.058594 -0.1992188,0.3046875 -0.3164063,0.46875 -0.1757812,-1.1953125 -0.2226562,-1.4648438 -0.28125,-1.8164063 -0.082031,-0.4453125 -0.3632812,-0.4921875 -0.5742187,-0.4921875 -0.2226563,0.011719 -0.5507813,0.1875 -0.8789063,0.4921875 -0.234375,0.2226563 -0.421875,0.4804688 -0.609375,0.7851563 -0.4335937,0.890625 -0.75,2.0742187 -0.75,2.8710937 0,0.328125 0.140625,0.7617188 0.375,0.7617188 0.3867188,0 0.703125,-0.1992188 1.0195313,-0.421875 0.4101562,-0.3632813 0.8671875,-0.8085938 1.171875,-1.1601563 0.1054687,1.0429688 0.4101562,1.5820313 0.7851562,1.5820313 0.2226563,0 0.5273438,-0.1640625 0.8554692,-0.4570313 l 0.492188,-0.4335937 z M 8.6371328,-5.9264141 c -0.2929687,0.3398438 -0.5859375,0.6328125 -0.8320312,0.84375 -0.3046875,0.2578125 -0.5859375,0.3515625 -0.7617188,0.3515625 -0.1289062,0 -0.1875,-0.140625 -0.1875,-0.3984375 0,-0.6445312 0.1640625,-1.7109375 0.4921875,-2.5429687 0.1289063,-0.328125 0.375,-0.6210938 0.5976563,-0.6210938 0.2929687,0 0.3984375,0.1875 0.4570312,0.6210938 z m 0,0"
         style="fill:#000000;fill-opacity:1;fill-rule:nonzero;stroke:#000000;stroke-width:0.751181;stroke-dasharray:none;stroke-opacity:1" />
      <path
         id="path208"
         d="m 24.592211,-3.43325 c 0.257812,0 0.527344,0 0.527344,-0.3046875 0,-0.3046875 -0.269532,-0.3046875 -0.527344,-0.3046875 h -8.085938 c -0.257812,0 -0.527343,0 -0.527343,0.3046875 0,0.3046875 0.269531,0.3046875 0.527343,0.3046875 z m 0,0"
         style="fill:#000000;fill-opacity:1;fill-rule:nonzero;stroke:#000000;stroke-width:0.751181;stroke-dasharray:none;stroke-opacity:1" />
      <path
         id="path209"
         d="m 34.204516,-1.5934063 -0.339844,0.2460938 c -0.761719,0.5390625 -1.453125,0.83203125 -1.96875,0.83203125 -0.667969,0 -1.089844,-0.52734375 -1.089844,-1.39453125 0,-0.3515625 0.04687,-0.7382813 0.117188,-1.1601563 l 1.183593,-0.28125 c 0.234375,-0.058594 0.621094,-0.2109375 0.984375,-0.3632812 1.21875,-0.5273438 1.78125,-1.1953125 1.78125,-2.0742188 0,-0.6796875 -0.492187,-1.125 -1.207031,-1.125 -0.9375,0 -2.519531,0.984375 -3.082031,1.9101563 -0.433594,0.7148437 -0.867188,2.4257812 -0.867188,3.3867187 0,1.1132813 0.632813,1.7695313 1.664063,1.7695313 0.820312,0 1.628906,-0.3984375 2.941406,-1.4765625 z m -3.082032,-2.3320312 c 0.246094,-0.9960938 0.539063,-1.6054688 0.949219,-1.9804688 0.257813,-0.234375 0.703125,-0.4101562 1.042969,-0.4101562 0.421875,0 0.691406,0.2929687 0.691406,0.75 0,0.6328125 -0.503906,1.3007812 -1.242187,1.6640625 -0.410157,0.1992187 -0.925782,0.3632812 -1.570313,0.5039062 z m 0,0"
         style="fill:#000000;fill-opacity:1;fill-rule:nonzero;stroke:#000000;stroke-width:0.751181;stroke-dasharray:none;stroke-opacity:1" />
      <path
         id="path210"
         d="m 42.231859,-6.5357891 c 0.175782,0 0.363282,0 0.363282,-0.2109375 0,-0.1992187 -0.1875,-0.1992187 -0.363282,-0.1992187 h -5.613281 c -0.1875,0 -0.363281,0 -0.363281,0.1992187 0,0.2109375 0.175781,0.2109375 0.363281,0.2109375 z m 0,0"
         style="fill:#000000;fill-opacity:1;fill-rule:nonzero;stroke:#000000;stroke-width:0.751181;stroke-dasharray:none;stroke-opacity:1" />
      <path
         id="path211"
         d="m 48.536547,-5.1178203 c -0.363281,0.3046875 -0.609375,0.3867187 -0.761719,0.3867187 -0.152344,0 -0.269531,-0.035156 -0.375,-0.2226562 -0.08203,-0.1875 -0.199219,-0.609375 -0.257812,-0.9023438 -0.02344,-0.1757812 -0.04687,-0.3164062 -0.07031,-0.46875 0.304688,-0.3984375 0.585938,-0.84375 0.738281,-1.0546875 0.140625,-0.2109375 0.515625,-0.8085937 0.574219,-1.0078125 -0.05859,-0.1054687 -0.105469,-0.1992187 -0.164062,-0.3515625 -0.02344,-0.023437 -0.105469,-0.046875 -0.152344,-0.070312 -0.222656,0.8320313 -0.351563,1.1132813 -0.726563,1.6992188 -0.03516,0.058594 -0.199218,0.3046875 -0.316406,0.46875 -0.175781,-1.1953125 -0.222656,-1.4648438 -0.28125,-1.8164063 -0.08203,-0.4453125 -0.363281,-0.4921875 -0.574219,-0.4921875 -0.222656,0.011719 -0.550781,0.1875 -0.878906,0.4921875 -0.234375,0.2226563 -0.421875,0.4804688 -0.609375,0.7851563 -0.433594,0.890625 -0.75,2.0742187 -0.75,2.8710937 0,0.328125 0.140625,0.7617188 0.375,0.7617188 0.386719,0 0.703125,-0.1992188 1.019531,-0.421875 0.410157,-0.3632813 0.867188,-0.8085938 1.171875,-1.1601563 0.105469,1.0429688 0.410157,1.5820313 0.785157,1.5820313 0.222656,0 0.527343,-0.1640625 0.855468,-0.4570313 L 48.6303,-4.9303198 Z m -2.074219,-0.8085938 c -0.292969,0.3398438 -0.585937,0.6328125 -0.832031,0.84375 -0.304688,0.2578125 -0.585938,0.3515625 -0.761719,0.3515625 -0.128906,0 -0.1875,-0.140625 -0.1875,-0.3984375 0,-0.6445312 0.164063,-1.7109375 0.492188,-2.5429687 0.128906,-0.328125 0.375,-0.6210938 0.597656,-0.6210938 0.292969,0 0.398437,0.1875 0.457031,0.6210938 z m 0,0"
         style="fill:#000000;fill-opacity:1;fill-rule:nonzero;stroke:#000000;stroke-width:0.751181;stroke-dasharray:none;stroke-opacity:1" />
    </g>
  </g>
</svg>
