<?xml version="1.0" encoding="UTF-8" standalone="no"?>
<!-- Created with Inkscape (http://www.inkscape.org/) -->

<svg
   version="1.1"
   id="svg1"
   width="257.14285"
   height="49.523811"
   viewBox="0 0 257.14285 49.523811"
   sodipodi:docname="writetex.pdf"
   inkscape:export-batch-path="..\Akemicos\Akdemicos-Front\public"
   inkscape:export-batch-name="CscHiperbolica"
   xmlns:inkscape="http://www.inkscape.org/namespaces/inkscape"
   xmlns:sodipodi="http://sodipodi.sourceforge.net/DTD/sodipodi-0.dtd"
   xmlns="http://www.w3.org/2000/svg"
   xmlns:svg="http://www.w3.org/2000/svg">
  <defs
     id="defs1">
    <clipPath
       clipPathUnits="userSpaceOnUse"
       id="clipPath244">
      <rect
         style="fill:#000000;stroke:#000000;stroke-width:1.00157;stroke-dasharray:none;stroke-opacity:1"
         id="rect245"
         width="257.14285"
         height="49.523811"
         x="1014.2857"
         y="489.5238" />
    </clipPath>
  </defs>
  <sodipodi:namedview
     id="namedview1"
     pagecolor="#ffffff"
     bordercolor="#000000"
     borderopacity="0.25"
     inkscape:showpageshadow="2"
     inkscape:pageopacity="0.0"
     inkscape:pagecheckerboard="0"
     inkscape:deskcolor="#d1d1d1"
     showgrid="false">
    <inkscape:page
       x="0"
       y="0"
       width="257.14285"
       height="49.523811"
       id="page1"
       margin="0"
       bleed="0" />
  </sodipodi:namedview>
  <g
     id="g78"
     inkscape:groupmode="layer"
     inkscape:label="2"
     clip-path="url(#clipPath244)"
     style="stroke:#000000;stroke-width:1.00157;stroke-dasharray:none;stroke-opacity:1"
     transform="translate(-1014.2857,-489.5238)">
    <g
       id="g120"
       aria-label="Cosecantehiperbolica&#10;csch(α)=&#10;1"
       transform="matrix(1.3333333,0,0,1.3333333,1016.0907,466.332)"
       style="stroke:#000000;stroke-width:0.751181;stroke-dasharray:none;stroke-opacity:1">
      <path
         id="path121"
         d="M 9.9251641,-1.2421641 9.7493828,-1.4179453 c -0.9257812,0.48046874 -1.8632812,0.72656249 -2.7890625,0.72656249 -2.5195312,0 -4.1835937,-1.78124999 -4.1835937,-4.48828129 0,-2.4609375 1.40625,-3.984375 3.6796875,-3.984375 1.078125,0 1.78125,0.2695313 2.5546875,0.984375 l 0.070312,1.2421875 h 0.5625 c 0.1523437,-1.3828125 0.1992187,-1.6523437 0.328125,-2.203125 l -0.09375,-0.1523437 c -1.3007813,-0.515625 -2.109375,-0.6796875 -3.3515625,-0.6796875 -3.6328125,0 -5.89453129,1.921875 -5.89453129,4.9921875 0,3.2109375 2.20312499,5.22656249 5.75390629,5.22656249 1.3125,0 2.1679687,-0.19921875 3.2226562,-0.796875 z m 4.5468749,-5.5195312 c -2.273437,0 -3.539062,1.265625 -3.539062,3.5507812 0,2.203125 1.171875,3.45703129 3.257812,3.45703129 2.296875,0 3.585938,-1.31249999 3.585938,-3.63281249 0,-2.1796875 -1.183594,-3.375 -3.304688,-3.375 z m -0.164062,0.6914062 c 1.03125,0 1.511718,1.0195313 1.511718,3.1289063 0,1.7460937 -0.398437,2.49609374 -1.371093,2.49609374 -1.03125,0 -1.570313,-1.04296874 -1.570313,-3.11718754 0,-1.734375 0.433594,-2.5078125 1.429688,-2.5078125 z m 9.216796,1.3945313 0.117188,-1.7460938 c -0.5625,-0.2460937 -1.007813,-0.3398437 -1.769531,-0.3398437 -1.933594,0 -2.976563,0.7851562 -2.976563,2.2148437 0,0.9492188 0.515625,1.546875 1.511719,1.7929688 l 1.242187,0.3046875 c 0.65625,0.1523437 0.902344,0.3984375 0.902344,0.9023437 0,0.66796879 -0.515625,1.10156254 -1.324219,1.10156254 -0.667968,0 -1.148437,-0.2109375 -1.605468,-0.75000004 l -0.07031,-0.984375 h -0.5625 l -0.09375,2.02734379 c 0.820313,0.28125 1.464844,0.3984375 2.214844,0.3984375 1.816406,0 3.035156,-0.99609375 3.035156,-2.47265629 0,-1.03125 -0.539062,-1.5585937 -1.828125,-1.8515625 L 21.14587,-4.3359141 c -0.5625,-0.1289062 -0.785156,-0.3515625 -0.785156,-0.796875 0,-0.5742187 0.480469,-0.9375 1.253906,-0.9375 0.574219,0 1.207031,0.28125 1.253906,0.5625 l 0.140625,0.8320313 z m 7.79004,0.4453125 c 0,-1.5351563 -1.078125,-2.53125 -2.707032,-2.53125 -0.503906,0 -0.878906,0.1054687 -1.265625,0.3398437 l -0.667968,0.3984375 c -0.949219,0.5625 -1.371094,1.4179688 -1.371094,2.7773438 0,2.28515624 1.148437,3.49218749 3.292969,3.49218749 0.808593,0 1.347656,-0.140625 2.261718,-0.62109375 l 0.316407,-0.69140624 -0.175782,-0.2109375 c -0.667968,0.37499999 -1.101562,0.50390624 -1.675781,0.50390624 -0.75,0 -1.441406,-0.39843754 -1.804687,-1.01953124 -0.234375,-0.3984375 -0.316407,-0.7265625 -0.339844,-1.40625 h 1.875 c 0.820312,0 1.464844,-0.082031 2.261719,-0.28125 z m -3.023438,0.3164062 h -0.05859 c -0.08203,0 -0.46875,-0.011719 -0.691406,-0.035156 l -0.457031,-0.011719 c 0.04687,-1.4179687 0.386719,-1.9921875 1.21875,-1.9921875 0.820312,0 1.160156,0.5742188 1.195312,1.9921875 z m 9.175781,-0.3515625 c 0.09375,-0.9140625 0.164063,-1.3828125 0.292969,-2.015625 l -0.105469,-0.1875 c -0.65625,-0.234375 -0.960937,-0.2929687 -1.476562,-0.2929687 -0.539063,0 -0.949219,0.1054687 -1.289063,0.3046875 l -0.75,0.4453125 c -1.277343,0.7617187 -1.734375,1.4765625 -1.734375,2.7304687 0,2.2734375 1.136719,3.52734379 3.1875,3.52734379 0.714844,0 1.253907,-0.12890625 1.921875,-0.4921875 l 0.304688,-0.65625 -0.128906,-0.14062499 c -0.492188,0.19921874 -0.808594,0.26953124 -1.21875,0.26953124 -1.40625,0 -2.285157,-1.13671874 -2.285157,-2.95312504 0,-1.3125 0.492188,-2.015625 1.40625,-2.015625 0.644532,0 1.21875,0.2929688 1.265625,0.6210938 l 0.09375,0.8554687 z m 5.06836,3.30468754 -0.07031,0.890625 0.07031,0.1171875 C 43.426141,0.01174219 43.672234,2.34375e-5 43.836297,2.34375e-5 c 0.175781,0 0.410156,0.0117187525 1.265625,0.0468750025 v -0.5390625 l -0.433594,-0.0351563 c -0.316406,-0.0585938 -0.386719,-0.19921875 -0.398437,-0.87890624 v -0.3046875 c -0.01172,-0.4570313 -0.02344,-0.8554688 -0.02344,-1.1953125 0,-0.3984375 0.01172,-0.8554687 0.02344,-1.3945312 0.01172,-0.1875 0.01172,-0.3164063 0.01172,-0.421875 0,-1.2773438 -0.855468,-2.0390625 -2.308593,-2.0390625 -0.597657,0 -1.183594,0.1640625 -1.722657,0.4921875 l -0.761718,0.4570312 v 0.9960938 l 0.433593,0.09375 0.316407,-0.7148438 c 0.04687,-0.09375 0.445312,-0.1992187 0.832031,-0.1992187 0.960937,0 1.417969,0.515625 1.464844,1.6874999 l -1.265625,0.2578125 c -1.804688,0.375 -2.449219,0.9375 -2.449219,2.1562501 0,1.16015619 0.585937,1.78124994 1.675781,1.78124994 0.316406,0 0.5625,-0.0585938 0.703125,-0.17578125 z m 0,-0.69140624 c -0.269532,0.375 -0.808594,0.6445312 -1.230469,0.6445312 -0.457031,0 -0.738281,-0.3398437 -0.738281,-0.9023437 0,-0.703125 0.304687,-0.984375 1.324218,-1.265625 l 0.644532,-0.1640625 z m 3.225586,-3.9726563 0.644531,0.046875 c 0.339844,0.023437 0.375,0.1523438 0.375,1.0078125 v 3.140625 c 0,0.77343754 -0.07031,0.87890629 -0.515625,0.91406254 l -0.503906,0.0234375 v 0.5390625 L 47.612664,2.34375e-5 c 0.292969,0 0.984375,0.0117187525 1.945313,0.0468750025 v -0.5390625 l -0.503907,-0.0234375 c -0.445312,-0.0351563 -0.515625,-0.140625 -0.515625,-0.91406254 v -3.1171875 c 0,-0.5039062 0.585938,-0.9726562 1.21875,-0.9726562 0.9375,0 1.347657,0.5039062 1.347657,1.6523437 V 0.04689844 C 51.913445,0.01174219 52.159539,2.34375e-5 52.393914,2.34375e-5 c 0.199219,0 0.199219,0 1.441406,0.0468750025 v -0.5390625 l -0.46875,-0.0234375 c -0.445312,-0.0351563 -0.515625,-0.140625 -0.515625,-0.91406254 v -2.671875 c 0,-1.1015625 -0.128906,-1.6523437 -0.503906,-2.0507812 -0.375,-0.3867188 -0.960937,-0.609375 -1.664062,-0.609375 -0.433594,0 -0.773438,0.09375 -0.996094,0.28125 l -1.148438,0.890625 v -1.078125 l -0.09375,-0.09375 c -1.488281,0.4921875 -1.886718,0.5742187 -2.683593,0.6210937 z m 13.078125,4.76953129 -0.117188,-0.28124999 c -0.292969,0.15234374 -0.433594,0.18749999 -0.667969,0.18749999 -0.667968,0 -0.878906,-0.22265629 -0.878906,-0.92578129 v -3.421875 h 1.511719 l 0.117187,-0.9257812 -1.628906,0.082031 V -6.972633 c 0,-0.7617188 0.03516,-1.2304688 0.164063,-1.9453125 l -0.199219,-0.1523438 c -0.574219,0.28125 -1.019531,0.4453125 -1.746094,0.7265625 0.03516,0.7382813 0.05859,1.0195313 0.05859,1.3125 v 0.8671875 l -0.949219,0.609375 v 0.3164063 l 0.914063,-0.058594 v 3.7148438 c 0,1.27734374 0.539062,1.82812499 1.78125,1.82812499 0.445312,0 0.808593,-0.10546875 0.9375,-0.2578125 z m 6.732421,-3.37499999 c 0,-1.5351563 -1.078125,-2.53125 -2.707031,-2.53125 -0.503906,0 -0.878906,0.1054687 -1.265625,0.3398437 l -0.667969,0.3984375 c -0.949218,0.5625 -1.371093,1.4179688 -1.371093,2.7773438 0,2.28515624 1.148437,3.49218749 3.292968,3.49218749 0.808594,0 1.347657,-0.140625 2.261719,-0.62109375 l 0.316406,-0.69140624 -0.175781,-0.2109375 c -0.667969,0.37499999 -1.101562,0.50390624 -1.675781,0.50390624 -0.75,0 -1.441406,-0.39843754 -1.804688,-1.01953124 -0.234375,-0.3984375 -0.316406,-0.7265625 -0.339843,-1.40625 h 1.875 c 0.820312,0 1.464843,-0.082031 2.261718,-0.28125 z m -3.023437,0.3164062 h -0.05859 c -0.08203,0 -0.46875,-0.011719 -0.691406,-0.035156 l -0.457031,-0.011719 c 0.04687,-1.4179687 0.386718,-1.9921875 1.21875,-1.9921875 0.820312,0 1.160156,0.5742188 1.195312,1.9921875 z m 10.763672,-6.4101559 -1.03125,0.316406 c -0.375,0.1054687 -0.855469,0.1992187 -1.628906,0.2929687 v 0.515625 l 0.644531,0.046875 c 0.339844,0.035156 0.375,0.1640625 0.375,1.0078125 v 6.7148437 c 0,0.77343754 -0.07031,0.87890629 -0.515625,0.91406254 l -0.503906,0.0234375 v 0.5390625 L 72.503289,2.34375e-5 c 0.292969,0 0.984375,0.0117187525 1.945313,0.0468750025 v -0.5390625 l -0.503907,-0.0234375 c -0.445312,-0.0351563 -0.515625,-0.140625 -0.515625,-0.91406254 v -3.1171875 c 0,-0.5039062 0.585938,-0.9726562 1.21875,-0.9726562 0.9375,0 1.347657,0.5039062 1.347657,1.6640625 V 0.04689844 C 76.80407,0.01174219 77.050164,2.34375e-5 77.284539,2.34375e-5 c 0.199219,0 0.199219,0 1.441406,0.0468750025 v -0.5390625 l -0.46875,-0.0234375 c -0.445312,-0.0351563 -0.515625,-0.140625 -0.515625,-0.91406254 v -2.671875 c 0,-1.1015625 -0.128906,-1.6523437 -0.503906,-2.0507812 -0.375,-0.3867188 -0.960937,-0.609375 -1.664062,-0.609375 -0.433594,0 -0.773438,0.09375 -0.996094,0.28125 l -1.148438,0.890625 v -4.6523437 z m 8.882812,3.5624997 -1.007812,0.3164062 c -0.457031,0.1523438 -0.808594,0.2109375 -1.40625,0.28125 -0.04687,0 -0.117188,0.011719 -0.210938,0.023437 v 0.515625 l 0.644532,0.046875 c 0.328125,0.023437 0.375,0.1523438 0.375,1.0078125 v 3.140625 c 0,0.77343754 -0.08203,0.87890629 -0.527344,0.91406254 l -0.492188,0.0234375 v 0.5390625 L 81.421258,2.34375e-5 c 0.28125,0 0.972656,0.0117187525 1.933594,0.0468750025 v -0.5390625 l -0.503907,-0.0234375 c -0.445312,-0.0351563 -0.515625,-0.140625 -0.515625,-0.91406254 v -5.2382812 z m -0.773437,-3.3632817 c -0.621094,0 -1.101563,0.4570317 -1.101563,1.0546879 0,0.609375 0.480469,1.0898438 1.078125,1.0898438 0.585938,0 1.078125,-0.4804688 1.078125,-1.0664063 0,-0.5976562 -0.46875,-1.0781254 -1.054687,-1.0781254 z m 5.466797,3.3632817 -0.996094,0.3164062 c -0.492188,0.1523438 -0.738281,0.1875 -1.464844,0.2929688 l -0.164062,0.011719 v 0.515625 l 0.65625,0.046875 c 0.328125,0.023437 0.363281,0.1523438 0.363281,1.0078125 v 6.796875 c 0,0.7734375 -0.07031,0.890625 -0.515625,0.9140625 l -0.503906,0.035156 v 0.5273437 l 1.851562,-0.046875 c 0.1875,0 0.222656,0 2.085938,0.046875 V 3.1758047 L 87.556023,3.1406484 C 87.110711,3.1289297 87.040398,3.0000234 87.040398,2.2265859 V 2.34375e-5 C 87.743523,0.19924219 87.96618,0.24611719 88.317742,0.24611719 c 0.480469,0 0.984375,-0.2578125 1.957031,-1.03125 0.09375,-0.0585938 0.175782,-0.12890625 0.246094,-0.1875 0.949219,-0.71484379 1.464844,-1.83984379 1.464844,-3.12890629 0,-1.5234375 -1.101563,-2.6601562 -2.601563,-2.6601562 -0.550781,0 -0.972656,0.1640625 -1.476562,0.5625 l -0.867188,0.703125 v -1.171875 z m 0.152343,2.015625 c 0.316407,-0.4804688 0.785157,-0.7148438 1.371094,-0.7148438 1.101563,0 1.769531,0.8554688 1.769531,2.2851563 0,1.5 -0.644531,2.44921874 -1.699218,2.44921874 -0.597657,0 -1.054688,-0.24609375 -1.441407,-0.79687504 z m 12.1875,0.515625 c 0,-1.5351563 -1.078125,-2.53125 -2.707031,-2.53125 -0.503906,0 -0.878906,0.1054687 -1.265625,0.3398437 l -0.667969,0.3984375 c -0.949218,0.5625 -1.371093,1.4179688 -1.371093,2.7773438 0,2.28515624 1.148437,3.49218749 3.292968,3.49218749 0.808594,0 1.347657,-0.140625 2.261719,-0.62109375 l 0.316406,-0.69140624 -0.175781,-0.2109375 c -0.667969,0.37499999 -1.101562,0.50390624 -1.675781,0.50390624 -0.75,0 -1.441406,-0.39843754 -1.804688,-1.01953124 -0.234375,-0.3984375 -0.316406,-0.7265625 -0.339843,-1.40625 h 1.875 c 0.820312,0 1.464843,-0.082031 2.261718,-0.28125 z m -3.023437,0.3164062 h -0.05859 c -0.08203,0 -0.46875,-0.011719 -0.691406,-0.035156 l -0.457031,-0.011719 c 0.04687,-1.4179687 0.386718,-1.9921875 1.21875,-1.9921875 0.820312,0 1.160156,0.5742188 1.195312,1.9921875 z m 6.647459,-2.8476562 -1.00781,0.3164062 c -0.45703,0.1523438 -0.71484,0.1875 -1.61719,0.3046875 v 0.515625 l 0.64453,0.046875 c 0.32813,0.023437 0.375,0.1523438 0.375,1.0078125 v 3.140625 c 0,0.77343754 -0.0703,0.87890629 -0.51562,0.91406254 l -0.50391,0.0234375 v 0.5390625 L 102.07848,2.34375e-5 c 0.1875,0 0.22266,0 2.15625,0.0468750025 v -0.5390625 l -0.55078,-0.0234375 c -0.62109,-0.0351563 -0.6914,-0.1171875 -0.6914,-0.91406254 v -2.8476562 c 0,-0.4453125 0.58593,-0.9140625 1.14843,-0.9140625 0.35157,0 0.6211,0.1757812 0.82032,0.515625 l 0.33984,-0.140625 0.0703,-1.8515625 c -0.14062,-0.058594 -0.32812,-0.09375 -0.52734,-0.09375 -0.39844,0 -0.67969,0.1757812 -1.21875,0.7617187 l -0.63281,0.6914063 v -1.359375 z m 5.54297,-3.4804687 -0.11719,-0.08203 -1.03125,0.316406 c -0.41015,0.1289062 -0.90234,0.2109374 -1.73437,0.2929687 v 0.515625 l 0.76172,0.046875 c 0.3164,0.011719 0.375,0.1640625 0.375,1.0078125 v 5.8242187 c 0,0.7617188 -0.0469,1.61718754 -0.12891,2.37890629 l 0.31641,0.1171875 0.5625,-0.45703125 c 0.65625,0.3515625 1.2539,0.52734375 1.875,0.52734375 0.44531,0 0.83203,-0.1171875 1.24218,-0.36328125 0.57422,-0.33984375 1.24219,-0.78515625 1.64063,-1.11328124 0.71484,-0.5859375 1.19531,-1.6992188 1.19531,-2.8007813 0,-1.59375 -1.07812,-2.7304687 -2.60156,-2.7304687 -0.5625,0 -0.97266,0.1640625 -1.47656,0.5625 l -0.87891,0.703125 z m 0,5.4960937 c 0.31641,-0.4804688 0.79688,-0.7148438 1.38281,-0.7148438 1.10157,0 1.75782,0.8554688 1.75782,2.2851563 0,1.5 -0.64454,2.44921874 -1.6875,2.44921874 -0.60938,0 -1.06641,-0.24609375 -1.45313,-0.79687504 z m 9.85547,-2.015625 c -2.27344,0 -3.53906,1.265625 -3.53906,3.5507812 0,2.203125 1.17187,3.45703129 3.25781,3.45703129 2.29687,0 3.58594,-1.31249999 3.58594,-3.63281249 0,-2.1796875 -1.1836,-3.375 -3.30469,-3.375 z m -0.16406,0.6914062 c 1.03125,0 1.51172,1.0195313 1.51172,3.1289063 0,1.7460937 -0.39844,2.49609374 -1.3711,2.49609374 -1.03125,0 -1.57031,-1.04296874 -1.57031,-3.11718754 0,-1.734375 0.43359,-2.5078125 1.42969,-2.5078125 z m 7.1455,-4.2539059 -1.04296,0.316406 c -0.41016,0.1289062 -0.90235,0.2109374 -1.73438,0.2929687 v 0.515625 l 0.76172,0.046875 c 0.31641,0.011719 0.375,0.1640625 0.375,1.0078125 v 6.7148437 c 0,0.77343754 -0.0703,0.87890629 -0.51563,0.91406254 l -0.5039,0.0234375 v 0.5390625 L 124.42321,2.34375e-5 c 0.29297,0 0.97266,0.0117187525 1.93359,0.0468750025 v -0.5390625 l -0.5039,-0.0234375 c -0.4336,-0.0351563 -0.51563,-0.140625 -0.51563,-0.91406254 v -8.8124999 z m 4.77833,3.5624997 -1.00782,0.3164062 c -0.45703,0.1523438 -0.80859,0.2109375 -1.40625,0.28125 -0.0469,0 -0.11718,0.011719 -0.21093,0.023437 v 0.515625 l 0.64453,0.046875 c 0.32812,0.023437 0.375,0.1523438 0.375,1.0078125 v 3.140625 c 0,0.77343754 -0.082,0.87890629 -0.52735,0.91406254 l -0.49218,0.0234375 v 0.5390625 L 129.23669,2.34375e-5 c 0.28125,0 0.97265,0.0117187525 1.93359,0.0468750025 v -0.5390625 l -0.5039,-0.0234375 c -0.44532,-0.0351563 -0.51563,-0.140625 -0.51563,-0.91406254 v -5.2382812 z m -0.77344,-3.3632817 c -0.6211,0 -1.10156,0.4570317 -1.10156,1.0546879 0,0.609375 0.48046,1.0898438 1.07812,1.0898438 0.58594,0 1.07813,-0.4804688 1.07813,-1.0664063 0,-0.5976562 -0.46875,-1.0781254 -1.05469,-1.0781254 z m 8.02148,5.8593754 c 0.0937,-0.9140625 0.16406,-1.3828125 0.29297,-2.015625 l -0.10547,-0.1875 c -0.65625,-0.234375 -0.96094,-0.2929687 -1.47656,-0.2929687 -0.53906,0 -0.94922,0.1054687 -1.28906,0.3046875 l -0.75,0.4453125 c -1.27735,0.7617187 -1.73438,1.4765625 -1.73438,2.7304687 0,2.2734375 1.13672,3.52734379 3.1875,3.52734379 0.71485,0 1.25391,-0.12890625 1.92188,-0.4921875 l 0.30468,-0.65625 -0.1289,-0.14062499 c -0.49219,0.19921874 -0.8086,0.26953124 -1.21875,0.26953124 -1.40625,0 -2.28516,-1.13671874 -2.28516,-2.95312504 0,-1.3125 0.49219,-2.015625 1.40625,-2.015625 0.64453,0 1.21875,0.2929688 1.26563,0.6210938 l 0.0937,0.8554687 z m 5.07129,3.30468754 -0.0703,0.890625 0.0703,0.1171875 c 0.89063,-0.03515625 1.13672,-0.0468750025 1.30078,-0.0468750025 0.17578,0 0.41016,0.0117187525 1.26563,0.0468750025 v -0.5390625 l -0.4336,-0.0351563 c -0.3164,-0.0585938 -0.38672,-0.19921875 -0.39843,-0.87890624 v -0.3046875 c -0.0117,-0.4570312 -0.0234,-0.8554687 -0.0234,-1.1953125 0,-0.3984375 0.0117,-0.8554687 0.0234,-1.3945312 0.0117,-0.1875 0.0117,-0.3164063 0.0117,-0.421875 0,-1.2773438 -0.85546,-2.0390625 -2.30859,-2.0390625 -0.59766,0 -1.18359,0.1640625 -1.72266,0.4921875 l -0.76171,0.4570312 v 0.9960938 l 0.43359,0.09375 0.31641,-0.7148438 c 0.0469,-0.09375 0.44531,-0.1992187 0.83203,-0.1992187 0.96093,0 1.41797,0.515625 1.46484,1.6875 l -1.26562,0.2578125 c -1.80469,0.375 -2.44922,0.9375 -2.44922,2.15625 0,1.16015619 0.58593,1.78124994 1.67578,1.78124994 0.3164,0 0.5625,-0.0585938 0.70312,-0.17578125 z m 0,-0.69140624 c -0.26953,0.375 -0.80859,0.6445312 -1.23047,0.6445312 -0.45703,0 -0.73828,-0.3398437 -0.73828,-0.9023437 0,-0.703125 0.30469,-0.984375 1.32422,-1.265625 l 0.64453,-0.1640625 z m 0,0"
         style="fill:#000000;fill-opacity:1;fill-rule:nonzero;stroke:#000000;stroke-width:0.751181;stroke-dasharray:none;stroke-opacity:1" />
      <path
         id="path122"
         d="m 5.7181328,34.189477 c 0,-0.65625 0.070312,-1.242188 0.2109375,-1.757813 -0.5742187,-0.351562 -1.078125,-0.503906 -1.6640625,-0.503906 -0.6914062,0 -1.5,0.269531 -2.3554687,0.820312 -1.00781254,0.632813 -1.53515629,1.628907 -1.53515629,2.894532 0,1.933593 1.35937499,3.292968 3.28124999,3.292968 0.75,0 1.828125,-0.269531 1.96875,-0.480468 L 5.9290703,37.99807 5.7767266,37.775414 c -0.5273438,0.292969 -0.984375,0.421875 -1.5,0.421875 -1.59375,0 -2.6367188,-1.230469 -2.6367188,-3.128906 0,-1.535156 0.7148438,-2.390625 2.0039063,-2.390625 0.6328125,0 1.3242187,0.28125 1.5820312,0.644531 l 0.09375,0.867188 z m 1.2363281,2.414062 c 0,0.984375 -0.035156,1.417969 -0.1523437,1.992188 0.7382812,0.246093 1.3007812,0.339843 1.9570312,0.339843 1.8867186,0 3.2226566,-0.996093 3.2226566,-2.402343 0,-0.445313 -0.128907,-0.773438 -0.410157,-1.066407 -0.375,-0.351562 -0.84375,-0.527343 -2.1093746,-0.773437 -1.171875,-0.222656 -1.5585937,-0.515625 -1.5585937,-1.171875 0,-0.714844 0.5039062,-1.125 1.3710937,-1.125 0.9609376,0 1.6992186,0.503906 1.6992186,1.183594 v 0.328125 h 0.398438 c 0.01172,-0.832032 0.03516,-1.183594 0.07031,-1.617188 -0.761719,-0.257812 -1.277344,-0.363281 -1.8632811,-0.363281 -1.6640625,0 -2.6835937,0.785156 -2.6835937,2.074219 0,0.691406 0.3164062,1.183593 0.984375,1.476562 0.3867187,0.175781 1.1367187,0.410156 2.1210938,0.621094 0.644531,0.140625 0.914062,0.445312 0.914062,0.996094 0,0.773437 -0.714843,1.3125 -1.7343746,1.3125 -1.0429687,0 -1.7929687,-0.503907 -1.7929687,-1.21875 V 36.603539 Z M 18.172234,34.189477 c 0,-0.65625 0.07031,-1.242188 0.210938,-1.757813 -0.574219,-0.351562 -1.078125,-0.503906 -1.664063,-0.503906 -0.691406,0 -1.5,0.269531 -2.355468,0.820312 -1.007813,0.632813 -1.535157,1.628907 -1.535157,2.894532 0,1.933593 1.359375,3.292968 3.28125,3.292968 0.75,0 1.828125,-0.269531 1.96875,-0.480468 l 0.304688,-0.457032 -0.152344,-0.222656 c -0.527344,0.292969 -0.984375,0.421875 -1.5,0.421875 -1.59375,0 -2.636719,-1.230469 -2.636719,-3.128906 0,-1.535156 0.714844,-2.390625 2.003907,-2.390625 0.632812,0 1.324218,0.28125 1.582031,0.644531 l 0.09375,0.867188 z m 0.75586,-5.015625 h 0.796875 c 0.257812,0 0.363281,0.152343 0.363281,0.585937 v 7.429688 c 0,0.902343 -0.04687,1.007812 -0.539062,1.03125 l -0.644532,0.04687 v 0.433593 c 0.984375,-0.03516 1.371094,-0.04687 1.78125,-0.04687 0.421875,0 0.808594,0.01172 1.78125,0.04687 v -0.433593 l -0.644531,-0.04687 c -0.492187,-0.02344 -0.527344,-0.128907 -0.527344,-1.03125 V 34.15432 c 0,-0.644531 0.9375,-1.347656 1.816407,-1.347656 0.960937,0 1.59375,0.714844 1.59375,1.816406 v 4.078125 c 0.878906,-0.04687 0.890625,-0.04687 1.136718,-0.04687 0.199219,0 0.199219,0 1.183594,0.04687 v -0.433593 l -0.585937,-0.04687 c -0.492188,-0.02344 -0.527344,-0.117188 -0.527344,-1.03125 v -2.765625 c 0,-1.675782 -0.796875,-2.496094 -2.402344,-2.496094 -0.527344,0 -0.832031,0.105469 -1.125,0.363281 l -1.089844,0.9375 v -4.875 l -0.128906,-0.117187 c -0.632812,0.246093 -1.113281,0.363281 -2.238281,0.539062 z m 0,0"
         style="fill:#000000;fill-opacity:1;fill-rule:nonzero;stroke:#000000;stroke-width:0.751181;stroke-dasharray:none;stroke-opacity:1" />
      <path
         id="path123"
         d="m 32.296258,42.240258 c 0,-0.04687 0,-0.07031 -0.246094,-0.328125 -1.875,-1.886719 -2.355469,-4.710938 -2.355469,-6.996094 0,-2.601562 0.574219,-5.203125 2.414063,-7.078125 0.1875,-0.175781 0.1875,-0.199219 0.1875,-0.246094 0,-0.105468 -0.05859,-0.152343 -0.140625,-0.152343 -0.152344,0 -1.5,1.019531 -2.378906,2.917968 -0.761719,1.640625 -0.949219,3.304688 -0.949219,4.558594 0,1.171875 0.164062,2.976563 0.996094,4.664063 0.890625,1.839843 2.179687,2.8125 2.332031,2.8125 0.08203,0 0.140625,-0.04687 0.140625,-0.152344 z m 0,0"
         style="fill:#000000;fill-opacity:1;fill-rule:nonzero;stroke:#000000;stroke-width:0.751181;stroke-dasharray:none;stroke-opacity:1" />
      <path
         id="path124"
         d="m 40.467156,37.24807 c -0.539062,0.445313 -0.878906,0.5625 -1.113281,0.5625 -0.210937,0 -0.386719,-0.04687 -0.527344,-0.316406 -0.128906,-0.269531 -0.304687,-0.878906 -0.375,-1.3125 -0.03516,-0.234375 -0.07031,-0.457031 -0.09375,-0.667969 0.421875,-0.574218 0.84375,-1.207031 1.054688,-1.523437 0.199219,-0.304688 0.738281,-1.160156 0.820312,-1.441406 -0.08203,-0.164063 -0.140625,-0.292969 -0.234375,-0.503907 -0.03516,-0.03516 -0.152343,-0.07031 -0.210937,-0.105468 -0.328125,1.195312 -0.515625,1.59375 -1.042969,2.4375 -0.05859,0.09375 -0.292969,0.445312 -0.457031,0.691406 -0.257813,-1.722656 -0.316406,-2.121094 -0.410156,-2.625 -0.128907,-0.644531 -0.527344,-0.703125 -0.832032,-0.703125 -0.316406,0.01172 -0.785156,0.257812 -1.253906,0.703125 -0.351562,0.316406 -0.621094,0.691406 -0.878906,1.136719 -0.632813,1.277343 -1.089844,2.976562 -1.089844,4.125 0,0.480468 0.210938,1.101562 0.539063,1.101562 0.5625,0 1.019531,-0.28125 1.464843,-0.609375 0.609375,-0.515625 1.253907,-1.160156 1.699219,-1.664062 0.152344,1.488281 0.585938,2.273437 1.125,2.273437 0.316406,0 0.761719,-0.234375 1.242188,-0.65625 l 0.703125,-0.632812 z m -3,-1.160156 c -0.421875,0.492188 -0.832031,0.914063 -1.195312,1.21875 -0.445313,0.375 -0.84375,0.503906 -1.101563,0.503906 -0.1875,0 -0.257812,-0.199218 -0.257812,-0.574218 0,-0.925782 0.234375,-2.472657 0.703125,-3.65625 0.1875,-0.480469 0.539062,-0.890625 0.855469,-0.890625 0.421875,0 0.574218,0.257812 0.667968,0.890625 z m 0,0"
         style="fill:#000000;fill-opacity:1;fill-rule:nonzero;stroke:#000000;stroke-width:0.751181;stroke-dasharray:none;stroke-opacity:1" />
      <path
         id="path125"
         d="m 45.764031,34.916039 c 0,-1.171875 -0.164062,-2.976562 -0.984375,-4.664062 -0.902343,-1.839844 -2.191406,-2.8125 -2.34375,-2.8125 -0.08203,0 -0.140625,0.05859 -0.140625,0.152343 0,0.04687 0,0.07031 0.28125,0.339844 1.464844,1.476563 2.320313,3.855469 2.320313,6.984375 0,2.554688 -0.550781,5.191406 -2.414063,7.078125 -0.1875,0.175781 -0.1875,0.199219 -0.1875,0.246094 0,0.09375 0.05859,0.152344 0.140625,0.152344 0.152344,0 1.5,-1.019532 2.378907,-2.917969 0.761718,-1.640625 0.949218,-3.304688 0.949218,-4.558594 z m 16.086914,-1.148437 c 0.222657,0 0.503907,0 0.503907,-0.304688 0,-0.292969 -0.28125,-0.292969 -0.492188,-0.292969 h -8.953125 c -0.210937,0 -0.503906,0 -0.503906,0.292969 0,0.304688 0.292969,0.304688 0.515625,0.304688 z m 0.01172,2.894531 c 0.210938,0 0.492188,0 0.492188,-0.292969 0,-0.304687 -0.28125,-0.304687 -0.503907,-0.304687 h -8.929687 c -0.222656,0 -0.515625,0 -0.515625,0.304687 0,0.292969 0.292969,0.292969 0.503906,0.292969 z m 0,0"
         style="fill:#000000;fill-opacity:1;fill-rule:nonzero;stroke:#000000;stroke-width:0.751181;stroke-dasharray:none;stroke-opacity:1" />
      <path
         id="path126"
         d="m 89.530633,20.985375 h 0.140625 l 1.851562,-0.832031 c 0.01172,-0.02344 0.03516,-0.02344 0.04687,-0.02344 0.08203,0 0.117188,0.128906 0.117188,0.480469 v 6.949219 c 0,0.75 -0.164063,0.914062 -0.9375,0.949218 l -0.796875,0.04687 v 0.433594 c 2.203125,-0.04687 2.203125,-0.04687 2.355469,-0.04687 0.1875,0 0.503906,0 0.996093,0.01172 0.175782,0.01172 0.667969,0.01172 1.265625,0.03516 V 28.55569 l -0.75,-0.04687 c -0.785156,-0.03516 -0.9375,-0.199218 -0.9375,-0.949218 V 19.0635 l -0.199218,-0.07031 c -0.925782,0.480469 -1.945313,0.914063 -3.257813,1.371094 z m 0,0"
         style="fill:#000000;fill-opacity:1;fill-rule:nonzero;stroke:#000000;stroke-width:0.751181;stroke-dasharray:none;stroke-opacity:1" />
    </g>
    <path
       id="path127"
       d="M 0,0 H 47.199"
       style="fill:none;stroke:#000000;stroke-width:0.751181;stroke-linecap:butt;stroke-linejoin:miter;stroke-miterlimit:10;stroke-dasharray:none;stroke-opacity:1"
       transform="matrix(1.3333333,0,0,-1.3333333,1107.5013,513.09067)" />
    <g
       id="g127"
       aria-label="sinh(α)&#10;=&#10;2"
       transform="matrix(1.3333333,0,0,1.3333333,1107.5013,530.99467)"
       style="stroke:#000000;stroke-width:0.751181;stroke-dasharray:none;stroke-opacity:1">
      <path
         id="path128"
         d="m 0.5849375,-2.0497109 c 0,0.984375 -0.0351563,1.41796871 -0.15234375,1.99218746 C 1.170875,0.18857031 1.733375,0.28232031 2.389625,0.28232031 c 1.8867188,0 3.2226563,-0.99609375 3.2226563,-2.40234371 0,-0.4453125 -0.1289063,-0.7734375 -0.4101563,-1.0664063 -0.375,-0.3515625 -0.84375,-0.5273437 -2.109375,-0.7734375 -1.171875,-0.2226562 -1.5585937,-0.515625 -1.5585937,-1.171875 0,-0.7148437 0.5039062,-1.125 1.3710937,-1.125 0.9609375,0 1.6992188,0.5039063 1.6992188,1.1835938 v 0.328125 H 5.0029063 C 5.014625,-5.5770547 5.0380625,-5.9286172 5.0732188,-6.3622109 4.3115,-6.6200234 3.795875,-6.7254922 3.2099375,-6.7254922 c -1.6640625,0 -2.68359375,0.7851563 -2.68359375,2.0742188 0,0.6914062 0.31640625,1.1835937 0.98437505,1.4765625 0.3867187,0.1757812 1.1367187,0.4101562 2.1210937,0.6210937 0.6445313,0.140625 0.9140625,0.4453125 0.9140625,0.9960938 0,0.77343746 -0.7148437,1.31249996 -1.734375,1.31249996 -1.0429687,0 -1.7929687,-0.50390625 -1.7929687,-1.21874996 v -0.5859375 z m 8.1943359,-4.6171875 -0.1289062,-0.058594 c -0.7265625,0.3046875 -1.4765625,0.5039063 -2.2382813,0.5859375 v 0.3984375 h 0.5273438 c 0.5742187,0 0.6328125,0.1054688 0.6328125,1.0546875 v 3.2226563 c 0,0.90234371 -0.035156,1.00781246 -0.5273438,1.03124996 l -0.65625,0.046875 v 0.43359375 c 1.4296875,-0.046875 1.4296875,-0.046875 1.7929688,-0.046875 0.3515625,0 0.3515625,0 1.7929687,0.046875 v -0.43359375 l -0.6679687,-0.046875 C 8.8261484,-0.45596094 8.7792734,-0.56142969 8.7792734,-1.4637734 Z m -0.65625,-3.1875 c -0.4335937,0 -0.8085937,0.375 -0.8085937,0.8085937 0,0.4101563 0.375,0.7851563 0.796875,0.7851563 0.4101562,0 0.796875,-0.375 0.796875,-0.7851563 0,-0.4101562 -0.3867188,-0.8085937 -0.7851563,-0.8085937 z m 8.0185546,9.90234371 c 0.878906,-0.046875 0.890625,-0.046875 1.136719,-0.046875 0.199219,0 0.199219,0 1.183594,0.046875 v -0.43359375 l -0.585938,-0.046875 c -0.492187,-0.0234375 -0.527344,-0.1171875 -0.527344,-1.03124996 v -2.765625 c 0,-1.6757813 -0.796875,-2.4960938 -2.402343,-2.4960938 -0.527344,0 -0.832032,0.1054688 -1.125,0.3632813 l -1.089844,0.9375 v -1.2421875 l -0.128906,-0.058594 c -0.738282,0.3046875 -1.488282,0.5039063 -2.238282,0.5859375 v 0.3984375 h 0.527344 c 0.574219,0 0.632813,0.1054688 0.632813,1.0546875 v 3.2226563 c 0,0.90234371 -0.04687,1.00781246 -0.539063,1.03124996 l -0.644531,0.046875 v 0.43359375 c 0.984375,-0.03515625 1.371094,-0.046875 1.78125,-0.046875 0.421875,0 0.808594,0.01171875 1.78125,0.046875 v -0.43359375 l -0.644531,-0.046875 c -0.492188,-0.0234375 -0.527344,-0.12890625 -0.527344,-1.03124996 v -3.0351563 c 0,-0.6445312 0.9375,-1.3476562 1.816406,-1.3476562 0.960938,0 1.59375,0.7148437 1.59375,1.8164062 z m 2.572266,-9.52734371 h 0.796875 c 0.257812,0 0.363281,0.1523437 0.363281,0.5859375 v 7.4296875 c 0,0.90234371 -0.04687,1.00781246 -0.539062,1.03124996 l -0.644532,0.046875 v 0.43359375 c 0.984375,-0.03515625 1.371094,-0.046875 1.78125,-0.046875 0.421875,0 0.808594,0.01171875 1.78125,0.046875 v -0.43359375 l -0.644531,-0.046875 c -0.492187,-0.0234375 -0.527344,-0.12890625 -0.527344,-1.03124996 v -3.0351563 c 0,-0.6445312 0.9375,-1.3476562 1.816407,-1.3476562 0.960937,0 1.59375,0.7148437 1.59375,1.8164062 v 4.07812501 c 0.878906,-0.046875 0.890625,-0.046875 1.136718,-0.046875 0.199219,0 0.199219,0 1.183594,0.046875 v -0.43359375 l -0.585937,-0.046875 c -0.492188,-0.0234375 -0.527344,-0.1171875 -0.527344,-1.03124996 v -2.765625 c 0,-1.6757813 -0.796875,-2.4960938 -2.402344,-2.4960938 -0.527344,0 -0.832031,0.1054688 -1.125,0.3632813 l -1.089844,0.9375 v -4.8750001 l -0.128906,-0.117187 c -0.632812,0.246093 -1.113281,0.363281 -2.238281,0.5390621 z m 0,0"
         style="fill:#000000;fill-opacity:1;fill-rule:nonzero;stroke:#000000;stroke-width:0.751181;stroke-dasharray:none;stroke-opacity:1" />
      <path
         id="path129"
         d="m 32.082008,3.5870078 c 0,-0.046875 0,-0.070312 -0.246094,-0.328125 -1.875,-1.8867187 -2.355469,-4.7109375 -2.355469,-6.9960937 0,-2.6015625 0.574219,-5.203125 2.414063,-7.0781251 0.1875,-0.175781 0.1875,-0.199219 0.1875,-0.246094 0,-0.105468 -0.05859,-0.152343 -0.140625,-0.152343 -0.152344,0 -1.5,1.019531 -2.378906,2.9179683 -0.761719,1.640625 -0.949219,3.3046875 -0.949219,4.5585938 0,1.171875 0.164062,2.97656246 0.996094,4.66406246 0.890625,1.83984374 2.179687,2.81250004 2.332031,2.81250004 0.08203,0 0.140625,-0.046875 0.140625,-0.1523438 z m 0,0"
         style="fill:#000000;fill-opacity:1;fill-rule:nonzero;stroke:#000000;stroke-width:0.751181;stroke-dasharray:none;stroke-opacity:1" />
      <path
         id="path130"
         d="m 40.252906,-1.4051797 c -0.539062,0.44531251 -0.878906,0.56250001 -1.113281,0.56250001 -0.210937,0 -0.386719,-0.046875 -0.527344,-0.31640621 -0.128906,-0.2695313 -0.304687,-0.8789063 -0.375,-1.3125 -0.03516,-0.234375 -0.07031,-0.4570313 -0.09375,-0.6679688 0.421875,-0.5742187 0.84375,-1.2070312 1.054688,-1.5234375 0.199219,-0.3046875 0.738281,-1.1601562 0.820312,-1.4414062 -0.08203,-0.1640625 -0.140625,-0.2929688 -0.234375,-0.5039063 -0.03516,-0.035156 -0.152343,-0.070312 -0.210937,-0.1054687 -0.328125,1.1953125 -0.515625,1.59375 -1.042969,2.4375 -0.05859,0.09375 -0.292969,0.4453125 -0.457031,0.6914062 -0.257813,-1.7226562 -0.316406,-2.1210937 -0.410156,-2.625 -0.128907,-0.6445312 -0.527344,-0.703125 -0.832032,-0.703125 -0.316406,0.011719 -0.785156,0.2578125 -1.253906,0.703125 -0.351562,0.3164063 -0.621094,0.6914063 -0.878906,1.1367188 -0.632813,1.2773437 -1.089844,2.9765625 -1.089844,4.12499996 0,0.48046875 0.210938,1.1015625 0.539063,1.1015625 0.5625,0 1.019531,-0.28125 1.464843,-0.609375 0.609375,-0.515625 1.253907,-1.16015626 1.699219,-1.66406246 0.152344,1.48828121 0.585938,2.27343746 1.125,2.27343746 0.316406,0 0.761719,-0.234375 1.242188,-0.65625 l 0.703125,-0.63281246 z m -3,-1.1601562 c -0.421875,0.4921875 -0.832031,0.9140625 -1.195312,1.21875 -0.445313,0.37499996 -0.84375,0.50390621 -1.101563,0.50390621 -0.1875,0 -0.257812,-0.19921871 -0.257812,-0.57421871 0,-0.9257813 0.234375,-2.4726563 0.703125,-3.65625 0.1875,-0.4804688 0.539062,-0.890625 0.855469,-0.890625 0.421875,0 0.574218,0.2578125 0.667968,0.890625 z m 0,0"
         style="fill:#000000;fill-opacity:1;fill-rule:nonzero;stroke:#000000;stroke-width:0.751181;stroke-dasharray:none;stroke-opacity:1" />
      <path
         id="path131"
         d="m 45.546852,-3.7372109 c 0,-1.171875 -0.164063,-2.9765625 -0.984375,-4.6640625 -0.902344,-1.8398436 -2.191407,-2.8124996 -2.34375,-2.8124996 -0.08203,0 -0.140625,0.05859 -0.140625,0.152343 0,0.04687 0,0.07031 0.28125,0.339844 1.464843,1.4765626 2.320312,3.8554688 2.320312,6.9843751 0,2.5546875 -0.550781,5.1914062 -2.414062,7.078125 -0.1875,0.1757812 -0.1875,0.1992187 -0.1875,0.2460937 0,0.09375 0.05859,0.1523438 0.140625,0.1523438 0.152343,0 1.5,-1.0195313 2.378906,-2.91796879 0.761719,-1.640625 0.949219,-3.30468751 0.949219,-4.55859371 z M 62.834938,-14.729398 c 0.222656,0 0.503906,0 0.503906,-0.304688 0,-0.292969 -0.28125,-0.292969 -0.492188,-0.292969 h -8.953125 c -0.210937,0 -0.503906,0 -0.503906,0.292969 0,0.304688 0.292969,0.304688 0.515625,0.304688 z m 0.01172,2.894531 c 0.210938,0 0.492188,0 0.492188,-0.292969 0,-0.304687 -0.28125,-0.304687 -0.503906,-0.304687 h -8.92969 c -0.222656,0 -0.515625,0 -0.515625,0.304687 0,0.292969 0.292969,0.292969 0.503906,0.292969 z m 0,0"
         style="fill:#000000;fill-opacity:1;fill-rule:nonzero;stroke:#000000;stroke-width:0.751181;stroke-dasharray:none;stroke-opacity:1" />
      <path
         id="path132"
         d="m 91.071266,-19.882719 v 0.375 c 2.671875,-0.04687 2.671875,-0.04687 3.199218,-0.04687 0.515625,0 0.515625,0 3.28125,0.04687 -0.03516,-0.304687 -0.03516,-0.445312 -0.03516,-0.644531 0,-0.1875 0,-0.339844 0.03516,-0.644531 -1.652343,0.07031 -2.308593,0.08203 -4.96875,0.140625 l 2.613282,-2.765625 c 1.394531,-1.488282 1.828125,-2.273438 1.828125,-3.351563 0,-1.640625 -1.125,-2.660156 -2.941407,-2.660156 -1.042968,0 -1.734375,0.28125 -2.4375,0.996094 l -0.246093,1.957031 h 0.410156 l 0.1875,-0.65625 c 0.234375,-0.832031 0.75,-1.195313 1.710937,-1.195313 1.230469,0 2.015625,0.773438 2.015625,1.992188 0,1.078125 -0.597656,2.132812 -2.214843,3.855469 z m 0,0"
         style="fill:#000000;fill-opacity:1;fill-rule:nonzero;stroke:#000000;stroke-width:0.751181;stroke-dasharray:none;stroke-opacity:1" />
    </g>
    <path
       id="path133"
       d="M 0,0 H 49.77"
       style="fill:none;stroke:#000000;stroke-width:0.751181;stroke-linecap:butt;stroke-linejoin:miter;stroke-miterlimit:10;stroke-dasharray:none;stroke-opacity:1"
       transform="matrix(1.3333333,0,0,-1.3333333,1200.22,513.09067)" />
    <g
       id="g133"
       aria-label="e&#10;α&#10;−e&#10;−α"
       transform="matrix(1.3333333,0,0,1.3333333,1200.4587,530.99467)"
       style="stroke:#000000;stroke-width:0.751181;stroke-dasharray:none;stroke-opacity:1">
      <path
         id="path134"
         d="m 4.6979922,-1.5926797 -0.3398438,0.2460938 c -0.7617187,0.53906246 -1.453125,0.83203121 -1.96875,0.83203121 -0.6679687,0 -1.0898437,-0.52734371 -1.0898437,-1.39453121 0,-0.3515625 0.046875,-0.7382813 0.1171875,-1.1601563 l 1.1835937,-0.28125 c 0.234375,-0.058594 0.6210938,-0.2109375 0.984375,-0.3632812 1.21875,-0.5273438 1.78125,-1.1953125 1.78125,-2.0742188 0,-0.6796875 -0.4921875,-1.125 -1.2070312,-1.125 -0.9375,0 -2.5195313,0.984375 -3.0820313,1.9101563 -0.43359371,0.7148437 -0.86718746,2.4257812 -0.86718746,3.3867187 0,1.11328126 0.6328125,1.76953126 1.66406246,1.76953126 0.8203125,0 1.6289063,-0.3984375 2.9414063,-1.47656246 z M 1.6159609,-3.9247109 c 0.2460938,-0.9960938 0.5390625,-1.6054688 0.9492188,-1.9804688 0.2578125,-0.234375 0.703125,-0.4101562 1.0429687,-0.4101562 0.421875,0 0.6914063,0.2929687 0.6914063,0.75 0,0.6328125 -0.5039063,1.3007812 -1.2421875,1.6640625 -0.4101563,0.1992187 -0.9257813,0.3632812 -1.5703125,0.5039062 z m 0,0"
         style="fill:#000000;fill-opacity:1;fill-rule:nonzero;stroke:#000000;stroke-width:0.751181;stroke-dasharray:none;stroke-opacity:1" />
      <path
         id="path135"
         d="m 10.712641,-5.1200234 c -0.363282,0.3046875 -0.609375,0.3867187 -0.7617191,0.3867187 -0.1523438,0 -0.2695313,-0.035156 -0.375,-0.2226562 -0.082031,-0.1875 -0.1992188,-0.609375 -0.2578125,-0.9023438 -0.023437,-0.1757812 -0.046875,-0.3164062 -0.070312,-0.46875 0.3046875,-0.3984375 0.5859375,-0.84375 0.7382812,-1.0546875 0.1406254,-0.2109375 0.5156254,-0.8085937 0.5742184,-1.0078125 -0.05859,-0.1054687 -0.105468,-0.1992187 -0.164063,-0.3515625 -0.02344,-0.023437 -0.105468,-0.046875 -0.152343,-0.070312 -0.222657,0.8320313 -0.3515624,1.1132813 -0.7265624,1.6992188 -0.035156,0.058594 -0.1992187,0.3046875 -0.3164062,0.46875 -0.1757813,-1.1953125 -0.2226563,-1.4648438 -0.28125,-1.8164063 -0.082031,-0.4453125 -0.3632813,-0.4921875 -0.5742188,-0.4921875 -0.2226562,0.011719 -0.5507812,0.1875 -0.8789062,0.4921875 -0.234375,0.2226563 -0.421875,0.4804688 -0.609375,0.7851563 -0.4335938,0.890625 -0.75,2.0742187 -0.75,2.8710937 0,0.328125 0.140625,0.7617188 0.375,0.7617188 0.3867187,0 0.703125,-0.1992188 1.0195312,-0.421875 0.4101563,-0.3632813 0.8671875,-0.8085938 1.171875,-1.1601563 0.1054688,1.0429688 0.4101563,1.5820313 0.7851563,1.5820313 0.2226562,0 0.5273437,-0.1640625 0.8554691,-0.4570313 l 0.492188,-0.4335937 z M 8.6384219,-5.9286172 c -0.2929688,0.3398438 -0.5859375,0.6328125 -0.8320313,0.84375 -0.3046875,0.2578125 -0.5859375,0.3515625 -0.7617187,0.3515625 -0.1289063,0 -0.1875,-0.140625 -0.1875,-0.3984375 0,-0.6445312 0.1640625,-1.7109375 0.4921875,-2.5429687 0.1289062,-0.328125 0.375,-0.6210938 0.5976562,-0.6210938 0.2929688,0 0.3984375,0.1875 0.4570313,0.6210938 z m 0,0"
         style="fill:#000000;fill-opacity:1;fill-rule:nonzero;stroke:#000000;stroke-width:0.751181;stroke-dasharray:none;stroke-opacity:1" />
      <path
         id="path136"
         d="m 24.5935,-3.4325234 c 0.257812,0 0.527344,0 0.527344,-0.3046875 0,-0.3046875 -0.269532,-0.3046875 -0.527344,-0.3046875 h -8.085938 c -0.257812,0 -0.527343,0 -0.527343,0.3046875 0,0.3046875 0.269531,0.3046875 0.527343,0.3046875 z m 0,0"
         style="fill:#000000;fill-opacity:1;fill-rule:nonzero;stroke:#000000;stroke-width:0.751181;stroke-dasharray:none;stroke-opacity:1" />
      <path
         id="path137"
         d="m 34.202875,-1.5926797 -0.339844,0.2460938 c -0.761719,0.53906246 -1.453125,0.83203121 -1.96875,0.83203121 -0.667969,0 -1.089844,-0.52734371 -1.089844,-1.39453121 0,-0.3515625 0.04687,-0.7382813 0.117188,-1.1601563 l 1.183594,-0.28125 c 0.234375,-0.058594 0.621093,-0.2109375 0.984375,-0.3632812 1.21875,-0.5273438 1.78125,-1.1953125 1.78125,-2.0742188 0,-0.6796875 -0.492188,-1.125 -1.207032,-1.125 -0.9375,0 -2.519531,0.984375 -3.082031,1.9101563 -0.433594,0.7148437 -0.867187,2.4257812 -0.867187,3.3867187 0,1.11328126 0.632812,1.76953126 1.664062,1.76953126 0.820313,0 1.628906,-0.3984375 2.941406,-1.47656246 z m -3.082031,-2.3320312 c 0.246093,-0.9960938 0.539062,-1.6054688 0.949218,-1.9804688 0.257813,-0.234375 0.703125,-0.4101562 1.042969,-0.4101562 0.421875,0 0.691406,0.2929687 0.691406,0.75 0,0.6328125 -0.503906,1.3007812 -1.242187,1.6640625 -0.410156,0.1992187 -0.925781,0.3632812 -1.570313,0.5039062 z m 0,0"
         style="fill:#000000;fill-opacity:1;fill-rule:nonzero;stroke:#000000;stroke-width:0.751181;stroke-dasharray:none;stroke-opacity:1" />
      <path
         id="path138"
         d="m 42.233148,-6.5379922 c 0.175782,0 0.363282,0 0.363282,-0.2109375 0,-0.1992187 -0.1875,-0.1992187 -0.363282,-0.1992187 h -5.613281 c -0.1875,0 -0.363281,0 -0.363281,0.1992187 0,0.2109375 0.175781,0.2109375 0.363281,0.2109375 z m 0,0"
         style="fill:#000000;fill-opacity:1;fill-rule:nonzero;stroke:#000000;stroke-width:0.751181;stroke-dasharray:none;stroke-opacity:1" />
      <path
         id="path139"
         d="m 48.534906,-5.1200234 c -0.363281,0.3046875 -0.609375,0.3867187 -0.761719,0.3867187 -0.152343,0 -0.269531,-0.035156 -0.375,-0.2226562 -0.08203,-0.1875 -0.199218,-0.609375 -0.257812,-0.9023438 -0.02344,-0.1757812 -0.04687,-0.3164062 -0.07031,-0.46875 0.304688,-0.3984375 0.585938,-0.84375 0.738282,-1.0546875 0.140625,-0.2109375 0.515625,-0.8085937 0.574218,-1.0078125 -0.05859,-0.1054687 -0.105468,-0.1992187 -0.164062,-0.3515625 -0.02344,-0.023437 -0.105469,-0.046875 -0.152344,-0.070312 -0.222656,0.8320313 -0.351562,1.1132813 -0.726562,1.6992188 -0.03516,0.058594 -0.199219,0.3046875 -0.316407,0.46875 -0.175781,-1.1953125 -0.222656,-1.4648438 -0.28125,-1.8164063 -0.08203,-0.4453125 -0.363281,-0.4921875 -0.574218,-0.4921875 -0.222657,0.011719 -0.550782,0.1875 -0.878907,0.4921875 -0.234375,0.2226563 -0.421875,0.4804688 -0.609375,0.7851563 -0.433593,0.890625 -0.75,2.0742187 -0.75,2.8710937 0,0.328125 0.140625,0.7617188 0.375,0.7617188 0.386719,0 0.703125,-0.1992188 1.019532,-0.421875 0.410156,-0.3632813 0.867187,-0.8085938 1.171875,-1.1601563 0.105468,1.0429688 0.410156,1.5820313 0.785156,1.5820313 0.222656,0 0.527344,-0.1640625 0.855469,-0.4570313 l 0.492187,-0.4335937 z m -2.074219,-0.8085938 c -0.292968,0.3398438 -0.585937,0.6328125 -0.832031,0.84375 -0.304687,0.2578125 -0.585937,0.3515625 -0.761719,0.3515625 -0.128906,0 -0.1875,-0.140625 -0.1875,-0.3984375 0,-0.6445312 0.164063,-1.7109375 0.492188,-2.5429687 0.128906,-0.328125 0.375,-0.6210938 0.597656,-0.6210938 0.292969,0 0.398438,0.1875 0.457031,0.6210938 z m 0,0"
         style="fill:#000000;fill-opacity:1;fill-rule:nonzero;stroke:#000000;stroke-width:0.751181;stroke-dasharray:none;stroke-opacity:1" />
    </g>
  </g>
</svg>
