<?xml version="1.0" encoding="UTF-8" standalone="no"?>
<!-- Created with Inkscape (http://www.inkscape.org/) -->

<svg
   version="1.1"
   id="svg1"
   width="333.96225"
   height="30.188679"
   viewBox="0 0 333.96225 30.188679"
   sodipodi:docname="10.pdf"
   inkscape:export-batch-path="Akemicos\Akdemicos-Front\public"
   inkscape:export-batch-name="cuadratica"
   xmlns:inkscape="http://www.inkscape.org/namespaces/inkscape"
   xmlns:sodipodi="http://sodipodi.sourceforge.net/DTD/sodipodi-0.dtd"
   xmlns="http://www.w3.org/2000/svg"
   xmlns:svg="http://www.w3.org/2000/svg">
  <defs
     id="defs1">
    <clipPath
       clipPathUnits="userSpaceOnUse"
       id="clipPath1798">
      <rect
         style="fill:#000000;fill-opacity:1;stroke:#000000;stroke-width:1.3;stroke-dasharray:none;stroke-opacity:1"
         id="rect1799"
         width="333.96225"
         height="30.188679"
         x="109.43396"
         y="874.21381" />
    </clipPath>
  </defs>
  <sodipodi:namedview
     id="namedview1"
     pagecolor="#ffffff"
     bordercolor="#000000"
     borderopacity="0.25"
     inkscape:showpageshadow="2"
     inkscape:pageopacity="0.0"
     inkscape:pagecheckerboard="0"
     inkscape:deskcolor="#d1d1d1">
    <inkscape:page
       x="0"
       y="0"
       width="333.96225"
       height="30.188679"
       id="page1"
       margin="0"
       bleed="0" />
  </sodipodi:namedview>
  <g
     id="g1"
     inkscape:groupmode="layer"
     inkscape:label="1"
     clip-path="url(#clipPath1798)"
     style="stroke:#000000;stroke-opacity:1"
     transform="translate(-109.43396,-874.21381)">
    <path
       id="path1592"
       d="m 107.36,868.79999 h 348.8 v 41.91998 h -348.8 z"
       style="fill:#ffffff;fill-opacity:1;fill-rule:nonzero;stroke:#000000;stroke-opacity:1" />
    <path
       id="path1593"
       d="m 0,0 c 0,0.16 0,0.16 0,0.32 0,0.8 0.64,1.44 1.44,1.44 1.92,0 4.01,-2.24 5.13,-5.6 l 2.56,-8.17 -0.16,-0.16 c -0.64,0.16 -0.96,0.32 -1.44,0.32 l -0.64,2.4 c -0.16,0.96 -0.8,2.24 -1.44,3.2 -0.65,0.96 -1.61,1.77 -1.93,1.77 -0.32,0 -0.48,-0.49 -0.48,-0.97 L 3.2,-5.61 3.36,-9.29 c 0.16,-0.48 0.16,-1.12 0.16,-1.76 0,-0.8 -0.16,-1.12 -0.48,-1.12 -0.16,0 -0.48,0.16 -1.44,0.8 l -1.44,0.96 0.16,0.32 0.96,-0.48 0.16,-0.16 c 0.16,0 0.16,-0.16 0.32,-0.16 0.32,0 0.32,0.48 0.32,0.96 0,0 0,0.16 0,0.32 l -0.32,4.48 v 0.65 c 0,0.8 0.32,1.44 0.8,1.44 0.64,0 2.24,-1.6 3.69,-3.69 l -0.96,3.21 c -0.97,3.2 -1.93,4.48 -3.21,4.48 -0.64,0 -1.12,-0.48 -1.12,-1.12 0,0 0,-0.16 0.16,-0.32 L 0.8,-0.64 Z"
       style="fill:#000000;fill-opacity:1;fill-rule:nonzero;stroke:#000000;stroke-opacity:1"
       transform="translate(118.16,898.15002)" />
    <path
       id="path1594"
       d="M 0,0 C 0.17,0 0.65,0 0.65,-0.32 0.65,-0.64 0.17,-0.64 0,-0.64 h -11.54 c -0.16,0 -0.64,0 -0.64,0.32 0,0.32 0.48,0.32 0.64,0.32 z m 0,3.68 c 0.17,0 0.65,0 0.65,-0.32 C 0.65,3.04 0.17,3.04 0,3.04 h -11.54 c -0.16,0 -0.64,0 -0.64,0.32 0,0.32 0.48,0.32 0.64,0.32 z"
       style="fill:#000000;fill-opacity:1;fill-rule:nonzero;stroke:#000000;stroke-opacity:1"
       transform="translate(146.2,888.53998)" />
    <path
       id="path1595"
       d="M 0,0 C 0,-0.32 0.16,-0.64 0.32,-0.96 L 0.16,-1.12 0,-0.96 c -0.32,0 -0.64,0 -1.44,0 h -0.32 l 0.32,-2.08 c 0.32,-1.45 0.8,-2.25 1.76,-2.25 0.48,0 0.96,0.32 1.28,0.8 l 0.16,-0.16 c 0.16,-0.32 0.32,-0.8 0.48,-1.12 V -6.09 C 1.92,-6.25 1.44,-6.41 0.96,-6.41 0.8,-6.41 0.48,-6.25 0.32,-6.25 0,-6.09 -1.6,-4.97 -1.92,-4.49 -2.4,-4.01 -2.56,-3.53 -2.88,-2.4 l -0.16,1.44 c -0.81,0.32 -1.13,0.48 -1.61,0.64 L -4.81,0 h 1.44 l -0.16,1.12 c -0.48,3.52 -1.12,7.05 -1.6,8.17 -0.32,1.12 -0.8,1.76 -1.44,1.76 -0.48,0 -0.64,-0.16 -0.96,-0.64 l -0.32,0.16 c 0,0.48 -0.32,1.28 -0.48,1.44 0.16,0.16 0.48,0.16 0.64,0.16 0.8,0 1.76,-0.64 2.56,-1.44 1.12,-1.28 1.44,-2.56 2.89,-8.97 0,-0.32 0.16,-0.96 0.32,-1.76 z"
       style="fill:#000000;fill-opacity:1;fill-rule:nonzero;stroke:#000000;stroke-opacity:1"
       transform="translate(161.11,887.73999)" />
    <path
       id="path1596"
       d="m 0,0 c 0,0 0,-0.16 -0.32,-0.48 -2.41,-2.4 -3.05,-5.93 -3.05,-8.81 0,-3.36 0.64,-6.73 3.05,-9.13 C 0,-18.58 0,-18.74 0,-18.74 c 0,-0.16 -0.16,-0.16 -0.16,-0.16 -0.32,0 -1.93,1.279999 -3.05,3.68 -1.12,2.09 -1.28,4.33 -1.28,5.93 0,1.44 0.16,3.69 1.28,5.93 1.12,2.24 2.73,3.52 3.05,3.52 0,0 0.16,0 0.16,-0.16 z"
       style="fill:#000000;fill-opacity:1;fill-rule:nonzero;stroke:#000000;stroke-opacity:1"
       transform="translate(170.25,899.42999)" />
    <path
       id="path1597"
       d="m 0,0 c 0,0.49 -0.16,0.65 -0.16,1.29 0,0.16 -0.16,0.16 -0.16,0.32 0.32,0.16 0.64,0.32 0.8,0.32 0.64,0 1.28,-0.64 1.92,-1.44 l 1.45,-2.09 0.16,1.12 c 0.16,1.61 0.64,2.41 1.28,2.41 0.48,0 0.96,-0.32 1.6,-0.96 L 7.85,0.17 7.69,-0.16 C 7.05,0.49 6.57,0.65 6.25,0.65 5.93,0.65 5.77,0.49 5.45,0.17 5.29,-0.16 5.13,-0.96 5.13,-1.44 L 4.81,-3.2 5.45,-4.16 c 0.8,-1.28 1.28,-1.6 1.92,-1.6 0.16,0 0.48,0.16 0.48,0.32 h 0.32 l 0.33,-1.6 c -0.33,0 -0.49,-0.16 -0.65,-0.16 -0.64,0 -1.44,0.64 -2.56,2.4 L 4.65,-3.84 4.49,-4.64 C 4.33,-6.56 3.85,-7.2 2.73,-7.2 2.24,-7.2 1.76,-7.04 1.6,-6.72 l -0.96,1.44 0.32,0.16 c 0.48,-0.64 0.8,-0.8 1.28,-0.8 0.49,0 0.97,0.64 1.29,2.56 l 0.16,1.12 -0.8,1.12 C 2.24,0.17 1.6,0.65 0.96,0.65 0.8,0.65 0.48,0.65 0.48,0.49 L 0.32,0 Z"
       style="fill:#000000;fill-opacity:1;fill-rule:nonzero;stroke:#000000;stroke-opacity:1"
       transform="translate(172.49,893.17999)" />
    <path
       id="path1598"
       d="m 0,0 c 0,-1.6 -0.16,-3.84 -1.29,-6.09 -1.12,-2.24 -2.72,-3.52 -2.88,-3.52 -0.16,0 -0.32,0 -0.32,0.16 0,0 0,0.16 0.48,0.48 1.76,1.92 2.88,4.97 2.88,8.97 0,3.2 -0.64,6.57 -3.04,8.97 -0.32,0.16 -0.32,0.32 -0.32,0.32 0,0.16 0.16,0.16 0.32,0.16 0.16,0 1.76,-1.28 3.04,-3.68 C -0.16,3.69 0,1.6 0,0 Z"
       style="fill:#000000;fill-opacity:1;fill-rule:nonzero;stroke:#000000;stroke-opacity:1"
       transform="translate(187.39999,890.14001)" />
    <path
       id="path1599"
       d="M 0,0 C 0.32,0 0.64,0 0.64,-0.32 0.64,-0.64 0.32,-0.64 0,-0.64 h -11.38 c -0.32,0 -0.64,0 -0.64,0.32 0,0.32 0.32,0.32 0.64,0.32 z m 0,3.68 c 0.32,0 0.64,0 0.64,-0.32 C 0.64,3.04 0.32,3.04 0,3.04 h -11.38 c -0.32,0 -0.64,0 -0.64,0.32 0,0.32 0.32,0.32 0.64,0.32 z"
       style="fill:#000000;fill-opacity:1;fill-rule:nonzero;stroke:#000000;stroke-opacity:1"
       transform="translate(207.91,888.53998)" />
    <path
       id="path1600"
       d="M 0,0 -0.16,-0.16 -0.8,0.16 C -1.6,0 -1.92,-0.16 -2.41,-0.16 c -0.48,0 -0.8,0.16 -1.44,0.32 -1.12,0.64 -1.6,1.12 -2.08,2.08 -0.8,1.6 -1.44,3.84 -1.44,5.29 0,0.8 0.32,1.44 0.64,1.44 0.48,0 1.12,-0.48 1.76,-1.12 0.8,-0.64 1.6,-1.45 2.56,-2.89 l -0.64,2.41 c 0,0.16 0,0.64 0,0.8 0,0.48 0.16,0.64 0.32,0.64 0.48,0 1.29,-0.48 2.73,-1.6 L -0.16,6.72 c 0,0.16 -0.16,0.16 -0.16,0.16 -0.64,0.65 -0.8,0.81 -1.12,0.81 -0.16,0 -0.32,-0.16 -0.32,-0.48 0,-0.17 0,-0.17 0,-0.17 z M -1.6,1.12 C -1.92,3.04 -2.25,4 -2.89,4.96 c -1.12,1.6 -2.24,2.73 -2.88,2.73 -0.16,0 -0.32,-0.32 -0.32,-0.81 0,-1.12 0.64,-3.36 1.28,-4.8 0.32,-0.96 0.8,-1.28 1.6,-1.28 0.48,0 0.8,0 1.61,0.32 z"
       style="fill:#000000;fill-opacity:1;fill-rule:nonzero;stroke:#000000;stroke-opacity:1"
       transform="translate(222.98,886.14001)" />
    <path
       id="path1601"
       d="m 0,0 c 0,0.49 0,0.65 -0.16,1.29 0,0.16 0,0.16 -0.16,0.32 0.32,0.16 0.64,0.32 0.8,0.32 0.64,0 1.45,-0.64 1.93,-1.44 l 1.44,-2.09 0.16,1.12 c 0.32,1.61 0.64,2.41 1.28,2.41 0.48,0 1.12,-0.32 1.6,-0.96 L 7.86,0.17 7.7,-0.16 C 7.05,0.49 6.57,0.65 6.25,0.65 5.93,0.65 5.77,0.49 5.61,0.17 5.45,-0.16 5.13,-0.96 5.13,-1.44 L 4.81,-3.2 5.45,-4.16 c 0.8,-1.28 1.28,-1.6 1.92,-1.6 0.33,0 0.49,0.16 0.49,0.32 h 0.32 l 0.32,-1.6 c -0.32,0 -0.48,-0.16 -0.64,-0.16 -0.65,0 -1.45,0.64 -2.57,2.4 L 4.65,-3.84 4.49,-4.64 C 4.33,-6.56 3.85,-7.2 2.73,-7.2 2.25,-7.2 1.76,-7.04 1.6,-6.72 l -0.96,1.44 0.32,0.16 c 0.48,-0.64 0.8,-0.8 1.29,-0.8 0.48,0 0.96,0.64 1.28,2.56 l 0.16,1.12 -0.64,1.12 C 2.25,0.17 1.6,0.65 1.12,0.65 0.8,0.65 0.64,0.65 0.48,0.49 L 0.32,0 Z"
       style="fill:#000000;fill-opacity:1;fill-rule:nonzero;stroke:#000000;stroke-opacity:1"
       transform="translate(224.89999,893.17999)" />
    <path
       id="path1602"
       d="m 0,0 v 0.32 c 2.4,0 2.4,0 2.88,0 0.48,0 0.48,0 2.89,0 0,-0.32 0,-0.32 0,-0.64 0,-0.16 0,-0.16 0,-0.48 -1.44,0 -1.93,0 -4.33,0.16 L 3.68,-3.2 c 1.29,-1.29 1.61,-1.93 1.61,-2.89 0,-1.44 -0.96,-2.4 -2.57,-2.4 -0.96,0 -1.44,0.32 -2.08,0.96 l -0.32,1.6 H 0.8 l 0.16,-0.48 c 0.16,-0.8 0.64,-1.12 1.44,-1.12 1.12,0 1.77,0.64 1.77,1.76 0,0.96 -0.49,1.92 -1.93,3.53 z"
       style="fill:#000000;fill-opacity:1;fill-rule:nonzero;stroke:#000000;stroke-opacity:1"
       transform="translate(234.2,887.90002)" />
    <path
       id="path1603"
       d="M 0,0 H 5.45 C 5.61,0 5.93,0 5.93,-0.32 5.93,-0.8 5.61,-0.8 5.45,-0.8 H 0 v -5.29 c 0,-0.32 0,-0.64 -0.32,-0.64 -0.48,0 -0.48,0.32 -0.48,0.64 v 5.29 h -5.29 c -0.32,0 -0.64,0 -0.64,0.48 C -6.73,0 -6.41,0 -6.09,0 h 5.29 v 5.29 c 0,0.32 0,0.64 0.48,0.64 C 0,5.93 0,5.61 0,5.29 Z"
       style="fill:#000000;fill-opacity:1;fill-rule:nonzero;stroke:#000000;stroke-opacity:1"
       transform="translate(252.47,890.46002)" />
    <path
       id="path1604"
       d="m 0,0 -0.16,-0.32 c -0.97,0.48 -1.61,0.64 -2.89,0.8 l -0.16,0.48 h 0.96 c 0.32,0 0.64,0 0.64,0.32 0,0.16 -0.16,0.32 -0.16,0.48 l -1.76,10.1 c 0,0.16 0,0.16 0,0.16 0,0.8 0.8,1.44 1.76,1.44 0.8,0 1.61,-0.48 2.41,-0.96 C 2.4,11.21 3.68,8.65 3.68,6.25 3.68,5.61 3.52,4.97 3.36,4.65 3.2,4.49 2.88,4.33 2.72,4.33 2.24,4.33 1.6,4.49 1.12,4.81 0.16,5.29 -0.32,5.77 -1.61,7.21 Z m 1.6,5.45 c 0.48,0 0.8,0.32 0.8,1.28 0,1.12 -0.48,2.72 -0.96,4 -0.64,1.29 -1.28,1.77 -2.41,1.77 -0.8,0 -1.28,-0.32 -1.28,-1.13 0,-0.48 0.16,-0.96 0.32,-1.6 0.32,-1.6 0.8,-2.4 1.45,-3.2 C 0.16,5.93 1.12,5.45 1.6,5.45 Z"
       style="fill:#000000;fill-opacity:1;fill-rule:nonzero;stroke:#000000;stroke-opacity:1"
       transform="translate(267.85999,881.65002)" />
    <path
       id="path1605"
       d="M 0,0 C 0,0.49 -0.16,0.65 -0.16,1.29 -0.32,1.45 -0.32,1.45 -0.32,1.61 0,1.77 0.32,1.93 0.48,1.93 1.12,1.93 1.76,1.29 2.4,0.49 L 3.84,-1.6 4,-0.48 c 0.16,1.61 0.64,2.41 1.29,2.41 0.48,0 0.96,-0.32 1.6,-0.96 L 7.85,0.17 7.69,-0.16 C 6.89,0.49 6.57,0.65 6.25,0.65 5.93,0.65 5.77,0.49 5.45,0.17 5.29,-0.16 5.13,-0.96 5.13,-1.44 L 4.8,-3.2 5.45,-4.16 c 0.8,-1.28 1.28,-1.6 1.92,-1.6 0.16,0 0.48,0.16 0.48,0.32 h 0.32 l 0.32,-1.6 c -0.32,0 -0.48,-0.16 -0.64,-0.16 -0.64,0 -1.44,0.64 -2.56,2.4 L 4.64,-3.84 4.48,-4.64 C 4.32,-6.56 3.84,-7.2 2.72,-7.2 2.24,-7.2 1.76,-7.04 1.6,-6.72 l -0.96,1.44 0.32,0.16 c 0.48,-0.64 0.8,-0.8 1.12,-0.8 0.64,0 1.12,0.64 1.44,2.56 l 0.16,1.12 -0.8,1.12 C 2.08,0.17 1.6,0.65 0.96,0.65 0.8,0.65 0.48,0.65 0.48,0.49 L 0.32,0 Z"
       style="fill:#000000;fill-opacity:1;fill-rule:nonzero;stroke:#000000;stroke-opacity:1"
       transform="translate(273.31,893.17999)" />
    <path
       id="path1606"
       d="M 0,0 H 5.29 C 5.61,0 5.93,0 5.93,-0.32 5.93,-0.8 5.61,-0.8 5.29,-0.8 H 0 v -5.29 c 0,-0.32 0,-0.64 -0.48,-0.64 -0.32,0 -0.32,0.32 -0.32,0.64 v 5.29 h -5.45 c -0.16,0 -0.64,0 -0.64,0.48 C -6.89,0 -6.41,0 -6.25,0 h 5.45 v 5.29 c 0,0.32 0,0.64 0.32,0.64 C 0,5.93 0,5.61 0,5.29 Z"
       style="fill:#000000;fill-opacity:1;fill-rule:nonzero;stroke:#000000;stroke-opacity:1"
       transform="translate(294.14001,890.46002)" />
    <path
       id="path1607"
       d="m 0,0 h 0.32 c 0.16,-1.28 0.32,-1.92 0.48,-2.4 -0.48,-0.32 -1.12,-0.48 -1.76,-0.48 -0.8,0 -2.08,0.64 -3.2,1.6 -0.97,0.96 -1.61,2.88 -1.61,4.8 0,1.77 0.64,2.73 2.25,2.73 0.96,0 1.76,-0.48 2.72,-1.28 L 0.16,4.16 0,3.84 -0.16,4 c -1.44,0.97 -2.08,1.29 -2.72,1.29 -0.96,0 -1.61,-0.8 -1.61,-2.25 0,-1.92 0.65,-3.84 1.61,-4.48 0.32,-0.32 0.8,-0.48 1.44,-0.48 0.8,0 1.44,0.32 1.44,0.8 z"
       style="fill:#000000;fill-opacity:1;fill-rule:nonzero;stroke:#000000;stroke-opacity:1"
       transform="translate(311.45001,888.85998)" />
    <path
       id="path1608"
       d="m 0,0 c -0.48,0.16 -0.96,0.32 -1.92,0.64 0,1.29 -0.48,2.57 -1.6,4.33 l 0.32,0.16 0.64,-0.32 c 1.6,-1.92 2.24,-3.04 2.72,-4.49 z"
       style="fill:#000000;fill-opacity:1;fill-rule:nonzero;stroke:#000000;stroke-opacity:1"
       transform="translate(335.01001,892.53998)" />
    <path
       id="path1609"
       d="m 0,0 c 0,-0.96 0.17,-1.6 0.33,-2.24 -0.81,-0.48 -1.45,-0.64 -2.09,-0.64 -0.96,0 -1.92,0.32 -3.04,0.96 -1.29,0.8 -1.93,2.08 -1.93,3.68 0,2.57 1.61,4.33 4.17,4.33 0.96,0 2.24,-0.48 2.4,-0.64 L 0.33,4.81 0.17,4.49 c -0.65,0.48 -1.29,0.64 -1.93,0.64 -2.08,0 -3.36,-1.61 -3.36,-4.01 0,-2.08 0.8,-3.04 2.56,-3.04 0.8,0 1.6,0.32 1.92,0.8 L -0.48,0 Z"
       style="fill:#000000;fill-opacity:1;fill-rule:nonzero;stroke:#000000;stroke-opacity:1"
       transform="translate(364.5,889.17999)" />
    <path
       id="path1610"
       d="m 0,0 c -2.57,0 -4.49,1.76 -4.49,4.64 0,2.57 1.6,4.33 4,4.33 C 2.4,8.97 4.32,6.88 4.32,4.16 4.32,1.76 2.56,0 0,0 Z m -0.33,0.48 c 1.77,0 3.05,1.92 3.05,4.32 0,2.25 -0.96,3.53 -2.4,3.53 -1.93,0 -3.05,-1.77 -3.05,-4.33 0,-2.24 0.8,-3.52 2.4,-3.52 z"
       style="fill:#000000;fill-opacity:1;fill-rule:nonzero;stroke:#000000;stroke-opacity:1"
       transform="translate(370.44,886.29999)" />
    <path
       id="path1611"
       d="m 0,0 c 1.12,-0.16 1.12,-0.16 1.44,-0.16 0.32,0 0.32,0 1.6,0.16 V -0.64 H 2.24 C 1.6,-0.64 1.6,-0.8 1.6,-1.93 v -3.52 c 0,-2.24 -1.12,-3.2 -3.21,-3.2 -0.64,0 -0.96,0 -1.44,0.48 l -1.28,1.12 v -1.6 h -0.16 c -0.96,0.32 -1.92,0.64 -2.89,0.64 v 0.64 h 0.65 c 0.8,0 0.8,0 0.8,1.28 v 4.16 c 0,1.13 0,1.29 -0.64,1.29 H -7.38 V 0 c 1.13,-0.16 1.77,-0.16 2.25,-0.16 0.48,0 0.96,0 2.24,0.16 v -0.64 h -0.8 c -0.64,0 -0.64,-0.16 -0.64,-1.29 v -4 c 0,-0.8 1.12,-1.6 2.24,-1.6 1.29,0 2.09,0.8 2.09,2.24 z"
       style="fill:#000000;fill-opacity:1;fill-rule:nonzero;stroke:#000000;stroke-opacity:1"
       transform="translate(382.94,894.95001)" />
    <path
       id="path1612"
       d="M 0,0 -0.16,-0.16 -0.81,0.16 C -1.45,0 -1.77,-0.16 -2.41,-0.16 c -0.48,0 -0.8,0.16 -1.28,0.32 -1.12,0.64 -1.76,1.12 -2.24,2.08 -0.81,1.6 -1.29,3.84 -1.29,5.29 0,0.8 0.16,1.44 0.48,1.44 0.48,0 1.13,-0.48 1.93,-1.12 0.64,-0.64 1.44,-1.45 2.4,-2.89 l -0.48,2.41 c -0.16,0.16 -0.16,0.64 -0.16,0.8 0,0.48 0.16,0.64 0.48,0.64 0.48,0 1.12,-0.48 2.73,-1.6 L 0,6.72 c -0.16,0.16 -0.16,0.16 -0.33,0.16 -0.48,0.65 -0.8,0.81 -1.12,0.81 -0.16,0 -0.32,-0.16 -0.32,-0.48 0,-0.17 0,-0.17 0.16,-0.17 z m -1.45,1.12 c -0.48,1.92 -0.8,2.88 -1.44,3.84 -0.96,1.6 -2.08,2.73 -2.72,2.73 -0.32,0 -0.32,-0.32 -0.32,-0.81 0,-1.12 0.48,-3.36 1.12,-4.8 0.48,-0.96 0.8,-1.28 1.76,-1.28 0.48,0 0.8,0 1.6,0.32 z"
       style="fill:#000000;fill-opacity:1;fill-rule:nonzero;stroke:#000000;stroke-opacity:1"
       transform="translate(399.29001,886.14001)" />
    <path
       id="path1613"
       d="M 0,0 C 0.16,-0.32 0.16,-0.32 0.16,-0.48 0.16,-0.64 0,-0.8 -0.32,-0.8 c -0.16,0 -0.16,0.16 -0.32,0.32 L -9.3,16.34 c -0.16,0.16 -0.16,0.16 -0.16,0.32 0,0.16 0.16,0.32 0.48,0.32 0.16,0 0.16,-0.16 0.32,-0.32 z"
       style="fill:#000000;fill-opacity:1;fill-rule:nonzero;stroke:#000000;stroke-opacity:1"
       transform="translate(417.72,881.96997)" />
    <path
       id="path1614"
       d="m 0,0 c 0.32,0 0.8,0 0.8,-0.32 0,-0.32 -0.48,-0.32 -0.64,-0.32 h -11.54 c -0.32,0 -0.64,0 -0.64,0.32 0,0.32 0.32,0.32 0.64,0.32 z m 0.16,3.68 c 0.16,0 0.64,0 0.64,-0.32 C 0.8,3.04 0.32,3.04 0,3.04 h -11.38 c -0.32,0 -0.64,0 -0.64,0.32 0,0.32 0.32,0.32 0.64,0.32 z"
       style="fill:#000000;fill-opacity:1;fill-rule:nonzero;stroke:#000000;stroke-opacity:1"
       transform="translate(419.16,888.53998)" />
    <path
       id="path1615"
       d="m 0,0 c -2.88,0 -4.33,2.4 -4.33,6.73 0,2.24 0.32,4 0.97,4.97 0.64,0.8 1.76,1.44 2.88,1.44 2.72,0 4.17,-2.41 4.17,-7.21 C 3.69,1.92 2.41,0 0,0 Z m -0.32,0.64 c 1.76,0 2.4,1.93 2.4,6.25 0,4 -0.64,5.61 -2.4,5.61 -1.76,0 -2.56,-1.93 -2.56,-6.41 0,-3.85 0.8,-5.45 2.56,-5.45 z"
       style="fill:#000000;fill-opacity:1;fill-rule:nonzero;stroke:#000000;stroke-opacity:1"
       transform="translate(431.17999,882.13)" />
  </g>
</svg>
