<?xml version="1.0" encoding="UTF-8" standalone="no"?>
<!-- Created with Inkscape (http://www.inkscape.org/) -->

<svg
   version="1.1"
   id="svg1"
   width="390.4762"
   height="30.476191"
   viewBox="0 0 390.4762 30.476191"
   sodipodi:docname="11.pdf"
   inkscape:export-batch-path="Akemicos\Akdemicos-Front\public"
   inkscape:export-batch-name="cubica"
   xmlns:inkscape="http://www.inkscape.org/namespaces/inkscape"
   xmlns:sodipodi="http://sodipodi.sourceforge.net/DTD/sodipodi-0.dtd"
   xmlns="http://www.w3.org/2000/svg"
   xmlns:svg="http://www.w3.org/2000/svg">
  <defs
     id="defs1">
    <clipPath
       clipPathUnits="userSpaceOnUse"
       id="clipPath990">
      <rect
         style="fill:#000000;stroke:#000000;stroke-width:1.3"
         id="rect991"
         width="390.4762"
         height="30.476191"
         x="109.52381"
         y="232.38095" />
    </clipPath>
  </defs>
  <sodipodi:namedview
     id="namedview1"
     pagecolor="#ffffff"
     bordercolor="#000000"
     borderopacity="0.25"
     inkscape:showpageshadow="2"
     inkscape:pageopacity="0.0"
     inkscape:pagecheckerboard="0"
     inkscape:deskcolor="#d1d1d1">
    <inkscape:page
       x="0"
       y="0"
       width="390.4762"
       height="30.476191"
       id="page1"
       margin="0"
       bleed="0" />
  </sodipodi:namedview>
  <g
     id="g1"
     inkscape:groupmode="layer"
     inkscape:label="1"
     clip-path="url(#clipPath990)"
     style="stroke:#000000;stroke-opacity:1"
     transform="translate(-109.52381,-232.38095)">
    <path
       id="path126"
       d="m 107.36,227.2 h 399.2 v 41.75999 h -399.2 z"
       style="fill:#ffffff;fill-opacity:1;fill-rule:nonzero;stroke:#000000;stroke-opacity:1" />
    <path
       id="path127"
       d="m 0,0 c 0,0.16 0,0.16 0,0.32 0,0.8 0.64,1.44 1.44,1.44 1.93,0 4.01,-2.24 5.13,-5.6 l 2.57,-8.17 -0.16,-0.16 c -0.64,0.16 -0.96,0.32 -1.45,0.32 l -0.64,2.4 c -0.16,0.96 -0.8,2.24 -1.44,3.2 -0.64,0.96 -1.6,1.76 -1.92,1.76 -0.32,0 -0.48,-0.48 -0.48,-0.96 l 0.16,-0.16 0.16,-3.68 c 0.16,-0.48 0.16,-1.12 0.16,-1.76 0,-0.8 -0.16,-1.12 -0.48,-1.12 -0.16,0 -0.48,0.16 -1.45,0.8 l -1.44,0.96 0.16,0.32 0.96,-0.48 0.16,-0.16 c 0.16,0 0.16,-0.16 0.32,-0.16 0.32,0 0.32,0.48 0.32,0.96 0,0 0,0.16 0,0.32 l -0.32,4.48 v 0.64 c 0,0.81 0.32,1.45 0.81,1.45 0.64,0 2.24,-1.61 3.68,-3.69 L 5.29,-3.68 C 4.33,-0.32 3.37,0.96 2.08,0.96 1.44,0.96 0.96,0.48 0.96,-0.16 c 0,-0.16 0,-0.16 0.16,-0.48 H 0.8 Z"
       style="fill:#000000;fill-opacity:1;fill-rule:nonzero;stroke:#000000;stroke-opacity:1"
       transform="translate(118.14,256.45001)" />
    <path
       id="path128"
       d="M 0,0 C 0.16,0 0.64,0 0.64,-0.32 0.64,-0.64 0.16,-0.64 0,-0.64 h -11.54 c -0.16,0 -0.64,0 -0.64,0.32 0,0.32 0.48,0.32 0.64,0.32 z m 0,3.68 c 0.16,0 0.64,0 0.64,-0.32 C 0.64,3.04 0.16,3.04 0,3.04 h -11.54 c -0.16,0 -0.64,0 -0.64,0.32 0,0.32 0.48,0.32 0.64,0.32 z"
       style="fill:#000000;fill-opacity:1;fill-rule:nonzero;stroke:#000000;stroke-opacity:1"
       transform="translate(146.19,246.84)" />
    <path
       id="path129"
       d="M 0,0 C 0,-0.32 0.16,-0.64 0.32,-0.96 L 0.16,-1.12 H 0 c -0.32,0.16 -0.64,0.16 -1.44,0.16 h -0.33 l 0.33,-2.09 c 0.32,-1.44 0.8,-2.24 1.76,-2.24 0.48,0 0.96,0.32 1.28,0.8 l 0.16,-0.16 c 0.16,-0.32 0.32,-0.8 0.48,-1.12 v -0.32 c -0.32,-0.16 -0.8,-0.32 -1.28,-0.32 -0.16,0 -0.48,0.16 -0.64,0.16 -0.32,0.16 -1.93,1.28 -2.25,1.76 -0.48,0.48 -0.64,0.96 -0.96,2.08 l -0.16,1.45 c -0.8,0.32 -1.12,0.48 -1.6,0.64 L -4.81,0 h 1.44 l -0.16,1.12 c -0.48,3.52 -1.12,7.05 -1.6,8.17 -0.32,1.12 -0.8,1.76 -1.44,1.76 -0.48,0 -0.65,-0.16 -0.97,-0.64 l -0.32,0.16 c 0,0.32 -0.32,1.28 -0.48,1.44 0.16,0.16 0.48,0.16 0.64,0.16 0.81,0 1.77,-0.64 2.57,-1.44 1.12,-1.28 1.44,-2.56 2.88,-8.97 0,-0.32 0.16,-0.96 0.32,-1.76 z"
       style="fill:#000000;fill-opacity:1;fill-rule:nonzero;stroke:#000000;stroke-opacity:1"
       transform="translate(161.10001,246.03999)" />
    <path
       id="path130"
       d="m 0,0 c 0,0 0,-0.16 -0.32,-0.48 -2.4,-2.4 -3.04,-5.93 -3.04,-8.97 0,-3.2 0.64,-6.57 3.04,-8.97 C 0,-18.58 0,-18.74 0,-18.74 c 0,-0.16 -0.16,-0.16 -0.16,-0.16 -0.32,0 -1.92,1.279999 -3.04,3.68 -1.12,2.09 -1.28,4.17 -1.28,5.77 0,1.6 0.16,3.84 1.28,6.09 1.12,2.24 2.72,3.52 3.04,3.52 0,0 0.16,0 0.16,-0.16 z"
       style="fill:#000000;fill-opacity:1;fill-rule:nonzero;stroke:#000000;stroke-opacity:1"
       transform="translate(170.23,257.73001)" />
    <path
       id="path131"
       d="m 0,0 c 0,0.48 -0.16,0.64 -0.16,1.29 0,0.16 -0.16,0.16 -0.16,0.32 0.32,0.16 0.64,0.32 0.8,0.32 0.64,0 1.28,-0.64 1.92,-1.45 l 1.44,-2.24 0.17,1.28 c 0.16,1.61 0.64,2.41 1.28,2.41 0.48,0 0.96,-0.32 1.6,-0.97 L 7.85,0.16 7.69,-0.16 C 7.05,0.48 6.57,0.64 6.25,0.64 5.93,0.64 5.77,0.48 5.45,0.16 5.29,-0.16 5.13,-0.96 5.13,-1.44 L 4.81,-3.2 5.45,-4.16 c 0.8,-1.28 1.28,-1.6 1.92,-1.6 0.16,0 0.48,0.16 0.48,0.32 h 0.32 l 0.32,-1.6 C 8.17,-7.2 8.01,-7.2 7.85,-7.2 7.21,-7.2 6.41,-6.56 5.29,-4.8 L 4.65,-3.84 4.49,-4.64 C 4.33,-6.56 3.84,-7.2 2.72,-7.2 2.24,-7.2 1.76,-7.04 1.6,-6.72 l -0.96,1.44 0.32,0.16 c 0.48,-0.64 0.8,-0.8 1.28,-0.8 0.48,0 0.96,0.64 1.28,2.56 l 0.16,1.12 -0.8,1.12 C 2.24,0 1.6,0.64 0.96,0.64 0.8,0.64 0.48,0.64 0.48,0.48 L 0.32,0 Z"
       style="fill:#000000;fill-opacity:1;fill-rule:nonzero;stroke:#000000;stroke-opacity:1"
       transform="translate(172.48,251.48)" />
    <path
       id="path132"
       d="M 0,0 C 0,-1.44 -0.16,-3.68 -1.28,-5.93 -2.4,-8.17 -4,-9.45 -4.16,-9.45 c -0.16,0 -0.32,0 -0.32,0.16 0,0 0,0.16 0.48,0.48 1.76,1.92 2.88,4.97 2.88,8.81 0,3.36 -0.64,6.73 -3.04,9.13 -0.32,0.16 -0.32,0.32 -0.32,0.32 0,0.16 0.16,0.16 0.32,0.16 C -4,9.61 -2.4,8.33 -1.12,5.93 -0.16,3.84 0,1.76 0,0 Z"
       style="fill:#000000;fill-opacity:1;fill-rule:nonzero;stroke:#000000;stroke-opacity:1"
       transform="translate(187.38,248.28)" />
    <path
       id="path133"
       d="M 0,0 C 0.32,0 0.64,0 0.64,-0.32 0.64,-0.64 0.32,-0.64 0,-0.64 h -11.38 c -0.32,0 -0.64,0 -0.64,0.32 0,0.32 0.32,0.32 0.64,0.32 z m 0,3.68 c 0.32,0 0.64,0 0.64,-0.32 C 0.64,3.04 0.32,3.04 0,3.04 h -11.38 c -0.32,0 -0.64,0 -0.64,0.32 0,0.32 0.32,0.32 0.64,0.32 z"
       style="fill:#000000;fill-opacity:1;fill-rule:nonzero;stroke:#000000;stroke-opacity:1"
       transform="translate(207.89999,246.84)" />
    <path
       id="path134"
       d="M 0,0 -0.16,-0.16 -0.8,0.16 C -1.6,0 -1.93,-0.16 -2.41,-0.16 c -0.48,0 -0.8,0.16 -1.44,0.32 -1.12,0.64 -1.6,1.12 -2.08,2.08 -0.8,1.6 -1.44,3.84 -1.44,5.28 0,0.81 0.32,1.45 0.64,1.45 0.48,0 1.12,-0.48 1.76,-1.13 0.8,-0.64 1.6,-1.44 2.56,-2.88 l -0.64,2.4 c 0,0.16 0,0.64 0,0.81 0,0.48 0.16,0.64 0.32,0.64 0.48,0 1.29,-0.48 2.73,-1.61 L -0.16,6.72 c 0,0.16 -0.16,0.16 -0.16,0.16 -0.64,0.64 -0.8,0.8 -1.12,0.8 -0.16,0 -0.32,-0.16 -0.32,-0.48 0,-0.16 0,-0.16 0,-0.16 z M -1.6,1.12 C -1.93,3.04 -2.25,4 -2.89,4.96 c -1.12,1.6 -2.24,2.72 -2.88,2.72 -0.16,0 -0.32,-0.32 -0.32,-0.8 0,-1.12 0.64,-3.36 1.28,-4.8 0.32,-0.96 0.8,-1.28 1.6,-1.28 0.48,0 0.8,0 1.61,0.32 z"
       style="fill:#000000;fill-opacity:1;fill-rule:nonzero;stroke:#000000;stroke-opacity:1"
       transform="translate(222.97,244.44)" />
    <path
       id="path135"
       d="m 0,0 c 0,0.48 0,0.64 -0.16,1.29 0,0.16 0,0.16 -0.16,0.32 0.32,0.16 0.64,0.32 0.8,0.32 0.64,0 1.45,-0.64 1.93,-1.45 l 1.44,-2.24 0.16,1.28 c 0.32,1.61 0.64,2.41 1.28,2.41 0.48,0 1.12,-0.32 1.6,-0.97 L 7.86,0.16 7.7,-0.16 C 7.05,0.48 6.57,0.64 6.25,0.64 5.93,0.64 5.77,0.48 5.61,0.16 5.45,-0.16 5.13,-0.96 5.13,-1.44 L 4.81,-3.2 5.45,-4.16 c 0.8,-1.28 1.28,-1.6 1.92,-1.6 0.33,0 0.49,0.16 0.49,0.32 H 8.18 L 8.5,-7.04 C 8.18,-7.2 8.02,-7.2 7.86,-7.2 7.21,-7.2 6.41,-6.56 5.29,-4.8 L 4.65,-3.84 4.49,-4.64 C 4.33,-6.56 3.85,-7.2 2.73,-7.2 2.25,-7.2 1.76,-7.04 1.6,-6.72 l -0.96,1.44 0.32,0.16 c 0.48,-0.64 0.8,-0.8 1.29,-0.8 0.48,0 0.96,0.64 1.28,2.56 l 0.16,1.12 -0.64,1.12 C 2.25,0 1.6,0.64 1.12,0.64 0.8,0.64 0.64,0.64 0.48,0.48 L 0.32,0 Z"
       style="fill:#000000;fill-opacity:1;fill-rule:nonzero;stroke:#000000;stroke-opacity:1"
       transform="translate(224.89,251.48)" />
    <path
       id="path136"
       d="m 0,0 h 0.32 l 0.32,-0.64 c 0,-0.48 0.8,-0.96 1.6,-0.96 0.8,0 1.45,0.64 1.45,1.44 0,0.96 -0.81,1.76 -1.61,1.76 -0.16,0 -0.32,0 -0.48,0 H 1.44 L 1.28,2.24 V 2.4 C 1.76,2.24 2.08,2.08 2.4,2.08 c 1.13,0 1.77,0.64 1.77,1.93 0,1.28 -0.8,2.08 -2.09,2.08 C 1.6,6.09 0.96,5.93 0.64,5.61 0.32,5.29 0.16,4.97 0,4.33 L -0.48,4.49 C -0.16,5.13 0,5.61 0,6.25 0.64,6.57 1.28,6.57 1.76,6.57 2.72,6.57 4.01,6.09 4.65,5.13 5.13,4.65 5.29,4.17 5.29,3.52 5.29,2.88 4.97,2.4 4.65,2.08 4.33,1.76 4.01,1.76 3.37,1.6 4.33,0.8 4.65,0.16 4.65,-0.48 4.65,-1.6 3.85,-2.4 2.4,-2.4 c -0.96,0 -1.44,0.16 -2.08,0.8 z"
       style="fill:#000000;fill-opacity:1;fill-rule:nonzero;stroke:#000000;stroke-opacity:1"
       transform="translate(234.67,240.11)" />
    <path
       id="path137"
       d="M 0,0 H 5.45 C 5.61,0 5.93,0 5.93,-0.48 5.93,-0.8 5.61,-0.8 5.45,-0.8 H 0 v -5.29 c 0,-0.32 0,-0.64 -0.32,-0.64 -0.48,0 -0.48,0.32 -0.48,0.64 v 5.29 h -5.29 c -0.32,0 -0.64,0 -0.64,0.32 C -6.73,0 -6.41,0 -6.09,0 h 5.29 v 5.29 c 0,0.32 0,0.64 0.48,0.64 C 0,5.93 0,5.61 0,5.29 Z"
       style="fill:#000000;fill-opacity:1;fill-rule:nonzero;stroke:#000000;stroke-opacity:1"
       transform="translate(252.46001,248.75999)" />
    <path
       id="path138"
       d="m 0,0 -0.16,-0.32 c -0.96,0.48 -1.6,0.64 -2.89,0.8 l -0.16,0.48 h 0.96 c 0.32,0 0.65,0 0.65,0.32 0,0.16 -0.16,0.32 -0.16,0.48 l -1.77,10.09 c 0,0.16 0,0.16 0,0.16 0,0.81 0.8,1.45 1.77,1.45 0.8,0 1.6,-0.48 2.4,-0.97 C 2.4,11.21 3.68,8.65 3.68,6.25 3.68,5.61 3.52,4.81 3.36,4.65 3.2,4.49 2.88,4.33 2.72,4.33 2.24,4.33 1.6,4.49 1.12,4.81 0.16,5.29 -0.32,5.77 -1.6,7.21 Z m 1.6,5.45 c 0.48,0 0.8,0.32 0.8,1.28 0,1.12 -0.48,2.72 -0.96,4 -0.64,1.28 -1.28,1.76 -2.4,1.76 -0.8,0 -1.29,-0.32 -1.29,-1.12 0,-0.48 0.16,-0.96 0.32,-1.76 C -1.6,8.17 -1.12,7.37 -0.48,6.57 0.16,5.93 1.12,5.45 1.6,5.45 Z"
       style="fill:#000000;fill-opacity:1;fill-rule:nonzero;stroke:#000000;stroke-opacity:1"
       transform="translate(267.85001,239.95)" />
    <path
       id="path139"
       d="M 0,0 C 0,0.48 -0.16,0.64 -0.16,1.29 -0.32,1.45 -0.32,1.45 -0.32,1.61 0,1.77 0.32,1.93 0.48,1.93 1.12,1.93 1.76,1.29 2.4,0.48 l 1.44,-2.24 0.17,1.28 c 0.16,1.61 0.64,2.41 1.28,2.41 0.48,0 0.96,-0.32 1.6,-0.97 L 7.85,0.16 7.69,-0.16 C 6.89,0.48 6.57,0.64 6.25,0.64 5.93,0.64 5.77,0.48 5.45,0.16 5.29,-0.16 5.13,-0.96 5.13,-1.44 L 4.81,-3.2 5.45,-4.16 c 0.8,-1.28 1.28,-1.6 1.92,-1.6 0.16,0 0.48,0.16 0.48,0.32 h 0.32 l 0.32,-1.6 C 8.17,-7.2 8.01,-7.2 7.85,-7.2 7.21,-7.2 6.41,-6.56 5.29,-4.8 L 4.65,-3.84 4.49,-4.64 C 4.33,-6.56 3.84,-7.2 2.72,-7.2 2.24,-7.2 1.76,-7.04 1.6,-6.72 l -0.96,1.44 0.32,0.16 c 0.48,-0.64 0.8,-0.8 1.12,-0.8 0.64,0 1.12,0.64 1.44,2.56 l 0.16,1.12 -0.8,1.12 C 2.08,0 1.6,0.64 0.96,0.64 0.8,0.64 0.48,0.64 0.48,0.48 L 0.32,0 Z"
       style="fill:#000000;fill-opacity:1;fill-rule:nonzero;stroke:#000000;stroke-opacity:1"
       transform="translate(273.29999,251.48)" />
    <path
       id="path140"
       d="m 0,0 v 0.32 c 2.41,0 2.41,0 2.89,0 0.48,0 0.48,0 2.88,0 0,-0.32 0,-0.32 0,-0.64 0,-0.16 0,-0.16 0,-0.48 -1.44,0 -2.08,0 -4.32,0.16 l 2.24,-2.57 c 1.28,-1.28 1.6,-1.92 1.6,-2.88 0,-1.44 -0.96,-2.4 -2.56,-2.4 -0.96,0 -1.6,0.32 -2.24,0.96 l -0.16,1.6 h 0.32 l 0.16,-0.48 c 0.32,-0.8 0.8,-1.12 1.6,-1.12 1.12,0 1.76,0.64 1.76,1.76 0,0.96 -0.48,1.92 -1.92,3.52 z"
       style="fill:#000000;fill-opacity:1;fill-rule:nonzero;stroke:#000000;stroke-opacity:1"
       transform="translate(282.59,246.2)" />
    <path
       id="path141"
       d="M 0,0 H 5.29 C 5.61,0 5.93,0 5.93,-0.48 5.93,-0.8 5.61,-0.8 5.29,-0.8 H 0 v -5.29 c 0,-0.32 0,-0.64 -0.32,-0.64 -0.48,0 -0.48,0.32 -0.48,0.64 v 5.29 h -5.29 c -0.32,0 -0.64,0 -0.64,0.32 C -6.73,0 -6.41,0 -6.09,0 h 5.29 v 5.29 c 0,0.32 0,0.64 0.48,0.64 C 0,5.93 0,5.61 0,5.29 Z"
       style="fill:#000000;fill-opacity:1;fill-rule:nonzero;stroke:#000000;stroke-opacity:1"
       transform="translate(300.87,248.75999)" />
    <path
       id="path142"
       d="M 0,0 H 0.48 C 0.64,-1.28 0.8,-1.92 0.96,-2.4 0.48,-2.72 -0.16,-2.88 -0.8,-2.88 c -0.8,0 -2.25,0.64 -3.21,1.6 -1.12,0.96 -1.76,2.88 -1.76,4.8 0,1.76 0.8,2.73 2.24,2.73 0.96,0 1.93,-0.48 2.89,-1.29 L 0.32,4.16 0.16,3.84 -0.16,4 c -1.28,0.96 -1.93,1.28 -2.57,1.28 -1.12,0 -1.6,-0.8 -1.6,-2.24 0,-1.92 0.64,-3.84 1.44,-4.64 0.48,-0.16 0.96,-0.32 1.45,-0.32 0.8,0 1.44,0.32 1.44,0.8 z"
       style="fill:#000000;fill-opacity:1;fill-rule:nonzero;stroke:#000000;stroke-opacity:1"
       transform="translate(318.17999,247.16)" />
    <path
       id="path143"
       d="m 0,0 c 0,0.48 0,0.64 -0.16,1.29 0,0.16 0,0.16 0,0.32 0.16,0.16 0.48,0.32 0.8,0.32 0.48,0 1.29,-0.64 1.77,-1.45 l 1.44,-2.24 0.16,1.28 c 0.32,1.61 0.64,2.41 1.44,2.41 0.32,0 0.96,-0.32 1.44,-0.97 L 7.86,0.16 7.7,-0.16 C 7.06,0.48 6.57,0.64 6.25,0.64 5.93,0.64 5.77,0.48 5.61,0.16 5.45,-0.16 5.29,-0.96 5.13,-1.44 L 4.81,-3.2 5.45,-4.16 c 0.8,-1.28 1.28,-1.6 1.93,-1.6 0.32,0 0.48,0.16 0.64,0.32 H 8.18 L 8.5,-7.04 C 8.34,-7.2 8.18,-7.2 8.02,-7.2 c -0.8,0 -1.61,0.64 -2.73,2.4 L 4.65,-3.84 4.49,-4.64 C 4.33,-6.56 3.85,-7.2 2.73,-7.2 c -0.48,0 -0.8,0.16 -0.96,0.48 l -1.13,1.44 0.32,0.16 c 0.49,-0.64 0.97,-0.8 1.29,-0.8 0.64,0 0.96,0.64 1.28,2.56 l 0.16,1.12 -0.64,1.12 C 2.25,0 1.61,0.64 1.12,0.64 0.8,0.64 0.64,0.64 0.64,0.48 L 0.32,0 Z"
       style="fill:#000000;fill-opacity:1;fill-rule:nonzero;stroke:#000000;stroke-opacity:1"
       transform="translate(320.57999,251.48)" />
    <path
       id="path144"
       d="M 0,0 H 5.29 C 5.61,0 5.93,0 5.93,-0.48 5.93,-0.8 5.61,-0.8 5.29,-0.8 H 0 v -5.29 c 0,-0.32 0,-0.64 -0.32,-0.64 -0.48,0 -0.48,0.32 -0.48,0.64 v 5.29 h -5.29 c -0.32,0 -0.64,0 -0.64,0.32 C -6.73,0 -6.41,0 -6.09,0 h 5.29 v 5.29 c 0,0.32 0,0.64 0.48,0.64 C 0,5.93 0,5.61 0,5.29 Z"
       style="fill:#000000;fill-opacity:1;fill-rule:nonzero;stroke:#000000;stroke-opacity:1"
       transform="translate(341.42001,248.75999)" />
    <path
       id="path145"
       d="m 0,0 -0.17,-0.32 c -0.96,0.48 -1.6,0.64 -2.88,0.8 l -0.16,0.48 h 0.96 c 0.48,0 0.64,0 0.64,0.32 0,0.16 0,0.32 -0.16,0.48 L -2.25,4.65 C -2.73,4.49 -3.21,4.33 -3.69,4.33 c -1.28,0 -3.05,1.28 -3.85,2.88 -0.64,1.12 -0.96,2.88 -0.96,4.32 0,1.29 0.32,1.93 0.8,1.93 0.48,0 1.12,-0.32 1.76,-0.8 0.97,-0.81 1.61,-1.61 2.89,-3.53 l -0.48,1.76 c -0.16,0.8 -0.32,1.44 -0.32,1.93 0,0.32 0.32,0.48 0.48,0.48 0.32,0 0.8,-0.16 1.44,-0.64 l 1.44,-1.13 -0.16,-0.32 -0.8,0.64 c -0.16,0.16 -0.48,0.32 -0.64,0.32 -0.16,0 -0.32,-0.16 -0.32,-0.48 0,-0.16 0,-0.32 0.16,-0.8 z m -2.57,6.73 c -0.32,1.6 -1.28,3.2 -2.4,4.32 -0.64,0.64 -1.45,1.12 -1.77,1.12 -0.32,0 -0.48,-0.32 -0.48,-0.8 0,-2.24 0.96,-5.12 1.77,-5.92 0.32,-0.16 0.64,-0.16 1.12,-0.16 0.8,0 1.28,0 1.92,0.32 z"
       style="fill:#000000;fill-opacity:1;fill-rule:nonzero;stroke:#000000;stroke-opacity:1"
       transform="translate(361.29999,239.95)" />
    <path
       id="path146"
       d="m 0,0 c -0.49,0.16 -0.81,0.32 -1.93,0.64 0,1.29 -0.48,2.57 -1.6,4.33 l 0.32,0.16 0.64,-0.32 c 1.6,-1.92 2.25,-3.04 2.73,-4.49 z"
       style="fill:#000000;fill-opacity:1;fill-rule:nonzero;stroke:#000000;stroke-opacity:1"
       transform="translate(384.06,250.84)" />
    <path
       id="path147"
       d="m 0,0 c 0,-0.96 0.16,-1.6 0.32,-2.24 -0.8,-0.48 -1.44,-0.64 -2.08,-0.64 -0.97,0 -1.93,0.32 -3.05,0.96 -1.28,0.8 -1.92,2.08 -1.92,3.68 0,2.56 1.76,4.33 4.16,4.33 0.97,0 2.25,-0.48 2.57,-0.64 L 0.32,4.8 0.16,4.48 c -0.64,0.48 -1.28,0.65 -1.92,0.65 -2.09,0 -3.37,-1.61 -3.37,-4.01 0,-2.08 0.8,-3.04 2.56,-3.04 0.81,0 1.61,0.32 1.93,0.8 L -0.48,0 Z"
       style="fill:#000000;fill-opacity:1;fill-rule:nonzero;stroke:#000000;stroke-opacity:1"
       transform="translate(413.54999,247.48)" />
    <path
       id="path148"
       d="m 0,0 c -2.56,0 -4.48,1.76 -4.48,4.49 0,2.72 1.6,4.48 4,4.48 2.89,0 4.81,-2.08 4.81,-4.8 C 4.33,1.76 2.57,0 0,0 Z m -0.32,0.48 c 1.77,0 3.05,1.93 3.05,4.33 0,2.24 -0.96,3.52 -2.41,3.52 -1.92,0 -3.04,-1.76 -3.04,-4.32 0,-2.25 0.8,-3.53 2.4,-3.53 z"
       style="fill:#000000;fill-opacity:1;fill-rule:nonzero;stroke:#000000;stroke-opacity:1"
       transform="translate(419.48001,244.60001)" />
    <path
       id="path149"
       d="m 0,0 c 1.12,-0.16 1.12,-0.16 1.44,-0.16 0.32,0 0.32,0 1.61,0.16 V -0.64 H 2.25 C 1.6,-0.64 1.6,-0.81 1.6,-1.93 v -3.52 c 0,-2.24 -1.12,-3.2 -3.04,-3.2 -0.8,0 -1.12,0 -1.6,0.32 l -1.29,1.28 v -1.6 h -0.16 c -0.96,0.32 -1.92,0.64 -2.88,0.64 v 0.64 h 0.64 c 0.8,0 0.8,0 0.8,1.28 v 4.16 c 0,1.12 0,1.29 -0.64,1.29 h -0.8 V 0 c 1.28,-0.16 1.76,-0.16 2.24,-0.16 0.48,0 0.96,0 2.25,0.16 v -0.64 h -0.81 c -0.64,0 -0.64,-0.17 -0.64,-1.29 v -4 c 0,-0.8 1.13,-1.6 2.25,-1.6 1.28,0 2.08,0.8 2.08,2.24 z"
       style="fill:#000000;fill-opacity:1;fill-rule:nonzero;stroke:#000000;stroke-opacity:1"
       transform="translate(431.98001,253.25)" />
    <path
       id="path150"
       d="M 0,0 -0.16,-0.16 -0.8,0.16 C -1.44,0 -1.76,-0.16 -2.24,-0.16 c -0.64,0 -0.97,0.16 -1.45,0.32 -1.12,0.64 -1.76,1.12 -2.24,2.08 -0.8,1.6 -1.28,3.84 -1.28,5.28 0,0.81 0.16,1.45 0.64,1.45 0.32,0 0.96,-0.48 1.76,-1.13 0.8,-0.64 1.44,-1.44 2.41,-2.88 l -0.48,2.4 C -3.04,7.52 -3.04,8 -3.04,8.17 c 0,0.48 0.16,0.64 0.48,0.64 0.48,0 1.12,-0.48 2.72,-1.61 L 0,6.72 c -0.16,0.16 -0.16,0.16 -0.32,0.16 -0.48,0.64 -0.8,0.8 -1.12,0.8 -0.16,0 -0.16,-0.16 -0.16,-0.48 0,-0.16 0,-0.16 0,-0.16 z m -1.44,1.12 c -0.48,1.92 -0.8,2.88 -1.44,3.84 -0.97,1.6 -2.09,2.72 -2.73,2.72 -0.16,0 -0.32,-0.32 -0.32,-0.8 0,-1.12 0.48,-3.36 1.12,-4.8 0.48,-0.96 0.8,-1.28 1.77,-1.28 0.48,0 0.8,0 1.6,0.32 z"
       style="fill:#000000;fill-opacity:1;fill-rule:nonzero;stroke:#000000;stroke-opacity:1"
       transform="translate(448.32999,244.44)" />
    <path
       id="path151"
       d="M 0,0 C 0.16,-0.32 0.16,-0.32 0.16,-0.48 0.16,-0.64 0,-0.8 -0.32,-0.8 c -0.16,0 -0.16,0.16 -0.32,0.32 l -8.65,16.66 c -0.16,0.32 -0.16,0.32 -0.16,0.48 0,0.16 0.16,0.32 0.48,0.32 0.16,0 0.16,-0.16 0.32,-0.32 z"
       style="fill:#000000;fill-opacity:1;fill-rule:nonzero;stroke:#000000;stroke-opacity:1"
       transform="translate(466.76001,240.27)" />
    <path
       id="path152"
       d="M 0,0 C 0.16,0 0.64,0 0.64,-0.32 0.64,-0.64 0.16,-0.64 0,-0.64 h -11.54 c -0.16,0 -0.64,0 -0.64,0.32 0,0.32 0.48,0.32 0.64,0.32 z m 0,3.68 c 0.16,0 0.64,0 0.64,-0.32 C 0.64,3.04 0.16,3.04 0,3.04 h -11.54 c -0.16,0 -0.64,0 -0.64,0.32 0,0.32 0.48,0.32 0.64,0.32 z"
       style="fill:#000000;fill-opacity:1;fill-rule:nonzero;stroke:#000000;stroke-opacity:1"
       transform="translate(468.37,246.84)" />
    <path
       id="path153"
       d="m 0,0 c -2.89,0 -4.33,2.24 -4.33,6.73 0,2.24 0.32,4 0.96,4.96 0.64,0.81 1.76,1.45 2.89,1.45 2.72,0 4.16,-2.41 4.16,-7.21 C 3.68,1.92 2.4,0 0,0 Z m -0.32,0.64 c 1.76,0 2.4,1.92 2.4,6.25 0,4 -0.64,5.61 -2.4,5.61 -1.77,0 -2.41,-1.93 -2.41,-6.41 0,-3.85 0.64,-5.45 2.41,-5.45 z"
       style="fill:#000000;fill-opacity:1;fill-rule:nonzero;stroke:#000000;stroke-opacity:1"
       transform="translate(480.23001,240.42999)" />
  </g>
</svg>
