<?xml version="1.0" encoding="UTF-8" standalone="no"?>
<!-- Created with Inkscape (http://www.inkscape.org/) -->

<svg
   version="1.1"
   id="svg1"
   width="230.4762"
   height="21.367001"
   viewBox="0 0 230.4762 21.367001"
   sodipodi:docname="writetex.pdf"
   inkscape:export-batch-path="..\Akemicos\Akdemicos-Front\public"
   inkscape:export-batch-name="DomCotHiperbolica"
   xmlns:inkscape="http://www.inkscape.org/namespaces/inkscape"
   xmlns:sodipodi="http://sodipodi.sourceforge.net/DTD/sodipodi-0.dtd"
   xmlns="http://www.w3.org/2000/svg"
   xmlns:svg="http://www.w3.org/2000/svg">
  <defs
     id="defs1">
    <clipPath
       clipPathUnits="userSpaceOnUse"
       id="clipPath249">
      <rect
         style="fill:#000000;stroke:#000000;stroke-width:1.00157;stroke-dasharray:none;stroke-opacity:1"
         id="rect250"
         width="230.4762"
         height="21.904762"
         x="1802.8572"
         y="304.7619" />
    </clipPath>
  </defs>
  <sodipodi:namedview
     id="namedview1"
     pagecolor="#ffffff"
     bordercolor="#000000"
     borderopacity="0.25"
     inkscape:showpageshadow="2"
     inkscape:pageopacity="0.0"
     inkscape:pagecheckerboard="0"
     inkscape:deskcolor="#d1d1d1"
     showgrid="false">
    <inkscape:page
       x="0"
       y="0"
       width="230.4762"
       height="21.367001"
       id="page1"
       margin="0"
       bleed="0" />
  </sodipodi:namedview>
  <g
     id="g186"
     inkscape:groupmode="layer"
     inkscape:label="3"
     clip-path="url(#clipPath249)"
     transform="translate(-1802.8572,-304.7619)">
    <g
       id="g212"
       aria-label="Domibio=(−∞,0)∪(0,∞),Rango=(−∞,−1)∪(1,∞)"
       transform="matrix(1.3333333,0,0,1.3333333,1803.1293,320.72133)">
      <path
         id="path213"
         d="m 0.81999219,-0.28025781 v 0.328125 C 2.4840547,9.921875e-4 2.4840547,9.921875e-4 2.8121797,9.921875e-4 c 0.2578125,0 0.4921875,0 0.75,0.0117187525 1.125,0.03515625 1.125,0.03515625 1.3242187,0.03515625 1.8398438,0 3.2226563,-0.48046875 4.21875,-1.46484379 1.0312496,-1.0195312 1.6640626,-2.5664062 1.6640626,-4.1015625 0,-2.671875 -1.9804688,-4.40625 -5.0039063,-4.40625 -0.1054688,0 -0.28125,0 -0.5390625,0.011719 -0.7265625,0.011719 -1.3359375,0.035156 -1.9570313,0.035156 -0.5273437,0 -1.3242187,-0.023437 -2.95312496,-0.046875 v 0.4335938 l 0.57421875,0.035156 C 1.5465547,-9.4091643 1.6168672,-9.280258 1.6168672,-8.155258 v 6.796875 c 0,0.41015624 -0.1289063,0.72656249 -0.3515625,0.84374999 z M 2.9879609,-9.2333828 c 0.3632813,-0.070312 0.8671875,-0.1171875 1.5820313,-0.1171875 1.0546875,0 2.203125,0.1875 2.8007812,0.4570312 0.3164063,0.1289063 0.5859375,0.328125 0.84375,0.5859375 0.6914063,0.6914063 1.0195313,1.7226563 1.0195313,3.1640625 0,1.6054688 -0.4804688,2.8359375 -1.4296875,3.609375 -0.8671875,0.70312504 -1.7226563,0.94921879 -3.3398438,0.94921879 -0.6679687,0 -1.1132812,-0.0351563 -1.4765625,-0.1171875 z m 12.1113281,2.5078125 c -2.085937,0 -3.539062,1.4765625 -3.539062,3.609375 0,2.0273437 1.277343,3.39843749 3.128906,3.39843749 2.203125,0 3.785156,-1.52343749 3.785156,-3.67968749 0,-1.9335938 -1.40625,-3.328125 -3.375,-3.328125 z m -0.257812,0.46875 c 1.324218,0 2.296875,1.4414062 2.296875,3.3867187 0,1.6523438 -0.726563,2.68359379 -1.886719,2.68359379 -1.40625,0 -2.355469,-1.37109379 -2.355469,-3.41015629 0,-1.7226562 0.691406,-2.6601562 1.945313,-2.6601562 z m 4.353515,0.515625 h 0.527344 c 0.574219,0 0.632812,0.1054687 0.632812,1.0546875 v 3.2226562 c 0,0.90234379 -0.03516,1.00781254 -0.527343,1.03125004 l -0.65625,0.046875 V 0.04786719 C 20.542648,9.921875e-4 20.589523,9.921875e-4 20.987961,9.921875e-4 c 0.398437,0 0.773437,0.0117187525 1.710937,0.0468750025 v -0.43359375 l -0.609375,-0.046875 C 21.609055,-0.45603906 21.56218,-0.56150781 21.56218,-1.4638516 v -3.0351562 c 0,-0.6445313 0.949218,-1.3476563 1.804687,-1.3476563 0.773438,0 1.3125,0.7265625 1.3125,1.8164063 v 2.5664062 c 0,0.90234379 -0.04687,1.00781254 -0.539062,1.03125004 l -0.65625,0.046875 V 0.04786719 C 24.913742,9.921875e-4 24.913742,9.921875e-4 25.277023,9.921875e-4 c 0.363282,0 0.363282,0 1.792969,0.0468750025 v -0.43359375 l -0.65625,-0.046875 C 25.921555,-0.45603906 25.87468,-0.56150781 25.87468,-1.4638516 v -3.0351562 c 0,-0.6445313 0.949218,-1.3476563 1.816406,-1.3476563 0.773437,0 1.300781,0.7265625 1.300781,1.8164063 V 0.04786719 C 29.870773,9.921875e-4 29.882492,9.921875e-4 30.128586,9.921875e-4 c 0.1875,0 0.1875,0 1.277344,0.0468750025 v -0.43359375 l -0.679688,-0.046875 c -0.480469,-0.0234375 -0.527344,-0.12890625 -0.527344,-1.03125004 v -2.953125 c 0,-1.4179687 -0.832031,-2.3085937 -2.15625,-2.3085937 -0.503906,0 -0.914062,0.1289062 -1.171875,0.3632812 l -1.089843,0.9726563 c -0.457032,-0.9492188 -1.054688,-1.3359375 -2.039063,-1.3359375 -0.527344,0 -0.9375,0.1289062 -1.195312,0.3632812 l -0.984375,0.9140625 v -1.21875 l -0.128907,-0.058594 c -0.726562,0.3046875 -1.476562,0.5039062 -2.238281,0.5859375 z m 15.105469,-0.9257813 -0.128906,-0.058594 c -0.726563,0.3046875 -1.476563,0.5039062 -2.238282,0.5859375 v 0.3984375 h 0.527344 c 0.574219,0 0.632813,0.1054687 0.632813,1.0546875 v 3.2226562 c 0,0.90234379 -0.03516,1.00781254 -0.527344,1.03125004 l -0.65625,0.046875 V 0.04786719 C 33.339523,9.921875e-4 33.339523,9.921875e-4 33.702805,9.921875e-4 c 0.351562,0 0.351562,0 1.792968,0.0468750025 v -0.43359375 l -0.667968,-0.046875 c -0.480469,-0.0234375 -0.527344,-0.12890625 -0.527344,-1.03125004 z m -0.65625,-3.1875 c -0.433594,0 -0.808594,0.375 -0.808594,0.8085938 0,0.4101562 0.375,0.7851562 0.796875,0.7851562 0.410156,0 0.796875,-0.375 0.796875,-0.7851562 0,-0.4101563 -0.386719,-0.8085938 -0.785156,-0.8085938 z m 4.291992,-0.4453124 -0.128906,-0.117188 c -0.632813,0.246094 -1.113281,0.363282 -2.238281,0.5390629 v 0.3984375 h 0.796875 c 0.257812,0 0.363281,0.1523438 0.363281,0.5859375 v 6.703125 c 0,0.890625 -0.01172,1.27734379 -0.117188,2.27343754 l 0.234375,0.09375 0.574219,-0.515625 c 0.5625,0.36328125 1.089844,0.515625 1.839844,0.515625 0.5625,0 0.9375,-0.10546875 1.242187,-0.31640625 l 1.429688,-1.03124999 c 0.632812,-0.46875 1.136719,-1.6523438 1.136719,-2.6953125 0,-1.6640625 -1.078125,-2.859375 -2.601563,-2.859375 -0.667969,0 -1.371094,0.2578125 -1.746094,0.6328125 l -0.785156,0.796875 z m 0,5.8828124 c 0,-0.1992187 0.140625,-0.4570312 0.363281,-0.7148437 0.410157,-0.421875 0.960938,-0.65625 1.558594,-0.65625 1.195313,0 1.957031,0.9726562 1.957031,2.5078125 0,1.6054687 -0.855468,2.71874999 -2.074218,2.71874999 -0.75,0 -1.804688,-0.45703129 -1.804688,-0.77343749 z m 8.472656,-2.25 -0.128906,-0.058594 c -0.726562,0.3046875 -1.476562,0.5039062 -2.238281,0.5859375 v 0.3984375 h 0.527344 c 0.574218,0 0.632812,0.1054687 0.632812,1.0546875 v 3.2226562 c 0,0.90234379 -0.03516,1.00781254 -0.527344,1.03125004 l -0.65625,0.046875 V 0.04786719 C 45.447922,9.921875e-4 45.447922,9.921875e-4 45.811203,9.921875e-4 c 0.351563,0 0.351563,0 1.792969,0.0468750025 v -0.43359375 l -0.667969,-0.046875 c -0.480469,-0.0234375 -0.527344,-0.12890625 -0.527344,-1.03125004 z m -0.65625,-3.1875 c -0.433593,0 -0.808593,0.375 -0.808593,0.8085938 0,0.4101562 0.375,0.7851562 0.796875,0.7851562 0.410156,0 0.796875,-0.375 0.796875,-0.7851562 0,-0.4101563 -0.386719,-0.8085938 -0.785157,-0.8085938 z m 6.131836,3.1289063 c -2.085937,0 -3.539062,1.4765625 -3.539062,3.609375 0,2.0273437 1.277344,3.39843749 3.128906,3.39843749 2.203125,0 3.785156,-1.52343749 3.785156,-3.67968749 0,-1.9335938 -1.40625,-3.328125 -3.375,-3.328125 z m -0.257812,0.46875 c 1.324219,0 2.296875,1.4414062 2.296875,3.3867187 0,1.6523438 -0.726563,2.68359379 -1.886719,2.68359379 -1.40625,0 -2.355469,-1.37109379 -2.355469,-3.41015629 0,-1.7226562 0.691407,-2.6601562 1.945313,-2.6601562 z m 12.049805,0.7265625 h -7.230469 v 0.796875 h 7.230469 z m 0,2.7773437 h -7.230469 v 0.8085938 h 7.230469 z m 0,0"
         style="fill:#000000;fill-opacity:1;fill-rule:nonzero;stroke:none" />
      <path
         id="path214"
         d="m 73.713547,3.5869297 c 0,-0.046875 0,-0.070312 -0.246094,-0.328125 -1.875,-1.8867188 -2.355469,-4.7109375 -2.355469,-6.9960938 0,-2.6015625 0.574219,-5.203125 2.414063,-7.0781249 0.1875,-0.175781 0.1875,-0.199219 0.1875,-0.246094 0,-0.105469 -0.05859,-0.152344 -0.140625,-0.152344 -0.152344,0 -1.5,1.019532 -2.378906,2.9179692 -0.761719,1.640625 -0.949219,3.3046875 -0.949219,4.5585937 0,1.171875 0.164062,2.97656254 0.996094,4.66406254 0.890625,1.83984376 2.179687,2.81249996 2.332031,2.81249996 0.08203,0 0.140625,-0.046875 0.140625,-0.1523437 z m 0,0"
         style="fill:#000000;fill-opacity:1;fill-rule:nonzero;stroke:none" />
      <path
         id="path215"
         d="m 84.778977,-3.4326016 c 0.257812,0 0.527343,0 0.527343,-0.3046875 0,-0.3046875 -0.269531,-0.3046875 -0.527343,-0.3046875 h -8.085938 c -0.257812,0 -0.527344,0 -0.527344,0.3046875 0,0.3046875 0.269532,0.3046875 0.527344,0.3046875 z m 0,0"
         style="fill:#000000;fill-opacity:1;fill-rule:nonzero;stroke:none" />
      <path
         id="path216"
         d="m 93.125656,-4.4755703 c -1.21875,-1.6523438 -1.816406,-2.3085938 -3.011718,-2.3085938 -1.042969,0 -2.753907,0.9492188 -2.753907,3.2695313 0,1.734375 1.359375,2.80078124 2.636719,2.80078124 0.925781,0 2.003906,-0.71484374 2.871094,-2.29687504 1.230469,1.6289063 1.839844,2.29687504 3.023437,2.29687504 1.054688,0 2.789063,-0.94921874 2.789063,-3.26953124 0,-1.734375 -1.394531,-2.8007813 -2.671875,-2.8007813 -0.925781,0 -1.992188,0.7265625 -2.882813,2.3085938 z m -0.503906,1.078125 c -0.679687,1.1484375 -1.535156,2.0039062 -2.332031,2.0039062 -0.515625,0 -2.109375,-0.070312 -2.109375,-2.1914062 0,-1.2304688 1.042969,-1.9453125 1.78125,-1.9453125 0.972656,0 1.441406,0.4804687 2.660156,2.1328125 z m 0.796875,-0.703125 c 0.679688,-1.1484375 1.535156,-2.0039063 2.332031,-2.0039063 0.515625,0 2.109375,0.070312 2.109375,2.1914063 0,1.2304687 -1.042968,1.9453125 -1.78125,1.9453125 -0.972656,0 -1.441406,-0.4804688 -2.660156,-2.1328125 z m 0,0"
         style="fill:#000000;fill-opacity:1;fill-rule:nonzero;stroke:none" />
      <path
         id="path217"
         d="m 102.2487,-1.7685391 c -0.38672,0.1289063 -0.64453,0.2226563 -1.40625,0.4335938 -0.10547,1.08984374 -0.45703,2.02734374 -1.289059,3.3984375 l 0.199218,0.1640625 0.585941,-0.28125 c 1.16015,-1.50000001 1.71093,-2.40234376 2.10937,-3.5039063 z m 6.82618,-8.109375 c -2.22657,0 -3.36329,1.7578125 -3.36329,5.2265625 0,1.6875 0.30469,3.1289063 0.8086,3.83203129 0.5039,0.703125 1.30078,1.1015625 2.1914,1.1015625 2.16797,0 3.25782,-1.86328129 3.25782,-5.53124999 0,-3.140625 -0.92578,-4.6289063 -2.89453,-4.6289063 z m -0.25782,0.5039063 c 1.39453,0 1.94532,1.3945312 1.94532,4.8398437 0,3.0585938 -0.53907,4.32421879 -1.86329,4.32421879 -1.39453,0 -1.98046,-1.45312499 -1.98046,-4.95703129 0,-3.0234375 0.53906,-4.2070312 1.89843,-4.2070312 z m 0,0"
         style="fill:#000000;fill-opacity:1;fill-rule:nonzero;stroke:none" />
      <path
         id="path218"
         d="m 116.97331,-3.7372891 c 0,-1.171875 -0.16406,-2.9765625 -0.98437,-4.6640625 -0.90235,-1.8398434 -2.19141,-2.8125004 -2.34375,-2.8125004 -0.082,0 -0.14063,0.05859 -0.14063,0.152344 0,0.04687 0,0.07031 0.28125,0.339844 1.46485,1.4765624 2.32032,3.8554687 2.32032,6.9843749 0,2.5546875 -0.55079,5.1914063 -2.41407,7.078125 -0.1875,0.1757813 -0.1875,0.1992188 -0.1875,0.2460938 0,0.09375 0.0586,0.1523437 0.14063,0.1523437 0.15234,0 1.5,-1.0195312 2.3789,-2.91796871 0.76172,-1.640625 0.94922,-3.30468749 0.94922,-4.55859379 z m 0,0"
         style="fill:#000000;fill-opacity:1;fill-rule:nonzero;stroke:none" />
      <path
         id="path219"
         d="m 130.73405,-8.4013516 c 0,-0.2695312 0,-0.5390625 -0.30468,-0.5390625 -0.29297,0 -0.29297,0.2695313 -0.29297,0.5390625 v 5.4140625 c 0,2.23828129 -2.4375,2.71875004 -3.5625,2.71875004 -0.67969,0 -1.61719,-0.12890625 -2.41406,-0.64453125 C 123.0114,-1.6396328 123.0114,-2.6005703 123.0114,-2.9990078 v -5.4023438 c 0,-0.2695312 0,-0.5390625 -0.29297,-0.5390625 -0.30469,0 -0.30469,0.2695313 -0.30469,0.5390625 v 5.4726563 c 0,2.27343749 2.28516,3.25781249 4.16016,3.25781249 1.94531,0 4.16015,-1.04296875 4.16015,-3.24609379 z m 0,0"
         style="fill:#000000;fill-opacity:1;fill-rule:nonzero;stroke:none" />
      <path
         id="path220"
         d="m 139.64323,3.5869297 c 0,-0.046875 0,-0.070312 -0.24609,-0.328125 -1.875,-1.8867188 -2.35547,-4.7109375 -2.35547,-6.9960938 0,-2.6015625 0.57422,-5.203125 2.41406,-7.0781249 0.1875,-0.175781 0.1875,-0.199219 0.1875,-0.246094 0,-0.105469 -0.0586,-0.152344 -0.14062,-0.152344 -0.15234,0 -1.5,1.019532 -2.37891,2.9179692 -0.76172,1.640625 -0.94922,3.3046875 -0.94922,4.5585937 0,1.171875 0.16407,2.97656254 0.9961,4.66406254 0.89062,1.83984376 2.17969,2.81249996 2.33203,2.81249996 0.082,0 0.14062,-0.046875 0.14062,-0.1523437 z m 0,0"
         style="fill:#000000;fill-opacity:1;fill-rule:nonzero;stroke:none" />
      <path
         id="path221"
         d="m 144.44499,-9.8779141 c -2.22656,0 -3.36328,1.7578125 -3.36328,5.2265625 0,1.6875 0.30469,3.1289063 0.80859,3.83203129 0.50391,0.703125 1.30079,1.1015625 2.19141,1.1015625 2.16797,0 3.25781,-1.86328129 3.25781,-5.53124999 0,-3.140625 -0.92578,-4.6289063 -2.89453,-4.6289063 z m -0.25781,0.5039063 c 1.39453,0 1.94531,1.3945312 1.94531,4.8398437 0,3.0585938 -0.53906,4.32421879 -1.86328,4.32421879 -1.39453,0 -1.98047,-1.45312499 -1.98047,-4.95703129 0,-3.0234375 0.53906,-4.2070312 1.89844,-4.2070312 z m 6.58887,7.6054687 c -0.38672,0.1289063 -0.64453,0.2226563 -1.40625,0.4335938 -0.10547,1.08984374 -0.45703,2.02734374 -1.28907,3.3984375 l 0.19922,0.1640625 0.58594,-0.28125 c 1.16016,-1.50000001 1.71094,-2.40234376 2.10938,-3.5039063 z m 0,0"
         style="fill:#000000;fill-opacity:1;fill-rule:nonzero;stroke:none" />
      <path
         id="path222"
         d="m 160.22429,-4.4755703 c -1.21875,-1.6523438 -1.81641,-2.3085938 -3.01172,-2.3085938 -1.04297,0 -2.75391,0.9492188 -2.75391,3.2695313 0,1.734375 1.35938,2.80078124 2.63672,2.80078124 0.92578,0 2.00391,-0.71484374 2.8711,-2.29687504 1.23047,1.6289063 1.83984,2.29687504 3.02343,2.29687504 1.05469,0 2.78907,-0.94921874 2.78907,-3.26953124 0,-1.734375 -1.39453,-2.8007813 -2.67188,-2.8007813 -0.92578,0 -1.99219,0.7265625 -2.88281,2.3085938 z m -0.50391,1.078125 c -0.67968,1.1484375 -1.53515,2.0039062 -2.33203,2.0039062 -0.51562,0 -2.10937,-0.070312 -2.10937,-2.1914062 0,-1.2304688 1.04297,-1.9453125 1.78125,-1.9453125 0.97265,0 1.4414,0.4804687 2.66015,2.1328125 z m 0.79688,-0.703125 c 0.67969,-1.1484375 1.53515,-2.0039063 2.33203,-2.0039063 0.51562,0 2.10937,0.070312 2.10937,2.1914063 0,1.2304687 -1.04296,1.9453125 -1.78125,1.9453125 -0.97265,0 -1.4414,-0.4804688 -2.66015,-2.1328125 z m 0,0"
         style="fill:#000000;fill-opacity:1;fill-rule:nonzero;stroke:none" />
      <path
         id="path223"
         d="m 170.92351,-3.7372891 c 0,-1.171875 -0.16406,-2.9765625 -0.98438,-4.6640625 -0.90234,-1.8398434 -2.1914,-2.8125004 -2.34375,-2.8125004 -0.082,0 -0.14062,0.05859 -0.14062,0.152344 0,0.04687 0,0.07031 0.28125,0.339844 1.46484,1.4765624 2.32031,3.8554687 2.32031,6.9843749 0,2.5546875 -0.55078,5.1914063 -2.41406,7.078125 -0.1875,0.1757813 -0.1875,0.1992188 -0.1875,0.2460938 0,0.09375 0.0586,0.1523437 0.14062,0.1523437 0.15235,0 1.5,-1.0195312 2.37891,-2.91796871 0.76172,-1.640625 0.94922,-3.30468749 0.94922,-4.55859379 z m 0,0"
         style="fill:#000000;fill-opacity:1;fill-rule:nonzero;stroke:none" />
      <path
         id="path224"
         d="m 179.67741,-1.7685391 c -0.38671,0.1289063 -0.64453,0.2226563 -1.40625,0.4335938 -0.10546,1.08984374 -0.45703,2.02734374 -1.28906,3.3984375 l 0.19922,0.1640625 0.58594,-0.28125 c 1.16015,-1.50000001 1.71094,-2.40234376 2.10937,-3.5039063 z m 18.09668,-7.4414062 c 0.49219,-0.1171875 0.92579,-0.1640625 1.40625,-0.1640625 1.5,0 2.33204,0.6796875 2.33204,1.8984375 0,1.3242187 -1.05469,2.15625 -2.71875,2.15625 -0.0937,0 -0.22266,0 -0.41016,-0.011719 l -0.0937,0.1640625 c 0.16406,0.1875 0.21094,0.2460938 0.375,0.4335938 0.19922,0.234375 0.24609,0.2929687 0.375,0.4570312 l 2.63672,3.55078129 c 0.0937,0.10546875 0.17578,0.22265625 0.25781,0.328125 0.10547,0.12890625 0.1875,0.2578125 0.32813,0.4453125 0.67968,-0.0468750025 0.82031,-0.0468750025 0.98437,-0.0468750025 0.12891,0 0.12891,0 1.03125,0.0468750025 v -0.43359375 c -0.45703,-0.046875 -0.69141,-0.12890625 -0.87891,-0.375 l -3.25781,-4.24218754 c 0.8086,-0.1992187 1.1836,-0.3632812 1.65235,-0.6914062 0.75,-0.5273438 1.14843,-1.2421875 1.14843,-2.0742188 0,-1.3828125 -1.00781,-2.15625 -2.77734,-2.15625 h -0.23438 c -1.86328,0.046875 -1.86328,0.046875 -2.35546,0.046875 -0.46875,0 -0.46875,0 -2.48438,-0.046875 v 0.4335938 l 0.59766,0.035156 c 0.65625,0.046875 0.72656,0.1757813 0.72656,1.3007813 v 6.4335937 c 0,1.13671879 -0.0703,1.25390629 -0.72656,1.28906254 l -0.69141,0.046875 v 0.43359375 c 0.84375,-0.03515625 1.34766,-0.0468750025 2.09766,-0.0468750025 0.73828,0 1.2539,0.0117187525 2.10937,0.0468750025 v -0.43359375 l -0.6914,-0.046875 c -0.65625,-0.0351563 -0.73829,-0.15234375 -0.73829,-1.28906254 z m 11.14161,8.0390625 -0.082,1.21874999 c 0.9375,-0.0468750025 0.9375,-0.0468750025 1.125,-0.0468750025 0.0703,0 0.4336,0.0117187525 1.06641,0.0468750025 v -0.43359375 l -0.5625,-0.0234375 c -0.35156,-0.0234375 -0.41016,-0.140625 -0.41016,-0.83203124 v -2.625 c 0,-2.0976563 -0.59765,-2.859375 -2.26171,-2.859375 -0.6211,0 -1.1836,0.1523437 -1.73438,0.4921875 l -0.76172,0.4570312 v 0.9257813 l 0.375,0.1054687 0.1875,-0.4453125 c 0.30469,-0.6796875 0.44531,-0.7734375 1.10156,-0.7734375 1.34766,0 1.91016,0.5273438 1.95704,1.828125 l -1.42969,0.2695313 c -1.94531,0.3515625 -2.76563,1.03125 -2.76563,2.2734375 0,1.12499999 0.67969,1.76953124 1.80469,1.76953124 0.25781,0 0.50391,-0.046875 0.60938,-0.1171875 z m 0,-0.609375 c -0.42188,0.5859375 -1.32422,1.13671874 -1.88672,1.13671874 -0.57422,0 -1.07813,-0.52734374 -1.07813,-1.14843754 0,-0.5273437 0.29297,-1.03125 0.72656,-1.3007812 0.35157,-0.2226563 1.14844,-0.421875 2.23829,-0.5742188 z m 8.40527,1.82812499 c 0.87891,-0.0468750025 0.89062,-0.0468750025 1.13672,-0.0468750025 0.19922,0 0.19922,0 1.18359,0.0468750025 v -0.43359375 l -0.58594,-0.046875 c -0.49218,-0.0234375 -0.52734,-0.1171875 -0.52734,-1.03125004 v -2.765625 c 0,-1.6757812 -0.79687,-2.4960937 -2.40234,-2.4960937 -0.52735,0 -0.83203,0.1054687 -1.125,0.3632812 l -1.08985,0.9375 v -1.2421875 l -0.1289,-0.058594 c -0.73828,0.3046875 -1.48828,0.5039062 -2.23828,0.5859375 v 0.3984375 h 0.52734 c 0.57422,0 0.63281,0.1054687 0.63281,1.0546875 v 3.2226562 c 0,0.90234379 -0.0469,1.00781254 -0.53906,1.03125004 l -0.64453,0.046875 v 0.43359375 c 0.98437,-0.03515625 1.37109,-0.0468750025 1.78125,-0.0468750025 0.42187,0 0.80859,0.0117187525 1.78125,0.0468750025 v -0.43359375 l -0.64453,-0.046875 c -0.49219,-0.0234375 -0.52735,-0.12890625 -0.52735,-1.03125004 v -3.0351562 c 0,-0.6445313 0.9375,-1.3476563 1.81641,-1.3476563 0.96094,0 1.59375,0.7148438 1.59375,1.8164063 z m 9.9082,-5.47265629 0.36328,-0.5859375 -0.0586,-0.1757812 -2.03906,0.058594 c -0.52735,-0.421875 -1.04297,-0.5976562 -1.7461,-0.5976562 -0.63281,0 -1.35937,0.1992187 -1.95703,0.5390625 -0.79687,0.46875 -1.21875,1.171875 -1.21875,2.0390625 0,1.0664062 0.66797,1.7929687 1.72266,1.9101562 l -1.125,0.8789063 c -0.15235,0.2109375 -0.22266,0.39843749 -0.22266,0.60937499 0,0.41015625 0.25781,0.6328125 0.94922,0.83203125 l -1.25391,0.6796875 c -0.19921,0.1171875 -0.39843,0.64453126 -0.39843,1.08984376 0,1.3007812 1.27734,2.203125 3.10547,2.203125 2.15625,0 3.86718,-1.359375 3.86718,-3.10546876 0,-1.03125 -0.6914,-1.7578125 -1.6875,-1.7578125 h -2.29687 c -0.75,0 -1.08985,-0.1640625 -1.08985,-0.55078124 0,-0.1875 0.11719,-0.3515625 0.48047,-0.6679688 0.0937,-0.070312 0.11719,-0.09375 0.17578,-0.1523437 0.14063,0.011719 0.23438,0.023437 0.33985,0.023437 0.62109,0 1.38281,-0.2695313 1.96875,-0.6796875 0.64453,-0.4804688 0.96094,-1.0546875 0.96094,-1.8164063 0,-0.28125 -0.0469,-0.46875 -0.15235,-0.7734375 z m -3.99609,-0.8085937 c 0.97265,0 1.6289,0.796875 1.6289,2.015625 0,0.9375 -0.59765,1.5820312 -1.47656,1.5820312 -0.96094,0 -1.60547,-0.75 -1.60547,-1.8515625 0,-1.1015625 0.52735,-1.7460937 1.45313,-1.7460937 z m 0.66797,6.43359374 c 1.6289,0 2.17968,0.328125 2.17968,1.26562496 0,1.2304688 -1.125,2.1445313 -2.63671,2.1445313 -1.24219,0 -2.10938,-0.7265625 -2.10938,-1.7929688 0,-0.6445312 0.375,-1.23046871 0.94922,-1.47656246 0.23437,-0.10546875 0.63281,-0.140625 1.61719,-0.140625 z m 7.85742,-6.92578124 c -2.08594,0 -3.53906,1.4765625 -3.53906,3.609375 0,2.0273437 1.27734,3.39843749 3.1289,3.39843749 2.20313,0 3.78516,-1.52343749 3.78516,-3.67968749 0,-1.9335938 -1.40625,-3.328125 -3.375,-3.328125 z m -0.25781,0.46875 c 1.32422,0 2.29687,1.4414062 2.29687,3.3867187 0,1.6523438 -0.72656,2.68359379 -1.88672,2.68359379 -1.40625,0 -2.35547,-1.37109379 -2.35547,-3.41015629 0,-1.7226562 0.69141,-2.6601562 1.94532,-2.6601562 z m 12.05273,0.7265625 h -7.23047 v 0.796875 h 7.23047 z m 0,2.7773437 h -7.23047 v 0.8085938 h 7.23047 z m 0,0"
         style="fill:#000000;fill-opacity:1;fill-rule:nonzero;stroke:none" />
      <path
         id="path225"
         d="m 253.5905,3.5869297 c 0,-0.046875 0,-0.070312 -0.24609,-0.328125 -1.875,-1.8867188 -2.35547,-4.7109375 -2.35547,-6.9960938 0,-2.6015625 0.57422,-5.203125 2.41406,-7.0781249 0.1875,-0.175781 0.1875,-0.199219 0.1875,-0.246094 0,-0.105469 -0.0586,-0.152344 -0.14062,-0.152344 -0.15235,0 -1.5,1.019532 -2.37891,2.9179692 -0.76172,1.640625 -0.94922,3.3046875 -0.94922,4.5585937 0,1.171875 0.16406,2.97656254 0.99609,4.66406254 0.89063,1.83984376 2.17969,2.81249996 2.33204,2.81249996 0.082,0 0.14062,-0.046875 0.14062,-0.1523437 z m 0,0"
         style="fill:#000000;fill-opacity:1;fill-rule:nonzero;stroke:none" />
      <path
         id="path226"
         d="m 264.653,-3.4326016 c 0.25781,0 0.52734,0 0.52734,-0.3046875 0,-0.3046875 -0.26953,-0.3046875 -0.52734,-0.3046875 h -8.08594 c -0.25781,0 -0.52734,0 -0.52734,0.3046875 0,0.3046875 0.26953,0.3046875 0.52734,0.3046875 z m 0,0"
         style="fill:#000000;fill-opacity:1;fill-rule:nonzero;stroke:none" />
      <path
         id="path227"
         d="m 272.99968,-4.4755703 c -1.21875,-1.6523438 -1.81641,-2.3085938 -3.01172,-2.3085938 -1.04297,0 -2.75391,0.9492188 -2.75391,3.2695313 0,1.734375 1.35938,2.80078124 2.63672,2.80078124 0.92578,0 2.00391,-0.71484374 2.8711,-2.29687504 1.23047,1.6289063 1.83984,2.29687504 3.02343,2.29687504 1.05469,0 2.78907,-0.94921874 2.78907,-3.26953124 0,-1.734375 -1.39453,-2.8007813 -2.67188,-2.8007813 -0.92578,0 -1.99219,0.7265625 -2.88281,2.3085938 z m -0.50391,1.078125 c -0.67968,1.1484375 -1.53515,2.0039062 -2.33203,2.0039062 -0.51562,0 -2.10937,-0.070312 -2.10937,-2.1914062 0,-1.2304688 1.04297,-1.9453125 1.78125,-1.9453125 0.97265,0 1.4414,0.4804687 2.66015,2.1328125 z m 0.79688,-0.703125 c 0.67969,-1.1484375 1.53515,-2.0039063 2.33203,-2.0039063 0.51562,0 2.10937,0.070312 2.10937,2.1914063 0,1.2304687 -1.04296,1.9453125 -1.78125,1.9453125 -0.97265,0 -1.4414,-0.4804688 -2.66015,-2.1328125 z m 0,0"
         style="fill:#000000;fill-opacity:1;fill-rule:nonzero;stroke:none" />
      <path
         id="path228"
         d="m 282.12273,-1.7685391 c -0.38672,0.1289063 -0.64453,0.2226563 -1.40625,0.4335938 -0.10547,1.08984374 -0.45703,2.02734374 -1.28907,3.3984375 l 0.19922,0.1640625 0.58594,-0.28125 c 1.16016,-1.50000001 1.71094,-2.40234376 2.10938,-3.5039063 z m 0,0"
         style="fill:#000000;fill-opacity:1;fill-rule:nonzero;stroke:none" />
      <path
         id="path229"
         d="m 295.20671,-3.4326016 c 0.25781,0 0.52734,0 0.52734,-0.3046875 0,-0.3046875 -0.26953,-0.3046875 -0.52734,-0.3046875 h -8.08594 c -0.25781,0 -0.52734,0 -0.52734,0.3046875 0,0.3046875 0.26953,0.3046875 0.52734,0.3046875 z m 0,0"
         style="fill:#000000;fill-opacity:1;fill-rule:nonzero;stroke:none" />
      <path
         id="path230"
         d="m 298.11003,-7.9560391 h 0.14063 l 1.85156,-0.8320312 c 0.0117,-0.023437 0.0352,-0.023437 0.0469,-0.023437 0.082,0 0.11719,0.1289062 0.11719,0.4804687 v 6.9492188 c 0,0.74999999 -0.16406,0.91406249 -0.9375,0.94921874 l -0.79687,0.046875 v 0.43359375 c 2.20312,-0.0468750025 2.20312,-0.0468750025 2.35547,-0.0468750025 0.1875,0 0.5039,0 0.99609,0.0117187525 0.17578,0.01171875 0.66797,0.01171875 1.26562,0.03515625 v -0.43359375 l -0.75,-0.046875 c -0.78515,-0.0351563 -0.9375,-0.19921875 -0.9375,-0.94921874 v -8.4960938 l -0.19921,-0.070312 c -0.92579,0.4804688 -1.94532,0.9140625 -3.25782,1.3710938 z m 0,0"
         style="fill:#000000;fill-opacity:1;fill-rule:nonzero;stroke:none" />
      <path
         id="path231"
         d="m 308.82683,-3.7372891 c 0,-1.171875 -0.16406,-2.9765625 -0.98438,-4.6640625 -0.90234,-1.8398434 -2.1914,-2.8125004 -2.34375,-2.8125004 -0.082,0 -0.14062,0.05859 -0.14062,0.152344 0,0.04687 0,0.07031 0.28125,0.339844 1.46484,1.4765624 2.32031,3.8554687 2.32031,6.9843749 0,2.5546875 -0.55078,5.1914063 -2.41406,7.078125 -0.1875,0.1757813 -0.1875,0.1992188 -0.1875,0.2460938 0,0.09375 0.0586,0.1523437 0.14062,0.1523437 0.15235,0 1.5,-1.0195312 2.37891,-2.91796871 0.76172,-1.640625 0.94922,-3.30468749 0.94922,-4.55859379 z m 0,0"
         style="fill:#000000;fill-opacity:1;fill-rule:nonzero;stroke:none" />
      <path
         id="path232"
         d="m 322.58757,-8.4013516 c 0,-0.2695312 0,-0.5390625 -0.30469,-0.5390625 -0.29297,0 -0.29297,0.2695313 -0.29297,0.5390625 v 5.4140625 c 0,2.23828129 -2.4375,2.71875004 -3.5625,2.71875004 -0.67968,0 -1.61718,-0.12890625 -2.41406,-0.64453125 -1.14844,-0.72656249 -1.14844,-1.68749999 -1.14844,-2.08593749 v -5.4023438 c 0,-0.2695312 0,-0.5390625 -0.29296,-0.5390625 -0.30469,0 -0.30469,0.2695313 -0.30469,0.5390625 v 5.4726563 c 0,2.27343749 2.28515,3.25781249 4.16015,3.25781249 1.94532,0 4.16016,-1.04296875 4.16016,-3.24609379 z m 0,0"
         style="fill:#000000;fill-opacity:1;fill-rule:nonzero;stroke:none" />
      <path
         id="path233"
         d="m 331.49675,3.5869297 c 0,-0.046875 0,-0.070312 -0.24609,-0.328125 -1.875,-1.8867188 -2.35547,-4.7109375 -2.35547,-6.9960938 0,-2.6015625 0.57422,-5.203125 2.41406,-7.0781249 0.1875,-0.175781 0.1875,-0.199219 0.1875,-0.246094 0,-0.105469 -0.0586,-0.152344 -0.14062,-0.152344 -0.15235,0 -1.5,1.019532 -2.37891,2.9179692 -0.76172,1.640625 -0.94922,3.3046875 -0.94922,4.5585937 0,1.171875 0.16406,2.97656254 0.99609,4.66406254 0.89063,1.83984376 2.17969,2.81249996 2.33204,2.81249996 0.082,0 0.14062,-0.046875 0.14062,-0.1523437 z m 0,0"
         style="fill:#000000;fill-opacity:1;fill-rule:nonzero;stroke:none" />
      <path
         id="path234"
         d="m 333.48601,-7.9560391 h 0.14062 l 1.85157,-0.8320312 c 0.0117,-0.023437 0.0351,-0.023437 0.0469,-0.023437 0.082,0 0.11719,0.1289062 0.11719,0.4804687 v 6.9492188 c 0,0.74999999 -0.16406,0.91406249 -0.9375,0.94921874 l -0.79688,0.046875 v 0.43359375 c 2.20313,-0.0468750025 2.20313,-0.0468750025 2.35547,-0.0468750025 0.1875,0 0.50391,0 0.9961,0.0117187525 0.17578,0.01171875 0.66796,0.01171875 1.26562,0.03515625 v -0.43359375 l -0.75,-0.046875 c -0.78516,-0.0351563 -0.9375,-0.19921875 -0.9375,-0.94921874 v -8.4960938 l -0.19922,-0.070312 c -0.92578,0.4804688 -1.94531,0.9140625 -3.25781,1.3710938 z m 9.14355,6.1875 c -0.38672,0.1289063 -0.64453,0.2226563 -1.40625,0.4335938 -0.10547,1.08984374 -0.45703,2.02734374 -1.28906,3.3984375 l 0.19922,0.1640625 0.58594,-0.28125 c 1.16015,-1.50000001 1.71093,-2.40234376 2.10937,-3.5039063 z m 0,0"
         style="fill:#000000;fill-opacity:1;fill-rule:nonzero;stroke:none" />
      <path
         id="path235"
         d="m 352.0778,-4.4755703 c -1.21875,-1.6523438 -1.8164,-2.3085938 -3.01171,-2.3085938 -1.04297,0 -2.75391,0.9492188 -2.75391,3.2695313 0,1.734375 1.35937,2.80078124 2.63672,2.80078124 0.92578,0 2.0039,-0.71484374 2.87109,-2.29687504 1.23047,1.6289063 1.83985,2.29687504 3.02344,2.29687504 1.05469,0 2.78906,-0.94921874 2.78906,-3.26953124 0,-1.734375 -1.39453,-2.8007813 -2.67187,-2.8007813 -0.92578,0 -1.99219,0.7265625 -2.88282,2.3085938 z m -0.5039,1.078125 c -0.67969,1.1484375 -1.53516,2.0039062 -2.33203,2.0039062 -0.51563,0 -2.10938,-0.070312 -2.10938,-2.1914062 0,-1.2304688 1.04297,-1.9453125 1.78125,-1.9453125 0.97266,0 1.44141,0.4804687 2.66016,2.1328125 z m 0.79687,-0.703125 c 0.67969,-1.1484375 1.53516,-2.0039063 2.33203,-2.0039063 0.51563,0 2.10938,0.070312 2.10938,2.1914063 0,1.2304687 -1.04297,1.9453125 -1.78125,1.9453125 -0.97266,0 -1.44141,-0.4804688 -2.66016,-2.1328125 z m 0,0"
         style="fill:#000000;fill-opacity:1;fill-rule:nonzero;stroke:none" />
      <path
         id="path236"
         d="m 362.77702,-3.7372891 c 0,-1.171875 -0.16406,-2.9765625 -0.98437,-4.6640625 -0.90235,-1.8398434 -2.19141,-2.8125004 -2.34375,-2.8125004 -0.082,0 -0.14063,0.05859 -0.14063,0.152344 0,0.04687 0,0.07031 0.28125,0.339844 1.46485,1.4765624 2.32032,3.8554687 2.32032,6.9843749 0,2.5546875 -0.55079,5.1914063 -2.41407,7.078125 -0.1875,0.1757813 -0.1875,0.1992188 -0.1875,0.2460938 0,0.09375 0.0586,0.1523437 0.14063,0.1523437 0.15234,0 1.5,-1.0195312 2.3789,-2.91796871 0.76172,-1.640625 0.94922,-3.30468749 0.94922,-4.55859379 z m 0,0"
         style="fill:#000000;fill-opacity:1;fill-rule:nonzero;stroke:none" />
    </g>
  </g>
</svg>
