<?xml version="1.0" encoding="UTF-8" standalone="no"?>
<!-- Created with Inkscape (http://www.inkscape.org/) -->

<svg
   version="1.1"
   id="svg1"
   width="231.42857"
   height="28.571428"
   viewBox="0 0 231.42857 28.571428"
   sodipodi:docname="writetex.pdf"
   inkscape:export-batch-path="..\Akemicos\Akdemicos-Front\public"
   inkscape:export-batch-name="DomCscHiperbolica"
   xmlns:inkscape="http://www.inkscape.org/namespaces/inkscape"
   xmlns:sodipodi="http://sodipodi.sourceforge.net/DTD/sodipodi-0.dtd"
   xmlns="http://www.w3.org/2000/svg"
   xmlns:svg="http://www.w3.org/2000/svg">
  <defs
     id="defs1">
    <clipPath
       clipPathUnits="userSpaceOnUse"
       id="clipPath245">
      <rect
         style="fill:#000000;stroke:#000000;stroke-width:1.00157;stroke-dasharray:none;stroke-opacity:1"
         id="rect246"
         width="231.42857"
         height="28.571428"
         x="1016.1905"
         y="595.2381" />
    </clipPath>
  </defs>
  <sodipodi:namedview
     id="namedview1"
     pagecolor="#ffffff"
     bordercolor="#000000"
     borderopacity="0.25"
     inkscape:showpageshadow="2"
     inkscape:pageopacity="0.0"
     inkscape:pagecheckerboard="0"
     inkscape:deskcolor="#d1d1d1"
     showgrid="false">
    <inkscape:page
       x="0"
       y="0"
       width="231.42857"
       height="28.571428"
       id="page1"
       margin="0"
       bleed="0" />
  </sodipodi:namedview>
  <g
     id="g78"
     inkscape:groupmode="layer"
     inkscape:label="2"
     clip-path="url(#clipPath245)"
     transform="translate(-1016.1905,-595.2381)">
    <g
       id="g140"
       aria-label="Domibio=(−∞,0)∪(0,∞),Rango=(−∞,0)∪(0,∞)"
       transform="matrix(1.3333333,0,0,1.3333333,1016.0907,613.51333)">
      <path
         id="path141"
         d="m 0.81969531,-0.28246094 v 0.328125 c 1.66406249,-0.046875 1.66406249,-0.046875 1.99218749,-0.046875 0.2578125,0 0.4921875,0 0.75,0.01171875 1.125,0.03515625 1.125,0.03515625 1.3242188,0.03515625 1.8398437,0 3.2226562,-0.48046875 4.21875,-1.46484376 1.0312504,-1.0195312 1.6640624,-2.5664062 1.6640624,-4.1015625 0,-2.671875 -1.9804687,-4.40625 -5.0039062,-4.40625 -0.1054687,0 -0.28125,0 -0.5390625,0.011719 -0.7265625,0.011719 -1.3359375,0.035156 -1.9570312,0.035156 -0.5273438,0 -1.3242188,-0.023437 -2.95312504,-0.046875 v 0.4335938 l 0.57421875,0.035156 c 0.65624999,0.046875 0.72656249,0.1757813 0.72656249,1.3007813 v 6.796875 c 0,0.41015621 -0.1289062,0.72656246 -0.3515625,0.84374996 z M 2.9876641,-9.2355859 c 0.3632812,-0.070312 0.8671875,-0.1171875 1.5820312,-0.1171875 1.0546875,0 2.203125,0.1875 2.8007813,0.4570312 0.3164062,0.1289063 0.5859375,0.328125 0.84375,0.5859375 0.6914062,0.6914063 1.0195312,1.7226563 1.0195312,3.1640625 0,1.6054688 -0.4804687,2.8359375 -1.4296875,3.609375 -0.8671875,0.70312501 -1.7226562,0.94921876 -3.3398437,0.94921876 -0.6679688,0 -1.1132813,-0.0351563 -1.4765625,-0.1171875 z m 12.1113279,2.5078125 c -2.085937,0 -3.539062,1.4765625 -3.539062,3.609375 0,2.0273437 1.277343,3.39843746 3.128906,3.39843746 2.203125,0 3.785156,-1.52343746 3.785156,-3.67968746 0,-1.9335938 -1.40625,-3.328125 -3.375,-3.328125 z m -0.257812,0.46875 c 1.324218,0 2.296875,1.4414062 2.296875,3.3867187 0,1.6523438 -0.726563,2.68359376 -1.886719,2.68359376 -1.40625,0 -2.355469,-1.37109376 -2.355469,-3.41015626 0,-1.7226562 0.691406,-2.6601562 1.945313,-2.6601562 z m 4.353515,0.515625 h 0.527344 c 0.574219,0 0.632813,0.1054687 0.632813,1.0546875 v 3.2226562 c 0,0.90234376 -0.03516,1.00781251 -0.527344,1.03125001 l -0.65625,0.046875 v 0.43359375 c 1.371094,-0.046875 1.417969,-0.046875 1.816406,-0.046875 0.398438,0 0.773438,0.01171875 1.710938,0.046875 v -0.43359375 l -0.609375,-0.046875 c -0.480469,-0.0234375 -0.527344,-0.12890625 -0.527344,-1.03125001 v -3.0351562 c 0,-0.6445313 0.949219,-1.3476563 1.804687,-1.3476563 0.773438,0 1.3125,0.7265625 1.3125,1.8164063 v 2.5664062 c 0,0.90234376 -0.04687,1.00781251 -0.539062,1.03125001 l -0.65625,0.046875 v 0.43359375 c 1.429687,-0.046875 1.429687,-0.046875 1.792969,-0.046875 0.363281,0 0.363281,0 1.792968,0.046875 v -0.43359375 l -0.65625,-0.046875 c -0.492187,-0.0234375 -0.539062,-0.12890625 -0.539062,-1.03125001 v -3.0351562 c 0,-0.6445313 0.949219,-1.3476563 1.816406,-1.3476563 0.773438,0 1.300781,0.7265625 1.300781,1.8164063 v 4.07812496 c 0.878907,-0.046875 0.890625,-0.046875 1.136719,-0.046875 0.1875,0 0.1875,0 1.277344,0.046875 v -0.43359375 l -0.679688,-0.046875 c -0.480468,-0.0234375 -0.527343,-0.12890625 -0.527343,-1.03125001 v -2.953125 c 0,-1.4179687 -0.832032,-2.3085937 -2.15625,-2.3085937 -0.503907,0 -0.914063,0.1289062 -1.171875,0.3632812 l -1.089844,0.9726563 c -0.457031,-0.9492188 -1.054688,-1.3359375 -2.039063,-1.3359375 -0.527343,0 -0.9375,0.1289062 -1.195312,0.3632812 l -0.984375,0.9140625 v -1.21875 l -0.128906,-0.058594 c -0.726563,0.3046875 -1.476563,0.5039062 -2.238282,0.5859375 z m 15.105469,-0.9257813 -0.128906,-0.058594 c -0.726563,0.3046875 -1.476563,0.5039062 -2.238281,0.5859375 v 0.3984375 h 0.527343 c 0.574219,0 0.632813,0.1054687 0.632813,1.0546875 v 3.2226562 c 0,0.90234376 -0.03516,1.00781251 -0.527344,1.03125001 l -0.65625,0.046875 v 0.43359375 c 1.429688,-0.046875 1.429688,-0.046875 1.792969,-0.046875 0.351562,0 0.351562,0 1.792969,0.046875 v -0.43359375 l -0.667969,-0.046875 C 34.347039,-0.45824249 34.300164,-0.56371124 34.300164,-1.466055 Z m -0.65625,-3.1875 c -0.433594,0 -0.808594,0.375 -0.808594,0.8085938 0,0.4101562 0.375,0.7851562 0.796875,0.7851562 0.410157,0 0.796875,-0.375 0.796875,-0.7851562 0,-0.4101563 -0.386718,-0.8085938 -0.785156,-0.8085938 z M 37.935906,-10.301992 37.807,-10.41918 c -0.632812,0.246094 -1.113281,0.363282 -2.238281,0.5390628 v 0.3984375 h 0.796875 c 0.257812,0 0.363281,0.1523438 0.363281,0.5859375 v 6.703125 c 0,0.890625 -0.01172,1.27734376 -0.117187,2.27343751 l 0.234375,0.09375 0.574218,-0.515625 c 0.5625,0.36328125 1.089844,0.515625 1.839844,0.515625 0.5625,0 0.9375,-0.10546875 1.242188,-0.31640625 L 41.932,-1.1730859 c 0.632813,-0.46875 1.136719,-1.6523438 1.136719,-2.6953125 0,-1.6640625 -1.078125,-2.859375 -2.601563,-2.859375 -0.667968,0 -1.371093,0.2578125 -1.746093,0.6328125 l -0.785157,0.796875 z m 0,5.8828123 c 0,-0.1992187 0.140625,-0.4570312 0.363282,-0.7148437 0.410156,-0.421875 0.960937,-0.65625 1.558593,-0.65625 1.195313,0 1.957032,0.9726562 1.957032,2.5078125 0,1.6054687 -0.855469,2.71874996 -2.074219,2.71874996 -0.75,0 -1.804688,-0.45703126 -1.804688,-0.77343746 z m 8.472657,-2.25 -0.128907,-0.058594 c -0.726562,0.3046875 -1.476562,0.5039062 -2.238281,0.5859375 v 0.3984375 h 0.527344 c 0.574219,0 0.632812,0.1054687 0.632812,1.0546875 v 3.2226562 c 0,0.90234376 -0.03516,1.00781251 -0.527343,1.03125001 l -0.65625,0.046875 v 0.43359375 c 1.429687,-0.046875 1.429687,-0.046875 1.792968,-0.046875 0.351563,0 0.351563,0 1.792969,0.046875 v -0.43359375 l -0.667969,-0.046875 C 46.455438,-0.45824249 46.408563,-0.56371124 46.408563,-1.466055 Z m -0.65625,-3.1875 c -0.433594,0 -0.808594,0.375 -0.808594,0.8085938 0,0.4101562 0.375,0.7851562 0.796875,0.7851562 0.410156,0 0.796875,-0.375 0.796875,-0.7851562 0,-0.4101563 -0.386719,-0.8085938 -0.785156,-0.8085938 z m 6.131835,3.1289063 c -2.085937,0 -3.539062,1.4765625 -3.539062,3.609375 0,2.0273437 1.277344,3.39843746 3.128906,3.39843746 2.203125,0 3.785156,-1.52343746 3.785156,-3.67968746 0,-1.9335938 -1.40625,-3.328125 -3.375,-3.328125 z m -0.257812,0.46875 c 1.324219,0 2.296875,1.4414062 2.296875,3.3867187 0,1.6523438 -0.726563,2.68359376 -1.886719,2.68359376 -1.40625,0 -2.355469,-1.37109376 -2.355469,-3.41015626 0,-1.7226562 0.691407,-2.6601562 1.945313,-2.6601562 z m 12.052734,0.7265625 h -7.230468 v 0.796875 h 7.230468 z m 0,2.7773437 h -7.230468 v 0.8085938 h 7.230468 z m 0,0"
         style="fill:#000000;fill-opacity:1;fill-rule:nonzero;stroke:none" />
      <path
         id="path142"
         d="m 73.71325,3.5847266 c 0,-0.046875 0,-0.070312 -0.246094,-0.328125 -1.875,-1.8867188 -2.355468,-4.7109375 -2.355468,-6.9960938 0,-2.6015625 0.574218,-5.203125 2.414062,-7.0781248 0.1875,-0.175781 0.1875,-0.199219 0.1875,-0.246094 0,-0.105469 -0.05859,-0.152344 -0.140625,-0.152344 -0.152344,0 -1.5,1.019532 -2.378906,2.9179691 -0.761719,1.640625 -0.949219,3.3046875 -0.949219,4.5585937 0,1.171875 0.164063,2.97656251 0.996094,4.66406251 0.890625,1.83984379 2.179687,2.81249999 2.332031,2.81249999 0.08203,0 0.140625,-0.046875 0.140625,-0.1523437 z m 0,0"
         style="fill:#000000;fill-opacity:1;fill-rule:nonzero;stroke:none" />
      <path
         id="path143"
         d="m 84.77868,-3.4348047 c 0.257812,0 0.527343,0 0.527343,-0.3046875 0,-0.3046875 -0.269531,-0.3046875 -0.527343,-0.3046875 h -8.085938 c -0.257812,0 -0.527344,0 -0.527344,0.3046875 0,0.3046875 0.269532,0.3046875 0.527344,0.3046875 z m 0,0"
         style="fill:#000000;fill-opacity:1;fill-rule:nonzero;stroke:none" />
      <path
         id="path144"
         d="m 93.125359,-4.4777734 c -1.21875,-1.6523438 -1.816406,-2.3085938 -3.011718,-2.3085938 -1.042969,0 -2.753907,0.9492188 -2.753907,3.2695313 0,1.734375 1.359375,2.80078121 2.636719,2.80078121 0.925781,0 2.003906,-0.71484371 2.871094,-2.29687501 1.230469,1.6289063 1.839844,2.29687501 3.023437,2.29687501 1.054688,0 2.789063,-0.94921871 2.789063,-3.26953121 0,-1.734375 -1.394531,-2.8007813 -2.671875,-2.8007813 -0.925781,0 -1.992188,0.7265625 -2.882813,2.3085938 z m -0.503906,1.078125 c -0.679687,1.1484375 -1.535156,2.0039062 -2.332031,2.0039062 -0.515625,0 -2.109375,-0.070312 -2.109375,-2.1914062 0,-1.2304688 1.042969,-1.9453125 1.78125,-1.9453125 0.972656,0 1.441406,0.4804687 2.660156,2.1328125 z m 0.796875,-0.703125 c 0.679688,-1.1484375 1.535156,-2.0039063 2.332031,-2.0039063 0.515625,0 2.109375,0.070312 2.109375,2.1914063 0,1.2304687 -1.042968,1.9453125 -1.78125,1.9453125 -0.972656,0 -1.441406,-0.4804688 -2.660156,-2.1328125 z m 0,0"
         style="fill:#000000;fill-opacity:1;fill-rule:nonzero;stroke:none" />
      <path
         id="path145"
         d="m 102.24841,-1.7707422 c -0.38672,0.1289063 -0.64453,0.2226563 -1.40625,0.4335938 -0.10547,1.08984371 -0.45703,2.02734371 -1.289066,3.3984375 l 0.199219,0.1640625 0.585937,-0.28125 c 1.16016,-1.50000004 1.71094,-2.40234379 2.10938,-3.5039063 z m 6.82617,-8.109375 c -2.22656,0 -3.36328,1.7578125 -3.36328,5.2265625 0,1.6875 0.30468,3.1289063 0.80859,3.83203126 0.50391,0.703125 1.30078,1.1015625 2.19141,1.1015625 2.16797,0 3.25781,-1.86328126 3.25781,-5.53124996 0,-3.140625 -0.92578,-4.6289063 -2.89453,-4.6289063 z m -0.25781,0.5039063 c 1.39453,0 1.94531,1.3945312 1.94531,4.8398437 0,3.0585938 -0.53906,4.32421876 -1.86328,4.32421876 -1.39453,0 -1.98047,-1.45312496 -1.98047,-4.95703126 0,-3.0234375 0.53906,-4.2070312 1.89844,-4.2070312 z m 0,0"
         style="fill:#000000;fill-opacity:1;fill-rule:nonzero;stroke:none" />
      <path
         id="path146"
         d="m 116.97302,-3.7394922 c 0,-1.171875 -0.16407,-2.9765625 -0.98438,-4.6640625 -0.90234,-1.8398433 -2.19141,-2.8125003 -2.34375,-2.8125003 -0.082,0 -0.14062,0.05859 -0.14062,0.152344 0,0.04687 0,0.07031 0.28125,0.339844 1.46484,1.4765623 2.32031,3.8554686 2.32031,6.9843748 0,2.5546875 -0.55078,5.1914063 -2.41406,7.078125 -0.1875,0.1757813 -0.1875,0.1992188 -0.1875,0.2460938 0,0.09375 0.0586,0.1523437 0.14062,0.1523437 0.15234,0 1.5,-1.0195312 2.37891,-2.91796874 0.76172,-1.640625 0.94922,-3.30468746 0.94922,-4.55859376 z m 0,0"
         style="fill:#000000;fill-opacity:1;fill-rule:nonzero;stroke:none" />
      <path
         id="path147"
         d="m 130.73376,-8.4035547 c 0,-0.2695312 0,-0.5390625 -0.30469,-0.5390625 -0.29297,0 -0.29297,0.2695313 -0.29297,0.5390625 v 5.4140625 c 0,2.23828126 -2.4375,2.71875001 -3.5625,2.71875001 -0.67969,0 -1.61719,-0.12890625 -2.41406,-0.64453125 C 123.0111,-1.6418359 123.0111,-2.6027734 123.0111,-3.0012109 v -5.4023438 c 0,-0.2695312 0,-0.5390625 -0.29297,-0.5390625 -0.30468,0 -0.30468,0.2695313 -0.30468,0.5390625 v 5.4726563 c 0,2.27343746 2.28515,3.25781246 4.16015,3.25781246 1.94531,0 4.16016,-1.04296875 4.16016,-3.24609376 z m 0,0"
         style="fill:#000000;fill-opacity:1;fill-rule:nonzero;stroke:none" />
      <path
         id="path148"
         d="m 139.64001,3.5847266 c 0,-0.046875 0,-0.070312 -0.2461,-0.328125 -1.875,-1.8867188 -2.35546,-4.7109375 -2.35546,-6.9960938 0,-2.6015625 0.57421,-5.203125 2.41406,-7.0781248 0.1875,-0.175781 0.1875,-0.199219 0.1875,-0.246094 0,-0.105469 -0.0586,-0.152344 -0.14063,-0.152344 -0.15234,0 -1.5,1.019532 -2.3789,2.9179691 -0.76172,1.640625 -0.94922,3.3046875 -0.94922,4.5585937 0,1.171875 0.16406,2.97656251 0.99609,4.66406251 0.89063,1.83984379 2.17969,2.81249999 2.33203,2.81249999 0.082,0 0.14063,-0.046875 0.14063,-0.1523437 z m 0,0"
         style="fill:#000000;fill-opacity:1;fill-rule:nonzero;stroke:none" />
      <path
         id="path149"
         d="m 144.4447,-9.8801172 c -2.22657,0 -3.36329,1.7578125 -3.36329,5.2265625 0,1.6875 0.30469,3.1289063 0.8086,3.83203126 0.5039,0.703125 1.30078,1.1015625 2.1914,1.1015625 2.16797,0 3.25782,-1.86328126 3.25782,-5.53124996 0,-3.140625 -0.92578,-4.6289063 -2.89453,-4.6289063 z m -0.25782,0.5039063 c 1.39453,0 1.94532,1.3945312 1.94532,4.8398437 0,3.0585938 -0.53907,4.32421876 -1.86329,4.32421876 -1.39453,0 -1.98046,-1.45312496 -1.98046,-4.95703126 0,-3.0234375 0.53906,-4.2070312 1.89843,-4.2070312 z m 6.58887,7.6054687 c -0.38672,0.1289063 -0.64453,0.2226563 -1.40625,0.4335938 -0.10547,1.08984371 -0.45703,2.02734371 -1.28906,3.3984375 l 0.19922,0.1640625 0.58593,-0.28125 c 1.16016,-1.50000004 1.71094,-2.40234379 2.10938,-3.5039063 z m 0,0"
         style="fill:#000000;fill-opacity:1;fill-rule:nonzero;stroke:none" />
      <path
         id="path150"
         d="m 160.22399,-4.4777734 c -1.21875,-1.6523438 -1.8164,-2.3085938 -3.01172,-2.3085938 -1.04297,0 -2.7539,0.9492188 -2.7539,3.2695313 0,1.734375 1.35937,2.80078121 2.63672,2.80078121 0.92578,0 2.0039,-0.71484371 2.87109,-2.29687501 1.23047,1.6289063 1.83984,2.29687501 3.02344,2.29687501 1.05468,0 2.78906,-0.94921871 2.78906,-3.26953121 0,-1.734375 -1.39453,-2.8007813 -2.67188,-2.8007813 -0.92578,0 -1.99218,0.7265625 -2.88281,2.3085938 z m -0.5039,1.078125 c -0.67969,1.1484375 -1.53516,2.0039062 -2.33204,2.0039062 -0.51562,0 -2.10937,-0.070312 -2.10937,-2.1914062 0,-1.2304688 1.04297,-1.9453125 1.78125,-1.9453125 0.97266,0 1.44141,0.4804687 2.66016,2.1328125 z m 0.79687,-0.703125 c 0.67969,-1.1484375 1.53516,-2.0039063 2.33203,-2.0039063 0.51563,0 2.10938,0.070312 2.10938,2.1914063 0,1.2304687 -1.04297,1.9453125 -1.78125,1.9453125 -0.97266,0 -1.44141,-0.4804688 -2.66016,-2.1328125 z m 0,0"
         style="fill:#000000;fill-opacity:1;fill-rule:nonzero;stroke:none" />
      <path
         id="path151"
         d="m 170.92028,-3.7394922 c 0,-1.171875 -0.16406,-2.9765625 -0.98437,-4.6640625 -0.90235,-1.8398433 -2.19141,-2.8125003 -2.34375,-2.8125003 -0.082,0 -0.14063,0.05859 -0.14063,0.152344 0,0.04687 0,0.07031 0.28125,0.339844 1.46485,1.4765623 2.32031,3.8554686 2.32031,6.9843748 0,2.5546875 -0.55078,5.1914063 -2.41406,7.078125 -0.1875,0.1757813 -0.1875,0.1992188 -0.1875,0.2460938 0,0.09375 0.0586,0.1523437 0.14063,0.1523437 0.15234,0 1.5,-1.0195312 2.3789,-2.91796874 0.76172,-1.640625 0.94922,-3.30468746 0.94922,-4.55859376 z m 0,0"
         style="fill:#000000;fill-opacity:1;fill-rule:nonzero;stroke:none" />
      <path
         id="path152"
         d="m 179.67712,-1.7707422 c -0.38672,0.1289063 -0.64453,0.2226563 -1.40625,0.4335938 -0.10547,1.08984371 -0.45703,2.02734371 -1.28907,3.3984375 l 0.19922,0.1640625 0.58594,-0.28125 c 1.16016,-1.50000004 1.71094,-2.40234379 2.10938,-3.5039063 z m 18.09668,-7.4414062 c 0.49218,-0.1171875 0.92578,-0.1640625 1.40625,-0.1640625 1.5,0 2.33203,0.6796875 2.33203,1.8984375 0,1.3242187 -1.05469,2.15625 -2.71875,2.15625 -0.0937,0 -0.22266,0 -0.41016,-0.011719 l -0.0937,0.1640625 c 0.16406,0.1875 0.21094,0.2460938 0.375,0.4335938 0.19922,0.234375 0.2461,0.2929687 0.375,0.4570312 l 2.63672,3.55078126 c 0.0937,0.10546875 0.17578,0.22265625 0.25781,0.328125 0.10547,0.12890625 0.1875,0.2578125 0.32813,0.4453125 0.67969,-0.046875 0.82031,-0.046875 0.98437,-0.046875 0.12891,0 0.12891,0 1.03125,0.046875 v -0.43359375 c -0.45703,-0.046875 -0.6914,-0.12890625 -0.8789,-0.375 l -3.25782,-4.24218751 c 0.8086,-0.1992187 1.1836,-0.3632812 1.65235,-0.6914062 0.75,-0.5273438 1.14844,-1.2421875 1.14844,-2.0742188 0,-1.3828125 -1.00782,-2.15625 -2.77735,-2.15625 h -0.23437 c -1.86328,0.046875 -1.86328,0.046875 -2.35547,0.046875 -0.46875,0 -0.46875,0 -2.48438,-0.046875 v 0.4335938 l 0.59766,0.035156 c 0.65625,0.046875 0.72656,0.1757813 0.72656,1.3007813 v 6.4335937 c 0,1.13671876 -0.0703,1.25390626 -0.72656,1.28906251 l -0.69141,0.046875 v 0.43359375 c 0.84375,-0.03515625 1.34766,-0.046875 2.09766,-0.046875 0.73828,0 1.25391,0.01171875 2.10937,0.046875 v -0.43359375 l -0.6914,-0.046875 c -0.65625,-0.0351563 -0.73828,-0.15234375 -0.73828,-1.28906251 z m 11.1416,8.0390625 -0.082,1.21874996 c 0.9375,-0.046875 0.9375,-0.046875 1.125,-0.046875 0.0703,0 0.43359,0.01171875 1.0664,0.046875 v -0.43359375 l -0.5625,-0.0234375 c -0.35156,-0.0234375 -0.41015,-0.140625 -0.41015,-0.83203121 v -2.625 c 0,-2.0976563 -0.59766,-2.859375 -2.26172,-2.859375 -0.6211,0 -1.1836,0.1523437 -1.73438,0.4921875 l -0.76172,0.4570312 v 0.9257813 l 0.375,0.1054687 0.1875,-0.4453125 c 0.30469,-0.6796875 0.44532,-0.7734375 1.10157,-0.7734375 1.34765,0 1.91015,0.5273438 1.95703,1.828125 l -1.42969,0.2695313 c -1.94531,0.3515625 -2.76562,1.03125 -2.76562,2.2734375 0,1.12499996 0.67968,1.76953121 1.80468,1.76953121 0.25782,0 0.50391,-0.046875 0.60938,-0.1171875 z m 0,-0.609375 c -0.42188,0.5859375 -1.32422,1.13671871 -1.88672,1.13671871 -0.57422,0 -1.07813,-0.52734371 -1.07813,-1.14843751 0,-0.5273437 0.29297,-1.03125 0.72657,-1.3007812 0.35156,-0.2226563 1.14843,-0.421875 2.23828,-0.5742188 z m 8.40234,1.82812496 c 0.87891,-0.046875 0.89063,-0.046875 1.13672,-0.046875 0.19922,0 0.19922,0 1.18359,0.046875 v -0.43359375 l -0.58593,-0.046875 c -0.49219,-0.0234375 -0.52735,-0.1171875 -0.52735,-1.03125001 v -2.765625 c 0,-1.6757812 -0.79687,-2.4960937 -2.40234,-2.4960937 -0.52734,0 -0.83203,0.1054687 -1.125,0.3632812 l -1.08984,0.9375 v -1.2421875 l -0.12891,-0.058594 c -0.73828,0.3046875 -1.48828,0.5039062 -2.23828,0.5859375 v 0.3984375 h 0.52734 c 0.57422,0 0.63281,0.1054687 0.63281,1.0546875 v 3.2226562 c 0,0.90234376 -0.0469,1.00781251 -0.53906,1.03125001 l -0.64453,0.046875 v 0.43359375 c 0.98438,-0.03515625 1.37109,-0.046875 1.78125,-0.046875 0.42188,0 0.80859,0.01171875 1.78125,0.046875 v -0.43359375 l -0.64453,-0.046875 c -0.49219,-0.0234375 -0.52734,-0.12890625 -0.52734,-1.03125001 v -3.0351562 c 0,-0.6445313 0.9375,-1.3476563 1.8164,-1.3476563 0.96094,0 1.59375,0.7148438 1.59375,1.8164063 z m 9.90821,-5.47265626 0.36328,-0.5859375 -0.0586,-0.1757812 -2.03906,0.058594 c -0.52734,-0.421875 -1.04297,-0.5976562 -1.74609,-0.5976562 -0.63282,0 -1.35938,0.1992187 -1.95703,0.5390625 -0.79688,0.46875 -1.21875,1.171875 -1.21875,2.0390625 0,1.0664062 0.66796,1.7929687 1.72265,1.9101562 l -1.125,0.8789063 c -0.15234,0.2109375 -0.22265,0.39843746 -0.22265,0.60937496 0,0.41015625 0.25781,0.6328125 0.94921,0.83203125 l -1.2539,0.6796875 c -0.19922,0.1171875 -0.39844,0.64453129 -0.39844,1.08984379 0,1.3007812 1.27734,2.203125 3.10547,2.203125 2.15625,0 3.86719,-1.359375 3.86719,-3.10546879 0,-1.03125 -0.69141,-1.7578125 -1.6875,-1.7578125 h -2.29688 c -0.75,0 -1.08984,-0.1640625 -1.08984,-0.55078121 0,-0.1875 0.11719,-0.3515625 0.48047,-0.6679688 0.0937,-0.070312 0.11718,-0.09375 0.17578,-0.1523437 0.14062,0.011719 0.23437,0.023437 0.33984,0.023437 0.6211,0 1.38281,-0.2695313 1.96875,-0.6796875 0.64453,-0.4804688 0.96094,-1.0546875 0.96094,-1.8164063 0,-0.28125 -0.0469,-0.46875 -0.15234,-0.7734375 z m -3.9961,-0.8085937 c 0.97266,0 1.62891,0.796875 1.62891,2.015625 0,0.9375 -0.59766,1.5820312 -1.47656,1.5820312 -0.96094,0 -1.60547,-0.75 -1.60547,-1.8515625 0,-1.1015625 0.52734,-1.7460937 1.45312,-1.7460937 z m 0.66797,6.43359371 c 1.62891,0 2.17969,0.328125 2.17969,1.26562499 0,1.2304688 -1.125,2.1445313 -2.63672,2.1445313 -1.24219,0 -2.10938,-0.7265625 -2.10938,-1.7929688 0,-0.6445312 0.375,-1.23046874 0.94922,-1.47656249 0.23438,-0.10546875 0.63282,-0.140625 1.61719,-0.140625 z m 7.86035,-6.92578121 c -2.08594,0 -3.53906,1.4765625 -3.53906,3.609375 0,2.0273437 1.27734,3.39843746 3.12891,3.39843746 2.20312,0 3.78515,-1.52343746 3.78515,-3.67968746 0,-1.9335938 -1.40625,-3.328125 -3.375,-3.328125 z m -0.25781,0.46875 c 1.32422,0 2.29687,1.4414062 2.29687,3.3867187 0,1.6523438 -0.72656,2.68359376 -1.88671,2.68359376 -1.40625,0 -2.35547,-1.37109376 -2.35547,-3.41015626 0,-1.7226562 0.6914,-2.6601562 1.94531,-2.6601562 z m 12.05273,0.7265625 h -7.23046 v 0.796875 h 7.23046 z m 0,2.7773437 h -7.23046 v 0.8085938 h 7.23046 z m 0,0"
         style="fill:#000000;fill-opacity:1;fill-rule:nonzero;stroke:none" />
      <path
         id="path153"
         d="m 253.58727,3.5847266 c 0,-0.046875 0,-0.070312 -0.24609,-0.328125 -1.875,-1.8867188 -2.35547,-4.7109375 -2.35547,-6.9960938 0,-2.6015625 0.57422,-5.203125 2.41406,-7.0781248 0.1875,-0.175781 0.1875,-0.199219 0.1875,-0.246094 0,-0.105469 -0.0586,-0.152344 -0.14062,-0.152344 -0.15235,0 -1.5,1.019532 -2.37891,2.9179691 -0.76172,1.640625 -0.94922,3.3046875 -0.94922,4.5585937 0,1.171875 0.16407,2.97656251 0.9961,4.66406251 0.89062,1.83984379 2.17968,2.81249999 2.33203,2.81249999 0.082,0 0.14062,-0.046875 0.14062,-0.1523437 z m 0,0"
         style="fill:#000000;fill-opacity:1;fill-rule:nonzero;stroke:none" />
      <path
         id="path154"
         d="m 264.6527,-3.4348047 c 0.25782,0 0.52735,0 0.52735,-0.3046875 0,-0.3046875 -0.26953,-0.3046875 -0.52735,-0.3046875 h -8.08593 c -0.25782,0 -0.52735,0 -0.52735,0.3046875 0,0.3046875 0.26953,0.3046875 0.52735,0.3046875 z m 0,0"
         style="fill:#000000;fill-opacity:1;fill-rule:nonzero;stroke:none" />
      <path
         id="path155"
         d="m 272.99938,-4.4777734 c -1.21875,-1.6523438 -1.8164,-2.3085938 -3.01172,-2.3085938 -1.04296,0 -2.7539,0.9492188 -2.7539,3.2695313 0,1.734375 1.35937,2.80078121 2.63672,2.80078121 0.92578,0 2.0039,-0.71484371 2.87109,-2.29687501 1.23047,1.6289063 1.83984,2.29687501 3.02344,2.29687501 1.05469,0 2.78906,-0.94921871 2.78906,-3.26953121 0,-1.734375 -1.39453,-2.8007813 -2.67187,-2.8007813 -0.92579,0 -1.99219,0.7265625 -2.88282,2.3085938 z m -0.5039,1.078125 c -0.67969,1.1484375 -1.53516,2.0039062 -2.33203,2.0039062 -0.51563,0 -2.10938,-0.070312 -2.10938,-2.1914062 0,-1.2304688 1.04297,-1.9453125 1.78125,-1.9453125 0.97266,0 1.44141,0.4804687 2.66016,2.1328125 z m 0.79687,-0.703125 c 0.67969,-1.1484375 1.53516,-2.0039063 2.33203,-2.0039063 0.51563,0 2.10938,0.070312 2.10938,2.1914063 0,1.2304687 -1.04297,1.9453125 -1.78125,1.9453125 -0.97266,0 -1.44141,-0.4804688 -2.66016,-2.1328125 z m 0,0"
         style="fill:#000000;fill-opacity:1;fill-rule:nonzero;stroke:none" />
      <path
         id="path156"
         d="m 282.12243,-1.7707422 c -0.38672,0.1289063 -0.64453,0.2226563 -1.40625,0.4335938 -0.10547,1.08984371 -0.45703,2.02734371 -1.28906,3.3984375 l 0.19922,0.1640625 0.58593,-0.28125 c 1.16016,-1.50000004 1.71094,-2.40234379 2.10938,-3.5039063 z m 6.82617,-8.109375 c -2.22656,0 -3.36328,1.7578125 -3.36328,5.2265625 0,1.6875 0.30469,3.1289063 0.80859,3.83203126 0.50391,0.703125 1.30079,1.1015625 2.19141,1.1015625 2.16797,0 3.25781,-1.86328126 3.25781,-5.53124996 0,-3.140625 -0.92578,-4.6289063 -2.89453,-4.6289063 z m -0.25781,0.5039063 c 1.39453,0 1.94531,1.3945312 1.94531,4.8398437 0,3.0585938 -0.53906,4.32421876 -1.86328,4.32421876 -1.39453,0 -1.98047,-1.45312496 -1.98047,-4.95703126 0,-3.0234375 0.53906,-4.2070312 1.89844,-4.2070312 z m 0,0"
         style="fill:#000000;fill-opacity:1;fill-rule:nonzero;stroke:none" />
      <path
         id="path157"
         d="m 296.84704,-3.7394922 c 0,-1.171875 -0.16406,-2.9765625 -0.98438,-4.6640625 -0.90234,-1.8398433 -2.1914,-2.8125003 -2.34375,-2.8125003 -0.082,0 -0.14062,0.05859 -0.14062,0.152344 0,0.04687 0,0.07031 0.28125,0.339844 1.46484,1.4765623 2.32031,3.8554686 2.32031,6.9843748 0,2.5546875 -0.55078,5.1914063 -2.41406,7.078125 -0.1875,0.1757813 -0.1875,0.1992188 -0.1875,0.2460938 0,0.09375 0.0586,0.1523437 0.14062,0.1523437 0.15235,0 1.5,-1.0195312 2.37891,-2.91796874 0.76172,-1.640625 0.94922,-3.30468746 0.94922,-4.55859376 z m 0,0"
         style="fill:#000000;fill-opacity:1;fill-rule:nonzero;stroke:none" />
      <path
         id="path158"
         d="m 310.60778,-8.4035547 c 0,-0.2695312 0,-0.5390625 -0.30469,-0.5390625 -0.29296,0 -0.29296,0.2695313 -0.29296,0.5390625 v 5.4140625 c 0,2.23828126 -2.4375,2.71875001 -3.5625,2.71875001 -0.67969,0 -1.61719,-0.12890625 -2.41407,-0.64453125 -1.14843,-0.72656246 -1.14843,-1.68749996 -1.14843,-2.08593746 v -5.4023438 c 0,-0.2695312 0,-0.5390625 -0.29297,-0.5390625 -0.30469,0 -0.30469,0.2695313 -0.30469,0.5390625 v 5.4726563 c 0,2.27343746 2.28516,3.25781246 4.16016,3.25781246 1.94531,0 4.16015,-1.04296875 4.16015,-3.24609376 z m 0,0"
         style="fill:#000000;fill-opacity:1;fill-rule:nonzero;stroke:none" />
      <path
         id="path159"
         d="m 319.51696,3.5847266 c 0,-0.046875 0,-0.070312 -0.24609,-0.328125 -1.875,-1.8867188 -2.35547,-4.7109375 -2.35547,-6.9960938 0,-2.6015625 0.57422,-5.203125 2.41406,-7.0781248 0.1875,-0.175781 0.1875,-0.199219 0.1875,-0.246094 0,-0.105469 -0.0586,-0.152344 -0.14062,-0.152344 -0.15235,0 -1.5,1.019532 -2.37891,2.9179691 -0.76172,1.640625 -0.94922,3.3046875 -0.94922,4.5585937 0,1.171875 0.16406,2.97656251 0.99609,4.66406251 0.89063,1.83984379 2.17969,2.81249999 2.33204,2.81249999 0.082,0 0.14062,-0.046875 0.14062,-0.1523437 z m 0,0"
         style="fill:#000000;fill-opacity:1;fill-rule:nonzero;stroke:none" />
      <path
         id="path160"
         d="m 324.32165,-9.8801172 c -2.22656,0 -3.36328,1.7578125 -3.36328,5.2265625 0,1.6875 0.30468,3.1289063 0.80859,3.83203126 0.50391,0.703125 1.30078,1.1015625 2.19141,1.1015625 2.16797,0 3.25781,-1.86328126 3.25781,-5.53124996 0,-3.140625 -0.92578,-4.6289063 -2.89453,-4.6289063 z m -0.25781,0.5039063 c 1.39453,0 1.94531,1.3945312 1.94531,4.8398437 0,3.0585938 -0.53906,4.32421876 -1.86328,4.32421876 -1.39453,0 -1.98047,-1.45312496 -1.98047,-4.95703126 0,-3.0234375 0.53906,-4.2070312 1.89844,-4.2070312 z m 6.58593,7.6054687 c -0.38672,0.1289063 -0.64453,0.2226563 -1.40625,0.4335938 -0.10547,1.08984371 -0.45703,2.02734371 -1.28906,3.3984375 l 0.19922,0.1640625 0.58594,-0.28125 c 1.16015,-1.50000004 1.71093,-2.40234379 2.10937,-3.5039063 z m 0,0"
         style="fill:#000000;fill-opacity:1;fill-rule:nonzero;stroke:none" />
      <path
         id="path161"
         d="m 340.10095,-4.4777734 c -1.21875,-1.6523438 -1.81641,-2.3085938 -3.01172,-2.3085938 -1.04297,0 -2.75391,0.9492188 -2.75391,3.2695313 0,1.734375 1.35938,2.80078121 2.63672,2.80078121 0.92578,0 2.00391,-0.71484371 2.87109,-2.29687501 1.23047,1.6289063 1.83985,2.29687501 3.02344,2.29687501 1.05469,0 2.78906,-0.94921871 2.78906,-3.26953121 0,-1.734375 -1.39453,-2.8007813 -2.67187,-2.8007813 -0.92578,0 -1.99219,0.7265625 -2.88281,2.3085938 z m -0.50391,1.078125 c -0.67969,1.1484375 -1.53516,2.0039062 -2.33203,2.0039062 -0.51563,0 -2.10938,-0.070312 -2.10938,-2.1914062 0,-1.2304688 1.04297,-1.9453125 1.78125,-1.9453125 0.97266,0 1.44141,0.4804687 2.66016,2.1328125 z m 0.79687,-0.703125 c 0.67969,-1.1484375 1.53516,-2.0039063 2.33204,-2.0039063 0.51562,0 2.10937,0.070312 2.10937,2.1914063 0,1.2304687 -1.04297,1.9453125 -1.78125,1.9453125 -0.97266,0 -1.44141,-0.4804688 -2.66016,-2.1328125 z m 0,0"
         style="fill:#000000;fill-opacity:1;fill-rule:nonzero;stroke:none" />
      <path
         id="path162"
         d="m 350.79723,-3.7394922 c 0,-1.171875 -0.16406,-2.9765625 -0.98437,-4.6640625 -0.90234,-1.8398433 -2.19141,-2.8125003 -2.34375,-2.8125003 -0.082,0 -0.14063,0.05859 -0.14063,0.152344 0,0.04687 0,0.07031 0.28125,0.339844 1.46485,1.4765623 2.32032,3.8554686 2.32032,6.9843748 0,2.5546875 -0.55078,5.1914063 -2.41407,7.078125 -0.1875,0.1757813 -0.1875,0.1992188 -0.1875,0.2460938 0,0.09375 0.0586,0.1523437 0.14063,0.1523437 0.15234,0 1.5,-1.0195312 2.37891,-2.91796874 0.76171,-1.640625 0.94921,-3.30468746 0.94921,-4.55859376 z m 0,0"
         style="fill:#000000;fill-opacity:1;fill-rule:nonzero;stroke:none" />
    </g>
  </g>
</svg>
