<?xml version="1.0" encoding="UTF-8" standalone="no"?>
<!-- Created with Inkscape (http://www.inkscape.org/) -->

<svg
   version="1.1"
   id="svg1"
   width="124.48979"
   height="28.571426"
   viewBox="0 0 124.48979 28.571426"
   xmlns="http://www.w3.org/2000/svg"
   xmlns:svg="http://www.w3.org/2000/svg">
  <defs
     id="defs1">
    <clipPath
       clipPathUnits="userSpaceOnUse"
       id="clipPath255">
      <rect
         style="fill:#000000;stroke-width:0.784532"
         id="rect255"
         width="124.48979"
         height="28.571426"
         x="1143.8776"
         y="553.06122" />
    </clipPath>
  </defs>
  <g
     id="g89"
     clip-path="url(#clipPath255)"
     transform="translate(-1143.8776,-553.06122)">
    <g
       id="g133"
       aria-label="Funciónraizcuadrada:Esunafunciónpotenciacona=1/2,&#10;sudominioes{x∈R\x≥0}."
       transform="matrix(1.3333333,0,0,1.3333333,1016.0907,548.04667)">
      <path
         id="path134"
         d="m 3.6439141,-8.894375 c 0.703125,-0.023437 1.171875,-0.046875 1.6640625,-0.046875 0.9609375,0 1.5820312,0.1054687 1.59375,0.28125 l 0.1171875,1.078125 h 0.515625 l 0.1992187,-2.0390625 -0.09375,-0.1054688 C 7.1009453,-9.7732813 6.8431328,-9.785 6.2806328,-9.785 c -0.328125,0 -0.8789062,0.011719 -2.015625,0.046875 -0.6679687,0.011719 -1.0195312,0.011719 -1.3125,0.011719 -0.4101562,0 -0.4101562,0 -2.55468749,-0.046875 v 0.5390625 l 0.5390625,0.035156 c 0.64453129,0.058594 0.67968749,0.1523437 0.67968749,1.40625 v 5.859375 c 0,1.27734375 -0.011719,1.30078125 -0.67968749,1.359375 l -0.5390625,0.046875 V 0.04703125 C 2.1321953,1.5625e-4 2.1321953,1.5625e-4 2.6243828,1.5625e-4 c 0.4570313,0 0.4570313,0 2.3789063,0.046875 V -0.5271875 L 4.3353203,-0.5740625 C 3.6673516,-0.6209375 3.6439141,-0.67953125 3.6439141,-1.9334375 v -2.6835938 c 0.3984375,-0.035156 0.6445312,-0.046875 0.9609375,-0.046875 h 0.7265625 c 0.5507812,0 0.7734375,0.1640625 0.8203125,0.5273438 L 6.2337578,-3.41 h 0.5742188 l -0.035156,-1.5585938 c 0,-0.1523437 0,-0.3515625 0.035156,-1.4765625 H 6.2337578 l -0.082031,0.7617188 C 6.1282891,-5.4490625 5.9407891,-5.37875 5.3314141,-5.37875 H 4.6048516 c -0.46875,0 -0.6796875,0 -0.9609375,-0.023437 z m 9.9580079,7.7460937 -0.07031,1.19531255 c 1.183594,-0.046875 1.183594,-0.046875 1.347657,-0.046875 0.140625,0 0.386718,0 0.785156,0.0234375 0.105469,0 0.375,0 0.679687,0.0234375 v -0.5390625 l -0.480468,-0.0234375 c -0.445313,-0.0351563 -0.515625,-0.140625 -0.515625,-0.91406255 v -5.2382812 l -0.140625,-0.09375 -1.007813,0.3164062 c -0.46875,0.1523438 -0.726562,0.1875 -1.617187,0.3046875 v 0.515625 l 0.644531,0.046875 c 0.328125,0.023437 0.375,0.1523438 0.375,1.0078125 v 2.2265625 c 0,0.703125 -0.621094,1.3007813 -1.382813,1.3007813 -0.808593,0 -1.113281,-0.5039063 -1.113281,-1.8867188 v -3.7382812 l -0.140625,-0.09375 -1.0078124,0.3164062 c -0.46875,0.1523438 -0.7148437,0.1875 -1.6171875,0.3046875 v 0.515625 l 0.6445313,0.046875 c 0.328125,0.023437 0.375,0.1523438 0.375,1.0078125 V -2.00375 c 0,1.44140625 0.7734376,2.25 2.1445316,2.25 0.421875,0 0.785156,-0.1171875 1.007812,-0.328125 z m 3.480469,-4.4765625 0.644531,0.046875 c 0.339844,0.023437 0.375,0.1523438 0.375,1.0078125 v 3.140625 c 0,0.77343755 -0.07031,0.8789063 -0.515625,0.91406255 l -0.503906,0.0234375 v 0.5390625 l 1.851562,-0.046875 c 0.292969,0 0.984375,0.01171875 1.945313,0.046875 v -0.5390625 l -0.503907,-0.0234375 c -0.445312,-0.0351563 -0.515625,-0.140625 -0.515625,-0.91406255 v -3.1171875 c 0,-0.5039062 0.585938,-0.9726562 1.21875,-0.9726562 0.9375,0 1.347657,0.5039062 1.347657,1.6523437 v 3.91406255 c 0.808593,-0.03515625 1.054687,-0.046875 1.289062,-0.046875 0.199219,0 0.199219,0 1.441406,0.046875 v -0.5390625 l -0.46875,-0.0234375 c -0.445312,-0.0351563 -0.515625,-0.140625 -0.515625,-0.91406255 v -2.671875 c 0,-1.1015625 -0.128906,-1.6523437 -0.503906,-2.0507812 -0.375,-0.3867188 -0.960937,-0.609375 -1.664062,-0.609375 -0.433594,0 -0.773438,0.09375 -0.996094,0.28125 l -1.148438,0.890625 v -1.078125 l -0.09375,-0.09375 c -1.488281,0.4921875 -1.886718,0.5742187 -2.683593,0.6210937 z m 14.015625,1.359375 c 0.09375,-0.9140625 0.164062,-1.3828125 0.292968,-2.015625 l -0.105468,-0.1875 c -0.65625,-0.234375 -0.960938,-0.2929687 -1.476563,-0.2929687 -0.539062,0 -0.949219,0.1054687 -1.289062,0.3046875 l -0.75,0.4453125 c -1.277344,0.7617187 -1.734375,1.4765625 -1.734375,2.7304687 0,2.2734375 1.136718,3.5273438 3.1875,3.5273438 0.714843,0 1.253906,-0.12890625 1.921875,-0.4921875 l 0.304687,-0.65625 -0.128906,-0.140625 c -0.492188,0.19921875 -0.808594,0.26953125 -1.21875,0.26953125 -1.40625,0 -2.285156,-1.13671875 -2.285156,-2.95312505 0,-1.3125 0.492187,-2.015625 1.40625,-2.015625 0.644531,0 1.21875,0.2929688 1.265625,0.6210938 l 0.09375,0.8554687 z m 3.896484,-2.4960937 -1.007812,0.3164062 c -0.457032,0.1523438 -0.808594,0.2109375 -1.40625,0.28125 -0.04687,0 -0.117188,0.011719 -0.210938,0.023437 v 0.515625 l 0.644531,0.046875 c 0.328125,0.023437 0.375,0.1523438 0.375,1.0078125 v 3.140625 c 0,0.77343755 -0.08203,0.8789063 -0.527343,0.91406255 l -0.492188,0.0234375 v 0.5390625 l 1.851563,-0.046875 c 0.28125,0 0.972656,0.01171875 1.933593,0.046875 v -0.5390625 l -0.503906,-0.0234375 c -0.445312,-0.0351563 -0.515625,-0.140625 -0.515625,-0.91406255 V -6.667813 Z m -0.773437,-3.3632815 c -0.621094,0 -1.101563,0.4570315 -1.101563,1.0546877 0,0.609375 0.480469,1.0898438 1.078125,1.0898438 0.585938,0 1.078125,-0.4804688 1.078125,-1.0664063 0,-0.5976562 -0.46875,-1.0781252 -1.054687,-1.0781252 z m 6.547851,3.3632815 c -2.273437,0 -3.539062,1.265625 -3.539062,3.5507812 0,2.203125 1.171875,3.4570313 3.257812,3.4570313 2.296875,0 3.585938,-1.3125 3.585938,-3.6328125 0,-2.1796875 -1.183594,-3.375 -3.304688,-3.375 z m -0.164062,0.6914062 c 1.03125,0 1.511718,1.0195313 1.511718,3.1289063 0,1.7460937 -0.398437,2.49609375 -1.371093,2.49609375 -1.03125,0 -1.570313,-1.04296875 -1.570313,-3.11718755 0,-1.734375 0.433594,-2.5078125 1.429688,-2.5078125 z M 39.386102,-7.25375 h 0.796875 l 1.875,-1.1601563 0.117187,-0.082031 c 0.480469,-0.2695313 0.621094,-0.46875 0.621094,-0.7851563 0,-0.3867187 -0.257813,-0.6328125 -0.632813,-0.6328125 -0.339843,0 -0.597656,0.1640625 -0.9375,0.5390625 z m 5.583984,1.6289062 0.644531,0.046875 c 0.339844,0.023437 0.375,0.1523438 0.375,1.0078125 v 3.140625 c 0,0.77343755 -0.07031,0.8789063 -0.515625,0.91406255 l -0.503906,0.0234375 v 0.5390625 l 1.851562,-0.046875 c 0.292969,0 0.984375,0.01171875 1.945313,0.046875 v -0.5390625 l -0.503906,-0.0234375 C 47.817742,-0.550625 47.74743,-0.65609375 47.74743,-1.4295313 v -3.1171875 c 0,-0.5039062 0.585937,-0.9726562 1.21875,-0.9726562 0.9375,0 1.347656,0.5039062 1.347656,1.6523437 v 3.91406255 c 0.808594,-0.03515625 1.054687,-0.046875 1.289062,-0.046875 0.199219,0 0.199219,0 1.441407,0.046875 v -0.5390625 l -0.46875,-0.0234375 C 52.130242,-0.550625 52.05993,-0.65609375 52.05993,-1.4295313 v -2.671875 c 0,-1.1015625 -0.128907,-1.6523437 -0.503907,-2.0507812 -0.375,-0.3867188 -0.960937,-0.609375 -1.664062,-0.609375 -0.433594,0 -0.773438,0.09375 -0.996094,0.28125 l -1.148437,0.890625 v -1.078125 l -0.09375,-0.09375 c -1.488282,0.4921875 -1.886719,0.5742187 -2.683594,0.6210937 z m 16.189453,-1.1367187 -1.007812,0.3164062 c -0.457032,0.1523438 -0.714844,0.1875 -1.617188,0.3046875 v 0.515625 l 0.644531,0.046875 c 0.328125,0.023437 0.375,0.1523438 0.375,1.0078125 v 3.140625 c 0,0.77343755 -0.07031,0.8789063 -0.515625,0.91406255 l -0.503906,0.0234375 v 0.5390625 l 1.851563,-0.046875 c 0.1875,0 0.222656,0 2.15625,0.046875 v -0.5390625 L 61.99157,-0.51546875 C 61.370477,-0.550625 61.300164,-0.63265625 61.300164,-1.4295313 v -2.8476562 c 0,-0.4453125 0.585938,-0.9140625 1.148438,-0.9140625 0.351562,0 0.621093,0.1757812 0.820312,0.515625 l 0.339844,-0.140625 0.07031,-1.8515625 c -0.140625,-0.058594 -0.328125,-0.09375 -0.527343,-0.09375 -0.398438,0 -0.679688,0.1757812 -1.21875,0.7617187 l -0.632813,0.6914063 v -1.359375 z m 6.811524,5.80078125 -0.07031,0.890625 0.07031,0.1171875 c 0.890625,-0.03515625 1.136718,-0.046875 1.300781,-0.046875 0.175781,0 0.410156,0.01171875 1.265625,0.046875 v -0.5390625 l -0.433594,-0.0351563 C 69.787469,-0.58578135 69.717156,-0.7264063 69.705438,-1.4060939 V -1.7107813 C 69.693719,-2.1678125 69.682,-2.56625 69.682,-2.9060938 c 0,-0.3984375 0.01172,-0.8554687 0.02344,-1.3945312 0.01172,-0.1875 0.01172,-0.3164063 0.01172,-0.421875 0,-1.2773438 -0.855468,-2.0390625 -2.308593,-2.0390625 -0.597657,0 -1.183594,0.1640625 -1.722657,0.4921875 l -0.761718,0.4570312 V -4.81625 l 0.433593,0.09375 0.316407,-0.7148438 c 0.04687,-0.09375 0.445312,-0.1992187 0.832031,-0.1992187 0.960937,0 1.417969,0.515625 1.464844,1.6875 L 66.705438,-3.69125 c -1.804688,0.375 -2.449219,0.9375 -2.449219,2.15625 0,1.16015625 0.585937,1.78125 1.675781,1.78125 0.316406,0 0.5625,-0.0585938 0.703125,-0.17578125 z m 0,-0.69140625 c -0.269532,0.375 -0.808594,0.6445312 -1.230469,0.6445312 -0.457031,0 -0.738281,-0.3398437 -0.738281,-0.9023437 0,-0.703125 0.304687,-0.984375 1.324218,-1.265625 l 0.644532,-0.1640625 z m 6.002929,-5.109375 -1.007812,0.3164062 c -0.457032,0.1523438 -0.808594,0.2109375 -1.40625,0.28125 -0.04687,0 -0.117188,0.011719 -0.210938,0.023437 v 0.515625 l 0.644531,0.046875 c 0.328125,0.023437 0.375,0.1523438 0.375,1.0078125 v 3.140625 c 0,0.77343755 -0.08203,0.8789063 -0.527343,0.91406255 l -0.492188,0.0234375 v 0.5390625 l 1.851563,-0.046875 c 0.28125,0 0.972656,0.01171875 1.933593,0.046875 v -0.5390625 l -0.503906,-0.0234375 C 74.18493,-0.550625 74.114617,-0.65609375 74.114617,-1.4295313 v -5.2382812 z m -0.773437,-3.3632815 c -0.621094,0 -1.101563,0.4570315 -1.101563,1.0546877 0,0.609375 0.480469,1.0898438 1.078125,1.0898438 0.585938,0 1.078125,-0.4804688 1.078125,-1.0664063 0,-0.5976562 -0.46875,-1.0781252 -1.054687,-1.0781252 z m 8.947265,4.042969 v -0.5039063 c -1.054687,0.058594 -1.546875,0.070312 -2.203125,0.070312 -0.457031,0 -1.3125,-0.011719 -3.375,-0.070312 l -0.105468,0.070312 -0.04687,1.921875 h 0.550781 l 0.04687,-0.3515625 c 0.08203,-0.6914062 0.28125,-0.84375 1.089844,-0.84375 h 1.6875 l -2.4375,3.4101563 c -0.304688,0.4101562 -0.5625,0.7617187 -1.488282,1.9453125 v 0.48046875 c 1.6875,-0.046875 1.6875,-0.046875 2.261719,-0.046875 l 3.914063,0.046875 0.07031,-0.0703125 c 0,-0.6328125 0.07031,-1.51171875 0.175781,-2.20312505 h -0.574218 l -0.07031,0.4453125 C 81.515008,-0.96078125 81.327508,-0.785 80.636102,-0.785 H 78.30407 Z m 10.954102,1.8164062 c 0.09375,-0.9140625 0.164062,-1.3828125 0.292969,-2.015625 l -0.105469,-0.1875 c -0.65625,-0.234375 -0.960938,-0.2929687 -1.476563,-0.2929687 -0.539062,0 -0.949218,0.1054687 -1.289062,0.3046875 l -0.75,0.4453125 c -1.277344,0.7617187 -1.734375,1.4765625 -1.734375,2.7304687 0,2.2734375 1.136719,3.5273438 3.1875,3.5273438 0.714844,0 1.253906,-0.12890625 1.921875,-0.4921875 l 0.304687,-0.65625 -0.128906,-0.140625 c -0.492187,0.19921875 -0.808594,0.26953125 -1.21875,0.26953125 -1.40625,0 -2.285156,-1.13671875 -2.285156,-2.95312505 0,-1.3125 0.492187,-2.015625 1.40625,-2.015625 0.644531,0 1.21875,0.2929688 1.265625,0.6210938 l 0.09375,0.8554687 z m 6.404297,3.1171875 -0.07031,1.19531255 c 1.183591,-0.046875 1.183591,-0.046875 1.347651,-0.046875 0.14063,0 0.38672,0 0.78516,0.0234375 0.10547,0 0.375,0 0.67969,0.0234375 v -0.5390625 l -0.48047,-0.0234375 c -0.44531,-0.0351563 -0.51563,-0.140625 -0.51563,-0.91406255 v -5.2382812 l -0.14062,-0.09375 -1.00781,0.3164062 c -0.468752,0.1523438 -0.726564,0.1875 -1.617189,0.3046875 v 0.515625 l 0.644531,0.046875 c 0.328125,0.023437 0.375,0.1523438 0.375,1.0078125 v 2.2265625 c 0,0.703125 -0.621094,1.3007813 -1.382813,1.3007813 -0.808593,0 -1.113281,-0.5039063 -1.113281,-1.8867188 v -3.7382812 l -0.140625,-0.09375 -1.007812,0.3164062 c -0.46875,0.1523438 -0.714844,0.1875 -1.617188,0.3046875 v 0.515625 l 0.644531,0.046875 c 0.328125,0.023437 0.375,0.1523438 0.375,1.0078125 V -2.00375 c 0,1.44140625 0.773438,2.25 2.144532,2.25 0.421875,0 0.785156,-0.1171875 1.007812,-0.328125 z m 7.429691,0.18750005 -0.0703,0.890625 0.0703,0.1171875 c 0.89062,-0.03515625 1.13672,-0.046875 1.30078,-0.046875 0.17578,0 0.41015,0.01171875 1.26562,0.046875 v -0.5390625 l -0.43359,-0.0351563 c -0.31641,-0.0585938 -0.38672,-0.19921875 -0.39844,-0.87890625 v -0.3046875 c -0.0117,-0.4570312 -0.0234,-0.8554687 -0.0234,-1.1953125 0,-0.3984375 0.0117,-0.8554687 0.0234,-1.3945312 0.0117,-0.1875 0.0117,-0.3164063 0.0117,-0.421875 0,-1.2773438 -0.85547,-2.0390625 -2.30859,-2.0390625 -0.59766,0 -1.1836,0.1640625 -1.72266,0.4921875 l -0.76172,0.4570312 V -4.81625 l 0.4336,0.09375 0.3164,-0.7148438 c 0.0469,-0.09375 0.44531,-0.1992187 0.83203,-0.1992187 0.96094,0 1.41797,0.515625 1.46485,1.6875 l -1.26563,0.2578125 c -1.80469,0.375 -2.44922,0.9375 -2.44922,2.15625 0,1.16015625 0.58594,1.78125 1.67578,1.78125 0.31641,0 0.5625,-0.0585938 0.70313,-0.17578125 z m 0,-0.69140625 c -0.26953,0.375 -0.8086,0.6445312 -1.23047,0.6445312 -0.45703,0 -0.73828,-0.3398437 -0.73828,-0.9023437 0,-0.703125 0.30468,-0.984375 1.32422,-1.265625 l 0.64453,-0.1640625 z m 10.17187,-8.5898435 -0.11719,-0.08203 -1.03125,0.316407 c -0.42187,0.128906 -0.90234,0.2109372 -1.73437,0.2929685 v 0.515625 l 0.76172,0.046875 c 0.3164,0.011719 0.36328,0.1640625 0.36328,1.0078125 v 1.7460937 l -0.28125,-0.1171875 c -0.39844,-0.1523437 -0.78516,-0.2460937 -1.14844,-0.2460937 -0.45703,0 -0.8789,0.140625 -1.26562,0.375 l -1.03125,0.6796875 c -0.82032,0.5390625 -1.20703,1.359375 -1.20703,2.5898437 0,2.0507813 1.0664,3.3632813 2.74218,3.3632813 0.32813,0 0.5625,-0.0585938 0.70313,-0.17578125 l 1.48828,-1.21875005 -0.0703,1.07812505 0.0703,0.1171875 c 0.86719,-0.03515625 1.13672,-0.046875 1.30078,-0.046875 0.10547,0 0.36328,0.01171875 0.77344,0.0234375 0.0937,0 0.375,0 0.66797,0.0234375 v -0.5390625 l -0.46875,-0.0234375 c -0.44532,-0.0351563 -0.51563,-0.140625 -0.51563,-0.91406255 z m -1.75781,7.9453122 c 0,0.6445313 -0.66797,1.1835938 -1.45313,1.1835938 -1.01953,0 -1.66406,-0.9960938 -1.66406,-2.5429688 0,-1.453125 0.49219,-2.1796875 1.51172,-2.1796875 0.62109,0 1.13672,0.28125 1.60547,0.9023438 z m 6.29297,-4.4648437 -1.00781,0.3164062 c -0.45704,0.1523438 -0.71485,0.1875 -1.61719,0.3046875 v 0.515625 l 0.64453,0.046875 c 0.32812,0.023437 0.375,0.1523438 0.375,1.0078125 v 3.140625 c 0,0.77343755 -0.0703,0.8789063 -0.51563,0.91406255 l -0.5039,0.0234375 v 0.5390625 l 1.85156,-0.046875 c 0.1875,0 0.22266,0 2.15625,0.046875 v -0.5390625 l -0.55078,-0.0234375 c -0.62109,-0.0351563 -0.69141,-0.1171875 -0.69141,-0.91406255 v -2.8476562 c 0,-0.4453125 0.58594,-0.9140625 1.14844,-0.9140625 0.35156,0 0.62109,0.1757812 0.82031,0.515625 l 0.33985,-0.140625 0.0703,-1.8515625 c -0.14063,-0.058594 -0.32813,-0.09375 -0.52734,-0.09375 -0.39844,0 -0.67969,0.1757812 -1.21875,0.7617187 l -0.63282,0.6914063 v -1.359375 z m 6.81152,5.80078125 -0.0703,0.890625 0.0703,0.1171875 c 0.89063,-0.03515625 1.13672,-0.046875 1.30078,-0.046875 0.17578,0 0.41016,0.01171875 1.26563,0.046875 v -0.5390625 l -0.4336,-0.0351563 c -0.3164,-0.0585938 -0.38672,-0.19921875 -0.39843,-0.87890625 v -0.3046875 c -0.0117,-0.4570312 -0.0234,-0.8554687 -0.0234,-1.1953125 0,-0.3984375 0.0117,-0.8554687 0.0234,-1.3945312 0.0117,-0.1875 0.0117,-0.3164063 0.0117,-0.421875 0,-1.2773438 -0.85546,-2.0390625 -2.30859,-2.0390625 -0.59766,0 -1.18359,0.1640625 -1.72266,0.4921875 l -0.76171,0.4570312 V -4.81625 l 0.43359,0.09375 0.31641,-0.7148438 c 0.0469,-0.09375 0.44531,-0.1992187 0.83203,-0.1992187 0.96093,0 1.41797,0.515625 1.46484,1.6875 l -1.26562,0.2578125 c -1.80469,0.375 -2.44922,0.9375 -2.44922,2.15625 0,1.16015625 0.58593,1.78125 1.67578,1.78125 0.3164,0 0.5625,-0.0585938 0.70312,-0.17578125 z m 0,-0.69140625 c -0.26953,0.375 -0.80859,0.6445312 -1.23047,0.6445312 -0.45703,0 -0.73828,-0.3398437 -0.73828,-0.9023437 0,-0.703125 0.30469,-0.984375 1.32422,-1.265625 l 0.64453,-0.1640625 z m 10.17481,-8.5898435 -0.11719,-0.08203 -1.03125,0.316407 c -0.42188,0.128906 -0.90235,0.2109372 -1.73438,0.2929685 v 0.515625 l 0.76172,0.046875 c 0.31641,0.011719 0.36328,0.1640625 0.36328,1.0078125 v 1.7460937 l -0.28125,-0.1171875 c -0.39843,-0.1523437 -0.78515,-0.2460937 -1.14843,-0.2460937 -0.45704,0 -0.87891,0.140625 -1.26563,0.375 l -1.03125,0.6796875 c -0.82031,0.5390625 -1.20703,1.359375 -1.20703,2.5898437 0,2.0507813 1.06641,3.3632813 2.74219,3.3632813 0.32812,0 0.5625,-0.0585938 0.70312,-0.17578125 l 1.48828,-1.21875005 -0.0703,1.07812505 0.0703,0.1171875 c 0.86719,-0.03515625 1.13672,-0.046875 1.30078,-0.046875 0.10547,0 0.36329,0.01171875 0.77344,0.0234375 0.0937,0 0.375,0 0.66797,0.0234375 v -0.5390625 l -0.46875,-0.0234375 c -0.44531,-0.0351563 -0.51562,-0.140625 -0.51562,-0.91406255 z m -1.75782,7.9453122 c 0,0.6445313 -0.66797,1.1835938 -1.45312,1.1835938 -1.01953,0 -1.66406,-0.9960938 -1.66406,-2.5429688 0,-1.453125 0.49218,-2.1796875 1.51171,-2.1796875 0.6211,0 1.13672,0.28125 1.60547,0.9023438 z m 7.52344,1.33593755 -0.0703,0.890625 0.0703,0.1171875 c 0.89063,-0.03515625 1.13672,-0.046875 1.30078,-0.046875 0.17578,0 0.41016,0.01171875 1.26563,0.046875 v -0.5390625 l -0.4336,-0.0351563 c -0.3164,-0.0585938 -0.38672,-0.19921875 -0.39843,-0.87890635 v -0.3046875 c -0.0117,-0.4570312 -0.0234,-0.8554687 -0.0234,-1.1953125 0,-0.3984375 0.0117,-0.8554687 0.0234,-1.3945312 0.0117,-0.1875 0.0117,-0.3164063 0.0117,-0.421875 0,-1.2773438 -0.85546,-2.0390625 -2.30859,-2.0390625 -0.59766,0 -1.18359,0.1640625 -1.72266,0.4921875 l -0.76171,0.4570312 V -4.81625 l 0.43359,0.09375 0.31641,-0.7148438 c 0.0469,-0.09375 0.44531,-0.1992187 0.83203,-0.1992187 0.96093,0 1.41797,0.515625 1.46484,1.6875 l -1.26562,0.2578125 c -1.80469,0.375 -2.44922,0.9375 -2.44922,2.15625 0,1.16015625 0.58593,1.78125 1.67578,1.78125 0.3164,0 0.5625,-0.0585938 0.70312,-0.17578125 z m 0,-0.69140625 c -0.26953,0.375 -0.80859,0.6445312 -1.23047,0.6445312 -0.45703,0 -0.73828,-0.3398437 -0.73828,-0.9023437 0,-0.703125 0.30469,-0.984375 1.32422,-1.265625 l 0.64453,-0.1640625 z m 0,0"
         style="fill:#000000;fill-opacity:1;fill-rule:nonzero;stroke:none" />
      <path
         id="path135"
         d="m 149.0443,-1.5935938 c -0.43359,0 -0.82031,0.3984375 -0.82031,0.8320313 0,0.43359375 0.38672,0.83203125 0.79688,0.83203125 0.45703,0 0.86718,-0.38671875 0.86718,-0.83203125 0,-0.4335938 -0.41015,-0.8320313 -0.84375,-0.8320313 z m 0,-4.9453125 c -0.43359,0 -0.82031,0.3984375 -0.82031,0.8320313 0,0.4335937 0.38672,0.8320312 0.79688,0.8320312 0.45703,0 0.86718,-0.3867187 0.86718,-0.8203125 0,-0.4453125 -0.41015,-0.84375 -0.84375,-0.84375 z m 6.8379,-2.953125 0.6914,0.035156 c 0.65625,0.046875 0.72656,0.1640625 0.72656,1.3007812 V -1.7225 c 0,1.13671875 -0.0586,1.23046875 -0.72656,1.2890625 l -0.51562,0.046875 v 0.43359375 c 0.9375,-0.03515625 1.35937,-0.046875 1.75781,-0.046875 0.0703,0 0.48047,0 1.01953,0.01171875 1.99219,0.03515625 1.99219,0.03515625 2.30859,0.03515625 0.44532,0 0.44532,0 2.40235,-0.046875 0,-0.83203125 0.082,-1.60546875 0.22265,-2.35546875 h -0.5039 c -0.0234,0.234375 -0.0586,0.4335937 -0.0703,0.4921875 -0.082,0.6210937 -0.26954,1.0546875 -0.46875,1.13671875 -0.30469,0.09375 -1.34766,0.1640625 -2.63672,0.1640625 -0.75,0 -1.00782,-0.0234375 -1.42969,-0.1171875 V -4.6873438 c 0.41016,-0.035156 0.83203,-0.046875 1.47656,-0.046875 1.06641,0 1.45313,0.046875 1.71094,0.1757813 l 0.11719,0.3515625 0.0703,0.8554687 h 0.43359 c -0.0469,-1.3359375 -0.0469,-1.3359375 -0.0469,-1.59375 0,-0.234375 0,-0.234375 0.0469,-1.6640625 h -0.43359 l -0.0703,0.7382813 c -0.0117,0.1289062 -0.0586,0.2578125 -0.11719,0.375 -0.25781,0.1171875 -0.65625,0.1640625 -1.60547,0.1640625 -0.59766,0 -1.08984,-0.023437 -1.58203,-0.046875 v -3.8320313 c 0.44531,-0.09375 0.69141,-0.1171875 1.6875,-0.1171875 0.80859,0 1.61719,0.082031 2.07422,0.2109375 0.33984,0.082031 0.38672,0.1523438 0.38672,0.4804688 v 0.9375 h 0.5039 c 0,-0.8671875 0.0703,-1.546875 0.23438,-2.1796875 -0.70313,-0.035156 -1.14844,-0.046875 -1.78125,-0.046875 -0.36328,0 -0.83203,0 -1.41797,0.011719 -0.91406,0.011719 -1.52344,0.035156 -1.91016,0.035156 -0.49218,0 -1.13672,-0.023437 -2.55468,-0.046875 z m 9.03515,7.4414063 c 0,0.984375 -0.0351,1.41796875 -0.15234,1.9921875 0.73828,0.24609375 1.30078,0.33984375 1.95703,0.33984375 1.88672,0 3.22266,-0.99609375 3.22266,-2.40234375 0,-0.4453125 -0.12891,-0.7734375 -0.41016,-1.0664063 -0.375,-0.3515625 -0.84375,-0.5273437 -2.10938,-0.7734375 -1.17187,-0.2226562 -1.55859,-0.515625 -1.55859,-1.171875 0,-0.7148437 0.50391,-1.125 1.37109,-1.125 0.96094,0 1.69922,0.5039063 1.69922,1.1835938 v 0.328125 h 0.39844 c 0.0117,-0.8320313 0.0352,-1.1835938 0.0703,-1.6171875 -0.76172,-0.2578125 -1.27734,-0.3632813 -1.86328,-0.3632813 -1.66406,0 -2.68359,0.7851563 -2.68359,2.0742188 0,0.6914062 0.3164,1.1835937 0.98437,1.4765625 0.38672,0.1757812 1.13672,0.4101562 2.1211,0.6210937 0.64453,0.140625 0.91406,0.4453125 0.91406,0.9960938 0,0.7734375 -0.71484,1.3125 -1.73438,1.3125 -1.04296,0 -1.79296,-0.50390625 -1.79296,-1.21875 V -2.050625 Z m 17.41992,-4.6171875 -0.1289,-0.058594 c -0.73828,0.3046875 -1.47657,0.5039063 -2.23828,0.5859375 v 0.3984375 h 0.52734 c 0.57422,0 0.63281,0.1054688 0.63281,1.0546875 v 2.3320313 c 0,0.3164062 -0.19922,0.7148437 -0.52734,1.0546875 -0.41016,0.3984375 -0.86719,0.59765625 -1.42969,0.59765625 -0.49219,0 -0.90234,-0.15234375 -1.125,-0.43359375 -0.19922,-0.2226563 -0.30469,-0.6679688 -0.30469,-1.3007813 v -4.2304687 l -0.1289,-0.058594 c -0.72657,0.3046875 -1.47657,0.5039063 -2.23828,0.5859375 v 0.3984375 h 0.52734 c 0.57422,0 0.63281,0.1054688 0.63281,1.0546875 V -2.285 c 0,1.0078125 0.0937,1.453125 0.35156,1.81640625 0.30469,0.421875 0.85547,0.64453125 1.67579,0.64453125 0.64453,0 1.21875,-0.19921875 1.60546,-0.5625 l 0.96094,-0.890625 c 0,0.421875 -0.0117,0.64453125 -0.0586,1.32421875 0.96094,-0.046875 0.97265,-0.046875 1.19531,-0.046875 0.19922,0 0.19922,0 1.18359,0.046875 V -0.3865625 l -0.58593,-0.046875 c -0.49219,-0.0234375 -0.52735,-0.1171875 -0.52735,-1.03125 z m 7.31543,6.71484375 c 0.87891,-0.046875 0.89063,-0.046875 1.13672,-0.046875 0.19922,0 0.19922,0 1.1836,0.046875 V -0.3865625 l -0.58594,-0.046875 c -0.49219,-0.0234375 -0.52735,-0.1171875 -0.52735,-1.03125 v -2.765625 c 0,-1.6757813 -0.79687,-2.4960938 -2.40234,-2.4960938 -0.52734,0 -0.83203,0.1054688 -1.125,0.3632813 l -1.08984,0.9375 v -1.2421875 l -0.12891,-0.058594 c -0.73828,0.3046875 -1.48828,0.5039063 -2.23828,0.5859375 v 0.3984375 h 0.52734 c 0.57422,0 0.63282,0.1054688 0.63282,1.0546875 v 3.2226563 c 0,0.90234375 -0.0469,1.0078125 -0.53907,1.03125 l -0.64453,0.046875 v 0.43359375 c 0.98438,-0.03515625 1.3711,-0.046875 1.78125,-0.046875 0.42188,0 0.8086,0.01171875 1.78125,0.046875 V -0.3865625 l -0.64453,-0.046875 c -0.49219,-0.0234375 -0.52734,-0.12890625 -0.52734,-1.03125 v -3.0351563 c 0,-0.6445312 0.9375,-1.3476562 1.8164,-1.3476562 0.96094,0 1.59375,0.7148437 1.59375,1.8164062 z m 7.11914,-1.21875005 -0.082,1.21875005 c 0.9375,-0.046875 0.9375,-0.046875 1.125,-0.046875 0.0703,0 0.4336,0.01171875 1.06641,0.046875 V -0.3865625 L 198.31872,-0.41 c -0.35156,-0.0234375 -0.41016,-0.140625 -0.41016,-0.8320313 v -2.625 c 0,-2.0976562 -0.59765,-2.859375 -2.26172,-2.859375 -0.62109,0 -1.18359,0.1523438 -1.73437,0.4921875 l -0.76172,0.4570313 v 0.9257812 l 0.375,0.1054688 0.1875,-0.4453125 c 0.30469,-0.6796875 0.44531,-0.7734375 1.10156,-0.7734375 1.34766,0 1.91016,0.5273437 1.95703,1.828125 l -1.42968,0.2695312 c -1.94532,0.3515625 -2.76563,1.03125 -2.76563,2.2734375 0,1.12500005 0.67969,1.7695313 1.80469,1.7695313 0.25781,0 0.50391,-0.046875 0.60937,-0.1171875 z m 0,-0.609375 c -0.42187,0.5859375 -1.32421,1.1367188 -1.88671,1.1367188 -0.57422,0 -1.07813,-0.5273438 -1.07813,-1.1484375 0,-0.5273438 0.29297,-1.03125 0.72656,-1.3007813 0.35157,-0.2226562 1.14844,-0.421875 2.23828,-0.5742187 z m 12.11426,-8.5078122 c -0.29297,-0.105469 -0.46875,-0.152344 -0.65625,-0.152344 -0.45703,0 -0.96094,0.246094 -1.27734,0.5976562 l -0.83203,0.9492188 c -0.41016,0.4804687 -0.59766,1.125 -0.59766,2.0625 V -6.2225 l -0.99609,0.4453125 v 0.3164062 l 0.99609,-0.058594 v 4.0546875 c 0,0.90234375 -0.0469,1.0078125 -0.53906,1.03125 l -0.65625,0.046875 v 0.43359375 c 1.4414,-0.046875 1.4414,-0.046875 1.79297,-0.046875 0.36328,0 0.36328,0 1.79297,0.046875 V -0.3865625 l -0.65625,-0.046875 c -0.49219,-0.0234375 -0.52735,-0.12890625 -0.52735,-1.03125 V -5.519375 h 1.76953 l 0.10547,-0.7617188 -1.875,0.058594 v -1.21875 c 0,-1.6523438 0.17578,-2.0507813 0.9961,-2.0507813 0.38671,0 0.64453,0.09375 0.99609,0.3984375 l 0.16406,-0.082031 z m 7.10742,3.6210935 -0.1289,-0.058594 c -0.73828,0.3046875 -1.47657,0.5039063 -2.23828,0.5859375 v 0.3984375 h 0.52734 c 0.57422,0 0.63281,0.1054688 0.63281,1.0546875 v 2.3320313 c 0,0.3164062 -0.19922,0.7148437 -0.52734,1.0546875 -0.41016,0.3984375 -0.86719,0.59765625 -1.42969,0.59765625 -0.49219,0 -0.90234,-0.15234375 -1.125,-0.43359375 -0.19922,-0.2226563 -0.30469,-0.6679688 -0.30469,-1.3007813 v -4.2304687 l -0.1289,-0.058594 c -0.72657,0.3046875 -1.47657,0.5039063 -2.23828,0.5859375 v 0.3984375 h 0.52734 c 0.57422,0 0.63281,0.1054688 0.63281,1.0546875 V -2.285 c 0,1.0078125 0.0937,1.453125 0.35156,1.81640625 0.30469,0.421875 0.85547,0.64453125 1.67579,0.64453125 0.64453,0 1.21875,-0.19921875 1.60546,-0.5625 l 0.96094,-0.890625 c 0,0.421875 -0.0117,0.64453125 -0.0586,1.32421875 0.96094,-0.046875 0.97265,-0.046875 1.19531,-0.046875 0.19922,0 0.19922,0 1.18359,0.046875 V -0.3865625 l -0.58593,-0.046875 c -0.49219,-0.0234375 -0.52735,-0.1171875 -0.52735,-1.03125 z m 7.31543,6.71484375 c 0.87891,-0.046875 0.89063,-0.046875 1.13672,-0.046875 0.19922,0 0.19922,0 1.1836,0.046875 V -0.3865625 l -0.58594,-0.046875 c -0.49219,-0.0234375 -0.52735,-0.1171875 -0.52735,-1.03125 v -2.765625 c 0,-1.6757813 -0.79687,-2.4960938 -2.40234,-2.4960938 -0.52734,0 -0.83203,0.1054688 -1.125,0.3632813 l -1.08984,0.9375 v -1.2421875 l -0.12891,-0.058594 c -0.73828,0.3046875 -1.48828,0.5039063 -2.23828,0.5859375 v 0.3984375 h 0.52734 c 0.57422,0 0.63282,0.1054688 0.63282,1.0546875 v 3.2226563 c 0,0.90234375 -0.0469,1.0078125 -0.53907,1.03125 l -0.64453,0.046875 v 0.43359375 c 0.98438,-0.03515625 1.3711,-0.046875 1.78125,-0.046875 0.42188,0 0.8086,0.01171875 1.78125,0.046875 V -0.3865625 l -0.64453,-0.046875 c -0.49219,-0.0234375 -0.52734,-0.12890625 -0.52734,-1.03125 v -3.0351563 c 0,-0.6445312 0.9375,-1.3476562 1.8164,-1.3476562 0.96094,0 1.59375,0.7148437 1.59375,1.8164062 z m 8.18555,-4.51171875 c 0,-0.65625 0.0703,-1.2421875 0.21094,-1.7578125 -0.57422,-0.3515625 -1.07813,-0.5039063 -1.66406,-0.5039063 -0.69141,0 -1.5,0.2695313 -2.35547,0.8203125 -1.00782,0.6328125 -1.53516,1.6289063 -1.53516,2.8945313 0,1.9335937 1.35938,3.29296875 3.28125,3.29296875 0.75,0 1.82813,-0.26953125 1.96875,-0.48046875 l 0.30469,-0.45703125 -0.15235,-0.22265625 c -0.52734,0.29296875 -0.98437,0.421875 -1.5,0.421875 -1.59375,0 -2.63671,-1.2304688 -2.63671,-3.1289063 0,-1.5351562 0.71484,-2.390625 2.0039,-2.390625 0.63281,0 1.32422,0.28125 1.58203,0.6445313 l 0.0937,0.8671875 z m 3.3457,-2.203125 -0.1289,-0.058594 c -0.72657,0.3046875 -1.47657,0.5039063 -2.23828,0.5859375 v 0.3984375 h 0.52734 c 0.57422,0 0.63281,0.1054688 0.63281,1.0546875 v 3.2226563 c 0,0.90234375 -0.0352,1.0078125 -0.52734,1.03125 l -0.65625,0.046875 v 0.43359375 c 1.42969,-0.046875 1.42969,-0.046875 1.79297,-0.046875 0.35156,0 0.35156,0 1.79297,0.046875 V -0.3865625 l -0.66797,-0.046875 c -0.48047,-0.0234375 -0.52735,-0.12890625 -0.52735,-1.03125 z m -0.65625,-3.1875 c -0.43359,0 -0.80859,0.375 -0.80859,0.8085937 0,0.4101563 0.375,0.7851563 0.79687,0.7851563 0.41016,0 0.79688,-0.375 0.79688,-0.7851563 0,-0.4101562 -0.38672,-0.8085937 -0.78516,-0.8085937 z m 6.13184,3.1289062 c -2.08594,0 -3.53906,1.4765625 -3.53906,3.609375 0,2.0273438 1.27734,3.39843755 3.1289,3.39843755 2.20313,0 3.78516,-1.52343755 3.78516,-3.67968755 0,-1.9335937 -1.40625,-3.328125 -3.375,-3.328125 z m -0.25781,0.46875 c 1.32422,0 2.29687,1.4414063 2.29687,3.3867188 0,1.6523437 -0.72656,2.68359375 -1.88672,2.68359375 -1.40625,0 -2.35547,-1.37109375 -2.35547,-3.41015625 0,-1.7226563 0.69141,-2.6601563 1.94532,-2.6601563 z M 238.8861,-7.25375 h 0.57422 l 2.0625,-1.3007813 c 0.48047,-0.2929687 0.57422,-0.4101562 0.57422,-0.6679687 0,-0.2695313 -0.19922,-0.4921875 -0.44531,-0.4921875 -0.21094,0 -0.46875,0.1640625 -0.78516,0.4804687 z m 11.15039,7.30078125 c 0.87891,-0.046875 0.89063,-0.046875 1.13672,-0.046875 0.19922,0 0.19922,0 1.18359,0.046875 V -0.3865625 l -0.58593,-0.046875 c -0.49219,-0.0234375 -0.52735,-0.1171875 -0.52735,-1.03125 v -2.765625 c 0,-1.6757813 -0.79687,-2.4960938 -2.40234,-2.4960938 -0.52734,0 -0.83203,0.1054688 -1.125,0.3632813 l -1.08984,0.9375 v -1.2421875 l -0.12891,-0.058594 c -0.73828,0.3046875 -1.48828,0.5039063 -2.23828,0.5859375 v 0.3984375 h 0.52734 c 0.57422,0 0.63281,0.1054688 0.63281,1.0546875 v 3.2226563 c 0,0.90234375 -0.0469,1.0078125 -0.53906,1.03125 l -0.64453,0.046875 v 0.43359375 c 0.98438,-0.03515625 1.37109,-0.046875 1.78125,-0.046875 0.42188,0 0.80859,0.01171875 1.78125,0.046875 V -0.3865625 l -0.64453,-0.046875 c -0.49219,-0.0234375 -0.52734,-0.12890625 -0.52734,-1.03125 v -3.0351563 c 0,-0.6445312 0.9375,-1.3476562 1.8164,-1.3476562 0.96094,0 1.59375,0.7148437 1.59375,1.8164062 z m 7.3125,-5.78906255 h 0.53906 c 0.5625,0 0.6211,0.1054688 0.6211,1.0546875 v 7.2070313 c 0,0.9140625 -0.0352,1.0078125 -0.52735,1.0429687 l -0.65625,0.035156 v 0.4335937 c 1.42969,-0.046875 1.42969,-0.046875 1.79297,-0.046875 0.35157,0 0.35157,0 1.79297,0.046875 V 3.5978125 l -0.66797,-0.035156 C 259.76305,3.5275 259.71618,3.43375 259.71618,2.5196875 v -2.70703125 c 0.43359,0.2578125 0.89062,0.36328125 1.53516,0.36328125 0.42187,0 0.78515,-0.09375 1.01953,-0.234375 l 1.64062,-1.0546875 c 0.57422,-0.375 1.24219,-1.8515625 1.24219,-2.7773438 0,-1.59375 -1.32422,-2.8359375 -2.97656,-2.8359375 -0.53907,0 -1.05469,0.140625 -1.27735,0.3632813 l -1.18359,1.0664062 v -1.3710937 l -0.12891,-0.058594 c -0.72656,0.3046875 -1.47656,0.5039063 -2.23828,0.5859375 z m 2.36719,1.3476563 c 0,-0.1992188 0.0703,-0.3515625 0.25781,-0.5976563 0.42188,-0.5273437 1.00781,-0.796875 1.72266,-0.796875 1.34765,0 2.21484,0.9375 2.21484,2.4375 0,1.6054688 -0.96094,2.78906255 -2.26172,2.78906255 -0.78515,0 -1.37109,-0.2578125 -1.93359,-0.84375005 z m 10.11035,-2.3320313 c -2.08594,0 -3.53906,1.4765625 -3.53906,3.609375 0,2.0273438 1.27734,3.39843755 3.12891,3.39843755 2.20312,0 3.78515,-1.52343755 3.78515,-3.67968755 0,-1.9335937 -1.40625,-3.328125 -3.375,-3.328125 z m -0.25781,0.46875 c 1.32422,0 2.29687,1.4414063 2.29687,3.3867188 0,1.6523437 -0.72656,2.68359375 -1.88671,2.68359375 -1.40625,0 -2.35547,-1.37109375 -2.35547,-3.41015625 0,-1.7226563 0.6914,-2.6601563 1.94531,-2.6601563 z m 5.50195,0.7734375 V -1.3475 c 0,1.06640625 0.46875,1.5234375 1.58203,1.5234375 0.32813,0 0.66797,-0.0703125 0.75,-0.17578125 l 0.69141,-0.76171875 -0.1875,-0.2460938 c -0.35156,0.1992188 -0.57422,0.28125005 -0.84375,0.28125005 -0.5625,0 -0.78516,-0.29296875 -0.78516,-0.99609375 v -3.7617188 h 1.82813 l 0.1289,-0.7734375 -1.95703,0.09375 v -0.5507812 c 0,-0.5976563 0.0352,-1.1132813 0.15235,-2.0390625 l -0.16407,-0.1523438 c -0.35156,0.2109375 -0.78515,0.3984375 -1.21875,0.5390625 0.0352,0.4335938 0.0469,0.703125 0.0469,1.1367188 V -6.2225 l -1.11328,0.5039062 v 0.2929688 z m 9.53906,4.4765625 -0.1875,-0.140625 c -0.91406,0.5507813 -1.2539,0.67968755 -1.86328,0.67968755 -0.9375,0 -1.71093,-0.421875 -2.10937,-1.12500005 -0.26953,-0.46875 -0.375,-0.8789062 -0.39844,-1.7109375 h 2.08594 c 0.99609,0 1.60547,-0.035156 2.60156,-0.1992187 0.0117,-0.1992188 0.0234,-0.328125 0.0234,-0.4921875 0,-1.6523438 -1.05469,-2.7304688 -2.66016,-2.7304688 -0.53906,0 -1.14844,0.1875 -1.73437,0.5273438 -1.1836,0.6796875 -1.65235,1.5703125 -1.65235,3.0585937 0,0.9023438 0.21094,1.6757813 0.59766,2.22656255 0.57422,0.76171875 1.53516,1.1953125 2.61328,1.1953125 0.52734,0 1.06641,-0.10546875 1.65234,-0.36328125 0.38672,-0.1640625 0.69141,-0.3515625 0.73829,-0.43359375 z m -1.125,-2.8242187 c -0.73828,0.035156 -1.08984,0.046875 -1.60546,0.046875 -0.65625,0 -1.03125,-0.011719 -1.80469,-0.082031 0,-0.6796875 0.0586,-0.9960937 0.24609,-1.3710937 0.30469,-0.6328125 0.91406,-1.0195313 1.60547,-1.0195313 0.46875,0 0.84375,0.1875 1.10156,0.5742188 0.31641,0.4804687 0.42188,0.890625 0.45703,1.8515622 z m 7.61133,3.87890625 c 0.87891,-0.046875 0.89063,-0.046875 1.13672,-0.046875 0.19922,0 0.19922,0 1.1836,0.046875 V -0.3865625 l -0.58594,-0.046875 c -0.49219,-0.0234375 -0.52735,-0.1171875 -0.52735,-1.03125 v -2.765625 c 0,-1.6757813 -0.79687,-2.4960938 -2.40234,-2.4960938 -0.52734,0 -0.83203,0.1054688 -1.125,0.3632813 l -1.08984,0.9375 v -1.2421875 l -0.12891,-0.058594 c -0.73828,0.3046875 -1.48828,0.5039063 -2.23828,0.5859375 v 0.3984375 h 0.52734 c 0.57422,0 0.63282,0.1054688 0.63282,1.0546875 v 3.2226563 c 0,0.90234375 -0.0469,1.0078125 -0.53907,1.03125 l -0.64453,0.046875 v 0.43359375 c 0.98438,-0.03515625 1.3711,-0.046875 1.78125,-0.046875 0.42188,0 0.8086,0.01171875 1.78125,0.046875 V -0.3865625 l -0.64453,-0.046875 c -0.49219,-0.0234375 -0.52734,-0.12890625 -0.52734,-1.03125 v -3.0351563 c 0,-0.6445312 0.9375,-1.3476562 1.8164,-1.3476562 0.96094,0 1.59375,0.7148437 1.59375,1.8164062 z m 8.18555,-4.51171875 c 0,-0.65625 0.0703,-1.2421875 0.21094,-1.7578125 -0.57422,-0.3515625 -1.07813,-0.5039063 -1.66407,-0.5039063 -0.6914,0 -1.5,0.2695313 -2.35546,0.8203125 -1.00782,0.6328125 -1.53516,1.6289063 -1.53516,2.8945313 0,1.9335937 1.35937,3.29296875 3.28125,3.29296875 0.75,0 1.82812,-0.26953125 1.96875,-0.48046875 L 299.49255,-0.65609375 299.3402,-0.87875 c -0.52734,0.29296875 -0.98437,0.421875 -1.5,0.421875 -1.59375,0 -2.63672,-1.2304688 -2.63672,-3.1289063 0,-1.5351562 0.71485,-2.390625 2.00391,-2.390625 0.63281,0 1.32422,0.28125 1.58203,0.6445313 l 0.0937,0.8671875 z m 3.3457,-2.203125 -0.1289,-0.058594 c -0.72657,0.3046875 -1.47657,0.5039063 -2.23828,0.5859375 v 0.3984375 h 0.52734 c 0.57422,0 0.63281,0.1054688 0.63281,1.0546875 v 3.2226563 c 0,0.90234375 -0.0351,1.0078125 -0.52734,1.03125 l -0.65625,0.046875 v 0.43359375 c 1.42969,-0.046875 1.42969,-0.046875 1.79297,-0.046875 0.35156,0 0.35156,0 1.79297,0.046875 V -0.3865625 l -0.66797,-0.046875 c -0.48047,-0.0234375 -0.52735,-0.12890625 -0.52735,-1.03125 z m -0.65625,-3.1875 c -0.43359,0 -0.80859,0.375 -0.80859,0.8085937 0,0.4101563 0.375,0.7851563 0.79687,0.7851563 0.41016,0 0.79688,-0.375 0.79688,-0.7851563 0,-0.4101562 -0.38672,-0.8085937 -0.78516,-0.8085937 z m 6.78809,8.6835937 -0.082,1.21875005 c 0.9375,-0.046875 0.9375,-0.046875 1.125,-0.046875 0.0703,0 0.43359,0.01171875 1.0664,0.046875 V -0.3865625 L 310.30602,-0.41 c -0.35156,-0.0234375 -0.41015,-0.140625 -0.41015,-0.8320313 v -2.625 c 0,-2.0976562 -0.59766,-2.859375 -2.26172,-2.859375 -0.6211,0 -1.1836,0.1523438 -1.73438,0.4921875 l -0.76172,0.4570313 v 0.9257812 l 0.375,0.1054688 0.1875,-0.4453125 c 0.30469,-0.6796875 0.44532,-0.7734375 1.10157,-0.7734375 1.34765,0 1.91015,0.5273437 1.95703,1.828125 l -1.42969,0.2695312 c -1.94531,0.3515625 -2.76562,1.03125 -2.76562,2.2734375 0,1.12500005 0.67968,1.7695313 1.80468,1.7695313 0.25782,0 0.50391,-0.046875 0.60938,-0.1171875 z m 0,-0.609375 c -0.42188,0.5859375 -1.32422,1.1367188 -1.88672,1.1367188 -0.57422,0 -1.07813,-0.5273438 -1.07813,-1.1484375 0,-0.5273438 0.29297,-1.03125 0.72657,-1.3007813 0.35156,-0.2226562 1.14843,-0.421875 2.23828,-0.5742187 z m 12.93164,-2.6835937 c 0,-0.65625 0.0703,-1.2421875 0.21094,-1.7578125 -0.57422,-0.3515625 -1.07813,-0.5039063 -1.66407,-0.5039063 -0.6914,0 -1.5,0.2695313 -2.35546,0.8203125 -1.00782,0.6328125 -1.53516,1.6289063 -1.53516,2.8945313 0,1.9335937 1.35937,3.29296875 3.28125,3.29296875 0.75,0 1.82812,-0.26953125 1.96875,-0.48046875 l 0.30469,-0.45703125 -0.15235,-0.22265625 c -0.52734,0.29296875 -0.98437,0.421875 -1.5,0.421875 -1.59375,0 -2.63672,-1.2304688 -2.63672,-3.1289063 0,-1.5351562 0.71485,-2.390625 2.00391,-2.390625 0.63281,0 1.32422,0.28125 1.58203,0.6445313 l 0.0937,0.8671875 z m 4.64648,-2.2617188 c -2.08593,0 -3.53906,1.4765625 -3.53906,3.609375 0,2.0273438 1.27734,3.39843755 3.12891,3.39843755 2.20312,0 3.78515,-1.52343755 3.78515,-3.67968755 0,-1.9335937 -1.40625,-3.328125 -3.375,-3.328125 z m -0.25781,0.46875 c 1.32422,0 2.29688,1.4414063 2.29688,3.3867188 0,1.6523437 -0.72657,2.68359375 -1.88672,2.68359375 -1.40625,0 -2.35547,-1.37109375 -2.35547,-3.41015625 0,-1.7226563 0.6914,-2.6601563 1.94531,-2.6601563 z m 9.97852,6.30468755 c 0.8789,-0.046875 0.89062,-0.046875 1.13672,-0.046875 0.19921,0 0.19921,0 1.18359,0.046875 V -0.3865625 l -0.58594,-0.046875 c -0.49219,-0.0234375 -0.52734,-0.1171875 -0.52734,-1.03125 v -2.765625 c 0,-1.6757813 -0.79688,-2.4960938 -2.40235,-2.4960938 -0.52734,0 -0.83203,0.1054688 -1.125,0.3632813 l -1.08984,0.9375 v -1.2421875 l -0.12891,-0.058594 c -0.73828,0.3046875 -1.48828,0.5039063 -2.23828,0.5859375 v 0.3984375 h 0.52735 c 0.57422,0 0.63281,0.1054688 0.63281,1.0546875 v 3.2226563 c 0,0.90234375 -0.0469,1.0078125 -0.53906,1.03125 l -0.64453,0.046875 v 0.43359375 c 0.98437,-0.03515625 1.37109,-0.046875 1.78125,-0.046875 0.42187,0 0.80859,0.01171875 1.78125,0.046875 V -0.3865625 l -0.64454,-0.046875 c -0.49218,-0.0234375 -0.52734,-0.12890625 -0.52734,-1.03125 v -3.0351563 c 0,-0.6445312 0.9375,-1.3476562 1.81641,-1.3476562 0.96093,0 1.59375,0.7148437 1.59375,1.8164062 z m 0,0"
         style="fill:#000000;fill-opacity:1;fill-rule:nonzero;stroke:none" />
      <path
         id="path136"
         d="m 349.39098,-6.7732813 -0.14062,-0.1289062 -0.48047,0.2578125 c -0.58594,-0.2109375 -0.83203,-0.2695313 -1.21875,-0.2695313 -0.39844,0 -0.67969,0.070312 -1.06641,0.2578125 -0.89062,0.4453125 -1.37109,0.8789063 -1.72265,1.5820313 -0.63281,1.2773437 -1.07813,3 -1.07813,4.11328125 0,0.6328125 0.21094,1.11328125 0.49219,1.11328125 0.30469,0 0.85547,-0.3046875 1.39453,-0.796875 0.60938,-0.5507813 1.17188,-1.1953125 1.94531,-2.2851563 l -0.42187,1.828125 c -0.0586,0.2460938 -0.082,0.5039063 -0.082,0.72656255 0,0.31640625 0.1289,0.50390625 0.33984,0.50390625 0.32813,0 0.92578,-0.375 2.09766,-1.3476563 l -0.10547,-0.3046875 c -0.082,0.070312 -0.12891,0.1054688 -0.1875,0.1640625 -0.45703,0.3867188 -0.66797,0.51562505 -0.87891,0.51562505 -0.1289,0 -0.22265,-0.12890625 -0.22265,-0.32812505 0,-0.070312 0,-0.1171875 0.0117,-0.1640625 z m -1.19531,0.8320313 c -0.30469,1.5703125 -0.58594,2.3085937 -1.0664,3.0585937 -0.82032,1.2070313 -1.69922,2.03906255 -2.15625,2.03906255 -0.17579,0 -0.25782,-0.18750005 -0.25782,-0.57421875 0,-0.9257813 0.39844,-2.6015625 0.90235,-3.75 0.35156,-0.7851563 0.67968,-1.0429688 1.35937,-1.0429688 0.33985,0 0.59766,0.058594 1.21875,0.2695313 z m 0,0"
         style="fill:#000000;fill-opacity:1;fill-rule:nonzero;stroke:none" />
      <path
         id="path137"
         d="m 365.45739,-4.8865625 c 0.22266,0 0.50391,0 0.50391,-0.3046875 0,-0.2929688 -0.28125,-0.2929688 -0.49219,-0.2929688 h -8.95313 c -0.21093,0 -0.5039,0 -0.5039,0.2929688 0,0.3046875 0.29297,0.3046875 0.51562,0.3046875 z m 0.0117,2.8945312 c 0.21094,0 0.49219,0 0.49219,-0.2929687 0,-0.3046875 -0.28125,-0.3046875 -0.50391,-0.3046875 h -8.92969 c -0.22265,0 -0.51562,0 -0.51562,0.3046875 0,0.2929687 0.29297,0.2929687 0.5039,0.2929687 z m 0,0"
         style="fill:#000000;fill-opacity:1;fill-rule:nonzero;stroke:none" />
      <path
         id="path138"
         d="m 372.76403,-7.956875 h 0.14063 l 1.85156,-0.8320313 c 0.0117,-0.023437 0.0352,-0.023437 0.0469,-0.023437 0.082,0 0.11719,0.1289063 0.11719,0.4804688 v 6.9492187 c 0,0.75000005 -0.16406,0.91406255 -0.9375,0.9492188 l -0.79687,0.046875 v 0.43359375 c 2.20312,-0.046875 2.20312,-0.046875 2.35547,-0.046875 0.1875,0 0.5039,0 0.99609,0.01171875 0.17578,0.01171875 0.66797,0.01171875 1.26562,0.03515625 V -0.3865625 l -0.75,-0.046875 c -0.78515,-0.0351563 -0.9375,-0.19921875 -0.9375,-0.9492188 V -9.87875 l -0.19921,-0.070312 c -0.92579,0.4804687 -1.94532,0.9140625 -3.25782,1.3710937 z m 13.8252,-2.460938 h -0.85547 l -5.34375,12.1289067 h 0.86719 z m 1.67285,10.08984425 v 0.375 c 2.67187,-0.046875 2.67187,-0.046875 3.19922,-0.046875 0.51562,0 0.51562,0 3.28125,0.046875 -0.0352,-0.3046875 -0.0352,-0.4453125 -0.0352,-0.64453125 0,-0.1875 0,-0.33984375 0.0352,-0.6445313 -1.65235,0.070312 -2.3086,0.082031 -4.96875,0.140625 l 2.61328,-2.765625 c 1.39453,-1.4882812 1.82812,-2.2734375 1.82812,-3.3515625 0,-1.640625 -1.125,-2.6601562 -2.9414,-2.6601562 -1.04297,0 -1.73438,0.28125 -2.4375,0.9960937 l -0.2461,1.9570313 h 0.41016 l 0.1875,-0.65625 c 0.23437,-0.8320313 0.75,-1.1953125 1.71094,-1.1953125 1.23047,0 2.01562,0.7734375 2.01562,1.9921875 0,1.078125 -0.59765,2.1328125 -2.21484,3.8554687 z M 402.83727,-1.769375 c -0.38672,0.1289062 -0.64453,0.2226562 -1.40625,0.4335937 -0.10547,1.0898438 -0.45703,2.0273438 -1.28906,3.3984375 l 0.19922,0.1640625 0.58594,-0.28125 c 1.16015,-1.49999995 1.71093,-2.4023437 2.10937,-3.5039062 z M 0.58532031,15.881992 c 0,0.984375 -0.0351563,1.417969 -0.15234375,1.992188 0.73828124,0.246093 1.30078124,0.339843 1.95703124,0.339843 1.8867188,0 3.2226563,-0.996093 3.2226563,-2.402343 0,-0.445313 -0.1289063,-0.773438 -0.4101563,-1.066407 -0.375,-0.351562 -0.84375,-0.527343 -2.109375,-0.773437 -1.171875,-0.222656 -1.5585937,-0.515625 -1.5585937,-1.171875 0,-0.714844 0.5039062,-1.125 1.3710937,-1.125 0.9609375,0 1.6992188,0.503906 1.6992188,1.183594 v 0.328125 h 0.3984375 c 0.011719,-0.832032 0.035156,-1.183594 0.070312,-1.617188 -0.7617188,-0.257812 -1.2773438,-0.363281 -1.8632813,-0.363281 -1.6640625,0 -2.68359374,0.785156 -2.68359374,2.074219 0,0.691406 0.31640625,1.183593 0.98437504,1.476562 0.3867187,0.175781 1.1367187,0.410156 2.1210937,0.621094 0.6445313,0.140625 0.9140625,0.445312 0.9140625,0.996094 0,0.773437 -0.7148437,1.3125 -1.734375,1.3125 -1.0429687,0 -1.7929687,-0.503907 -1.7929687,-1.21875 V 15.881992 Z M 13.300164,11.264805 13.171258,11.206211 c -0.738281,0.304687 -1.476563,0.503906 -2.238281,0.585937 v 0.398438 h 0.527343 c 0.574219,0 0.632813,0.105469 0.632813,1.054687 v 2.332032 c 0,0.316406 -0.199219,0.714843 -0.527344,1.054687 -0.410156,0.398438 -0.867187,0.597656 -1.429687,0.597656 -0.4921879,0 -0.9023442,-0.152343 -1.1250004,-0.433593 C 8.8118828,16.573398 8.7064141,16.128086 8.7064141,15.495273 v -4.230468 l -0.1289063,-0.05859 c -0.7265625,0.304687 -1.4765625,0.503906 -2.2382812,0.585937 v 0.398438 h 0.5273437 c 0.5742188,0 0.6328125,0.105469 0.6328125,1.054687 v 2.402344 c 0,1.007813 0.09375,1.453125 0.3515625,1.816406 0.3046875,0.421875 0.8554688,0.644532 1.6757813,0.644532 0.6445314,0 1.2187504,-0.199219 1.6054684,-0.5625 l 0.960938,-0.890625 c 0,0.421875 -0.01172,0.644531 -0.05859,1.324218 0.960938,-0.04687 0.972656,-0.04687 1.195313,-0.04687 0.199218,0 0.199218,0 1.183593,0.04687 v -0.433593 l -0.585937,-0.04687 c -0.492188,-0.02344 -0.527344,-0.117188 -0.527344,-1.03125 z m 11.513672,0.398437 c -0.796875,-0.339844 -1.207031,-0.457031 -1.699219,-0.457031 -0.386719,0 -0.738281,0.08203 -1.089844,0.269531 l -1.265625,0.667969 c -0.820312,0.421875 -1.347656,1.476562 -1.347656,2.695312 0,1.148438 0.386719,2.085938 1.089844,2.660157 0.480469,0.421875 1.160156,0.609375 2.097656,0.609375 0.28125,0 0.609375,-0.05859 0.679688,-0.117188 l 1.59375,-1.335937 -0.07031,1.324218 c 0.703125,-0.03516 0.9375,-0.04687 1.101563,-0.04687 0.117187,0 0.316406,0 0.621093,0.01172 0.105469,0.01172 0.386719,0.01172 0.691407,0.03516 v -0.433593 l -0.667969,-0.04687 C 26.067745,17.475755 26.02087,17.370288 26.02087,16.467945 V 7.6319922 L 25.891961,7.5148047 C 25.259148,7.7608984 24.790398,7.8780859 23.65368,8.0538672 v 0.3984375 h 0.808593 c 0.257813,0 0.351563,0.1523437 0.351563,0.5859375 z m 0,3.09375 c 0,0.9375 -0.02344,1.078125 -0.210938,1.40625 -0.398437,0.679688 -1.101562,1.125 -1.78125,1.125 -1.265625,0 -2.167968,-1.21875 -2.167968,-2.929687 0,-1.558594 0.773437,-2.484375 2.074218,-2.484375 0.539063,0 1.113282,0.1875 1.617188,0.539062 0.304687,0.199219 0.46875,0.386719 0.46875,0.503906 z m 6.855469,-3.550781 c -2.085938,0 -3.539063,1.476562 -3.539063,3.609375 0,2.027344 1.277344,3.398437 3.128906,3.398437 2.203125,0 3.785157,-1.523437 3.785157,-3.679687 0,-1.933594 -1.40625,-3.328125 -3.375,-3.328125 z m -0.257813,0.46875 c 1.324219,0 2.296875,1.441406 2.296875,3.386719 0,1.652343 -0.726562,2.683593 -1.886719,2.683593 -1.40625,0 -2.355468,-1.371093 -2.355468,-3.410156 0,-1.722656 0.691406,-2.660156 1.945312,-2.660156 z m 4.353516,0.515625 h 0.527344 c 0.574218,0 0.632812,0.105469 0.632812,1.054687 v 3.222657 c 0,0.902343 -0.03516,1.007812 -0.527344,1.03125 l -0.65625,0.04687 v 0.433593 c 1.371094,-0.04687 1.417969,-0.04687 1.816407,-0.04687 0.398437,0 0.773437,0.01172 1.710937,0.04687 V 17.54605 L 38.659539,17.49918 C 38.17907,17.47574 38.132195,17.370273 38.132195,16.46793 v -3.035157 c 0,-0.644531 0.949219,-1.347656 1.804688,-1.347656 0.773437,0 1.3125,0.726563 1.3125,1.816406 v 2.566407 c 0,0.902343 -0.04687,1.007812 -0.539063,1.03125 l -0.65625,0.04687 v 0.433593 c 1.429688,-0.04687 1.429688,-0.04687 1.792969,-0.04687 0.363281,0 0.363281,0 1.792969,0.04687 V 17.54605 l -0.65625,-0.04687 C 42.49157,17.47574 42.444695,17.370273 42.444695,16.46793 v -3.035157 c 0,-0.644531 0.949219,-1.347656 1.816407,-1.347656 0.773437,0 1.300781,0.726563 1.300781,1.816406 v 4.078125 c 0.878906,-0.04687 0.890625,-0.04687 1.136719,-0.04687 0.1875,0 0.1875,0 1.277343,0.04687 v -0.433593 l -0.679687,-0.04687 c -0.480469,-0.02344 -0.527344,-0.128907 -0.527344,-1.03125 V 13.51481 c 0,-1.417969 -0.832031,-2.308594 -2.15625,-2.308594 -0.503906,0 -0.914062,0.128906 -1.171875,0.363281 l -1.089844,0.972656 c -0.457031,-0.949218 -1.054687,-1.335937 -2.039062,-1.335937 -0.527344,0 -0.9375,0.128906 -1.195313,0.363281 l -0.984375,0.914063 v -1.21875 l -0.128906,-0.05859 c -0.726562,0.304687 -1.476562,0.503906 -2.238281,0.585937 z m 15.105469,-0.925781 -0.128907,-0.05859 c -0.726562,0.304687 -1.476562,0.503906 -2.238281,0.585937 v 0.398438 h 0.527344 c 0.574219,0 0.632812,0.105469 0.632812,1.054687 v 3.222657 c 0,0.902343 -0.03516,1.007812 -0.527343,1.03125 l -0.65625,0.04687 v 0.433593 c 1.429687,-0.04687 1.429687,-0.04687 1.792968,-0.04687 0.351563,0 0.351563,0 1.792969,0.04687 V 17.546055 L 51.39782,17.49918 c -0.480468,-0.02344 -0.527343,-0.128907 -0.527343,-1.03125 z m -0.65625,-3.1875003 c -0.433594,0 -0.808594,0.375 -0.808594,0.8085937 0,0.4101563 0.375,0.7851563 0.796875,0.7851563 0.410156,0 0.796875,-0.375 0.796875,-0.7851563 0,-0.4101562 -0.386719,-0.8085937 -0.785156,-0.8085937 z m 8.018554,9.9023433 c 0.878907,-0.04687 0.890625,-0.04687 1.136719,-0.04687 0.199219,0 0.199219,0 1.183594,0.04687 v -0.433593 l -0.585938,-0.04687 c -0.492187,-0.02344 -0.527343,-0.117188 -0.527343,-1.03125 V 13.70231 c 0,-1.675782 -0.796875,-2.496094 -2.402344,-2.496094 -0.527344,0 -0.832031,0.105469 -1.125,0.363281 l -1.089844,0.9375 V 11.26481 l -0.128906,-0.05859 c -0.738281,0.304687 -1.488281,0.503906 -2.238281,0.585937 v 0.398438 h 0.527343 c 0.574219,0 0.632813,0.105469 0.632813,1.054687 v 3.222657 c 0,0.902343 -0.04687,1.007812 -0.539063,1.03125 L 52.432,17.546055 v 0.433593 c 0.984375,-0.03516 1.371094,-0.04687 1.78125,-0.04687 0.421875,0 0.808594,0.01172 1.78125,0.04687 v -0.433593 l -0.644531,-0.04687 c -0.492188,-0.02344 -0.527344,-0.128907 -0.527344,-1.03125 v -3.035157 c 0,-0.644531 0.9375,-1.347656 1.816406,-1.347656 0.960938,0 1.59375,0.714844 1.59375,1.816406 z m 5.16211,-6.714843 -0.128907,-0.05859 c -0.726562,0.304687 -1.476562,0.503906 -2.238281,0.585937 v 0.398438 h 0.527344 c 0.574219,0 0.632812,0.105469 0.632812,1.054687 v 3.222657 c 0,0.902343 -0.03516,1.007812 -0.527343,1.03125 l -0.65625,0.04687 v 0.433593 c 1.429687,-0.04687 1.429687,-0.04687 1.792968,-0.04687 0.351563,0 0.351563,0 1.792969,0.04687 v -0.433593 l -0.667969,-0.04687 c -0.480468,-0.02344 -0.527343,-0.128907 -0.527343,-1.03125 z m -0.65625,-3.1875003 c -0.433594,0 -0.808594,0.375 -0.808594,0.8085937 0,0.4101563 0.375,0.7851563 0.796875,0.7851563 0.410156,0 0.796875,-0.375 0.796875,-0.7851563 0,-0.4101562 -0.386719,-0.8085937 -0.785156,-0.8085937 z m 6.131836,3.1289063 c -2.085938,0 -3.539063,1.476562 -3.539063,3.609375 0,2.027344 1.277344,3.398437 3.128906,3.398437 2.203125,0 3.785157,-1.523437 3.785157,-3.679687 0,-1.933594 -1.40625,-3.328125 -3.375,-3.328125 z m -0.257813,0.46875 c 1.324219,0 2.296875,1.441406 2.296875,3.386719 0,1.652343 -0.726562,2.683593 -1.886719,2.683593 -1.40625,0 -2.355468,-1.371093 -2.355468,-3.410156 0,-1.722656 0.691406,-2.660156 1.945312,-2.660156 z m 14.537109,5.25 -0.1875,-0.140625 c -0.914062,0.550781 -1.253906,0.679687 -1.863281,0.679687 -0.9375,0 -1.710937,-0.421875 -2.109375,-1.125 -0.269531,-0.46875 -0.375,-0.878906 -0.398437,-1.710937 h 2.085937 c 0.996094,0 1.605469,-0.03516 2.601563,-0.199219 0.01172,-0.199219 0.02344,-0.328125 0.02344,-0.492187 0,-1.652344 -1.054687,-2.730469 -2.660156,-2.730469 -0.539063,0 -1.148438,0.1875 -1.734375,0.527344 -1.183594,0.679687 -1.652344,1.570312 -1.652344,3.058593 0,0.902344 0.210938,1.675782 0.597656,2.226563 0.574219,0.761719 1.535157,1.195312 2.613282,1.195312 0.527343,0 1.066406,-0.105468 1.652343,-0.363281 0.386719,-0.164062 0.691407,-0.351562 0.738282,-0.433594 z m -1.125,-2.824219 c -0.738281,0.03516 -1.089843,0.04687 -1.605468,0.04687 -0.65625,0 -1.03125,-0.01172 -1.804688,-0.08203 0,-0.679688 0.05859,-0.996094 0.246094,-1.371094 0.304687,-0.632812 0.914062,-1.019531 1.605469,-1.019531 0.46875,0 0.84375,0.1875 1.101562,0.574219 0.316406,0.480468 0.421875,0.890625 0.457031,1.851562 z m 2.314454,1.78125 c 0,0.984375 -0.03516,1.417969 -0.152344,1.992188 0.738281,0.246093 1.300781,0.339843 1.957031,0.339843 1.886719,0 3.222656,-0.996093 3.222656,-2.402343 0,-0.445313 -0.128906,-0.773438 -0.410156,-1.066407 -0.375,-0.351562 -0.84375,-0.527343 -2.109375,-0.773437 -1.171875,-0.222656 -1.558594,-0.515625 -1.558594,-1.171875 0,-0.714844 0.503907,-1.125 1.371094,-1.125 0.960938,0 1.699219,0.503906 1.699219,1.183594 v 0.328125 h 0.398437 c 0.01172,-0.832032 0.03516,-1.183594 0.07031,-1.617188 -0.761719,-0.257812 -1.277344,-0.363281 -1.863281,-0.363281 -1.664063,0 -2.683594,0.785156 -2.683594,2.074219 0,0.691406 0.316406,1.183593 0.984375,1.476562 0.386719,0.175781 1.136719,0.410156 2.121094,0.621094 0.644531,0.140625 0.914062,0.445312 0.914062,0.996094 0,0.773437 -0.714844,1.3125 -1.734375,1.3125 -1.042969,0 -1.792969,-0.503907 -1.792969,-1.21875 v -0.585938 z m 0,0"
         style="fill:#000000;fill-opacity:1;fill-rule:nonzero;stroke:none" />
      <path
         id="path139"
         d="m 98.419305,8.7101172 c 0,-0.5976563 0.386718,-1.5585938 2.015625,-1.6640625 0.082,-0.011719 0.14062,-0.070312 0.14062,-0.1640625 0,-0.1640625 -0.11718,-0.1640625 -0.28125,-0.1640625 -1.499995,0 -2.85937,0.7617187 -2.871089,1.8632812 v 3.4101561 c 0,0.585938 0,1.066406 -0.597656,1.558594 -0.527344,0.433594 -1.101563,0.46875 -1.429688,0.480469 -0.07031,0.01172 -0.128906,0.07031 -0.128906,0.164062 0,0.152344 0.09375,0.152344 0.234375,0.164063 0.996094,0.05859 1.710937,0.597656 1.875,1.335937 0.04687,0.164063 0.04687,0.1875 0.04687,0.726563 v 2.964843 c 0,0.621094 0,1.101563 0.714844,1.675782 0.585937,0.445312 1.570312,0.609375 2.15624,0.609375 0.16407,0 0.28125,0 0.28125,-0.164063 0,-0.152344 -0.0937,-0.152344 -0.24609,-0.164062 -0.937494,-0.05859 -1.664057,-0.539063 -1.863275,-1.300782 -0.04687,-0.140625 -0.04687,-0.164062 -0.04687,-0.703125 v -3.140625 c 0,-0.691406 -0.117188,-0.9375 -0.597657,-1.417968 -0.316406,-0.316407 -0.75,-0.46875 -1.160156,-0.585938 1.21875,-0.339844 1.757813,-1.03125 1.757813,-1.898437 z m 0,0"
         style="fill:#000000;fill-opacity:1;fill-rule:nonzero;stroke:none" />
      <path
         id="path140"
         d="m 102.57067,16.667148 c 0,0.292969 -0.0352,0.480469 -0.11719,0.9375 -0.0352,0.175782 -0.0469,0.210938 -0.0586,0.316407 0.21094,0.117187 0.44531,0.164062 0.62109,0.164062 0.46875,0 1.03125,-0.410156 1.47657,-1.089844 l 1.08984,-1.675781 0.15234,0.996094 c 0.1875,1.21875 0.51563,1.769531 1.03125,1.769531 0.31641,0 0.77344,-0.234375 1.24219,-0.65625 l 0.70313,-0.632812 -0.12891,-0.269532 c -0.52734,0.433594 -0.87891,0.644532 -1.11328,0.644532 -0.21094,0 -0.39844,-0.140625 -0.53906,-0.433594 -0.12891,-0.269531 -0.29297,-0.796875 -0.36328,-1.21875 l -0.25782,-1.441406 0.50391,-0.703125 c 0.67969,-0.9375 1.06641,-1.265625 1.51172,-1.265625 0.22265,0 0.39844,0.117187 0.46875,0.328125 l 0.19922,-0.05859 0.21093,-1.21875 c -0.16406,-0.09375 -0.29296,-0.140625 -0.42187,-0.140625 -0.57422,0 -1.14844,0.515625 -2.03906,1.839844 l -0.52735,0.785156 -0.0937,-0.691406 c -0.16406,-1.417969 -0.55078,-1.933594 -1.40625,-1.933594 -0.375,0 -0.67968,0.117187 -0.80859,0.304687 l -0.83203,1.183594 0.23437,0.152344 c 0.4336,-0.492188 0.72657,-0.691406 0.9961,-0.691406 0.46875,0 0.78515,0.585937 1.03125,1.992187 l 0.15234,0.890625 -0.57422,0.890625 c -0.60937,0.960938 -1.10156,1.417969 -1.5,1.417969 -0.21094,0 -0.375,-0.05859 -0.39844,-0.128906 l -0.16406,-0.398438 z m 0,0"
         style="fill:#000000;fill-opacity:1;fill-rule:nonzero;stroke:none" />
      <path
         id="path141"
         d="m 122.11755,14.49918 c 0.25781,0 0.52734,0 0.52734,-0.304688 0,-0.304687 -0.26953,-0.304687 -0.52734,-0.304687 h -6.33985 c 0.1875,-2.003907 1.89844,-3.433594 4.00782,-3.433594 h 2.33203 c 0.25781,0 0.52734,0 0.52734,-0.304688 0,-0.2929683 -0.26953,-0.2929683 -0.52734,-0.2929683 h -2.35547 c -2.56641,0 -4.59375,1.9453123 -4.59375,4.3359373 0,2.390625 2.02734,4.335938 4.59375,4.335938 h 2.35547 c 0.25781,0 0.52734,0 0.52734,-0.292969 0,-0.304688 -0.26953,-0.304688 -0.52734,-0.304688 h -2.33203 c -2.10938,0 -3.82032,-1.429687 -4.00782,-3.433593 z m 0,0"
         style="fill:#000000;fill-opacity:1;fill-rule:nonzero;stroke:none" />
      <path
         id="path142"
         d="m 128.36364,8.4405859 0.63281,0.035156 c 0.58594,0.046875 0.72657,0.1640625 0.72657,1.3007812 v 6.4335939 c 0,1.136719 -0.14063,1.265625 -0.72657,1.289063 l -0.63281,0.04687 v 0.433593 c 0.84375,-0.03516 2.16797,-0.04687 2.90625,-0.04687 0.75,0 2.13281,0.01172 2.97656,0.04687 V 17.54605 l -0.6914,-0.04687 c -0.64453,-0.03516 -0.72657,-0.152344 -0.72657,-1.207032 V 8.7218359 c 0.49219,-0.1289062 0.91407,-0.1640625 1.40625,-0.1640625 1.48829,0 2.32032,0.6796875 2.32032,1.8984376 0,1.324219 -1.05469,2.15625 -2.71875,2.15625 -0.082,0 -0.22266,0 -0.41016,-0.01172 l -0.082,0.164063 c 0.15234,0.1875 0.19922,0.246093 0.36328,0.433593 0.21094,0.234375 0.24609,0.292969 0.375,0.457032 l 2.64844,3.550781 c 0.082,0.105469 0.16406,0.222656 0.25781,0.328125 l 0.32813,0.445312 c 0.58593,-0.03516 0.79687,-0.04687 0.97265,-0.04687 0.15235,0 0.33985,0.01172 1.03125,0.04687 v -0.433593 c -0.45703,-0.04687 -0.6914,-0.128907 -0.8789,-0.375 l -3.2461,-4.242188 c 0.78516,-0.1875 1.13672,-0.351562 1.60547,-0.65625 0.78516,-0.550781 1.18359,-1.265625 1.18359,-2.109375 0,-1.3945311 -0.98437,-2.1562498 -2.8125,-2.1562498 h -0.19921 c -0.28125,0.011719 -0.52735,0.011719 -0.72657,0.023437 -0.43359,0.023437 -0.97265,0.023437 -1.52343,0.023437 h -1.45313 c -0.73828,0 -2.0625,-0.023437 -2.90625,-0.046875 z m 3.09375,1.3359375 v 6.4335936 c 0,1.136719 -0.0703,1.253906 -0.52734,1.289063 -0.45703,-0.03516 -0.53907,-0.152344 -0.53907,-1.289063 V 9.7765234 c 0,-1.1367187 0.082,-1.2539062 0.53907,-1.3007812 0.45703,0.035156 0.52734,0.1640625 0.52734,1.3007812 z m 0,0"
         style="fill:#000000;fill-opacity:1;fill-rule:nonzero;stroke:none" />
      <path
         id="path143"
         d="m 145.84802,21.307773 c 0.0703,0.210938 0.14062,0.363282 0.33984,0.363282 0.16406,0 0.30469,-0.128907 0.30469,-0.304688 0,-0.02344 0,-0.05859 -0.082,-0.234375 L 141.30114,7.0812109 c -0.0937,-0.2578125 -0.14062,-0.3632812 -0.32812,-0.3632812 -0.16407,0 -0.30469,0.1289062 -0.30469,0.3046875 0,0.023437 0,0.058594 0.082,0.234375 z m 0,0"
         style="fill:#000000;fill-opacity:1;fill-rule:nonzero;stroke:none" />
      <path
         id="path144"
         d="m 148.22985,16.667148 c 0,0.292969 -0.0351,0.480469 -0.11719,0.9375 -0.0352,0.175782 -0.0469,0.210938 -0.0586,0.316407 0.21094,0.117187 0.44531,0.164062 0.62109,0.164062 0.46875,0 1.03125,-0.410156 1.47657,-1.089844 l 1.08984,-1.675781 0.15234,0.996094 c 0.1875,1.21875 0.51563,1.769531 1.03125,1.769531 0.31641,0 0.77344,-0.234375 1.24219,-0.65625 l 0.70313,-0.632812 -0.12891,-0.269532 c -0.52734,0.433594 -0.87891,0.644532 -1.11328,0.644532 -0.21094,0 -0.39844,-0.140625 -0.53906,-0.433594 -0.12891,-0.269531 -0.29297,-0.796875 -0.36328,-1.21875 l -0.25782,-1.441406 0.50391,-0.703125 c 0.67969,-0.9375 1.06641,-1.265625 1.51172,-1.265625 0.22265,0 0.39844,0.117187 0.46875,0.328125 l 0.19922,-0.05859 0.21093,-1.21875 c -0.16406,-0.09375 -0.29296,-0.140625 -0.42187,-0.140625 -0.57422,0 -1.14844,0.515625 -2.03906,1.839844 l -0.52735,0.785156 -0.0937,-0.691406 c -0.16406,-1.417969 -0.55078,-1.933594 -1.40625,-1.933594 -0.375,0 -0.67968,0.117187 -0.80859,0.304687 l -0.83203,1.183594 0.23437,0.152344 c 0.4336,-0.492188 0.72657,-0.691406 0.9961,-0.691406 0.46875,0 0.78515,0.585937 1.03125,1.992187 l 0.15234,0.890625 -0.57422,0.890625 c -0.60937,0.960938 -1.10156,1.417969 -1.5,1.417969 -0.21094,0 -0.375,-0.05859 -0.39844,-0.128906 l -0.16406,-0.398438 z m 0,0"
         style="fill:#000000;fill-opacity:1;fill-rule:nonzero;stroke:none" />
      <path
         id="path145"
         d="m 169.66345,13.09293 c 0.21093,-0.09375 0.30468,-0.199219 0.30468,-0.328125 0,-0.152344 -0.0703,-0.246094 -0.30468,-0.351563 l -8.23829,-3.8906248 c -0.21093,-0.1054688 -0.26953,-0.1054688 -0.30468,-0.1054688 -0.17578,0 -0.29297,0.140625 -0.29297,0.3046875 0,0.1757813 0.11719,0.2578125 0.28125,0.328125 l 7.85156,3.6914061 -7.81641,3.691406 c -0.30468,0.140625 -0.3164,0.257813 -0.3164,0.351563 0,0.164062 0.1289,0.292969 0.29297,0.292969 0.0469,0 0.082,0 0.26953,-0.105469 z m -0.22266,6.890625 c 0.25781,0 0.52734,0 0.52734,-0.304688 0,-0.292969 -0.3164,-0.292969 -0.53906,-0.292969 h -8.0625 c -0.22266,0 -0.53906,0 -0.53906,0.292969 0,0.304688 0.26953,0.304688 0.52734,0.304688 z m 0,0"
         style="fill:#000000;fill-opacity:1;fill-rule:nonzero;stroke:none" />
      <path
         id="path146"
         d="m 179.14098,8.0538672 c -2.22656,0 -3.36328,1.7578125 -3.36328,5.2265628 0,1.6875 0.30469,3.128906 0.8086,3.832031 0.5039,0.703125 1.30078,1.101562 2.1914,1.101562 2.16797,0 3.25782,-1.863281 3.25782,-5.53125 0,-3.1406246 -0.92579,-4.6289058 -2.89454,-4.6289058 z m -0.25781,0.5039062 c 1.39453,0 1.94531,1.3945313 1.94531,4.8398436 0,3.058594 -0.53906,4.324219 -1.86328,4.324219 -1.39453,0 -1.98047,-1.453125 -1.98047,-4.957031 0,-3.0234378 0.53907,-4.2070316 1.89844,-4.2070316 z m 0,0"
         style="fill:#000000;fill-opacity:1;fill-rule:nonzero;stroke:none" />
      <path
         id="path147"
         d="m 185.95544,19.678867 c 0,0.597656 -0.39844,1.558594 -2.02735,1.664063 -0.0703,0.01172 -0.1289,0.07031 -0.1289,0.164062 0,0.164063 0.16406,0.164063 0.29297,0.164063 1.45312,0 2.84765,-0.738282 2.85937,-1.863282 v -3.410156 c 0,-0.585937 0,-1.066406 0.59766,-1.558594 0.52734,-0.433593 1.08984,-0.46875 1.41797,-0.480468 0.082,-0.01172 0.14062,-0.07031 0.14062,-0.164063 0,-0.152344 -0.0937,-0.152344 -0.24609,-0.164062 -0.98438,-0.05859 -1.69922,-0.597657 -1.86328,-1.335938 -0.0469,-0.164062 -0.0469,-0.1875 -0.0469,-0.726562 V 9.0030859 c 0,-0.6210937 0,-1.1015625 -0.71484,-1.6757812 -0.59766,-0.4570313 -1.62891,-0.609375 -2.14453,-0.609375 -0.12891,0 -0.29297,0 -0.29297,0.1640625 0,0.1523437 0.0937,0.1523437 0.23437,0.1640625 0.94922,0.058594 1.67578,0.5390625 1.875,1.3007812 0.0469,0.140625 0.0469,0.1640625 0.0469,0.703125 v 3.1406251 c 0,0.691406 0.11719,0.9375 0.59765,1.417969 0.30469,0.316406 0.73829,0.46875 1.16016,0.585937 -1.21875,0.339844 -1.75781,1.03125 -1.75781,1.898438 z m 0,0"
         style="fill:#000000;fill-opacity:1;fill-rule:nonzero;stroke:none" />
      <path
         id="path148"
         d="m 192.15466,16.339023 c -0.4336,0 -0.82032,0.398438 -0.82032,0.832032 0,0.433593 0.38672,0.832031 0.8086,0.832031 0.45703,0 0.85547,-0.386719 0.85547,-0.832031 0,-0.433594 -0.39844,-0.832032 -0.84375,-0.832032 z m 0,0"
         style="fill:#000000;fill-opacity:1;fill-rule:nonzero;stroke:none" />
    </g>
  </g>
</svg>
