<?xml version="1.0" encoding="UTF-8" standalone="no"?>
<!-- Created with Inkscape (http://www.inkscape.org/) -->

<svg
   version="1.1"
   id="svg1"
   width="213.33333"
   height="22.857143"
   viewBox="0 0 213.33333 22.857143"
   sodipodi:docname="writetex.pdf"
   inkscape:export-batch-path="..\Akemicos\Akdemicos-Front\public"
   inkscape:export-batch-name="DomsenoHiperbolico"
   xmlns:inkscape="http://www.inkscape.org/namespaces/inkscape"
   xmlns:sodipodi="http://sodipodi.sourceforge.net/DTD/sodipodi-0.dtd"
   xmlns="http://www.w3.org/2000/svg"
   xmlns:svg="http://www.w3.org/2000/svg">
  <defs
     id="defs1">
    <clipPath
       clipPathUnits="userSpaceOnUse"
       id="clipPath237">
      <rect
         style="fill:#000000;stroke:#000000;stroke-width:0.623622;stroke-dasharray:none;stroke-opacity:1"
         id="rect238"
         width="213.33333"
         height="22.857143"
         x="130.4762"
         y="273.33334" />
    </clipPath>
  </defs>
  <sodipodi:namedview
     id="namedview1"
     pagecolor="#ffffff"
     bordercolor="#000000"
     borderopacity="0.25"
     inkscape:showpageshadow="2"
     inkscape:pageopacity="0.0"
     inkscape:pagecheckerboard="0"
     inkscape:deskcolor="#d1d1d1"
     showgrid="false">
    <inkscape:page
       x="0"
       y="0"
       width="213.33333"
       height="22.857143"
       id="page1"
       margin="0"
       bleed="0" />
  </sodipodi:namedview>
  <g
     id="g1"
     inkscape:groupmode="layer"
     inkscape:label="1"
     clip-path="url(#clipPath237)"
     transform="translate(-130.4762,-273.33334)">
    <g
       id="g15"
       aria-label="Domibio=R,Rango=R&#10;Elsenohiperbolicoesunafunciónimpar&#10;sinh(−α)=−sinh(α)&#10;Relaciónconelseno&#10;−isinh(iα)=sin(α)"
       transform="matrix(1.3333333,0,0,1.3333333,131.12933,289.37733)">
      <path
         id="path16"
         d="m 0.81999219,-0.28007031 v 0.328125 c 1.66406251,-0.046875 1.66406251,-0.046875 1.99218751,-0.046875 0.2578125,0 0.4921875,0 0.75,0.01171875 1.125,0.03515625 1.125,0.03515625 1.3242187,0.03515625 1.8398438,0 3.2226563,-0.48046875 4.21875,-1.46484379 1.0312496,-1.0195312 1.6640626,-2.5664062 1.6640626,-4.1015625 0,-2.671875 -1.9804688,-4.40625 -5.0039063,-4.40625 -0.1054688,0 -0.28125,0 -0.5390625,0.011719 -0.7265625,0.011719 -1.3359375,0.035156 -1.9570313,0.035156 -0.5273437,0 -1.3242187,-0.023437 -2.95312496,-0.046875 v 0.4335938 l 0.57421875,0.035156 c 0.65625001,0.046875 0.72656251,0.1757813 0.72656251,1.3007813 v 6.796875 c 0,0.41015624 -0.1289063,0.72656249 -0.3515625,0.84374999 z M 2.9879609,-9.2331953 c 0.3632813,-0.070312 0.8671875,-0.1171875 1.5820313,-0.1171875 1.0546875,0 2.203125,0.1875 2.8007812,0.4570312 0.3164063,0.1289063 0.5859375,0.328125 0.84375,0.5859375 0.6914063,0.6914063 1.0195313,1.7226563 1.0195313,3.1640625 0,1.6054688 -0.4804688,2.8359375 -1.4296875,3.609375 -0.8671875,0.70312504 -1.7226563,0.94921879 -3.3398438,0.94921879 -0.6679687,0 -1.1132812,-0.0351563 -1.4765625,-0.1171875 z m 12.1113281,2.5078125 c -2.085937,0 -3.539062,1.4765625 -3.539062,3.609375 0,2.0273437 1.277343,3.39843749 3.128906,3.39843749 2.203125,0 3.785156,-1.52343749 3.785156,-3.67968749 0,-1.9335938 -1.40625,-3.328125 -3.375,-3.328125 z m -0.257812,0.46875 c 1.324218,0 2.296875,1.4414062 2.296875,3.3867187 0,1.6523438 -0.726563,2.68359379 -1.886719,2.68359379 -1.40625,0 -2.355469,-1.37109379 -2.355469,-3.41015629 0,-1.7226562 0.691406,-2.6601562 1.945313,-2.6601562 z m 4.353515,0.515625 h 0.527344 c 0.574219,0 0.632812,0.1054687 0.632812,1.0546875 v 3.2226562 c 0,0.90234379 -0.03516,1.00781254 -0.527343,1.03125004 l -0.65625,0.046875 v 0.43359375 c 1.371093,-0.046875 1.417968,-0.046875 1.816406,-0.046875 0.398437,0 0.773437,0.01171875 1.710937,0.046875 v -0.43359375 l -0.609375,-0.046875 C 21.609055,-0.45585156 21.56218,-0.56132031 21.56218,-1.4636641 v -3.0351562 c 0,-0.6445313 0.949218,-1.3476563 1.804687,-1.3476563 0.773438,0 1.3125,0.7265625 1.3125,1.8164063 v 2.5664062 c 0,0.90234379 -0.04687,1.00781254 -0.539062,1.03125004 l -0.65625,0.046875 v 0.43359375 c 1.429687,-0.046875 1.429687,-0.046875 1.792968,-0.046875 0.363282,0 0.363282,0 1.792969,0.046875 v -0.43359375 l -0.65625,-0.046875 C 25.921555,-0.45585156 25.87468,-0.56132031 25.87468,-1.4636641 v -3.0351562 c 0,-0.6445313 0.949218,-1.3476563 1.816406,-1.3476563 0.773437,0 1.300781,0.7265625 1.300781,1.8164063 v 4.07812499 c 0.878906,-0.046875 0.890625,-0.046875 1.136719,-0.046875 0.1875,0 0.1875,0 1.277344,0.046875 v -0.43359375 l -0.679688,-0.046875 c -0.480469,-0.0234375 -0.527344,-0.12890625 -0.527344,-1.03125004 v -2.953125 c 0,-1.4179687 -0.832031,-2.3085937 -2.15625,-2.3085937 -0.503906,0 -0.914062,0.1289062 -1.171875,0.3632812 l -1.089843,0.9726563 c -0.457032,-0.9492188 -1.054688,-1.3359375 -2.039063,-1.3359375 -0.527344,0 -0.9375,0.1289062 -1.195312,0.3632812 l -0.984375,0.9140625 v -1.21875 l -0.128907,-0.058594 c -0.726562,0.3046875 -1.476562,0.5039062 -2.238281,0.5859375 z m 15.105469,-0.9257813 -0.128906,-0.058594 c -0.726563,0.3046875 -1.476563,0.5039062 -2.238282,0.5859375 v 0.3984375 h 0.527344 c 0.574219,0 0.632813,0.1054687 0.632813,1.0546875 v 3.2226562 c 0,0.90234379 -0.03516,1.00781254 -0.527344,1.03125004 l -0.65625,0.046875 v 0.43359375 c 1.429687,-0.046875 1.429687,-0.046875 1.792969,-0.046875 0.351562,0 0.351562,0 1.792968,0.046875 v -0.43359375 l -0.667968,-0.046875 c -0.480469,-0.0234375 -0.527344,-0.12890625 -0.527344,-1.03125004 z m -0.65625,-3.1875 c -0.433594,0 -0.808594,0.375 -0.808594,0.8085938 0,0.4101562 0.375,0.7851562 0.796875,0.7851562 0.410156,0 0.796875,-0.375 0.796875,-0.7851562 0,-0.4101563 -0.386719,-0.8085938 -0.785156,-0.8085938 z m 4.291992,-0.4453129 -0.128906,-0.117187 c -0.632813,0.246094 -1.113281,0.363281 -2.238281,0.5390624 v 0.3984375 h 0.796875 c 0.257812,0 0.363281,0.1523438 0.363281,0.5859375 v 6.703125 c 0,0.890625 -0.01172,1.27734379 -0.117188,2.27343754 l 0.234375,0.09375 0.574219,-0.515625 c 0.5625,0.36328125 1.089844,0.515625 1.839844,0.515625 0.5625,0 0.9375,-0.10546875 1.242187,-0.31640625 l 1.429688,-1.03124999 c 0.632812,-0.46875 1.136719,-1.6523438 1.136719,-2.6953125 0,-1.6640625 -1.078125,-2.859375 -2.601563,-2.859375 -0.667969,0 -1.371094,0.2578125 -1.746094,0.6328125 l -0.785156,0.796875 z m 0,5.8828129 c 0,-0.1992187 0.140625,-0.4570312 0.363281,-0.7148437 0.410157,-0.421875 0.960938,-0.65625 1.558594,-0.65625 1.195313,0 1.957031,0.9726562 1.957031,2.5078125 0,1.6054687 -0.855468,2.71874999 -2.074218,2.71874999 -0.75,0 -1.804688,-0.45703129 -1.804688,-0.77343749 z m 8.472656,-2.25 -0.128906,-0.058594 c -0.726562,0.3046875 -1.476562,0.5039062 -2.238281,0.5859375 v 0.3984375 h 0.527344 c 0.574218,0 0.632812,0.1054687 0.632812,1.0546875 v 3.2226562 c 0,0.90234379 -0.03516,1.00781254 -0.527344,1.03125004 l -0.65625,0.046875 v 0.43359375 c 1.429688,-0.046875 1.429688,-0.046875 1.792969,-0.046875 0.351563,0 0.351563,0 1.792969,0.046875 v -0.43359375 l -0.667969,-0.046875 c -0.480469,-0.0234375 -0.527344,-0.12890625 -0.527344,-1.03125004 z m -0.65625,-3.1875 c -0.433593,0 -0.808593,0.375 -0.808593,0.8085938 0,0.4101562 0.375,0.7851562 0.796875,0.7851562 0.410156,0 0.796875,-0.375 0.796875,-0.7851562 0,-0.4101563 -0.386719,-0.8085938 -0.785157,-0.8085938 z m 6.131836,3.1289063 c -2.085937,0 -3.539062,1.4765625 -3.539062,3.609375 0,2.0273437 1.277344,3.39843749 3.128906,3.39843749 2.203125,0 3.785156,-1.52343749 3.785156,-3.67968749 0,-1.9335938 -1.40625,-3.328125 -3.375,-3.328125 z m -0.257812,0.46875 c 1.324219,0 2.296875,1.4414062 2.296875,3.3867187 0,1.6523438 -0.726563,2.68359379 -1.886719,2.68359379 -1.40625,0 -2.355469,-1.37109379 -2.355469,-3.41015629 0,-1.7226562 0.691407,-2.6601562 1.945313,-2.6601562 z m 12.049804,0.7265625 h -7.230468 v 0.796875 h 7.230468 z m 0,2.7773437 h -7.230468 v 0.8085938 h 7.230468 z m 0,0"
         style="fill:#000000;fill-opacity:1;fill-rule:nonzero;stroke:none" />
      <path
         id="path17"
         d="m 64.731125,-9.4910078 0.632812,0.035156 c 0.585938,0.046875 0.726563,0.1640625 0.726563,1.3007813 v 6.4335937 c 0,1.13671879 -0.140625,1.26562504 -0.726563,1.28906254 l -0.632812,0.046875 v 0.43359375 c 0.84375,-0.03515625 2.167969,-0.046875 2.90625,-0.046875 0.75,0 2.132812,0.01171875 2.976562,0.046875 v -0.43359375 l -0.691406,-0.046875 C 69.278,-0.46757031 69.195969,-0.58475781 69.195969,-1.6394453 v -7.5703125 c 0.492187,-0.1289063 0.914062,-0.1640625 1.40625,-0.1640625 1.488281,0 2.320312,0.6796875 2.320312,1.8984375 0,1.3242187 -1.054687,2.15625 -2.71875,2.15625 -0.08203,0 -0.222656,0 -0.410156,-0.011719 l -0.08203,0.1640625 c 0.152343,0.1875 0.199218,0.2460938 0.363281,0.4335938 0.210937,0.234375 0.246094,0.2929687 0.375,0.4570312 l 2.648437,3.55078129 c 0.08203,0.10546875 0.164063,0.22265625 0.257813,0.328125 l 0.328125,0.4453125 c 0.585937,-0.03515625 0.796875,-0.046875 0.972656,-0.046875 0.152344,0 0.339844,0.01171875 1.03125,0.046875 v -0.43359375 c -0.457031,-0.046875 -0.691406,-0.12890625 -0.878906,-0.375 L 71.563156,-5.0027266 c 0.785156,-0.1875 1.136719,-0.3515625 1.605469,-0.65625 0.785156,-0.5507812 1.183594,-1.265625 1.183594,-2.109375 0,-1.3945312 -0.984375,-2.15625 -2.8125,-2.15625 H 71.3405 c -0.28125,0.011719 -0.527344,0.011719 -0.726563,0.023437 -0.433593,0.023437 -0.972656,0.023437 -1.523437,0.023437 h -1.453125 c -0.738281,0 -2.0625,-0.023437 -2.90625,-0.046875 z m 3.09375,1.3359375 v 6.4335937 c 0,1.13671879 -0.07031,1.25390629 -0.527344,1.28906254 -0.457031,-0.0351563 -0.539062,-0.15234375 -0.539062,-1.28906254 v -6.4335937 c 0,-1.1367188 0.08203,-1.2539063 0.539062,-1.3007813 0.457031,0.035156 0.527344,0.1640625 0.527344,1.3007813 z m 0,0"
         style="fill:#000000;fill-opacity:1;fill-rule:nonzero;stroke:none" />
      <path
         id="path18"
         d="m 83.138352,-1.7683516 c -0.386719,0.1289063 -0.644532,0.2226563 -1.40625,0.4335938 -0.105469,1.08984374 -0.457032,2.02734374 -1.289063,3.3984375 l 0.199219,0.1640625 0.585937,-0.28125 c 1.160157,-1.50000001 1.710938,-2.40234376 2.109375,-3.5039063 z m 18.099608,-7.4414062 c 0.49219,-0.1171875 0.92578,-0.1640625 1.40625,-0.1640625 1.5,0 2.33203,0.6796875 2.33203,1.8984375 0,1.3242187 -1.05469,2.15625 -2.71875,2.15625 -0.0937,0 -0.22265,0 -0.41015,-0.011719 l -0.0937,0.1640625 c 0.16406,0.1875 0.21093,0.2460938 0.375,0.4335938 0.19921,0.234375 0.24609,0.2929687 0.375,0.4570312 l 2.63671,3.55078129 c 0.0937,0.10546875 0.17579,0.22265625 0.25782,0.328125 0.10547,0.12890625 0.1875,0.2578125 0.32812,0.4453125 0.67969,-0.046875 0.82031,-0.046875 0.98438,-0.046875 0.1289,0 0.1289,0 1.03125,0.046875 v -0.43359375 c -0.45703,-0.046875 -0.69141,-0.12890625 -0.87891,-0.375 L 103.6052,-5.0027268 c 0.80859,-0.1992187 1.18359,-0.3632812 1.65234,-0.6914062 0.75,-0.5273438 1.14844,-1.2421875 1.14844,-2.0742188 0,-1.3828125 -1.00781,-2.15625 -2.77734,-2.15625 h -0.23438 c -1.86328,0.046875 -1.86328,0.046875 -2.35547,0.046875 -0.46875,0 -0.46875,0 -2.484373,-0.046875 v 0.4335938 l 0.597656,0.035156 c 0.65625,0.046875 0.726563,0.1757813 0.726563,1.3007813 v 6.4335937 c 0,1.13671879 -0.07031,1.25390629 -0.726563,1.28906254 l -0.691406,0.046875 v 0.43359375 c 0.84375,-0.03515625 1.347656,-0.046875 2.097653,-0.046875 0.73828,0 1.25391,0.01171875 2.10938,0.046875 v -0.43359375 l -0.69141,-0.046875 c -0.65625,-0.0351563 -0.73828,-0.15234375 -0.73828,-1.28906254 z m 11.1416,8.0390625 -0.082,1.21874999 c 0.9375,-0.046875 0.9375,-0.046875 1.125,-0.046875 0.0703,0 0.43359,0.01171875 1.06641,0.046875 v -0.43359375 l -0.5625,-0.0234375 c -0.35157,-0.0234375 -0.41016,-0.140625 -0.41016,-0.83203124 v -2.625 c 0,-2.0976563 -0.59766,-2.859375 -2.26172,-2.859375 -0.62109,0 -1.18359,0.1523437 -1.73437,0.4921875 l -0.76172,0.4570312 v 0.9257813 l 0.375,0.1054687 0.1875,-0.4453125 c 0.30469,-0.6796875 0.44531,-0.7734375 1.10156,-0.7734375 1.34766,0 1.91016,0.5273438 1.95703,1.828125 l -1.42969,0.2695313 c -1.94531,0.3515625 -2.76562,1.03125 -2.76562,2.2734375 0,1.12499999 0.67969,1.76953124 1.80469,1.76953124 0.25781,0 0.5039,-0.046875 0.60937,-0.1171875 z m 0,-0.609375 c -0.42187,0.5859375 -1.32422,1.13671874 -1.88672,1.13671874 -0.57422,0 -1.07812,-0.52734374 -1.07812,-1.14843754 0,-0.5273437 0.29297,-1.03125 0.72656,-1.3007812 0.35156,-0.2226563 1.14844,-0.421875 2.23828,-0.5742188 z m 8.40235,1.82812499 c 0.8789,-0.046875 0.89062,-0.046875 1.13671,-0.046875 0.19922,0 0.19922,0 1.1836,0.046875 v -0.43359375 l -0.58594,-0.046875 c -0.49219,-0.0234375 -0.52734,-0.1171875 -0.52734,-1.03125004 v -2.765625 c 0,-1.6757812 -0.79688,-2.4960937 -2.40235,-2.4960937 -0.52734,0 -0.83203,0.1054687 -1.125,0.3632812 l -1.08984,0.9375 v -1.2421875 l -0.12891,-0.058594 c -0.73828,0.3046875 -1.48828,0.5039062 -2.23828,0.5859375 v 0.3984375 h 0.52735 c 0.57421,0 0.63281,0.1054687 0.63281,1.0546875 v 3.2226562 c 0,0.90234379 -0.0469,1.00781254 -0.53906,1.03125004 l -0.64454,0.046875 v 0.43359375 c 0.98438,-0.03515625 1.3711,-0.046875 1.78125,-0.046875 0.42188,0 0.8086,0.01171875 1.78125,0.046875 v -0.43359375 l -0.64453,-0.046875 c -0.49218,-0.0234375 -0.52734,-0.12890625 -0.52734,-1.03125004 v -3.0351562 c 0,-0.6445313 0.9375,-1.3476563 1.81641,-1.3476563 0.96093,0 1.59375,0.7148438 1.59375,1.8164063 z m 9.9082,-5.47265629 0.36328,-0.5859375 -0.0586,-0.1757812 -2.03907,0.058594 c -0.52734,-0.421875 -1.04296,-0.5976562 -1.74609,-0.5976562 -0.63281,0 -1.35937,0.1992187 -1.95703,0.5390625 -0.79688,0.46875 -1.21875,1.171875 -1.21875,2.0390625 0,1.0664062 0.66797,1.7929687 1.72266,1.9101562 l -1.125,0.8789063 c -0.15235,0.2109375 -0.22266,0.39843749 -0.22266,0.60937499 0,0.41015625 0.25781,0.6328125 0.94922,0.83203125 l -1.25391,0.6796875 c -0.19922,0.1171875 -0.39844,0.64453126 -0.39844,1.08984376 0,1.3007812 1.27735,2.203125 3.10547,2.203125 2.15625,0 3.86719,-1.359375 3.86719,-3.10546876 0,-1.03125 -0.69141,-1.7578125 -1.6875,-1.7578125 h -2.29687 c -0.75,0 -1.08985,-0.1640625 -1.08985,-0.55078124 0,-0.1875 0.11719,-0.3515625 0.48047,-0.6679688 0.0937,-0.070312 0.11719,-0.09375 0.17578,-0.1523437 0.14063,0.011719 0.23438,0.023437 0.33985,0.023437 0.62109,0 1.38281,-0.2695313 1.96875,-0.6796875 0.64453,-0.4804688 0.96093,-1.0546875 0.96093,-1.8164063 0,-0.28125 -0.0469,-0.46875 -0.15234,-0.7734375 z m -3.99609,-0.8085937 c 0.97265,0 1.6289,0.796875 1.6289,2.015625 0,0.9375 -0.59765,1.5820312 -1.47656,1.5820312 -0.96094,0 -1.60547,-0.75 -1.60547,-1.8515625 0,-1.1015625 0.52734,-1.7460937 1.45313,-1.7460937 z m 0.66796,6.43359374 c 1.62891,0 2.17969,0.328125 2.17969,1.26562496 0,1.2304688 -1.125,2.1445313 -2.63672,2.1445313 -1.24218,0 -2.10937,-0.7265625 -2.10937,-1.7929688 0,-0.6445312 0.375,-1.23046871 0.94922,-1.47656246 0.23437,-0.10546875 0.63281,-0.140625 1.61718,-0.140625 z m 7.86036,-6.92578124 c -2.08594,0 -3.53907,1.4765625 -3.53907,3.609375 0,2.0273437 1.27735,3.39843749 3.12891,3.39843749 2.20312,0 3.78516,-1.52343749 3.78516,-3.67968749 0,-1.9335938 -1.40625,-3.328125 -3.375,-3.328125 z m -0.25782,0.46875 c 1.32422,0 2.29688,1.4414062 2.29688,3.3867187 0,1.6523438 -0.72656,2.68359379 -1.88672,2.68359379 -1.40625,0 -2.35547,-1.37109379 -2.35547,-3.41015629 0,-1.7226562 0.69141,-2.6601562 1.94531,-2.6601562 z m 12.04981,0.7265625 h -7.23047 v 0.796875 h 7.23047 z m 0,2.7773437 h -7.23047 v 0.8085938 h 7.23047 z m 0,0"
         style="fill:#000000;fill-opacity:1;fill-rule:nonzero;stroke:none" />
      <path
         id="path19"
         d="m 148.06902,-9.4910078 0.63281,0.035156 c 0.58594,0.046875 0.72656,0.1640625 0.72656,1.3007813 v 6.4335937 c 0,1.13671879 -0.14062,1.26562504 -0.72656,1.28906254 l -0.63281,0.046875 v 0.43359375 c 0.84375,-0.03515625 2.16796,-0.046875 2.90625,-0.046875 0.75,0 2.13281,0.01171875 2.97656,0.046875 v -0.43359375 l -0.69141,-0.046875 c -0.64453,-0.0351563 -0.72656,-0.15234375 -0.72656,-1.20703124 V -9.209758 c 0.49219,-0.1289063 0.91406,-0.1640625 1.40625,-0.1640625 1.48828,0 2.32031,0.6796875 2.32031,1.8984375 0,1.3242187 -1.05469,2.15625 -2.71875,2.15625 -0.082,0 -0.22265,0 -0.41015,-0.011719 l -0.082,0.1640625 c 0.15235,0.1875 0.19922,0.2460938 0.36329,0.4335938 0.21093,0.234375 0.24609,0.2929687 0.375,0.4570312 l 2.64843,3.55078129 c 0.082,0.10546875 0.16407,0.22265625 0.25782,0.328125 l 0.32812,0.4453125 c 0.58594,-0.03515625 0.79688,-0.046875 0.97266,-0.046875 0.15234,0 0.33984,0.01171875 1.03125,0.046875 v -0.43359375 c -0.45703,-0.046875 -0.69141,-0.12890625 -0.87891,-0.375 L 154.90109,-5.002727 c 0.78515,-0.1875 1.13672,-0.3515625 1.60547,-0.65625 0.78515,-0.5507812 1.18359,-1.265625 1.18359,-2.109375 0,-1.3945312 -0.98438,-2.15625 -2.8125,-2.15625 h -0.19922 c -0.28125,0.011719 -0.52734,0.011719 -0.72656,0.023437 -0.4336,0.023437 -0.97266,0.023437 -1.52344,0.023437 h -1.45312 c -0.73829,0 -2.0625,-0.023437 -2.90625,-0.046875 z m 3.09375,1.3359375 v 6.4335937 c 0,1.13671879 -0.0703,1.25390629 -0.52735,1.28906254 -0.45703,-0.0351563 -0.53906,-0.15234375 -0.53906,-1.28906254 v -6.4335937 c 0,-1.1367188 0.082,-1.2539063 0.53906,-1.3007813 0.45703,0.035156 0.52735,0.1640625 0.52735,1.3007813 z m 0,0"
         style="fill:#000000;fill-opacity:1;fill-rule:nonzero;stroke:none" />
      <path
         id="path20"
         d="m 0.31608594,26.374227 0.69140626,0.03516 c 0.65625,0.04687 0.7265625,0.164062 0.7265625,1.300781 v 6.433594 c 0,1.136719 -0.058594,1.230469 -0.7265625,1.289062 l -0.51562501,0.04687 v 0.433594 c 0.93750001,-0.03516 1.35937501,-0.04687 1.75781251,-0.04687 0.070312,0 0.4804687,0 1.0195312,0.01172 1.9921875,0.03516 1.9921875,0.03516 2.3085938,0.03516 0.4453125,0 0.4453125,0 2.4023437,-0.04687 0,-0.832031 0.082031,-1.605469 0.2226563,-2.355469 H 7.6988984 c -0.023437,0.234375 -0.058594,0.433594 -0.070312,0.492188 -0.082031,0.621094 -0.2695312,1.054687 -0.46875,1.136719 -0.3046875,0.09375 -1.3476562,0.164062 -2.6367187,0.164062 -0.75,0 -1.0078125,-0.02344 -1.4296875,-0.117187 v -4.007813 c 0.4101562,-0.03516 0.8320312,-0.04687 1.4765625,-0.04687 1.0664062,0 1.453125,0.04687 1.7109375,0.175781 l 0.1171875,0.351563 0.070312,0.855469 h 0.4335937 c -0.046875,-1.335938 -0.046875,-1.335938 -0.046875,-1.59375 0,-0.234375 0,-0.234375 0.046875,-1.664063 H 6.4684297 l -0.070312,0.738281 c -0.011719,0.128907 -0.058594,0.257813 -0.1171875,0.375 -0.2578125,0.117188 -0.65625,0.164063 -1.6054688,0.164063 -0.5976562,0 -1.0898437,-0.02344 -1.5820312,-0.04687 v -3.832031 c 0.4453125,-0.09375 0.6914062,-0.117188 1.6875,-0.117188 0.8085937,0 1.6171875,0.08203 2.0742187,0.210938 0.3398438,0.08203 0.3867188,0.152343 0.3867188,0.480468 v 0.9375 h 0.5039062 c 0,-0.867187 0.070312,-1.546875 0.234375,-2.179687 -0.703125,-0.03516 -1.1484375,-0.04687 -1.78125,-0.04687 -0.3632812,0 -0.8320312,0 -1.4179687,0.01172 -0.9140625,0.01172 -1.5234375,0.03516 -1.9101563,0.03516 -0.4921875,0 -1.1367187,-0.02344 -2.55468746,-0.04687 z m 8.77734376,0.01172 h 0.8085937 c 0.2578126,0 0.3515626,0.152344 0.3515626,0.585938 v 7.429687 c 0,0.902344 -0.03516,1.007813 -0.5273438,1.03125 l -0.65625,0.04687 v 0.433594 c 1.4296878,-0.04687 1.4296878,-0.04687 1.7929688,-0.04687 0.351562,0 0.351562,0 1.792969,0.04687 v -0.433594 l -0.667969,-0.04687 c -0.480469,-0.02344 -0.527344,-0.128906 -0.527344,-1.03125 v -8.835937 l -0.128906,-0.117188 c -0.632813,0.246094 -1.101563,0.363282 -2.2382813,0.539063 z m 8.6074223,7.429688 c 0,0.984375 -0.03516,1.417969 -0.152344,1.992187 0.738281,0.246094 1.300781,0.339844 1.957031,0.339844 1.886719,0 3.222656,-0.996094 3.222656,-2.402344 0,-0.445312 -0.128906,-0.773437 -0.410156,-1.066406 -0.375,-0.351562 -0.84375,-0.527344 -2.109375,-0.773437 -1.171875,-0.222657 -1.558594,-0.515625 -1.558594,-1.171875 0,-0.714844 0.503907,-1.125 1.371094,-1.125 0.960938,0 1.699219,0.503906 1.699219,1.183593 v 0.328125 h 0.398437 c 0.01172,-0.832031 0.03516,-1.183593 0.07031,-1.617187 -0.761719,-0.257813 -1.277344,-0.363281 -1.863281,-0.363281 -1.664063,0 -2.683594,0.785156 -2.683594,2.074218 0,0.691407 0.316406,1.183594 0.984375,1.476563 0.386719,0.175781 1.136719,0.410156 2.121094,0.621094 0.644531,0.140625 0.914062,0.445312 0.914062,0.996093 0,0.773438 -0.714844,1.3125 -1.734375,1.3125 -1.042969,0 -1.792969,-0.503906 -1.792969,-1.21875 v -0.585937 z m 11.765625,1.042969 -0.1875,-0.140625 c -0.914063,0.550781 -1.253907,0.679687 -1.863282,0.679687 -0.9375,0 -1.710937,-0.421875 -2.109375,-1.125 -0.269531,-0.46875 -0.375,-0.878906 -0.398437,-1.710937 h 2.085937 c 0.996094,0 1.605469,-0.03516 2.601563,-0.199219 0.01172,-0.199219 0.02344,-0.328125 0.02344,-0.492188 0,-1.652343 -1.054687,-2.730468 -2.660156,-2.730468 -0.539062,0 -1.148437,0.1875 -1.734375,0.527343 -1.183594,0.679688 -1.652344,1.570313 -1.652344,3.058594 0,0.902344 0.210938,1.675781 0.597657,2.226563 0.574218,0.761718 1.535156,1.195312 2.613281,1.195312 0.527344,0 1.066406,-0.105469 1.652344,-0.363281 0.386718,-0.164063 0.691406,-0.351563 0.738281,-0.433594 z m -1.125,-2.824219 c -0.738282,0.03516 -1.089844,0.04687 -1.605469,0.04687 -0.65625,0 -1.03125,-0.01172 -1.804688,-0.08203 0,-0.679688 0.05859,-0.996094 0.246094,-1.371094 0.304688,-0.632813 0.914063,-1.019531 1.605469,-1.019531 0.46875,0 0.84375,0.1875 1.101562,0.574218 0.316407,0.480469 0.421875,0.890625 0.457032,1.851563 z m 7.611328,3.878906 c 0.878906,-0.04687 0.890625,-0.04687 1.136718,-0.04687 0.199219,0 0.199219,0 1.183594,0.04687 V 35.479695 L 37.68718,35.43282 c -0.492188,-0.02344 -0.527344,-0.117187 -0.527344,-1.03125 v -2.765625 c 0,-1.675781 -0.796875,-2.496093 -2.402344,-2.496093 -0.527344,0 -0.832031,0.105468 -1.125,0.363281 l -1.089844,0.9375 v -1.242188 l -0.128906,-0.05859 c -0.738281,0.304687 -1.488281,0.503906 -2.238281,0.585937 v 0.398438 h 0.527344 c 0.574218,0 0.632812,0.105468 0.632812,1.054687 v 3.222656 c 0,0.902344 -0.04687,1.007813 -0.539062,1.03125 l -0.644532,0.04687 v 0.433594 c 0.984375,-0.03516 1.371094,-0.04687 1.78125,-0.04687 0.421875,0 0.808594,0.01172 1.78125,0.04687 v -0.433594 l -0.644531,-0.04687 c -0.492187,-0.02344 -0.527344,-0.128906 -0.527344,-1.03125 v -3.035156 c 0,-0.644531 0.9375,-1.347656 1.816407,-1.347656 0.960937,0 1.59375,0.714844 1.59375,1.816406 z m 6.46289,-6.773437 c -2.085937,0 -3.539062,1.476562 -3.539062,3.609375 0,2.027343 1.277344,3.398437 3.128906,3.398437 2.203125,0 3.785156,-1.523437 3.785156,-3.679687 0,-1.933594 -1.40625,-3.328125 -3.375,-3.328125 z m -0.257812,0.46875 c 1.324219,0 2.296875,1.441406 2.296875,3.386718 0,1.652344 -0.726563,2.683594 -1.886719,2.683594 -1.40625,0 -2.355469,-1.371094 -2.355469,-3.410156 0,-1.722656 0.691407,-2.660156 1.945313,-2.660156 z m 8.373047,-3.222657 h 0.796875 c 0.257812,0 0.363281,0.152344 0.363281,0.585938 v 7.429687 c 0,0.902344 -0.04687,1.007813 -0.539063,1.03125 l -0.644531,0.04687 v 0.433594 c 0.984375,-0.03516 1.371094,-0.04687 1.78125,-0.04687 0.421875,0 0.808594,0.01172 1.78125,0.04687 v -0.433594 l -0.644531,-0.04687 c -0.492188,-0.02344 -0.527344,-0.128906 -0.527344,-1.03125 v -3.035156 c 0,-0.644531 0.9375,-1.347656 1.816406,-1.347656 0.960938,0 1.59375,0.714844 1.59375,1.816406 v 4.078125 c 0.878907,-0.04687 0.890625,-0.04687 1.136719,-0.04687 0.199219,0 0.199219,0 1.183594,0.04687 v -0.433594 l -0.585938,-0.04687 c -0.492187,-0.02344 -0.527343,-0.117187 -0.527343,-1.03125 v -2.765625 c 0,-1.675781 -0.796875,-2.496093 -2.402344,-2.496093 -0.527344,0 -0.832031,0.105468 -1.125,0.363281 l -1.089844,0.9375 v -4.875 l -0.128906,-0.117188 c -0.632813,0.246094 -1.113281,0.363282 -2.238281,0.539063 z m 10.939453,2.8125 -0.128906,-0.05859 c -0.726563,0.304687 -1.476563,0.503906 -2.238282,0.585937 v 0.398438 h 0.527344 c 0.574219,0 0.632813,0.105468 0.632813,1.054687 v 3.222656 c 0,0.902344 -0.03516,1.007813 -0.527344,1.03125 l -0.65625,0.04687 v 0.433594 c 1.429687,-0.04687 1.429687,-0.04687 1.792969,-0.04687 0.351562,0 0.351562,0 1.792968,0.04687 v -0.433594 l -0.667968,-0.04687 c -0.480469,-0.02344 -0.527344,-0.128906 -0.527344,-1.03125 z m -0.65625,-3.1875 c -0.433594,0 -0.808594,0.375 -0.808594,0.808594 0,0.410156 0.375,0.785156 0.796875,0.785156 0.410156,0 0.796875,-0.375 0.796875,-0.785156 0,-0.410156 -0.386719,-0.808594 -0.785156,-0.808594 z m 2.276367,4.113282 h 0.539062 c 0.5625,0 0.621094,0.105468 0.621094,1.054687 v 7.207031 c 0,0.914063 -0.03516,1.007813 -0.527344,1.042969 l -0.65625,0.03516 v 0.433594 c 1.429688,-0.04687 1.429688,-0.04687 1.792969,-0.04687 0.351563,0 0.351563,0 1.792969,0.04687 v -0.4336 L 65.985031,39.42891 C 65.504562,39.39375 65.457687,39.300004 65.457687,38.385941 V 35.67891 c 0.433594,0.257813 0.890625,0.363281 1.535157,0.363281 0.421875,0 0.785156,-0.09375 1.019531,-0.234375 L 69.653,34.753133 c 0.574219,-0.375 1.242187,-1.851563 1.242187,-2.777344 0,-1.59375 -1.324218,-2.835937 -2.976562,-2.835937 -0.539063,0 -1.054688,0.140625 -1.277344,0.363281 l -1.183594,1.066406 v -1.371094 l -0.128906,-0.05859 c -0.726562,0.304687 -1.476562,0.503906 -2.238281,0.585937 z m 2.367187,1.347656 c 0,-0.199219 0.07031,-0.351563 0.257813,-0.597656 0.421875,-0.527344 1.007812,-0.796875 1.722656,-0.796875 1.347656,0 2.214844,0.9375 2.214844,2.4375 0,1.605468 -0.960938,2.789062 -2.261719,2.789062 -0.785156,0 -1.371094,-0.257812 -1.933594,-0.84375 z m 12.38379,3.386719 -0.1875,-0.140625 c -0.914063,0.550781 -1.253907,0.679687 -1.863282,0.679687 -0.9375,0 -1.710937,-0.421875 -2.109375,-1.125 -0.269531,-0.46875 -0.375,-0.878906 -0.398437,-1.710937 h 2.085937 c 0.996094,0 1.605469,-0.03516 2.601563,-0.199219 0.01172,-0.199219 0.02344,-0.328125 0.02344,-0.492188 0,-1.652343 -1.054687,-2.730468 -2.660156,-2.730468 -0.539062,0 -1.148437,0.1875 -1.734375,0.527343 -1.183594,0.679688 -1.652344,1.570313 -1.652344,3.058594 0,0.902344 0.210938,1.675781 0.597657,2.226563 0.574218,0.761718 1.535156,1.195312 2.613281,1.195312 0.527344,0 1.066406,-0.105469 1.652344,-0.363281 0.386718,-0.164063 0.691406,-0.351563 0.738281,-0.433594 z m -1.125,-2.824219 c -0.738282,0.03516 -1.089844,0.04687 -1.605469,0.04687 -0.65625,0 -1.03125,-0.01172 -1.804688,-0.08203 0,-0.679688 0.05859,-0.996094 0.246094,-1.371094 0.304688,-0.632813 0.914063,-1.019531 1.605469,-1.019531 0.46875,0 0.84375,0.1875 1.101562,0.574218 0.316407,0.480469 0.421875,0.890625 0.457032,1.851563 z m 2.05664,-1.910156 h 0.527344 c 0.574219,0 0.632812,0.105468 0.632812,1.054687 v 3.222656 c 0,0.902344 -0.03516,1.007813 -0.527343,1.03125 l -0.65625,0.04687 v 0.433594 c 1.03125,-0.03516 1.40625,-0.04687 1.757812,-0.04687 0.292969,0 0.292969,0 2.050781,0.04687 v -0.433594 l -0.738281,-0.04687 c -0.644531,-0.03516 -0.679687,-0.08203 -0.679687,-1.03125 v -2.460937 c 0,-0.867188 0.574218,-1.582031 1.277343,-1.582031 0.433594,0 0.726563,0.199218 0.960938,0.65625 h 0.304687 l 0.128907,-1.722657 c -0.164063,-0.09375 -0.421875,-0.152343 -0.679688,-0.152343 -0.421875,0 -0.890625,0.234375 -1.183594,0.585937 l -0.808593,0.949219 v -1.476563 l -0.128907,-0.05859 c -0.726562,0.304687 -1.476562,0.503906 -2.238281,0.585937 z m 7.494141,-4.558594 -0.128906,-0.117188 c -0.632813,0.246094 -1.113282,0.363282 -2.238282,0.539063 v 0.398437 h 0.796875 c 0.257813,0 0.363282,0.152344 0.363282,0.585938 v 6.703125 c 0,0.890625 -0.01172,1.277344 -0.117188,2.273437 l 0.234375,0.09375 0.574219,-0.515625 c 0.5625,0.363282 1.089844,0.515625 1.839844,0.515625 0.5625,0 0.9375,-0.105468 1.242187,-0.316406 l 1.429688,-1.03125 c 0.632812,-0.46875 1.136718,-1.652344 1.136718,-2.695312 0,-1.664063 -1.078125,-2.859375 -2.601562,-2.859375 -0.667969,0 -1.371094,0.257812 -1.746094,0.632812 l -0.785156,0.796875 z m 0,5.882812 c 0,-0.199218 0.140625,-0.457031 0.363281,-0.714843 0.410156,-0.421875 0.960938,-0.65625 1.558594,-0.65625 1.195312,0 1.957031,0.972656 1.957031,2.507812 0,1.605469 -0.855469,2.71875 -2.074219,2.71875 -0.75,0 -1.804687,-0.457031 -1.804687,-0.773437 z m 9.773437,-2.308593 c -2.085937,0 -3.539062,1.476562 -3.539062,3.609375 0,2.027343 1.277344,3.398437 3.128906,3.398437 2.203125,0 3.785156,-1.523437 3.785156,-3.679687 0,-1.933594 -1.40625,-3.328125 -3.375,-3.328125 z m -0.257812,0.46875 c 1.324219,0 2.296875,1.441406 2.296875,3.386718 0,1.652344 -0.726563,2.683594 -1.886719,2.683594 -1.40625,0 -2.355469,-1.371094 -2.355469,-3.410156 0,-1.722656 0.691407,-2.660156 1.945313,-2.660156 z m 4.423827,-3.222657 h 0.80859 c 0.25782,0 0.35157,0.152344 0.35157,0.585938 v 7.429687 c 0,0.902344 -0.0352,1.007813 -0.52735,1.03125 l -0.65625,0.04687 v 0.433594 c 1.42969,-0.04687 1.42969,-0.04687 1.79297,-0.04687 0.35156,0 0.35156,0 1.79297,0.04687 v -0.433594 l -0.66797,-0.04687 c -0.48047,-0.02344 -0.52734,-0.128906 -0.52734,-1.03125 v -8.835937 l -0.12891,-0.117188 c -0.63281,0.246094 -1.10156,0.363282 -2.23828,0.539063 z m 6.54199,2.8125 -0.1289,-0.05859 c -0.72657,0.304687 -1.47657,0.503906 -2.23828,0.585937 v 0.398438 h 0.52734 c 0.57422,0 0.63281,0.105468 0.63281,1.054687 v 3.222656 c 0,0.902344 -0.0352,1.007813 -0.52734,1.03125 l -0.65625,0.04687 v 0.433594 c 1.42969,-0.04687 1.42969,-0.04687 1.79297,-0.04687 0.35156,0 0.35156,0 1.79297,0.04687 v -0.433594 l -0.66797,-0.04687 c -0.48047,-0.02344 -0.52735,-0.128906 -0.52735,-1.03125 z m -0.65625,-3.1875 c -0.43359,0 -0.80859,0.375 -0.80859,0.808594 0,0.410156 0.375,0.785156 0.79687,0.785156 0.41016,0 0.79688,-0.375 0.79688,-0.785156 0,-0.410156 -0.38672,-0.808594 -0.78516,-0.808594 z m 7.8545,5.390625 c 0,-0.65625 0.0703,-1.242187 0.21093,-1.757812 -0.57422,-0.351563 -1.07812,-0.503906 -1.66406,-0.503906 -0.69141,0 -1.5,0.269531 -2.35547,0.820312 -1.00781,0.632813 -1.53515,1.628906 -1.53515,2.894531 0,1.933594 1.35937,3.292969 3.28125,3.292969 0.75,0 1.82812,-0.269531 1.96875,-0.480469 l 0.30468,-0.457031 -0.15234,-0.222656 c -0.52734,0.292969 -0.98438,0.421875 -1.5,0.421875 -1.59375,0 -2.63672,-1.230469 -2.63672,-3.128906 0,-1.535157 0.71484,-2.390625 2.00391,-2.390625 0.63281,0 1.32422,0.28125 1.58203,0.644531 l 0.0937,0.867187 z m 4.64648,-2.261718 c -2.08594,0 -3.53906,1.476562 -3.53906,3.609375 0,2.027343 1.27734,3.398437 3.1289,3.398437 2.20313,0 3.78516,-1.523437 3.78516,-3.679687 0,-1.933594 -1.40625,-3.328125 -3.375,-3.328125 z m -0.25781,0.46875 c 1.32422,0 2.29687,1.441406 2.29687,3.386718 0,1.652344 -0.72656,2.683594 -1.88672,2.683594 -1.40625,0 -2.35547,-1.371094 -2.35547,-3.410156 0,-1.722656 0.69141,-2.660156 1.94532,-2.660156 z m 14.54004,5.25 -0.1875,-0.140625 c -0.91407,0.550781 -1.25391,0.679687 -1.86329,0.679687 -0.9375,0 -1.71093,-0.421875 -2.10937,-1.125 -0.26953,-0.46875 -0.375,-0.878906 -0.39844,-1.710937 h 2.08594 c 0.99609,0 1.60547,-0.03516 2.60156,-0.199219 0.0117,-0.199219 0.0234,-0.328125 0.0234,-0.492188 0,-1.652343 -1.05469,-2.730468 -2.66016,-2.730468 -0.53906,0 -1.14843,0.1875 -1.73437,0.527343 -1.1836,0.679688 -1.65235,1.570313 -1.65235,3.058594 0,0.902344 0.21094,1.675781 0.59766,2.226563 0.57422,0.761718 1.53516,1.195312 2.61328,1.195312 0.52735,0 1.06641,-0.105469 1.65235,-0.363281 0.38671,-0.164063 0.6914,-0.351563 0.73828,-0.433594 z m -1.125,-2.824219 c -0.73829,0.03516 -1.08985,0.04687 -1.60547,0.04687 -0.65625,0 -1.03125,-0.01172 -1.80469,-0.08203 0,-0.679688 0.0586,-0.996094 0.24609,-1.371094 0.30469,-0.632813 0.91407,-1.019531 1.60547,-1.019531 0.46875,0 0.84375,0.1875 1.10156,0.574218 0.31641,0.480469 0.42188,0.890625 0.45704,1.851563 z m 2.31152,1.78125 c 0,0.984375 -0.0352,1.417969 -0.15234,1.992187 0.73828,0.246094 1.30078,0.339844 1.95703,0.339844 1.88672,0 3.22265,-0.996094 3.22265,-2.402344 0,-0.445312 -0.1289,-0.773437 -0.41015,-1.066406 -0.375,-0.351562 -0.84375,-0.527344 -2.10938,-0.773437 -1.17187,-0.222657 -1.55859,-0.515625 -1.55859,-1.171875 0,-0.714844 0.5039,-1.125 1.37109,-1.125 0.96094,0 1.69922,0.503906 1.69922,1.183593 v 0.328125 h 0.39844 c 0.0117,-0.832031 0.0351,-1.183593 0.0703,-1.617187 -0.76172,-0.257813 -1.27734,-0.363281 -1.86328,-0.363281 -1.66406,0 -2.68359,0.785156 -2.68359,2.074218 0,0.691407 0.3164,1.183594 0.98437,1.476563 0.38672,0.175781 1.13672,0.410156 2.12109,0.621094 0.64454,0.140625 0.91407,0.445312 0.91407,0.996093 0,0.773438 -0.71485,1.3125 -1.73438,1.3125 -1.04297,0 -1.79297,-0.503906 -1.79297,-1.21875 v -0.585937 z m 16.89258,-4.617188 -0.12891,-0.05859 c -0.73828,0.304687 -1.47656,0.503906 -2.23828,0.585937 v 0.398438 h 0.52734 c 0.57422,0 0.63282,0.105468 0.63282,1.054687 v 2.332031 c 0,0.316407 -0.19922,0.714844 -0.52735,1.054688 -0.41015,0.398437 -0.86718,0.597656 -1.42968,0.597656 -0.49219,0 -0.90235,-0.152344 -1.125,-0.433594 -0.19922,-0.222656 -0.30469,-0.667968 -0.30469,-1.300781 V 29.19845 l -0.12891,-0.05859 c -0.72656,0.304687 -1.47656,0.503906 -2.23828,0.585937 v 0.398438 h 0.52734 c 0.57422,0 0.63282,0.105468 0.63282,1.054687 v 2.402344 c 0,1.007812 0.0937,1.453125 0.35156,1.816406 0.30469,0.421875 0.85547,0.644531 1.67578,0.644531 0.64453,0 1.21875,-0.199218 1.60547,-0.5625 l 0.96094,-0.890625 c 0,0.421875 -0.0117,0.644532 -0.0586,1.324219 0.96094,-0.04687 0.97266,-0.04687 1.19532,-0.04687 0.19921,0 0.19921,0 1.18359,0.04687 v -0.433594 l -0.58594,-0.04687 c -0.49219,-0.02344 -0.52734,-0.117187 -0.52734,-1.03125 z m 7.3125,6.714844 c 0.8789,-0.04687 0.89062,-0.04687 1.13672,-0.04687 0.19922,0 0.19922,0 1.18359,0.04687 v -0.433594 l -0.58594,-0.04687 c -0.49218,-0.02344 -0.52734,-0.117187 -0.52734,-1.03125 v -2.765625 c 0,-1.675781 -0.79688,-2.496093 -2.40234,-2.496093 -0.52735,0 -0.83204,0.105468 -1.125,0.363281 l -1.08985,0.9375 v -1.242188 l -0.1289,-0.05859 c -0.73829,0.304687 -1.48829,0.503906 -2.23829,0.585937 v 0.398438 h 0.52735 c 0.57422,0 0.63281,0.105468 0.63281,1.054687 v 3.222656 c 0,0.902344 -0.0469,1.007813 -0.53906,1.03125 l -0.64453,0.04687 v 0.433594 c 0.98437,-0.03516 1.37109,-0.04687 1.78125,-0.04687 0.42187,0 0.80859,0.01172 1.78125,0.04687 V 35.4797 l -0.64453,-0.04687 c -0.49219,-0.02344 -0.52735,-0.128906 -0.52735,-1.03125 v -3.035156 c 0,-0.644531 0.9375,-1.347656 1.81641,-1.347656 0.96094,0 1.59375,0.714844 1.59375,1.816406 z m 7.11914,-1.21875 -0.082,1.21875 c 0.9375,-0.04687 0.9375,-0.04687 1.125,-0.04687 0.0703,0 0.43359,0.01172 1.0664,0.04687 v -0.433594 l -0.5625,-0.02344 c -0.35156,-0.02344 -0.41015,-0.140625 -0.41015,-0.832031 v -2.625 c 0,-2.097657 -0.59766,-2.859375 -2.26172,-2.859375 -0.6211,0 -1.1836,0.152343 -1.73438,0.492187 l -0.76172,0.457031 v 0.925782 l 0.375,0.105468 0.1875,-0.445312 c 0.30469,-0.679688 0.44532,-0.773438 1.10157,-0.773438 1.34765,0 1.91015,0.527344 1.95703,1.828125 l -1.42969,0.269532 c -1.94531,0.351562 -2.76562,1.03125 -2.76562,2.273437 0,1.125 0.67968,1.769531 1.80468,1.769531 0.25782,0 0.50391,-0.04687 0.60938,-0.117187 z m 0,-0.609375 c -0.42188,0.585938 -1.32422,1.136719 -1.88672,1.136719 -0.57422,0 -1.07813,-0.527344 -1.07813,-1.148438 0,-0.527343 0.29297,-1.03125 0.72657,-1.300781 0.35156,-0.222656 1.14843,-0.421875 2.23828,-0.574219 z m 11.58398,-8.507812 c -0.29297,-0.105469 -0.46875,-0.152344 -0.65625,-0.152344 -0.45703,0 -0.96093,0.246094 -1.27734,0.597656 l -0.83203,0.949219 c -0.41016,0.480469 -0.59766,1.125 -0.59766,2.0625 v 0.609375 l -0.99609,0.445312 v 0.316407 l 0.99609,-0.05859 v 4.054687 c 0,0.902344 -0.0469,1.007813 -0.53906,1.03125 l -0.65625,0.04687 v 0.433594 c 1.44141,-0.04687 1.44141,-0.04687 1.79297,-0.04687 0.36328,0 0.36328,0 1.79297,0.04687 v -0.433594 l -0.65625,-0.04687 c -0.49219,-0.02344 -0.52735,-0.128906 -0.52735,-1.03125 v -4.054687 h 1.76953 l 0.10547,-0.761719 -1.875,0.05859 v -1.21875 c 0,-1.652344 0.17578,-2.050781 0.9961,-2.050781 0.38672,0 0.64453,0.09375 0.99609,0.398437 l 0.16406,-0.08203 z m 7.10742,3.621093 -0.1289,-0.05859 c -0.73828,0.304687 -1.47656,0.503906 -2.23828,0.585937 v 0.398438 h 0.52734 c 0.57422,0 0.63281,0.105468 0.63281,1.054687 v 2.332031 c 0,0.316407 -0.19922,0.714844 -0.52734,1.054688 -0.41016,0.398437 -0.86719,0.597656 -1.42969,0.597656 -0.49219,0 -0.90234,-0.152344 -1.125,-0.433594 -0.19922,-0.222656 -0.30469,-0.667968 -0.30469,-1.300781 V 29.19845 l -0.1289,-0.05859 c -0.72656,0.304687 -1.47656,0.503906 -2.23828,0.585937 v 0.398438 h 0.52734 c 0.57422,0 0.63281,0.105468 0.63281,1.054687 v 2.402344 c 0,1.007812 0.0937,1.453125 0.35157,1.816406 0.30468,0.421875 0.85546,0.644531 1.67578,0.644531 0.64453,0 1.21875,-0.199218 1.60547,-0.5625 l 0.96093,-0.890625 c 0,0.421875 -0.0117,0.644532 -0.0586,1.324219 0.96094,-0.04687 0.97266,-0.04687 1.19531,-0.04687 0.19922,0 0.19922,0 1.1836,0.04687 v -0.433594 l -0.58594,-0.04687 c -0.49219,-0.02344 -0.52735,-0.117187 -0.52735,-1.03125 z m 7.31543,6.714844 c 0.87891,-0.04687 0.89063,-0.04687 1.13672,-0.04687 0.19922,0 0.19922,0 1.1836,0.04687 v -0.433594 l -0.58594,-0.04687 c -0.49219,-0.02344 -0.52734,-0.117187 -0.52734,-1.03125 v -2.765625 c 0,-1.675781 -0.79688,-2.496093 -2.40235,-2.496093 -0.52734,0 -0.83203,0.105468 -1.125,0.363281 l -1.08984,0.9375 v -1.242188 l -0.12891,-0.05859 c -0.73828,0.304687 -1.48828,0.503906 -2.23828,0.585937 v 0.398438 h 0.52734 c 0.57422,0 0.63282,0.105468 0.63282,1.054687 v 3.222656 c 0,0.902344 -0.0469,1.007813 -0.53907,1.03125 l -0.64453,0.04687 v 0.433594 c 0.98438,-0.03516 1.3711,-0.04687 1.78125,-0.04687 0.42188,0 0.8086,0.01172 1.78125,0.04687 V 35.4797 l -0.64453,-0.04687 c -0.49219,-0.02344 -0.52734,-0.128906 -0.52734,-1.03125 v -3.035156 c 0,-0.644531 0.9375,-1.347656 1.8164,-1.347656 0.96094,0 1.59375,0.714844 1.59375,1.816406 z m 8.18555,-4.511719 c 0,-0.65625 0.0703,-1.242187 0.21094,-1.757812 -0.57422,-0.351563 -1.07813,-0.503906 -1.66406,-0.503906 -0.69141,0 -1.5,0.269531 -2.35547,0.820312 -1.00782,0.632813 -1.53516,1.628906 -1.53516,2.894531 0,1.933594 1.35938,3.292969 3.28125,3.292969 0.75,0 1.82813,-0.269531 1.96875,-0.480469 l 0.30469,-0.457031 -0.15235,-0.222656 c -0.52734,0.292969 -0.98437,0.421875 -1.5,0.421875 -1.59375,0 -2.63671,-1.230469 -2.63671,-3.128906 0,-1.535157 0.71484,-2.390625 2.0039,-2.390625 0.63281,0 1.32422,0.28125 1.58203,0.644531 l 0.0937,0.867187 z m 3.3457,-2.203125 -0.1289,-0.05859 c -0.72656,0.304687 -1.47656,0.503906 -2.23828,0.585937 v 0.398438 h 0.52734 c 0.57422,0 0.63281,0.105468 0.63281,1.054687 v 3.222656 c 0,0.902344 -0.0352,1.007813 -0.52734,1.03125 l -0.65625,0.04687 v 0.433594 c 1.42969,-0.04687 1.42969,-0.04687 1.79297,-0.04687 0.35156,0 0.35156,0 1.79297,0.04687 v -0.433594 l -0.66797,-0.04687 c -0.48047,-0.02344 -0.52735,-0.128906 -0.52735,-1.03125 z m -0.65625,-3.1875 c -0.43359,0 -0.80859,0.375 -0.80859,0.808594 0,0.410156 0.375,0.785156 0.79688,0.785156 0.41015,0 0.79687,-0.375 0.79687,-0.785156 0,-0.410156 -0.38672,-0.808594 -0.78516,-0.808594 z m 6.13184,3.128907 c -2.08594,0 -3.53906,1.476562 -3.53906,3.609375 0,2.027343 1.27734,3.398437 3.1289,3.398437 2.20313,0 3.78516,-1.523437 3.78516,-3.679687 0,-1.933594 -1.40625,-3.328125 -3.375,-3.328125 z m -0.25781,0.46875 c 1.32422,0 2.29687,1.441406 2.29687,3.386718 0,1.652344 -0.72656,2.683594 -1.88672,2.683594 -1.40625,0 -2.35546,-1.371094 -2.35546,-3.410156 0,-1.722656 0.6914,-2.660156 1.94531,-2.660156 z m -1.17188,-0.996094 h 0.57422 l 2.0625,-1.300781 c 0.48047,-0.292969 0.57422,-0.410157 0.57422,-0.667969 0,-0.269531 -0.19922,-0.492188 -0.44531,-0.492188 -0.21094,0 -0.46875,0.164063 -0.78516,0.480469 z m 11.15039,7.300781 c 0.87891,-0.04687 0.89063,-0.04687 1.13672,-0.04687 0.19922,0 0.19922,0 1.1836,0.04687 v -0.433594 l -0.58594,-0.04687 c -0.49219,-0.02344 -0.52735,-0.117187 -0.52735,-1.03125 v -2.765625 c 0,-1.675781 -0.79687,-2.496093 -2.40234,-2.496093 -0.52734,0 -0.83203,0.105468 -1.125,0.363281 l -1.08984,0.9375 v -1.242188 l -0.12891,-0.05859 c -0.73828,0.304687 -1.48828,0.503906 -2.23828,0.585937 v 0.398438 h 0.52734 c 0.57422,0 0.63282,0.105468 0.63282,1.054687 v 3.222656 c 0,0.902344 -0.0469,1.007813 -0.53907,1.03125 l -0.64453,0.04687 v 0.433594 c 0.98438,-0.03516 1.3711,-0.04687 1.78125,-0.04687 0.42188,0 0.8086,0.01172 1.78125,0.04687 V 35.4797 l -0.64453,-0.04687 c -0.49219,-0.02344 -0.52734,-0.128906 -0.52734,-1.03125 v -3.035156 c 0,-0.644531 0.9375,-1.347656 1.8164,-1.347656 0.96094,0 1.59375,0.714844 1.59375,1.816406 z m 9.33692,-6.714844 -0.12891,-0.05859 c -0.72656,0.304687 -1.47656,0.503906 -2.23828,0.585937 v 0.398438 h 0.52734 c 0.57422,0 0.63282,0.105468 0.63282,1.054687 v 3.222656 c 0,0.902344 -0.0352,1.007813 -0.52735,1.03125 l -0.65625,0.04687 v 0.433594 c 1.42969,-0.04687 1.42969,-0.04687 1.79297,-0.04687 0.35156,0 0.35156,0 1.79297,0.04687 v -0.433594 l -0.66797,-0.04687 c -0.48047,-0.02344 -0.52734,-0.128906 -0.52734,-1.03125 z m -0.65625,-3.1875 c -0.4336,0 -0.8086,0.375 -0.8086,0.808594 0,0.410156 0.375,0.785156 0.79688,0.785156 0.41015,0 0.79687,-0.375 0.79687,-0.785156 0,-0.410156 -0.38672,-0.808594 -0.78515,-0.808594 z m 2.39355,4.113282 h 0.52735 c 0.57421,0 0.63281,0.105468 0.63281,1.054687 v 3.222656 c 0,0.902344 -0.0352,1.007813 -0.52735,1.03125 l -0.65625,0.04687 v 0.433594 c 1.3711,-0.04687 1.41797,-0.04687 1.81641,-0.04687 0.39844,0 0.77344,0.01172 1.71094,0.04687 v -0.433594 l -0.60938,-0.04687 c -0.48047,-0.02344 -0.52734,-0.128906 -0.52734,-1.03125 v -3.035156 c 0,-0.644531 0.94922,-1.347656 1.80469,-1.347656 0.77343,0 1.3125,0.726562 1.3125,1.816406 v 2.566406 c 0,0.902344 -0.0469,1.007813 -0.53907,1.03125 l -0.65625,0.04687 v 0.433594 c 1.42969,-0.04687 1.42969,-0.04687 1.79297,-0.04687 0.36328,0 0.36328,0 1.79297,0.04687 v -0.433594 l -0.65625,-0.04687 c -0.49219,-0.02344 -0.53906,-0.128906 -0.53906,-1.03125 v -3.035156 c 0,-0.644531 0.94922,-1.347656 1.81641,-1.347656 0.77343,0 1.30078,0.726562 1.30078,1.816406 v 4.078125 c 0.8789,-0.04687 0.89062,-0.04687 1.13672,-0.04687 0.1875,0 0.1875,0 1.27734,0.04687 v -0.433594 l -0.67969,-0.04687 c -0.48047,-0.02344 -0.52734,-0.128906 -0.52734,-1.03125 v -2.953125 c 0,-1.417968 -0.83203,-2.308593 -2.15625,-2.308593 -0.50391,0 -0.91406,0.128906 -1.17188,0.363281 l -1.08984,0.972656 c -0.45703,-0.949219 -1.05469,-1.335937 -2.03906,-1.335937 -0.52735,0 -0.9375,0.128906 -1.19532,0.363281 l -0.98437,0.914062 v -1.21875 l -0.12891,-0.05859 c -0.72656,0.304687 -1.47656,0.503906 -2.23828,0.585937 z m 12.55078,0 h 0.53907 c 0.5625,0 0.62109,0.105468 0.62109,1.054687 v 7.207031 c 0,0.914063 -0.0352,1.007813 -0.52734,1.042969 l -0.65625,0.03516 v 0.433594 c 1.42968,-0.04687 1.42968,-0.04687 1.79296,-0.04687 0.35157,0 0.35157,0 1.79297,0.04687 v -0.4336 l -0.66797,-0.03516 c -0.48046,-0.03516 -0.52734,-0.128906 -0.52734,-1.042969 V 35.67891 c 0.43359,0.257813 0.89063,0.363281 1.53516,0.363281 0.42187,0 0.78515,-0.09375 1.01953,-0.234375 l 1.64062,-1.054687 c 0.57422,-0.375 1.24219,-1.851563 1.24219,-2.777344 0,-1.59375 -1.32422,-2.835937 -2.97656,-2.835937 -0.53906,0 -1.05469,0.140625 -1.27735,0.363281 l -1.18359,1.066406 v -1.371094 l -0.12891,-0.05859 c -0.72656,0.304687 -1.47656,0.503906 -2.23828,0.585937 z m 2.36719,1.347656 c 0,-0.199219 0.0703,-0.351563 0.25781,-0.597656 0.42188,-0.527344 1.00782,-0.796875 1.72266,-0.796875 1.34766,0 2.21484,0.9375 2.21484,2.4375 0,1.605468 -0.96093,2.789062 -2.26172,2.789062 -0.78515,0 -1.37109,-0.257812 -1.93359,-0.84375 z m 10.7666,3.222656 -0.082,1.21875 c 0.9375,-0.04687 0.9375,-0.04687 1.125,-0.04687 0.0703,0 0.43359,0.01172 1.06641,0.04687 v -0.433594 l -0.5625,-0.02344 c -0.35157,-0.02344 -0.41016,-0.140625 -0.41016,-0.832031 v -2.625 c 0,-2.097657 -0.59766,-2.859375 -2.26172,-2.859375 -0.62109,0 -1.18359,0.152343 -1.73437,0.492187 l -0.76172,0.457031 v 0.925782 l 0.375,0.105468 0.1875,-0.445312 c 0.30469,-0.679688 0.44531,-0.773438 1.10156,-0.773438 1.34766,0 1.91016,0.527344 1.95703,1.828125 l -1.42969,0.269532 c -1.94531,0.351562 -2.76562,1.03125 -2.76562,2.273437 0,1.125 0.67969,1.769531 1.80469,1.769531 0.25781,0 0.5039,-0.04687 0.60937,-0.117187 z m 0,-0.609375 c -0.42187,0.585938 -1.32422,1.136719 -1.88672,1.136719 -0.57422,0 -1.07812,-0.527344 -1.07812,-1.148438 0,-0.527343 0.29297,-1.03125 0.72656,-1.300781 0.35156,-0.222656 1.14844,-0.421875 2.23828,-0.574219 z m 2.84766,-3.960937 h 0.52734 c 0.57422,0 0.63281,0.105468 0.63281,1.054687 v 3.222656 c 0,0.902344 -0.0351,1.007813 -0.52734,1.03125 l -0.65625,0.04687 v 0.433594 c 1.03125,-0.03516 1.40625,-0.04687 1.75781,-0.04687 0.29297,0 0.29297,0 2.05078,0.04687 v -0.433594 l -0.73828,-0.04687 c -0.64453,-0.03516 -0.67968,-0.08203 -0.67968,-1.03125 v -2.460937 c 0,-0.867188 0.57421,-1.582031 1.27734,-1.582031 0.43359,0 0.72656,0.199218 0.96094,0.65625 h 0.30468 l 0.12891,-1.722657 c -0.16406,-0.09375 -0.42187,-0.152343 -0.67969,-0.152343 -0.42187,0 -0.89062,0.234375 -1.18359,0.585937 l -0.80859,0.949219 v -1.476563 l -0.12891,-0.05859 c -0.72656,0.304687 -1.47656,0.503906 -2.23828,0.585937 z M 0.58561719,69.680867 c 0,0.984375 -0.0351563,1.417969 -0.15234375,1.992188 0.73828126,0.246093 1.30078126,0.339843 1.95703126,0.339843 1.8867187,0 3.2226562,-0.996093 3.2226562,-2.402343 0,-0.445313 -0.1289062,-0.773438 -0.4101562,-1.066407 -0.375,-0.351562 -0.84375,-0.527343 -2.109375,-0.773437 -1.171875,-0.222656 -1.5585938,-0.515625 -1.5585938,-1.171875 0,-0.714844 0.5039063,-1.125 1.3710938,-1.125 0.9609375,0 1.6992187,0.503906 1.6992187,1.183594 v 0.328125 h 0.3984375 c 0.011719,-0.832032 0.035156,-1.183594 0.070312,-1.617188 -0.7617187,-0.257812 -1.2773437,-0.363281 -1.8632812,-0.363281 -1.6640625,0 -2.68359376,0.785156 -2.68359376,2.074219 0,0.691406 0.31640625,1.183593 0.98437496,1.476562 0.3867188,0.175781 1.1367188,0.410156 2.1210938,0.621094 0.6445312,0.140625 0.9140625,0.445312 0.9140625,0.996094 0,0.773437 -0.7148438,1.3125 -1.734375,1.3125 -1.0429688,0 -1.7929688,-0.503907 -1.7929688,-1.21875 V 69.680867 Z M 8.7770234,65.06368 8.6481172,65.005086 c -0.7265625,0.304687 -1.4765625,0.503906 -2.2382813,0.585937 v 0.398438 h 0.5273438 c 0.5742187,0 0.6328125,0.105469 0.6328125,1.054687 v 3.222657 c 0,0.902343 -0.035156,1.007812 -0.5273438,1.03125 l -0.65625,0.04687 v 0.433593 c 1.4296875,-0.04687 1.4296875,-0.04687 1.7929688,-0.04687 0.3515625,0 0.3515625,0 1.7929687,0.04687 V 71.34493 L 9.3043672,71.298055 C 8.8238984,71.274617 8.7770234,71.169148 8.7770234,70.266805 Z m -0.65625,-3.1875 c -0.4335937,0 -0.8085937,0.375 -0.8085937,0.808593 0,0.410157 0.375,0.785157 0.796875,0.785157 0.4101562,0 0.796875,-0.375 0.796875,-0.785157 0,-0.410156 -0.3867188,-0.808593 -0.7851563,-0.808593 z m 8.0185546,9.902343 c 0.878906,-0.04687 0.890625,-0.04687 1.136719,-0.04687 0.199219,0 0.199219,0 1.183594,0.04687 V 71.34493 l -0.585938,-0.04687 c -0.492187,-0.02344 -0.527344,-0.117188 -0.527344,-1.03125 v -2.76563 c 0,-1.675782 -0.796875,-2.496094 -2.402343,-2.496094 -0.527344,0 -0.832032,0.105469 -1.125,0.363281 l -1.089844,0.9375 V 65.06368 l -0.128906,-0.05859 c -0.738282,0.304687 -1.488282,0.503906 -2.238282,0.585937 v 0.398438 h 0.527344 c 0.574219,0 0.632813,0.105469 0.632813,1.054687 v 3.222657 c 0,0.902343 -0.04687,1.007812 -0.539063,1.03125 l -0.644531,0.04687 v 0.433593 c 0.984375,-0.03516 1.371094,-0.04687 1.78125,-0.04687 0.421875,0 0.808594,0.01172 1.78125,0.04687 V 71.34493 l -0.644531,-0.04687 c -0.492188,-0.02344 -0.527344,-0.128907 -0.527344,-1.03125 v -3.035157 c 0,-0.644531 0.9375,-1.347656 1.816406,-1.347656 0.960938,0 1.59375,0.714844 1.59375,1.816406 z m 2.572266,-9.527343 h 0.796875 c 0.257812,0 0.363281,0.152343 0.363281,0.585937 v 7.429688 c 0,0.902343 -0.04687,1.007812 -0.539063,1.03125 l -0.644531,0.04687 v 0.433593 c 0.984375,-0.03516 1.371094,-0.04687 1.78125,-0.04687 0.421875,0 0.808594,0.01172 1.78125,0.04687 V 71.34493 l -0.644531,-0.04687 c -0.492188,-0.02344 -0.527344,-0.128907 -0.527344,-1.03125 v -3.035157 c 0,-0.644531 0.9375,-1.347656 1.816406,-1.347656 0.960938,0 1.59375,0.714844 1.59375,1.816406 v 4.078125 c 0.878907,-0.04687 0.890625,-0.04687 1.136719,-0.04687 0.199219,0 0.199219,0 1.183594,0.04687 V 71.34493 l -0.585938,-0.04687 c -0.492187,-0.02344 -0.527343,-0.117188 -0.527343,-1.03125 v -2.76563 c 0,-1.675782 -0.796875,-2.496094 -2.402344,-2.496094 -0.527344,0 -0.832031,0.105469 -1.125,0.363281 l -1.089844,0.9375 v -4.875 L 20.949875,61.31368 c -0.632813,0.246093 -1.113281,0.363281 -2.238281,0.539062 z m 0,0"
         style="fill:#000000;fill-opacity:1;fill-rule:nonzero;stroke:none" />
      <path
         id="path21"
         d="m 32.082687,75.317586 c 0,-0.04687 0,-0.07031 -0.246093,-0.328125 -1.875,-1.886719 -2.355469,-4.710938 -2.355469,-6.996094 0,-2.601562 0.574219,-5.203125 2.414062,-7.078125 0.1875,-0.175781 0.1875,-0.199219 0.1875,-0.246094 0,-0.105468 -0.05859,-0.152343 -0.140625,-0.152343 -0.152343,0 -1.5,1.019531 -2.378906,2.917968 -0.761719,1.640625 -0.949219,3.304688 -0.949219,4.558594 0,1.171875 0.164063,2.976563 0.996094,4.664063 0.890625,1.839843 2.179688,2.8125 2.332031,2.8125 0.08203,0 0.140625,-0.04687 0.140625,-0.152344 z m 0,0"
         style="fill:#000000;fill-opacity:1;fill-rule:nonzero;stroke:none" />
      <path
         id="path22"
         d="m 43.145187,68.298055 c 0.257813,0 0.527344,0 0.527344,-0.304688 0,-0.304687 -0.269531,-0.304687 -0.527344,-0.304687 H 35.05925 c -0.257813,0 -0.527344,0 -0.527344,0.304687 0,0.304688 0.269531,0.304688 0.527344,0.304688 z m 0,0"
         style="fill:#000000;fill-opacity:1;fill-rule:nonzero;stroke:none" />
      <path
         id="path23"
         d="m 52.230148,70.325398 c -0.539062,0.445313 -0.878906,0.5625 -1.113281,0.5625 -0.210937,0 -0.386719,-0.04687 -0.527344,-0.316406 -0.128906,-0.269531 -0.304687,-0.878906 -0.375,-1.3125 -0.03516,-0.234375 -0.07031,-0.457031 -0.09375,-0.667969 0.421875,-0.574218 0.84375,-1.207031 1.054688,-1.523437 0.199219,-0.304688 0.738281,-1.160156 0.820312,-1.441406 -0.08203,-0.164063 -0.140625,-0.292969 -0.234375,-0.503907 -0.03516,-0.03516 -0.152343,-0.07031 -0.210937,-0.105468 -0.328125,1.195312 -0.515625,1.59375 -1.042969,2.4375 -0.05859,0.09375 -0.292969,0.445312 -0.457031,0.691406 -0.257813,-1.722656 -0.316406,-2.121094 -0.410156,-2.625 -0.128907,-0.644531 -0.527344,-0.703125 -0.832032,-0.703125 -0.316406,0.01172 -0.785156,0.257812 -1.253906,0.703125 -0.351562,0.316406 -0.621094,0.691406 -0.878906,1.136719 -0.632813,1.277343 -1.089844,2.976562 -1.089844,4.125 0,0.480468 0.210938,1.101562 0.539063,1.101562 0.5625,0 1.019531,-0.28125 1.464843,-0.609375 0.609375,-0.515625 1.253907,-1.160156 1.699219,-1.664062 0.152344,1.488281 0.585938,2.273437 1.125,2.273437 0.316406,0 0.761719,-0.234375 1.242188,-0.65625 l 0.703125,-0.632812 z m -3,-1.160156 c -0.421875,0.492188 -0.832031,0.914063 -1.195312,1.21875 -0.445313,0.375 -0.84375,0.503906 -1.101563,0.503906 -0.1875,0 -0.257812,-0.199218 -0.257812,-0.574218 0,-0.925782 0.234375,-2.472657 0.703125,-3.65625 0.1875,-0.480469 0.539062,-0.890625 0.855469,-0.890625 0.421875,0 0.574218,0.257812 0.667968,0.890625 z m 0,0"
         style="fill:#000000;fill-opacity:1;fill-rule:nonzero;stroke:none" />
      <path
         id="path24"
         d="m 57.527023,67.993367 c 0,-1.171875 -0.164062,-2.976562 -0.984375,-4.664062 -0.902343,-1.839844 -2.191406,-2.8125 -2.34375,-2.8125 -0.08203,0 -0.140625,0.05859 -0.140625,0.152343 0,0.04687 0,0.07031 0.28125,0.339844 1.464844,1.476563 2.320313,3.855469 2.320313,6.984375 0,2.554688 -0.550781,5.191406 -2.414063,7.078125 -0.1875,0.175781 -0.1875,0.199219 -0.1875,0.246094 0,0.09375 0.05859,0.152344 0.140625,0.152344 0.152344,0 1.5,-1.019532 2.378907,-2.917969 0.761718,-1.640625 0.949218,-3.304688 0.949218,-4.558594 z M 73.613937,66.84493 c 0.222657,0 0.503907,0 0.503907,-0.304688 0,-0.292969 -0.28125,-0.292969 -0.492188,-0.292969 h -8.953125 c -0.210937,0 -0.503906,0 -0.503906,0.292969 0,0.304688 0.292969,0.304688 0.515625,0.304688 z m 0.01172,2.894531 c 0.210938,0 0.492188,0 0.492188,-0.292969 0,-0.304687 -0.28125,-0.304687 -0.503907,-0.304687 H 64.68425 c -0.222656,0 -0.515625,0 -0.515625,0.304687 0,0.292969 0.292969,0.292969 0.503906,0.292969 z m 0,0"
         style="fill:#000000;fill-opacity:1;fill-rule:nonzero;stroke:none" />
      <path
         id="path25"
         d="m 89.161789,68.298055 c 0.257813,0 0.527344,0 0.527344,-0.304688 0,-0.304687 -0.269531,-0.304687 -0.527344,-0.304687 h -8.085937 c -0.257813,0 -0.527344,0 -0.527344,0.304687 0,0.304688 0.269531,0.304688 0.527344,0.304688 z m 0,0"
         style="fill:#000000;fill-opacity:1;fill-rule:nonzero;stroke:none" />
      <path
         id="path26"
         d="m 94.083664,69.680867 c 0,0.984375 -0.03516,1.417969 -0.152344,1.992188 0.738282,0.246093 1.300782,0.339843 1.957032,0.339843 1.886718,0 3.222656,-0.996093 3.222656,-2.402343 0,-0.445313 -0.128906,-0.773438 -0.410156,-1.066407 -0.375,-0.351562 -0.84375,-0.527343 -2.109375,-0.773437 -1.171875,-0.222656 -1.558594,-0.515625 -1.558594,-1.171875 0,-0.714844 0.503906,-1.125 1.371094,-1.125 0.960937,0 1.699218,0.503906 1.699218,1.183594 v 0.328125 h 0.398438 c 0.01172,-0.832032 0.03516,-1.183594 0.07031,-1.617188 -0.761718,-0.257812 -1.277343,-0.363281 -1.863281,-0.363281 -1.664062,0 -2.683594,0.785156 -2.683594,2.074219 0,0.691406 0.316407,1.183593 0.984375,1.476562 0.386719,0.175781 1.136719,0.410156 2.121094,0.621094 0.644531,0.140625 0.914063,0.445312 0.914063,0.996094 0,0.773437 -0.714844,1.3125 -1.734375,1.3125 -1.042969,0 -1.792969,-0.503907 -1.792969,-1.21875 v -0.585938 z m 8.191406,-4.617187 -0.12891,-0.05859 c -0.72656,0.304687 -1.47656,0.503906 -2.238277,0.585937 v 0.398438 h 0.527347 c 0.57422,0 0.63281,0.105469 0.63281,1.054687 v 3.222657 c 0,0.902343 -0.0352,1.007812 -0.52734,1.03125 l -0.656255,0.04687 v 0.433593 c 1.429685,-0.04687 1.429685,-0.04687 1.792965,-0.04687 0.35157,0 0.35157,0 1.79297,0.04687 V 71.34493 l -0.66797,-0.04687 c -0.48046,-0.02344 -0.52734,-0.128907 -0.52734,-1.03125 z m -0.65625,-3.1875 c -0.43359,0 -0.80859,0.375 -0.80859,0.808593 0,0.410157 0.375,0.785157 0.79687,0.785157 0.41016,0 0.79688,-0.375 0.79688,-0.785157 0,-0.410156 -0.38672,-0.808593 -0.78516,-0.808593 z m 8.01855,9.902343 c 0.87891,-0.04687 0.89063,-0.04687 1.13672,-0.04687 0.19922,0 0.19922,0 1.1836,0.04687 V 71.34493 l -0.58594,-0.04687 c -0.49219,-0.02344 -0.52734,-0.117188 -0.52734,-1.03125 v -2.76563 c 0,-1.675782 -0.79688,-2.496094 -2.40235,-2.496094 -0.52734,0 -0.83203,0.105469 -1.125,0.363281 l -1.08984,0.9375 V 65.06368 l -0.12891,-0.05859 c -0.73828,0.304687 -1.48828,0.503906 -2.23828,0.585937 v 0.398438 h 0.52734 c 0.57422,0 0.63282,0.105469 0.63282,1.054687 v 3.222657 c 0,0.902343 -0.0469,1.007812 -0.53907,1.03125 l -0.64453,0.04687 v 0.433593 c 0.98438,-0.03516 1.3711,-0.04687 1.78125,-0.04687 0.42188,0 0.8086,0.01172 1.78125,0.04687 V 71.34493 l -0.64453,-0.04687 c -0.49219,-0.02344 -0.52734,-0.128907 -0.52734,-1.03125 v -3.035157 c 0,-0.644531 0.9375,-1.347656 1.8164,-1.347656 0.96094,0 1.59375,0.714844 1.59375,1.816406 z m 2.57227,-9.527343 h 0.79688 c 0.25781,0 0.36328,0.152343 0.36328,0.585937 v 7.429688 c 0,0.902343 -0.0469,1.007812 -0.53907,1.03125 l -0.64453,0.04687 v 0.433593 c 0.98438,-0.03516 1.3711,-0.04687 1.78125,-0.04687 0.42188,0 0.8086,0.01172 1.78125,0.04687 V 71.34493 l -0.64453,-0.04687 c -0.49219,-0.02344 -0.52734,-0.128907 -0.52734,-1.03125 v -3.035157 c 0,-0.644531 0.9375,-1.347656 1.8164,-1.347656 0.96094,0 1.59375,0.714844 1.59375,1.816406 v 4.078125 c 0.87891,-0.04687 0.89063,-0.04687 1.13672,-0.04687 0.19922,0 0.19922,0 1.1836,0.04687 V 71.34493 l -0.58594,-0.04687 c -0.49219,-0.02344 -0.52734,-0.117188 -0.52734,-1.03125 v -2.76563 c 0,-1.675782 -0.79688,-2.496094 -2.40235,-2.496094 -0.52734,0 -0.83203,0.105469 -1.125,0.363281 l -1.08984,0.9375 v -4.875 l -0.12891,-0.117187 c -0.63281,0.246093 -1.11328,0.363281 -2.23828,0.539062 z m 0,0"
         style="fill:#000000;fill-opacity:1;fill-rule:nonzero;stroke:none" />
      <path
         id="path27"
         d="m 125.5778,75.317586 c 0,-0.04687 0,-0.07031 -0.24609,-0.328125 -1.875,-1.886719 -2.35547,-4.710938 -2.35547,-6.996094 0,-2.601562 0.57422,-5.203125 2.41406,-7.078125 0.1875,-0.175781 0.1875,-0.199219 0.1875,-0.246094 0,-0.105468 -0.0586,-0.152343 -0.14062,-0.152343 -0.15234,0 -1.5,1.019531 -2.37891,2.917968 -0.76172,1.640625 -0.94922,3.304688 -0.94922,4.558594 0,1.171875 0.16407,2.976563 0.9961,4.664063 0.89062,1.839843 2.17969,2.8125 2.33203,2.8125 0.082,0 0.14062,-0.04687 0.14062,-0.152344 z m 0,0"
         style="fill:#000000;fill-opacity:1;fill-rule:nonzero;stroke:none" />
      <path
         id="path28"
         d="m 133.7487,70.325398 c -0.53906,0.445313 -0.8789,0.5625 -1.11328,0.5625 -0.21094,0 -0.38672,-0.04687 -0.52734,-0.316406 -0.12891,-0.269531 -0.30469,-0.878906 -0.375,-1.3125 -0.0352,-0.234375 -0.0703,-0.457031 -0.0937,-0.667969 0.42187,-0.574218 0.84375,-1.207031 1.05469,-1.523437 0.19921,-0.304688 0.73828,-1.160156 0.82031,-1.441406 -0.082,-0.164063 -0.14063,-0.292969 -0.23438,-0.503907 -0.0352,-0.03516 -0.15234,-0.07031 -0.21093,-0.105468 -0.32813,1.195312 -0.51563,1.59375 -1.04297,2.4375 -0.0586,0.09375 -0.29297,0.445312 -0.45703,0.691406 -0.25782,-1.722656 -0.31641,-2.121094 -0.41016,-2.625 -0.12891,-0.644531 -0.52734,-0.703125 -0.83203,-0.703125 -0.31641,0.01172 -0.78516,0.257812 -1.25391,0.703125 -0.35156,0.316406 -0.62109,0.691406 -0.8789,1.136719 -0.63282,1.277343 -1.08985,2.976562 -1.08985,4.125 0,0.480468 0.21094,1.101562 0.53906,1.101562 0.5625,0 1.01954,-0.28125 1.46485,-0.609375 0.60937,-0.515625 1.2539,-1.160156 1.69922,-1.664062 0.15234,1.488281 0.58593,2.273437 1.125,2.273437 0.3164,0 0.76172,-0.234375 1.24218,-0.65625 l 0.70313,-0.632812 z m -3,-1.160156 c -0.42187,0.492188 -0.83203,0.914063 -1.19531,1.21875 -0.44531,0.375 -0.84375,0.503906 -1.10156,0.503906 -0.1875,0 -0.25781,-0.199218 -0.25781,-0.574218 0,-0.925782 0.23437,-2.472657 0.70312,-3.65625 0.1875,-0.480469 0.53906,-0.890625 0.85547,-0.890625 0.42187,0 0.57422,0.257812 0.66797,0.890625 z m 0,0"
         style="fill:#000000;fill-opacity:1;fill-rule:nonzero;stroke:none" />
      <path
         id="path29"
         d="m 139.04558,67.993367 c 0,-1.171875 -0.16406,-2.976562 -0.98438,-4.664062 -0.90234,-1.839844 -2.1914,-2.8125 -2.34375,-2.8125 -0.082,0 -0.14062,0.05859 -0.14062,0.152343 0,0.04687 0,0.07031 0.28125,0.339844 1.46484,1.476563 2.32031,3.855469 2.32031,6.984375 0,2.554688 -0.55078,5.191406 -2.41406,7.078125 -0.1875,0.175781 -0.1875,0.199219 -0.1875,0.246094 0,0.09375 0.0586,0.152344 0.14062,0.152344 0.15235,0 1.5,-1.019532 2.37891,-2.917969 0.76172,-1.640625 0.94922,-3.304688 0.94922,-4.558594 z m 0,0"
         style="fill:#000000;fill-opacity:1;fill-rule:nonzero;stroke:none" />
      <path
         id="path30"
         d="m 3.0934297,98.385945 c 0.4921875,-0.117187 0.9257812,-0.164062 1.40625,-0.164062 1.5,0 2.3320312,0.679687 2.3320312,1.898437 0,1.32422 -1.0546875,2.15625 -2.71875,2.15625 -0.09375,0 -0.2226562,0 -0.4101562,-0.0117 l -0.09375,0.16406 c 0.1640625,0.1875 0.2109375,0.2461 0.375,0.4336 0.1992187,0.23437 0.2460937,0.29297 0.375,0.45703 l 2.6367187,3.55078 c 0.09375,0.10547 0.1757813,0.22266 0.2578125,0.32813 0.1054688,0.1289 0.1875,0.25781 0.328125,0.44531 0.6796875,-0.0469 0.8203125,-0.0469 0.984375,-0.0469 0.1289063,0 0.1289063,0 1.03125,0.0469 v -0.4336 c -0.4570312,-0.0469 -0.6914062,-0.1289 -0.8789062,-0.375 L 5.4606172,102.593 c 0.8085937,-0.19922 1.1835937,-0.36328 1.6523437,-0.69141 0.75,-0.52734 1.1484375,-1.24219 1.1484375,-2.074218 0,-1.382813 -1.0078125,-2.15625 -2.7773437,-2.15625 h -0.234375 c -1.8632813,0.04687 -1.8632813,0.04687 -2.3554688,0.04687 -0.46875,0 -0.46875,0 -2.48437496,-0.04687 v 0.433593 l 0.59765626,0.03516 c 0.65625,0.04687 0.7265625,0.175781 0.7265625,1.300781 v 6.433594 c 0,1.13672 -0.070312,1.2539 -0.7265625,1.28906 l -0.69140626,0.0469 v 0.4336 c 0.84374996,-0.0352 1.34765626,-0.0469 2.09765626,-0.0469 0.7382812,0 1.2539062,0.0117 2.109375,0.0469 v -0.4336 l -0.6914063,-0.0469 c -0.65625,-0.0352 -0.7382812,-0.15234 -0.7382812,-1.28906 z m 12.7587893,8.203125 -0.1875,-0.14062 c -0.914063,0.55078 -1.253907,0.67968 -1.863282,0.67968 -0.9375,0 -1.710937,-0.42187 -2.109375,-1.125 -0.269531,-0.46875 -0.375,-0.8789 -0.398437,-1.71093 h 2.085937 c 0.996094,0 1.605469,-0.0352 2.601563,-0.19922 0.01172,-0.19922 0.02344,-0.32813 0.02344,-0.49219 0,-1.65234 -1.054687,-2.73047 -2.660156,-2.73047 -0.539062,0 -1.148437,0.1875 -1.734375,0.52734 -1.183594,0.67969 -1.6523435,1.57032 -1.6523435,3.0586 0,0.90234 0.2109375,1.67578 0.5976565,2.22656 0.574218,0.76172 1.535156,1.19531 2.613281,1.19531 0.527344,0 1.066406,-0.10547 1.652344,-0.36328 0.386718,-0.16406 0.691406,-0.35156 0.738281,-0.43359 z m -1.125,-2.82422 c -0.738282,0.0352 -1.089844,0.0469 -1.605469,0.0469 -0.65625,0 -1.03125,-0.0117 -1.804688,-0.082 0,-0.67969 0.05859,-0.9961 0.246094,-1.3711 0.304688,-0.63281 0.914063,-1.01953 1.605469,-1.01953 0.46875,0 0.84375,0.1875 1.101562,0.57422 0.316407,0.48047 0.421875,0.89062 0.457032,1.85156 z m 2.05664,-5.648436 h 0.808594 c 0.257813,0 0.351563,0.152344 0.351563,0.585938 v 7.429688 c 0,0.90234 -0.03516,1.00781 -0.527344,1.03125 l -0.65625,0.0469 v 0.4336 c 1.429687,-0.0469 1.429687,-0.0469 1.792969,-0.0469 0.351562,0 0.351562,0 1.792968,0.0469 v -0.4336 l -0.667968,-0.0469 c -0.480469,-0.0234 -0.527344,-0.12891 -0.527344,-1.03125 v -8.835938 l -0.128906,-0.117188 c -0.632813,0.246094 -1.101563,0.363281 -2.238282,0.539063 z m 8.499024,8.308596 -0.08203,1.21875 c 0.9375,-0.0469 0.9375,-0.0469 1.125,-0.0469 0.07031,0 0.433593,0.0117 1.066406,0.0469 v -0.4336 l -0.5625,-0.0234 c -0.351563,-0.0234 -0.410156,-0.14063 -0.410156,-0.83203 v -2.625 c 0,-2.09766 -0.597657,-2.85938 -2.261719,-2.85938 -0.621094,0 -1.183594,0.15234 -1.734375,0.49219 l -0.761719,0.45703 v 0.92578 l 0.375,0.10547 0.1875,-0.44531 c 0.304688,-0.67969 0.445313,-0.77344 1.101563,-0.77344 1.347656,0 1.910156,0.52734 1.957031,1.82812 l -1.429688,0.26954 c -1.945312,0.35156 -2.765625,1.03125 -2.765625,2.27343 0,1.125 0.679688,1.76953 1.804688,1.76953 0.257812,0 0.503906,-0.0469 0.609375,-0.11718 z m 0,-0.60938 c -0.421875,0.58594 -1.324219,1.13672 -1.886719,1.13672 -0.574219,0 -1.078125,-0.52734 -1.078125,-1.14844 0,-0.52734 0.292969,-1.03125 0.726563,-1.30078 0.351562,-0.22265 1.148437,-0.42187 2.238281,-0.57422 z m 8.238281,-2.68359 c 0,-0.65625 0.07031,-1.24219 0.210938,-1.75781 -0.574219,-0.35157 -1.078125,-0.50391 -1.664063,-0.50391 -0.691406,0 -1.5,0.26953 -2.355469,0.82031 -1.007812,0.63282 -1.535156,1.62891 -1.535156,2.89453 0,1.9336 1.359375,3.29297 3.28125,3.29297 0.75,0 1.828125,-0.26953 1.96875,-0.48047 l 0.304688,-0.45703 -0.152344,-0.22265 c -0.527344,0.29297 -0.984375,0.42187 -1.5,0.42187 -1.59375,0 -2.636719,-1.23047 -2.636719,-3.1289 0,-1.53516 0.714844,-2.39063 2.003906,-2.39063 0.632813,0 1.324219,0.28125 1.582032,0.64453 l 0.09375,0.86719 z m 3.345703,-2.20313 -0.128906,-0.0586 c -0.726563,0.30469 -1.476563,0.50391 -2.238281,0.58594 v 0.39844 h 0.527343 c 0.574219,0 0.632813,0.10546 0.632813,1.05468 v 3.22266 c 0,0.90234 -0.03516,1.00781 -0.527344,1.03125 l -0.65625,0.0469 v 0.4336 c 1.429688,-0.0469 1.429688,-0.0469 1.792969,-0.0469 0.351562,0 0.351562,0 1.792969,0.0469 v -0.4336 l -0.667969,-0.0469 c -0.480469,-0.0234 -0.527344,-0.12891 -0.527344,-1.03125 z m -0.65625,-3.187496 c -0.433594,0 -0.808594,0.375 -0.808594,0.808594 0,0.410156 0.375,0.785156 0.796875,0.785156 0.410157,0 0.796875,-0.375 0.796875,-0.785156 0,-0.410156 -0.386718,-0.808594 -0.785156,-0.808594 z m 6.131836,3.128906 c -2.085937,0 -3.539062,1.47656 -3.539062,3.60938 0,2.02734 1.277343,3.39843 3.128906,3.39843 2.203125,0 3.785156,-1.52343 3.785156,-3.67968 0,-1.9336 -1.40625,-3.32813 -3.375,-3.32813 z m -0.257812,0.46875 c 1.324218,0 2.296875,1.44141 2.296875,3.38672 0,1.65234 -0.726563,2.68359 -1.886719,2.68359 -1.40625,0 -2.355469,-1.37109 -2.355469,-3.41015 0,-1.72266 0.691406,-2.66016 1.945313,-2.66016 z m -1.171875,-0.99609 h 0.574218 l 2.0625,-1.300785 c 0.480469,-0.292968 0.574219,-0.410156 0.574219,-0.667968 0,-0.269532 -0.199219,-0.492188 -0.445312,-0.492188 -0.210938,0 -0.46875,0.164063 -0.785157,0.480469 z m 11.15039,7.30078 c 0.878906,-0.0469 0.890625,-0.0469 1.136719,-0.0469 0.199219,0 0.199219,0 1.183594,0.0469 v -0.4336 l -0.585938,-0.0469 c -0.492187,-0.0234 -0.527344,-0.11719 -0.527344,-1.03125 v -2.76563 c 0,-1.67578 -0.796875,-2.49609 -2.402343,-2.49609 -0.527344,0 -0.832032,0.10547 -1.125,0.36328 L 48.653,102.1711 v -1.24219 l -0.128906,-0.0586 c -0.738282,0.30469 -1.488282,0.50391 -2.238282,0.58594 v 0.39844 h 0.527344 c 0.574219,0 0.632813,0.10546 0.632813,1.05468 v 3.22266 c 0,0.90234 -0.04687,1.00781 -0.539063,1.03125 l -0.644531,0.0469 v 0.4336 c 0.984375,-0.0352 1.371094,-0.0469 1.78125,-0.0469 0.421875,0 0.808594,0.0117 1.78125,0.0469 v -0.4336 l -0.644531,-0.0469 C 48.688156,107.13985 48.653,107.03438 48.653,106.13204 v -3.03516 c 0,-0.64453 0.9375,-1.34765 1.816406,-1.34765 0.960938,0 1.59375,0.71484 1.59375,1.8164 z m 12.360352,-4.51172 c 0,-0.65625 0.07031,-1.24219 0.210937,-1.75781 -0.574218,-0.35157 -1.078125,-0.50391 -1.664062,-0.50391 -0.691406,0 -1.5,0.26953 -2.355469,0.82031 -1.007812,0.63282 -1.535156,1.62891 -1.535156,2.89453 0,1.9336 1.359375,3.29297 3.28125,3.29297 0.75,0 1.828125,-0.26953 1.96875,-0.48047 l 0.304687,-0.45703 -0.152343,-0.22265 c -0.527344,0.29297 -0.984375,0.42187 -1.5,0.42187 -1.59375,0 -2.636719,-1.23047 -2.636719,-3.1289 0,-1.53516 0.714844,-2.39063 2.003906,-2.39063 0.632813,0 1.324219,0.28125 1.582031,0.64453 l 0.09375,0.86719 z m 4.646484,-2.26172 c -2.085937,0 -3.539062,1.47656 -3.539062,3.60938 0,2.02734 1.277343,3.39843 3.128906,3.39843 2.203125,0 3.785156,-1.52343 3.785156,-3.67968 0,-1.9336 -1.40625,-3.32813 -3.375,-3.32813 z m -0.257812,0.46875 c 1.324218,0 2.296875,1.44141 2.296875,3.38672 0,1.65234 -0.726563,2.68359 -1.886719,2.68359 -1.40625,0 -2.355469,-1.37109 -2.355469,-3.41015 0,-1.72266 0.691406,-2.66016 1.945313,-2.66016 z m 9.978515,6.30469 c 0.878907,-0.0469 0.890625,-0.0469 1.136719,-0.0469 0.199219,0 0.199219,0 1.183594,0.0469 v -0.4336 l -0.585938,-0.0469 c -0.492187,-0.0234 -0.527343,-0.11719 -0.527343,-1.03125 v -2.76563 c 0,-1.67578 -0.796875,-2.49609 -2.402344,-2.49609 -0.527344,0 -0.832031,0.10547 -1.125,0.36328 l -1.089844,0.9375 v -1.24219 l -0.128906,-0.0586 c -0.738281,0.30469 -1.488281,0.50391 -2.238281,0.58594 v 0.39844 h 0.527343 c 0.574219,0 0.632813,0.10546 0.632813,1.05468 v 3.22266 c 0,0.90234 -0.04687,1.00781 -0.539063,1.03125 l -0.644531,0.0469 v 0.4336 c 0.984375,-0.0352 1.371094,-0.0469 1.78125,-0.0469 0.421875,0 0.808594,0.0117 1.78125,0.0469 v -0.4336 l -0.644531,-0.0469 c -0.492188,-0.0234 -0.527344,-0.12891 -0.527344,-1.03125 v -3.03516 c 0,-0.64453 0.9375,-1.34765 1.816406,-1.34765 0.960938,0 1.59375,0.71484 1.59375,1.8164 z m 12.911133,-1.05469 -0.1875,-0.14062 c -0.914062,0.55078 -1.253906,0.67968 -1.863281,0.67968 -0.9375,0 -1.710938,-0.42187 -2.109375,-1.125 -0.269531,-0.46875 -0.375,-0.8789 -0.398438,-1.71093 h 2.085938 c 0.996094,0 1.605469,-0.0352 2.601562,-0.19922 0.01172,-0.19922 0.02344,-0.32813 0.02344,-0.49219 0,-1.65234 -1.054688,-2.73047 -2.660156,-2.73047 -0.539063,0 -1.148438,0.1875 -1.734375,0.52734 -1.183594,0.67969 -1.652344,1.57032 -1.652344,3.0586 0,0.90234 0.210937,1.67578 0.597656,2.22656 0.574219,0.76172 1.535156,1.19531 2.613281,1.19531 0.527344,0 1.066407,-0.10547 1.652344,-0.36328 0.386719,-0.16406 0.691406,-0.35156 0.738281,-0.43359 z m -1.125,-2.82422 c -0.738281,0.0352 -1.089844,0.0469 -1.605469,0.0469 -0.65625,0 -1.03125,-0.0117 -1.804687,-0.082 0,-0.67969 0.05859,-0.9961 0.246094,-1.3711 0.304687,-0.63281 0.914062,-1.01953 1.605468,-1.01953 0.46875,0 0.84375,0.1875 1.101563,0.57422 0.316406,0.48047 0.421875,0.89062 0.457031,1.85156 z m 2.053711,-5.648436 h 0.808594 c 0.257812,0 0.351562,0.152344 0.351562,0.585938 v 7.429688 c 0,0.90234 -0.03516,1.00781 -0.527343,1.03125 l -0.65625,0.0469 v 0.4336 c 1.429687,-0.0469 1.429687,-0.0469 1.792968,-0.0469 0.351563,0 0.351563,0 1.792969,0.0469 v -0.4336 l -0.667969,-0.0469 c -0.480468,-0.0234 -0.527343,-0.12891 -0.527343,-1.03125 V 97.296102 L 94.86882,97.178914 c -0.632812,0.246094 -1.101562,0.363281 -2.238281,0.539063 z m 8.607421,7.429686 c 0,0.98438 -0.0352,1.41797 -0.15234,1.99219 0.73828,0.24609 1.30078,0.33984 1.95703,0.33984 1.88672,0 3.22265,-0.99609 3.22265,-2.40234 0,-0.44531 -0.1289,-0.77344 -0.41015,-1.06641 -0.375,-0.35156 -0.84375,-0.52734 -2.10938,-0.77343 -1.17187,-0.22266 -1.55859,-0.51563 -1.55859,-1.17188 0,-0.71484 0.50391,-1.125 1.37109,-1.125 0.96094,0 1.69922,0.50391 1.69922,1.18359 v 0.32813 h 0.39844 c 0.0117,-0.83203 0.0352,-1.18359 0.0703,-1.61719 -0.76172,-0.25781 -1.27734,-0.36328 -1.86328,-0.36328 -1.66406,0 -2.68359,0.78516 -2.68359,2.07422 0,0.69141 0.3164,1.18359 0.98437,1.47656 0.38672,0.17578 1.13672,0.41016 2.1211,0.6211 0.64453,0.14062 0.91406,0.44531 0.91406,0.99609 0,0.77344 -0.71485,1.3125 -1.73438,1.3125 -1.04297,0 -1.79297,-0.50391 -1.79297,-1.21875 v -0.58594 z m 11.76856,1.04297 -0.1875,-0.14062 c -0.91407,0.55078 -1.25391,0.67968 -1.86329,0.67968 -0.9375,0 -1.71093,-0.42187 -2.10937,-1.125 -0.26953,-0.46875 -0.375,-0.8789 -0.39844,-1.71093 h 2.08594 c 0.99609,0 1.60547,-0.0352 2.60156,-0.19922 0.0117,-0.19922 0.0234,-0.32813 0.0234,-0.49219 0,-1.65234 -1.05469,-2.73047 -2.66016,-2.73047 -0.53906,0 -1.14843,0.1875 -1.73437,0.52734 -1.1836,0.67969 -1.65235,1.57032 -1.65235,3.0586 0,0.90234 0.21094,1.67578 0.59766,2.22656 0.57422,0.76172 1.53516,1.19531 2.61328,1.19531 0.52735,0 1.06641,-0.10547 1.65235,-0.36328 0.38671,-0.16406 0.6914,-0.35156 0.73828,-0.43359 z m -1.125,-2.82422 c -0.73829,0.0352 -1.08985,0.0469 -1.60547,0.0469 -0.65625,0 -1.03125,-0.0117 -1.80469,-0.082 0,-0.67969 0.0586,-0.9961 0.24609,-1.3711 0.30469,-0.63281 0.91407,-1.01953 1.60547,-1.01953 0.46875,0 0.84375,0.1875 1.10156,0.57422 0.31641,0.48047 0.42188,0.89062 0.45704,1.85156 z m 7.60839,3.87891 c 0.87891,-0.0469 0.89063,-0.0469 1.13672,-0.0469 0.19922,0 0.19922,0 1.1836,0.0469 v -0.4336 l -0.58594,-0.0469 c -0.49219,-0.0234 -0.52734,-0.11719 -0.52734,-1.03125 v -2.76563 c 0,-1.67578 -0.79688,-2.49609 -2.40235,-2.49609 -0.52734,0 -0.83203,0.10547 -1.125,0.36328 l -1.08984,0.9375 v -1.24219 l -0.12891,-0.0586 c -0.73828,0.30469 -1.48828,0.50391 -2.23828,0.58594 v 0.39844 h 0.52734 c 0.57422,0 0.63282,0.10546 0.63282,1.05468 v 3.22266 c 0,0.90234 -0.0469,1.00781 -0.53907,1.03125 l -0.64453,0.0469 v 0.4336 c 0.98438,-0.0352 1.3711,-0.0469 1.78125,-0.0469 0.42188,0 0.8086,0.0117 1.78125,0.0469 v -0.4336 l -0.64453,-0.0469 c -0.49219,-0.0234 -0.52734,-0.12891 -0.52734,-1.03125 v -3.03516 c 0,-0.64453 0.9375,-1.34765 1.8164,-1.34765 0.96094,0 1.59375,0.71484 1.59375,1.8164 z m 6.46289,-6.77344 c -2.08593,0 -3.53906,1.47656 -3.53906,3.60938 0,2.02734 1.27735,3.39843 3.12891,3.39843 2.20312,0 3.78515,-1.52343 3.78515,-3.67968 0,-1.9336 -1.40625,-3.32813 -3.375,-3.32813 z m -0.25781,0.46875 c 1.32422,0 2.29688,1.44141 2.29688,3.38672 0,1.65234 -0.72657,2.68359 -1.88672,2.68359 -1.40625,0 -2.35547,-1.37109 -2.35547,-3.41015 0,-1.72266 0.69141,-2.66016 1.94531,-2.66016 z m 0,0"
         style="fill:#000000;fill-opacity:1;fill-rule:nonzero;stroke:none" />
      <path
         id="path31"
         d="m 10.036789,140.02852 c 0.257813,0 0.527344,0 0.527344,-0.30468 0,-0.30469 -0.269531,-0.30469 -0.527344,-0.30469 H 1.9508516 c -0.2578125,0 -0.5273438,0 -0.5273438,0.30469 0,0.30468 0.2695313,0.30468 0.5273438,0.30468 z m 0,0"
         style="fill:#000000;fill-opacity:1;fill-rule:nonzero;stroke:none" />
      <path
         id="path32"
         d="m 12.550461,137.89571 0.09375,0.29297 0.457031,-0.30469 c 0.539063,-0.32812 0.574219,-0.36328 0.679688,-0.36328 0.140625,0 0.257812,0.15234 0.257812,0.32813 0,0.10546 -0.05859,0.43359 -0.117187,0.63281 l -0.949219,3.44531 c -0.105469,0.44531 -0.1875,0.83203 -0.1875,1.10156 0,0.35157 0.164062,0.5625 0.433594,0.5625 0.375,0 0.890625,-0.30468 2.296875,-1.34765 l -0.140625,-0.25782 -0.375,0.2461 c -0.421875,0.26953 -0.75,0.42187 -0.878907,0.42187 -0.09375,0 -0.1875,-0.14062 -0.1875,-0.28125 0,-0.14062 0.03516,-0.26953 0.105469,-0.57422 l 1.101563,-4.35937 c 0.05859,-0.24609 0.09375,-0.39844 0.09375,-0.51563 0,-0.24609 -0.140625,-0.375 -0.363282,-0.375 -0.316406,0 -0.84375,0.30469 -1.921875,1.06641 z m 2.777344,-4.64062 c -0.410157,0 -0.832032,0.46875 -0.832032,0.96093 0,0.35157 0.210938,0.58594 0.5625,0.58594 0.445313,0 0.785157,-0.42187 0.785157,-0.96094 0,-0.35156 -0.210938,-0.58593 -0.515625,-0.58593 z m 0,0"
         style="fill:#000000;fill-opacity:1;fill-rule:nonzero;stroke:none" />
      <path
         id="path33"
         d="m 19.303391,141.41134 c 0,0.98437 -0.03516,1.41796 -0.152344,1.99218 0.738281,0.2461 1.300781,0.33985 1.957031,0.33985 1.886719,0 3.222656,-0.9961 3.222656,-2.40235 0,-0.44531 -0.128906,-0.77343 -0.410156,-1.0664 -0.375,-0.35157 -0.84375,-0.52735 -2.109375,-0.77344 -1.171875,-0.22266 -1.558594,-0.51563 -1.558594,-1.17188 0,-0.71484 0.503907,-1.125 1.371094,-1.125 0.960938,0 1.699219,0.50391 1.699219,1.1836 v 0.32812 h 0.398437 c 0.01172,-0.83203 0.03516,-1.18359 0.07031,-1.61718 -0.761719,-0.25782 -1.277344,-0.36329 -1.863281,-0.36329 -1.664063,0 -2.683594,0.78516 -2.683594,2.07422 0,0.69141 0.316406,1.1836 0.984375,1.47657 0.386719,0.17578 1.136719,0.41015 2.121094,0.62109 0.644531,0.14062 0.914062,0.44531 0.914062,0.99609 0,0.77344 -0.714844,1.3125 -1.734375,1.3125 -1.042969,0 -1.792969,-0.5039 -1.792969,-1.21875 v -0.58593 z m 8.191406,-4.61719 -0.128906,-0.0586 c -0.726563,0.30469 -1.476563,0.50391 -2.238282,0.58594 v 0.39844 h 0.527344 c 0.574219,0 0.632813,0.10547 0.632813,1.05469 v 3.22265 c 0,0.90235 -0.03516,1.00782 -0.527344,1.03125 l -0.65625,0.0469 v 0.43359 c 1.429687,-0.0469 1.429687,-0.0469 1.792969,-0.0469 0.351562,0 0.351562,0 1.792968,0.0469 v -0.43359 l -0.667968,-0.0469 c -0.480469,-0.0234 -0.527344,-0.1289 -0.527344,-1.03125 z m -0.65625,-3.1875 c -0.433594,0 -0.808594,0.375 -0.808594,0.80859 0,0.41016 0.375,0.78516 0.796875,0.78516 0.410156,0 0.796875,-0.375 0.796875,-0.78516 0,-0.41015 -0.386719,-0.80859 -0.785156,-0.80859 z m 8.018555,9.90234 c 0.878906,-0.0469 0.890625,-0.0469 1.136718,-0.0469 0.199219,0 0.199219,0 1.183594,0.0469 v -0.43359 l -0.585937,-0.0469 c -0.492188,-0.0234 -0.527344,-0.11718 -0.527344,-1.03125 v -2.76562 c 0,-1.67578 -0.796875,-2.4961 -2.402344,-2.4961 -0.527344,0 -0.832031,0.10547 -1.125,0.36329 l -1.089844,0.9375 v -1.24219 l -0.128906,-0.0586 c -0.738281,0.30469 -1.488281,0.50391 -2.238281,0.58594 v 0.39844 h 0.527344 c 0.574218,0 0.632812,0.10547 0.632812,1.05469 v 3.22265 c 0,0.90235 -0.04687,1.00782 -0.539062,1.03125 l -0.644532,0.0469 v 0.43359 c 0.984375,-0.0352 1.371094,-0.0469 1.78125,-0.0469 0.421875,0 0.808594,0.0117 1.78125,0.0469 v -0.43359 l -0.644531,-0.0469 c -0.492187,-0.0234 -0.527344,-0.1289 -0.527344,-1.03125 v -3.03515 c 0,-0.64453 0.9375,-1.34766 1.816407,-1.34766 0.960937,0 1.59375,0.71484 1.59375,1.81641 z m 2.572265,-9.52734 h 0.796875 c 0.257813,0 0.363281,0.15234 0.363281,0.58594 v 7.42968 c 0,0.90235 -0.04687,1.00782 -0.539062,1.03125 l -0.644531,0.0469 v 0.43359 c 0.984375,-0.0352 1.371093,-0.0469 1.78125,-0.0469 0.421875,0 0.808593,0.0117 1.78125,0.0469 v -0.43359 l -0.644532,-0.0469 c -0.492187,-0.0234 -0.527343,-0.1289 -0.527343,-1.03125 v -3.03515 c 0,-0.64453 0.9375,-1.34766 1.816406,-1.34766 0.960937,0 1.59375,0.71484 1.59375,1.81641 v 4.07812 c 0.878906,-0.0469 0.890625,-0.0469 1.136719,-0.0469 0.199218,0 0.199218,0 1.183593,0.0469 v -0.43359 l -0.585937,-0.0469 c -0.492188,-0.0234 -0.527344,-0.11718 -0.527344,-1.03125 v -2.76562 c 0,-1.67578 -0.796875,-2.4961 -2.402344,-2.4961 -0.527343,0 -0.832031,0.10547 -1.125,0.36329 l -1.089843,0.9375 v -4.875 l -0.128907,-0.11719 c -0.632812,0.24609 -1.113281,0.36328 -2.238281,0.53906 z m 0,0"
         style="fill:#000000;fill-opacity:1;fill-rule:nonzero;stroke:none" />
      <path
         id="path34"
         d="m 50.797531,147.04805 c 0,-0.0469 0,-0.0703 -0.246094,-0.32812 -1.875,-1.88672 -2.355468,-4.71094 -2.355468,-6.99609 0,-2.60157 0.574218,-5.20313 2.414062,-7.07813 0.1875,-0.17578 0.1875,-0.19922 0.1875,-0.24609 0,-0.10547 -0.05859,-0.15235 -0.140625,-0.15235 -0.152344,0 -1.5,1.01953 -2.378906,2.91797 -0.761719,1.64063 -0.949219,3.30469 -0.949219,4.5586 0,1.17187 0.164063,2.97656 0.996094,4.66406 0.890625,1.83984 2.179687,2.8125 2.332031,2.8125 0.08203,0 0.140625,-0.0469 0.140625,-0.15235 z m 0,0"
         style="fill:#000000;fill-opacity:1;fill-rule:nonzero;stroke:none" />
      <path
         id="path35"
         d="m 52.40007,137.89571 0.09375,0.29297 0.457032,-0.30469 c 0.539062,-0.32812 0.574218,-0.36328 0.679687,-0.36328 0.140625,0 0.257813,0.15234 0.257813,0.32813 0,0.10546 -0.05859,0.43359 -0.117188,0.63281 l -0.949219,3.44531 c -0.105468,0.44531 -0.1875,0.83203 -0.1875,1.10156 0,0.35157 0.164063,0.5625 0.433594,0.5625 0.375,0 0.890625,-0.30468 2.296875,-1.34765 l -0.140625,-0.25782 -0.375,0.2461 c -0.421875,0.26953 -0.75,0.42187 -0.878906,0.42187 -0.09375,0 -0.1875,-0.14062 -0.1875,-0.28125 0,-0.14062 0.03516,-0.26953 0.105469,-0.57422 l 1.101562,-4.35937 c 0.05859,-0.24609 0.09375,-0.39844 0.09375,-0.51563 0,-0.24609 -0.140625,-0.375 -0.363281,-0.375 -0.316406,0 -0.84375,0.30469 -1.921875,1.06641 z m 2.777344,-4.64062 c -0.410156,0 -0.832031,0.46875 -0.832031,0.96093 0,0.35157 0.210937,0.58594 0.5625,0.58594 0.445312,0 0.785156,-0.42187 0.785156,-0.96094 0,-0.35156 -0.210937,-0.58593 -0.515625,-0.58593 z m 0,0"
         style="fill:#000000;fill-opacity:1;fill-rule:nonzero;stroke:none" />
      <path
         id="path36"
         d="m 63.316086,142.05587 c -0.539063,0.44531 -0.878906,0.5625 -1.113281,0.5625 -0.210938,0 -0.386719,-0.0469 -0.527344,-0.31641 -0.128906,-0.26953 -0.304688,-0.87891 -0.375,-1.3125 -0.03516,-0.23437 -0.07031,-0.45703 -0.09375,-0.66797 0.421875,-0.57422 0.84375,-1.20703 1.054687,-1.52344 0.199219,-0.30468 0.738282,-1.16015 0.820313,-1.4414 -0.08203,-0.16406 -0.140625,-0.29297 -0.234375,-0.50391 -0.03516,-0.0352 -0.152344,-0.0703 -0.210938,-0.10547 -0.328125,1.19532 -0.515625,1.59375 -1.042968,2.4375 -0.05859,0.0937 -0.292969,0.44532 -0.457032,0.69141 -0.257812,-1.72266 -0.316406,-2.12109 -0.410156,-2.625 -0.128906,-0.64453 -0.527344,-0.70313 -0.832031,-0.70313 -0.316406,0.0117 -0.785156,0.25782 -1.253906,0.70313 -0.351563,0.31641 -0.621094,0.69141 -0.878907,1.13672 -0.632812,1.27734 -1.089843,2.97656 -1.089843,4.125 0,0.48047 0.210937,1.10156 0.539062,1.10156 0.5625,0 1.019531,-0.28125 1.464844,-0.60937 0.609375,-0.51563 1.253906,-1.16016 1.699219,-1.66407 0.152343,1.48828 0.585937,2.27344 1.125,2.27344 0.316406,0 0.761718,-0.23437 1.242187,-0.65625 l 0.703125,-0.63281 z m -3,-1.16016 c -0.421875,0.49219 -0.832031,0.91406 -1.195313,1.21875 -0.445312,0.375 -0.84375,0.50391 -1.101562,0.50391 -0.1875,0 -0.257813,-0.19922 -0.257813,-0.57422 0,-0.92578 0.234375,-2.47266 0.703125,-3.65625 0.1875,-0.48047 0.539063,-0.89063 0.855469,-0.89063 0.421875,0 0.574219,0.25782 0.667969,0.89063 z m 0,0"
         style="fill:#000000;fill-opacity:1;fill-rule:nonzero;stroke:none" />
      <path
         id="path37"
         d="m 68.612961,139.72384 c 0,-1.17188 -0.164063,-2.97657 -0.984375,-4.66407 -0.902344,-1.83984 -2.191406,-2.8125 -2.34375,-2.8125 -0.08203,0 -0.140625,0.0586 -0.140625,0.15235 0,0.0469 0,0.0703 0.28125,0.33984 1.464844,1.47656 2.320312,3.85547 2.320312,6.98438 0,2.55468 -0.550781,5.1914 -2.414062,7.07812 -0.1875,0.17578 -0.1875,0.19922 -0.1875,0.24609 0,0.0937 0.05859,0.15235 0.140625,0.15235 0.152344,0 1.5,-1.01953 2.378906,-2.91797 0.761719,-1.64063 0.949219,-3.30469 0.949219,-4.55859 z m 16.086914,-1.14844 c 0.222656,0 0.503906,0 0.503906,-0.30469 0,-0.29297 -0.28125,-0.29297 -0.492187,-0.29297 h -8.953125 c -0.210938,0 -0.503907,0 -0.503907,0.29297 0,0.30469 0.292969,0.30469 0.515625,0.30469 z m 0.01172,2.89453 c 0.210937,0 0.492187,0 0.492187,-0.29297 0,-0.30469 -0.28125,-0.30469 -0.503906,-0.30469 h -8.929688 c -0.222656,0 -0.515625,0 -0.515625,0.30469 0,0.29297 0.292969,0.29297 0.503907,0.29297 z m 0,0"
         style="fill:#000000;fill-opacity:1;fill-rule:nonzero;stroke:none" />
      <path
         id="path38"
         d="m 90.796555,141.41134 c 0,0.98437 -0.03516,1.41796 -0.152344,1.99218 0.738281,0.2461 1.300781,0.33985 1.957031,0.33985 1.886719,0 3.222656,-0.9961 3.222656,-2.40235 0,-0.44531 -0.128906,-0.77343 -0.410156,-1.0664 -0.375,-0.35157 -0.84375,-0.52735 -2.109375,-0.77344 -1.171875,-0.22266 -1.558594,-0.51563 -1.558594,-1.17188 0,-0.71484 0.503907,-1.125 1.371094,-1.125 0.960938,0 1.699219,0.50391 1.699219,1.1836 v 0.32812 h 0.398437 c 0.01172,-0.83203 0.03516,-1.18359 0.07031,-1.61718 -0.761719,-0.25782 -1.277344,-0.36329 -1.863281,-0.36329 -1.664063,0 -2.683594,0.78516 -2.683594,2.07422 0,0.69141 0.316406,1.1836 0.984375,1.47657 0.386719,0.17578 1.136719,0.41015 2.121094,0.62109 0.644531,0.14062 0.914062,0.44531 0.914062,0.99609 0,0.77344 -0.714844,1.3125 -1.734375,1.3125 -1.042969,0 -1.792969,-0.5039 -1.792969,-1.21875 v -0.58593 z m 8.194336,-4.61719 -0.128907,-0.0586 c -0.726562,0.30469 -1.476562,0.50391 -2.238281,0.58594 v 0.39844 h 0.527344 c 0.574219,0 0.632812,0.10547 0.632812,1.05469 v 3.22265 c 0,0.90235 -0.03516,1.00782 -0.527343,1.03125 l -0.65625,0.0469 v 0.43359 c 1.429687,-0.0469 1.429687,-0.0469 1.792968,-0.0469 0.351563,0 0.351563,0 1.792966,0.0469 v -0.43359 l -0.667966,-0.0469 c -0.480468,-0.0234 -0.527343,-0.1289 -0.527343,-1.03125 z m -0.65625,-3.1875 c -0.433594,0 -0.808594,0.375 -0.808594,0.80859 0,0.41016 0.375,0.78516 0.796875,0.78516 0.410156,0 0.796875,-0.375 0.796875,-0.78516 0,-0.41015 -0.386719,-0.80859 -0.785156,-0.80859 z m 8.018559,9.90234 c 0.8789,-0.0469 0.89062,-0.0469 1.13671,-0.0469 0.19922,0 0.19922,0 1.1836,0.0469 v -0.43359 l -0.58594,-0.0469 c -0.49219,-0.0234 -0.52734,-0.11718 -0.52734,-1.03125 v -2.76562 c 0,-1.67578 -0.79688,-2.4961 -2.40235,-2.4961 -0.52734,0 -0.83203,0.10547 -1.125,0.36329 l -1.08984,0.9375 v -1.24219 l -0.12891,-0.0586 c -0.73828,0.30469 -1.48828,0.50391 -2.23828,0.58594 v 0.39844 h 0.52735 c 0.57421,0 0.63281,0.10547 0.63281,1.05469 v 3.22265 c 0,0.90235 -0.0469,1.00782 -0.53906,1.03125 l -0.64454,0.0469 v 0.43359 c 0.98438,-0.0352 1.3711,-0.0469 1.78125,-0.0469 0.42188,0 0.8086,0.0117 1.78125,0.0469 v -0.43359 l -0.64453,-0.0469 c -0.49218,-0.0234 -0.52734,-0.1289 -0.52734,-1.03125 v -3.03515 c 0,-0.64453 0.9375,-1.34766 1.81641,-1.34766 0.96093,0 1.59375,0.71484 1.59375,1.81641 z m 0,0"
         style="fill:#000000;fill-opacity:1;fill-rule:nonzero;stroke:none" />
      <path
         id="path39"
         d="m 113.94402,147.04805 c 0,-0.0469 0,-0.0703 -0.2461,-0.32812 -1.875,-1.88672 -2.35547,-4.71094 -2.35547,-6.99609 0,-2.60157 0.57422,-5.20313 2.41407,-7.07813 0.1875,-0.17578 0.1875,-0.19922 0.1875,-0.24609 0,-0.10547 -0.0586,-0.15235 -0.14063,-0.15235 -0.15234,0 -1.5,1.01953 -2.37891,2.91797 -0.76171,1.64063 -0.94921,3.30469 -0.94921,4.5586 0,1.17187 0.16406,2.97656 0.99609,4.66406 0.89062,1.83984 2.17969,2.8125 2.33203,2.8125 0.082,0 0.14063,-0.0469 0.14063,-0.15235 z m 0,0"
         style="fill:#000000;fill-opacity:1;fill-rule:nonzero;stroke:none" />
      <path
         id="path40"
         d="m 122.11198,142.05587 c -0.53906,0.44531 -0.8789,0.5625 -1.11328,0.5625 -0.21093,0 -0.38672,-0.0469 -0.52734,-0.31641 -0.12891,-0.26953 -0.30469,-0.87891 -0.375,-1.3125 -0.0352,-0.23437 -0.0703,-0.45703 -0.0937,-0.66797 0.42187,-0.57422 0.84375,-1.20703 1.05469,-1.52344 0.19922,-0.30468 0.73828,-1.16015 0.82031,-1.4414 -0.082,-0.16406 -0.14063,-0.29297 -0.23438,-0.50391 -0.0352,-0.0352 -0.15234,-0.0703 -0.21093,-0.10547 -0.32813,1.19532 -0.51563,1.59375 -1.04297,2.4375 -0.0586,0.0937 -0.29297,0.44532 -0.45703,0.69141 -0.25782,-1.72266 -0.31641,-2.12109 -0.41016,-2.625 -0.12891,-0.64453 -0.52734,-0.70313 -0.83203,-0.70313 -0.31641,0.0117 -0.78516,0.25782 -1.25391,0.70313 -0.35156,0.31641 -0.62109,0.69141 -0.8789,1.13672 -0.63282,1.27734 -1.08985,2.97656 -1.08985,4.125 0,0.48047 0.21094,1.10156 0.53907,1.10156 0.5625,0 1.01953,-0.28125 1.46484,-0.60937 0.60937,-0.51563 1.25391,-1.16016 1.69922,-1.66407 0.15234,1.48828 0.58594,2.27344 1.125,2.27344 0.3164,0 0.76172,-0.23437 1.24219,-0.65625 l 0.70312,-0.63281 z m -3,-1.16016 c -0.42187,0.49219 -0.83203,0.91406 -1.19531,1.21875 -0.44531,0.375 -0.84375,0.50391 -1.10156,0.50391 -0.1875,0 -0.25781,-0.19922 -0.25781,-0.57422 0,-0.92578 0.23437,-2.47266 0.70312,-3.65625 0.1875,-0.48047 0.53906,-0.89063 0.85547,-0.89063 0.42188,0 0.57422,0.25782 0.66797,0.89063 z m 0,0"
         style="fill:#000000;fill-opacity:1;fill-rule:nonzero;stroke:none" />
      <path
         id="path41"
         d="m 127.40886,139.72384 c 0,-1.17188 -0.16406,-2.97657 -0.98438,-4.66407 -0.90234,-1.83984 -2.1914,-2.8125 -2.34375,-2.8125 -0.082,0 -0.14062,0.0586 -0.14062,0.15235 0,0.0469 0,0.0703 0.28125,0.33984 1.46484,1.47656 2.32031,3.85547 2.32031,6.98438 0,2.55468 -0.55078,5.1914 -2.41406,7.07812 -0.1875,0.17578 -0.1875,0.19922 -0.1875,0.24609 0,0.0937 0.0586,0.15235 0.14062,0.15235 0.15235,0 1.5,-1.01953 2.37891,-2.91797 0.76172,-1.64063 0.94922,-3.30469 0.94922,-4.55859 z m 0,0"
         style="fill:#000000;fill-opacity:1;fill-rule:nonzero;stroke:none" />
    </g>
  </g>
</svg>
