<?xml version="1.0" encoding="UTF-8" standalone="no"?>
<!-- Created with Inkscape (http://www.inkscape.org/) -->

<svg
   version="1.1"
   id="svg1"
   width="252.38095"
   height="23.604553"
   viewBox="0 0 252.38095 23.604553"
   sodipodi:docname="writetex.pdf"
   inkscape:export-batch-path="..\Akemicos\Akdemicos-Front\public"
   inkscape:export-batch-name="DomSecHiperbolica"
   xmlns:inkscape="http://www.inkscape.org/namespaces/inkscape"
   xmlns:sodipodi="http://sodipodi.sourceforge.net/DTD/sodipodi-0.dtd"
   xmlns="http://www.w3.org/2000/svg"
   xmlns:svg="http://www.w3.org/2000/svg">
  <defs
     id="defs1">
    <clipPath
       clipPathUnits="userSpaceOnUse"
       id="clipPath247">
      <rect
         style="fill:#000000;stroke:#000000;stroke-width:0.623622;stroke-dasharray:none;stroke-opacity:1"
         id="rect248"
         width="252.38095"
         height="23.809525"
         x="1015.2381"
         y="823.80951" />
    </clipPath>
  </defs>
  <sodipodi:namedview
     id="namedview1"
     pagecolor="#ffffff"
     bordercolor="#000000"
     borderopacity="0.25"
     inkscape:showpageshadow="2"
     inkscape:pageopacity="0.0"
     inkscape:pagecheckerboard="0"
     inkscape:deskcolor="#d1d1d1"
     showgrid="false">
    <inkscape:page
       x="0"
       y="0"
       width="252.38095"
       height="23.604553"
       id="page1"
       margin="0"
       bleed="0" />
  </sodipodi:namedview>
  <g
     id="g78"
     inkscape:groupmode="layer"
     inkscape:label="2"
     clip-path="url(#clipPath247)"
     transform="translate(-1015.2381,-823.80951)">
    <g
       id="g183"
       aria-label="Domibio=R,Rango=(0,1]"
       transform="matrix(1.3333333,0,0,1.3333333,1016.0907,842.008)">
      <path
         id="path184"
         d="m 0.81969531,-0.28139063 v 0.328125 C 2.4837578,-1.40625e-4 2.4837578,-1.40625e-4 2.8118828,-1.40625e-4 c 0.2578125,0 0.4921875,0 0.75,0.011718745 1.125,0.03515625 1.125,0.03515625 1.3242188,0.03515625 1.8398437,0 3.2226562,-0.48046875 4.21875,-1.46484377 1.0312504,-1.0195312 1.6640624,-2.5664062 1.6640624,-4.1015625 0,-2.671875 -1.9804687,-4.40625 -5.0039062,-4.40625 -0.1054687,0 -0.28125,0 -0.5390625,0.011719 -0.7265625,0.011719 -1.3359375,0.035156 -1.9570312,0.035156 -0.5273438,0 -1.3242188,-0.023437 -2.95312504,-0.046875 v 0.4335938 l 0.57421875,0.035156 c 0.65624999,0.046875 0.72656249,0.1757813 0.72656249,1.3007813 v 6.796875 c 0,0.41015622 -0.1289062,0.72656247 -0.3515625,0.84374997 z M 2.9876641,-9.2345156 c 0.3632812,-0.070312 0.8671875,-0.1171875 1.5820312,-0.1171875 1.0546875,0 2.203125,0.1875 2.8007813,0.4570312 0.3164062,0.1289063 0.5859375,0.328125 0.84375,0.5859375 0.6914062,0.6914063 1.0195312,1.7226563 1.0195312,3.1640625 0,1.6054688 -0.4804687,2.8359375 -1.4296875,3.609375 -0.8671875,0.70312502 -1.7226562,0.94921877 -3.3398437,0.94921877 -0.6679688,0 -1.1132813,-0.0351563 -1.4765625,-0.1171875 z m 12.1113279,2.5078125 c -2.085937,0 -3.539062,1.4765625 -3.539062,3.609375 0,2.0273437 1.277343,3.39843747 3.128906,3.39843747 2.203125,0 3.785156,-1.52343747 3.785156,-3.67968747 0,-1.9335938 -1.40625,-3.328125 -3.375,-3.328125 z m -0.257812,0.46875 c 1.324218,0 2.296875,1.4414062 2.296875,3.3867187 0,1.6523438 -0.726563,2.68359377 -1.886719,2.68359377 -1.40625,0 -2.355469,-1.37109377 -2.355469,-3.41015627 0,-1.7226562 0.691406,-2.6601562 1.945313,-2.6601562 z m 4.353515,0.515625 h 0.527344 c 0.574219,0 0.632813,0.1054687 0.632813,1.0546875 v 3.2226562 c 0,0.90234377 -0.03516,1.00781252 -0.527344,1.03125002 l -0.65625,0.046875 v 0.43359375 c 1.371094,-0.046874995 1.417969,-0.046874995 1.816406,-0.046874995 0.398438,0 0.773438,0.011718745 1.710938,0.046874995 v -0.43359375 l -0.609375,-0.046875 c -0.480469,-0.0234375 -0.527344,-0.12890625 -0.527344,-1.03125002 v -3.0351562 c 0,-0.6445313 0.949219,-1.3476563 1.804687,-1.3476563 0.773438,0 1.3125,0.7265625 1.3125,1.8164063 v 2.5664062 c 0,0.90234377 -0.04687,1.00781252 -0.539062,1.03125002 l -0.65625,0.046875 v 0.43359375 c 1.429687,-0.046874995 1.429687,-0.046874995 1.792969,-0.046874995 0.363281,0 0.363281,0 1.792968,0.046874995 v -0.43359375 l -0.65625,-0.046875 c -0.492187,-0.0234375 -0.539062,-0.12890625 -0.539062,-1.03125002 v -3.0351562 c 0,-0.6445313 0.949219,-1.3476563 1.816406,-1.3476563 0.773438,0 1.300781,0.7265625 1.300781,1.8164063 v 4.07812497 c 0.878907,-0.046874995 0.890625,-0.046874995 1.136719,-0.046874995 0.1875,0 0.1875,0 1.277344,0.046874995 v -0.43359375 l -0.679688,-0.046875 c -0.480468,-0.0234375 -0.527343,-0.12890625 -0.527343,-1.03125002 v -2.953125 c 0,-1.4179687 -0.832032,-2.3085937 -2.15625,-2.3085937 -0.503907,0 -0.914063,0.1289062 -1.171875,0.3632812 l -1.089844,0.9726563 c -0.457031,-0.9492188 -1.054688,-1.3359375 -2.039063,-1.3359375 -0.527343,0 -0.9375,0.1289062 -1.195312,0.3632812 l -0.984375,0.9140625 v -1.21875 l -0.128906,-0.058594 c -0.726563,0.3046875 -1.476563,0.5039062 -2.238282,0.5859375 z m 15.105469,-0.9257813 -0.128906,-0.058594 c -0.726563,0.3046875 -1.476563,0.5039062 -2.238281,0.5859375 v 0.3984375 h 0.527343 c 0.574219,0 0.632813,0.1054687 0.632813,1.0546875 v 3.2226562 c 0,0.90234377 -0.03516,1.00781252 -0.527344,1.03125002 l -0.65625,0.046875 v 0.43359375 c 1.429688,-0.046874995 1.429688,-0.046874995 1.792969,-0.046874995 0.351562,0 0.351562,0 1.792969,0.046874995 v -0.43359375 l -0.667969,-0.046875 c -0.480469,-0.0234375 -0.527344,-0.12890625 -0.527344,-1.03125002 z m -0.65625,-3.1875 c -0.433594,0 -0.808594,0.375 -0.808594,0.8085938 0,0.4101562 0.375,0.7851562 0.796875,0.7851562 0.410157,0 0.796875,-0.375 0.796875,-0.7851562 0,-0.4101563 -0.386718,-0.8085938 -0.785156,-0.8085938 z M 37.935906,-10.300922 37.807,-10.418109 c -0.632812,0.246093 -1.113281,0.363281 -2.238281,0.5390621 v 0.3984375 h 0.796875 c 0.257812,0 0.363281,0.1523438 0.363281,0.5859375 v 6.703125 c 0,0.890625 -0.01172,1.27734377 -0.117187,2.27343752 l 0.234375,0.09375 0.574218,-0.515625 c 0.5625,0.36328125 1.089844,0.515625 1.839844,0.515625 0.5625,0 0.9375,-0.10546875 1.242188,-0.31640625 L 41.932,-1.1720156 c 0.632813,-0.46875 1.136719,-1.6523438 1.136719,-2.6953125 0,-1.6640625 -1.078125,-2.859375 -2.601563,-2.859375 -0.667968,0 -1.371093,0.2578125 -1.746093,0.6328125 l -0.785157,0.796875 z m 0,5.8828126 c 0,-0.1992187 0.140625,-0.4570312 0.363282,-0.7148437 0.410156,-0.421875 0.960937,-0.65625 1.558593,-0.65625 1.195313,0 1.957032,0.9726562 1.957032,2.5078125 0,1.6054687 -0.855469,2.71874997 -2.074219,2.71874997 -0.75,0 -1.804688,-0.45703127 -1.804688,-0.77343747 z m 8.472657,-2.25 -0.128907,-0.058594 c -0.726562,0.3046875 -1.476562,0.5039062 -2.238281,0.5859375 v 0.3984375 h 0.527344 c 0.574219,0 0.632812,0.1054687 0.632812,1.0546875 v 3.2226562 c 0,0.90234377 -0.03516,1.00781252 -0.527343,1.03125002 l -0.65625,0.046875 v 0.43359375 c 1.429687,-0.046874995 1.429687,-0.046874995 1.792968,-0.046874995 0.351563,0 0.351563,0 1.792969,0.046874995 v -0.43359375 l -0.667969,-0.046875 c -0.480468,-0.0234375 -0.527343,-0.12890625 -0.527343,-1.03125002 z m -0.65625,-3.1875 c -0.433594,0 -0.808594,0.375 -0.808594,0.8085938 0,0.4101562 0.375,0.7851562 0.796875,0.7851562 0.410156,0 0.796875,-0.375 0.796875,-0.7851562 0,-0.4101563 -0.386719,-0.8085938 -0.785156,-0.8085938 z m 6.131835,3.1289063 c -2.085937,0 -3.539062,1.4765625 -3.539062,3.609375 0,2.0273437 1.277344,3.39843747 3.128906,3.39843747 2.203125,0 3.785156,-1.52343747 3.785156,-3.67968747 0,-1.9335938 -1.40625,-3.328125 -3.375,-3.328125 z m -0.257812,0.46875 c 1.324219,0 2.296875,1.4414062 2.296875,3.3867187 0,1.6523438 -0.726563,2.68359377 -1.886719,2.68359377 -1.40625,0 -2.355469,-1.37109377 -2.355469,-3.41015627 0,-1.7226562 0.691407,-2.6601562 1.945313,-2.6601562 z m 12.052734,0.7265625 h -7.230468 v 0.796875 h 7.230468 z m 0,2.7773437 h -7.230468 v 0.8085938 h 7.230468 z m 0,0"
         style="fill:#000000;fill-opacity:1;fill-rule:nonzero;stroke:none" />
      <path
         id="path185"
         d="m 64.730828,-9.4923281 0.632813,0.035156 c 0.585937,0.046875 0.726562,0.1640625 0.726562,1.3007813 v 6.4335937 c 0,1.13671877 -0.140625,1.26562502 -0.726562,1.28906252 l -0.632813,0.046875 v 0.43359375 c 0.84375,-0.03515625 2.167969,-0.046874995 2.90625,-0.046874995 0.75,0 2.132813,0.011718745 2.976563,0.046874995 v -0.43359375 l -0.691407,-0.046875 c -0.644531,-0.0351563 -0.726562,-0.15234375 -0.726562,-1.20703122 v -7.5703125 c 0.492187,-0.1289063 0.914062,-0.1640625 1.40625,-0.1640625 1.488281,0 2.320312,0.6796875 2.320312,1.8984375 0,1.3242187 -1.054687,2.15625 -2.71875,2.15625 -0.08203,0 -0.222656,0 -0.410156,-0.011719 l -0.08203,0.1640625 c 0.152344,0.1875 0.199219,0.2460938 0.363281,0.4335938 0.210938,0.234375 0.246094,0.2929687 0.375,0.4570312 l 2.648438,3.55078127 c 0.08203,0.10546875 0.164062,0.22265625 0.257812,0.328125 l 0.328125,0.4453125 c 0.585938,-0.03515625 0.796875,-0.046874995 0.972656,-0.046874995 0.152344,0 0.339844,0.011718745 1.03125,0.046874995 v -0.43359375 c -0.457031,-0.046875 -0.691406,-0.12890625 -0.878906,-0.375 L 71.562859,-5.0040469 c 0.785157,-0.1875 1.136719,-0.3515625 1.605469,-0.65625 0.785156,-0.5507812 1.183594,-1.265625 1.183594,-2.109375 0,-1.3945312 -0.984375,-2.15625 -2.8125,-2.15625 h -0.199219 c -0.28125,0.011719 -0.527344,0.011719 -0.726562,0.023437 -0.433594,0.023437 -0.972657,0.023437 -1.523438,0.023437 h -1.453125 c -0.738281,0 -2.0625,-0.023437 -2.90625,-0.046875 z m 3.09375,1.3359375 v 6.4335937 c 0,1.13671877 -0.07031,1.25390627 -0.527344,1.28906252 -0.457031,-0.0351563 -0.539062,-0.15234375 -0.539062,-1.28906252 v -6.4335937 c 0,-1.1367188 0.08203,-1.2539063 0.539062,-1.3007813 0.457032,0.035156 0.527344,0.1640625 0.527344,1.3007813 z m 0,0"
         style="fill:#000000;fill-opacity:1;fill-rule:nonzero;stroke:none" />
      <path
         id="path186"
         d="m 83.138055,-1.7696719 c -0.386719,0.1289063 -0.644532,0.2226563 -1.40625,0.4335938 -0.105469,1.08984372 -0.457032,2.02734372 -1.289063,3.3984375 l 0.199219,0.1640625 0.585937,-0.28125 c 1.160157,-1.50000003 1.710938,-2.40234378 2.109375,-3.5039063 z m 18.096675,-7.4414062 c 0.49219,-0.1171875 0.92579,-0.1640625 1.40625,-0.1640625 1.5,0 2.33204,0.6796875 2.33204,1.8984375 0,1.3242187 -1.05469,2.15625 -2.71875,2.15625 -0.0937,0 -0.22266,0 -0.41016,-0.011719 l -0.0937,0.1640625 c 0.16406,0.1875 0.21094,0.2460938 0.375,0.4335938 0.19922,0.234375 0.24609,0.2929687 0.375,0.4570312 l 2.63672,3.55078127 c 0.0937,0.10546875 0.17578,0.22265625 0.25781,0.328125 0.10547,0.12890625 0.1875,0.2578125 0.32813,0.4453125 0.67968,-0.046874995 0.82031,-0.046874995 0.98437,-0.046874995 0.12891,0 0.12891,0 1.03125,0.046874995 v -0.43359375 c -0.45703,-0.046875 -0.69141,-0.12890625 -0.87891,-0.375 l -3.25781,-4.24218752 c 0.8086,-0.1992187 1.1836,-0.3632812 1.65235,-0.6914062 0.75,-0.5273438 1.14843,-1.2421875 1.14843,-2.0742188 0,-1.3828125 -1.00781,-2.15625 -2.77734,-2.15625 h -0.23438 c -1.86328,0.046875 -1.86328,0.046875 -2.35546,0.046875 -0.46875,0 -0.46875,0 -2.484379,-0.046875 v 0.4335938 l 0.597656,0.035156 c 0.65625,0.046875 0.726562,0.1757813 0.726562,1.3007813 v 6.4335937 c 0,1.13671877 -0.07031,1.25390627 -0.726562,1.28906252 l -0.691406,0.046875 v 0.43359375 c 0.84375,-0.03515625 1.347656,-0.046874995 2.097659,-0.046874995 0.73828,0 1.2539,0.011718745 2.10937,0.046874995 v -0.43359375 l -0.6914,-0.046875 c -0.65625,-0.0351563 -0.73829,-0.15234375 -0.73829,-1.28906252 z m 11.14161,8.0390625 -0.082,1.21874997 c 0.9375,-0.046874995 0.9375,-0.046874995 1.125,-0.046874995 0.0703,0 0.4336,0.011718745 1.06641,0.046874995 v -0.43359375 l -0.5625,-0.0234375 c -0.35156,-0.0234375 -0.41016,-0.140625 -0.41016,-0.83203122 v -2.625 c 0,-2.0976563 -0.59765,-2.859375 -2.26171,-2.859375 -0.6211,0 -1.1836,0.1523437 -1.73438,0.4921875 l -0.76172,0.4570312 v 0.9257813 l 0.375,0.1054687 0.1875,-0.4453125 c 0.30469,-0.6796875 0.44531,-0.7734375 1.10156,-0.7734375 1.34766,0 1.91016,0.5273438 1.95704,1.828125 l -1.42969,0.2695313 c -1.94531,0.3515625 -2.76563,1.03125 -2.76563,2.2734375 0,1.12499997 0.67969,1.76953122 1.80469,1.76953122 0.25781,0 0.50391,-0.046875 0.60938,-0.1171875 z m 0,-0.609375 c -0.42188,0.5859375 -1.32422,1.13671872 -1.88672,1.13671872 -0.57422,0 -1.07813,-0.52734372 -1.07813,-1.14843752 0,-0.5273437 0.29297,-1.03125 0.72656,-1.3007812 0.35157,-0.2226563 1.14844,-0.421875 2.23829,-0.5742188 z m 8.40527,1.82812497 c 0.87891,-0.046874995 0.89062,-0.046874995 1.13672,-0.046874995 0.19922,0 0.19922,0 1.18359,0.046874995 v -0.43359375 l -0.58594,-0.046875 c -0.49218,-0.0234375 -0.52734,-0.1171875 -0.52734,-1.03125002 v -2.765625 c 0,-1.6757812 -0.79687,-2.4960937 -2.40234,-2.4960937 -0.52735,0 -0.83203,0.1054687 -1.125,0.3632812 l -1.08985,0.9375 v -1.2421875 l -0.1289,-0.058594 c -0.73828,0.3046875 -1.48828,0.5039062 -2.23828,0.5859375 v 0.3984375 h 0.52734 c 0.57422,0 0.63281,0.1054687 0.63281,1.0546875 v 3.2226562 c 0,0.90234377 -0.0469,1.00781252 -0.53906,1.03125002 l -0.64453,0.046875 v 0.43359375 c 0.98437,-0.03515625 1.37109,-0.046874995 1.78125,-0.046874995 0.42187,0 0.80859,0.011718745 1.78125,0.046874995 v -0.43359375 l -0.64453,-0.046875 c -0.49219,-0.0234375 -0.52735,-0.12890625 -0.52735,-1.03125002 v -3.0351562 c 0,-0.6445313 0.9375,-1.3476563 1.81641,-1.3476563 0.96094,0 1.59375,0.7148438 1.59375,1.8164063 z m 9.9082,-5.47265627 0.36328,-0.5859375 -0.0586,-0.1757812 -2.03906,0.058594 c -0.52735,-0.421875 -1.04297,-0.5976562 -1.7461,-0.5976562 -0.63281,0 -1.35937,0.1992187 -1.95703,0.5390625 -0.79687,0.46875 -1.21875,1.171875 -1.21875,2.0390625 0,1.0664062 0.66797,1.7929687 1.72266,1.9101562 l -1.125,0.8789063 c -0.15234,0.2109375 -0.22266,0.39843747 -0.22266,0.60937497 0,0.41015625 0.25782,0.6328125 0.94922,0.83203125 l -1.2539,0.6796875 c -0.19922,0.1171875 -0.39844,0.64453128 -0.39844,1.08984378 0,1.3007812 1.27734,2.203125 3.10547,2.203125 2.15625,0 3.86718,-1.359375 3.86718,-3.10546878 0,-1.03125 -0.6914,-1.7578125 -1.6875,-1.7578125 h -2.29687 c -0.75,0 -1.08984,-0.1640625 -1.08984,-0.55078122 0,-0.1875 0.11718,-0.3515625 0.48046,-0.6679688 0.0937,-0.070312 0.11719,-0.09375 0.17579,-0.1523437 0.14062,0.011719 0.23437,0.023437 0.33984,0.023437 0.62109,0 1.38281,-0.2695313 1.96875,-0.6796875 0.64453,-0.4804688 0.96094,-1.0546875 0.96094,-1.8164063 0,-0.28125 -0.0469,-0.46875 -0.15235,-0.7734375 z m -3.99609,-0.8085937 c 0.97266,0 1.62891,0.796875 1.62891,2.015625 0,0.9375 -0.59766,1.5820312 -1.47657,1.5820312 -0.96093,0 -1.60547,-0.75 -1.60547,-1.8515625 0,-1.1015625 0.52735,-1.7460937 1.45313,-1.7460937 z m 0.66797,6.43359372 c 1.6289,0 2.17969,0.328125 2.17969,1.26562498 0,1.2304688 -1.125,2.1445313 -2.63672,2.1445313 -1.24219,0 -2.10938,-0.7265625 -2.10938,-1.7929688 0,-0.6445312 0.375,-1.23046873 0.94922,-1.47656248 0.23438,-0.10546875 0.63281,-0.140625 1.61719,-0.140625 z m 7.85742,-6.92578122 c -2.08594,0 -3.53906,1.4765625 -3.53906,3.609375 0,2.0273437 1.27734,3.39843747 3.1289,3.39843747 2.20313,0 3.78516,-1.52343747 3.78516,-3.67968747 0,-1.9335938 -1.40625,-3.328125 -3.375,-3.328125 z m -0.25781,0.46875 c 1.32422,0 2.29687,1.4414062 2.29687,3.3867187 0,1.6523438 -0.72656,2.68359377 -1.88672,2.68359377 -1.40625,0 -2.35547,-1.37109377 -2.35547,-3.41015627 0,-1.7226562 0.69141,-2.6601562 1.94532,-2.6601562 z m 12.05273,0.7265625 h -7.23047 v 0.796875 h 7.23047 z m 0,2.7773437 h -7.23047 v 0.8085938 h 7.23047 z m 9.22559,5.53125 c -1.03125,-1.265625 -1.40625,-1.95703123 -1.76953,-3.24609373 -0.30469,-1.04296877 -0.44532,-2.13281247 -0.44532,-3.35156247 0,-1.1835938 0.14063,-2.203125 0.41016,-3.140625 0.375,-1.1835938 0.76172,-1.8632813 1.80469,-3.0820309 l -0.26953,-0.375 c -1.48829,1.3359371 -2.07422,2.1328121 -2.625,3.5273434 -0.375,0.9609375 -0.5625,1.9804687 -0.5625,3.0703125 0,1.5351562 0.36328,2.98828122 1.05468,4.27734372 0.50391,0.96093748 0.96094,1.52343748 2.13282,2.62499998 z m 4.23633,-12.65625 c -2.22657,0 -3.36329,1.7578125 -3.36329,5.2265625 0,1.6875 0.30469,3.1289063 0.8086,3.83203127 0.5039,0.703125 1.30078,1.1015625 2.1914,1.1015625 2.16797,0 3.25782,-1.86328127 3.25782,-5.53124997 0,-3.140625 -0.92578,-4.6289063 -2.89453,-4.6289063 z m -0.25782,0.5039063 c 1.39453,0 1.94532,1.3945312 1.94532,4.8398437 0,3.0585938 -0.53907,4.32421877 -1.86329,4.32421877 -1.39453,0 -1.98046,-1.45312497 -1.98046,-4.95703127 0,-3.0234375 0.53906,-4.2070312 1.89843,-4.2070312 z m 10.76367,7.6054687 c -0.38671,0.1289063 -0.64453,0.2226563 -1.40625,0.4335938 -0.10546,1.08984372 -0.45703,2.02734372 -1.28906,3.3984375 l 0.19922,0.1640625 0.58594,-0.28125 c 1.16015,-1.50000003 1.71094,-2.40234378 2.10937,-3.5039063 z m 5.792,-6.1875 h 0.14062 l 1.85156,-0.8320312 c 0.0117,-0.023437 0.0352,-0.023437 0.0469,-0.023437 0.082,0 0.11719,0.1289062 0.11719,0.4804687 v 6.9492188 c 0,0.74999997 -0.16407,0.91406247 -0.9375,0.94921872 l -0.79688,0.046875 v 0.43359375 c 2.20313,-0.046874995 2.20313,-0.046874995 2.35547,-0.046874995 0.1875,0 0.50391,0 0.99609,0.011718745 0.17579,0.01171875 0.66797,0.01171875 1.26563,0.03515625 v -0.43359375 l -0.75,-0.046875 c -0.78516,-0.0351563 -0.9375,-0.19921875 -0.9375,-0.94921872 v -8.4960938 l -0.19922,-0.070312 c -0.92578,0.4804688 -1.94531,0.9140625 -3.25781,1.3710938 z m 9.72656,-2.4609371 c -1.01953,0.03516 -1.06641,0.03516 -1.39453,0.03516 -0.33985,0 -0.41016,0 -1.39453,-0.03516 l -0.082,0.09375 v 0.3749996 l 0.0586,0.070312 h 0.53906 c 0.39844,0 0.69141,0.082031 0.86719,0.2226563 0.14062,0.1289062 0.1875,0.328125 0.1875,0.8203125 0,0.046875 0,0.328125 0.0117,0.7265625 v 8.43749997 c -0.0117,0.421875 -0.0117,0.67968753 -0.0117,0.71484373 0,0.4921875 -0.0469,0.703125 -0.1875,0.8320313 -0.17578,0.1523437 -0.46875,0.234375 -0.86719,0.234375 h -0.53906 l -0.0586,0.070312 v 0.375 l 0.082,0.082031 c 1.00781,-0.023437 1.04297,-0.023437 1.39453,-0.023437 0.32812,0 0.39844,0 1.39453,0.023437 l 0.12891,-0.1875 c -0.082,-0.3398437 -0.10547,-0.7851562 -0.11719,-1.88671873 0,-0.19921875 0,-0.38671875 -0.0117,-0.57421875 V -7.7579531 c 0.0117,-0.1640625 0.0117,-0.3515625 0.0117,-0.5507813 0,-1.1015625 0.0352,-1.5703125 0.11719,-1.9218746 z m 0,0"
         style="fill:#000000;fill-opacity:1;fill-rule:nonzero;stroke:none" />
    </g>
  </g>
</svg>
