<?xml version="1.0" encoding="UTF-8" standalone="no"?>
<!-- Created with Inkscape (http://www.inkscape.org/) -->

<svg
   version="1.1"
   id="svg1"
   width="355.6701"
   height="37.113403"
   viewBox="0 0 355.6701 37.113403"
   sodipodi:docname="writetex.pdf"
   inkscape:export-batch-path="..\Akemicos\Akdemicos-Front\public"
   inkscape:export-batch-name="domsecante"
   xmlns:inkscape="http://www.inkscape.org/namespaces/inkscape"
   xmlns:sodipodi="http://sodipodi.sourceforge.net/DTD/sodipodi-0.dtd"
   xmlns="http://www.w3.org/2000/svg"
   xmlns:svg="http://www.w3.org/2000/svg">
  <defs
     id="defs1">
    <clipPath
       clipPathUnits="userSpaceOnUse"
       id="clipPath186">
      <rect
         style="fill:#000000;stroke:#000000;stroke-opacity:1"
         id="rect187"
         width="355.6701"
         height="37.113403"
         x="1016.4949"
         y="329.89691" />
    </clipPath>
  </defs>
  <sodipodi:namedview
     id="namedview1"
     pagecolor="#ffffff"
     bordercolor="#000000"
     borderopacity="0.25"
     inkscape:showpageshadow="2"
     inkscape:pageopacity="0.0"
     inkscape:pagecheckerboard="0"
     inkscape:deskcolor="#d1d1d1"
     showgrid="false">
    <inkscape:page
       x="0"
       y="0"
       width="355.6701"
       height="37.113403"
       id="page1"
       margin="0"
       bleed="0" />
  </sodipodi:namedview>
  <g
     id="g97"
     inkscape:groupmode="layer"
     inkscape:label="2"
     clip-path="url(#clipPath186)"
     transform="translate(-1016.4949,-329.89691)">
    <g
       id="g111"
       aria-label="x&#10;Dominio={R−{&#10;π"
       transform="matrix(1.3333333,0,0,1.3333333,1152.9133,284.924)">
      <path
         id="path112"
         d="m 0.30523438,-1.2642891 c 0,0.29296879 -0.0351563,0.48046879 -0.1171875,0.93750004 -0.0351563,0.17578125 -0.046875,0.2109375 -0.0585938,0.31640625 0.2109375,0.1171875 0.4453125,0.1640625 0.62109375,0.1640625 0.46875007,0 1.03124997,-0.41015625 1.47656257,-1.08984375 l 1.0898437,-1.67578124 0.1523438,0.9960937 c 0.1875,1.21875004 0.515625,1.76953129 1.03125,1.76953129 0.3164062,0 0.7734375,-0.234375 1.2421875,-0.65625 L 6.4458594,-1.1353828 6.3169531,-1.4049141 c -0.5273437,0.43359379 -0.8789062,0.64453129 -1.1132812,0.64453129 -0.2109375,0 -0.3984375,-0.140625 -0.5390625,-0.43359379 -0.1289063,-0.2695312 -0.2929688,-0.796875 -0.3632813,-1.21875 l -0.2578125,-1.4414062 0.5039063,-0.703125 c 0.6796875,-0.9375 1.0664062,-1.265625 1.5117187,-1.265625 0.2226563,0 0.3984375,0.1171875 0.46875,0.328125 l 0.1992188,-0.058594 0.2109375,-1.21875 c -0.1640625,-0.09375 -0.2929688,-0.140625 -0.421875,-0.140625 -0.5742188,0 -1.1484375,0.515625 -2.0390625,1.8398438 l -0.5273438,0.7851562 -0.09375,-0.6914062 c -0.1640625,-1.4179688 -0.5507812,-1.9335938 -1.40625,-1.9335938 -0.375,0 -0.6796875,0.1171875 -0.8085937,0.3046875 l -0.83203127,1.1835938 0.23437497,0.1523437 c 0.4335938,-0.4921875 0.7265625,-0.6914062 0.9960938,-0.6914062 0.46875,0 0.7851562,0.5859375 1.03125,1.9921875 l 0.1523437,0.890625 -0.5742187,0.890625 c -0.609375,0.9609375 -1.1015625,1.41796874 -1.5,1.41796874 -0.21093752,0 -0.37500002,-0.0585938 -0.39843752,-0.12890625 L 0.58648438,-1.2994453 Z m 0,0"
         style="fill:#000000;fill-opacity:1;fill-rule:nonzero;stroke:none" />
      <path
         id="path113"
         d="m -101.7973,49.65368 v 0.328125 c 1.66406,-0.04687 1.66406,-0.04687 1.992183,-0.04687 0.257812,0 0.492187,0 0.75,0.01172 1.125,0.03516 1.125,0.03516 1.324219,0.03516 1.839843,0 3.222656,-0.480469 4.21875,-1.464844 1.03125,-1.019531 1.664062,-2.566406 1.664062,-4.101563 0,-2.671875 -1.980469,-4.40625 -5.003906,-4.40625 -0.105469,0 -0.28125,0 -0.539063,0.01172 -0.726562,0.01172 -1.335937,0.03516 -1.957031,0.03516 -0.527344,0 -1.324214,-0.02344 -2.953124,-0.04687 v 0.433594 l 0.57422,0.03516 c 0.65625,0.04687 0.72656,0.175782 0.72656,1.300782 v 6.796875 c 0,0.410156 -0.12891,0.726562 -0.35156,0.84375 z m 2.167964,-8.953125 c 0.363281,-0.07031 0.867188,-0.117188 1.582031,-0.117188 1.054688,0 2.203125,0.1875 2.800782,0.457031 0.316406,0.128907 0.585937,0.328125 0.84375,0.585938 0.691406,0.691406 1.019531,1.722656 1.019531,3.164062 0,1.605469 -0.480469,2.835938 -1.429688,3.609375 -0.867187,0.703125 -1.722656,0.949219 -3.339843,0.949219 -0.667969,0 -1.113282,-0.03516 -1.476563,-0.117187 z m 12.111328,2.507812 c -2.085937,0 -3.539062,1.476563 -3.539062,3.609375 0,2.027344 1.277343,3.398438 3.128906,3.398438 2.203125,0 3.785156,-1.523438 3.785156,-3.679688 0,-1.933594 -1.40625,-3.328125 -3.375,-3.328125 z m -0.257812,0.46875 c 1.324218,0 2.296875,1.441406 2.296875,3.386719 0,1.652344 -0.726563,2.683594 -1.886719,2.683594 -1.40625,0 -2.355469,-1.371094 -2.355469,-3.410157 0,-1.722656 0.691406,-2.660156 1.945313,-2.660156 z m 4.353515,0.515625 h 0.527344 c 0.574219,0 0.632813,0.105469 0.632813,1.054688 v 3.222656 c 0,0.902344 -0.03516,1.007812 -0.527344,1.03125 l -0.65625,0.04687 V 49.9818 c 1.371094,-0.04687 1.417969,-0.04687 1.816406,-0.04687 0.398438,0 0.773438,0.01172 1.710938,0.04687 v -0.433594 l -0.609375,-0.04687 c -0.480469,-0.02344 -0.527344,-0.128906 -0.527344,-1.03125 V 45.43493 c 0,-0.644532 0.949219,-1.347657 1.804687,-1.347657 0.773438,0 1.3125,0.726563 1.3125,1.816407 v 2.566406 c 0,0.902344 -0.04687,1.007812 -0.539062,1.03125 l -0.65625,0.04687 V 49.9818 c 1.429687,-0.04687 1.429687,-0.04687 1.792969,-0.04687 0.363281,0 0.363281,0 1.792968,0.04687 v -0.433594 l -0.65625,-0.04687 c -0.492187,-0.02344 -0.539062,-0.128906 -0.539062,-1.03125 V 45.43493 c 0,-0.644532 0.949219,-1.347657 1.816406,-1.347657 0.773438,0 1.300781,0.726563 1.300781,1.816407 v 4.078125 c 0.878907,-0.04687 0.890625,-0.04687 1.136719,-0.04687 0.1875,0 0.1875,0 1.277344,0.04687 v -0.433594 l -0.679688,-0.04687 c -0.480468,-0.02344 -0.527343,-0.128906 -0.527343,-1.03125 v -2.953125 c 0,-1.417969 -0.832032,-2.308594 -2.15625,-2.308594 -0.503907,0 -0.914063,0.128906 -1.171875,0.363281 l -1.089844,0.972657 c -0.457031,-0.949219 -1.054688,-1.335938 -2.039063,-1.335938 -0.527343,0 -0.9375,0.128906 -1.195312,0.363281 l -0.984375,0.914063 v -1.21875 l -0.128906,-0.05859 c -0.726563,0.304688 -1.476563,0.503906 -2.238282,0.585938 z m 15.105469,-0.925781 -0.128906,-0.05859 c -0.726563,0.304688 -1.476563,0.503906 -2.238281,0.585938 v 0.398437 h 0.527343 c 0.574219,0 0.632813,0.105469 0.632813,1.054688 v 3.222656 c 0,0.902344 -0.03516,1.007812 -0.527344,1.03125 l -0.65625,0.04687 v 0.433594 c 1.429688,-0.04687 1.429688,-0.04687 1.792969,-0.04687 0.351562,0 0.351562,0 1.792969,0.04687 V 49.54821 l -0.667969,-0.04687 c -0.480469,-0.02344 -0.527344,-0.128906 -0.527344,-1.03125 z m -0.65625,-3.1875 c -0.433594,0 -0.808594,0.375 -0.808594,0.808594 0,0.410156 0.375,0.785156 0.796875,0.785156 0.410157,0 0.796875,-0.375 0.796875,-0.785156 0,-0.410157 -0.386718,-0.808594 -0.785156,-0.808594 z m 8.018555,9.902344 c 0.878906,-0.04687 0.890625,-0.04687 1.136719,-0.04687 0.199218,0 0.199218,0 1.183593,0.04687 v -0.433594 l -0.585937,-0.04687 c -0.492188,-0.02344 -0.527344,-0.117188 -0.527344,-1.03125 v -2.765625 c 0,-1.675781 -0.796875,-2.496094 -2.402344,-2.496094 -0.527343,0 -0.832031,0.105469 -1.125,0.363281 l -1.089843,0.9375 v -1.242187 l -0.128907,-0.05859 c -0.738281,0.304688 -1.488281,0.503906 -2.238281,0.585938 v 0.398437 h 0.527344 c 0.574219,0 0.632812,0.105469 0.632812,1.054688 v 3.222656 c 0,0.902344 -0.04687,1.007812 -0.539062,1.03125 l -0.644531,0.04687 v 0.433594 c 0.984375,-0.03516 1.371093,-0.04687 1.78125,-0.04687 0.421875,0 0.808593,0.01172 1.78125,0.04687 v -0.433594 l -0.644532,-0.04687 c -0.492187,-0.02344 -0.527343,-0.128906 -0.527343,-1.03125 V 45.43493 c 0,-0.644532 0.9375,-1.347657 1.816406,-1.347657 0.960937,0 1.59375,0.714844 1.59375,1.816407 z m 5.162109,-6.714844 -0.128906,-0.05859 c -0.726563,0.304688 -1.476563,0.503906 -2.238281,0.585938 v 0.398437 h 0.527343 c 0.574219,0 0.632813,0.105469 0.632813,1.054688 v 3.222656 c 0,0.902344 -0.03516,1.007812 -0.527344,1.03125 l -0.65625,0.04687 v 0.433594 c 1.429688,-0.04687 1.429688,-0.04687 1.792969,-0.04687 0.351562,0 0.351562,0 1.792969,0.04687 V 49.54821 l -0.667969,-0.04687 c -0.480469,-0.02344 -0.527344,-0.128906 -0.527344,-1.03125 z m -0.65625,-3.1875 c -0.433594,0 -0.808594,0.375 -0.808594,0.808594 0,0.410156 0.375,0.785156 0.796875,0.785156 0.410157,0 0.796875,-0.375 0.796875,-0.785156 0,-0.410157 -0.386718,-0.808594 -0.785156,-0.808594 z m 6.131836,3.128906 c -2.085937,0 -3.539062,1.476563 -3.539062,3.609375 0,2.027344 1.277343,3.398438 3.128906,3.398438 2.203125,0 3.785156,-1.523438 3.785156,-3.679688 0,-1.933594 -1.40625,-3.328125 -3.375,-3.328125 z m -0.257812,0.46875 c 1.324218,0 2.296875,1.441406 2.296875,3.386719 0,1.652344 -0.726563,2.683594 -1.886719,2.683594 -1.40625,0 -2.355469,-1.371094 -2.355469,-3.410157 0,-1.722656 0.691406,-2.660156 1.945313,-2.660156 z m 18.621093,0.726563 h -7.230468 v 0.796875 h 7.230468 z m 0,2.777343 h -7.230468 v 0.808594 h 7.230468 z m 0,0"
         style="fill:#000000;fill-opacity:1;fill-rule:nonzero;stroke:none" />
      <path
         id="path114"
         d="m -26.809023,40.712273 c 0,-0.597656 0.386718,-1.558593 2.015625,-1.664062 0.08203,-0.01172 0.140625,-0.07031 0.140625,-0.164063 0,-0.164062 -0.117188,-0.164062 -0.28125,-0.164062 -1.5,0 -2.859375,0.761719 -2.871094,1.863281 v 3.410156 c 0,0.585938 0,1.066407 -0.597656,1.558594 -0.527344,0.433594 -1.101563,0.46875 -1.429688,0.480469 -0.07031,0.01172 -0.128906,0.07031 -0.128906,0.164062 0,0.152344 0.09375,0.152344 0.234375,0.164063 0.996094,0.05859 1.710937,0.597656 1.875,1.335937 0.04687,0.164063 0.04687,0.1875 0.04687,0.726563 v 2.964844 c 0,0.621093 0,1.101562 0.714844,1.675781 0.585937,0.445312 1.570312,0.609375 2.15625,0.609375 0.164062,0 0.28125,0 0.28125,-0.164063 0,-0.152343 -0.09375,-0.152343 -0.246094,-0.164062 -0.9375,-0.05859 -1.664063,-0.539063 -1.863281,-1.300781 -0.04687,-0.140625 -0.04687,-0.164063 -0.04687,-0.703125 v -3.140625 c 0,-0.691407 -0.117188,-0.9375 -0.597657,-1.417969 -0.316406,-0.316406 -0.75,-0.46875 -1.160156,-0.585938 1.21875,-0.339843 1.757813,-1.03125 1.757813,-1.898437 z m 0,0"
         style="fill:#000000;fill-opacity:1;fill-rule:nonzero;stroke:none" />
      <path
         id="path115"
         d="m -23.067812,40.442742 0.632812,0.03516 c 0.585938,0.04687 0.726563,0.164063 0.726563,1.300782 v 6.433593 c 0,1.136719 -0.140625,1.265625 -0.726563,1.289063 l -0.632812,0.04687 v 0.433594 c 0.84375,-0.03516 2.167968,-0.04687 2.90625,-0.04687 0.75,0 2.132812,0.01172 2.976562,0.04687 V 49.54821 l -0.691406,-0.04687 c -0.644531,-0.03516 -0.726563,-0.152344 -0.726563,-1.207031 v -7.570313 c 0.492188,-0.128906 0.914063,-0.164062 1.40625,-0.164062 1.488282,0 2.320313,0.679687 2.320313,1.898437 0,1.324219 -1.054688,2.15625 -2.71875,2.15625 -0.08203,0 -0.222656,0 -0.410156,-0.01172 l -0.08203,0.164063 c 0.152344,0.1875 0.199219,0.246094 0.363282,0.433594 0.210937,0.234375 0.246093,0.292968 0.375,0.457031 l 2.648437,3.550781 c 0.08203,0.105469 0.164063,0.222656 0.257813,0.328125 l 0.328125,0.445313 c 0.585937,-0.03516 0.796875,-0.04687 0.972656,-0.04687 0.152344,0 0.339844,0.01172 1.03125,0.04687 v -0.433594 c -0.457031,-0.04687 -0.691406,-0.128906 -0.878906,-0.375 l -3.246094,-4.242188 c 0.785156,-0.1875 1.136719,-0.351562 1.605469,-0.65625 0.785156,-0.550781 1.183593,-1.265625 1.183593,-2.109375 0,-1.394531 -0.984375,-2.15625 -2.8125,-2.15625 h -0.199218 c -0.28125,0.01172 -0.527344,0.01172 -0.726563,0.02344 -0.433594,0.02344 -0.972656,0.02344 -1.523437,0.02344 h -1.453125 c -0.738282,0 -2.0625,-0.02344 -2.90625,-0.04687 z m 3.09375,1.335938 v 6.433593 c 0,1.136719 -0.07031,1.253907 -0.527344,1.289063 -0.457031,-0.03516 -0.539063,-0.152344 -0.539063,-1.289063 V 41.77868 c 0,-1.136719 0.08203,-1.253907 0.539063,-1.300782 0.457031,0.03516 0.527344,0.164063 0.527344,1.300782 z m 0,0"
         style="fill:#000000;fill-opacity:1;fill-rule:nonzero;stroke:none" />
      <path
         id="path116"
         d="m 1.8198828,46.501336 c 0.2578125,0 0.5273438,0 0.5273438,-0.304688 0,-0.304687 -0.2695313,-0.304687 -0.5273438,-0.304687 h -8.0859375 c -0.2578125,0 -0.5273437,0 -0.5273437,0.304687 0,0.304688 0.2695312,0.304688 0.5273437,0.304688 z m 9.9023442,-5.789063 c 0,-0.597656 0.386718,-1.558593 2.015625,-1.664062 0.08203,-0.01172 0.140625,-0.07031 0.140625,-0.164063 0,-0.164062 -0.117188,-0.164062 -0.28125,-0.164062 -1.5,0 -2.859375,0.761719 -2.871094,1.863281 v 3.410156 c 0,0.585938 0,1.066407 -0.597656,1.558594 -0.5273442,0.433594 -1.1015629,0.46875 -1.4296879,0.480469 -0.070312,0.01172 -0.1289063,0.07031 -0.1289063,0.164062 0,0.152344 0.09375,0.152344 0.234375,0.164063 0.9960938,0.05859 1.7109372,0.597656 1.8750002,1.335937 0.04687,0.164063 0.04687,0.1875 0.04687,0.726563 v 2.964844 c 0,0.621093 0,1.101562 0.714844,1.675781 0.585937,0.445312 1.570312,0.609375 2.15625,0.609375 0.164062,0 0.28125,0 0.28125,-0.164063 0,-0.152343 -0.09375,-0.152343 -0.246094,-0.164062 -0.9375,-0.05859 -1.664063,-0.539063 -1.863281,-1.300781 -0.04687,-0.140625 -0.04687,-0.164063 -0.04687,-0.703125 v -3.140625 c 0,-0.691407 -0.117188,-0.9375 -0.597657,-1.417969 -0.316406,-0.316406 -0.75,-0.46875 -1.1601559,-0.585938 1.2187499,-0.339843 1.7578129,-1.03125 1.7578129,-1.898437 z m 0,0"
         style="fill:#000000;fill-opacity:1;fill-rule:nonzero;stroke:none" />
      <path
         id="path117"
         d="m 17.903867,35.160516 0.128906,-0.105469 c 0.292969,-0.855469 0.867188,-0.902344 1.6875,-0.902344 0.175782,0 0.433594,0.01172 0.726563,0.01172 -1.195313,3.28125 -1.746094,4.265625 -2.90625,6.082031 l 0.128906,0.128906 1.054688,-0.363281 c 0.527343,-1.125 1.394531,-3.304687 2.191406,-5.824219 l 2.660156,0.09375 c -0.246094,0.890625 -1.078125,3.492188 -1.078125,4.40625 0,1.511719 0.550781,1.6875 0.996094,1.6875 0.726562,0 1.148437,-0.175781 2.050781,-0.9375 l -0.117187,-0.28125 -0.339844,0.246094 c 0.03516,-0.02344 -0.375,0.304688 -0.621094,0.304688 -0.667969,0 -0.878906,-0.421875 -0.878906,-1.300782 0,-0.363281 0.03516,-0.75 0.117187,-1.171875 0.246094,-1.183593 0.492188,-2.367187 0.621094,-2.953125 0.328125,0 0.65625,-0.01172 0.984375,-0.05859 0.257813,0 0.574219,-0.140625 0.808594,-0.222657 0.152344,-0.304687 0.210937,-0.328125 0.480469,-0.679687 l -0.09375,-0.164063 c -0.386719,0.128907 -1.03125,0.269532 -1.511719,0.269532 -0.164063,0.01172 -0.527344,0.02344 -0.890625,0.02344 -1.523438,-0.01172 -3.890625,-0.128906 -4.523438,-0.128906 -1.078125,0 -1.464843,0.480469 -1.886718,1.722656 z m 0,0"
         style="fill:#000000;fill-opacity:1;fill-rule:nonzero;stroke:none" />
    </g>
    <path
       id="path118"
       d="M 0,0 H 10.444"
       style="fill:none;stroke:#000000;stroke-width:0.574;stroke-linecap:butt;stroke-linejoin:miter;stroke-miterlimit:10;stroke-dasharray:none;stroke-opacity:1"
       transform="matrix(1.3333333,0,0,-1.3333333,1174.7013,346.72133)" />
    <g
       id="g118"
       aria-label="2&#10;+nπ},conn∈Z},Rango=(−∞,−1]∪&#10;[1,∞),T=2π"
       transform="matrix(1.3333333,0,0,1.3333333,1176.8827,364.62533)">
      <path
         id="path119"
         d="m 0.23448438,-0.328375 v 0.375 C 2.9063594,-2.5e-4 2.9063594,-2.5e-4 3.4337031,-2.5e-4 c 0.515625,0 0.515625,0 3.28125,0.046875 -0.035156,-0.3046875 -0.035156,-0.4453125 -0.035156,-0.64453125 0,-0.1875 0,-0.33984375 0.035156,-0.64453125 -1.6523437,0.070312 -2.3085937,0.082031 -4.96875,0.140625 l 2.6132813,-2.765625 C 5.7540156,-5.3557188 6.1876094,-6.140875 6.1876094,-7.219 c 0,-1.640625 -1.125,-2.6601563 -2.9414063,-2.6601563 -1.0429687,0 -1.734375,0.28125 -2.43749997,0.9960938 l -0.24609375,1.9570312 h 0.41015625 l 0.18749997,-0.65625 c 0.234375,-0.8320312 0.75,-1.1953125 1.7109375,-1.1953125 1.2304688,0 2.015625,0.7734375 2.015625,1.9921875 0,1.078125 -0.5976562,2.1328125 -2.2148437,3.8554688 z m 0,0"
         style="fill:#000000;fill-opacity:1;fill-rule:nonzero;stroke:none" />
      <path
         id="path120"
         d="m 19.848742,-13.274664 h 4.171875 c 0.210938,0 0.492188,0 0.492188,-0.304688 0,-0.304687 -0.28125,-0.304687 -0.492188,-0.304687 h -4.171875 v -4.183594 c 0,-0.210937 0,-0.492187 -0.304687,-0.492187 -0.292969,0 -0.292969,0.28125 -0.292969,0.492187 v 4.183594 h -4.183594 c -0.210937,0 -0.503906,0 -0.503906,0.304687 0,0.304688 0.292969,0.304688 0.503906,0.304688 h 4.183594 v 4.1835937 c 0,0.2109375 0,0.4921875 0.292969,0.4921875 0.304687,0 0.304687,-0.28125 0.304687,-0.4921875 z m 0,0"
         style="fill:#000000;fill-opacity:1;fill-rule:nonzero;stroke:none" />
      <path
         id="path121"
         d="m 29.601672,-15.407477 0.105469,0.292969 0.457031,-0.304687 c 0.527344,-0.328125 0.574219,-0.363282 0.679687,-0.363282 0.152344,0 0.257813,0.152344 0.257813,0.363282 0,0.726562 -0.597656,3.503906 -1.183594,5.5546872 l 0.105469,0.1523437 c 0.351562,-0.1054687 0.691406,-0.1875 1.007812,-0.2460937 0.269532,-1.8046872 0.574219,-2.7421872 1.230469,-3.7265622 0.773438,-1.207032 1.851563,-2.097657 2.496094,-2.097657 0.152344,0 0.246094,0.128907 0.246094,0.351563 0,0.257812 -0.04687,0.550781 -0.164063,1.019531 l -0.75,3.035156 c -0.128906,0.527344 -0.175781,0.855469 -0.175781,1.089844 0,0.3632814 0.152344,0.5742189 0.421875,0.5742189 0.375,0 0.890625,-0.3046879 2.296875,-1.3476559 l -0.140625,-0.257813 -0.375,0.246094 c -0.410156,0.269531 -0.726563,0.421875 -0.878906,0.421875 -0.09375,0 -0.1875,-0.128906 -0.1875,-0.28125 0,-0.07031 0.02344,-0.234375 0.03516,-0.292969 l 0.949219,-3.949219 c 0.09375,-0.421875 0.152343,-0.820312 0.152343,-1.066406 0,-0.328125 -0.152343,-0.515625 -0.445312,-0.515625 -0.597656,0 -1.59375,0.550781 -2.4375,1.335938 -0.539063,0.503906 -0.949219,0.984375 -1.6875,2.039062 l 0.539062,-2.308594 c 0.05859,-0.257812 0.09375,-0.433593 0.09375,-0.597656 0,-0.292969 -0.117187,-0.46875 -0.339843,-0.46875 -0.292969,0 -0.855469,0.316406 -1.898438,1.066406 z m 0,0"
         style="fill:#000000;fill-opacity:1;fill-rule:nonzero;stroke:none" />
      <path
         id="path122"
         d="m 38.979602,-14.90357 0.128906,-0.105469 c 0.292969,-0.855469 0.867187,-0.902344 1.6875,-0.902344 0.175781,0 0.433594,0.01172 0.726562,0.01172 -1.195312,3.28125 -1.746093,4.265625 -2.90625,6.0820312 l 0.128907,0.1289062 1.054687,-0.3632814 c 0.527344,-1.125 1.394531,-3.304687 2.191406,-5.824219 l 2.660157,0.09375 c -0.246094,0.890625 -1.078125,3.492188 -1.078125,4.40625 0,1.5117192 0.550781,1.6875004 0.996093,1.6875004 0.726563,0 1.148438,-0.1757812 2.050782,-0.9375004 l -0.117188,-0.28125 -0.339844,0.246094 c 0.03516,-0.02344 -0.375,0.304688 -0.621093,0.304688 -0.667969,0 -0.878907,-0.421875 -0.878907,-1.300782 0,-0.363281 0.03516,-0.75 0.117188,-1.171875 0.246094,-1.183593 0.492187,-2.367187 0.621094,-2.953125 0.328125,0 0.65625,-0.01172 0.984375,-0.05859 0.257812,0 0.574218,-0.140625 0.808593,-0.222657 0.152344,-0.304687 0.210938,-0.328125 0.480469,-0.679687 l -0.09375,-0.164063 c -0.386719,0.128907 -1.03125,0.269532 -1.511719,0.269532 -0.164062,0.01172 -0.527343,0.02344 -0.890625,0.02344 -1.523437,-0.01172 -3.890625,-0.128906 -4.523437,-0.128906 -1.078125,0 -1.464844,0.480469 -1.886719,1.722656 z m 0,0"
         style="fill:#000000;fill-opacity:1;fill-rule:nonzero;stroke:none" />
      <path
         id="path123"
         d="m 51.2755,-8.0949766 c 0,0.5976563 -0.398437,1.5585938 -2.027344,1.6640625 -0.07031,0.011719 -0.128906,0.070312 -0.128906,0.1640625 0,0.1640625 0.164063,0.1640625 0.292969,0.1640625 1.453125,0 2.847656,-0.7382812 2.859375,-1.8632812 v -3.4101567 c 0,-0.585937 0,-1.066406 0.597656,-1.558593 0.527344,-0.433594 1.089844,-0.46875 1.417969,-0.480469 0.08203,-0.01172 0.140625,-0.07031 0.140625,-0.164063 0,-0.152343 -0.09375,-0.152343 -0.246094,-0.164062 -0.984375,-0.05859 -1.699219,-0.597656 -1.863281,-1.335938 -0.04687,-0.164062 -0.04687,-0.1875 -0.04687,-0.726562 v -2.964844 c 0,-0.621094 0,-1.101562 -0.714844,-1.675781 -0.597656,-0.457031 -1.628906,-0.609375 -2.144531,-0.609375 -0.128906,0 -0.292969,0 -0.292969,0.164062 0,0.152344 0.09375,0.152344 0.234375,0.164063 0.949219,0.05859 1.675781,0.539062 1.875,1.300781 0.04687,0.140625 0.04687,0.164063 0.04687,0.703125 v 3.140625 c 0,0.691406 0.117188,0.9375 0.597656,1.417969 0.304688,0.316406 0.738282,0.46875 1.160157,0.585937 -1.21875,0.339844 -1.757813,1.03125 -1.757813,1.898438 z m 0,0"
         style="fill:#000000;fill-opacity:1;fill-rule:nonzero;stroke:none" />
      <path
         id="path124"
         d="m 58.623156,-11.610602 c -0.386718,0.128907 -0.644531,0.222657 -1.40625,0.433594 -0.105468,1.089844 -0.457031,2.0273439 -1.289062,3.3984377 l 0.199219,0.1640625 0.585937,-0.28125 c 1.160156,-1.5 1.710938,-2.4023442 2.109375,-3.5039062 z m 12.946289,-2.695312 c 0,-0.65625 0.07031,-1.242188 0.210938,-1.757813 -0.574219,-0.351562 -1.078125,-0.503906 -1.664063,-0.503906 -0.691406,0 -1.5,0.269531 -2.355468,0.820313 -1.007813,0.632812 -1.535157,1.628906 -1.535157,2.894531 0,1.933594 1.359375,3.2929687 3.28125,3.2929687 0.75,0 1.828125,-0.2695313 1.96875,-0.4804687 l 0.304688,-0.457031 -0.152344,-0.222657 c -0.527344,0.292969 -0.984375,0.421875 -1.5,0.421875 -1.59375,0 -2.636719,-1.230468 -2.636719,-3.128906 0,-1.535156 0.714844,-2.390625 2.003907,-2.390625 0.632812,0 1.324218,0.28125 1.582031,0.644531 l 0.09375,0.867188 z m 4.646485,-2.261719 c -2.085938,0 -3.539063,1.476563 -3.539063,3.609375 0,2.027344 1.277344,3.3984377 3.128906,3.3984377 2.203125,0 3.785157,-1.5234377 3.785157,-3.6796877 0,-1.933594 -1.40625,-3.328125 -3.375,-3.328125 z m -0.257813,0.46875 c 1.324219,0 2.296875,1.441406 2.296875,3.386719 0,1.652344 -0.726562,2.683594 -1.886719,2.683594 -1.40625,0 -2.355468,-1.371094 -2.355468,-3.410157 0,-1.722656 0.691406,-2.660156 1.945312,-2.660156 z m 9.978516,6.3046877 c 0.878906,-0.046875 0.890625,-0.046875 1.136719,-0.046875 0.199218,0 0.199218,0 1.183593,0.046875 v -0.4335937 l -0.585937,-0.04687 c -0.492188,-0.02344 -0.527344,-0.117188 -0.527344,-1.03125 v -2.765625 c 0,-1.675781 -0.796875,-2.496094 -2.402344,-2.496094 -0.527343,0 -0.832031,0.105469 -1.125,0.363281 l -1.089843,0.9375 v -1.242187 l -0.128907,-0.05859 c -0.738281,0.304688 -1.488281,0.503906 -2.238281,0.585938 v 0.398437 h 0.527344 c 0.574219,0 0.632812,0.105469 0.632812,1.054688 v 3.222656 c 0,0.902344 -0.04687,1.007812 -0.539062,1.03125 l -0.644531,0.04687 v 0.4335937 c 0.984375,-0.035156 1.371093,-0.046875 1.78125,-0.046875 0.421875,0 0.808593,0.011719 1.78125,0.046875 v -0.4335937 l -0.644532,-0.04687 c -0.492187,-0.02344 -0.527343,-0.128906 -0.527343,-1.03125 v -3.035156 c 0,-0.644532 0.9375,-1.347657 1.816406,-1.347657 0.960937,0 1.59375,0.714844 1.59375,1.816407 z m 0,0"
         style="fill:#000000;fill-opacity:1;fill-rule:nonzero;stroke:none" />
      <path
         id="path125"
         d="m 95.490344,-15.407477 0.105469,0.292969 0.457031,-0.304687 c 0.527344,-0.328125 0.574219,-0.363282 0.679687,-0.363282 0.152344,0 0.257813,0.152344 0.257813,0.363282 0,0.726562 -0.597656,3.503906 -1.183594,5.5546872 l 0.105469,0.1523437 c 0.351562,-0.1054687 0.691406,-0.1875 1.007812,-0.2460937 0.269532,-1.8046872 0.574219,-2.7421872 1.230469,-3.7265622 0.773438,-1.207032 1.85156,-2.097657 2.49609,-2.097657 0.15235,0 0.2461,0.128907 0.2461,0.351563 0,0.257812 -0.0469,0.550781 -0.16406,1.019531 l -0.750005,3.035156 c -0.128906,0.527344 -0.175781,0.855469 -0.175781,1.089844 0,0.3632814 0.152344,0.5742189 0.421876,0.5742189 0.375,0 0.89062,-0.3046879 2.29687,-1.3476559 l -0.14062,-0.257813 -0.375,0.246094 c -0.41016,0.269531 -0.72656,0.421875 -0.87891,0.421875 -0.0937,0 -0.1875,-0.128906 -0.1875,-0.28125 0,-0.07031 0.0234,-0.234375 0.0352,-0.292969 l 0.94922,-3.949219 c 0.0937,-0.421875 0.15234,-0.820312 0.15234,-1.066406 0,-0.328125 -0.15234,-0.515625 -0.44531,-0.515625 -0.59766,0 -1.59375,0.550781 -2.437501,1.335938 -0.539063,0.503906 -0.949219,0.984375 -1.6875,2.039062 l 0.539062,-2.308594 c 0.05859,-0.257812 0.09375,-0.433593 0.09375,-0.597656 0,-0.292969 -0.117187,-0.46875 -0.339843,-0.46875 -0.292969,0 -0.855469,0.316406 -1.898438,1.066406 z m 0,0"
         style="fill:#000000;fill-opacity:1;fill-rule:nonzero;stroke:none" />
      <path
         id="path126"
         d="m 119.46105,-13.274664 c 0.25781,0 0.52734,0 0.52734,-0.304688 0,-0.304687 -0.26953,-0.304687 -0.52734,-0.304687 h -6.33985 c 0.1875,-2.003906 1.89844,-3.433594 4.00782,-3.433594 h 2.33203 c 0.25781,0 0.52734,0 0.52734,-0.304687 0,-0.292969 -0.26953,-0.292969 -0.52734,-0.292969 h -2.35547 c -2.56641,0 -4.59375,1.945312 -4.59375,4.335937 0,2.390625 2.02734,4.3359379 4.59375,4.3359379 h 2.35547 c 0.25781,0 0.52734,0 0.52734,-0.2929687 0,-0.3046875 -0.26953,-0.3046875 -0.52734,-0.3046875 h -2.33203 c -2.10938,0 -3.82032,-1.4296877 -4.00782,-3.4335937 z m 0,0"
         style="fill:#000000;fill-opacity:1;fill-rule:nonzero;stroke:none" />
      <path
         id="path127"
         d="m 139.80773,-12.325445 -0.0937,0.820312 c -0.0937,0.949219 -0.29297,1.03125 -2.4961,1.03125 h -3.91406 l 6.97266,-8.882812 -0.0586,-0.410157 c -0.55078,0 -1.91015,0.04687 -2.57812,0.04687 h -2.26172 c -0.86719,0 -1.79297,-0.02344 -2.67188,-0.03516 -0.45703,-0.01172 -1.32421,-0.01172 -2.36718,-0.01172 0.0234,0.527344 0.0469,0.785157 0.0469,1.160157 0,0.375 -0.0234,0.632812 -0.0469,1.160156 h 0.49218 l 0.082,-1.019531 c 0.0469,-0.550782 0.43359,-0.667969 2.17968,-0.667969 h 3.26953 c -0.17578,0.28125 -0.3164,0.503906 -0.49218,0.738281 -0.25782,0.316406 -0.49219,0.632813 -0.73828,0.949219 l -4.33594,5.566406 c -0.19922,0.257813 -0.46875,0.585938 -1.39453,1.675781 v 0.4101567 c 0.5625,0 2.21484,-0.046875 2.88281,-0.046875 h 2.88281 c 0.86719,0 1.79297,0.011719 2.67188,0.023437 0.45703,0.023437 1.32422,0.023437 2.36718,0.023437 0,-1.2421877 0.0117,-1.7578127 0.082,-2.5312497 z m -2.28516,-5.460938 -5.23828,6.585938 c -0.26953,0.398437 -0.41016,0.585937 -0.60938,0.726562 h -0.55078 c -0.14062,-0.128906 -0.21093,-0.246094 -0.21093,-0.375 0,-0.199219 0.15234,-0.445312 0.57421,-0.984375 l 5.19141,-6.609375 c 0.26953,-0.351562 0.45703,-0.5625 0.59766,-0.691406 h 0.62109 c 0.14063,0.128906 0.21094,0.222656 0.21094,0.351562 0,0.210938 -0.16406,0.46875 -0.58594,0.996094 z m 0,0"
         style="fill:#000000;fill-opacity:1;fill-rule:nonzero;stroke:none" />
      <path
         id="path128"
         d="m 144.48351,-8.0949766 c 0,0.5976563 -0.39844,1.5585938 -2.02735,1.6640625 -0.0703,0.011719 -0.1289,0.070312 -0.1289,0.1640625 0,0.1640625 0.16406,0.1640625 0.29297,0.1640625 1.45312,0 2.84765,-0.7382812 2.85937,-1.8632812 v -3.4101567 c 0,-0.585937 0,-1.066406 0.59766,-1.558593 0.52734,-0.433594 1.08984,-0.46875 1.41797,-0.480469 0.082,-0.01172 0.14062,-0.07031 0.14062,-0.164063 0,-0.152343 -0.0937,-0.152343 -0.24609,-0.164062 -0.98438,-0.05859 -1.69922,-0.597656 -1.86328,-1.335938 -0.0469,-0.164062 -0.0469,-0.1875 -0.0469,-0.726562 v -2.964844 c 0,-0.621094 0,-1.101562 -0.71484,-1.675781 -0.59766,-0.457031 -1.62891,-0.609375 -2.14453,-0.609375 -0.12891,0 -0.29297,0 -0.29297,0.164062 0,0.152344 0.0937,0.152344 0.23437,0.164063 0.94922,0.05859 1.67578,0.539062 1.875,1.300781 0.0469,0.140625 0.0469,0.164063 0.0469,0.703125 v 3.140625 c 0,0.691406 0.11719,0.9375 0.59765,1.417969 0.30469,0.316406 0.73829,0.46875 1.16016,0.585937 -1.21875,0.339844 -1.75781,1.03125 -1.75781,1.898438 z m 0,0"
         style="fill:#000000;fill-opacity:1;fill-rule:nonzero;stroke:none" />
      <path
         id="path129"
         d="m 151.83409,-11.610602 c -0.38671,0.128907 -0.64453,0.222657 -1.40625,0.433594 -0.10546,1.089844 -0.45703,2.0273439 -1.28906,3.3984377 l 0.19922,0.1640625 0.58594,-0.28125 c 1.16015,-1.5 1.71094,-2.4023442 2.10937,-3.5039062 z m 10.31836,-7.441406 c 0.49219,-0.117187 0.92578,-0.164062 1.40625,-0.164062 1.5,0 2.33203,0.679687 2.33203,1.898437 0,1.324219 -1.05468,2.15625 -2.71875,2.15625 -0.0937,0 -0.22265,0 -0.41015,-0.01172 l -0.0937,0.164063 c 0.16406,0.1875 0.21094,0.246094 0.375,0.433594 0.19922,0.234375 0.24609,0.292968 0.375,0.457031 l 2.63672,3.550781 c 0.0937,0.105469 0.17578,0.222656 0.25781,0.328125 0.10547,0.128906 0.1875,0.2578127 0.32812,0.4453127 0.67969,-0.046875 0.82032,-0.046875 0.98438,-0.046875 0.12891,0 0.12891,0 1.03125,0.046875 V -10.22779 c -0.45703,-0.04687 -0.69141,-0.128906 -0.87891,-0.375 l -3.25781,-4.242188 c 0.80859,-0.199218 1.18359,-0.363281 1.65234,-0.691406 0.75,-0.527344 1.14844,-1.242187 1.14844,-2.074219 0,-1.382812 -1.00781,-2.15625 -2.77734,-2.15625 h -0.23438 c -1.86328,0.04687 -1.86328,0.04687 -2.35547,0.04687 -0.46875,0 -0.46875,0 -2.48437,-0.04687 v 0.433594 l 0.59766,0.03516 c 0.65625,0.04687 0.72656,0.175782 0.72656,1.300782 v 6.433593 c 0,1.136719 -0.0703,1.253907 -0.72656,1.289063 l -0.69141,0.04687 v 0.4335937 c 0.84375,-0.035156 1.34766,-0.046875 2.09766,-0.046875 0.73828,0 1.2539,0.011719 2.10937,0.046875 v -0.4335937 l -0.69141,-0.04687 c -0.65625,-0.03516 -0.73828,-0.152344 -0.73828,-1.289063 z m 11.14453,8.039063 -0.082,1.2187497 c 0.9375,-0.046875 0.9375,-0.046875 1.125,-0.046875 0.0703,0 0.4336,0.011719 1.06641,0.046875 v -0.4335937 l -0.5625,-0.02344 c -0.35156,-0.02344 -0.41016,-0.140625 -0.41016,-0.832031 v -2.625 c 0,-2.097656 -0.59765,-2.859375 -2.26172,-2.859375 -0.62109,0 -1.18359,0.152344 -1.73437,0.492188 l -0.76172,0.457031 v 0.925781 l 0.375,0.105469 0.1875,-0.445313 c 0.30469,-0.679687 0.44531,-0.773437 1.10156,-0.773437 1.34766,0 1.91016,0.527344 1.95703,1.828125 l -1.42968,0.269531 c -1.94532,0.351563 -2.76563,1.03125 -2.76563,2.273438 0,1.125 0.67969,1.7695309 1.80469,1.7695309 0.25781,0 0.50391,-0.046875 0.60937,-0.1171875 z m 0,-0.609375 c -0.42187,0.585937 -1.32421,1.136718 -1.88671,1.136718 -0.57422,0 -1.07813,-0.527343 -1.07813,-1.148437 0,-0.527344 0.29297,-1.03125 0.72656,-1.300781 0.35157,-0.222657 1.14844,-0.421875 2.23828,-0.574219 z m 8.40235,1.8281247 c 0.8789,-0.046875 0.89062,-0.046875 1.13672,-0.046875 0.19922,0 0.19922,0 1.18359,0.046875 v -0.4335937 l -0.58594,-0.04687 c -0.49218,-0.02344 -0.52734,-0.117188 -0.52734,-1.03125 v -2.765625 c 0,-1.675781 -0.79688,-2.496094 -2.40234,-2.496094 -0.52735,0 -0.83204,0.105469 -1.125,0.363281 l -1.08985,0.9375 v -1.242187 l -0.1289,-0.05859 c -0.73829,0.304688 -1.48829,0.503906 -2.23829,0.585938 v 0.398437 h 0.52735 c 0.57422,0 0.63281,0.105469 0.63281,1.054688 v 3.222656 c 0,0.902344 -0.0469,1.007812 -0.53906,1.03125 l -0.64453,0.04687 v 0.4335937 c 0.98437,-0.035156 1.37109,-0.046875 1.78125,-0.046875 0.42187,0 0.80859,0.011719 1.78125,0.046875 v -0.4335937 l -0.64453,-0.04687 c -0.49219,-0.02344 -0.52735,-0.128906 -0.52735,-1.03125 v -3.035156 c 0,-0.644532 0.9375,-1.347657 1.81641,-1.347657 0.96094,0 1.59375,0.714844 1.59375,1.816407 z m 9.9082,-5.4726567 0.36328,-0.585937 -0.0586,-0.175781 -2.03906,0.05859 c -0.52735,-0.421875 -1.04297,-0.597656 -1.7461,-0.597656 -0.63281,0 -1.35937,0.199219 -1.95703,0.539063 -0.79687,0.46875 -1.21875,1.171875 -1.21875,2.039062 0,1.066406 0.66797,1.792969 1.72266,1.910156 l -1.125,0.878907 c -0.15235,0.210937 -0.22266,0.398437 -0.22266,0.609375 0,0.410156 0.25781,0.6328122 0.94922,0.8320309 l -1.25391,0.6796875 c -0.19921,0.1171875 -0.39843,0.6445313 -0.39843,1.0898438 0,1.3007812 1.27734,2.203125 3.10547,2.203125 2.15625,0 3.86718,-1.359375 3.86718,-3.1054688 0,-1.03125 -0.6914,-1.7578124 -1.6875,-1.7578124 h -2.29687 c -0.75,0 -1.08985,-0.164063 -1.08985,-0.550781 0,-0.1875 0.11719,-0.351563 0.48047,-0.667969 0.0937,-0.07031 0.11719,-0.09375 0.17578,-0.152344 0.14063,0.01172 0.23438,0.02344 0.33985,0.02344 0.62109,0 1.38281,-0.269532 1.96875,-0.679688 0.64453,-0.480469 0.96094,-1.054687 0.96094,-1.816406 0,-0.28125 -0.0469,-0.46875 -0.15235,-0.773438 z m -3.99609,-0.808593 c 0.97265,0 1.6289,0.796875 1.6289,2.015625 0,0.9375 -0.59765,1.582031 -1.47656,1.582031 -0.96094,0 -1.60547,-0.75 -1.60547,-1.851563 0,-1.101562 0.52735,-1.746093 1.45313,-1.746093 z m 0.66797,6.4335934 c 1.6289,0 2.17968,0.328125 2.17968,1.265625 0,1.2304688 -1.125,2.1445313 -2.63671,2.1445313 -1.24219,0 -2.10938,-0.7265625 -2.10938,-1.7929688 0,-0.6445312 0.375,-1.2304687 0.94922,-1.4765625 0.23437,-0.1054687 0.63281,-0.140625 1.61719,-0.140625 z m 7.86035,-6.9257814 c -2.08594,0 -3.53906,1.476563 -3.53906,3.609375 0,2.027344 1.27734,3.3984377 3.1289,3.3984377 2.20313,0 3.78516,-1.5234377 3.78516,-3.6796877 0,-1.933594 -1.40625,-3.328125 -3.375,-3.328125 z m -0.25781,0.46875 c 1.32421,0 2.29687,1.441406 2.29687,3.386719 0,1.652344 -0.72656,2.683594 -1.88672,2.683594 -1.40625,0 -2.35547,-1.371094 -2.35547,-3.410157 0,-1.722656 0.69141,-2.660156 1.94532,-2.660156 z m 12.0498,0.726563 h -7.23047 v 0.796875 h 7.23047 z m 0,2.777343 h -7.23047 v 0.808594 h 7.23047 z m 0,0"
         style="fill:#000000;fill-opacity:1;fill-rule:nonzero;stroke:none" />
      <path
         id="path130"
         d="m 213.79405,-6.2551328 c 0,-0.046875 0,-0.070312 -0.24609,-0.328125 -1.875,-1.8867188 -2.35547,-4.7109372 -2.35547,-6.9960942 0,-2.601562 0.57422,-5.203125 2.41406,-7.078125 0.1875,-0.175781 0.1875,-0.199218 0.1875,-0.246093 0,-0.105469 -0.0586,-0.152344 -0.14062,-0.152344 -0.15234,0 -1.5,1.019531 -2.37891,2.917969 -0.76172,1.640625 -0.94922,3.304687 -0.94922,4.558593 0,1.171875 0.16407,2.976563 0.9961,4.6640629 0.89062,1.8398438 2.17969,2.8125 2.33203,2.8125 0.082,0 0.14062,-0.046875 0.14062,-0.1523437 z m 0,0"
         style="fill:#000000;fill-opacity:1;fill-rule:nonzero;stroke:none" />
      <path
         id="path131"
         d="m 224.85948,-13.274664 c 0.25782,0 0.52735,0 0.52735,-0.304688 0,-0.304687 -0.26953,-0.304687 -0.52735,-0.304687 h -8.08593 c -0.25782,0 -0.52735,0 -0.52735,0.304687 0,0.304688 0.26953,0.304688 0.52735,0.304688 z m 0,0"
         style="fill:#000000;fill-opacity:1;fill-rule:nonzero;stroke:none" />
      <path
         id="path132"
         d="m 233.20323,-14.317633 c -1.21875,-1.652344 -1.8164,-2.308594 -3.01171,-2.308594 -1.04297,0 -2.75391,0.949219 -2.75391,3.269532 0,1.734375 1.35937,2.800781 2.63672,2.800781 0.92578,0 2.0039,-0.714844 2.87109,-2.296875 1.23047,1.628906 1.83985,2.296875 3.02344,2.296875 1.05469,0 2.78906,-0.949219 2.78906,-3.269531 0,-1.734375 -1.39453,-2.800782 -2.67187,-2.800782 -0.92578,0 -1.99219,0.726563 -2.88282,2.308594 z m -0.5039,1.078125 c -0.67969,1.148438 -1.53516,2.003906 -2.33203,2.003906 -0.51563,0 -2.10938,-0.07031 -2.10938,-2.191406 0,-1.230469 1.04297,-1.945312 1.78125,-1.945312 0.97266,0 1.44141,0.480468 2.66016,2.132812 z m 0.79687,-0.703125 c 0.67969,-1.148437 1.53516,-2.003906 2.33203,-2.003906 0.51563,0 2.10938,0.07031 2.10938,2.191406 0,1.230469 -1.04297,1.945313 -1.78125,1.945313 -0.97266,0 -1.44141,-0.480469 -2.66016,-2.132813 z m 0,0"
         style="fill:#000000;fill-opacity:1;fill-rule:nonzero;stroke:none" />
      <path
         id="path133"
         d="m 242.32921,-11.610602 c -0.38672,0.128907 -0.64453,0.222657 -1.40625,0.433594 -0.10547,1.089844 -0.45703,2.0273439 -1.28906,3.3984377 l 0.19922,0.1640625 0.58593,-0.28125 c 1.16016,-1.5 1.71094,-2.4023442 2.10938,-3.5039062 z m 0,0"
         style="fill:#000000;fill-opacity:1;fill-rule:nonzero;stroke:none" />
      <path
         id="path134"
         d="m 255.41027,-13.274664 c 0.25781,0 0.52734,0 0.52734,-0.304688 0,-0.304687 -0.26953,-0.304687 -0.52734,-0.304687 h -8.08594 c -0.25781,0 -0.52735,0 -0.52735,0.304687 0,0.304688 0.26954,0.304688 0.52735,0.304688 z m 0,0"
         style="fill:#000000;fill-opacity:1;fill-rule:nonzero;stroke:none" />
      <path
         id="path135"
         d="m 258.31652,-17.798102 h 0.14062 l 1.85156,-0.832031 c 0.0117,-0.02344 0.0352,-0.02344 0.0469,-0.02344 0.082,0 0.11719,0.128906 0.11719,0.480468 v 6.949219 c 0,0.75 -0.16407,0.914063 -0.9375,0.949219 l -0.79688,0.04687 v 0.4335937 c 2.20313,-0.046875 2.20313,-0.046875 2.35547,-0.046875 0.1875,0 0.50391,0 0.99609,0.011719 0.17578,0.011719 0.66797,0.011719 1.26563,0.035156 v -0.4335937 l -0.75,-0.04687 c -0.78516,-0.03516 -0.9375,-0.199219 -0.9375,-0.949219 v -8.496094 l -0.19922,-0.07031 c -0.92578,0.480469 -1.94531,0.914062 -3.25781,1.371094 z m 0,0"
         style="fill:#000000;fill-opacity:1;fill-rule:nonzero;stroke:none" />
      <path
         id="path136"
         d="m 267.088,-21.055914 h -2.05078 v 0.597656 h 1.45312 v 13.7578127 h -1.45312 v 0.5976562 h 2.05078 z m 0,0"
         style="fill:#000000;fill-opacity:1;fill-rule:nonzero;stroke:none" />
      <path
         id="path137"
         d="m 281.90343,-18.243414 c 0,-0.269531 0,-0.539063 -0.30469,-0.539063 -0.29297,0 -0.29297,0.269532 -0.29297,0.539063 v 5.414062 c 0,2.238282 -2.4375,2.71875 -3.5625,2.71875 -0.67968,0 -1.61718,-0.128906 -2.41406,-0.644531 -1.14844,-0.726562 -1.14844,-1.6875 -1.14844,-2.085937 v -5.402344 c 0,-0.269531 0,-0.539063 -0.29297,-0.539063 -0.30468,0 -0.30468,0.269532 -0.30468,0.539063 v 5.472656 c 0,2.273438 2.28515,3.2578127 4.16015,3.2578127 1.94532,0 4.16016,-1.0429687 4.16016,-3.2460937 z m 0,0"
         style="fill:#000000;fill-opacity:1;fill-rule:nonzero;stroke:none" />
      <path
         id="path138"
         d="m -116.60731,16.039789 v -0.597656 h -1.44141 V 1.6843203 h 1.44141 V 1.0866641 h -2.03906 V 16.039789 Z m 0,0"
         style="fill:#000000;fill-opacity:1;fill-rule:nonzero;stroke:none" />
      <path
         id="path139"
         d="m -115.12782,4.3444766 h 0.14062 l 1.85157,-0.8320313 c 0.0117,-0.023437 0.0352,-0.023437 0.0469,-0.023437 0.082,0 0.11719,0.1289063 0.11719,0.4804688 v 6.9492189 c 0,0.75 -0.16406,0.914063 -0.9375,0.949218 l -0.79688,0.04687 v 0.433593 c 2.20313,-0.04687 2.20313,-0.04687 2.35547,-0.04687 0.1875,0 0.50391,0 0.9961,0.01172 0.17578,0.01172 0.66797,0.01172 1.26562,0.03516 v -0.433594 l -0.75,-0.04687 c -0.78515,-0.03516 -0.9375,-0.199218 -0.9375,-0.949218 V 2.4226016 l -0.19922,-0.070312 c -0.92578,0.4804687 -1.94531,0.9140625 -3.25781,1.3710937 z m 9.14062,6.1875004 c -0.38671,0.128906 -0.64453,0.222656 -1.40625,0.433593 -0.10546,1.089844 -0.45703,2.027344 -1.28906,3.398438 l 0.19922,0.164062 0.58594,-0.28125 c 1.16015,-1.5 1.71094,-2.402343 2.10937,-3.503906 z m 0,0"
         style="fill:#000000;fill-opacity:1;fill-rule:nonzero;stroke:none" />
      <path
         id="path140"
         d="m -96.536023,7.8249453 c -1.21875,-1.6523437 -1.816407,-2.3085937 -3.011719,-2.3085937 -1.042968,0 -2.753908,0.9492187 -2.753908,3.2695312 0,1.7343752 1.35938,2.8007812 2.63672,2.8007812 0.925782,0 2.003907,-0.714844 2.871094,-2.2968749 1.230469,1.6289059 1.839844,2.2968749 3.023438,2.2968749 1.054687,0 2.789062,-0.949219 2.789062,-3.2695312 0,-1.734375 -1.394531,-2.8007812 -2.671875,-2.8007812 -0.925781,0 -1.992187,0.7265625 -2.882812,2.3085937 z m -0.503907,1.078125 c -0.679687,1.1484377 -1.535156,2.0039067 -2.332031,2.0039067 -0.515625,0 -2.109379,-0.07031 -2.109379,-2.1914067 0,-1.2304687 1.04297,-1.9453125 1.781254,-1.9453125 0.972656,0 1.441406,0.4804688 2.660156,2.1328125 z m 0.796875,-0.703125 c 0.679688,-1.1484375 1.535157,-2.0039062 2.332032,-2.0039062 0.515625,0 2.109375,0.070312 2.109375,2.1914062 0,1.2304688 -1.042969,1.9453127 -1.78125,1.9453127 -0.972657,0 -1.441407,-0.4804689 -2.660157,-2.1328127 z m 0,0"
         style="fill:#000000;fill-opacity:1;fill-rule:nonzero;stroke:none" />
      <path
         id="path141"
         d="m -85.839734,8.5632266 c 0,-1.171875 -0.164063,-2.9765625 -0.984375,-4.6640625 -0.902344,-1.8398438 -2.191407,-2.8125 -2.34375,-2.8125 -0.08203,0 -0.140625,0.058594 -0.140625,0.1523437 0,0.046875 0,0.070312 0.28125,0.3398438 1.464843,1.4765625 2.320312,3.8554687 2.320312,6.984375 0,2.5546874 -0.550781,5.1914064 -2.414062,7.0781254 -0.1875,0.175781 -0.1875,0.199218 -0.1875,0.246093 0,0.09375 0.05859,0.152344 0.140625,0.152344 0.152343,0 1.5,-1.019531 2.378906,-2.917969 0.761719,-1.640625 0.949219,-3.3046872 0.949219,-4.5585934 z m 0,0"
         style="fill:#000000;fill-opacity:1;fill-rule:nonzero;stroke:none" />
      <path
         id="path142"
         d="m -77.082898,10.531977 c -0.386719,0.128906 -0.644532,0.222656 -1.40625,0.433593 -0.105469,1.089844 -0.457032,2.027344 -1.289063,3.398438 l 0.199219,0.164062 0.585937,-0.28125 c 1.160157,-1.5 1.710938,-2.402343 2.109375,-3.503906 z m 8.487304,-7.4531254 c 0.04687,0.4921875 0.05859,0.8203125 0.05859,1.4296875 v 6.0703129 c 0,1.136718 -0.07031,1.253906 -0.726562,1.289062 l -0.691407,0.04687 v 0.433594 c 0.84375,-0.03516 1.347657,-0.04687 2.097657,-0.04687 0.738281,0 1.253906,0.01172 2.097656,0.04687 v -0.433594 l -0.679688,-0.04687 c -0.667968,-0.03516 -0.738281,-0.152344 -0.738281,-1.289062 V 4.5085391 c 0,-0.6445313 0.02344,-0.9609375 0.05859,-1.4296875 h 2.226562 c 0.398438,0 0.5625,0.1289062 0.574219,0.46875 l 0.05859,1.1367187 h 0.445312 c 0,-0.9375 0.02344,-1.4882812 0.09375,-2.3085937 -1.03125,0.011719 -1.5,0.011719 -1.910156,0.023437 -0.550781,0.023437 -0.972656,0.023437 -1.183594,0.023437 h -2.261718 c -0.152344,0 -0.925782,-0.023437 -1.945313,-0.035156 l -0.972656,-0.011719 c 0.07031,0.8203125 0.105469,1.3710937 0.105469,2.3085937 h 0.445312 l 0.04687,-1.1367187 c 0.02344,-0.3398438 0.175781,-0.46875 0.574219,-0.46875 z m 17.267578,3.6914062 h -7.230468 v 0.796875 h 7.230468 z m 0,2.7773438 h -7.230468 v 0.8085934 h 7.230468 z m 5.147461,2.4257814 v 0.375 c 2.671875,-0.04687 2.671875,-0.04687 3.199219,-0.04687 0.515625,0 0.515625,0 3.28125,0.04687 -0.03516,-0.304688 -0.03516,-0.445313 -0.03516,-0.644531 0,-0.1875 0,-0.339844 0.03516,-0.644532 -1.652344,0.07031 -2.308594,0.08203 -4.96875,0.140625 l 2.613281,-2.7656247 c 1.394532,-1.4882812 1.828125,-2.2734375 1.828125,-3.3515625 0,-1.640625 -1.125,-2.6601562 -2.941406,-2.6601562 -1.042969,0 -1.734375,0.28125 -2.4375,0.9960937 l -0.246094,1.9570313 h 0.410157 l 0.1875,-0.65625 c 0.234375,-0.8320313 0.75,-1.1953125 1.710937,-1.1953125 1.230469,0 2.015625,0.7734375 2.015625,1.9921875 0,1.078125 -0.597656,2.1328125 -2.214844,3.8554687 z m 0,0"
         style="fill:#000000;fill-opacity:1;fill-rule:nonzero;stroke:none" />
      <path
         id="path143"
         d="m -37.681531,7.2390078 0.128906,-0.1054687 c 0.292969,-0.8554688 0.867188,-0.9023438 1.6875,-0.9023438 0.175781,0 0.433594,0.011719 0.726563,0.011719 -1.195313,3.28125 -1.746094,4.2656247 -2.90625,6.0820307 l 0.128906,0.128907 1.054687,-0.363282 c 0.527344,-1.125 1.394532,-3.304687 2.191407,-5.8242182 l 2.660156,0.09375 c -0.246094,0.890625 -1.078125,3.4921875 -1.078125,4.4062502 0,1.511718 0.550781,1.6875 0.996094,1.6875 0.726562,0 1.148437,-0.175782 2.050781,-0.9375 l -0.117188,-0.28125 -0.339843,0.246093 c 0.03516,-0.02344 -0.375,0.304688 -0.621094,0.304688 -0.667969,0 -0.878906,-0.421875 -0.878906,-1.300781 0,-0.363282 0.03516,-0.7500002 0.117187,-1.1718752 0.246094,-1.1835938 0.492188,-2.3671875 0.621094,-2.953125 0.328125,0 0.65625,-0.011719 0.984375,-0.058594 0.257812,0 0.574219,-0.140625 0.808594,-0.2226562 0.152343,-0.3046875 0.210937,-0.328125 0.480468,-0.6796875 l -0.09375,-0.1640625 c -0.386718,0.1289062 -1.03125,0.2695312 -1.511718,0.2695312 -0.164063,0.011719 -0.527344,0.023437 -0.890625,0.023437 -1.523438,-0.011719 -3.890625,-0.1289062 -4.523438,-0.1289062 -1.078125,0 -1.464844,0.4804687 -1.886719,1.7226562 z m 0,0"
         style="fill:#000000;fill-opacity:1;fill-rule:nonzero;stroke:none" />
    </g>
  </g>
</svg>
