<?xml version="1.0" encoding="UTF-8" standalone="no"?>
<!-- Created with Inkscape (http://www.inkscape.org/) -->

<svg
   version="1.1"
   id="svg1"
   width="323.4411"
   height="36.938358"
   viewBox="0 0 323.4411 36.938358"
   sodipodi:docname="domRantangente.svg"
   inkscape:export-batch-path="C:\Users\Akdemicos\Desktop\Akemicos\Akdemicos-Front\public"
   inkscape:export-batch-name="domtangente"
   xmlns:inkscape="http://www.inkscape.org/namespaces/inkscape"
   xmlns:sodipodi="http://sodipodi.sourceforge.net/DTD/sodipodi-0.dtd"
   xmlns="http://www.w3.org/2000/svg"
   xmlns:svg="http://www.w3.org/2000/svg">
  <defs
     id="defs1">
    <clipPath
       clipPathUnits="userSpaceOnUse"
       id="clipPath4">
      <rect
         style="fill:#000000;stroke:#000000;stroke-width:5.75099"
         id="rect4"
         width="323.4411"
         height="37.540188"
         x="133.83591"
         y="626.44055" />
    </clipPath>
  </defs>
  <sodipodi:namedview
     id="namedview1"
     pagecolor="#ffffff"
     bordercolor="#000000"
     borderopacity="0.25"
     inkscape:showpageshadow="2"
     inkscape:pageopacity="0.0"
     inkscape:pagecheckerboard="0"
     inkscape:deskcolor="#d1d1d1"
     showgrid="false">
    <inkscape:page
       x="0"
       y="0"
       width="323.4411"
       height="36.938358"
       id="page1"
       margin="0"
       bleed="0" />
  </sodipodi:namedview>
  <g
     id="g1"
     inkscape:groupmode="layer"
     inkscape:label="1"
     clip-path="url(#clipPath4)"
     transform="translate(-133.83591,-626.44055)">
    <g
       id="g37"
       aria-label="x&#10;Dominio={R−{&#10;π"
       transform="matrix(1.3333333,0,0,1.3333333,269.11867,581.22267)">
      <path
         id="path38"
         d="m 0.30357813,-1.2656328 c 0,0.29296874 -0.0351563,0.48046874 -0.1171875,0.93749999 -0.0351563,0.17578125 -0.046875,0.2109375 -0.0585938,0.31640625 0.2109375,0.1171875 0.4453125,0.1640625 0.62109375,0.1640625 0.46874992,0 1.03125002,-0.41015625 1.47656252,-1.08984375 l 1.0898438,-1.67578129 0.1523437,0.9960938 c 0.1875,1.21874999 0.515625,1.76953124 1.03125,1.76953124 0.3164062,0 0.7734375,-0.234375 1.2421875,-0.65625 L 6.4442031,-1.1367266 6.3152969,-1.4062578 c -0.5273438,0.43359374 -0.8789063,0.64453124 -1.1132813,0.64453124 -0.2109375,0 -0.3984375,-0.140625 -0.5390625,-0.43359374 -0.1289062,-0.2695313 -0.2929687,-0.796875 -0.3632812,-1.21875 l -0.2578125,-1.4414063 0.5039062,-0.703125 c 0.6796875,-0.9375 1.0664063,-1.265625 1.5117188,-1.265625 0.2226562,0 0.3984375,0.1171875 0.46875,0.328125 l 0.1992187,-0.058594 0.2109375,-1.21875 c -0.1640625,-0.09375 -0.2929687,-0.140625 -0.421875,-0.140625 -0.5742187,0 -1.1484375,0.515625 -2.0390625,1.8398437 l -0.5273437,0.7851563 -0.09375,-0.6914063 c -0.1640625,-1.4179687 -0.5507813,-1.9335937 -1.40625,-1.9335937 -0.375,0 -0.6796875,0.1171875 -0.8085938,0.3046875 l -0.83203122,1.1835937 0.23437502,0.1523438 c 0.4335937,-0.4921875 0.7265625,-0.6914063 0.9960937,-0.6914063 0.46875,0 0.7851563,0.5859375 1.03125,1.9921875 l 0.1523438,0.890625 -0.5742188,0.890625 c -0.609375,0.9609375 -1.1015625,1.41796879 -1.5,1.41796879 -0.21093747,0 -0.37499997,-0.0585938 -0.39843747,-0.12890625 L 0.58482813,-1.3007891 Z m 0,0"
         style="fill:#000000;fill-opacity:1;fill-rule:nonzero;stroke:none" />
      <path
         id="path39"
         d="m -102.67201,51.445305 v 0.328125 c 1.66406,-0.04687 1.66406,-0.04687 1.99219,-0.04687 0.25781,0 0.49219,0 0.75,0.01172 1.125,0.03516 1.125,0.03516 1.324218,0.03516 1.839844,0 3.222657,-0.480469 4.21875,-1.464844 1.03125,-1.019531 1.664063,-2.566406 1.664063,-4.101563 0,-2.671875 -1.980469,-4.40625 -5.003906,-4.40625 -0.105469,0 -0.28125,0 -0.539063,0.01172 -0.726562,0.01172 -1.335937,0.03516 -1.957032,0.03516 -0.52734,0 -1.32422,-0.02344 -2.95312,-0.04687 v 0.433594 l 0.57421,0.03516 c 0.65625,0.04687 0.72657,0.175782 0.72657,1.300782 v 6.796875 c 0,0.410156 -0.12891,0.726562 -0.35157,0.84375 z m 2.16797,-8.953125 c 0.36328,-0.07031 0.867188,-0.117188 1.582032,-0.117188 1.054688,0 2.203125,0.1875 2.800781,0.457031 0.316407,0.128907 0.585938,0.328125 0.84375,0.585938 0.691407,0.691406 1.019532,1.722656 1.019532,3.164062 0,1.605469 -0.480469,2.835938 -1.429688,3.609375 -0.867187,0.703125 -1.722656,0.949219 -3.339844,0.949219 -0.667968,0 -1.113283,-0.03516 -1.476563,-0.117187 z m 12.111329,2.507812 c -2.085937,0 -3.539062,1.476563 -3.539062,3.609375 0,2.027344 1.277343,3.398438 3.128906,3.398438 2.203125,0 3.785156,-1.523438 3.785156,-3.679688 0,-1.933594 -1.40625,-3.328125 -3.375,-3.328125 z m -0.257812,0.46875 c 1.324218,0 2.296875,1.441406 2.296875,3.386719 0,1.652344 -0.726563,2.683594 -1.886719,2.683594 -1.40625,0 -2.355469,-1.371094 -2.355469,-3.410157 0,-1.722656 0.691406,-2.660156 1.945313,-2.660156 z m 4.353515,0.515625 h 0.527344 c 0.574219,0 0.632812,0.105469 0.632812,1.054688 v 3.222656 c 0,0.902344 -0.03516,1.007812 -0.527343,1.03125 l -0.65625,0.04687 v 0.433594 c 1.371093,-0.04687 1.417968,-0.04687 1.816406,-0.04687 0.398437,0 0.773437,0.01172 1.710937,0.04687 v -0.433594 l -0.609375,-0.04687 c -0.480468,-0.02344 -0.527343,-0.128906 -0.527343,-1.03125 v -3.035156 c 0,-0.644532 0.949218,-1.347657 1.804687,-1.347657 0.773438,0 1.3125,0.726563 1.3125,1.816407 v 2.566406 c 0,0.902344 -0.04687,1.007812 -0.539062,1.03125 l -0.65625,0.04687 v 0.433594 c 1.429687,-0.04687 1.429687,-0.04687 1.792968,-0.04687 0.363282,0 0.363282,0 1.792969,0.04687 v -0.433594 l -0.65625,-0.04687 c -0.492187,-0.02344 -0.539062,-0.128906 -0.539062,-1.03125 v -3.035156 c 0,-0.644532 0.949218,-1.347657 1.816406,-1.347657 0.773437,0 1.300781,0.726563 1.300781,1.816407 v 4.078125 c 0.878906,-0.04687 0.890625,-0.04687 1.136719,-0.04687 0.1875,0 0.1875,0 1.277344,0.04687 v -0.433594 l -0.679688,-0.04687 c -0.480469,-0.02344 -0.527344,-0.128906 -0.527344,-1.03125 v -2.953125 c 0,-1.417969 -0.832031,-2.308594 -2.15625,-2.308594 -0.503906,0 -0.914062,0.128906 -1.171875,0.363281 l -1.089843,0.972657 c -0.457032,-0.949219 -1.054688,-1.335938 -2.039063,-1.335938 -0.527344,0 -0.9375,0.128906 -1.195312,0.363281 l -0.984375,0.914063 v -1.21875 l -0.128907,-0.05859 c -0.726562,0.304688 -1.476562,0.503906 -2.238281,0.585938 z m 15.105469,-0.925781 -0.128906,-0.05859 c -0.726563,0.304688 -1.476563,0.503906 -2.238282,0.585938 v 0.398437 h 0.527344 c 0.574219,0 0.632813,0.105469 0.632813,1.054688 v 3.222656 c 0,0.902344 -0.03516,1.007812 -0.527344,1.03125 l -0.65625,0.04687 v 0.433594 c 1.429687,-0.04687 1.429687,-0.04687 1.792969,-0.04687 0.351562,0 0.351562,0 1.792968,0.04687 v -0.433594 l -0.667968,-0.04687 c -0.480469,-0.02344 -0.527344,-0.128906 -0.527344,-1.03125 z m -0.65625,-3.1875 c -0.433594,0 -0.808594,0.375 -0.808594,0.808594 0,0.410156 0.375,0.785156 0.796875,0.785156 0.410156,0 0.796875,-0.375 0.796875,-0.785156 0,-0.410157 -0.386719,-0.808594 -0.785156,-0.808594 z m 8.018555,9.902344 c 0.878906,-0.04687 0.890625,-0.04687 1.136718,-0.04687 0.199219,0 0.199219,0 1.183594,0.04687 v -0.433594 l -0.585937,-0.04687 c -0.492188,-0.02344 -0.527344,-0.117188 -0.527344,-1.03125 v -2.765625 c 0,-1.675781 -0.796875,-2.496094 -2.402344,-2.496094 -0.527344,0 -0.832031,0.105469 -1.125,0.363281 l -1.089844,0.9375 v -1.242187 l -0.128906,-0.05859 c -0.738281,0.304688 -1.488281,0.503906 -2.238281,0.585938 v 0.398437 h 0.527344 c 0.574218,0 0.632812,0.105469 0.632812,1.054688 v 3.222656 c 0,0.902344 -0.04687,1.007812 -0.539062,1.03125 l -0.644532,0.04687 v 0.433594 c 0.984375,-0.03516 1.371094,-0.04687 1.78125,-0.04687 0.421875,0 0.808594,0.01172 1.78125,0.04687 V 51.33984 l -0.644531,-0.04687 c -0.492187,-0.02344 -0.527344,-0.128906 -0.527344,-1.03125 v -3.035156 c 0,-0.644532 0.9375,-1.347657 1.816407,-1.347657 0.960937,0 1.59375,0.714844 1.59375,1.816407 z m 5.162109,-6.714844 -0.128906,-0.05859 c -0.726563,0.304688 -1.476563,0.503906 -2.238281,0.585938 v 0.398437 h 0.527343 c 0.574219,0 0.632813,0.105469 0.632813,1.054688 v 3.222656 c 0,0.902344 -0.03516,1.007812 -0.527344,1.03125 l -0.65625,0.04687 v 0.433594 c 1.429688,-0.04687 1.429688,-0.04687 1.792969,-0.04687 0.351562,0 0.351562,0 1.792969,0.04687 v -0.433594 l -0.667969,-0.04687 c -0.480469,-0.02344 -0.527344,-0.128906 -0.527344,-1.03125 z m -0.65625,-3.1875 c -0.433594,0 -0.808594,0.375 -0.808594,0.808594 0,0.410156 0.375,0.785156 0.796875,0.785156 0.410157,0 0.796875,-0.375 0.796875,-0.785156 0,-0.410157 -0.386718,-0.808594 -0.785156,-0.808594 z m 6.131836,3.128906 c -2.085938,0 -3.539063,1.476563 -3.539063,3.609375 0,2.027344 1.277344,3.398438 3.128907,3.398438 2.203125,0 3.785156,-1.523438 3.785156,-3.679688 0,-1.933594 -1.40625,-3.328125 -3.375,-3.328125 z m -0.257813,0.46875 c 1.324219,0 2.296875,1.441406 2.296875,3.386719 0,1.652344 -0.726562,2.683594 -1.886718,2.683594 -1.40625,0 -2.355469,-1.371094 -2.355469,-3.410157 0,-1.722656 0.691406,-2.660156 1.945312,-2.660156 z m 12.049805,0.726563 h -7.230469 v 0.796875 h 7.230469 z m 0,2.777343 h -7.230469 v 0.808594 h 7.230469 z m 0,0"
         style="fill:#000000;fill-opacity:1;fill-rule:nonzero;stroke:none" />
      <path
         id="path40"
         d="m -34.252086,42.503898 c 0,-0.597656 0.386719,-1.558593 2.015625,-1.664062 0.08203,-0.01172 0.140625,-0.07031 0.140625,-0.164063 0,-0.164062 -0.117187,-0.164062 -0.28125,-0.164062 -1.5,0 -2.859375,0.761719 -2.871094,1.863281 v 3.410156 c 0,0.585938 0,1.066407 -0.597656,1.558594 -0.527344,0.433594 -1.101562,0.46875 -1.429687,0.480469 -0.07031,0.01172 -0.128907,0.07031 -0.128907,0.164062 0,0.152344 0.09375,0.152344 0.234375,0.164063 0.996094,0.05859 1.710938,0.597656 1.875,1.335937 0.04687,0.164063 0.04687,0.1875 0.04687,0.726563 v 2.964844 c 0,0.621093 0,1.101562 0.714844,1.675781 0.585938,0.445312 1.570313,0.609375 2.15625,0.609375 0.164063,0 0.28125,0 0.28125,-0.164063 0,-0.152343 -0.09375,-0.152343 -0.246094,-0.164062 -0.9375,-0.05859 -1.664062,-0.539063 -1.863281,-1.300781 -0.04687,-0.140625 -0.04687,-0.164063 -0.04687,-0.703125 V 49.99218 c 0,-0.691407 -0.117187,-0.9375 -0.597656,-1.417969 -0.316406,-0.316406 -0.75,-0.46875 -1.160156,-0.585938 1.21875,-0.339843 1.757812,-1.03125 1.757812,-1.898437 z m 0,0"
         style="fill:#000000;fill-opacity:1;fill-rule:nonzero;stroke:none" />
      <path
         id="path41"
         d="m -30.510875,42.234367 0.632813,0.03516 c 0.585937,0.04687 0.726562,0.164063 0.726562,1.300782 v 6.433593 c 0,1.136719 -0.140625,1.265625 -0.726562,1.289063 l -0.632813,0.04687 v 0.433594 c 0.84375,-0.03516 2.167969,-0.04687 2.90625,-0.04687 0.75,0 2.132813,0.01172 2.976563,0.04687 v -0.433594 l -0.691407,-0.04687 c -0.644531,-0.03516 -0.726562,-0.152344 -0.726562,-1.207031 v -7.570313 c 0.492187,-0.128906 0.914062,-0.164062 1.40625,-0.164062 1.488281,0 2.320312,0.679687 2.320312,1.898437 0,1.324219 -1.054687,2.15625 -2.71875,2.15625 -0.08203,0 -0.222656,0 -0.410156,-0.01172 l -0.08203,0.164063 c 0.152344,0.1875 0.199219,0.246094 0.363281,0.433594 0.210938,0.234375 0.246094,0.292968 0.375,0.457031 l 2.648438,3.550781 c 0.08203,0.105469 0.164062,0.222656 0.257812,0.328125 l 0.328125,0.445313 c 0.585938,-0.03516 0.796875,-0.04687 0.972656,-0.04687 0.152344,0 0.339844,0.01172 1.03125,0.04687 v -0.433594 c -0.457031,-0.04687 -0.691406,-0.128906 -0.878906,-0.375 l -3.246094,-4.242188 c 0.785157,-0.1875 1.136719,-0.351562 1.605469,-0.65625 0.785156,-0.550781 1.183594,-1.265625 1.183594,-2.109375 0,-1.394531 -0.984375,-2.15625 -2.8125,-2.15625 h -0.19922 c -0.28125,0.01172 -0.527344,0.01172 -0.726562,0.02344 -0.433594,0.02344 -0.972657,0.02344 -1.523438,0.02344 h -1.453125 c -0.738281,0 -2.0625,-0.02344 -2.90625,-0.04687 z m 3.09375,1.335938 v 6.433593 c 0,1.136719 -0.07031,1.253907 -0.527344,1.289063 -0.457031,-0.03516 -0.539062,-0.152344 -0.539062,-1.289063 v -6.433593 c 0,-1.136719 0.08203,-1.253907 0.539062,-1.300782 0.457032,0.03516 0.527344,0.164063 0.527344,1.300782 z m 0,0"
         style="fill:#000000;fill-opacity:1;fill-rule:nonzero;stroke:none" />
      <path
         id="path42"
         d="m -6.55775,48.292961 c 0.2578125,0 0.5273438,0 0.5273438,-0.304688 0,-0.304687 -0.2695313,-0.304687 -0.5273438,-0.304687 h -8.085937 c -0.257813,0 -0.527344,0 -0.527344,0.304687 0,0.304688 0.269531,0.304688 0.527344,0.304688 z m 8.9619141,-5.789063 c 0,-0.597656 0.3867187,-1.558593 2.015625,-1.664062 0.082031,-0.01172 0.140625,-0.07031 0.140625,-0.164063 0,-0.164062 -0.1171875,-0.164062 -0.28125,-0.164062 -1.5,0 -2.859375,0.761719 -2.8710938,1.863281 v 3.410156 c 0,0.585938 0,1.066407 -0.59765624,1.558594 -0.52734375,0.433594 -1.1015625,0.46875 -1.4296875,0.480469 -0.0703125,0.01172 -0.12890625,0.07031 -0.12890625,0.164062 0,0.152344 0.09375,0.152344 0.234375,0.164063 0.99609375,0.05859 1.71093749,0.597656 1.87499999,1.335937 0.046875,0.164063 0.046875,0.1875 0.046875,0.726563 v 2.964844 c 0,0.621093 0,1.101562 0.7148438,1.675781 0.5859375,0.445312 1.5703125,0.609375 2.15625,0.609375 0.1640625,0 0.28125,0 0.28125,-0.164063 0,-0.152343 -0.09375,-0.152343 -0.2460938,-0.164062 -0.9375,-0.05859 -1.6640625,-0.539063 -1.8632812,-1.300781 -0.046875,-0.140625 -0.046875,-0.164063 -0.046875,-0.703125 V 49.99218 c 0,-0.691407 -0.1171875,-0.9375 -0.5976563,-1.417969 -0.3164062,-0.316406 -0.75,-0.46875 -1.16015624,-0.585938 C 1.8651016,47.64843 2.4041641,46.957023 2.4041641,46.089836 Z m 0,0"
         style="fill:#000000;fill-opacity:1;fill-rule:nonzero;stroke:none" />
      <path
         id="path43"
         d="m 8.5916641,36.952141 0.1289062,-0.105469 c 0.2929688,-0.855469 0.8671875,-0.902344 1.6874997,-0.902344 0.175782,0 0.433594,0.01172 0.726563,0.01172 -1.1953127,3.28125 -1.7460939,4.265625 -2.9062502,6.082031 l 0.1289063,0.128906 1.0546875,-0.363281 c 0.5273437,-1.125 1.3945314,-3.304687 2.1914064,-5.824219 l 2.660156,0.09375 c -0.246094,0.890625 -1.078125,3.492188 -1.078125,4.40625 0,1.511719 0.550781,1.6875 0.996094,1.6875 0.726562,0 1.148437,-0.175781 2.050781,-0.9375 l -0.117187,-0.28125 -0.339844,0.246094 c 0.03516,-0.02344 -0.375,0.304688 -0.621094,0.304688 -0.667969,0 -0.878906,-0.421875 -0.878906,-1.300782 0,-0.363281 0.03516,-0.75 0.117187,-1.171875 0.246094,-1.183593 0.492188,-2.367187 0.621094,-2.953125 0.328125,0 0.65625,-0.01172 0.984375,-0.05859 0.257813,0 0.574219,-0.140625 0.808594,-0.222657 0.152344,-0.304687 0.210937,-0.328125 0.480469,-0.679687 l -0.09375,-0.164063 c -0.386719,0.128907 -1.03125,0.269532 -1.511719,0.269532 -0.164063,0.01172 -0.527344,0.02344 -0.890625,0.02344 -1.523438,-0.01172 -3.890625,-0.128906 -4.523438,-0.128906 -1.0781247,0 -1.4648434,0.480469 -1.8867184,1.722656 z m 0,0"
         style="fill:#000000;fill-opacity:1;fill-rule:nonzero;stroke:none" />
    </g>
    <path
       id="path44"
       d="M 0,0 H 10.444"
       style="fill:none;stroke:#000000;stroke-width:0.574;stroke-linecap:butt;stroke-linejoin:miter;stroke-miterlimit:10;stroke-dasharray:none;stroke-opacity:1"
       transform="matrix(1.3333333,0,0,-1.3333333,278.492,645.41067)" />
    <g
       id="g44"
       aria-label="2&#10;+nπ},conn∈Z},Rango=R,Periodo=π"
       transform="matrix(1.3333333,0,0,1.3333333,280.67333,663.31467)">
      <path
         id="path45"
         d="m 0.23328125,-0.32682031 v 0.375 C 2.9051563,0.00130469 2.9051563,0.00130469 3.4325,0.00130469 c 0.515625,0 0.515625,0 3.28125,0.046875 -0.035156,-0.3046875 -0.035156,-0.4453125 -0.035156,-0.64453125 0,-0.1875 0,-0.33984375 0.035156,-0.64453124 -1.6523437,0.070312 -2.3085937,0.082031 -4.96875,0.140625 l 2.6132813,-2.765625 c 1.3945312,-1.4882813 1.828125,-2.2734375 1.828125,-3.3515625 0,-1.640625 -1.125,-2.6601563 -2.9414063,-2.6601563 -1.0429687,0 -1.734375,0.28125 -2.4375,0.9960938 L 0.56140625,-6.9244766 H 0.9715625 l 0.1875,-0.65625 c 0.234375,-0.8320312 0.75,-1.1953125 1.7109375,-1.1953125 1.2304688,0 2.015625,0.7734375 2.015625,1.9921875 0,1.078125 -0.5976562,2.1328125 -2.2148437,3.8554688 z m 0,0"
         style="fill:#000000;fill-opacity:1;fill-rule:nonzero;stroke:none" />
      <path
         id="path46"
         d="m 18.915898,-13.276039 h 4.171875 c 0.210938,0 0.492188,0 0.492188,-0.304688 0,-0.304687 -0.28125,-0.304687 -0.492188,-0.304687 h -4.171875 v -4.183594 c 0,-0.210937 0,-0.492187 -0.304687,-0.492187 -0.292969,0 -0.292969,0.28125 -0.292969,0.492187 v 4.183594 h -4.183594 c -0.210937,0 -0.503906,0 -0.503906,0.304687 0,0.304688 0.292969,0.304688 0.503906,0.304688 h 4.183594 v 4.1835937 c 0,0.2109375 0,0.4921875 0.292969,0.4921875 0.304687,0 0.304687,-0.28125 0.304687,-0.4921875 z m 0,0"
         style="fill:#000000;fill-opacity:1;fill-rule:nonzero;stroke:none" />
      <path
         id="path47"
         d="m 27.734258,-15.408852 0.105469,0.292969 0.457031,-0.304687 c 0.527344,-0.328125 0.574219,-0.363282 0.679687,-0.363282 0.152344,0 0.257813,0.152344 0.257813,0.363282 0,0.726562 -0.597656,3.503906 -1.183594,5.5546872 l 0.105469,0.1523437 c 0.351562,-0.1054687 0.691406,-0.1875 1.007812,-0.2460937 0.269532,-1.8046872 0.574219,-2.7421872 1.230469,-3.7265622 0.773438,-1.207032 1.851563,-2.097657 2.496094,-2.097657 0.152344,0 0.246094,0.128907 0.246094,0.351563 0,0.257812 -0.04687,0.550781 -0.164063,1.019531 l -0.75,3.035156 c -0.128906,0.527344 -0.175781,0.855469 -0.175781,1.089844 0,0.3632814 0.152344,0.5742189 0.421875,0.5742189 0.375,0 0.890625,-0.3046879 2.296875,-1.3476559 l -0.140625,-0.257813 -0.375,0.246094 c -0.410156,0.269531 -0.726563,0.421875 -0.878906,0.421875 -0.09375,0 -0.1875,-0.128906 -0.1875,-0.28125 0,-0.07031 0.02344,-0.234375 0.03516,-0.292969 l 0.949219,-3.949219 c 0.09375,-0.421875 0.152343,-0.820312 0.152343,-1.066406 0,-0.328125 -0.152343,-0.515625 -0.445312,-0.515625 -0.597656,0 -1.59375,0.550781 -2.4375,1.335938 -0.539063,0.503906 -0.949219,0.984375 -1.6875,2.039062 l 0.539062,-2.308594 c 0.05859,-0.257812 0.09375,-0.433593 0.09375,-0.597656 0,-0.292969 -0.117187,-0.46875 -0.339843,-0.46875 -0.292969,0 -0.855469,0.316406 -1.898438,1.066406 z m 0,0"
         style="fill:#000000;fill-opacity:1;fill-rule:nonzero;stroke:none" />
      <path
         id="path48"
         d="m 37.112188,-14.904945 0.128906,-0.105469 c 0.292969,-0.855469 0.867187,-0.902344 1.6875,-0.902344 0.175781,0 0.433594,0.01172 0.726562,0.01172 -1.195312,3.28125 -1.746093,4.265625 -2.90625,6.0820312 l 0.128907,0.1289062 1.054687,-0.3632814 c 0.527344,-1.125 1.394531,-3.304687 2.191406,-5.824219 l 2.660157,0.09375 c -0.246094,0.890625 -1.078125,3.492188 -1.078125,4.40625 0,1.5117192 0.550781,1.6875004 0.996093,1.6875004 0.726563,0 1.148438,-0.1757812 2.050782,-0.9375004 l -0.117188,-0.28125 -0.339844,0.246094 c 0.03516,-0.02344 -0.375,0.304688 -0.621093,0.304688 -0.667969,0 -0.878907,-0.421875 -0.878907,-1.300782 0,-0.363281 0.03516,-0.75 0.117188,-1.171875 0.246094,-1.183593 0.492187,-2.367187 0.621094,-2.953125 0.328125,0 0.65625,-0.01172 0.984375,-0.05859 0.257812,0 0.574218,-0.140625 0.808593,-0.222657 0.152344,-0.304687 0.210938,-0.328125 0.480469,-0.679687 l -0.09375,-0.164063 c -0.386719,0.128907 -1.03125,0.269532 -1.511719,0.269532 -0.164062,0.01172 -0.527343,0.02344 -0.890625,0.02344 -1.523437,-0.01172 -3.890625,-0.128906 -4.523437,-0.128906 -1.078125,0 -1.464844,0.480469 -1.886719,1.722656 z m 0,0"
         style="fill:#000000;fill-opacity:1;fill-rule:nonzero;stroke:none" />
      <path
         id="path49"
         d="m 49.405156,-8.0963516 c 0,0.5976563 -0.398437,1.5585938 -2.027343,1.6640625 -0.07031,0.011719 -0.128907,0.070312 -0.128907,0.1640625 0,0.1640625 0.164063,0.1640625 0.292969,0.1640625 1.453125,0 2.847656,-0.7382812 2.859375,-1.8632812 v -3.4101567 c 0,-0.585937 0,-1.066406 0.597656,-1.558593 0.527344,-0.433594 1.089844,-0.46875 1.417969,-0.480469 0.08203,-0.01172 0.140625,-0.07031 0.140625,-0.164063 0,-0.152343 -0.09375,-0.152343 -0.246094,-0.164062 -0.984375,-0.05859 -1.699218,-0.597656 -1.863281,-1.335938 -0.04687,-0.164062 -0.04687,-0.1875 -0.04687,-0.726562 v -2.964844 c 0,-0.621094 0,-1.101562 -0.714844,-1.675781 -0.597656,-0.457031 -1.628906,-0.609375 -2.144531,-0.609375 -0.128906,0 -0.292969,0 -0.292969,0.164062 0,0.152344 0.09375,0.152344 0.234375,0.164063 0.949219,0.05859 1.675782,0.539062 1.875,1.300781 0.04687,0.140625 0.04687,0.164063 0.04687,0.703125 v 3.140625 c 0,0.691406 0.117188,0.9375 0.597657,1.417969 0.304687,0.316406 0.738281,0.46875 1.160156,0.585937 -1.21875,0.339844 -1.757813,1.03125 -1.757813,1.898438 z m 0,0"
         style="fill:#000000;fill-opacity:1;fill-rule:nonzero;stroke:none" />
      <path
         id="path50"
         d="m 56.755742,-11.611977 c -0.386719,0.128907 -0.644531,0.222657 -1.40625,0.433594 -0.105469,1.089844 -0.457031,2.0273439 -1.289062,3.3984377 l 0.199218,0.1640625 0.585938,-0.28125 c 1.160156,-1.5 1.710937,-2.4023442 2.109375,-3.5039062 z m 10.333008,-2.695312 c 0,-0.65625 0.07031,-1.242188 0.210938,-1.757813 -0.574219,-0.351562 -1.078125,-0.503906 -1.664063,-0.503906 -0.691406,0 -1.5,0.269531 -2.355469,0.820313 -1.007812,0.632812 -1.535156,1.628906 -1.535156,2.894531 0,1.933594 1.359375,3.2929687 3.28125,3.2929687 0.75,0 1.828125,-0.2695313 1.96875,-0.4804687 l 0.304688,-0.457031 -0.152344,-0.222657 c -0.527344,0.292969 -0.984375,0.421875 -1.5,0.421875 -1.59375,0 -2.636719,-1.230468 -2.636719,-3.128906 0,-1.535156 0.714844,-2.390625 2.003906,-2.390625 0.632813,0 1.324219,0.28125 1.582032,0.644531 l 0.09375,0.867188 z m 4.649414,-2.261719 c -2.085937,0 -3.539062,1.476563 -3.539062,3.609375 0,2.027344 1.277343,3.3984377 3.128906,3.3984377 2.203125,0 3.785156,-1.5234377 3.785156,-3.6796877 0,-1.933594 -1.40625,-3.328125 -3.375,-3.328125 z m -0.257812,0.46875 c 1.324218,0 2.296875,1.441406 2.296875,3.386719 0,1.652344 -0.726563,2.683594 -1.886719,2.683594 -1.40625,0 -2.355469,-1.371094 -2.355469,-3.410157 0,-1.722656 0.691406,-2.660156 1.945313,-2.660156 z m 9.975586,6.3046877 c 0.878906,-0.046875 0.890625,-0.046875 1.136718,-0.046875 0.199219,0 0.199219,0 1.183594,0.046875 v -0.4335937 l -0.585937,-0.04687 c -0.492188,-0.02344 -0.527344,-0.117188 -0.527344,-1.03125 v -2.765625 c 0,-1.675781 -0.796875,-2.496094 -2.402344,-2.496094 -0.527344,0 -0.832031,0.105469 -1.125,0.363281 l -1.089844,0.9375 v -1.242187 l -0.128906,-0.05859 c -0.738281,0.304688 -1.488281,0.503906 -2.238281,0.585938 v 0.398437 h 0.527344 c 0.574218,0 0.632812,0.105469 0.632812,1.054688 v 3.222656 c 0,0.902344 -0.04687,1.007812 -0.539062,1.03125 l -0.644532,0.04687 v 0.4335937 c 0.984375,-0.035156 1.371094,-0.046875 1.78125,-0.046875 0.421875,0 0.808594,0.011719 1.78125,0.046875 V -10.22916 l -0.644531,-0.04687 c -0.492187,-0.02344 -0.527344,-0.128906 -0.527344,-1.03125 v -3.035156 c 0,-0.644532 0.9375,-1.347657 1.816407,-1.347657 0.960937,0 1.59375,0.714844 1.59375,1.816407 z m 0,0"
         style="fill:#000000;fill-opacity:1;fill-rule:nonzero;stroke:none" />
      <path
         id="path51"
         d="m 88.393438,-15.408852 0.105468,0.292969 0.457032,-0.304687 c 0.527343,-0.328125 0.574218,-0.363282 0.679687,-0.363282 0.152344,0 0.257813,0.152344 0.257813,0.363282 0,0.726562 -0.597657,3.503906 -1.183594,5.5546872 l 0.105469,0.1523437 c 0.351562,-0.1054687 0.691406,-0.1875 1.007812,-0.2460937 0.269531,-1.8046872 0.574219,-2.7421872 1.230469,-3.7265622 0.773437,-1.207032 1.851562,-2.097657 2.496094,-2.097657 0.152343,0 0.246093,0.128907 0.246093,0.351563 0,0.257812 -0.04687,0.550781 -0.164062,1.019531 l -0.75,3.035156 c -0.128906,0.527344 -0.175781,0.855469 -0.175781,1.089844 0,0.3632814 0.152343,0.5742189 0.421875,0.5742189 0.375,0 0.890625,-0.3046879 2.296875,-1.3476559 l -0.140625,-0.257813 -0.375,0.246094 c -0.410157,0.269531 -0.726563,0.421875 -0.878907,0.421875 -0.09375,0 -0.1875,-0.128906 -0.1875,-0.28125 0,-0.07031 0.02344,-0.234375 0.03516,-0.292969 l 0.949218,-3.949219 c 0.09375,-0.421875 0.152344,-0.820312 0.152344,-1.066406 0,-0.328125 -0.152344,-0.515625 -0.445312,-0.515625 -0.597657,0 -1.59375,0.550781 -2.4375,1.335938 -0.539063,0.503906 -0.949219,0.984375 -1.6875,2.039062 l 0.539062,-2.308594 c 0.05859,-0.257812 0.09375,-0.433593 0.09375,-0.597656 0,-0.292969 -0.117187,-0.46875 -0.339844,-0.46875 -0.292968,0 -0.855468,0.316406 -1.898437,1.066406 z m 0,0"
         style="fill:#000000;fill-opacity:1;fill-rule:nonzero;stroke:none" />
      <path
         id="path52"
         d="m 108.56434,-13.276039 c 0.25781,0 0.52734,0 0.52734,-0.304688 0,-0.304687 -0.26953,-0.304687 -0.52734,-0.304687 h -6.33985 c 0.1875,-2.003906 1.89844,-3.433594 4.00781,-3.433594 h 2.33204 c 0.25781,0 0.52734,0 0.52734,-0.304687 0,-0.292969 -0.26953,-0.292969 -0.52734,-0.292969 h -2.35547 c -2.56641,0 -4.59375,1.945312 -4.59375,4.335937 0,2.390625 2.02734,4.3359379 4.59375,4.3359379 h 2.35547 c 0.25781,0 0.52734,0 0.52734,-0.2929687 0,-0.3046875 -0.26953,-0.3046875 -0.52734,-0.3046875 h -2.33204 c -2.10937,0 -3.82031,-1.4296877 -4.00781,-3.4335937 z m 0,0"
         style="fill:#000000;fill-opacity:1;fill-rule:nonzero;stroke:none" />
      <path
         id="path53"
         d="m 125.11121,-12.32682 -0.0937,0.820312 c -0.0937,0.949219 -0.29297,1.03125 -2.49609,1.03125 h -3.91407 l 6.97266,-8.882812 -0.0586,-0.410157 c -0.55078,0 -1.91016,0.04687 -2.57813,0.04687 h -2.26172 c -0.86718,0 -1.79297,-0.02344 -2.67187,-0.03516 -0.45703,-0.01172 -1.32422,-0.01172 -2.36719,-0.01172 0.0234,0.527344 0.0469,0.785157 0.0469,1.160157 0,0.375 -0.0234,0.632812 -0.0469,1.160156 h 0.49219 l 0.082,-1.019531 c 0.0469,-0.550782 0.43359,-0.667969 2.17969,-0.667969 h 3.26953 c -0.17578,0.28125 -0.31641,0.503906 -0.49219,0.738281 -0.25781,0.316406 -0.49219,0.632813 -0.73828,0.949219 l -4.33594,5.566406 c -0.19922,0.257813 -0.46875,0.585938 -1.39453,1.675781 v 0.4101567 c 0.5625,0 2.21484,-0.046875 2.88281,-0.046875 h 2.88282 c 0.86718,0 1.79296,0.011719 2.67187,0.023437 0.45703,0.023437 1.32422,0.023437 2.36719,0.023437 0,-1.2421877 0.0117,-1.7578127 0.082,-2.5312497 z m -2.28516,-5.460938 -5.23828,6.585938 c -0.26953,0.398437 -0.41015,0.585937 -0.60937,0.726562 h -0.55078 c -0.14063,-0.128906 -0.21094,-0.246094 -0.21094,-0.375 0,-0.199219 0.15234,-0.445312 0.57422,-0.984375 l 5.1914,-6.609375 c 0.26954,-0.351562 0.45704,-0.5625 0.59766,-0.691406 h 0.62109 c 0.14063,0.128906 0.21094,0.222656 0.21094,0.351562 0,0.210938 -0.16406,0.46875 -0.58594,0.996094 z m 0,0"
         style="fill:#000000;fill-opacity:1;fill-rule:nonzero;stroke:none" />
      <path
         id="path54"
         d="m 129.78699,-8.0963516 c 0,0.5976563 -0.39844,1.5585938 -2.02734,1.6640625 -0.0703,0.011719 -0.12891,0.070312 -0.12891,0.1640625 0,0.1640625 0.16406,0.1640625 0.29297,0.1640625 1.45313,0 2.84766,-0.7382812 2.85938,-1.8632812 v -3.4101567 c 0,-0.585937 0,-1.066406 0.59765,-1.558593 0.52735,-0.433594 1.08985,-0.46875 1.41797,-0.480469 0.082,-0.01172 0.14063,-0.07031 0.14063,-0.164063 0,-0.152343 -0.0937,-0.152343 -0.2461,-0.164062 -0.98437,-0.05859 -1.69922,-0.597656 -1.86328,-1.335938 -0.0469,-0.164062 -0.0469,-0.1875 -0.0469,-0.726562 v -2.964844 c 0,-0.621094 0,-1.101562 -0.71485,-1.675781 -0.59765,-0.457031 -1.6289,-0.609375 -2.14453,-0.609375 -0.12891,0 -0.29297,0 -0.29297,0.164062 0,0.152344 0.0937,0.152344 0.23438,0.164063 0.94922,0.05859 1.67578,0.539062 1.875,1.300781 0.0469,0.140625 0.0469,0.164063 0.0469,0.703125 v 3.140625 c 0,0.691406 0.11719,0.9375 0.59766,1.417969 0.30469,0.316406 0.73828,0.46875 1.16015,0.585937 -1.21875,0.339844 -1.75781,1.03125 -1.75781,1.898438 z m 0,0"
         style="fill:#000000;fill-opacity:1;fill-rule:nonzero;stroke:none" />
      <path
         id="path55"
         d="m 137.13465,-11.611977 c -0.38672,0.128907 -0.64453,0.222657 -1.40625,0.433594 -0.10547,1.089844 -0.45703,2.0273439 -1.28906,3.3984377 l 0.19921,0.1640625 0.58594,-0.28125 c 1.16016,-1.5 1.71094,-2.4023442 2.10938,-3.5039062 z m 7.71094,-7.441406 c 0.49218,-0.117187 0.92578,-0.164062 1.40625,-0.164062 1.5,0 2.33203,0.679687 2.33203,1.898437 0,1.324219 -1.05469,2.15625 -2.71875,2.15625 -0.0937,0 -0.22266,0 -0.41016,-0.01172 l -0.0937,0.164063 c 0.16406,0.1875 0.21094,0.246094 0.375,0.433594 0.19922,0.234375 0.24609,0.292968 0.375,0.457031 l 2.63672,3.550781 c 0.0937,0.105469 0.17578,0.222656 0.25781,0.328125 0.10547,0.128906 0.1875,0.2578127 0.32813,0.4453127 0.67968,-0.046875 0.82031,-0.046875 0.98437,-0.046875 0.12891,0 0.12891,0 1.03125,0.046875 v -0.4335937 c -0.45703,-0.04687 -0.6914,-0.128906 -0.8789,-0.375 l -3.25782,-4.242188 c 0.8086,-0.199218 1.1836,-0.363281 1.65235,-0.691406 0.75,-0.527344 1.14843,-1.242187 1.14843,-2.074219 0,-1.382812 -1.00781,-2.15625 -2.77734,-2.15625 h -0.23437 c -1.86329,0.04687 -1.86329,0.04687 -2.35547,0.04687 -0.46875,0 -0.46875,0 -2.48438,-0.04687 v 0.433594 l 0.59766,0.03516 c 0.65625,0.04687 0.72656,0.175782 0.72656,1.300782 v 6.433593 c 0,1.136719 -0.0703,1.253907 -0.72656,1.289063 l -0.69141,0.04687 v 0.4335937 c 0.84375,-0.035156 1.34766,-0.046875 2.09766,-0.046875 0.73828,0 1.2539,0.011719 2.10937,0.046875 v -0.4335937 l -0.6914,-0.04687 c -0.65625,-0.03516 -0.73828,-0.152344 -0.73828,-1.289063 z m 11.1416,8.039063 -0.082,1.2187497 c 0.9375,-0.046875 0.9375,-0.046875 1.125,-0.046875 0.0703,0 0.43359,0.011719 1.0664,0.046875 v -0.4335937 l -0.5625,-0.02344 c -0.35156,-0.02344 -0.41015,-0.140625 -0.41015,-0.832031 v -2.625 c 0,-2.097656 -0.59766,-2.859375 -2.26172,-2.859375 -0.6211,0 -1.1836,0.152344 -1.73438,0.492188 l -0.76172,0.457031 v 0.925781 l 0.375,0.105469 0.1875,-0.445313 c 0.30469,-0.679687 0.44532,-0.773437 1.10157,-0.773437 1.34765,0 1.91015,0.527344 1.95703,1.828125 l -1.42969,0.269531 c -1.94531,0.351563 -2.76562,1.03125 -2.76562,2.273438 0,1.125 0.67968,1.7695309 1.80468,1.7695309 0.25782,0 0.50391,-0.046875 0.60938,-0.1171875 z m 0,-0.609375 c -0.42188,0.585937 -1.32422,1.136718 -1.88672,1.136718 -0.57422,0 -1.07813,-0.527343 -1.07813,-1.148437 0,-0.527344 0.29297,-1.03125 0.72657,-1.300781 0.35156,-0.222657 1.14843,-0.421875 2.23828,-0.574219 z m 8.40527,1.8281247 c 0.87891,-0.046875 0.89063,-0.046875 1.13672,-0.046875 0.19922,0 0.19922,0 1.18359,0.046875 v -0.4335937 l -0.58593,-0.04687 c -0.49219,-0.02344 -0.52735,-0.117188 -0.52735,-1.03125 v -2.765625 c 0,-1.675781 -0.79687,-2.496094 -2.40234,-2.496094 -0.52735,0 -0.83203,0.105469 -1.125,0.363281 l -1.08985,0.9375 v -1.242187 l -0.1289,-0.05859 c -0.73828,0.304688 -1.48828,0.503906 -2.23828,0.585938 v 0.398437 h 0.52734 c 0.57422,0 0.63281,0.105469 0.63281,1.054688 v 3.222656 c 0,0.902344 -0.0469,1.007812 -0.53906,1.03125 l -0.64453,0.04687 v 0.4335937 c 0.98437,-0.035156 1.37109,-0.046875 1.78125,-0.046875 0.42187,0 0.80859,0.011719 1.78125,0.046875 V -10.22916 l -0.64453,-0.04687 c -0.49219,-0.02344 -0.52735,-0.128906 -0.52735,-1.03125 v -3.035156 c 0,-0.644532 0.9375,-1.347657 1.81641,-1.347657 0.96094,0 1.59375,0.714844 1.59375,1.816407 z m 9.9082,-5.4726567 0.36329,-0.585937 -0.0586,-0.175781 -2.03906,0.05859 c -0.52734,-0.421875 -1.04297,-0.597656 -1.74609,-0.597656 -0.63282,0 -1.35938,0.199219 -1.95704,0.539063 -0.79687,0.46875 -1.21875,1.171875 -1.21875,2.039062 0,1.066406 0.66797,1.792969 1.72266,1.910156 l -1.125,0.878907 c -0.15234,0.210937 -0.22266,0.398437 -0.22266,0.609375 0,0.410156 0.25782,0.6328122 0.94922,0.8320309 l -1.2539,0.6796875 c -0.19922,0.1171875 -0.39844,0.6445313 -0.39844,1.0898438 0,1.3007812 1.27734,2.203125 3.10547,2.203125 2.15625,0 3.86719,-1.359375 3.86719,-3.1054688 0,-1.03125 -0.69141,-1.7578124 -1.6875,-1.7578124 h -2.29688 c -0.75,0 -1.08984,-0.164063 -1.08984,-0.550781 0,-0.1875 0.11718,-0.351563 0.48047,-0.667969 0.0937,-0.07031 0.11718,-0.09375 0.17578,-0.152344 0.14062,0.01172 0.23437,0.02344 0.33984,0.02344 0.62109,0 1.38281,-0.269532 1.96875,-0.679688 0.64453,-0.480469 0.96094,-1.054687 0.96094,-1.816406 0,-0.28125 -0.0469,-0.46875 -0.15235,-0.773438 z m -3.99609,-0.808593 c 0.97266,0 1.62891,0.796875 1.62891,2.015625 0,0.9375 -0.59766,1.582031 -1.47657,1.582031 -0.96093,0 -1.60546,-0.75 -1.60546,-1.851563 0,-1.101562 0.52734,-1.746093 1.45312,-1.746093 z m 0.66797,6.4335934 c 1.62891,0 2.17969,0.328125 2.17969,1.265625 0,1.2304688 -1.125,2.1445313 -2.63672,2.1445313 -1.24219,0 -2.10938,-0.7265625 -2.10938,-1.7929688 0,-0.6445312 0.375,-1.2304687 0.94922,-1.4765625 0.23438,-0.1054687 0.63281,-0.140625 1.61719,-0.140625 z m 7.85742,-6.9257814 c -2.08594,0 -3.53906,1.476563 -3.53906,3.609375 0,2.027344 1.27734,3.3984377 3.1289,3.3984377 2.20313,0 3.78516,-1.5234377 3.78516,-3.6796877 0,-1.933594 -1.40625,-3.328125 -3.375,-3.328125 z m -0.25781,0.46875 c 1.32422,0 2.29687,1.441406 2.29687,3.386719 0,1.652344 -0.72656,2.683594 -1.88672,2.683594 -1.40625,0 -2.35546,-1.371094 -2.35546,-3.410157 0,-1.722656 0.6914,-2.660156 1.94531,-2.660156 z m 12.05273,0.726563 h -7.23047 v 0.796875 h 7.23047 z m 0,2.777343 h -7.23047 v 0.808594 h 7.23047 z m 0,0"
         style="fill:#000000;fill-opacity:1;fill-rule:nonzero;stroke:none" />
      <path
         id="path56"
         d="m 191.67371,-19.334633 0.63281,0.03516 c 0.58594,0.04687 0.72657,0.164063 0.72657,1.300782 v 6.433593 c 0,1.136719 -0.14063,1.265625 -0.72657,1.289063 l -0.63281,0.04687 v 0.4335937 c 0.84375,-0.035156 2.16797,-0.046875 2.90625,-0.046875 0.75,0 2.13281,0.011719 2.97656,0.046875 v -0.4335937 l -0.6914,-0.04687 c -0.64453,-0.03516 -0.72657,-0.152344 -0.72657,-1.207031 v -7.570313 c 0.49219,-0.128906 0.91407,-0.164062 1.40625,-0.164062 1.48829,0 2.32032,0.679687 2.32032,1.898437 0,1.324219 -1.05469,2.15625 -2.71875,2.15625 -0.082,0 -0.22266,0 -0.41016,-0.01172 l -0.082,0.164063 c 0.15234,0.1875 0.19922,0.246094 0.36328,0.433594 0.21094,0.234375 0.24609,0.292968 0.375,0.457031 l 2.64844,3.550781 c 0.082,0.105469 0.16406,0.222656 0.25781,0.328125 l 0.32813,0.4453127 c 0.58593,-0.035156 0.79687,-0.046875 0.97265,-0.046875 0.15235,0 0.33985,0.011719 1.03125,0.046875 v -0.4335937 c -0.45703,-0.04687 -0.6914,-0.128906 -0.8789,-0.375 l -3.2461,-4.242188 c 0.78516,-0.1875 1.13672,-0.351562 1.60547,-0.65625 0.78516,-0.550781 1.18359,-1.265625 1.18359,-2.109375 0,-1.394531 -0.98437,-2.15625 -2.8125,-2.15625 h -0.19921 c -0.28125,0.01172 -0.52735,0.01172 -0.72657,0.02344 -0.43359,0.02344 -0.97265,0.02344 -1.52343,0.02344 h -1.45313 c -0.73828,0 -2.0625,-0.02344 -2.90625,-0.04687 z m 3.09375,1.335938 v 6.433593 c 0,1.136719 -0.0703,1.253907 -0.52734,1.289063 -0.45703,-0.03516 -0.53907,-0.152344 -0.53907,-1.289063 v -6.433593 c 0,-1.136719 0.082,-1.253907 0.53907,-1.300782 0.45703,0.03516 0.52734,0.164063 0.52734,1.300782 z m 0,0"
         style="fill:#000000;fill-opacity:1;fill-rule:nonzero;stroke:none" />
      <path
         id="path57"
         d="m 209.86414,-11.611977 c -0.38672,0.128907 -0.64453,0.222657 -1.40625,0.433594 -0.10547,1.089844 -0.45703,2.0273439 -1.28906,3.3984377 l 0.19922,0.1640625 0.58593,-0.28125 c 1.16016,-1.5 1.71094,-2.4023442 2.10938,-3.5039062 z m 7.70801,-7.441406 c 0.5039,-0.117187 0.92578,-0.164062 1.40625,-0.164062 1.55859,0 2.39062,0.714843 2.39062,2.074218 0,1.289063 -0.8789,2.191407 -2.13281,2.191407 -0.29297,0 -0.51562,-0.02344 -0.89062,-0.140625 l 0.15234,0.515625 c 0.33984,0.07031 0.53906,0.08203 0.83203,0.08203 1.95703,0 3.46875,-1.324219 3.46875,-3.046875 0,-1.382813 -1.125,-2.226563 -2.94141,-2.226563 -0.0703,0 -0.21093,0 -0.39843,0.01172 -0.53907,0.01172 -1.62891,0.03516 -2.03907,0.03516 -0.3164,0 -0.3164,0 -2.61328,-0.04687 v 0.433594 l 0.64453,0.03516 c 0.64454,0.04687 0.76172,0.234375 0.76172,1.300782 v 6.433593 c 0,1.136719 -0.0703,1.253907 -0.72656,1.289063 l -0.69141,0.04687 v 0.4335937 c 0.84375,-0.035156 1.34766,-0.046875 2.09766,-0.046875 0.73828,0 1.25391,0.011719 2.10938,0.046875 v -0.4335937 l -0.69141,-0.04687 c -0.65625,-0.03516 -0.73828,-0.152344 -0.73828,-1.289063 z m 11.8418,8.203125 -0.1875,-0.140625 c -0.91407,0.550781 -1.25391,0.679688 -1.86329,0.679688 -0.9375,0 -1.71093,-0.421875 -2.10937,-1.125 -0.26953,-0.46875 -0.375,-0.878907 -0.39844,-1.710938 h 2.08594 c 0.99609,0 1.60547,-0.03516 2.60156,-0.199219 0.0117,-0.199218 0.0234,-0.328125 0.0234,-0.492187 0,-1.652344 -1.05469,-2.730469 -2.66016,-2.730469 -0.53906,0 -1.14843,0.1875 -1.73437,0.527344 -1.1836,0.679687 -1.65235,1.570312 -1.65235,3.058594 0,0.902343 0.21094,1.675781 0.59766,2.226562 0.57422,0.7617189 1.53516,1.1953127 2.61328,1.1953127 0.52735,0 1.06641,-0.1054688 1.65235,-0.3632813 0.38671,-0.1640624 0.6914,-0.3515624 0.73828,-0.4335934 z m -1.125,-2.824219 c -0.73829,0.03516 -1.08985,0.04687 -1.60547,0.04687 -0.65625,0 -1.03125,-0.01172 -1.80469,-0.08203 0,-0.679687 0.0586,-0.996094 0.24609,-1.371094 0.30469,-0.632812 0.91407,-1.019531 1.60547,-1.019531 0.46875,0 0.84375,0.1875 1.10156,0.574219 0.31641,0.480469 0.42188,0.890625 0.45704,1.851562 z m 2.05664,-1.910156 h 0.52734 c 0.57422,0 0.63281,0.105469 0.63281,1.054688 v 3.222656 c 0,0.902344 -0.0352,1.007812 -0.52734,1.03125 l -0.65625,0.04687 v 0.4335937 c 1.03125,-0.035156 1.40625,-0.046875 1.75781,-0.046875 0.29297,0 0.29297,0 2.05078,0.046875 v -0.4335937 l -0.73828,-0.04687 c -0.64453,-0.03516 -0.67969,-0.08203 -0.67969,-1.03125 v -2.460938 c 0,-0.867187 0.57422,-1.582031 1.27735,-1.582031 0.43359,0 0.72656,0.199219 0.96093,0.65625 h 0.30469 l 0.12891,-1.722656 c -0.16406,-0.09375 -0.42188,-0.152344 -0.67969,-0.152344 -0.42187,0 -0.89062,0.234375 -1.18359,0.585938 l -0.8086,0.949218 v -1.476562 l -0.1289,-0.05859 c -0.72657,0.304688 -1.47657,0.503906 -2.23828,0.585938 z m 8.0332,-0.925781 -0.12891,-0.05859 c -0.72656,0.304688 -1.47656,0.503906 -2.23828,0.585938 v 0.398437 h 0.52735 c 0.57421,0 0.63281,0.105469 0.63281,1.054688 v 3.222656 c 0,0.902344 -0.0352,1.007812 -0.52735,1.03125 l -0.65625,0.04687 v 0.4335937 c 1.42969,-0.046875 1.42969,-0.046875 1.79297,-0.046875 0.35157,0 0.35157,0 1.79297,0.046875 v -0.4335937 l -0.66797,-0.04687 c -0.48047,-0.02344 -0.52734,-0.128906 -0.52734,-1.03125 z m -0.65625,-3.1875 c -0.43359,0 -0.80859,0.375 -0.80859,0.808594 0,0.410156 0.375,0.785156 0.79687,0.785156 0.41016,0 0.79688,-0.375 0.79688,-0.785156 0,-0.410157 -0.38672,-0.808594 -0.78516,-0.808594 z m 6.13184,3.128906 c -2.08594,0 -3.53907,1.476563 -3.53907,3.609375 0,2.027344 1.27735,3.3984377 3.12891,3.3984377 2.20312,0 3.78516,-1.5234377 3.78516,-3.6796877 0,-1.933594 -1.40625,-3.328125 -3.375,-3.328125 z m -0.25782,0.46875 c 1.32422,0 2.29688,1.441406 2.29688,3.386719 0,1.652344 -0.72656,2.683594 -1.88672,2.683594 -1.40625,0 -2.35547,-1.371094 -2.35547,-3.410157 0,-1.722656 0.69141,-2.660156 1.94531,-2.660156 z m 9.99903,-0.01172 c -0.79688,-0.339843 -1.20704,-0.457031 -1.69922,-0.457031 -0.38672,0 -0.73828,0.08203 -1.08985,0.269531 l -1.26562,0.667969 c -0.82031,0.421875 -1.34766,1.476563 -1.34766,2.695313 0,1.148437 0.38672,2.085937 1.08985,2.660156 0.48046,0.4218749 1.16015,0.6093749 2.09765,0.6093749 0.28125,0 0.60938,-0.058594 0.67969,-0.1171875 l 1.59375,-1.3359374 -0.0703,1.3242187 c 0.70312,-0.035156 0.9375,-0.046875 1.10156,-0.046875 0.11719,0 0.31641,0 0.62109,0.011719 0.10547,0.011719 0.38672,0.011719 0.69141,0.035156 v -0.4335937 l -0.66797,-0.04687 c -0.48047,-0.02344 -0.52734,-0.128906 -0.52734,-1.03125 v -8.835938 l -0.12891,-0.117187 c -0.63281,0.246094 -1.10156,0.363281 -2.23828,0.539062 v 0.398438 h 0.80859 c 0.25782,0 0.35157,0.152344 0.35157,0.585937 z m 0,3.09375 c 0,0.9375 -0.0234,1.078125 -0.21094,1.40625 -0.39844,0.679688 -1.10156,1.125 -1.78125,1.125 -1.26563,0 -2.16797,-1.21875 -2.16797,-2.929687 0,-1.558594 0.77344,-2.484375 2.07422,-2.484375 0.53906,0 1.11328,0.1875 1.61719,0.539062 0.30468,0.199219 0.46875,0.386719 0.46875,0.503907 z m 6.85546,-3.550781 c -2.08593,0 -3.53906,1.476563 -3.53906,3.609375 0,2.027344 1.27735,3.3984377 3.12891,3.3984377 2.20312,0 3.78515,-1.5234377 3.78515,-3.6796877 0,-1.933594 -1.40625,-3.328125 -3.375,-3.328125 z m -0.25781,0.46875 c 1.32422,0 2.29688,1.441406 2.29688,3.386719 0,1.652344 -0.72657,2.683594 -1.88672,2.683594 -1.40625,0 -2.35547,-1.371094 -2.35547,-3.410157 0,-1.722656 0.69141,-2.660156 1.94531,-2.660156 z m 15.99903,0.726563 h -7.23047 v 0.796875 h 7.23047 z m 0,2.777343 h -7.23047 v 0.808594 h 7.23047 z m 0,0"
         style="fill:#000000;fill-opacity:1;fill-rule:nonzero;stroke:none" />
      <path
         id="path58"
         d="m 282.45301,-14.904945 0.1289,-0.105469 c 0.29297,-0.855469 0.86719,-0.902344 1.6875,-0.902344 0.17579,0 0.4336,0.01172 0.72657,0.01172 -1.19532,3.28125 -1.7461,4.265625 -2.90625,6.0820312 l 0.1289,0.1289062 1.05469,-0.3632814 c 0.52734,-1.125 1.39453,-3.304687 2.19141,-5.824219 l 2.66015,0.09375 c -0.24609,0.890625 -1.07812,3.492188 -1.07812,4.40625 0,1.5117192 0.55078,1.6875004 0.99609,1.6875004 0.72656,0 1.14844,-0.1757812 2.05078,-0.9375004 l -0.11718,-0.28125 -0.33985,0.246094 c 0.0352,-0.02344 -0.375,0.304688 -0.62109,0.304688 -0.66797,0 -0.87891,-0.421875 -0.87891,-1.300782 0,-0.363281 0.0352,-0.75 0.11719,-1.171875 0.24609,-1.183593 0.49219,-2.367187 0.62109,-2.953125 0.32813,0 0.65625,-0.01172 0.98438,-0.05859 0.25781,0 0.57422,-0.140625 0.80859,-0.222657 0.15235,-0.304687 0.21094,-0.328125 0.48047,-0.679687 l -0.0937,-0.164063 c -0.38672,0.128907 -1.03125,0.269532 -1.51172,0.269532 -0.16406,0.01172 -0.52734,0.02344 -0.89062,0.02344 -1.52344,-0.01172 -3.89063,-0.128906 -4.52344,-0.128906 -1.07813,0 -1.46484,0.480469 -1.88672,1.722656 z m 0,0"
         style="fill:#000000;fill-opacity:1;fill-rule:nonzero;stroke:none" />
    </g>
  </g>
</svg>
