<?xml version="1.0" encoding="UTF-8" standalone="no"?>
<!-- Created with Inkscape (http://www.inkscape.org/) -->

<svg
   version="1.1"
   id="svg1"
   width="260"
   height="24.761906"
   viewBox="0 0 260 24.761906"
   sodipodi:docname="writetex.pdf"
   inkscape:export-batch-path="..\Akemicos\Akdemicos-Front\public"
   inkscape:export-batch-name="DomTanHiperbolica"
   xmlns:inkscape="http://www.inkscape.org/namespaces/inkscape"
   xmlns:sodipodi="http://sodipodi.sourceforge.net/DTD/sodipodi-0.dtd"
   xmlns="http://www.w3.org/2000/svg"
   xmlns:svg="http://www.w3.org/2000/svg">
  <defs
     id="defs1">
    <clipPath
       clipPathUnits="userSpaceOnUse"
       id="clipPath243">
      <rect
         style="fill:#000000;stroke:#000000;stroke-width:1.00157;stroke-dasharray:none;stroke-opacity:1"
         id="rect244"
         width="260"
         height="24.761906"
         x="1015.2381"
         y="272.38095" />
    </clipPath>
  </defs>
  <sodipodi:namedview
     id="namedview1"
     pagecolor="#ffffff"
     bordercolor="#000000"
     borderopacity="0.25"
     inkscape:showpageshadow="2"
     inkscape:pageopacity="0.0"
     inkscape:pagecheckerboard="0"
     inkscape:deskcolor="#d1d1d1"
     showgrid="false">
    <inkscape:page
       x="0"
       y="0"
       width="260"
       height="24.761906"
       id="page1"
       margin="0"
       bleed="0" />
  </sodipodi:namedview>
  <g
     id="g78"
     inkscape:groupmode="layer"
     inkscape:label="2"
     clip-path="url(#clipPath243)"
     transform="translate(-1015.2381,-272.38095)">
    <g
       id="g107"
       aria-label="Domibio=R,Rango=(-1,1)&#10;Latangentehiperbolicaesunafunciónimpar&#10;tanh(−α)=−tanh(α)"
       transform="matrix(1.3333333,0,0,1.3333333,1016.0907,289.37867)">
      <path
         id="path108"
         d="m 0.81969531,-0.28107031 v 0.328125 C 2.4837578,1.796875e-4 2.4837578,1.796875e-4 2.8118828,1.796875e-4 c 0.2578125,0 0.4921875,0 0.75,0.0117187525 1.125,0.03515625 1.125,0.03515625 1.3242188,0.03515625 1.8398437,0 3.2226562,-0.48046875 4.21875,-1.46484379 1.0312504,-1.0195312 1.6640624,-2.5664062 1.6640624,-4.1015625 0,-2.671875 -1.9804687,-4.40625 -5.0039062,-4.40625 -0.1054687,0 -0.28125,0 -0.5390625,0.011719 -0.7265625,0.011719 -1.3359375,0.035156 -1.9570312,0.035156 -0.5273438,0 -1.3242188,-0.023437 -2.95312504,-0.046875 v 0.4335938 l 0.57421875,0.035156 c 0.65624999,0.046875 0.72656249,0.1757813 0.72656249,1.3007813 v 6.796875 c 0,0.41015624 -0.1289062,0.72656249 -0.3515625,0.84374999 z M 2.9876641,-9.2341953 c 0.3632812,-0.070312 0.8671875,-0.1171875 1.5820312,-0.1171875 1.0546875,0 2.203125,0.1875 2.8007813,0.4570312 0.3164062,0.1289063 0.5859375,0.328125 0.84375,0.5859375 0.6914062,0.6914063 1.0195312,1.7226563 1.0195312,3.1640625 0,1.6054688 -0.4804687,2.8359375 -1.4296875,3.609375 -0.8671875,0.70312504 -1.7226562,0.94921879 -3.3398437,0.94921879 -0.6679688,0 -1.1132813,-0.0351563 -1.4765625,-0.1171875 z m 12.1113279,2.5078125 c -2.085937,0 -3.539062,1.4765625 -3.539062,3.609375 0,2.0273437 1.277343,3.39843749 3.128906,3.39843749 2.203125,0 3.785156,-1.52343749 3.785156,-3.67968749 0,-1.9335938 -1.40625,-3.328125 -3.375,-3.328125 z m -0.257812,0.46875 c 1.324218,0 2.296875,1.4414062 2.296875,3.3867187 0,1.6523438 -0.726563,2.68359379 -1.886719,2.68359379 -1.40625,0 -2.355469,-1.37109379 -2.355469,-3.41015629 0,-1.7226562 0.691406,-2.6601562 1.945313,-2.6601562 z m 4.353515,0.515625 h 0.527344 c 0.574219,0 0.632813,0.1054687 0.632813,1.0546875 v 3.2226562 c 0,0.90234379 -0.03516,1.00781254 -0.527344,1.03125004 l -0.65625,0.046875 V 0.04705469 C 20.542352,1.796875e-4 20.589227,1.796875e-4 20.987664,1.796875e-4 c 0.398438,0 0.773438,0.0117187525 1.710938,0.0468750025 v -0.43359375 l -0.609375,-0.046875 c -0.480469,-0.0234375 -0.527344,-0.12890625 -0.527344,-1.03125004 v -3.0351562 c 0,-0.6445313 0.949219,-1.3476563 1.804687,-1.3476563 0.773438,0 1.3125,0.7265625 1.3125,1.8164063 v 2.5664062 c 0,0.90234379 -0.04687,1.00781254 -0.539062,1.03125004 l -0.65625,0.046875 V 0.04705469 C 24.913445,1.796875e-4 24.913445,1.796875e-4 25.276727,1.796875e-4 c 0.363281,0 0.363281,0 1.792968,0.0468750025 v -0.43359375 l -0.65625,-0.046875 c -0.492187,-0.0234375 -0.539062,-0.12890625 -0.539062,-1.03125004 v -3.0351562 c 0,-0.6445313 0.949219,-1.3476563 1.816406,-1.3476563 0.773438,0 1.300781,0.7265625 1.300781,1.8164063 V 0.04705469 C 29.870477,1.796875e-4 29.882195,1.796875e-4 30.128289,1.796875e-4 c 0.1875,0 0.1875,0 1.277344,0.0468750025 v -0.43359375 l -0.679688,-0.046875 c -0.480468,-0.0234375 -0.527343,-0.12890625 -0.527343,-1.03125004 v -2.953125 c 0,-1.4179687 -0.832032,-2.3085937 -2.15625,-2.3085937 -0.503907,0 -0.914063,0.1289062 -1.171875,0.3632812 l -1.089844,0.9726563 c -0.457031,-0.9492188 -1.054688,-1.3359375 -2.039063,-1.3359375 -0.527343,0 -0.9375,0.1289062 -1.195312,0.3632812 l -0.984375,0.9140625 v -1.21875 l -0.128906,-0.058594 c -0.726563,0.3046875 -1.476563,0.5039062 -2.238282,0.5859375 z m 15.105469,-0.9257813 -0.128906,-0.058594 c -0.726563,0.3046875 -1.476563,0.5039062 -2.238281,0.5859375 v 0.3984375 h 0.527343 c 0.574219,0 0.632813,0.1054687 0.632813,1.0546875 v 3.2226562 c 0,0.90234379 -0.03516,1.00781254 -0.527344,1.03125004 l -0.65625,0.046875 V 0.04705469 C 33.339227,1.796875e-4 33.339227,1.796875e-4 33.702508,1.796875e-4 c 0.351562,0 0.351562,0 1.792969,0.0468750025 v -0.43359375 l -0.667969,-0.046875 c -0.480469,-0.0234375 -0.527344,-0.12890625 -0.527344,-1.03125004 z m -0.65625,-3.1875 c -0.433594,0 -0.808594,0.375 -0.808594,0.8085938 0,0.4101562 0.375,0.7851562 0.796875,0.7851562 0.410157,0 0.796875,-0.375 0.796875,-0.7851562 0,-0.4101563 -0.386718,-0.8085938 -0.785156,-0.8085938 z M 37.935906,-10.300602 37.807,-10.417789 c -0.632812,0.246094 -1.113281,0.363281 -2.238281,0.5390624 v 0.3984375 h 0.796875 c 0.257812,0 0.363281,0.1523438 0.363281,0.5859375 v 6.703125 c 0,0.890625 -0.01172,1.27734379 -0.117187,2.27343754 l 0.234375,0.09375 0.574218,-0.515625 c 0.5625,0.36328125 1.089844,0.515625 1.839844,0.515625 0.5625,0 0.9375,-0.10546875 1.242188,-0.31640625 L 41.932,-1.1716953 c 0.632813,-0.46875 1.136719,-1.6523438 1.136719,-2.6953125 0,-1.6640625 -1.078125,-2.859375 -2.601563,-2.859375 -0.667968,0 -1.371093,0.2578125 -1.746093,0.6328125 l -0.785157,0.796875 z m 0,5.8828129 c 0,-0.1992187 0.140625,-0.4570312 0.363282,-0.7148437 0.410156,-0.421875 0.960937,-0.65625 1.558593,-0.65625 1.195313,0 1.957032,0.9726562 1.957032,2.5078125 0,1.6054687 -0.855469,2.71874999 -2.074219,2.71874999 -0.75,0 -1.804688,-0.45703129 -1.804688,-0.77343749 z m 8.472657,-2.25 -0.128907,-0.058594 c -0.726562,0.3046875 -1.476562,0.5039062 -2.238281,0.5859375 v 0.3984375 h 0.527344 c 0.574219,0 0.632812,0.1054687 0.632812,1.0546875 v 3.2226562 c 0,0.90234379 -0.03516,1.00781254 -0.527343,1.03125004 l -0.65625,0.046875 V 0.04705469 C 45.447625,1.796875e-4 45.447625,1.796875e-4 45.810906,1.796875e-4 c 0.351563,0 0.351563,0 1.792969,0.0468750025 v -0.43359375 l -0.667969,-0.046875 c -0.480468,-0.0234375 -0.527343,-0.12890625 -0.527343,-1.03125004 z m -0.65625,-3.1875 c -0.433594,0 -0.808594,0.375 -0.808594,0.8085938 0,0.4101562 0.375,0.7851562 0.796875,0.7851562 0.410156,0 0.796875,-0.375 0.796875,-0.7851562 0,-0.4101563 -0.386719,-0.8085938 -0.785156,-0.8085938 z m 6.131835,3.1289063 c -2.085937,0 -3.539062,1.4765625 -3.539062,3.609375 0,2.0273437 1.277344,3.39843749 3.128906,3.39843749 2.203125,0 3.785156,-1.52343749 3.785156,-3.67968749 0,-1.9335938 -1.40625,-3.328125 -3.375,-3.328125 z m -0.257812,0.46875 c 1.324219,0 2.296875,1.4414062 2.296875,3.3867187 0,1.6523438 -0.726563,2.68359379 -1.886719,2.68359379 -1.40625,0 -2.355469,-1.37109379 -2.355469,-3.41015629 0,-1.7226562 0.691407,-2.6601562 1.945313,-2.6601562 z m 12.052734,0.7265625 h -7.230468 v 0.796875 h 7.230468 z m 0,2.7773437 h -7.230468 v 0.8085938 h 7.230468 z m 0,0"
         style="fill:#000000;fill-opacity:1;fill-rule:nonzero;stroke:none" />
      <path
         id="path109"
         d="m 64.730828,-9.4920078 0.632813,0.035156 c 0.585937,0.046875 0.726562,0.1640625 0.726562,1.3007813 v 6.4335937 c 0,1.13671879 -0.140625,1.26562504 -0.726562,1.28906254 l -0.632813,0.046875 v 0.43359375 c 0.84375,-0.03515625 2.167969,-0.0468750025 2.90625,-0.0468750025 0.75,0 2.132813,0.0117187525 2.976563,0.0468750025 v -0.43359375 l -0.691407,-0.046875 C 69.277703,-0.46857056 69.195672,-0.58575801 69.195672,-1.6404455 V -9.210758 c 0.492187,-0.1289063 0.914062,-0.1640625 1.40625,-0.1640625 1.488281,0 2.320312,0.6796875 2.320312,1.8984375 0,1.3242187 -1.054687,2.15625 -2.71875,2.15625 -0.08203,0 -0.222656,0 -0.410156,-0.011719 l -0.08203,0.1640625 c 0.152344,0.1875 0.199219,0.2460938 0.363281,0.4335938 0.210938,0.234375 0.246094,0.2929687 0.375,0.4570312 l 2.648438,3.55078129 c 0.08203,0.10546875 0.164062,0.22265625 0.257812,0.328125 l 0.328125,0.4453125 C 74.269892,0.01189804 74.480829,1.792875e-4 74.65661,1.792875e-4 c 0.152344,0 0.339844,0.0117187525 1.03125,0.0468750025 v -0.43359375 c -0.457031,-0.046875 -0.691406,-0.12890625 -0.878906,-0.375 L 71.562859,-5.0037266 c 0.785157,-0.1875 1.136719,-0.3515625 1.605469,-0.65625 0.785156,-0.5507812 1.183594,-1.265625 1.183594,-2.109375 0,-1.3945312 -0.984375,-2.15625 -2.8125,-2.15625 h -0.199219 c -0.28125,0.011719 -0.527344,0.011719 -0.726562,0.023437 -0.433594,0.023437 -0.972657,0.023437 -1.523438,0.023437 h -1.453125 c -0.738281,0 -2.0625,-0.023437 -2.90625,-0.046875 z m 3.09375,1.3359375 v 6.4335937 c 0,1.13671879 -0.07031,1.25390629 -0.527344,1.28906254 -0.457031,-0.0351563 -0.539062,-0.15234375 -0.539062,-1.28906254 v -6.4335937 c 0,-1.1367188 0.08203,-1.2539063 0.539062,-1.3007813 0.457032,0.035156 0.527344,0.1640625 0.527344,1.3007813 z m 0,0"
         style="fill:#000000;fill-opacity:1;fill-rule:nonzero;stroke:none" />
      <path
         id="path110"
         d="m 83.138055,-1.7693516 c -0.386719,0.1289063 -0.644532,0.2226563 -1.40625,0.4335938 -0.105469,1.08984374 -0.457032,2.02734374 -1.289063,3.3984375 l 0.199219,0.1640625 0.585937,-0.28125 c 1.160157,-1.50000001 1.710938,-2.40234376 2.109375,-3.5039063 z m 18.096675,-7.4414062 c 0.49219,-0.1171875 0.92579,-0.1640625 1.40625,-0.1640625 1.5,0 2.33204,0.6796875 2.33204,1.8984375 0,1.3242187 -1.05469,2.15625 -2.71875,2.15625 -0.0937,0 -0.22266,0 -0.41016,-0.011719 l -0.0937,0.1640625 c 0.16406,0.1875 0.21094,0.2460938 0.375,0.4335938 0.19922,0.234375 0.24609,0.2929687 0.375,0.4570312 l 2.63672,3.55078129 c 0.0937,0.10546875 0.17578,0.22265625 0.25781,0.328125 0.10547,0.12890625 0.1875,0.2578125 0.32813,0.4453125 0.67968,-0.0468750025 0.82031,-0.0468750025 0.98437,-0.0468750025 0.12891,0 0.12891,0 1.03125,0.0468750025 v -0.43359375 c -0.45703,-0.046875 -0.69141,-0.12890625 -0.87891,-0.375 l -3.25781,-4.24218754 c 0.8086,-0.1992187 1.1836,-0.3632812 1.65235,-0.6914062 0.75,-0.5273438 1.14843,-1.2421875 1.14843,-2.0742188 0,-1.3828125 -1.00781,-2.15625 -2.77734,-2.15625 h -0.23438 c -1.86328,0.046875 -1.86328,0.046875 -2.35546,0.046875 -0.46875,0 -0.46875,0 -2.484379,-0.046875 v 0.4335938 l 0.597656,0.035156 c 0.65625,0.046875 0.726562,0.1757813 0.726562,1.3007813 v 6.4335937 c 0,1.13671879 -0.07031,1.25390629 -0.726562,1.28906254 l -0.691406,0.046875 v 0.43359375 c 0.84375,-0.03515625 1.347656,-0.0468750025 2.097659,-0.0468750025 0.73828,0 1.2539,0.0117187525 2.10937,0.0468750025 v -0.43359375 l -0.6914,-0.046875 c -0.65625,-0.0351563 -0.73829,-0.15234375 -0.73829,-1.28906254 z m 11.14161,8.0390625 -0.082,1.21874999 c 0.9375,-0.0468750025 0.9375,-0.0468750025 1.125,-0.0468750025 0.0703,0 0.4336,0.0117187525 1.06641,0.0468750025 v -0.43359375 l -0.5625,-0.0234375 c -0.35156,-0.0234375 -0.41016,-0.140625 -0.41016,-0.83203124 v -2.625 c 0,-2.0976563 -0.59765,-2.859375 -2.26171,-2.859375 -0.6211,0 -1.1836,0.1523437 -1.73438,0.4921875 l -0.76172,0.4570312 v 0.9257813 l 0.375,0.1054687 0.1875,-0.4453125 c 0.30469,-0.6796875 0.44531,-0.7734375 1.10156,-0.7734375 1.34766,0 1.91016,0.5273438 1.95704,1.828125 l -1.42969,0.2695313 c -1.94531,0.3515625 -2.76563,1.03125 -2.76563,2.2734375 0,1.12499999 0.67969,1.76953124 1.80469,1.76953124 0.25781,0 0.50391,-0.046875 0.60938,-0.1171875 z m 0,-0.609375 c -0.42188,0.5859375 -1.32422,1.13671874 -1.88672,1.13671874 -0.57422,0 -1.07813,-0.52734374 -1.07813,-1.14843754 0,-0.5273437 0.29297,-1.03125 0.72656,-1.3007812 0.35157,-0.2226563 1.14844,-0.421875 2.23829,-0.5742188 z m 8.40527,1.82812499 c 0.87891,-0.0468750025 0.89062,-0.0468750025 1.13672,-0.0468750025 0.19922,0 0.19922,0 1.18359,0.0468750025 v -0.43359375 l -0.58594,-0.046875 c -0.49218,-0.0234375 -0.52734,-0.1171875 -0.52734,-1.03125004 v -2.765625 c 0,-1.6757812 -0.79687,-2.4960937 -2.40234,-2.4960937 -0.52735,0 -0.83203,0.1054687 -1.125,0.3632812 l -1.08985,0.9375 v -1.2421875 l -0.1289,-0.058594 c -0.73828,0.3046875 -1.48828,0.5039062 -2.23828,0.5859375 v 0.3984375 h 0.52734 c 0.57422,0 0.63281,0.1054687 0.63281,1.0546875 v 3.2226562 c 0,0.90234379 -0.0469,1.00781254 -0.53906,1.03125004 l -0.64453,0.046875 v 0.43359375 c 0.98437,-0.03515625 1.37109,-0.0468750025 1.78125,-0.0468750025 0.42187,0 0.80859,0.0117187525 1.78125,0.0468750025 v -0.43359375 l -0.64453,-0.046875 c -0.49219,-0.0234375 -0.52735,-0.12890625 -0.52735,-1.03125004 v -3.0351562 c 0,-0.6445313 0.9375,-1.3476563 1.81641,-1.3476563 0.96094,0 1.59375,0.7148438 1.59375,1.8164063 z m 9.9082,-5.47265629 0.36328,-0.5859375 -0.0586,-0.1757812 -2.03906,0.058594 c -0.52735,-0.421875 -1.04297,-0.5976562 -1.7461,-0.5976562 -0.63281,0 -1.35937,0.1992187 -1.95703,0.5390625 -0.79687,0.46875 -1.21875,1.171875 -1.21875,2.0390625 0,1.0664062 0.66797,1.7929687 1.72266,1.9101562 l -1.125,0.8789063 c -0.15234,0.2109375 -0.22266,0.39843749 -0.22266,0.60937499 0,0.41015625 0.25782,0.6328125 0.94922,0.83203125 l -1.2539,0.6796875 c -0.19922,0.1171875 -0.39844,0.64453126 -0.39844,1.08984376 0,1.3007812 1.27734,2.203125 3.10547,2.203125 2.15625,0 3.86718,-1.359375 3.86718,-3.10546876 0,-1.03125 -0.6914,-1.7578125 -1.6875,-1.7578125 h -2.29687 c -0.75,0 -1.08984,-0.1640625 -1.08984,-0.55078124 0,-0.1875 0.11718,-0.3515625 0.48046,-0.6679688 0.0937,-0.070312 0.11719,-0.09375 0.17579,-0.1523437 0.14062,0.011719 0.23437,0.023437 0.33984,0.023437 0.62109,0 1.38281,-0.2695313 1.96875,-0.6796875 0.64453,-0.4804688 0.96094,-1.0546875 0.96094,-1.8164063 0,-0.28125 -0.0469,-0.46875 -0.15235,-0.7734375 z m -3.99609,-0.8085937 c 0.97266,0 1.62891,0.796875 1.62891,2.015625 0,0.9375 -0.59766,1.5820312 -1.47657,1.5820312 -0.96093,0 -1.60547,-0.75 -1.60547,-1.8515625 0,-1.1015625 0.52735,-1.7460937 1.45313,-1.7460937 z m 0.66797,6.43359374 c 1.6289,0 2.17969,0.328125 2.17969,1.26562496 0,1.2304688 -1.125,2.1445313 -2.63672,2.1445313 -1.24219,0 -2.10938,-0.7265625 -2.10938,-1.7929688 0,-0.6445312 0.375,-1.23046871 0.94922,-1.47656246 0.23438,-0.10546875 0.63281,-0.140625 1.61719,-0.140625 z m 7.85742,-6.92578124 c -2.08594,0 -3.53906,1.4765625 -3.53906,3.609375 0,2.0273437 1.27734,3.39843749 3.1289,3.39843749 2.20313,0 3.78516,-1.52343749 3.78516,-3.67968749 0,-1.9335938 -1.40625,-3.328125 -3.375,-3.328125 z m -0.25781,0.46875 c 1.32422,0 2.29687,1.4414062 2.29687,3.3867187 0,1.6523438 -0.72656,2.68359379 -1.88672,2.68359379 -1.40625,0 -2.35547,-1.37109379 -2.35547,-3.41015629 0,-1.7226562 0.69141,-2.6601562 1.94532,-2.6601562 z m 12.05273,0.7265625 h -7.23047 v 0.796875 h 7.23047 z m 0,2.7773437 h -7.23047 v 0.8085938 h 7.23047 z m 9.22559,5.53125 c -1.03125,-1.265625 -1.40625,-1.95703121 -1.76953,-3.24609371 -0.30469,-1.04296879 -0.44532,-2.13281249 -0.44532,-3.35156249 0,-1.1835938 0.14063,-2.203125 0.41016,-3.140625 0.375,-1.1835938 0.76172,-1.8632813 1.80469,-3.0820312 l -0.26953,-0.375 c -1.48829,1.3359374 -2.07422,2.1328124 -2.625,3.5273437 -0.375,0.9609375 -0.5625,1.9804687 -0.5625,3.0703125 0,1.5351562 0.36328,2.98828124 1.05468,4.27734374 0.50391,0.96093746 0.96094,1.52343746 2.13282,2.62499996 z m 4.50586,-5.859375 0.43359,-0.9609375 -0.0703,-0.070312 h -3.77344 l -0.38672,0.9609375 0.0703,0.070312 z m 1.69629,-4.875 h 0.14062 l 1.85156,-0.8320312 c 0.0117,-0.023437 0.0352,-0.023437 0.0469,-0.023437 0.082,0 0.11719,0.1289062 0.11719,0.4804687 v 6.9492188 c 0,0.74999999 -0.16407,0.91406249 -0.9375,0.94921874 l -0.79688,0.046875 v 0.43359375 c 2.20313,-0.0468750025 2.20313,-0.0468750025 2.35547,-0.0468750025 0.1875,0 0.50391,0 0.99609,0.0117187525 0.17578,0.01171875 0.66797,0.01171875 1.26563,0.03515625 v -0.43359375 l -0.75,-0.046875 c -0.78516,-0.0351563 -0.9375,-0.19921875 -0.9375,-0.94921874 v -8.4960938 l -0.19922,-0.070312 c -0.92578,0.4804688 -1.94531,0.9140625 -3.25781,1.3710938 z m 13.31543,6.1875 c -0.38672,0.1289063 -0.64454,0.2226563 -1.40625,0.4335938 -0.10547,1.08984374 -0.45704,2.02734374 -1.28907,3.3984375 l 0.19922,0.1640625 0.58594,-0.28125 c 1.16016,-1.50000001 1.71094,-2.40234376 2.10937,-3.5039063 z m 5.79199,-6.1875 h 0.14062 l 1.85157,-0.8320312 c 0.0117,-0.023437 0.0351,-0.023437 0.0469,-0.023437 0.082,0 0.11719,0.1289062 0.11719,0.4804687 v 6.9492188 c 0,0.74999999 -0.16406,0.91406249 -0.9375,0.94921874 l -0.79688,0.046875 v 0.43359375 c 2.20313,-0.0468750025 2.20313,-0.0468750025 2.35547,-0.0468750025 0.1875,0 0.50391,0 0.9961,0.0117187525 0.17578,0.01171875 0.66796,0.01171875 1.26562,0.03515625 v -0.43359375 l -0.75,-0.046875 c -0.78516,-0.0351563 -0.9375,-0.19921875 -0.9375,-0.94921874 v -8.4960938 l -0.19922,-0.070312 c -0.92578,0.4804688 -1.94531,0.9140625 -3.25781,1.3710938 z m 6.94043,11.0390625 c 0.99609,-0.9257812 1.40625,-1.40625 1.85156,-2.10937496 0.87891,-1.3828125 1.33594,-3.04687504 1.33594,-4.76953124 0,-1.1132813 -0.1875,-2.1328125 -0.5625,-3.09375 -0.53907,-1.3828125 -1.125,-2.1796875 -2.625,-3.5273437 l -0.26953,0.375 c 1.05468,1.2304687 1.4414,1.9101562 1.79296,3.0820312 0.29297,0.9375 0.4336,1.9570312 0.4336,3.140625 0,1.21875 -0.14063,2.3085937 -0.44531,3.35156249 -0.375,1.2890625 -0.75,1.98046871 -1.78125,3.24609371 z M 3.0931328,27.709164 c 0,-1.136719 0.082031,-1.253906 0.7382813,-1.300781 l 0.6914062,-0.03516 v -0.433594 c -1.0546875,0.04687 -1.3710937,0.04687 -2.109375,0.04687 -0.7265625,0 -1.0664062,-0.02344 -2.09765624,-0.04687 v 0.433594 l 0.69140624,0.03516 c 0.65625,0.04687 0.7265625,0.164062 0.7265625,1.300781 v 6.796875 c 0,0.410156 -0.1289062,0.726563 -0.3515625,0.84375 l -0.44531249,0.234375 v 0.328125 c 0.93749999,-0.04687 1.04296879,-0.04687 1.41796879,-0.04687 0.1289062,0 0.3515625,0 0.6679687,0.01172 0.703125,0.01172 2.2734375,0.03516 2.671875,0.03516 0.4570313,0 0.4570313,0 2.4140625,-0.04687 0.09375,-0.621094 0.1523438,-1.078125 0.2929688,-2.472656 H 7.9446953 L 7.7689141,34.11932 c -0.011719,0.03516 -0.023437,0.140625 -0.035156,0.152344 -0.09375,0.421875 -0.1875,0.703125 -0.28125,0.773438 -0.1757812,0.164062 -1.4296875,0.257812 -3.140625,0.257812 -0.515625,0 -0.84375,-0.02344 -1.21875,-0.117187 z m 10.3242192,6.984375 -0.08203,1.21875 c 0.9375,-0.04687 0.9375,-0.04687 1.125,-0.04687 0.07031,0 0.433594,0.01172 1.066407,0.04687 v -0.433594 l -0.5625,-0.02344 C 14.612664,35.43182 14.55407,35.314633 14.55407,34.623227 v -2.625 c 0,-2.097657 -0.597656,-2.859375 -2.261718,-2.859375 -0.621094,0 -1.183594,0.152343 -1.734375,0.492187 L 9.7962578,30.08807 v 0.925782 l 0.3750002,0.105468 0.1875,-0.445312 c 0.304687,-0.679688 0.445312,-0.773438 1.101562,-0.773438 1.347657,0 1.910157,0.527344 1.957032,1.828125 l -1.429688,0.269532 c -1.945312,0.351562 -2.7656249,1.03125 -2.7656249,2.273437 0,1.125 0.6796875,1.769531 1.8046879,1.769531 0.257812,0 0.503906,-0.04687 0.609375,-0.117187 z m 0,-0.609375 c -0.421875,0.585938 -1.324219,1.136719 -1.886719,1.136719 -0.574219,0 -1.078125,-0.527344 -1.078125,-1.148438 0,-0.527343 0.292969,-1.03125 0.726562,-1.300781 0.351563,-0.222656 1.148438,-0.421875 2.238282,-0.574219 z m 8.103515,-3.703125 v 4.136719 c 0,1.066406 0.46875,1.523437 1.582031,1.523437 0.328125,0 0.667969,-0.07031 0.75,-0.175781 l 0.691407,-0.761719 -0.1875,-0.246093 c -0.351563,0.199218 -0.574219,0.28125 -0.84375,0.28125 -0.5625,0 -0.785157,-0.292969 -0.785157,-0.996094 v -3.761719 h 1.828125 l 0.128907,-0.773437 -1.957032,0.09375 V 29.15057 c 0,-0.597656 0.03516,-1.113281 0.152344,-2.039062 L 22.71618,26.959164 c -0.351563,0.210938 -0.785157,0.398438 -1.21875,0.539063 0.03516,0.433593 0.04687,0.703125 0.04687,1.136718 v 1.007813 l -1.113282,0.503906 v 0.292969 z m 7.921875,4.3125 -0.08203,1.21875 c 0.9375,-0.04687 0.9375,-0.04687 1.125,-0.04687 0.07031,0 0.433594,0.01172 1.066406,0.04687 v -0.433594 l -0.5625,-0.02344 c -0.351562,-0.02344 -0.410156,-0.140625 -0.410156,-0.832031 v -2.625 c 0,-2.097657 -0.597656,-2.859375 -2.261719,-2.859375 -0.621094,0 -1.183594,0.152343 -1.734375,0.492187 l -0.761719,0.457031 v 0.925782 l 0.375,0.105468 0.1875,-0.445312 c 0.304688,-0.679688 0.445313,-0.773438 1.101563,-0.773438 1.347656,0 1.910156,0.527344 1.957031,1.828125 l -1.429687,0.269532 c -1.945313,0.351562 -2.765625,1.03125 -2.765625,2.273437 0,1.125 0.679687,1.769531 1.804687,1.769531 0.257813,0 0.503906,-0.04687 0.609375,-0.117187 z m 0,-0.609375 c -0.421875,0.585938 -1.324219,1.136719 -1.886719,1.136719 -0.574218,0 -1.078125,-0.527344 -1.078125,-1.148438 0,-0.527343 0.292969,-1.03125 0.726563,-1.300781 0.351562,-0.222656 1.148437,-0.421875 2.238281,-0.574219 z m 8.402344,1.828125 c 0.878906,-0.04687 0.890625,-0.04687 1.136719,-0.04687 0.199218,0 0.199218,0 1.183593,0.04687 v -0.433594 l -0.585937,-0.04687 c -0.492188,-0.02344 -0.527344,-0.117187 -0.527344,-1.03125 V 31.63495 c 0,-1.675781 -0.796875,-2.496093 -2.402344,-2.496093 -0.527343,0 -0.832031,0.105468 -1.125,0.363281 l -1.089843,0.9375 V 29.19745 l -0.128907,-0.05859 c -0.738281,0.304687 -1.488281,0.503906 -2.238281,0.585937 v 0.398438 h 0.527344 c 0.574219,0 0.632812,0.105468 0.632812,1.054687 v 3.222656 c 0,0.902344 -0.04687,1.007813 -0.539062,1.03125 l -0.644531,0.04687 v 0.433594 c 0.984375,-0.03516 1.371093,-0.04687 1.78125,-0.04687 0.421875,0 0.808593,0.01172 1.78125,0.04687 V 35.478695 L 34.962273,35.43182 C 34.470086,35.408383 34.43493,35.302914 34.43493,34.40057 v -3.035156 c 0,-0.644531 0.9375,-1.347656 1.816406,-1.347656 0.960937,0 1.59375,0.714844 1.59375,1.816406 z m 9.908203,-5.472656 0.363281,-0.585938 -0.05859,-0.175781 -2.039063,0.05859 c -0.527344,-0.421875 -1.042969,-0.597656 -1.746094,-0.597656 -0.632812,0 -1.359375,0.199218 -1.957031,0.539062 -0.796875,0.46875 -1.21875,1.171875 -1.21875,2.039063 0,1.066406 0.667969,1.792968 1.722656,1.910156 l -1.125,0.878906 c -0.152343,0.210938 -0.222656,0.398438 -0.222656,0.609375 0,0.410156 0.257813,0.632813 0.949219,0.832031 l -1.253906,0.679688 c -0.199219,0.117187 -0.398438,0.644531 -0.398438,1.089844 0,1.300781 1.277344,2.203125 3.105469,2.203125 2.15625,0 3.867187,-1.359375 3.867187,-3.105469 0,-1.03125 -0.691406,-1.757813 -1.6875,-1.757813 h -2.296875 c -0.75,0 -1.089843,-0.164062 -1.089843,-0.550781 0,-0.1875 0.117187,-0.351562 0.480468,-0.667969 0.09375,-0.07031 0.117188,-0.09375 0.175782,-0.152343 0.140625,0.01172 0.234375,0.02344 0.339843,0.02344 0.621094,0 1.382813,-0.269531 1.96875,-0.679687 0.644532,-0.480469 0.960938,-1.054688 0.960938,-1.816407 0,-0.28125 -0.04687,-0.46875 -0.152344,-0.773437 z m -3.996094,-0.808594 c 0.972657,0 1.628907,0.796875 1.628907,2.015625 0,0.9375 -0.597657,1.582031 -1.476563,1.582031 -0.960937,0 -1.605469,-0.75 -1.605469,-1.851562 0,-1.101563 0.527344,-1.746094 1.453125,-1.746094 z m 0.667969,6.433594 c 1.628906,0 2.179688,0.328125 2.179688,1.265625 0,1.230469 -1.125,2.144531 -2.636719,2.144531 -1.242188,0 -2.109375,-0.726562 -2.109375,-1.792969 0,-0.644531 0.375,-1.230468 0.949219,-1.476562 0.234375,-0.105469 0.632812,-0.140625 1.617187,-0.140625 z m 10.133789,-1.207031 -0.1875,-0.140625 c -0.914062,0.550781 -1.253906,0.679687 -1.863281,0.679687 -0.9375,0 -1.710938,-0.421875 -2.109375,-1.125 -0.269531,-0.46875 -0.375,-0.878906 -0.398438,-1.710937 h 2.085938 c 0.996094,0 1.605469,-0.03516 2.601562,-0.199219 0.01172,-0.199219 0.02344,-0.328125 0.02344,-0.492188 0,-1.652343 -1.054688,-2.730468 -2.660156,-2.730468 -0.539063,0 -1.148438,0.1875 -1.734375,0.527343 -1.183594,0.679688 -1.652344,1.570313 -1.652344,3.058594 0,0.902344 0.210937,1.675781 0.597656,2.226563 0.574219,0.761718 1.535156,1.195312 2.613281,1.195312 0.527344,0 1.066407,-0.105469 1.652344,-0.363281 0.386719,-0.164063 0.691406,-0.351563 0.738281,-0.433594 z m -1.125,-2.824219 c -0.738281,0.03516 -1.089844,0.04687 -1.605469,0.04687 -0.65625,0 -1.03125,-0.01172 -1.804687,-0.08203 0,-0.679688 0.05859,-0.996094 0.246094,-1.371094 0.304687,-0.632813 0.914062,-1.019531 1.605468,-1.019531 0.46875,0 0.84375,0.1875 1.101563,0.574218 0.316406,0.480469 0.421875,0.890625 0.457031,1.851563 z m 7.611328,3.878906 c 0.878907,-0.04687 0.890625,-0.04687 1.136719,-0.04687 0.199219,0 0.199219,0 1.183594,0.04687 v -0.433594 l -0.585938,-0.04687 c -0.492187,-0.02344 -0.527343,-0.117187 -0.527343,-1.03125 V 31.63495 c 0,-1.675781 -0.796875,-2.496093 -2.402344,-2.496093 -0.527344,0 -0.832031,0.105468 -1.125,0.363281 l -1.089844,0.9375 V 29.19745 l -0.128906,-0.05859 c -0.738281,0.304687 -1.488281,0.503906 -2.238281,0.585937 v 0.398438 h 0.527343 c 0.574219,0 0.632813,0.105468 0.632813,1.054687 v 3.222656 c 0,0.902344 -0.04687,1.007813 -0.539063,1.03125 l -0.644531,0.04687 v 0.433594 c 0.984375,-0.03516 1.371094,-0.04687 1.78125,-0.04687 0.421875,0 0.808594,0.01172 1.78125,0.04687 v -0.433594 l -0.644531,-0.04687 c -0.492188,-0.02344 -0.527344,-0.128906 -0.527344,-1.03125 v -3.035156 c 0,-0.644531 0.9375,-1.347656 1.816406,-1.347656 0.960938,0 1.59375,0.714844 1.59375,1.816406 z m 3.873047,-5.53125 v 4.136719 c 0,1.066406 0.46875,1.523437 1.582031,1.523437 0.328125,0 0.667969,-0.07031 0.75,-0.175781 l 0.691407,-0.761719 -0.1875,-0.246093 c -0.351563,0.199218 -0.574219,0.28125 -0.84375,0.28125 -0.5625,0 -0.785157,-0.292969 -0.785157,-0.996094 v -3.761719 h 1.828125 l 0.128907,-0.773437 -1.957032,0.09375 V 29.15057 c 0,-0.597656 0.03516,-1.113281 0.152344,-2.039062 l -0.164062,-0.152344 c -0.351563,0.210938 -0.785157,0.398438 -1.21875,0.539063 0.03516,0.433593 0.04687,0.703125 0.04687,1.136718 v 1.007813 l -1.113282,0.503906 v 0.292969 z m 9.539063,4.476563 -0.1875,-0.140625 c -0.914063,0.550781 -1.253907,0.679687 -1.863282,0.679687 -0.9375,0 -1.710937,-0.421875 -2.109375,-1.125 -0.269531,-0.46875 -0.375,-0.878906 -0.398437,-1.710937 h 2.085937 c 0.996094,0 1.605469,-0.03516 2.601563,-0.199219 0.01172,-0.199219 0.02344,-0.328125 0.02344,-0.492188 0,-1.652343 -1.054687,-2.730468 -2.660156,-2.730468 -0.539062,0 -1.148437,0.1875 -1.734375,0.527343 -1.183594,0.679688 -1.652344,1.570313 -1.652344,3.058594 0,0.902344 0.210938,1.675781 0.597657,2.226563 0.574218,0.761718 1.535156,1.195312 2.613281,1.195312 0.527344,0 1.066406,-0.105469 1.652344,-0.363281 0.386718,-0.164063 0.691406,-0.351563 0.738281,-0.433594 z m -1.125,-2.824219 c -0.738282,0.03516 -1.089844,0.04687 -1.605469,0.04687 -0.65625,0 -1.03125,-0.01172 -1.804688,-0.08203 0,-0.679688 0.05859,-0.996094 0.246094,-1.371094 0.304688,-0.632813 0.914063,-1.019531 1.605469,-1.019531 0.46875,0 0.84375,0.1875 1.101562,0.574218 0.316407,0.480469 0.421875,0.890625 0.457032,1.851563 z m 6.005859,-5.648438 h 0.796875 c 0.257813,0 0.363281,0.152344 0.363281,0.585938 v 7.429687 c 0,0.902344 -0.04687,1.007813 -0.539062,1.03125 l -0.644531,0.04687 v 0.433594 c 0.984375,-0.03516 1.371093,-0.04687 1.78125,-0.04687 0.421875,0 0.808593,0.01172 1.78125,0.04687 V 35.47869 l -0.644532,-0.04687 c -0.492187,-0.02344 -0.527343,-0.128906 -0.527343,-1.03125 v -3.035156 c 0,-0.644531 0.9375,-1.347656 1.816406,-1.347656 0.960937,0 1.59375,0.714844 1.59375,1.816406 v 4.078125 c 0.878906,-0.04687 0.890625,-0.04687 1.136719,-0.04687 0.199218,0 0.199218,0 1.183593,0.04687 v -0.433594 l -0.585937,-0.04687 c -0.492188,-0.02344 -0.527344,-0.117187 -0.527344,-1.03125 V 31.63495 c 0,-1.675781 -0.796875,-2.496093 -2.402344,-2.496093 -0.527343,0 -0.832031,0.105468 -1.125,0.363281 l -1.089843,0.9375 v -4.875 L 81.576531,25.44745 c -0.632812,0.246094 -1.113281,0.363282 -2.238281,0.539063 z m 10.939453,2.8125 -0.128906,-0.05859 c -0.726563,0.304687 -1.476563,0.503906 -2.238281,0.585937 v 0.398438 h 0.527343 c 0.574219,0 0.632813,0.105468 0.632813,1.054687 v 3.222656 c 0,0.902344 -0.03516,1.007813 -0.527344,1.03125 l -0.65625,0.04687 v 0.433594 c 1.429688,-0.04687 1.429688,-0.04687 1.792969,-0.04687 0.351562,0 0.351562,0 1.792969,0.04687 v -0.433594 l -0.667969,-0.04687 c -0.480469,-0.02344 -0.527344,-0.128906 -0.527344,-1.03125 z m -0.65625,-3.1875 c -0.433594,0 -0.808594,0.375 -0.808594,0.808594 0,0.410156 0.375,0.785156 0.796875,0.785156 0.410157,0 0.796875,-0.375 0.796875,-0.785156 0,-0.410156 -0.386718,-0.808594 -0.785156,-0.808594 z m 2.276367,4.113282 h 0.539063 c 0.5625,0 0.621094,0.105468 0.621094,1.054687 v 7.207031 c 0,0.914063 -0.03516,1.007813 -0.527344,1.042969 l -0.65625,0.03516 v 0.433594 c 1.429687,-0.04687 1.429687,-0.04687 1.792969,-0.04687 0.351562,0 0.351562,0 1.792968,0.04687 V 39.46307 L 94.792352,39.42791 C 94.311883,39.39275 94.265008,39.299004 94.265008,38.384941 V 35.67791 c 0.433594,0.257813 0.890625,0.363281 1.535156,0.363281 0.421875,0 0.785156,-0.09375 1.019531,-0.234375 l 1.640625,-1.054687 c 0.574219,-0.375 1.242188,-1.851563 1.242188,-2.777344 0,-1.59375 -1.324219,-2.835937 -2.976563,-2.835937 -0.539062,0 -1.054687,0.140625 -1.277343,0.363281 l -1.183594,1.066406 v -1.371094 l -0.128906,-0.05859 c -0.726563,0.304687 -1.476563,0.503906 -2.238282,0.585937 z m 2.367188,1.347656 c 0,-0.199219 0.07031,-0.351563 0.257812,-0.597656 0.421875,-0.527344 1.007813,-0.796875 1.722657,-0.796875 1.347656,0 2.214843,0.9375 2.214843,2.4375 0,1.605468 -0.960937,2.789062 -2.261718,2.789062 -0.785157,0 -1.371094,-0.257812 -1.933594,-0.84375 z m 12.383792,3.386719 -0.1875,-0.140625 c -0.91407,0.550781 -1.25391,0.679687 -1.86328,0.679687 -0.9375,0 -1.71094,-0.421875 -2.10938,-1.125 -0.26953,-0.46875 -0.375,-0.878906 -0.39844,-1.710937 h 2.08594 c 0.99609,0 1.60547,-0.03516 2.60156,-0.199219 0.0117,-0.199219 0.0234,-0.328125 0.0234,-0.492188 0,-1.652343 -1.05469,-2.730468 -2.66016,-2.730468 -0.53906,0 -1.14843,0.1875 -1.73437,0.527343 -1.18359,0.679688 -1.65234,1.570313 -1.65234,3.058594 0,0.902344 0.21093,1.675781 0.59765,2.226563 0.57422,0.761718 1.53516,1.195312 2.61328,1.195312 0.52735,0 1.06641,-0.105469 1.65235,-0.363281 0.38672,-0.164063 0.6914,-0.351563 0.73828,-0.433594 z m -1.125,-2.824219 c -0.73828,0.03516 -1.08985,0.04687 -1.60547,0.04687 -0.65625,0 -1.03125,-0.01172 -1.80469,-0.08203 0,-0.679688 0.0586,-0.996094 0.24609,-1.371094 0.30469,-0.632813 0.91407,-1.019531 1.60547,-1.019531 0.46875,0 0.84375,0.1875 1.10157,0.574218 0.3164,0.480469 0.42187,0.890625 0.45703,1.851563 z m 2.05664,-1.910156 h 0.52734 c 0.57422,0 0.63281,0.105468 0.63281,1.054687 v 3.222656 c 0,0.902344 -0.0352,1.007813 -0.52734,1.03125 l -0.65625,0.04687 v 0.433594 c 1.03125,-0.03516 1.40625,-0.04687 1.75781,-0.04687 0.29297,0 0.29297,0 2.05078,0.04687 V 35.47869 l -0.73828,-0.04687 c -0.64453,-0.03516 -0.67968,-0.08203 -0.67968,-1.03125 v -2.460937 c 0,-0.867188 0.57421,-1.582031 1.27734,-1.582031 0.43359,0 0.72656,0.199218 0.96094,0.65625 h 0.30468 l 0.12891,-1.722657 c -0.16406,-0.09375 -0.42187,-0.152343 -0.67969,-0.152343 -0.42187,0 -0.89062,0.234375 -1.18359,0.585937 l -0.80859,0.949219 v -1.476563 l -0.12891,-0.05859 c -0.72656,0.304687 -1.47656,0.503906 -2.23828,0.585937 z m 7.49414,-4.558594 -0.12891,-0.117188 c -0.63281,0.246094 -1.11328,0.363282 -2.23828,0.539063 v 0.398437 h 0.79688 c 0.25781,0 0.36328,0.152344 0.36328,0.585938 v 6.703125 c 0,0.890625 -0.0117,1.277344 -0.11719,2.273437 l 0.23437,0.09375 0.57422,-0.515625 c 0.5625,0.363282 1.08985,0.515625 1.83985,0.515625 0.5625,0 0.9375,-0.105468 1.24218,-0.316406 l 1.42969,-1.03125 c 0.63281,-0.46875 1.13672,-1.652344 1.13672,-2.695312 0,-1.664063 -1.07812,-2.859375 -2.60156,-2.859375 -0.66797,0 -1.3711,0.257812 -1.7461,0.632812 l -0.78515,0.796875 z m 0,5.882812 c 0,-0.199218 0.14062,-0.457031 0.36328,-0.714843 0.41016,-0.421875 0.96094,-0.65625 1.55859,-0.65625 1.19532,0 1.95703,0.972656 1.95703,2.507812 0,1.605469 -0.85546,2.71875 -2.07421,2.71875 -0.75,0 -1.80469,-0.457031 -1.80469,-0.773437 z m 9.77344,-2.308593 c -2.08594,0 -3.53907,1.476562 -3.53907,3.609375 0,2.027343 1.27735,3.398437 3.12891,3.398437 2.20312,0 3.78516,-1.523437 3.78516,-3.679687 0,-1.933594 -1.40625,-3.328125 -3.375,-3.328125 z m -0.25782,0.46875 c 1.32422,0 2.29688,1.441406 2.29688,3.386718 0,1.652344 -0.72656,2.683594 -1.88672,2.683594 -1.40625,0 -2.35547,-1.371094 -2.35547,-3.410156 0,-1.722656 0.69141,-2.660156 1.94531,-2.660156 z m 4.42383,-3.222657 h 0.8086 c 0.25781,0 0.35156,0.152344 0.35156,0.585938 v 7.429687 c 0,0.902344 -0.0352,1.007813 -0.52735,1.03125 l -0.65625,0.04687 v 0.433594 c 1.42969,-0.04687 1.42969,-0.04687 1.79297,-0.04687 0.35157,0 0.35157,0 1.79297,0.04687 V 35.47869 l -0.66797,-0.04687 c -0.48047,-0.02344 -0.52734,-0.128906 -0.52734,-1.03125 v -8.835937 l -0.12891,-0.117188 c -0.63281,0.246094 -1.10156,0.363282 -2.23828,0.539063 z m 6.54199,2.8125 -0.1289,-0.05859 c -0.72657,0.304687 -1.47657,0.503906 -2.23828,0.585937 v 0.398438 h 0.52734 c 0.57422,0 0.63281,0.105468 0.63281,1.054687 v 3.222656 c 0,0.902344 -0.0351,1.007813 -0.52734,1.03125 l -0.65625,0.04687 v 0.433594 c 1.42969,-0.04687 1.42969,-0.04687 1.79297,-0.04687 0.35156,0 0.35156,0 1.79297,0.04687 v -0.433594 l -0.66797,-0.04687 c -0.48047,-0.02344 -0.52735,-0.128906 -0.52735,-1.03125 z m -0.65625,-3.1875 c -0.43359,0 -0.80859,0.375 -0.80859,0.808594 0,0.410156 0.375,0.785156 0.79687,0.785156 0.41016,0 0.79688,-0.375 0.79688,-0.785156 0,-0.410156 -0.38672,-0.808594 -0.78516,-0.808594 z m 7.8545,5.390625 c 0,-0.65625 0.0703,-1.242187 0.21093,-1.757812 -0.57422,-0.351563 -1.07812,-0.503906 -1.66406,-0.503906 -0.69141,0 -1.5,0.269531 -2.35547,0.820312 -1.00781,0.632813 -1.53515,1.628906 -1.53515,2.894531 0,1.933594 1.35937,3.292969 3.28125,3.292969 0.75,0 1.82812,-0.269531 1.96875,-0.480469 l 0.30468,-0.457031 -0.15234,-0.222656 c -0.52734,0.292969 -0.98438,0.421875 -1.5,0.421875 -1.59375,0 -2.63672,-1.230469 -2.63672,-3.128906 0,-1.535157 0.71484,-2.390625 2.00391,-2.390625 0.63281,0 1.32422,0.28125 1.58203,0.644531 l 0.0937,0.867187 z m 5.30273,3.292969 -0.082,1.21875 c 0.9375,-0.04687 0.9375,-0.04687 1.125,-0.04687 0.0703,0 0.43359,0.01172 1.06641,0.04687 v -0.433594 l -0.5625,-0.02344 c -0.35157,-0.02344 -0.41016,-0.140625 -0.41016,-0.832031 v -2.625 c 0,-2.097657 -0.59766,-2.859375 -2.26172,-2.859375 -0.62109,0 -1.18359,0.152343 -1.73437,0.492187 l -0.76172,0.457031 v 0.925782 l 0.375,0.105468 0.1875,-0.445312 c 0.30468,-0.679688 0.44531,-0.773438 1.10156,-0.773438 1.34766,0 1.91016,0.527344 1.95703,1.828125 l -1.42969,0.269532 c -1.94531,0.351562 -2.76562,1.03125 -2.76562,2.273437 0,1.125 0.67969,1.769531 1.80469,1.769531 0.25781,0 0.5039,-0.04687 0.60937,-0.117187 z m 0,-0.609375 c -0.42187,0.585938 -1.32422,1.136719 -1.88672,1.136719 -0.57422,0 -1.07812,-0.527344 -1.07812,-1.148438 0,-0.527343 0.29297,-1.03125 0.72656,-1.300781 0.35156,-0.222656 1.14844,-0.421875 2.23828,-0.574219 z m 12.96387,0.773438 -0.1875,-0.140625 c -0.91407,0.550781 -1.25391,0.679687 -1.86328,0.679687 -0.9375,0 -1.71094,-0.421875 -2.10938,-1.125 -0.26953,-0.46875 -0.375,-0.878906 -0.39844,-1.710937 h 2.08594 c 0.99609,0 1.60547,-0.03516 2.60156,-0.199219 0.0117,-0.199219 0.0234,-0.328125 0.0234,-0.492188 0,-1.652343 -1.05469,-2.730468 -2.66016,-2.730468 -0.53906,0 -1.14843,0.1875 -1.73437,0.527343 -1.18359,0.679688 -1.65234,1.570313 -1.65234,3.058594 0,0.902344 0.21093,1.675781 0.59765,2.226563 0.57422,0.761718 1.53516,1.195312 2.61328,1.195312 0.52735,0 1.06641,-0.105469 1.65235,-0.363281 0.38672,-0.164063 0.6914,-0.351563 0.73828,-0.433594 z m -1.125,-2.824219 c -0.73828,0.03516 -1.08985,0.04687 -1.60547,0.04687 -0.65625,0 -1.03125,-0.01172 -1.80469,-0.08203 0,-0.679688 0.0586,-0.996094 0.24609,-1.371094 0.30469,-0.632813 0.91407,-1.019531 1.60547,-1.019531 0.46875,0 0.84375,0.1875 1.10157,0.574218 0.3164,0.480469 0.42187,0.890625 0.45703,1.851563 z m 2.31445,1.78125 c 0,0.984375 -0.0352,1.417969 -0.15234,1.992187 0.73828,0.246094 1.30078,0.339844 1.95703,0.339844 1.88672,0 3.22265,-0.996094 3.22265,-2.402344 0,-0.445312 -0.1289,-0.773437 -0.41015,-1.066406 -0.375,-0.351562 -0.84375,-0.527344 -2.10938,-0.773437 -1.17187,-0.222657 -1.55859,-0.515625 -1.55859,-1.171875 0,-0.714844 0.50391,-1.125 1.37109,-1.125 0.96094,0 1.69922,0.503906 1.69922,1.183593 v 0.328125 h 0.39844 c 0.0117,-0.832031 0.0352,-1.183593 0.0703,-1.617187 -0.76172,-0.257813 -1.27734,-0.363281 -1.86328,-0.363281 -1.66406,0 -2.68359,0.785156 -2.68359,2.074218 0,0.691407 0.3164,1.183594 0.98437,1.476563 0.38672,0.175781 1.13672,0.410156 2.1211,0.621094 0.64453,0.140625 0.91406,0.445312 0.91406,0.996093 0,0.773438 -0.71485,1.3125 -1.73438,1.3125 -1.04297,0 -1.79297,-0.503906 -1.79297,-1.21875 v -0.585937 z m 16.88965,-4.617188 -0.12891,-0.05859 c -0.73828,0.304687 -1.47656,0.503906 -2.23828,0.585937 v 0.398438 h 0.52735 c 0.57421,0 0.63281,0.105468 0.63281,1.054687 v 2.332031 c 0,0.316407 -0.19922,0.714844 -0.52735,1.054688 -0.41015,0.398437 -0.86718,0.597656 -1.42968,0.597656 -0.49219,0 -0.90235,-0.152344 -1.125,-0.433594 -0.19922,-0.222656 -0.30469,-0.667968 -0.30469,-1.300781 v -4.230469 l -0.12891,-0.05859 c -0.72656,0.304687 -1.47656,0.503906 -2.23828,0.585937 v 0.398438 h 0.52735 c 0.57421,0 0.63281,0.105468 0.63281,1.054687 v 2.402344 c 0,1.007812 0.0937,1.453125 0.35156,1.816406 0.30469,0.421875 0.85547,0.644531 1.67578,0.644531 0.64453,0 1.21875,-0.199218 1.60547,-0.5625 l 0.96094,-0.890625 c 0,0.421875 -0.0117,0.644532 -0.0586,1.324219 0.96094,-0.04687 0.97266,-0.04687 1.19532,-0.04687 0.19922,0 0.19922,0 1.18359,0.04687 v -0.433594 l -0.58594,-0.04687 c -0.49218,-0.02344 -0.52734,-0.117187 -0.52734,-1.03125 z m 7.31543,6.714844 c 0.8789,-0.04687 0.89062,-0.04687 1.13672,-0.04687 0.19922,0 0.19922,0 1.18359,0.04687 v -0.433594 l -0.58594,-0.04687 c -0.49218,-0.02344 -0.52734,-0.117187 -0.52734,-1.03125 V 31.63495 c 0,-1.675781 -0.79688,-2.496093 -2.40234,-2.496093 -0.52735,0 -0.83204,0.105468 -1.125,0.363281 l -1.08985,0.9375 V 29.19745 l -0.1289,-0.05859 c -0.73829,0.304687 -1.48829,0.503906 -2.23829,0.585937 v 0.398438 h 0.52735 c 0.57422,0 0.63281,0.105468 0.63281,1.054687 v 3.222656 c 0,0.902344 -0.0469,1.007813 -0.53906,1.03125 l -0.64453,0.04687 v 0.433594 c 0.98437,-0.03516 1.37109,-0.04687 1.78125,-0.04687 0.42187,0 0.80859,0.01172 1.78125,0.04687 v -0.433594 l -0.64453,-0.04687 c -0.49219,-0.02344 -0.52735,-0.128906 -0.52735,-1.03125 v -3.035156 c 0,-0.644531 0.9375,-1.347656 1.81641,-1.347656 0.96094,0 1.59375,0.714844 1.59375,1.816406 z m 7.11914,-1.21875 -0.082,1.21875 c 0.9375,-0.04687 0.9375,-0.04687 1.125,-0.04687 0.0703,0 0.43359,0.01172 1.0664,0.04687 v -0.433594 l -0.5625,-0.02344 c -0.35156,-0.02344 -0.41015,-0.140625 -0.41015,-0.832031 v -2.625 c 0,-2.097657 -0.59766,-2.859375 -2.26172,-2.859375 -0.62109,0 -1.18359,0.152343 -1.73438,0.492187 l -0.76171,0.457031 v 0.925782 l 0.375,0.105468 0.1875,-0.445312 c 0.30468,-0.679688 0.44531,-0.773438 1.10156,-0.773438 1.34765,0 1.91015,0.527344 1.95703,1.828125 l -1.42969,0.269532 c -1.94531,0.351562 -2.76562,1.03125 -2.76562,2.273437 0,1.125 0.67968,1.769531 1.80468,1.769531 0.25782,0 0.50391,-0.04687 0.60938,-0.117187 z m 0,-0.609375 c -0.42188,0.585938 -1.32422,1.136719 -1.88672,1.136719 -0.57422,0 -1.07812,-0.527344 -1.07812,-1.148438 0,-0.527343 0.29296,-1.03125 0.72656,-1.300781 0.35156,-0.222656 1.14844,-0.421875 2.23828,-0.574219 z m 11.58105,-8.507812 c -0.29296,-0.105469 -0.46875,-0.152344 -0.65625,-0.152344 -0.45703,0 -0.96093,0.246094 -1.27734,0.597656 l -0.83203,0.949219 c -0.41016,0.480469 -0.59766,1.125 -0.59766,2.0625 v 0.609375 l -0.99609,0.445312 v 0.316407 l 0.99609,-0.05859 v 4.054687 c 0,0.902344 -0.0469,1.007813 -0.53906,1.03125 l -0.65625,0.04687 v 0.433594 c 1.44141,-0.04687 1.44141,-0.04687 1.79297,-0.04687 0.36328,0 0.36328,0 1.79297,0.04687 v -0.433594 l -0.65625,-0.04687 c -0.49219,-0.02344 -0.52735,-0.128906 -0.52735,-1.03125 v -4.054687 h 1.76954 l 0.10546,-0.761719 -1.875,0.05859 v -1.21875 c 0,-1.652344 0.17579,-2.050781 0.9961,-2.050781 0.38672,0 0.64453,0.09375 0.99609,0.398437 l 0.16406,-0.08203 z m 7.11036,3.621093 -0.12891,-0.05859 c -0.73828,0.304687 -1.47656,0.503906 -2.23828,0.585937 v 0.398438 h 0.52734 c 0.57422,0 0.63281,0.105468 0.63281,1.054687 v 2.332031 c 0,0.316407 -0.19921,0.714844 -0.52734,1.054688 -0.41016,0.398437 -0.86719,0.597656 -1.42969,0.597656 -0.49218,0 -0.90234,-0.152344 -1.125,-0.433594 -0.19922,-0.222656 -0.30468,-0.667968 -0.30468,-1.300781 v -4.230469 l -0.12891,-0.05859 c -0.72656,0.304687 -1.47656,0.503906 -2.23828,0.585937 v 0.398438 h 0.52734 c 0.57422,0 0.63281,0.105468 0.63281,1.054687 v 2.402344 c 0,1.007812 0.0937,1.453125 0.35157,1.816406 0.30468,0.421875 0.85547,0.644531 1.67578,0.644531 0.64453,0 1.21875,-0.199218 1.60547,-0.5625 l 0.96093,-0.890625 c 0,0.421875 -0.0117,0.644532 -0.0586,1.324219 0.96094,-0.04687 0.97266,-0.04687 1.19531,-0.04687 0.19922,0 0.19922,0 1.1836,0.04687 v -0.433594 l -0.58594,-0.04687 c -0.49219,-0.02344 -0.52734,-0.117187 -0.52734,-1.03125 z m 7.31543,6.714844 c 0.8789,-0.04687 0.89062,-0.04687 1.13671,-0.04687 0.19922,0 0.19922,0 1.1836,0.04687 v -0.433594 l -0.58594,-0.04687 c -0.49219,-0.02344 -0.52734,-0.117187 -0.52734,-1.03125 V 31.63495 c 0,-1.675781 -0.79688,-2.496093 -2.40235,-2.496093 -0.52734,0 -0.83203,0.105468 -1.125,0.363281 l -1.08984,0.9375 V 29.19745 l -0.12891,-0.05859 c -0.73828,0.304687 -1.48828,0.503906 -2.23828,0.585937 v 0.398438 h 0.52735 c 0.57421,0 0.63281,0.105468 0.63281,1.054687 v 3.222656 c 0,0.902344 -0.0469,1.007813 -0.53906,1.03125 l -0.64454,0.04687 v 0.433594 c 0.98438,-0.03516 1.3711,-0.04687 1.78125,-0.04687 0.42188,0 0.8086,0.01172 1.78125,0.04687 v -0.433594 l -0.64453,-0.04687 c -0.49218,-0.02344 -0.52734,-0.128906 -0.52734,-1.03125 v -3.035156 c 0,-0.644531 0.9375,-1.347656 1.81641,-1.347656 0.96093,0 1.59375,0.714844 1.59375,1.816406 z m 8.18554,-4.511719 c 0,-0.65625 0.0703,-1.242187 0.21094,-1.757812 -0.57422,-0.351563 -1.07813,-0.503906 -1.66406,-0.503906 -0.69141,0 -1.5,0.269531 -2.35547,0.820312 -1.00781,0.632813 -1.53516,1.628906 -1.53516,2.894531 0,1.933594 1.35938,3.292969 3.28125,3.292969 0.75,0 1.82813,-0.269531 1.96875,-0.480469 l 0.30469,-0.457031 -0.15234,-0.222656 c -0.52735,0.292969 -0.98438,0.421875 -1.5,0.421875 -1.59375,0 -2.63672,-1.230469 -2.63672,-3.128906 0,-1.535157 0.71484,-2.390625 2.0039,-2.390625 0.63282,0 1.32422,0.28125 1.58203,0.644531 l 0.0937,0.867187 z m 3.34571,-2.203125 -0.12891,-0.05859 c -0.72656,0.304687 -1.47656,0.503906 -2.23828,0.585937 v 0.398438 h 0.52734 c 0.57422,0 0.63281,0.105468 0.63281,1.054687 v 3.222656 c 0,0.902344 -0.0351,1.007813 -0.52734,1.03125 l -0.65625,0.04687 v 0.433594 c 1.42969,-0.04687 1.42969,-0.04687 1.79297,-0.04687 0.35156,0 0.35156,0 1.79297,0.04687 v -0.433594 l -0.66797,-0.04687 c -0.48047,-0.02344 -0.52734,-0.128906 -0.52734,-1.03125 z m -0.65625,-3.1875 c -0.4336,0 -0.8086,0.375 -0.8086,0.808594 0,0.410156 0.375,0.785156 0.79688,0.785156 0.41015,0 0.79687,-0.375 0.79687,-0.785156 0,-0.410156 -0.38672,-0.808594 -0.78515,-0.808594 z m 6.13183,3.128907 c -2.08594,0 -3.53906,1.476562 -3.53906,3.609375 0,2.027343 1.27734,3.398437 3.1289,3.398437 2.20313,0 3.78516,-1.523437 3.78516,-3.679687 0,-1.933594 -1.40625,-3.328125 -3.375,-3.328125 z m -0.25781,0.46875 c 1.32422,0 2.29687,1.441406 2.29687,3.386718 0,1.652344 -0.72656,2.683594 -1.88672,2.683594 -1.40625,0 -2.35546,-1.371094 -2.35546,-3.410156 0,-1.722656 0.6914,-2.660156 1.94531,-2.660156 z m -1.17188,-0.996094 h 0.57422 l 2.0625,-1.300781 c 0.48047,-0.292969 0.57422,-0.410157 0.57422,-0.667969 0,-0.269531 -0.19922,-0.492188 -0.44531,-0.492188 -0.21094,0 -0.46875,0.164063 -0.78516,0.480469 z m 11.15039,7.300781 c 0.87891,-0.04687 0.89063,-0.04687 1.13672,-0.04687 0.19922,0 0.19922,0 1.1836,0.04687 v -0.433594 l -0.58594,-0.04687 c -0.49219,-0.02344 -0.52734,-0.117187 -0.52734,-1.03125 V 31.63495 c 0,-1.675781 -0.79688,-2.496093 -2.40235,-2.496093 -0.52734,0 -0.83203,0.105468 -1.125,0.363281 l -1.08984,0.9375 V 29.19745 l -0.12891,-0.05859 c -0.73828,0.304687 -1.48828,0.503906 -2.23828,0.585937 v 0.398438 h 0.52734 c 0.57422,0 0.63282,0.105468 0.63282,1.054687 v 3.222656 c 0,0.902344 -0.0469,1.007813 -0.53907,1.03125 l -0.64453,0.04687 v 0.433594 c 0.98438,-0.03516 1.3711,-0.04687 1.78125,-0.04687 0.42188,0 0.8086,0.01172 1.78125,0.04687 v -0.433594 l -0.64453,-0.04687 c -0.49219,-0.02344 -0.52734,-0.128906 -0.52734,-1.03125 v -3.035156 c 0,-0.644531 0.9375,-1.347656 1.8164,-1.347656 0.96094,0 1.59375,0.714844 1.59375,1.816406 z m 9.33692,-6.714844 -0.12891,-0.05859 c -0.72656,0.304687 -1.47656,0.503906 -2.23828,0.585937 v 0.398438 h 0.52734 c 0.57422,0 0.63282,0.105468 0.63282,1.054687 v 3.222656 c 0,0.902344 -0.0352,1.007813 -0.52735,1.03125 l -0.65625,0.04687 v 0.433594 c 1.42969,-0.04687 1.42969,-0.04687 1.79297,-0.04687 0.35156,0 0.35156,0 1.79297,0.04687 v -0.433594 l -0.66797,-0.04687 c -0.48047,-0.02344 -0.52734,-0.128906 -0.52734,-1.03125 z m -0.65625,-3.1875 c -0.4336,0 -0.8086,0.375 -0.8086,0.808594 0,0.410156 0.375,0.785156 0.79688,0.785156 0.41016,0 0.79687,-0.375 0.79687,-0.785156 0,-0.410156 -0.38671,-0.808594 -0.78515,-0.808594 z m 2.39355,4.113282 h 0.52735 c 0.57422,0 0.63281,0.105468 0.63281,1.054687 v 3.222656 c 0,0.902344 -0.0352,1.007813 -0.52734,1.03125 l -0.65625,0.04687 v 0.433594 c 1.37109,-0.04687 1.41796,-0.04687 1.8164,-0.04687 0.39844,0 0.77344,0.01172 1.71094,0.04687 V 35.47869 l -0.60938,-0.04687 c -0.48046,-0.02344 -0.52734,-0.128906 -0.52734,-1.03125 v -3.035156 c 0,-0.644531 0.94922,-1.347656 1.80469,-1.347656 0.77344,0 1.3125,0.726562 1.3125,1.816406 v 2.566406 c 0,0.902344 -0.0469,1.007813 -0.53906,1.03125 l -0.65625,0.04687 v 0.433594 c 1.42968,-0.04687 1.42968,-0.04687 1.79296,-0.04687 0.36329,0 0.36329,0 1.79297,0.04687 V 35.47869 l -0.65625,-0.04687 c -0.49218,-0.02344 -0.53906,-0.128906 -0.53906,-1.03125 v -3.035156 c 0,-0.644531 0.94922,-1.347656 1.81641,-1.347656 0.77343,0 1.30078,0.726562 1.30078,1.816406 v 4.078125 c 0.8789,-0.04687 0.89062,-0.04687 1.13672,-0.04687 0.1875,0 0.1875,0 1.27734,0.04687 v -0.433594 l -0.67969,-0.04687 c -0.48047,-0.02344 -0.52734,-0.128906 -0.52734,-1.03125 V 31.44745 c 0,-1.417968 -0.83203,-2.308593 -2.15625,-2.308593 -0.50391,0 -0.91406,0.128906 -1.17188,0.363281 l -1.08984,0.972656 c -0.45703,-0.949219 -1.05469,-1.335937 -2.03906,-1.335937 -0.52735,0 -0.9375,0.128906 -1.19531,0.363281 l -0.98438,0.914062 v -1.21875 l -0.12891,-0.05859 c -0.72656,0.304687 -1.47656,0.503906 -2.23828,0.585937 z m 12.54785,0 h 0.53907 c 0.5625,0 0.62109,0.105468 0.62109,1.054687 v 7.207031 c 0,0.914063 -0.0352,1.007813 -0.52734,1.042969 l -0.65625,0.03516 v 0.433594 c 1.42968,-0.04687 1.42968,-0.04687 1.79297,-0.04687 0.35156,0 0.35156,0 1.79296,0.04687 V 39.46307 l -0.66796,-0.03516 c -0.48047,-0.03516 -0.52735,-0.128906 -0.52735,-1.042969 V 35.67791 c 0.4336,0.257813 0.89063,0.363281 1.53516,0.363281 0.42187,0 0.78515,-0.09375 1.01953,-0.234375 l 1.64062,-1.054687 c 0.57422,-0.375 1.24219,-1.851563 1.24219,-2.777344 0,-1.59375 -1.32422,-2.835937 -2.97656,-2.835937 -0.53906,0 -1.05469,0.140625 -1.27734,0.363281 l -1.1836,1.066406 v -1.371094 l -0.1289,-0.05859 c -0.72657,0.304687 -1.47657,0.503906 -2.23829,0.585937 z m 2.36719,1.347656 c 0,-0.199219 0.0703,-0.351563 0.25781,-0.597656 0.42188,-0.527344 1.00782,-0.796875 1.72266,-0.796875 1.34766,0 2.21484,0.9375 2.21484,2.4375 0,1.605468 -0.96093,2.789062 -2.26171,2.789062 -0.78516,0 -1.3711,-0.257812 -1.9336,-0.84375 z m 10.7666,3.222656 -0.082,1.21875 c 0.9375,-0.04687 0.9375,-0.04687 1.125,-0.04687 0.0703,0 0.4336,0.01172 1.06641,0.04687 v -0.433594 l -0.5625,-0.02344 c -0.35156,-0.02344 -0.41016,-0.140625 -0.41016,-0.832031 v -2.625 c 0,-2.097657 -0.59765,-2.859375 -2.26172,-2.859375 -0.62109,0 -1.18359,0.152343 -1.73437,0.492187 l -0.76172,0.457031 v 0.925782 l 0.375,0.105468 0.1875,-0.445312 c 0.30469,-0.679688 0.44531,-0.773438 1.10156,-0.773438 1.34766,0 1.91016,0.527344 1.95703,1.828125 l -1.42968,0.269532 c -1.94532,0.351562 -2.76563,1.03125 -2.76563,2.273437 0,1.125 0.67969,1.769531 1.80469,1.769531 0.25781,0 0.5039,-0.04687 0.60937,-0.117187 z m 0,-0.609375 c -0.42187,0.585938 -1.32422,1.136719 -1.88672,1.136719 -0.57421,0 -1.07812,-0.527344 -1.07812,-1.148438 0,-0.527343 0.29297,-1.03125 0.72656,-1.300781 0.35156,-0.222656 1.14844,-0.421875 2.23828,-0.574219 z m 2.85059,-3.960937 h 0.52734 c 0.57422,0 0.63282,0.105468 0.63282,1.054687 v 3.222656 c 0,0.902344 -0.0352,1.007813 -0.52735,1.03125 l -0.65625,0.04687 v 0.433594 c 1.03125,-0.03516 1.40625,-0.04687 1.75781,-0.04687 0.29297,0 0.29297,0 2.05079,0.04687 V 35.47869 l -0.73829,-0.04687 c -0.64453,-0.03516 -0.67968,-0.08203 -0.67968,-1.03125 v -2.460937 c 0,-0.867188 0.57422,-1.582031 1.27734,-1.582031 0.43359,0 0.72656,0.199218 0.96094,0.65625 h 0.30469 l 0.1289,-1.722657 c -0.16406,-0.09375 -0.42187,-0.152343 -0.67969,-0.152343 -0.42187,0 -0.89062,0.234375 -1.18359,0.585937 l -0.80859,0.949219 v -1.476563 l -0.12891,-0.05859 c -0.72656,0.304687 -1.47656,0.503906 -2.23828,0.585937 z M 1.4056328,66.246273 v 4.136719 c 0,1.066406 0.46875,1.523438 1.5820313,1.523438 0.328125,0 0.6679687,-0.07031 0.75,-0.175782 l 0.6914062,-0.761718 -0.1875,-0.246094 c -0.3515625,0.199219 -0.5742187,0.28125 -0.84375,0.28125 -0.5625,0 -0.7851562,-0.292969 -0.7851562,-0.996094 v -3.761719 h 1.828125 l 0.1289062,-0.773437 -1.9570312,0.09375 v -0.550781 c 0,-0.597657 0.035156,-1.113282 0.1523437,-2.039063 L 2.6009453,62.824398 c -0.3515625,0.210938 -0.7851562,0.398438 -1.21875,0.539063 0.035156,0.433594 0.046875,0.703125 0.046875,1.136719 v 1.007812 l -1.11328124,0.503906 v 0.292969 z m 7.9248047,4.3125 -0.082031,1.21875 c 0.9374995,-0.04687 0.9374995,-0.04687 1.1249995,-0.04687 0.07031,0 0.433594,0.01172 1.066407,0.04687 V 71.34393 l -0.5625,-0.02344 C 10.52575,71.29705 10.467156,71.179865 10.467156,70.488459 v -2.625 c 0,-2.097656 -0.5976558,-2.859375 -2.2617183,-2.859375 -0.6210937,0 -1.1835937,0.152344 -1.734375,0.492187 L 5.709344,65.953303 v 0.925781 l 0.375,0.105469 0.1875,-0.445313 c 0.3046875,-0.679687 0.4453125,-0.773437 1.1015625,-0.773437 1.3476562,0 1.9101562,0.527343 1.9570312,1.828125 L 7.90075,67.863461 c -1.9453125,0.351562 -2.765625,1.03125 -2.765625,2.273437 0,1.125 0.6796875,1.769532 1.8046875,1.769532 0.2578125,0 0.5039063,-0.04687 0.609375,-0.117188 z m 0,-0.609375 c -0.421875,0.585938 -1.3242187,1.136719 -1.8867187,1.136719 -0.5742188,0 -1.078125,-0.527344 -1.078125,-1.148437 0,-0.527344 0.2929687,-1.03125 0.7265625,-1.300782 0.3515625,-0.222656 1.1484375,-0.421875 2.2382812,-0.574218 z m 8.4023435,1.828125 c 0.878907,-0.04687 0.890625,-0.04687 1.136719,-0.04687 0.199219,0 0.199219,0 1.183594,0.04687 V 71.34393 l -0.585938,-0.04687 c -0.492187,-0.02344 -0.527343,-0.117188 -0.527343,-1.03125 v -2.76563 c 0,-1.675782 -0.796875,-2.496094 -2.402344,-2.496094 -0.527344,0 -0.832031,0.105469 -1.125,0.363281 l -1.089844,0.9375 V 65.06268 l -0.128906,-0.05859 c -0.738281,0.304687 -1.488281,0.503906 -2.238281,0.585937 v 0.398438 h 0.527343 c 0.574219,0 0.632813,0.105469 0.632813,1.054687 v 3.222657 c 0,0.902343 -0.04687,1.007812 -0.539063,1.03125 L 11.932,71.34393 v 0.433593 c 0.984375,-0.03516 1.371094,-0.04687 1.78125,-0.04687 0.421875,0 0.808594,0.01172 1.78125,0.04687 V 71.34393 l -0.644531,-0.04687 c -0.492188,-0.02344 -0.527344,-0.128907 -0.527344,-1.03125 v -3.035157 c 0,-0.644531 0.9375,-1.347656 1.816406,-1.347656 0.960938,0 1.59375,0.714844 1.59375,1.816406 z m 2.572266,-9.527343 h 0.796875 c 0.257812,0 0.363281,0.152343 0.363281,0.585937 v 7.429688 c 0,0.902343 -0.04687,1.007812 -0.539062,1.03125 l -0.644532,0.04687 v 0.433593 c 0.984375,-0.03516 1.371094,-0.04687 1.78125,-0.04687 0.421875,0 0.808594,0.01172 1.78125,0.04687 V 71.34393 l -0.644531,-0.04687 c -0.492187,-0.02344 -0.527344,-0.128907 -0.527344,-1.03125 v -3.035157 c 0,-0.644531 0.9375,-1.347656 1.816407,-1.347656 0.960937,0 1.59375,0.714844 1.59375,1.816406 v 4.078125 c 0.878906,-0.04687 0.890625,-0.04687 1.136718,-0.04687 0.199219,0 0.199219,0 1.183594,0.04687 V 71.34393 l -0.585937,-0.04687 c -0.492188,-0.02344 -0.527344,-0.117188 -0.527344,-1.03125 v -2.76563 c 0,-1.675782 -0.796875,-2.496094 -2.402344,-2.496094 -0.527344,0 -0.832031,0.105469 -1.125,0.363281 l -1.089844,0.9375 v -4.875 L 22.543328,61.31268 c -0.632812,0.246093 -1.113281,0.363281 -2.238281,0.539062 z m 0,0"
         style="fill:#000000;fill-opacity:1;fill-rule:nonzero;stroke:none" />
      <path
         id="path111"
         d="m 33.673211,75.316586 c 0,-0.04687 0,-0.07031 -0.246094,-0.328125 -1.875,-1.886719 -2.355469,-4.710938 -2.355469,-6.996094 0,-2.601562 0.574219,-5.203125 2.414063,-7.078125 0.1875,-0.175781 0.1875,-0.199219 0.1875,-0.246094 0,-0.105468 -0.05859,-0.152343 -0.140625,-0.152343 -0.152344,0 -1.5,1.019531 -2.378906,2.917968 -0.761719,1.640625 -0.949219,3.304688 -0.949219,4.558594 0,1.171875 0.164062,2.976563 0.996094,4.664063 0.890625,1.839843 2.179687,2.8125 2.332031,2.8125 0.08203,0 0.140625,-0.04687 0.140625,-0.152344 z m 0,0"
         style="fill:#000000;fill-opacity:1;fill-rule:nonzero;stroke:none" />
      <path
         id="path112"
         d="m 44.738641,68.297055 c 0.257812,0 0.527343,0 0.527343,-0.304688 0,-0.304687 -0.269531,-0.304687 -0.527343,-0.304687 h -8.085938 c -0.257812,0 -0.527344,0 -0.527344,0.304687 0,0.304688 0.269532,0.304688 0.527344,0.304688 z m 0,0"
         style="fill:#000000;fill-opacity:1;fill-rule:nonzero;stroke:none" />
      <path
         id="path113"
         d="m 53.820672,70.324398 c -0.539063,0.445313 -0.878906,0.5625 -1.113281,0.5625 -0.210938,0 -0.386719,-0.04687 -0.527344,-0.316406 -0.128906,-0.269531 -0.304688,-0.878906 -0.375,-1.3125 -0.03516,-0.234375 -0.07031,-0.457031 -0.09375,-0.667969 0.421875,-0.574218 0.84375,-1.207031 1.054687,-1.523437 0.199219,-0.304688 0.738282,-1.160156 0.820313,-1.441406 -0.08203,-0.164063 -0.140625,-0.292969 -0.234375,-0.503907 -0.03516,-0.03516 -0.152344,-0.07031 -0.210938,-0.105468 -0.328125,1.195312 -0.515625,1.59375 -1.042968,2.4375 -0.05859,0.09375 -0.292969,0.445312 -0.457032,0.691406 -0.257812,-1.722656 -0.316406,-2.121094 -0.410156,-2.625 -0.128906,-0.644531 -0.527344,-0.703125 -0.832031,-0.703125 -0.316406,0.01172 -0.785156,0.257812 -1.253906,0.703125 -0.351563,0.316406 -0.621094,0.691406 -0.878907,1.136719 -0.632812,1.277343 -1.089843,2.976562 -1.089843,4.125 0,0.480468 0.210937,1.101562 0.539062,1.101562 0.5625,0 1.019531,-0.28125 1.464844,-0.609375 0.609375,-0.515625 1.253906,-1.160156 1.699219,-1.664062 0.152343,1.488281 0.585937,2.273437 1.125,2.273437 0.316406,0 0.761718,-0.234375 1.242187,-0.65625 l 0.703125,-0.632812 z m -3,-1.160156 c -0.421875,0.492188 -0.832031,0.914063 -1.195313,1.21875 -0.445312,0.375 -0.84375,0.503906 -1.101562,0.503906 -0.1875,0 -0.257813,-0.199218 -0.257813,-0.574218 0,-0.925782 0.234375,-2.472657 0.703125,-3.65625 0.1875,-0.480469 0.539063,-0.890625 0.855469,-0.890625 0.421875,0 0.574219,0.257812 0.667969,0.890625 z m 0,0"
         style="fill:#000000;fill-opacity:1;fill-rule:nonzero;stroke:none" />
      <path
         id="path114"
         d="m 59.120477,67.992367 c 0,-1.171875 -0.164063,-2.976562 -0.984375,-4.664062 -0.902344,-1.839844 -2.191407,-2.8125 -2.34375,-2.8125 -0.08203,0 -0.140625,0.05859 -0.140625,0.152343 0,0.04687 0,0.07031 0.28125,0.339844 1.464843,1.476563 2.320312,3.855469 2.320312,6.984375 0,2.554688 -0.550781,5.191406 -2.414062,7.078125 -0.1875,0.175781 -0.1875,0.199219 -0.1875,0.246094 0,0.09375 0.05859,0.152344 0.140625,0.152344 0.152343,0 1.5,-1.019532 2.378906,-2.917969 0.761719,-1.640625 0.949219,-3.304688 0.949219,-4.558594 z M 75.207391,66.84393 c 0.222656,0 0.503906,0 0.503906,-0.304688 0,-0.292969 -0.28125,-0.292969 -0.492188,-0.292969 h -8.953125 c -0.210937,0 -0.503906,0 -0.503906,0.292969 0,0.304688 0.292969,0.304688 0.515625,0.304688 z m 0.01172,2.894531 c 0.210938,0 0.492188,0 0.492188,-0.292969 0,-0.304687 -0.28125,-0.304687 -0.503906,-0.304687 h -8.929688 c -0.222656,0 -0.515625,0 -0.515625,0.304687 0,0.292969 0.292969,0.292969 0.503906,0.292969 z m 0,0"
         style="fill:#000000;fill-opacity:1;fill-rule:nonzero;stroke:none" />
      <path
         id="path115"
         d="m 90.752313,68.297055 c 0.257812,0 0.527343,0 0.527343,-0.304688 0,-0.304687 -0.269531,-0.304687 -0.527343,-0.304687 h -8.085938 c -0.257812,0 -0.527344,0 -0.527344,0.304687 0,0.304688 0.269532,0.304688 0.527344,0.304688 z m 0,0"
         style="fill:#000000;fill-opacity:1;fill-rule:nonzero;stroke:none" />
      <path
         id="path116"
         d="m 96.4945,66.246273 v 4.136719 c 0,1.066406 0.46875,1.523438 1.582031,1.523438 0.328125,0 0.667969,-0.07031 0.75,-0.175782 l 0.691407,-0.761718 -0.1875,-0.246094 c -0.351563,0.199219 -0.574219,0.28125 -0.84375,0.28125 -0.5625,0 -0.785157,-0.292969 -0.785157,-0.996094 v -3.761719 h 1.828125 l 0.128907,-0.773437 -1.957032,0.09375 v -0.550781 c 0,-0.597657 0.03516,-1.113282 0.152344,-2.039063 l -0.164062,-0.152344 c -0.351563,0.210938 -0.785157,0.398438 -1.21875,0.539063 0.03516,0.433594 0.04687,0.703125 0.04687,1.136719 v 1.007812 l -1.113282,0.503906 v 0.292969 z m 7.9248,4.3125 -0.082,1.21875 c 0.9375,-0.04687 0.9375,-0.04687 1.125,-0.04687 0.0703,0 0.4336,0.01172 1.06641,0.04687 V 71.34393 l -0.5625,-0.02344 c -0.35156,-0.02344 -0.41016,-0.140625 -0.41016,-0.832031 v -2.625 c 0,-2.097656 -0.59765,-2.859375 -2.26172,-2.859375 -0.62109,0 -1.18359,0.152344 -1.73437,0.492187 l -0.76172,0.457032 v 0.925781 l 0.375,0.105469 0.1875,-0.445313 c 0.30469,-0.679687 0.44531,-0.773437 1.10156,-0.773437 1.34766,0 1.91016,0.527343 1.95703,1.828125 l -1.42968,0.269531 c -1.94532,0.351562 -2.76563,1.03125 -2.76563,2.273437 0,1.125 0.67969,1.769532 1.80469,1.769532 0.25781,0 0.50391,-0.04687 0.60937,-0.117188 z m 0,-0.609375 c -0.42187,0.585938 -1.32421,1.136719 -1.88671,1.136719 -0.57422,0 -1.07813,-0.527344 -1.07813,-1.148437 0,-0.527344 0.29297,-1.03125 0.72656,-1.300782 0.35157,-0.222656 1.14844,-0.421875 2.23828,-0.574218 z m 8.40235,1.828125 c 0.8789,-0.04687 0.89062,-0.04687 1.13672,-0.04687 0.19922,0 0.19922,0 1.18359,0.04687 V 71.34393 l -0.58594,-0.04687 c -0.49218,-0.02344 -0.52734,-0.117188 -0.52734,-1.03125 v -2.76563 c 0,-1.675782 -0.79688,-2.496094 -2.40234,-2.496094 -0.52735,0 -0.83204,0.105469 -1.125,0.363281 l -1.08985,0.9375 V 65.06268 l -0.1289,-0.05859 c -0.73829,0.304687 -1.48829,0.503906 -2.23829,0.585937 v 0.398438 h 0.52735 c 0.57422,0 0.63281,0.105469 0.63281,1.054687 v 3.222657 c 0,0.902343 -0.0469,1.007812 -0.53906,1.03125 l -0.64453,0.04687 v 0.433593 c 0.98437,-0.03516 1.37109,-0.04687 1.78125,-0.04687 0.42187,0 0.80859,0.01172 1.78125,0.04687 V 71.34393 l -0.64453,-0.04687 c -0.49219,-0.02344 -0.52735,-0.128907 -0.52735,-1.03125 v -3.035157 c 0,-0.644531 0.9375,-1.347656 1.81641,-1.347656 0.96094,0 1.59375,0.714844 1.59375,1.816406 z m 2.57226,-9.527343 h 0.79688 c 0.25781,0 0.36328,0.152343 0.36328,0.585937 v 7.429688 c 0,0.902343 -0.0469,1.007812 -0.53906,1.03125 l -0.64453,0.04687 v 0.433593 c 0.98437,-0.03516 1.37109,-0.04687 1.78125,-0.04687 0.42187,0 0.80859,0.01172 1.78125,0.04687 V 71.34393 l -0.64453,-0.04687 c -0.49219,-0.02344 -0.52735,-0.128907 -0.52735,-1.03125 v -3.035157 c 0,-0.644531 0.9375,-1.347656 1.81641,-1.347656 0.96094,0 1.59375,0.714844 1.59375,1.816406 v 4.078125 c 0.8789,-0.04687 0.89062,-0.04687 1.13672,-0.04687 0.19922,0 0.19922,0 1.18359,0.04687 V 71.34393 l -0.58594,-0.04687 c -0.49218,-0.02344 -0.52734,-0.117188 -0.52734,-1.03125 v -2.76563 c 0,-1.675782 -0.79688,-2.496094 -2.40234,-2.496094 -0.52735,0 -0.83204,0.105469 -1.125,0.363281 l -1.08985,0.9375 v -4.875 l -0.1289,-0.117187 c -0.63282,0.246093 -1.11329,0.363281 -2.23829,0.539062 z m 0,0"
         style="fill:#000000;fill-opacity:1;fill-rule:nonzero;stroke:none" />
      <path
         id="path117"
         d="m 128.76208,75.316586 c 0,-0.04687 0,-0.07031 -0.2461,-0.328125 -1.875,-1.886719 -2.35546,-4.710938 -2.35546,-6.996094 0,-2.601562 0.57421,-5.203125 2.41406,-7.078125 0.1875,-0.175781 0.1875,-0.199219 0.1875,-0.246094 0,-0.105468 -0.0586,-0.152343 -0.14063,-0.152343 -0.15234,0 -1.5,1.019531 -2.3789,2.917968 -0.76172,1.640625 -0.94922,3.304688 -0.94922,4.558594 0,1.171875 0.16406,2.976563 0.99609,4.664063 0.89063,1.839843 2.17969,2.8125 2.33203,2.8125 0.082,0 0.14063,-0.04687 0.14063,-0.152344 z m 0,0"
         style="fill:#000000;fill-opacity:1;fill-rule:nonzero;stroke:none" />
      <path
         id="path118"
         d="m 136.93298,70.324398 c -0.53907,0.445313 -0.87891,0.5625 -1.11328,0.5625 -0.21094,0 -0.38672,-0.04687 -0.52735,-0.316406 -0.1289,-0.269531 -0.30469,-0.878906 -0.375,-1.3125 -0.0351,-0.234375 -0.0703,-0.457031 -0.0937,-0.667969 0.42188,-0.574218 0.84375,-1.207031 1.05469,-1.523437 0.19922,-0.304688 0.73828,-1.160156 0.82031,-1.441406 -0.082,-0.164063 -0.14062,-0.292969 -0.23437,-0.503907 -0.0352,-0.03516 -0.15235,-0.07031 -0.21094,-0.105468 -0.32813,1.195312 -0.51563,1.59375 -1.04297,2.4375 -0.0586,0.09375 -0.29297,0.445312 -0.45703,0.691406 -0.25781,-1.722656 -0.31641,-2.121094 -0.41016,-2.625 -0.1289,-0.644531 -0.52734,-0.703125 -0.83203,-0.703125 -0.3164,0.01172 -0.78515,0.257812 -1.2539,0.703125 -0.35157,0.316406 -0.6211,0.691406 -0.87891,1.136719 -0.63281,1.277343 -1.08984,2.976562 -1.08984,4.125 0,0.480468 0.21093,1.101562 0.53906,1.101562 0.5625,0 1.01953,-0.28125 1.46484,-0.609375 0.60938,-0.515625 1.25391,-1.160156 1.69922,-1.664062 0.15234,1.488281 0.58594,2.273437 1.125,2.273437 0.31641,0 0.76172,-0.234375 1.24219,-0.65625 l 0.70312,-0.632812 z m -3,-1.160156 c -0.42188,0.492188 -0.83203,0.914063 -1.19532,1.21875 -0.44531,0.375 -0.84375,0.503906 -1.10156,0.503906 -0.1875,0 -0.25781,-0.199218 -0.25781,-0.574218 0,-0.925782 0.23437,-2.472657 0.70312,-3.65625 0.1875,-0.480469 0.53907,-0.890625 0.85547,-0.890625 0.42188,0 0.57422,0.257812 0.66797,0.890625 z m 0,0"
         style="fill:#000000;fill-opacity:1;fill-rule:nonzero;stroke:none" />
      <path
         id="path119"
         d="m 142.22985,67.992367 c 0,-1.171875 -0.16406,-2.976562 -0.98437,-4.664062 -0.90235,-1.839844 -2.19141,-2.8125 -2.34375,-2.8125 -0.082,0 -0.14063,0.05859 -0.14063,0.152343 0,0.04687 0,0.07031 0.28125,0.339844 1.46485,1.476563 2.32031,3.855469 2.32031,6.984375 0,2.554688 -0.55078,5.191406 -2.41406,7.078125 -0.1875,0.175781 -0.1875,0.199219 -0.1875,0.246094 0,0.09375 0.0586,0.152344 0.14063,0.152344 0.15234,0 1.5,-1.019532 2.3789,-2.917969 0.76172,-1.640625 0.94922,-3.304688 0.94922,-4.558594 z m 0,0"
         style="fill:#000000;fill-opacity:1;fill-rule:nonzero;stroke:none" />
    </g>
  </g>
</svg>
