<?xml version="1.0" encoding="UTF-8" standalone="no"?>
<!-- Created with Inkscape (http://www.inkscape.org/) -->

<svg
   version="1.1"
   id="svg1"
   width="125.78616"
   height="22.012579"
   viewBox="0 0 125.78616 22.012579"
   sodipodi:docname="10.pdf"
   inkscape:export-batch-path="Akemicos\Akdemicos-Front\public"
   inkscape:export-batch-name="fconstante"
   xmlns:inkscape="http://www.inkscape.org/namespaces/inkscape"
   xmlns:sodipodi="http://sodipodi.sourceforge.net/DTD/sodipodi-0.dtd"
   xmlns="http://www.w3.org/2000/svg"
   xmlns:svg="http://www.w3.org/2000/svg">
  <defs
     id="defs1">
    <clipPath
       clipPathUnits="userSpaceOnUse"
       id="clipPath1799">
      <rect
         style="fill:#000000;fill-opacity:1;stroke:#000000;stroke-width:1.3;stroke-dasharray:none;stroke-opacity:1"
         id="rect1800"
         width="125.78616"
         height="22.012579"
         x="111.32076"
         y="387.42139" />
    </clipPath>
  </defs>
  <sodipodi:namedview
     id="namedview1"
     pagecolor="#ffffff"
     bordercolor="#000000"
     borderopacity="0.25"
     inkscape:showpageshadow="2"
     inkscape:pageopacity="0.0"
     inkscape:pagecheckerboard="0"
     inkscape:deskcolor="#d1d1d1">
    <inkscape:page
       x="0"
       y="0"
       width="125.78616"
       height="22.012579"
       id="page1"
       margin="0"
       bleed="0" />
  </sodipodi:namedview>
  <g
     id="g1"
     inkscape:groupmode="layer"
     inkscape:label="1"
     clip-path="url(#clipPath1799)"
     style="stroke:#000000;stroke-opacity:1"
     transform="translate(-111.32076,-387.42139)">
    <path
       id="path733"
       d="m 107.36,377.60001 h 197.76 v 40.63998 H 107.36 Z"
       style="fill:#ffffff;fill-opacity:1;fill-rule:nonzero;stroke:#000000;stroke-opacity:1" />
    <path
       id="path734"
       d="m 0,0 c 0,0.16 0,0.32 0,0.32 0,0.8 0.64,1.44 1.44,1.44 1.92,0 4.01,-2.24 5.13,-5.6 l 2.56,-8.17 -0.16,-0.16 c -0.64,0.16 -0.96,0.32 -1.44,0.32 l -0.64,2.4 c -0.16,0.96 -0.8,2.24 -1.44,3.2 -0.65,0.96 -1.61,1.77 -1.93,1.77 -0.32,0 -0.48,-0.49 -0.48,-0.97 L 3.2,-5.61 3.36,-9.13 c 0.16,-0.64 0.16,-1.28 0.16,-1.92 0,-0.8 -0.16,-1.12 -0.48,-1.12 -0.16,0 -0.48,0.16 -1.44,0.8 l -1.44,0.96 0.16,0.32 0.96,-0.48 h 0.16 c 0.16,-0.16 0.16,-0.32 0.32,-0.32 0.32,0 0.32,0.48 0.32,0.96 0,0.16 0,0.16 0,0.32 l -0.32,4.48 v 0.81 c 0,0.64 0.32,1.28 0.8,1.28 0.64,0 2.24,-1.61 3.69,-3.69 l -0.96,3.21 c -0.97,3.2 -1.93,4.48 -3.21,4.48 -0.64,0 -1.12,-0.48 -1.12,-1.12 0,0 0,-0.16 0.16,-0.32 L 0.8,-0.64 Z"
       style="fill:#000000;fill-opacity:1;fill-rule:nonzero;stroke:#000000;stroke-opacity:1"
       transform="translate(118.16,405.89999)" />
    <path
       id="path735"
       d="M 0,0 C 0.17,0 0.65,0 0.65,-0.32 0.65,-0.64 0.17,-0.64 0,-0.64 h -11.54 c -0.16,0 -0.64,0 -0.64,0.32 0,0.32 0.48,0.32 0.64,0.32 z m 0,3.84 c 0.17,0 0.65,0 0.65,-0.48 C 0.65,3.04 0.17,3.04 0,3.04 h -11.54 c -0.16,0 -0.64,0 -0.64,0.32 0,0.48 0.48,0.48 0.64,0.48 z"
       style="fill:#000000;fill-opacity:1;fill-rule:nonzero;stroke:#000000;stroke-opacity:1"
       transform="translate(146.2,396.29001)" />
    <path
       id="path736"
       d="M 0,0 C 0,-0.48 0.16,-0.8 0.32,-1.12 L 0.16,-1.28 0,-1.12 c -0.32,0 -0.64,0 -1.44,0 h -0.32 l 0.32,-1.93 c 0.32,-1.6 0.8,-2.4 1.76,-2.4 0.48,0 0.96,0.32 1.28,0.8 l 0.16,-0.16 c 0.16,-0.16 0.32,-0.8 0.48,-1.12 v -0.32 c -0.32,-0.16 -0.8,-0.32 -1.28,-0.32 -0.16,0 -0.48,0.16 -0.64,0.16 -0.32,0.32 -1.92,1.44 -2.24,1.76 -0.48,0.48 -0.64,0.96 -0.96,2.09 l -0.16,1.44 c -0.81,0.32 -1.13,0.48 -1.61,0.64 L -4.81,0 h 1.44 l -0.16,0.96 c -0.48,3.52 -1.12,7.05 -1.6,8.33 -0.32,0.96 -0.8,1.6 -1.44,1.6 -0.48,0 -0.64,-0.16 -0.96,-0.48 h -0.32 c 0,0.48 -0.32,1.28 -0.48,1.44 0.16,0.16 0.48,0.16 0.64,0.16 0.8,0 1.76,-0.64 2.56,-1.44 1.12,-1.28 1.44,-2.56 2.89,-8.97 0,-0.32 0.16,-0.96 0.32,-1.6 z"
       style="fill:#000000;fill-opacity:1;fill-rule:nonzero;stroke:#000000;stroke-opacity:1"
       transform="translate(161.11,395.64999)" />
    <path
       id="path737"
       d="m 0,0 c 0,0 0,-0.16 -0.32,-0.48 -2.41,-2.4 -3.05,-5.93 -3.05,-8.81 0,-3.36 0.64,-6.73 3.05,-9.13 C 0,-18.58 0,-18.74 0,-18.74 c 0,-0.16 -0.16,-0.16 -0.16,-0.16 -0.32,0 -1.93,1.279999 -3.05,3.68 -1.12,2.09 -1.28,4.33 -1.28,5.93 0,1.44 0.16,3.69 1.28,5.93 1.12,2.4 2.73,3.52 3.05,3.52 0,0 0.16,0 0.16,-0.16 z"
       style="fill:#000000;fill-opacity:1;fill-rule:nonzero;stroke:#000000;stroke-opacity:1"
       transform="translate(170.25,407.17999)" />
    <path
       id="path738"
       d="m 0,0 c 0,0.49 -0.16,0.65 -0.16,1.29 0,0.16 -0.16,0.16 -0.16,0.32 0.32,0.16 0.64,0.32 0.8,0.32 0.64,0 1.28,-0.64 1.92,-1.44 l 1.45,-2.09 0.16,1.12 c 0.16,1.61 0.64,2.41 1.28,2.41 0.48,0 0.96,-0.32 1.6,-0.96 L 7.85,0.16 7.69,-0.16 C 7.05,0.49 6.57,0.65 6.25,0.65 5.93,0.65 5.77,0.49 5.45,0.16 5.29,-0.16 5.13,-0.8 5.13,-1.44 L 4.81,-3.2 5.45,-4.16 c 0.8,-1.12 1.28,-1.6 1.92,-1.6 0.16,0 0.48,0.16 0.48,0.48 l 0.32,-0.16 0.33,-1.6 c -0.33,0 -0.49,-0.16 -0.65,-0.16 -0.64,0 -1.44,0.64 -2.56,2.4 L 4.65,-3.84 4.49,-4.64 C 4.33,-6.56 3.85,-7.2 2.73,-7.2 2.24,-7.2 1.76,-7.04 1.6,-6.72 l -0.96,1.44 0.32,0.16 c 0.48,-0.64 0.8,-0.8 1.28,-0.8 0.49,0 0.97,0.64 1.29,2.56 l 0.16,1.12 -0.8,1.12 C 2.24,0.16 1.6,0.65 0.96,0.65 0.8,0.65 0.48,0.65 0.48,0.49 L 0.32,0 Z"
       style="fill:#000000;fill-opacity:1;fill-rule:nonzero;stroke:#000000;stroke-opacity:1"
       transform="translate(172.49,400.92999)" />
    <path
       id="path739"
       d="m 0,0 c 0,-1.6 -0.16,-3.84 -1.29,-6.09 -1.12,-2.24 -2.72,-3.52 -2.88,-3.52 -0.16,0 -0.32,0 -0.32,0.16 0,0 0,0.16 0.48,0.48 1.76,1.92 2.88,4.97 2.88,8.97 0,3.2 -0.64,6.57 -3.04,8.97 -0.32,0.16 -0.32,0.32 -0.32,0.32 0,0.16 0.16,0.16 0.32,0.16 0.16,0 1.76,-1.28 3.04,-3.68 C -0.16,3.69 0,1.6 0,0 Z"
       style="fill:#000000;fill-opacity:1;fill-rule:nonzero;stroke:#000000;stroke-opacity:1"
       transform="translate(187.39999,397.89001)" />
    <path
       id="path740"
       d="M 0,0 C 0.32,0 0.64,0 0.64,-0.32 0.64,-0.64 0.32,-0.64 0,-0.64 h -11.38 c -0.32,0 -0.64,0 -0.64,0.32 0,0.32 0.32,0.32 0.64,0.32 z m 0,3.84 c 0.32,0 0.64,0 0.64,-0.48 C 0.64,3.04 0.32,3.04 0,3.04 h -11.38 c -0.32,0 -0.64,0 -0.64,0.32 0,0.48 0.32,0.48 0.64,0.48 z"
       style="fill:#000000;fill-opacity:1;fill-rule:nonzero;stroke:#000000;stroke-opacity:1"
       transform="translate(207.91,396.29001)" />
    <path
       id="path741"
       d="m 0,0 h 0.48 c 0.16,-1.28 0.16,-1.92 0.48,-2.4 -0.48,-0.32 -1.12,-0.48 -1.77,-0.48 -0.96,0 -2.24,0.64 -3.36,1.6 -0.96,0.96 -1.6,2.88 -1.6,4.8 0,1.77 0.8,2.73 2.24,2.73 0.96,0 1.76,-0.48 2.88,-1.28 L 0.32,4.32 0.16,3.84 -0.16,4 c -1.29,0.97 -2.09,1.29 -2.73,1.29 -0.96,0 -1.44,-0.81 -1.44,-2.25 0,-1.92 0.64,-3.84 1.44,-4.48 0.48,-0.32 0.8,-0.48 1.44,-0.48 0.8,0 1.45,0.32 1.45,0.8 z"
       style="fill:#000000;fill-opacity:1;fill-rule:nonzero;stroke:#000000;stroke-opacity:1"
       transform="translate(221.53999,396.60999)" />
  </g>
</svg>
