<?xml version="1.0" encoding="UTF-8" standalone="no"?>
<!-- Created with Inkscape (http://www.inkscape.org/) -->

<svg
   version="1.1"
   id="svg1"
   width="304.7619"
   height="32.380951"
   viewBox="0 0 304.7619 32.380951"
   sodipodi:docname="10.pdf"
   inkscape:export-batch-path="Akemicos\Akdemicos-Front\public"
   inkscape:export-batch-name="flineal"
   xmlns:inkscape="http://www.inkscape.org/namespaces/inkscape"
   xmlns:sodipodi="http://sodipodi.sourceforge.net/DTD/sodipodi-0.dtd"
   xmlns="http://www.w3.org/2000/svg"
   xmlns:svg="http://www.w3.org/2000/svg">
  <defs
     id="defs1">
    <clipPath
       clipPathUnits="userSpaceOnUse"
       id="clipPath1795">
      <rect
         style="fill:#000000;fill-opacity:1;stroke:#000000;stroke-width:1.3;stroke-dasharray:none;stroke-opacity:1"
         id="rect1796"
         width="304.7619"
         height="32.380951"
         x="108.57143"
         y="495.2381" />
    </clipPath>
  </defs>
  <sodipodi:namedview
     id="namedview1"
     pagecolor="#ffffff"
     bordercolor="#000000"
     borderopacity="0.25"
     inkscape:showpageshadow="2"
     inkscape:pageopacity="0.0"
     inkscape:pagecheckerboard="0"
     inkscape:deskcolor="#d1d1d1">
    <inkscape:page
       x="0"
       y="0"
       width="304.7619"
       height="32.380951"
       id="page1"
       margin="0"
       bleed="0" />
  </sodipodi:namedview>
  <g
     id="g1"
     inkscape:groupmode="layer"
     inkscape:label="1"
     clip-path="url(#clipPath1795)"
     style="stroke:#000000;stroke-opacity:1"
     transform="translate(-108.57143,-495.2381)">
    <path
       id="path905"
       d="m 107.36,491.51999 h 323.68001 v 40.63998 H 107.36 Z"
       style="fill:#ffffff;fill-opacity:1;fill-rule:nonzero;stroke:#000000;stroke-opacity:1" />
    <path
       id="path906"
       d="m 0,0 c 0,0.16 0,0.32 0,0.32 0,0.8 0.64,1.44 1.44,1.44 1.92,0 4.01,-2.24 5.13,-5.6 l 2.56,-8.01 -0.16,-0.16 c -0.64,0.16 -0.96,0.32 -1.44,0.32 l -0.64,2.4 c -0.16,0.8 -0.8,2.24 -1.44,3.04 -0.65,0.97 -1.61,1.77 -1.93,1.77 -0.32,0 -0.48,-0.48 -0.48,-0.8 L 3.2,-5.6 3.36,-9.13 c 0.16,-0.64 0.16,-1.28 0.16,-1.76 0,-0.8 -0.16,-1.12 -0.48,-1.12 -0.16,0 -0.48,0 -1.44,0.64 l -1.44,1.12 0.16,0.32 0.96,-0.64 h 0.16 c 0.16,-0.16 0.16,-0.16 0.32,-0.16 0.32,0 0.32,0.32 0.32,0.96 0,0 0,0.16 0,0.32 l -0.32,4.33 v 0.8 c 0,0.8 0.32,1.28 0.8,1.28 0.64,0 2.24,-1.6 3.69,-3.69 L 5.29,-3.52 C 4.32,-0.32 3.36,1.12 2.08,1.12 1.44,1.12 0.96,0.64 0.96,0 c 0,-0.16 0,-0.32 0.16,-0.48 H 0.8 Z"
       style="fill:#000000;fill-opacity:1;fill-rule:nonzero;stroke:#000000;stroke-opacity:1"
       transform="translate(118.16,519.63)" />
    <path
       id="path907"
       d="M 0,0 C 0.17,0 0.65,0 0.65,-0.48 0.65,-0.8 0.17,-0.8 0,-0.8 h -11.54 c -0.16,0 -0.64,0 -0.64,0.32 0,0.48 0.48,0.48 0.64,0.48 z m 0,3.69 c 0.17,0 0.65,0 0.65,-0.32 C 0.65,2.88 0.17,2.88 0,2.88 h -11.54 c -0.16,0 -0.64,0 -0.64,0.49 0,0.32 0.48,0.32 0.64,0.32 z"
       style="fill:#000000;fill-opacity:1;fill-rule:nonzero;stroke:#000000;stroke-opacity:1"
       transform="translate(146.2,510.17999)" />
    <path
       id="path908"
       d="M 0,0 C 0,-0.32 0.16,-0.8 0.32,-0.96 L 0.16,-1.12 H 0 c -0.32,0.16 -0.64,0.16 -1.44,0.16 h -0.32 l 0.32,-2.08 c 0.32,-1.61 0.8,-2.25 1.76,-2.25 0.48,0 0.96,0.16 1.28,0.64 h 0.16 c 0.16,-0.32 0.32,-0.96 0.48,-1.28 v -0.32 c -0.32,0 -0.8,-0.16 -1.28,-0.16 -0.16,0 -0.48,0 -0.64,0.16 -0.32,0.16 -1.92,1.28 -2.24,1.77 -0.48,0.32 -0.64,0.96 -0.96,1.92 l -0.16,1.44 c -0.81,0.32 -1.13,0.48 -1.61,0.64 L -4.81,0 h 1.44 l -0.16,0.96 c -0.48,3.69 -1.12,7.05 -1.6,8.33 -0.32,1.12 -0.8,1.6 -1.44,1.6 -0.48,0 -0.64,-0.16 -0.96,-0.48 h -0.32 c 0,0.48 -0.32,1.28 -0.48,1.6 0.16,0 0.48,0 0.64,0 0.8,0 1.76,-0.48 2.56,-1.44 1.12,-1.28 1.44,-2.56 2.89,-8.97 0,-0.16 0.16,-0.96 0.32,-1.6 z"
       style="fill:#000000;fill-opacity:1;fill-rule:nonzero;stroke:#000000;stroke-opacity:1"
       transform="translate(161.11,509.38)" />
    <path
       id="path909"
       d="m 0,0 c 0,0 0,0 -0.32,-0.32 -2.41,-2.4 -3.05,-6.08 -3.05,-8.97 0,-3.36 0.64,-6.72 3.05,-8.97 C 0,-18.58 0,-18.58 0,-18.74 c 0,0 -0.16,-0.16 -0.16,-0.16 -0.32,0 -1.93,1.279999 -3.05,3.85 -1.12,2.08 -1.28,4.16 -1.28,5.76 0,1.44 0.16,3.85 1.28,5.93 1.12,2.4 2.73,3.68 3.05,3.68 C -0.16,0.32 0,0.16 0,0 Z"
       style="fill:#000000;fill-opacity:1;fill-rule:nonzero;stroke:#000000;stroke-opacity:1"
       transform="translate(170.25,520.90997)" />
    <path
       id="path910"
       d="m 0,0 c 0,0.32 -0.16,0.64 -0.16,1.12 0,0.32 -0.16,0.32 -0.16,0.48 0.32,0.16 0.64,0.16 0.8,0.16 0.64,0 1.28,-0.48 1.92,-1.44 l 1.45,-2.09 0.16,1.29 c 0.16,1.6 0.64,2.24 1.28,2.24 0.48,0 0.96,-0.32 1.6,-0.8 L 7.85,0.16 7.69,-0.16 C 7.05,0.32 6.57,0.64 6.25,0.64 5.93,0.64 5.77,0.48 5.45,0 5.29,-0.32 5.13,-0.96 5.13,-1.45 L 4.81,-3.37 5.45,-4.33 c 0.8,-1.12 1.28,-1.6 1.92,-1.6 0.16,0 0.48,0.16 0.48,0.48 L 8.17,-5.61 8.5,-7.05 C 8.17,-7.21 8.01,-7.21 7.85,-7.21 c -0.64,0 -1.44,0.64 -2.56,2.24 L 4.65,-3.85 4.49,-4.81 c -0.16,-1.76 -0.64,-2.4 -1.76,-2.4 -0.49,0 -0.97,0.16 -1.13,0.32 l -0.96,1.6 0.32,0.16 c 0.48,-0.64 0.8,-0.96 1.28,-0.96 0.49,0 0.97,0.8 1.29,2.56 l 0.16,1.12 -0.8,1.13 C 2.24,0 1.6,0.64 0.96,0.64 0.8,0.64 0.48,0.48 0.48,0.48 L 0.32,-0.16 Z"
       style="fill:#000000;fill-opacity:1;fill-rule:nonzero;stroke:#000000;stroke-opacity:1"
       transform="translate(172.49,514.83002)" />
    <path
       id="path911"
       d="m 0,0 c 0,-1.44 -0.16,-3.84 -1.29,-5.92 -1.12,-2.41 -2.72,-3.69 -2.88,-3.69 -0.16,0 -0.32,0.16 -0.32,0.16 0,0.16 0,0.16 0.48,0.48 1.76,1.92 2.88,4.97 2.88,8.97 0,3.21 -0.64,6.57 -3.04,8.97 -0.32,0.32 -0.32,0.32 -0.32,0.32 0,0.16 0.16,0.32 0.32,0.32 0.16,0 1.76,-1.28 3.04,-3.84 C -0.16,3.69 0,1.6 0,0 Z"
       style="fill:#000000;fill-opacity:1;fill-rule:nonzero;stroke:#000000;stroke-opacity:1"
       transform="translate(187.39999,511.62)" />
    <path
       id="path912"
       d="M 0,0 C 0.32,0 0.64,0 0.64,-0.48 0.64,-0.8 0.32,-0.8 0,-0.8 h -11.38 c -0.32,0 -0.64,0 -0.64,0.32 0,0.48 0.32,0.48 0.64,0.48 z m 0,3.69 c 0.32,0 0.64,0 0.64,-0.32 C 0.64,2.88 0.32,2.88 0,2.88 h -11.38 c -0.32,0 -0.64,0 -0.64,0.49 0,0.32 0.32,0.32 0.64,0.32 z"
       style="fill:#000000;fill-opacity:1;fill-rule:nonzero;stroke:#000000;stroke-opacity:1"
       transform="translate(207.91,510.17999)" />
    <path
       id="path913"
       d="M 0,0 -0.48,0.32 C -1.12,0.64 -1.44,0.8 -1.6,0.8 c -0.16,0 -0.32,-0.16 -0.32,-0.32 0,-0.16 0,-0.32 0.16,-0.64 l 1.44,-5.61 c 0,-0.16 0,-0.48 0,-0.64 0,-0.32 -0.16,-0.48 -0.48,-0.48 -0.48,0 -1.12,0.32 -2.25,1.12 -1.28,0.8 -1.92,1.44 -2.72,2.72 l 0.48,-2.56 c 0.16,-0.32 0.16,-0.64 0.16,-0.8 0,-0.32 -0.16,-0.48 -0.48,-0.48 -0.48,0 -1.44,0.32 -2.41,1.12 -0.8,0.64 -1.12,0.96 -2.4,2.56 l 0.64,-2.4 c 0.16,-0.32 0.16,-0.48 0.16,-0.8 0,-0.32 -0.16,-0.48 -0.48,-0.48 -0.32,0 -1.12,0.32 -2.4,1.28 l -0.48,0.32 0.16,0.48 0.48,-0.48 c 0.64,-0.32 0.8,-0.48 0.96,-0.48 0.16,0 0.32,0.32 0.32,0.48 0,0.96 -0.8,4.49 -1.6,7.21 l 0.16,0.16 1.12,-0.32 0.48,-1.92 c 0.48,-1.93 0.96,-3.05 1.92,-4.17 0.8,-0.8 1.61,-1.44 2.09,-1.44 0.16,0 0.16,0.16 0.16,0.48 0,0.64 -0.32,2.72 -1.13,5.93 l -0.32,1.28 0.16,0.16 1.29,-0.32 0.32,-1.92 c 0.32,-1.45 0.96,-2.89 1.76,-3.85 0.96,-1.12 1.92,-1.76 2.56,-1.76 0.17,0 0.17,0.16 0.17,0.48 0,0.48 0,0.8 -0.49,2.4 -0.16,1.12 -0.48,2.25 -0.8,2.89 -0.16,0.48 -0.16,0.96 -0.16,1.28 0,0.48 0.16,0.8 0.48,0.8 0.48,0 1.29,-0.48 3.05,-1.76 z"
       style="fill:#000000;fill-opacity:1;fill-rule:nonzero;stroke:#000000;stroke-opacity:1"
       transform="translate(228.75,514.51001)" />
    <path
       id="path914"
       d="m 0,0 c 0,0.32 0,0.64 -0.16,1.12 0,0.32 0,0.32 0,0.48 0.32,0.16 0.48,0.16 0.8,0.16 0.64,0 1.29,-0.48 1.93,-1.44 l 1.28,-2.09 0.32,1.29 c 0.16,1.6 0.64,2.24 1.28,2.24 0.32,0 0.96,-0.32 1.6,-0.8 L 7.86,0.16 7.7,-0.16 C 7.05,0.32 6.57,0.64 6.25,0.64 6.09,0.64 5.77,0.48 5.61,0 5.45,-0.32 5.29,-0.96 5.13,-1.45 L 4.81,-3.37 5.45,-4.33 c 0.96,-1.12 1.44,-1.6 1.92,-1.6 0.33,0 0.49,0.16 0.65,0.48 L 8.34,-5.61 8.5,-7.05 C 8.34,-7.21 8.18,-7.21 8.02,-7.21 c -0.81,0 -1.45,0.64 -2.57,2.24 l -0.8,1.12 v -0.96 c -0.32,-1.76 -0.8,-2.4 -1.92,-2.4 -0.32,0 -0.8,0.16 -0.97,0.32 l -1.12,1.6 0.32,0.16 c 0.64,-0.64 0.97,-0.96 1.29,-0.96 0.64,0 0.96,0.8 1.28,2.56 l 0.32,1.12 -0.8,1.13 C 2.25,0 1.6,0.64 1.12,0.64 0.8,0.64 0.64,0.48 0.64,0.48 L 0.48,-0.16 Z"
       style="fill:#000000;fill-opacity:1;fill-rule:nonzero;stroke:#000000;stroke-opacity:1"
       transform="translate(230.67,514.83002)" />
    <path
       id="path915"
       d="m 0,0 h 5.45 c 0.16,0 0.64,0 0.64,-0.32 0,-0.32 -0.48,-0.32 -0.64,-0.32 H 0 v -5.44 c 0,-0.32 0,-0.64 -0.32,-0.64 -0.48,0 -0.48,0.32 -0.48,0.64 v 5.44 h -5.29 c -0.32,0 -0.64,0 -0.64,0.32 C -6.73,0 -6.41,0 -6.09,0 h 5.29 v 5.45 c 0,0.16 0,0.64 0.48,0.64 C 0,6.09 0,5.61 0,5.45 Z"
       style="fill:#000000;fill-opacity:1;fill-rule:nonzero;stroke:#000000;stroke-opacity:1"
       transform="translate(251.50999,511.94)" />
    <path
       id="path916"
       d="m 0,0 -0.16,-0.16 c -0.96,0.48 -1.6,0.64 -2.88,0.8 L -3.2,0.96 h 0.96 c 0.32,0 0.64,0.16 0.64,0.48 0,0.16 -0.16,0.33 -0.16,0.49 l -1.76,10.09 c 0,0 0,0 0,0.16 0,0.64 0.8,1.28 1.76,1.28 0.8,0 1.6,-0.32 2.41,-0.96 C 2.41,11.38 3.69,8.81 3.69,6.41 3.69,5.61 3.53,4.97 3.37,4.65 3.21,4.49 2.89,4.49 2.73,4.49 2.25,4.49 1.61,4.65 1.13,4.81 0.17,5.29 -0.32,5.93 -1.6,7.37 Z m 1.61,5.45 c 0.48,0 0.8,0.48 0.8,1.28 0,1.28 -0.48,2.88 -0.96,4.01 -0.64,1.28 -1.28,1.92 -2.41,1.92 -0.8,0 -1.28,-0.48 -1.28,-1.28 0,-0.48 0.16,-0.96 0.32,-1.61 0.32,-1.44 0.8,-2.4 1.44,-3.2 C 0.17,6.09 1.13,5.45 1.61,5.45 Z"
       style="fill:#000000;fill-opacity:1;fill-rule:nonzero;stroke:#000000;stroke-opacity:1"
       transform="translate(266.89001,503.13)" />
    <path
       id="path917"
       d="M 0,0 C -0.48,0.16 -0.8,0.16 -1.76,0.48 -1.92,1.92 -2.4,3.04 -3.52,4.8 L -3.2,5.12 -2.4,4.64 C -0.96,2.72 -0.32,1.6 0.16,0.16 Z"
       style="fill:#000000;fill-opacity:1;fill-rule:nonzero;stroke:#000000;stroke-opacity:1"
       transform="translate(293.5,514.19)" />
    <path
       id="path918"
       d="m 0,0 c 0,-0.8 0,-1.6 0.16,-2.24 -0.64,-0.48 -1.28,-0.64 -2.08,-0.64 -0.8,0 -1.92,0.32 -3.05,1.12 -1.28,0.8 -1.92,2.08 -1.92,3.68 0,2.41 1.76,4.17 4.17,4.17 0.96,0 2.4,-0.32 2.56,-0.64 L 0.16,4.97 0,4.65 c -0.64,0.32 -1.28,0.48 -1.92,0.48 -2.08,0 -3.37,-1.6 -3.37,-4.01 0,-1.92 0.96,-3.04 2.57,-3.04 0.8,0 1.76,0.32 2.08,0.8 L -0.48,0 Z"
       style="fill:#000000;fill-opacity:1;fill-rule:nonzero;stroke:#000000;stroke-opacity:1"
       transform="translate(328.44,510.66)" />
    <path
       id="path919"
       d="m 0,0 c -2.72,0 -4.49,1.92 -4.49,4.64 0,2.57 1.61,4.33 4.01,4.33 2.73,0 4.81,-1.92 4.81,-4.65 C 4.33,1.76 2.57,0 0,0 Z m -0.32,0.64 c 1.6,0 2.89,1.76 2.89,4.32 0,2.09 -0.96,3.37 -2.41,3.37 -1.76,0 -3.04,-1.76 -3.04,-4.33 0,-2.24 0.96,-3.36 2.56,-3.36 z"
       style="fill:#000000;fill-opacity:1;fill-rule:nonzero;stroke:#000000;stroke-opacity:1"
       transform="translate(334.37,507.78)" />
    <path
       id="path920"
       d="m 0,0 c 1.13,0 1.13,0 1.45,0 0.32,0 0.32,0 1.6,0 v -0.48 l -0.8,-0.16 c -0.64,0 -0.64,-0.16 -0.64,-1.28 v -3.53 c 0,-2.08 -0.96,-3.2 -3.05,-3.2 -0.64,0 -1.12,0.16 -1.44,0.48 l -1.44,1.28 v -1.6 l -0.16,-0.16 c -0.97,0.32 -1.93,0.64 -2.89,0.8 v 0.48 h 0.64 c 0.8,0 0.8,0.16 0.8,1.28 v 4.17 c 0,1.12 0,1.28 -0.64,1.28 l -0.8,0.16 V 0 c 1.28,0 1.76,0 2.25,0 0.64,0 1.12,0 2.4,0 v -0.48 l -0.96,-0.16 c -0.64,0 -0.64,-0.16 -0.64,-1.28 v -3.85 c 0,-0.8 1.28,-1.76 2.4,-1.76 1.12,0 1.92,0.96 1.92,2.4 z"
       style="fill:#000000;fill-opacity:1;fill-rule:nonzero;stroke:#000000;stroke-opacity:1"
       transform="translate(346.70999,516.42999)" />
    <path
       id="path921"
       d="m 0,0 -0.48,0.32 c -0.48,0.32 -0.8,0.48 -1.12,0.48 0,0 -0.16,-0.16 -0.16,-0.32 0,-0.16 0,-0.32 0.16,-0.64 l 1.28,-5.61 c 0.16,-0.16 0.16,-0.48 0.16,-0.64 0,-0.32 -0.16,-0.48 -0.48,-0.48 -0.48,0 -1.12,0.32 -2.24,1.12 -1.28,0.8 -1.93,1.44 -2.73,2.72 l 0.48,-2.56 c 0.16,-0.32 0.16,-0.64 0.16,-0.8 0,-0.32 -0.16,-0.48 -0.48,-0.48 -0.48,0 -1.44,0.32 -2.4,1.12 -0.8,0.64 -1.12,0.96 -2.41,2.56 l 0.65,-2.4 c 0,-0.32 0.16,-0.48 0.16,-0.8 0,-0.32 -0.16,-0.48 -0.48,-0.48 -0.33,0 -1.13,0.32 -2.41,1.28 l -0.48,0.32 v 0.48 l 0.64,-0.48 c 0.64,-0.32 0.8,-0.48 0.8,-0.48 0.32,0 0.32,0.32 0.32,0.48 0,0.96 -0.64,4.49 -1.44,7.21 v 0.16 l 1.28,-0.32 0.48,-1.92 c 0.32,-1.93 0.97,-3.05 1.93,-4.17 0.8,-0.8 1.6,-1.44 2.08,-1.44 0.16,0 0.16,0.16 0.16,0.48 0,0.64 -0.32,2.72 -1.12,5.93 l -0.32,1.28 0.16,0.16 1.28,-0.32 0.32,-1.92 c 0.32,-1.45 0.96,-2.89 1.76,-3.85 0.97,-1.12 1.93,-1.76 2.57,-1.76 0.16,0 0.16,0.16 0.16,0.48 0,0.48 0,0.8 -0.48,2.4 -0.32,1.12 -0.64,2.25 -0.8,2.89 -0.16,0.48 -0.16,0.96 -0.16,1.28 0,0.48 0.16,0.8 0.48,0.8 0.48,0 1.12,-0.48 3.04,-1.76 z"
       style="fill:#000000;fill-opacity:1;fill-rule:nonzero;stroke:#000000;stroke-opacity:1"
       transform="translate(368.82999,514.51001)" />
    <path
       id="path922"
       d="M 0,0 C 0.17,-0.32 0.17,-0.32 0.17,-0.32 0.17,-0.48 0,-0.8 -0.32,-0.8 c -0.16,0 -0.16,0.16 -0.32,0.48 l -8.65,16.66 c -0.16,0.32 -0.16,0.32 -0.16,0.32 0,0.16 0.16,0.479999 0.48,0.479999 0.16,0 0.16,-0.159999 0.32,-0.479999 z"
       style="fill:#000000;fill-opacity:1;fill-rule:nonzero;stroke:#000000;stroke-opacity:1"
       transform="translate(387.42001,503.45001)" />
    <path
       id="path923"
       d="M 0,0 C 0.32,0 0.8,0 0.8,-0.48 0.8,-0.8 0.32,-0.8 0.16,-0.8 h -11.54 c -0.32,0 -0.64,0 -0.64,0.32 0,0.48 0.32,0.48 0.64,0.48 z m 0.16,3.69 c 0.16,0 0.64,0 0.64,-0.32 C 0.8,2.88 0.32,2.88 0,2.88 h -11.38 c -0.32,0 -0.64,0 -0.64,0.49 0,0.32 0.32,0.32 0.64,0.32 z"
       style="fill:#000000;fill-opacity:1;fill-rule:nonzero;stroke:#000000;stroke-opacity:1"
       transform="translate(388.87,510.17999)" />
    <path
       id="path924"
       d="m 0,0 c -2.89,0 -4.33,2.25 -4.33,6.73 0,2.08 0.32,4.01 0.96,4.81 0.64,0.96 1.77,1.44 2.89,1.44 2.72,0 4.16,-2.4 4.16,-7.05 C 3.68,1.93 2.4,0 0,0 Z m -0.32,0.64 c 1.76,0 2.4,1.77 2.4,6.25 0,3.85 -0.64,5.45 -2.4,5.45 -1.77,0 -2.57,-1.76 -2.57,-6.25 0,-4 0.8,-5.45 2.57,-5.45 z"
       style="fill:#000000;fill-opacity:1;fill-rule:nonzero;stroke:#000000;stroke-opacity:1"
       transform="translate(400.89001,503.76999)" />
  </g>
</svg>
