<?xml version="1.0" encoding="UTF-8" standalone="no"?>
<!-- Created with Inkscape (http://www.inkscape.org/) -->

<svg
   version="1.1"
   id="svg1"
   width="171.42857"
   height="30.476191"
   viewBox="0 0 171.42857 30.476191"
   sodipodi:docname="10.pdf"
   inkscape:export-batch-path="Akemicos\Akdemicos-Front\public"
   inkscape:export-batch-name="flineal_1"
   xmlns:inkscape="http://www.inkscape.org/namespaces/inkscape"
   xmlns:sodipodi="http://sodipodi.sourceforge.net/DTD/sodipodi-0.dtd"
   xmlns="http://www.w3.org/2000/svg"
   xmlns:svg="http://www.w3.org/2000/svg">
  <defs
     id="defs1">
    <clipPath
       clipPathUnits="userSpaceOnUse"
       id="clipPath1796">
      <rect
         style="fill:#000000;fill-opacity:1;stroke:#000000;stroke-width:1.3;stroke-dasharray:none;stroke-opacity:1"
         id="rect1797"
         width="171.42857"
         height="30.476191"
         x="110.47619"
         y="732.38098" />
    </clipPath>
  </defs>
  <sodipodi:namedview
     id="namedview1"
     pagecolor="#ffffff"
     bordercolor="#000000"
     borderopacity="0.25"
     inkscape:showpageshadow="2"
     inkscape:pageopacity="0.0"
     inkscape:pagecheckerboard="0"
     inkscape:deskcolor="#d1d1d1">
    <inkscape:page
       x="0"
       y="0"
       width="171.42857"
       height="30.476191"
       id="page1"
       margin="0"
       bleed="0" />
  </sodipodi:namedview>
  <g
     id="g1"
     inkscape:groupmode="layer"
     inkscape:label="1"
     clip-path="url(#clipPath1796)"
     style="stroke:#000000;stroke-opacity:1"
     transform="translate(-110.47619,-732.38098)">
    <path
       id="path1454"
       d="m 107.36,725.12 h 197.76 v 40.79998 H 107.36 Z"
       style="fill:#ffffff;fill-opacity:1;fill-rule:nonzero;stroke:#000000;stroke-opacity:1" />
    <path
       id="path1455"
       d="m 0,0 c 0,0.16 0,0.32 0,0.32 0,0.8 0.64,1.44 1.44,1.44 1.92,0 4.01,-2.24 5.13,-5.6 l 2.56,-8.17 -0.16,-0.16 c -0.64,0.32 -0.96,0.32 -1.44,0.48 l -0.64,2.4 c -0.16,0.8 -0.8,2.08 -1.44,3.05 -0.65,0.96 -1.61,1.76 -1.93,1.76 -0.32,0 -0.48,-0.48 -0.48,-0.96 L 3.2,-5.6 3.36,-9.13 c 0.16,-0.64 0.16,-1.28 0.16,-1.76 0,-0.96 -0.16,-1.28 -0.48,-1.28 -0.16,0 -0.48,0.16 -1.44,0.8 l -1.44,0.96 0.16,0.32 0.96,-0.48 h 0.16 c 0.16,-0.16 0.16,-0.16 0.32,-0.16 0.32,0 0.32,0.32 0.32,0.96 0,0 0,0 0,0.16 l -0.32,4.49 v 0.8 c 0,0.8 0.32,1.28 0.8,1.28 0.64,0 2.24,-1.6 3.69,-3.68 l -0.96,3.2 c -0.97,3.2 -1.93,4.48 -3.21,4.48 -0.64,0 -1.12,-0.48 -1.12,-1.12 0,0 0,-0.16 0.16,-0.32 L 0.8,-0.64 Z"
       style="fill:#000000;fill-opacity:1;fill-rule:nonzero;stroke:#000000;stroke-opacity:1"
       transform="translate(118.16,753.34003)" />
    <path
       id="path1456"
       d="M 0,0 C 0.32,0 0.64,0 0.64,-0.32 0.64,-0.8 0.32,-0.8 0,-0.8 h -10.42 c -0.32,0 -0.64,0 -0.64,0.48 0,0.32 0.32,0.32 0.64,0.32 z"
       style="fill:#000000;fill-opacity:1;fill-rule:nonzero;stroke:#000000;stroke-opacity:1"
       transform="translate(144.11999,745.65002)" />
    <path
       id="path1457"
       d="m 0,0 c 0,0.16 0,0.32 0,0.32 0,0.8 0.64,1.44 1.6,1.44 1.93,0 3.85,-2.24 4.97,-5.6 l 2.57,-8.17 -0.16,-0.16 c -0.48,0.32 -0.96,0.32 -1.45,0.48 l -0.64,2.4 c -0.16,0.8 -0.8,2.08 -1.44,3.05 -0.64,0.96 -1.44,1.76 -1.92,1.76 -0.16,0 -0.32,-0.48 -0.32,-0.96 V -5.6 l 0.32,-3.53 c 0,-0.64 0,-1.28 0,-1.76 0,-0.96 -0.16,-1.28 -0.48,-1.28 -0.16,0 -0.48,0.16 -1.29,0.8 l -1.6,0.96 0.32,0.32 0.8,-0.48 h 0.16 c 0.16,-0.16 0.32,-0.16 0.32,-0.16 0.33,0 0.49,0.32 0.49,0.96 0,0 0,0 0,0.16 l -0.32,4.49 v 0.8 c 0,0.8 0.32,1.28 0.64,1.28 0.8,0 2.24,-1.6 3.68,-3.68 l -0.96,3.2 C 4.33,-0.32 3.53,0.96 2.25,0.96 1.6,0.96 1.12,0.48 1.12,-0.16 c 0,0 0,-0.16 0,-0.32 L 0.96,-0.64 Z"
       style="fill:#000000;fill-opacity:1;fill-rule:nonzero;stroke:#000000;stroke-opacity:1"
       transform="translate(150.21001,753.34003)" />
    <path
       id="path1458"
       d="m 0,0 h 0.16 l 1.6,-0.8 c 0,0 0,0 0,0 0.16,0 0.16,0.16 0.16,0.48 v 6.09 c 0,0.64 -0.16,0.8 -0.8,0.8 l -0.8,0.16 v 0.32 c 2.08,0 2.08,0 2.08,0 0.32,0 0.48,0 0.97,0 0.16,0 0.64,0 1.12,0 V 6.73 L 3.85,6.57 c -0.8,0 -0.8,-0.16 -0.8,-0.8 V -1.76 H 2.88 C 1.92,-1.44 1.12,-0.96 0,-0.64 Z"
       style="fill:#000000;fill-opacity:1;fill-rule:nonzero;stroke:#000000;stroke-opacity:1"
       transform="translate(160.63,745.81)" />
    <path
       id="path1459"
       d="M 0,0 C 0.16,0 0.64,0 0.64,-0.48 0.64,-0.8 0.16,-0.8 0,-0.8 h -11.54 c -0.32,0 -0.64,0 -0.64,0.32 0,0.48 0.32,0.48 0.64,0.48 z m 0,3.69 c 0.16,0 0.64,0 0.64,-0.48 C 0.64,2.89 0.16,2.89 0,2.89 h -11.54 c -0.32,0 -0.64,0 -0.64,0.32 0,0.48 0.32,0.48 0.64,0.48 z"
       style="fill:#000000;fill-opacity:1;fill-rule:nonzero;stroke:#000000;stroke-opacity:1"
       transform="translate(185.14999,743.89001)" />
    <path
       id="path1460"
       d="M 0,0 -0.48,0.32 C -1.12,0.64 -1.44,0.8 -1.6,0.8 c -0.16,0 -0.32,-0.16 -0.32,-0.32 0,-0.16 0,-0.32 0.16,-0.8 l 1.44,-5.45 c 0,-0.32 0,-0.64 0,-0.64 0,-0.32 -0.16,-0.64 -0.48,-0.64 -0.48,0 -1.12,0.32 -2.25,1.12 -1.28,0.96 -1.92,1.6 -2.72,2.72 l 0.48,-2.4 c 0.16,-0.48 0.16,-0.64 0.16,-0.8 0,-0.32 -0.16,-0.64 -0.48,-0.64 -0.48,0 -1.44,0.48 -2.41,1.28 -0.8,0.64 -1.12,0.96 -2.4,2.56 l 0.64,-2.4 c 0.16,-0.32 0.16,-0.64 0.16,-0.8 0,-0.32 -0.16,-0.64 -0.48,-0.64 -0.32,0 -1.12,0.48 -2.4,1.44 l -0.48,0.32 0.16,0.32 0.48,-0.32 c 0.64,-0.48 0.8,-0.48 0.96,-0.48 0.16,0 0.32,0.16 0.32,0.48 0,0.96 -0.8,4.49 -1.6,7.05 l 0.16,0.32 1.12,-0.32 0.48,-1.92 c 0.48,-2.09 0.96,-3.05 1.92,-4.17 0.8,-0.8 1.61,-1.44 2.09,-1.44 0.16,0 0.16,0.16 0.16,0.48 0,0.64 -0.32,2.72 -1.13,5.93 l -0.32,1.12 0.16,0.32 1.29,-0.32 0.32,-1.92 c 0.32,-1.61 0.96,-2.89 1.76,-3.85 0.96,-1.12 1.92,-1.76 2.57,-1.76 0.16,0 0.16,0.16 0.16,0.48 0,0.48 0,0.64 -0.49,2.24 -0.16,1.28 -0.48,2.25 -0.8,2.89 -0.16,0.64 -0.16,1.12 -0.16,1.44 0,0.48 0.16,0.8 0.48,0.8 0.48,0 1.29,-0.48 3.05,-1.76 z"
       style="fill:#000000;fill-opacity:1;fill-rule:nonzero;stroke:#000000;stroke-opacity:1"
       transform="translate(205.83,748.21997)" />
    <path
       id="path1461"
       d="m 0,0 c 0,0 0,0 -0.32,-0.32 -2.24,-2.4 -2.88,-6.08 -2.88,-8.97 0,-3.36 0.64,-6.72 3.04,-9.13 C 0,-18.58 0,-18.58 0,-18.74 c 0,-0.16 0,-0.16 -0.16,-0.16 -0.16,0 -1.92,1.279999 -3.04,3.69 -0.97,2.08 -1.13,4.32 -1.13,5.92 0,1.45 0.16,3.69 1.29,5.93 1.12,2.4 2.72,3.52 2.88,3.52 C 0,0.16 0,0.16 0,0 Z"
       style="fill:#000000;fill-opacity:1;fill-rule:nonzero;stroke:#000000;stroke-opacity:1"
       transform="translate(213.36,754.62)" />
    <path
       id="path1462"
       d="m 0,0 c 0,0.32 0,0.48 0,1.12 -0.16,0.16 -0.16,0.32 -0.16,0.32 0.32,0.16 0.64,0.32 0.8,0.32 0.64,0 1.28,-0.48 1.92,-1.44 l 1.28,-2.08 0.32,1.28 c 0.16,1.44 0.64,2.24 1.29,2.24 0.48,0 0.96,-0.32 1.6,-0.8 L 7.85,0.16 7.69,-0.32 C 7.05,0.32 6.57,0.64 6.41,0.64 6.09,0.64 5.77,0.32 5.61,0 5.45,-0.32 5.28,-0.96 5.12,-1.6 L 4.8,-3.37 5.45,-4.33 c 0.96,-1.12 1.44,-1.6 1.92,-1.6 0.32,0 0.64,0.16 0.64,0.48 L 8.33,-5.61 8.49,-7.05 C 8.33,-7.21 8.17,-7.37 8.01,-7.37 c -0.8,0 -1.44,0.64 -2.56,2.4 L 4.8,-4.01 4.64,-4.81 c -0.32,-1.92 -0.8,-2.56 -1.76,-2.56 -0.48,0 -0.96,0.16 -1.12,0.48 l -1.12,1.44 0.32,0.16 c 0.64,-0.48 0.96,-0.8 1.28,-0.8 0.64,0 1.12,0.8 1.44,2.56 l 0.16,1.12 -0.8,1.13 C 2.24,0 1.6,0.48 1.12,0.48 0.8,0.48 0.64,0.48 0.64,0.32 L 0.48,-0.16 Z"
       style="fill:#000000;fill-opacity:1;fill-rule:nonzero;stroke:#000000;stroke-opacity:1"
       transform="translate(215.61,748.53998)" />
    <path
       id="path1463"
       d="M 0,0 C 0.32,0 0.64,0 0.64,-0.32 0.64,-0.8 0.32,-0.8 0,-0.8 h -10.26 c -0.32,0 -0.64,0 -0.64,0.48 0,0.32 0.32,0.32 0.64,0.32 z"
       style="fill:#000000;fill-opacity:1;fill-rule:nonzero;stroke:#000000;stroke-opacity:1"
       transform="translate(241.25,745.65002)" />
    <path
       id="path1464"
       d="m 0,0 c 0,0.32 0,0.48 -0.16,1.12 0,0.16 0,0.32 -0.16,0.32 0.32,0.16 0.64,0.32 0.8,0.32 0.64,0 1.45,-0.48 1.93,-1.44 l 1.44,-2.08 0.16,1.28 c 0.32,1.44 0.64,2.24 1.28,2.24 0.48,0 1.12,-0.32 1.6,-0.8 L 7.86,0.16 7.7,-0.32 C 7.05,0.32 6.57,0.64 6.25,0.64 5.93,0.64 5.77,0.32 5.61,0 5.45,-0.32 5.13,-0.96 5.13,-1.6 L 4.81,-3.37 5.45,-4.33 c 0.8,-1.12 1.28,-1.6 1.93,-1.6 0.32,0 0.48,0.16 0.64,0.48 L 8.18,-5.61 8.5,-7.05 C 8.34,-7.21 8.02,-7.37 7.86,-7.37 c -0.64,0 -1.45,0.64 -2.57,2.4 L 4.65,-4.01 4.49,-4.81 C 4.33,-6.73 3.85,-7.37 2.73,-7.37 c -0.48,0 -0.8,0.16 -0.96,0.48 l -1.13,1.44 0.32,0.16 c 0.49,-0.48 0.97,-0.8 1.29,-0.8 0.64,0 0.96,0.8 1.28,2.56 l 0.16,1.12 -0.64,1.13 C 2.25,0 1.61,0.48 1.12,0.48 0.8,0.48 0.64,0.48 0.48,0.32 L 0.32,-0.16 Z"
       style="fill:#000000;fill-opacity:1;fill-rule:nonzero;stroke:#000000;stroke-opacity:1"
       transform="translate(248.3,748.53998)" />
    <path
       id="path1465"
       d="m 0,0 h 0.16 l 1.76,-0.8 c 0,0 0,0 0,0 0,0 0,0.16 0,0.48 v 6.09 c 0,0.64 0,0.8 -0.8,0.8 L 0.48,6.73 v 0.32 c 1.92,0 1.92,0 2.08,0 0.16,0 0.48,0 0.81,0 0.16,0 0.64,0 1.12,0 V 6.73 L 3.85,6.57 C 3.21,6.57 3.04,6.41 3.04,5.77 V -1.76 H 2.88 C 2.08,-1.44 1.12,-0.96 0,-0.64 Z"
       style="fill:#000000;fill-opacity:1;fill-rule:nonzero;stroke:#000000;stroke-opacity:1"
       transform="translate(258.07999,745.81)" />
    <path
       id="path1466"
       d="m 0,0 c 0,-1.6 -0.32,-3.84 -1.28,-6.08 -1.12,-2.25 -2.89,-3.53 -3.05,-3.53 -0.16,0 -0.16,0.16 -0.16,0.16 0,0.16 0,0.16 0.32,0.48 1.93,1.93 3.05,4.97 3.05,8.97 0,3.21 -0.8,6.57 -3.21,8.97 -0.16,0.32 -0.16,0.32 -0.16,0.32 0,0.16 0,0.16 0.16,0.16 0.16,0 1.93,-1.28 3.05,-3.68 C -0.32,3.69 0,1.61 0,0 Z"
       style="fill:#000000;fill-opacity:1;fill-rule:nonzero;stroke:#000000;stroke-opacity:1"
       transform="translate(269.94,745.33002)" />
  </g>
</svg>
