<?xml version="1.0" encoding="UTF-8" standalone="no"?>
<!-- Created with Inkscape (http://www.inkscape.org/) -->

<svg
   version="1.1"
   id="svg1"
   width="179.16667"
   height="42.5"
   viewBox="0 0 179.16667 42.5"
   sodipodi:docname="writetex.pdf"
   inkscape:export-batch-path="C:\Users\Akdemicos\Desktop\Akemicos\Akdemicos-Front\public"
   inkscape:export-batch-name="FReciproca"
   xmlns:inkscape="http://www.inkscape.org/namespaces/inkscape"
   xmlns:sodipodi="http://sodipodi.sourceforge.net/DTD/sodipodi-0.dtd"
   xmlns="http://www.w3.org/2000/svg"
   xmlns:svg="http://www.w3.org/2000/svg">
  <defs
     id="defs1">
    <clipPath
       clipPathUnits="userSpaceOnUse"
       id="clipPath255">
      <rect
         style="fill:#000000;stroke-width:1.43781"
         id="rect255"
         width="179.16667"
         height="42.5"
         x="1812.5"
         y="491.66666" />
    </clipPath>
  </defs>
  <sodipodi:namedview
     id="namedview1"
     pagecolor="#ffffff"
     bordercolor="#000000"
     borderopacity="0.25"
     inkscape:showpageshadow="2"
     inkscape:pageopacity="0.0"
     inkscape:pagecheckerboard="0"
     inkscape:deskcolor="#d1d1d1"
     showgrid="false">
    <inkscape:page
       x="0"
       y="0"
       width="179.16667"
       height="42.5"
       id="page1"
       margin="0"
       bleed="0" />
  </sodipodi:namedview>
  <g
     id="g192"
     inkscape:groupmode="layer"
     inkscape:label="3"
     clip-path="url(#clipPath255)"
     style="fill:none;fill-opacity:1;stroke:#000000;stroke-opacity:1"
     transform="translate(-1812.5,-491.66666)">
    <path
       id="path237"
       d="M 0,0 H 250.682 V 53.614 H 0 Z"
       style="fill:none;fill-opacity:1;fill-rule:nonzero;stroke:#000000;stroke-opacity:1"
       transform="matrix(1.3333333,0,0,-1.3333333,1803.6613,548.65067)" />
    <g
       id="g237"
       aria-label="y=f(x)=x&#10;−1&#10;=&#10;1"
       transform="matrix(1.3333333,0,0,1.3333333,1819.84,519.40667)"
       style="fill:none;fill-opacity:1;stroke:#000000;stroke-opacity:1">
      <path
         id="path238"
         d="m -0.10558594,2.5778125 c -0.0117188,0.1054687 -0.0117188,0.1875 -0.0117188,0.2578125 0,0.6210937 0.52734375,1.125 1.18359374,1.125 1.5117188,0 3.09375,-1.78125 3.9375,-4.4296875 L 7.0311328,-6.7854688 6.8670703,-6.914375 C 6.4569141,-6.7620313 6.1287891,-6.6682813 5.8123828,-6.6448438 L 5.3084766,-4.7464063 C 5.1326953,-4.0784375 4.6287891,-3.02375 4.1600391,-2.320625 3.6561328,-1.5940625 2.9530078,-0.96125 2.6366016,-0.96125 c -0.1640625,0 -0.2929688,-0.328125 -0.28125,-0.6914063 l 0.011719,-0.1875 L 2.5780078,-4.6175 c 0.035156,-0.4453125 0.058594,-0.9960938 0.058594,-1.3945313 0,-0.6445312 -0.09375,-0.9023437 -0.3398438,-0.9023437 -0.1875,0 -0.3867187,0.1054687 -1.078125,0.5742187 l -1.17187499,0.8085938 0.15234375,0.2578125 0.71484375,-0.4335938 0.0585938,-0.046875 C 1.1131641,-5.83625 1.2186328,-5.883125 1.2772266,-5.883125 c 0.1992187,0 0.3164062,0.2695312 0.3164062,0.75 0,0.011719 0,0.09375 -0.011719,0.2109375 L 1.3358203,-1.43 1.3241016,-0.85578125 c 0,0.59765625 0.2578125,1.0078125 0.609375,1.0078125 0.5390625,0 1.734375,-1.21875005 2.8125,-2.83593755 l -0.703125,2.4492188 C 3.3162891,2.3082812 2.6014453,3.35125 1.5936328,3.35125 c -0.5039062,0 -0.89062499,-0.3867188 -0.89062499,-0.8789063 0,-0.082031 0.0117188,-0.1875 0.0234375,-0.3164062 l -0.140625,-0.058594 z m 0,0"
         style="fill:none;fill-opacity:1;fill-rule:nonzero;stroke:#000000;stroke-opacity:1" />
      <path
         id="path239"
         d="m 21.793828,-4.8870313 c 0.222656,0 0.503906,0 0.503906,-0.3046875 0,-0.2929687 -0.28125,-0.2929687 -0.492187,-0.2929687 h -8.953125 c -0.210938,0 -0.503906,0 -0.503906,0.2929687 0,0.3046875 0.292968,0.3046875 0.515625,0.3046875 z m 0.01172,2.8945313 c 0.210937,0 0.492187,0 0.492187,-0.2929688 0,-0.3046875 -0.28125,-0.3046875 -0.503906,-0.3046875 h -8.929687 c -0.222657,0 -0.515625,0 -0.515625,0.3046875 0,0.2929688 0.292968,0.2929688 0.503906,0.2929688 z m 0,0"
         style="fill:none;fill-opacity:1;fill-rule:nonzero;stroke:#000000;stroke-opacity:1" />
      <path
         id="path240"
         d="m 33.448125,-5.4964063 c 0.05859,-0.2695312 0.164063,-0.5976562 0.246094,-0.796875 L 33.635629,-6.39875 33.53016,-6.363594 c -0.339843,0.082031 -0.492187,0.09375 -1.195312,0.09375 h -0.234375 l 0.304687,-1.6054687 c 0.222657,-1.2304688 0.632813,-1.78125 1.289063,-1.78125 0.433594,0 0.820312,0.2226562 1.03125,0.5625 l 0.140625,-0.058594 c 0.07031,-0.2226562 0.222656,-0.6679687 0.328125,-0.9609373 l 0.08203,-0.210937 c -0.234375,-0.105469 -0.679687,-0.1875 -1.007812,-0.1875 -0.164063,0 -0.386719,0.03516 -0.503907,0.09375 -0.339843,0.164062 -1.523437,1.0429681 -1.851562,1.3828118 -0.316406,0.3164063 -0.492188,0.75 -0.644531,1.5585938 L 31.0575,-6.3401563 c -0.597656,0.28125 -0.878906,0.3984375 -1.242187,0.5273438 L 29.745,-5.4964063 h 1.160156 l -0.128906,0.8085938 c -0.421875,2.7890625 -0.960937,5.4609375 -1.277344,6.4570312 -0.257812,0.84375 -0.679687,1.2890625 -1.195312,1.2890625 -0.339844,0 -0.492188,-0.1054687 -0.75,-0.421875 L 27.354375,2.695 c -0.05859,0.328125 -0.257812,1.0195312 -0.328125,1.1484375 0.128906,0.070312 0.339844,0.1171875 0.503906,0.1171875 0.585938,0 1.359375,-0.4453125 1.921875,-1.125 0.867188,-1.03125 1.183594,-2.02734375 2.238282,-7.0664063 0.03516,-0.1757812 0.152343,-0.7148437 0.269531,-1.265625 z m 0,0"
         style="fill:none;fill-opacity:1;fill-rule:nonzero;stroke:#000000;stroke-opacity:1" />
      <path
         id="path241"
         d="m 40.576055,3.585625 c 0,-0.046875 0,-0.070312 -0.246094,-0.328125 -1.875,-1.8867188 -2.355469,-4.7109375 -2.355469,-6.9960938 0,-2.6015625 0.574219,-5.203125 2.414063,-7.0781252 0.1875,-0.175781 0.1875,-0.199219 0.1875,-0.246094 0,-0.105468 -0.05859,-0.152343 -0.140625,-0.152343 -0.152344,0 -1.5,1.019531 -2.378907,2.9179685 -0.761718,1.640625 -0.949218,3.3046875 -0.949218,4.5585937 0,1.171875 0.164062,2.97656255 0.996093,4.66406255 0.890625,1.83984375 2.179688,2.81249995 2.332032,2.81249995 0.08203,0 0.140625,-0.046875 0.140625,-0.1523437 z m 0,0"
         style="fill:none;fill-opacity:1;fill-rule:nonzero;stroke:#000000;stroke-opacity:1" />
      <path
         id="path242"
         d="m 42.333867,-1.2659375 c 0,0.29296875 -0.03516,0.48046875 -0.117187,0.9375 -0.03516,0.17578125 -0.04687,0.2109375 -0.05859,0.31640625 0.210937,0.1171875 0.445312,0.1640625 0.621094,0.1640625 0.46875,0 1.03125,-0.41015625 1.476562,-1.08984375 l 1.08984,-1.6757813 0.152344,0.9960938 c 0.1875,1.21875 0.515625,1.76953125 1.03125,1.76953125 0.316406,0 0.773437,-0.234375 1.242187,-0.65625 l 0.703125,-0.63281255 -0.128906,-0.2695312 c -0.527344,0.43359375 -0.878906,0.64453125 -1.113281,0.64453125 -0.210938,0 -0.398438,-0.140625 -0.539063,-0.43359375 -0.128906,-0.2695313 -0.292969,-0.796875 -0.363281,-1.21875 l -0.257813,-1.4414063 0.503907,-0.703125 c 0.679687,-0.9375 1.066406,-1.265625 1.511718,-1.265625 0.222657,0 0.398438,0.1171875 0.46875,0.328125 L 48.755742,-5.555 48.96668,-6.77375 c -0.164063,-0.09375 -0.292969,-0.140625 -0.421875,-0.140625 -0.574219,0 -1.148438,0.515625 -2.039063,1.8398437 l -0.527344,0.7851563 -0.09375,-0.6914063 C 45.720586,-6.39875 45.333867,-6.914375 44.478398,-6.914375 c -0.375,0 -0.679687,0.1171875 -0.808593,0.3046875 l -0.832032,1.1835937 0.234375,0.1523438 c 0.433594,-0.4921875 0.726563,-0.6914063 0.996094,-0.6914063 0.46875,0 0.785156,0.5859375 1.03125,1.9921875 l 0.152344,0.890625 -0.574219,0.890625 c -0.609375,0.9609375 -1.101562,1.4179688 -1.5,1.4179688 -0.210937,0 -0.375,-0.0585938 -0.398437,-0.12890625 L 42.615117,-1.3010938 Z m 0,0"
         style="fill:none;fill-opacity:1;fill-rule:nonzero;stroke:#000000;stroke-opacity:1" />
      <path
         id="path243"
         d="m 54.02625,-3.7385938 c 0,-1.171875 -0.164062,-2.9765625 -0.984375,-4.6640625 -0.902344,-1.8398437 -2.191406,-2.8124997 -2.34375,-2.8124997 -0.08203,0 -0.140625,0.05859 -0.140625,0.152343 0,0.04687 0,0.07031 0.28125,0.339844 1.464844,1.4765627 2.320313,3.855469 2.320313,6.9843752 0,2.5546875 -0.550782,5.1914063 -2.414063,7.078125 -0.1875,0.1757813 -0.1875,0.1992188 -0.1875,0.2460938 0,0.09375 0.05859,0.1523437 0.140625,0.1523437 0.152344,0 1.5,-1.0195312 2.378906,-2.9179687 0.761719,-1.640625 0.949219,-3.3046875 0.949219,-4.5585938 z m 16.086914,-1.1484375 c 0.222656,0 0.503906,0 0.503906,-0.3046875 0,-0.2929687 -0.28125,-0.2929687 -0.492187,-0.2929687 h -8.953125 c -0.210938,0 -0.503906,0 -0.503906,0.2929687 0,0.3046875 0.292968,0.3046875 0.515625,0.3046875 z m 0.01172,2.8945313 c 0.210937,0 0.492187,0 0.492187,-0.2929688 0,-0.3046875 -0.28125,-0.3046875 -0.503906,-0.3046875 h -8.929687 c -0.222657,0 -0.515625,0 -0.515625,0.3046875 0,0.2929688 0.292968,0.2929688 0.503906,0.2929688 z m 0,0"
         style="fill:none;fill-opacity:1;fill-rule:nonzero;stroke:#000000;stroke-opacity:1" />
      <path
         id="path244"
         d="m 76.353398,-1.2659375 c 0,0.29296875 -0.03516,0.48046875 -0.117187,0.9375 -0.03516,0.17578125 -0.04687,0.2109375 -0.05859,0.31640625 0.210938,0.1171875 0.445313,0.1640625 0.621094,0.1640625 0.46875,0 1.03125,-0.41015625 1.476562,-1.08984375 l 1.089844,-1.6757813 0.152344,0.9960938 c 0.1875,1.21875 0.515625,1.76953125 1.03125,1.76953125 0.316406,0 0.773437,-0.234375 1.242187,-0.65625 l 0.703125,-0.63281255 -0.128906,-0.2695312 c -0.527344,0.43359375 -0.878906,0.64453125 -1.113281,0.64453125 -0.210938,0 -0.398438,-0.140625 -0.539063,-0.43359375 -0.128906,-0.2695313 -0.292968,-0.796875 -0.363281,-1.21875 l -0.257812,-1.4414063 0.503906,-0.703125 c 0.679687,-0.9375 1.066406,-1.265625 1.511719,-1.265625 0.222656,0 0.398437,0.1171875 0.46875,0.328125 L 82.775273,-5.555 82.986211,-6.77375 c -0.164063,-0.09375 -0.292969,-0.140625 -0.421875,-0.140625 -0.574219,0 -1.148438,0.515625 -2.039063,1.8398437 L 79.99793,-4.289375 79.90418,-4.9807813 C 79.740117,-6.39875 79.353398,-6.914375 78.49793,-6.914375 c -0.375,0 -0.679688,0.1171875 -0.808594,0.3046875 l -0.832031,1.1835937 0.234375,0.1523438 c 0.433593,-0.4921875 0.726562,-0.6914063 0.996093,-0.6914063 0.46875,0 0.785157,0.5859375 1.03125,1.9921875 l 0.152344,0.890625 -0.574219,0.890625 c -0.609375,0.9609375 -1.101562,1.4179688 -1.5,1.4179688 -0.210937,0 -0.375,-0.0585938 -0.398437,-0.12890625 L 76.634648,-1.3010938 Z m 0,0"
         style="fill:none;fill-opacity:1;fill-rule:nonzero;stroke:#000000;stroke-opacity:1" />
      <path
         id="path245"
         d="m 90.515508,-7.5999219 c 0.175781,0 0.363281,0 0.363281,-0.2109375 0,-0.1992187 -0.1875,-0.1992187 -0.363281,-0.1992187 h -5.613281 c -0.1875,0 -0.363282,0 -0.363282,0.1992187 0,0.2109375 0.175782,0.2109375 0.363282,0.2109375 z m 0,0"
         style="fill:none;fill-opacity:1;fill-rule:nonzero;stroke:#000000;stroke-opacity:1" />
      <path
         id="path246"
         d="m 92.534063,-10.740547 h 0.09375 l 1.289062,-0.574219 c 0.01172,-0.01172 0.02344,-0.01172 0.03516,-0.01172 0.05859,0 0.07031,0.09375 0.07031,0.328125 v 4.8281246 c 0,0.5273438 -0.105469,0.6328125 -0.644531,0.65625 l -0.550782,0.035156 v 0.3046875 c 1.535157,-0.035156 1.535157,-0.035156 1.640625,-0.035156 0.128907,0 0.351563,0 0.691407,0.011719 0.117187,0.011719 0.457031,0.011719 0.867187,0.023437 v -0.3046875 l -0.515625,-0.035156 c -0.550781,-0.023437 -0.644531,-0.1289062 -0.644531,-0.65625 v -5.9062496 l -0.140625,-0.04687 c -0.644531,0.339843 -1.359375,0.632812 -2.261719,0.960937 z m 0,0"
         style="fill:none;fill-opacity:1;fill-rule:nonzero;stroke:#000000;stroke-opacity:1" />
      <path
         id="path247"
         d="m 111.78504,-4.8870313 c 0.22266,0 0.50391,0 0.50391,-0.3046875 0,-0.2929687 -0.28125,-0.2929687 -0.49219,-0.2929687 h -8.95313 c -0.21093,0 -0.5039,0 -0.5039,0.2929687 0,0.3046875 0.29297,0.3046875 0.51562,0.3046875 z m 0.0117,2.8945313 c 0.21094,0 0.49219,0 0.49219,-0.2929688 0,-0.3046875 -0.28125,-0.3046875 -0.50391,-0.3046875 h -8.92969 c -0.22265,0 -0.51562,0 -0.51562,0.3046875 0,0.2929688 0.29297,0.2929688 0.5039,0.2929688 z m 0,0"
         style="fill:none;fill-opacity:1;fill-rule:nonzero;stroke:#000000;stroke-opacity:1" />
      <path
         id="path248"
         d="m 119.8241,-17.669258 h 0.14063 l 1.85156,-0.832031 c 0.0117,-0.02344 0.0352,-0.02344 0.0469,-0.02344 0.082,0 0.11719,0.128907 0.11719,0.480469 v 6.949219 c 0,0.75 -0.16406,0.914062 -0.9375,0.949219 l -0.79687,0.04687 v 0.4335934 c 2.20312,-0.046875 2.20312,-0.046875 2.35547,-0.046875 0.1875,0 0.5039,0 0.99609,0.011719 0.17578,0.011719 0.66797,0.011719 1.26562,0.035156 v -0.4335934 l -0.75,-0.04687 c -0.78515,-0.03516 -0.9375,-0.199219 -0.9375,-0.949219 v -8.496094 l -0.19921,-0.07031 c -0.92579,0.480468 -1.94532,0.914062 -3.25782,1.371093 z m 0,0"
         style="fill:none;fill-opacity:1;fill-rule:nonzero;stroke:#000000;stroke-opacity:1" />
    </g>
    <path
       id="path249"
       d="M 0,0 H 7.919"
       style="fill:none;fill-opacity:1;stroke:#000000;stroke-width:0.574;stroke-linecap:butt;stroke-linejoin:miter;stroke-miterlimit:10;stroke-dasharray:none;stroke-opacity:1"
       transform="matrix(1.3333333,0,0,-1.3333333,1977.8253,514.624)" />
    <path
       id="path250"
       d="m 0.30565625,-1.2661172 c 0,0.29296876 -0.0351563,0.48046876 -0.1171875,0.93750001 -0.0351563,0.17578125 -0.046875,0.2109375 -0.0585938,0.31640625 0.2109375,0.1171875 0.4453125,0.1640625 0.62109375,0.1640625 0.46875,0 1.03125,-0.41015625 1.4765626,-1.08984375 L 3.317375,-2.6137734 3.4697188,-1.6176797 c 0.1875,1.21875001 0.515625,1.76953126 1.03125,1.76953126 0.3164062,0 0.7734375,-0.234375 1.2421875,-0.65625 L 6.4462813,-1.1372109 6.317375,-1.4067422 c -0.5273437,0.43359376 -0.8789062,0.64453126 -1.1132812,0.64453126 -0.2109375,0 -0.3984375,-0.140625 -0.5390625,-0.43359376 C 4.536125,-1.4653359 4.3720625,-1.9926797 4.30175,-2.4145547 l -0.2578125,-1.4414062 0.5039063,-0.703125 c 0.6796875,-0.9375 1.0664062,-1.265625 1.5117187,-1.265625 0.2226563,0 0.3984375,0.1171875 0.46875,0.328125 l 0.1992188,-0.058594 0.2109375,-1.21875 c -0.1640625,-0.09375 -0.2929688,-0.140625 -0.421875,-0.140625 -0.5742188,0 -1.1484375,0.515625 -2.0390625,1.8398438 l -0.5273438,0.7851562 -0.09375,-0.6914062 c -0.1640625,-1.4179688 -0.5507812,-1.9335938 -1.40625,-1.9335938 -0.375,0 -0.6796875,0.1171875 -0.8085937,0.3046875 l -0.8320313,1.1835938 0.234375,0.1523437 c 0.4335938,-0.4921873 0.7265625,-0.691406 0.9960938,-0.691406 0.46875,0 0.7851562,0.5859375 1.03125,1.9921875 l 0.1523437,0.890625 -0.5742187,0.890625 c -0.609375,0.9609375 -1.1015625,1.41796871 -1.5,1.41796871 -0.21093755,0 -0.37500005,-0.0585938 -0.39843755,-0.12890625 L 0.58690625,-1.3012734 Z m 0,0"
       style="fill:none;fill-opacity:1;fill-rule:nonzero;stroke:#000000;stroke-opacity:1"
       aria-label="x"
       transform="matrix(1.3333333,0,0,1.3333333,1978.3893,532.528)" />
  </g>
</svg>
