<?xml version="1.0" encoding="UTF-8" standalone="no"?>
<!-- Created with Inkscape (http://www.inkscape.org/) -->

<svg
   width="159.67946mm"
   height="130.6835mm"
   viewBox="0 0 159.67946 130.6835"
   version="1.1"
   id="svg1"
   inkscape:export-batch-path="C:\Users\Akdemicos\Desktop\Akemicos\Akdemicos-Front\public"
   inkscape:export-batch-name="FunPar"
   xml:space="preserve"
   sodipodi:docname="FunPar.svg"
   inkscape:version="1.4 (86a8ad7, 2024-10-11)"
   xmlns:inkscape="http://www.inkscape.org/namespaces/inkscape"
   xmlns:sodipodi="http://sodipodi.sourceforge.net/DTD/sodipodi-0.dtd"
   xmlns="http://www.w3.org/2000/svg"
   xmlns:svg="http://www.w3.org/2000/svg"><sodipodi:namedview
     id="namedview1"
     pagecolor="#ffffff"
     bordercolor="#000000"
     borderopacity="0.25"
     inkscape:showpageshadow="2"
     inkscape:pageopacity="0.0"
     inkscape:pagecheckerboard="0"
     inkscape:deskcolor="#d1d1d1"
     inkscape:document-units="mm"
     showguides="true"
     inkscape:zoom="0.84"
     inkscape:cx="301.19048"
     inkscape:cy="320.83333"
     inkscape:window-width="1440"
     inkscape:window-height="837"
     inkscape:window-x="-8"
     inkscape:window-y="-8"
     inkscape:window-maximized="1"
     inkscape:current-layer="svg1"><inkscape:page
       x="0"
       y="0"
       width="159.67946"
       height="130.6835"
       id="page1"
       margin="0"
       bleed="0" /></sodipodi:namedview><defs
     id="defs1"><linearGradient
       id="linearGradient5-5"
       inkscape:label="1"><stop
         style="stop-color:#1411a1;stop-opacity:1;"
         offset="0"
         id="stop18" /><stop
         style="stop-color:#1311a1;stop-opacity:1;"
         offset="1"
         id="stop17" /></linearGradient><marker
       style="overflow:visible"
       id="ConcaveTriangle"
       refX="0"
       refY="0"
       orient="auto-start-reverse"
       inkscape:stockid="Concave triangle arrow"
       markerWidth="1"
       markerHeight="1"
       viewBox="0 0 1 1"
       inkscape:isstock="true"
       inkscape:collect="always"
       preserveAspectRatio="xMidYMid"><path
         transform="scale(0.7)"
         d="M -2,-4 9,0 -2,4 c 2,-2.33 2,-5.66 0,-8 z"
         style="fill:context-stroke;fill-rule:evenodd;stroke:none"
         id="path7" /></marker><marker
       style="overflow:visible"
       id="ConcaveTriangle-1"
       refX="0"
       refY="0"
       orient="auto-start-reverse"
       inkscape:stockid="Concave triangle arrow"
       markerWidth="1"
       markerHeight="1"
       viewBox="0 0 1 1"
       inkscape:isstock="true"
       inkscape:collect="always"
       preserveAspectRatio="xMidYMid"><path
         transform="scale(0.7)"
         d="M -2,-4 9,0 -2,4 c 2,-2.33 2,-5.66 0,-8 z"
         style="fill:context-stroke;fill-rule:evenodd;stroke:none"
         id="path7-6" /></marker><clipPath
       clipPathUnits="userSpaceOnUse"
       id="clipPath2"><rect
         style="fill:#21d13f;fill-opacity:1;stroke:#000000;stroke-width:0.74;stroke-miterlimit:3.7;stroke-dasharray:none;stroke-dashoffset:0;stroke-opacity:1"
         id="rect2"
         width="161.23047"
         height="133.11848"
         x="-0.96675223"
         y="5.0146485e-07" /></clipPath></defs><g
     id="g3"><path
       fill="none"
       stroke="#006400"
       paint-order="fill stroke markers"
       d="m 27.290745,20.996314 v 0.276259 0 l 0.103431,0.275646 v 0 l 0.103443,0.275041 v 0 l 0.103434,0.27443 v 0 l 0.103442,0.273819 v 0 l 0.103433,0.273211 v 0 l 0.103443,0.272601 v 0 l 0.103442,0.271993 v 0 l 0.103434,0.271382 v 0 l 0.103441,0.270772 v 0 l 0.103433,0.270165 v 0 l 0.103443,0.269555 v 0 l 0.103433,0.268944 v 0 l 0.103442,0.268336 v 0 l 0.103443,0.267725 v 0 l 0.103433,0.267121 v 0 l 0.103442,0.26651 v 0 l 0.103434,0.26589 v 0 l 0.103442,0.26529 v 0 l 0.103433,0.26468 v 0 l 0.103442,0.26408 v 0 l 0.103442,0.26345 v 0 l 0.103434,0.26285 v 0 l 0.103443,0.26224 v 0 l 0.103432,0.26163 v 0 l 0.103443,0.26102 v 0 l 0.103432,0.26042 v 0 l 0.103444,0.25981 v 0 l 0.103442,0.25918 v 0 l 0.103432,0.25858 v 0 l 0.103443,0.25798 v 0 l 0.103433,0.25737 v 0 l 0.103442,0.25676 v 0 l 0.103434,0.25615 v 0 l 0.103441,0.25552 v 0 l 0.103443,0.25494 v 0 l 0.103433,0.25431 v 0 l 0.103443,0.25372 v 0 l 0.103434,0.25309 v 0 l 0.103441,0.2525 v 0 l 0.103433,0.25188 v 0 l 0.103446,0.25127 v 0 l 0.103442,0.25067 v 0 l 0.103433,0.25005 v 0 l 0.103442,0.24944 v 0 l 0.103433,0.24884 v 0 l 0.103442,0.24822 v 0 l 0.103434,0.24761 v 0 l 0.103443,0.24701 v 0 l 0.103441,0.2464 v 0 l 0.103434,0.24578 v 0 l 0.103442,0.24519 v 0 l 0.103434,0.24455 v 0 l 0.103441,0.24397 v 0 l 0.103433,0.24334 v 0 l 0.103443,0.24274 v 0 l 0.103443,0.24213 v 0 l 0.103432,0.24152 v 0 l 0.103443,0.24092 v 0 l 0.103432,0.24029 v 0 l 0.103442,0.23969 v 0 l 0.103434,0.23909 v 0 l 0.103443,0.23847 v 0 l 0.10344,0.23787 v 0 l 0.103434,0.23725 v 0 l 0.103442,0.23664 v 0 l 0.103434,0.23605 v 0 l 0.103442,0.23542 v 0 l 0.103434,0.23481 v 0 l 0.103442,0.23422 v 0 l 0.103443,0.23359 v 0 l 0.103434,0.23298 v 0 l 0.103442,0.2324 v 0 l 0.103432,0.23175 v 0 l 0.103442,0.23117 v 0 l 0.103434,0.23055 v 0 l 0.103442,0.22995 v 0 l 0.103443,0.22932 v 0 l 0.103431,0.22873 v 0 l 0.103443,0.22811 v 0 l 0.103434,0.2275 v 0 l 0.103442,0.2269 v 0 l 0.103434,0.22628 v 0 l 0.103442,0.22568 v 0 l 0.103442,0.22507 v 0 l 0.103434,0.22446 v 0 l 0.103442,0.22384 v 0 l 0.103433,0.22323 v 0 l 0.103442,0.22264 v 0 l 0.103433,0.22201 v 0 l 0.103442,0.22141 v 0 l 0.103444,0.22081 v 0 l 0.103432,0.22019 v 0 l 0.103442,0.21957 v 0 l 0.103434,0.21898 v 0 l 0.103442,0.21836 v 0 l 0.103434,0.21775 v 0 l 0.103442,0.21714 v 0 l 0.103441,0.21653 v 0 l 0.103434,0.21592 v 0 l 0.103442,0.21533 v 0 l 0.103434,0.2147 v 0 l 0.103443,0.21411 v 0 l 0.103431,0.21348 v 0 l 0.103444,0.21288 v 0 l 0.103442,0.21227 v 0 l 0.103433,0.21166 v 0 l 0.103442,0.21105 v 0 l 0.103433,0.21044 v 0 l 0.103442,0.20983 v 0 l 0.103434,0.20923 v 0 l 0.103442,0.2086 v 0 l 0.103442,0.208 v 0 l 0.103433,0.20739 v 0 l 0.103443,0.20678 v 0 l 0.103433,0.20617 v 0 l 0.103443,0.20557 v 0 l 0.103432,0.20496 v 0 l 0.103443,0.20435 v 0 l 0.103442,0.20372 v 0 l 0.103433,0.20314 v 0 l 0.103443,0.20252 v 0 l 0.103432,0.2019 v 0 l 0.103442,0.20131 v 0 l 0.103434,0.20068 v 0 l 0.103443,0.20008 v 0 l 0.103442,0.19948 v 0 l 0.103433,0.19885 v 0 l 0.103442,0.19825 v 0 l 0.103434,0.19765 v 0 l 0.103442,0.19703 v 0 l 0.103433,0.19642 v 0 l 0.103442,0.19582 v 0 l 0.103443,0.19518 v 0 l 0.103432,0.19461 v 0 l 0.103444,0.19399 v 0 l 0.103432,0.19337 v 0 l 0.103443,0.19276 v 0 l 0.103432,0.19216 v 0 l 0.103443,0.19156 v 0 l 0.103443,0.19094 v 0 l 0.103433,0.19032 v 0 l 0.103441,0.18973 v 0 l 0.103434,0.1891 v 0 l 0.103442,0.18851 v 0 l 0.103434,0.18788 v 0 l 0.103442,0.18729 v 0 l 0.103442,0.18667 v 0 l 0.103434,0.18606 v 0 l 0.103442,0.18545 v 0 l 0.103433,0.18485 v 0 l 0.103443,0.18423 v 0 l 0.103432,0.18362 v 0 l 0.103442,0.18303 v 0 l 0.103444,0.1824 v 0 l 0.103432,0.1818 v 0 l 0.103443,0.18118 v 0 l 0.103432,0.18058 v 0 l 0.103443,0.17998 v 0 l 0.103433,0.17935 v 0 l 0.103443,0.17874 v 0 l 0.103442,0.17815 v 0 l 0.103433,0.17753 v 0 l 0.103442,0.17693 v 0 l 0.103433,0.17631 v 0 l 0.103443,0.17571 v 0 l 0.103432,0.17508 v 0 l 0.103442,0.17448 v 0 l 0.103434,0.17388 v 0 l 0.103442,0.17326 v 0 l 0.103443,0.17266 v 0 l 0.103433,0.17204 v 0 l 0.103442,0.17144 v 0 l 0.103434,0.17083 v 0 l 0.103442,0.17022 v 0 l 0.103434,0.1696 v 0 l 0.103441,0.169 v 0 l 0.103443,0.1684 v 0 l 0.103433,0.16777 v 0 l 0.103443,0.16717 v 0 l 0.103432,0.16657 v 0 l 0.103443,0.16594 v 0 l 0.103432,0.16536 v 0 l 0.103443,0.16473 v 0 l 0.103443,0.16412 v 0 l 0.103433,0.16351 v 0 l 0.103441,0.16291 v 0 l 0.103434,0.16229 v 0 l 0.103442,0.16168 v 0 l 0.103434,0.16108 v 0 l 0.103442,0.16047 v 0 l 0.103442,0.15986 v 0 l 0.103434,0.15925 v 0 l 0.103442,0.15863 v 0 l 0.103433,0.15804 v 0 l 0.103443,0.15741 v 0 l 0.103432,0.15682 v 0 l 0.103442,0.1562 v 0 l 0.103443,0.15558 v 0 l 0.103433,0.15498 v 0 l 0.103443,0.15437 v 0 l 0.103432,0.15378 v 0 l 0.103443,0.15315 v 0 l 0.103433,0.15255 v 0 l 0.103443,0.15193 v 0 l 0.103442,0.15132 v 0 l 0.103433,0.15071 v 0 l 0.103442,0.15011 v 0 l 0.103434,0.14951 v 0 l 0.103442,0.14888 v 0 l 0.103433,0.14828 v 0 l 0.103442,0.14766 v 0 l 0.103443,0.14707 v 0 l 0.103432,0.14645 v 0 l 0.103444,0.14583 v 0 l 0.103433,0.14523 v 0 l 0.103441,0.14464 v 0 l 0.103434,0.14399 v 0 l 0.103442,0.14341 v 0 l 0.103442,0.1428 v 0 l 0.103433,0.14218 v 0 l 0.103442,0.14158 v 0 l 0.103434,0.14096 v 0 l 0.103443,0.14036 v 0 l 0.103432,0.13974 v 0 l 0.103443,0.13914 v 0 l 0.103442,0.13853 v 0 l 0.103433,0.13792 v 0 l 0.103443,0.13731 v 0 l 0.103433,0.1367 v 0 l 0.103441,0.13608 v 0 l 0.103434,0.13549 v 0 l 0.103442,0.13487 v 0 l 0.103443,0.13426 v 0 l 0.103433,0.13365 v 0 l 0.103442,0.13306 v 0 l 0.103433,0.13241 v 0 l 0.103443,0.13183 v 0 l 0.103433,0.13121 v 0 l 0.103443,0.13062 v 0 l 0.103441,0.12999 v 0 l 0.103433,0.12938 v 0 l 0.103443,0.12879 v 0 l 0.103433,0.12816 v 0 l 0.103443,0.12756 v 0 l 0.103432,0.12694 v 0 l 0.103443,0.12634 v 0 l 0.103443,0.12574 v 0 l 0.103433,0.12511 v 0 l 0.103442,0.12452 v 0 l 0.103433,0.12391 v 0 l 0.103442,0.12328 v 0 l 0.103434,0.12268 v 0 l 0.103442,0.12207 v 0 l 0.103443,0.12147 v 0 l 0.103432,0.12086 v 0 l 0.103443,0.12023 v 0 l 0.103432,0.11964 v 0 l 0.103444,0.11904 v 0 l 0.103432,0.11841 v 0 l 0.103442,0.1178 v 0 l 0.103443,0.1172 v 0 l 0.103433,0.11659 v 0 l 0.103442,0.11598 v 0 l 0.103434,0.11537 v 0 l 0.103441,0.11475 v 0 l 0.103434,0.11415 v 0 l 0.103442,0.11354 v 0 l 0.103443,0.11294 v 0 l 0.103434,0.11232 v 0 l 0.103441,0.11171 v 0 l 0.103433,0.11111 v 0 l 0.103443,0.11048 v 0 l 0.103433,0.1099 v 0 l 0.103441,0.10927 v 0 l 0.103443,0.10867 v 0 l 0.103433,0.10807 v 0 l 0.103443,0.10743 v 0 l 0.103433,0.10684 v 0 l 0.103442,0.10623 v 0 l 0.103433,0.10561 v 0 l 0.103443,0.10501 v 0 l 0.103442,0.1044 v 0 l 0.103434,0.10379 v 0 l 0.103441,0.10319 v 0 l 0.103434,0.10256 v 0 l 0.103442,0.10197 v 0 l 0.103433,0.10136 v 0 l 0.103443,0.10074 v 0 l 0.103442,0.10013 v 0 l 0.103432,0.0995 v 0 l 0.103444,0.0989 v 0 l 0.103433,0.0983 v 0 l 0.103442,0.0977 v 0 l 0.103433,0.0971 v 0 l 0.103442,0.0964 v 0 l 0.103442,0.0958 v 0 l 0.103433,0.0952 v 0 l 0.103443,0.0947 v 0 l 0.103432,0.094 v 0 l 0.103443,0.0934 v 0 l 0.103432,0.0928 v 0 l 0.103444,0.0922 v 0 l 0.103442,0.0915 v 0 l 0.103432,0.0909 v 0 l 0.103443,0.0903 v 0 l 0.103433,0.0898 v 0 l 0.103442,0.0892 v 0 l 0.103434,0.0885 v 0 l 0.103441,0.0879 v 0 l 0.103443,0.0873 v 0 l 0.103433,0.0867 v 0 l 0.103443,0.0861 v 0 l 0.103433,0.0854 v 0 l 0.103442,0.0849 v 0 l 0.103434,0.0843 v 0 l 0.103442,0.0837 v 0 l 0.103442,0.083 v 0 l 0.103434,0.0824 v 0 l 0.103441,0.0818 v 0 l 0.103433,0.0812 v 0 l 0.103443,0.0806 v 0 l 0.103433,0.08 v 0 l 0.103443,0.0794 v 0 l 0.103442,0.0788 v 0 l 0.103433,0.0782 v 0 l 0.103442,0.0775 v 0 l 0.103434,0.0769 v 0 l 0.103442,0.0764 v 0 l 0.103433,0.0758 v 0 l 0.103442,0.0752 v 0 l 0.103443,0.0745 v 0 l 0.103433,0.0739 v 0 l 0.103442,0.0733 v 0 l 0.103432,0.0727 v 0 l 0.103444,0.072 v 0 l 0.103432,0.0714 v 0 l 0.103443,0.0709 v 0 l 0.103442,0.0703 v 0 l 0.103433,0.0697 v 0 l 0.103442,0.069 v 0 l 0.103434,0.0684 v 0 l 0.103442,0.0678 v 0 l 0.103433,0.0673 v 0 l 0.103443,0.0666 v 0 l 0.103442,0.066 v 0 l 0.103434,0.0654 v 0 l 0.103442,0.0648 v 0 l 0.103433,0.0641 v 0 l 0.103442,0.0635 v 0 l 0.103433,0.0629 v 0 l 0.103443,0.0623 v 0 l 0.103443,0.0618 v 0 l 0.103431,0.0611 v 0 l 0.103444,0.0605 v 0 l 0.103432,0.0599 v 0 l 0.103443,0.0593 v 0 l 0.103433,0.0586 v 0 l 0.103442,0.058 v 0 l 0.103442,0.0575 v 0 l 0.103434,0.0569 v 0 l 0.103442,0.0562 v 0 l 0.103434,0.0556 v 0 l 0.103441,0.055 v 0 l 0.103433,0.0544 v 0 l 0.103443,0.0538 v 0 l 0.103443,0.0531 v 0 l 0.103432,0.0526 v 0 l 0.103443,0.052 v 0 l 0.103433,0.0514 v 0 l 0.103442,0.0508 v 0 l 0.103434,0.0501 v 0 l 0.103442,0.0495 v 0 l 0.103441,0.0489 v 0 l 0.103434,0.0484 v 0 l 0.103443,0.0477 v 0 l 0.103433,0.0471 v 0 l 0.103443,0.0465 v 0 l 0.103431,0.0459 v 0 l 0.103444,0.0452 v 0 l 0.103442,0.0446 v 0 l 0.103433,0.044 v 0 l 0.103443,0.0435 v 0 l 0.103432,0.0429 v 0 l 0.103443,0.0422 v 0 l 0.103433,0.0416 v 0 l 0.103442,0.041 v 0 l 0.103443,0.0404 v 0 l 0.103432,0.0397 v 0 l 0.103443,0.0392 v 0 l 0.103434,0.0386 v 0 l 0.103442,0.038 v 0 l 0.103433,0.0374 v 0 l 0.103442,0.0367 v 0 l 0.103442,0.0361 v 0 l 0.103434,0.0355 v 0 l 0.103442,0.0349 v 0 l 0.103432,0.0344 v 0 l 0.103444,0.0337 v 0 l 0.103432,0.0331 v 0 l 0.103443,0.0325 v 0 l 0.103443,0.0319 v 0 l 0.103432,0.0312 v 0 l 0.103442,0.0306 v 0 l 0.103434,0.03 v 0 l 0.103442,0.0295 v 0 l 0.103434,0.0288 v 0 l 0.103441,0.0282 v 0 l 0.103443,0.0276 v 0 l 0.103433,0.027 v 0 l 0.103443,0.0263 v 0 l 0.103432,0.0257 v 0 l 0.103443,0.0252 v 0 l 0.103433,0.0246 v 0 l 0.103442,0.024 v 0 l 0.103443,0.0233 v 0 l 0.103433,0.0227 v 0 l 0.103442,0.0221 v 0 l 0.103433,0.0215 v 0 l 0.103442,0.0208 v 0 l 0.103434,0.0203 v 0 l 0.103443,0.0197 v 0 l 0.103441,0.0191 v 0 l 0.103434,0.0185 v 0 l 0.103442,0.0178 v 0 l 0.103434,0.0172 v 0 l 0.103442,0.0166 v 0 l 0.103432,0.0161 v 0 l 0.103443,0.0154 v 0 l 0.103443,0.0148 v 0 l 0.103432,0.0142 v 0 l 0.103444,0.0136 v 0 l 0.103431,0.013 v 0 l 0.103443,0.0123 v 0 l 0.103433,0.0117 v 0 l 0.103443,0.0112 v 0 l 0.103442,0.0106 v 0 l 0.103433,0.01 v 0 l 0.103442,0.01 v 0 l 0.103434,0.009 v 0 l 0.103442,0.008 v 0 l 0.103432,0.008 v 0 l 0.103443,0.007 v 0 l 0.103443,0.006 v 0 l 0.103433,0.006 v 0 l 0.103443,0.005 v 0 l 0.103432,0.005 v 0 l 0.103442,0.004 v 0 l 0.103434,0.003 v 0 l 0.103442,0.003 v 0 l 0.103442,0.002 v 0 l 0.103433,9.8e-4 v 0 l 0.103443,7.9e-4 v 0 l 0.103433,2e-4 v -2e-5 l 0.103443,-4.2e-4 v 0 l 0.103433,-9.8e-4 v 0 l 0.103442,-0.002 v 0 l 0.103442,-0.002 v 0 l 0.103434,-0.003 v 0 l 0.103442,-0.004 v 0 l 0.103433,-0.004 v 0 l 0.103442,-0.005 v 0 l 0.103433,-0.005 v 0 l 0.103442,-0.006 v 0 l 0.103444,-0.007 v 0 l 0.103432,-0.007 v 0 l 0.103442,-0.008 v 0 l 0.103434,-0.009 v 0 l 0.103442,-0.009 v 0 l 0.103434,-0.01 v 0 l 0.103442,-0.0102 v 0 l 0.103441,-0.0108 v 0 l 0.103434,-0.0114 v 0 l 0.103442,-0.0119 v 0 l 0.103433,-0.0126 v 0 l 0.103444,-0.0132 v 0 l 0.103431,-0.0138 v 0 l 0.103443,-0.0144 v 0 l 0.103443,-0.0151 v 0 l 0.103433,-0.0157 v 0 l 0.103442,-0.0162 v 0 l 0.103433,-0.0168 v 0 l 0.103442,-0.0175 v 0 l 0.103434,-0.0181 v 0 l 0.103442,-0.0187 v 0 l 0.103443,-0.0193 v 0 l 0.103432,-0.02 v 0 l 0.103443,-0.0205 v 0 l 0.103432,-0.0211 v 0 l 0.103444,-0.0217 v 0 l 0.103433,-0.0223 v 0 l 0.103442,-0.023 v 0 l 0.103442,-0.0236 v 0 l 0.103433,-0.0242 v 0 l 0.103443,-0.0248 v 0 l 0.103432,-0.0254 v 0 l 0.103443,-0.026 v 0 l 0.103433,-0.0266 v 0 l 0.103443,-0.0272 v 0 l 0.103433,-0.0278 v 0 l 0.103442,-0.0285 v 0 l 0.103442,-0.0291 v 0 l 0.103434,-0.0297 v 0 l 0.103442,-0.0302 v 0 l 0.103433,-0.0309 v 0 l 0.103442,-0.0315 v 0 l 0.103433,-0.0321 v 0 l 0.103442,-0.0327 v 0 l 0.103444,-0.0333 v 0 l 0.103432,-0.034 v 0 l 0.103442,-0.0345 v 0 l 0.103433,-0.0351 v 0 l 0.103443,-0.0357 v 0 l 0.103434,-0.0363 v 0 l 0.103442,-0.037 v 0 l 0.103441,-0.0376 v 0 l 0.103434,-0.0382 v 0 l 0.103442,-0.0388 v 0 l 0.103433,-0.0394 v 0 l 0.103443,-0.04 v 0 l 0.103432,-0.0406 v 0 l 0.103443,-0.0412 v 0 l 0.103443,-0.0419 v 0 l 0.103433,-0.0425 v 0 l 0.103442,-0.0431 v 0 l 0.103433,-0.0437 v 0 l 0.103442,-0.0443 v 0 l 0.103434,-0.0449 v 0 l 0.103442,-0.0455 v 0 l 0.103443,-0.0461 v 0 l 0.103432,-0.0467 v 0 l 0.103443,-0.0473 v 0 l 0.103433,-0.048 v 0 l 0.103443,-0.0486 v 0 l 0.103432,-0.0491 v 0 l 0.103443,-0.0497 v 0 l 0.103442,-0.0504 v 0 l 0.103433,-0.051 v 0 l 0.103443,-0.0516 v 0 l 0.103433,-0.0522 v 0 l 0.103441,-0.0529 v 0 l 0.103434,-0.0534 v 0 l 0.103443,-0.054 v 0 l 0.103442,-0.0546 v 0 l 0.103434,-0.0552 v 0 l 0.103441,-0.0559 v 0 l 0.103434,-0.0565 v 0 l 0.103442,-0.0571 v 0 l 0.103433,-0.0576 v 0 l 0.103443,-0.0583 v 0 l 0.103442,-0.0589 v 0 l 0.103432,-0.0595 v 0 l 0.103444,-0.0601 v 0 l 0.103432,-0.0607 v 0 l 0.103442,-0.0614 v 0 l 0.103433,-0.062 v 0 l 0.103443,-0.0625 v 0 l 0.103442,-0.0631 v 0 l 0.103434,-0.0638 v 0 l 0.103441,-0.0644 v 0 l 0.103434,-0.065 v 0 l 0.103442,-0.0656 v 0 l 0.103434,-0.0662 v 0 l 0.103442,-0.0669 v 0 l 0.103442,-0.0674 v 0 l 0.103434,-0.068 v 0 l 0.103442,-0.0686 v 0 l 0.103433,-0.0693 v 0 l 0.103443,-0.0699 v 0 l 0.103432,-0.0705 v 0 l 0.103442,-0.0711 v 0 l 0.103443,-0.0717 v 0 l 0.103433,-0.0723 v 0 l 0.103443,-0.0729 v 0 l 0.103432,-0.0735 v 0 l 0.103443,-0.0741 v 0 l 0.103433,-0.0748 v 0 l 0.103443,-0.0754 v 0 l 0.103442,-0.076 v 0 l 0.103433,-0.0765 v 0 l 0.103442,-0.0772 v 0 l 0.103433,-0.0778 v 0 l 0.103443,-0.0784 v 0 l 0.103433,-0.079 v 0 l 0.103441,-0.0796 v 0 l 0.103444,-0.0803 v 0 l 0.103432,-0.0808 v 0 l 0.103443,-0.0814 v 0 l 0.103434,-0.082 v 0 l 0.103441,-0.0827 v 0 l 0.103434,-0.0833 v 0 l 0.103442,-0.0839 v 0 l 0.103442,-0.0845 v 0 l 0.103434,-0.0851 v 0 l 0.103441,-0.0857 v 0 l 0.103434,-0.0863 v 0 l 0.103443,-0.0869 v 0 l 0.103432,-0.0875 v 0 l 0.103443,-0.0882 v 0 l 0.103442,-0.0888 v 0 l 0.103433,-0.0894 v 0 l 0.103443,-0.09 v 0 l 0.103433,-0.0906 v 0 l 0.103442,-0.0912 v 0 l 0.103433,-0.0918 v 0 l 0.103443,-0.0924 v 0 l 0.103443,-0.093 v 0 l 0.103434,-0.0937 v 0 l 0.103443,-0.0943 v 0 l 0.103434,-0.0949 v 0 l 0.103443,-0.0954 v 0 l 0.103433,-0.0961 v 0 l 0.103434,-0.0967 v 0 l 0.103443,-0.0973 v 0 l 0.103433,-0.0979 v 0 l 0.103444,-0.0985 v 0 l 0.103433,-0.0991 v 0 l 0.103443,-0.0997 v 0 l 0.103434,-0.10036 v 0 l 0.103443,-0.10099 v 0 l 0.103443,-0.10158 v 0 l 0.103434,-0.1022 v 0 l 0.103448,-0.1028 v 0 l 0.10342,-0.10341 v 0 l 0.10344,-0.10402 v 0 l 0.10345,-0.10463 v 0 l 0.10344,-0.10526 v 0 l 0.10343,-0.10584 v 0 l 0.10344,-0.10646 v 0 l 0.10344,-0.10708 v 0 l 0.10343,-0.10768 v 0 l 0.10345,-0.10829 v 0 l 0.10343,-0.1089 v 0 l 0.10344,-0.10951 v 0 l 0.10345,-0.11011 v 0 l 0.10343,-0.11073 v 0 l 0.10343,-0.11134 v 0 l 0.10345,-0.11195 v 0 l 0.10344,-0.11256 v 0 l 0.10343,-0.11316 v 0 l 0.10344,-0.11377 v 0 l 0.10344,-0.11438 v 0 l 0.10344,-0.115 v 0 l 0.10344,-0.1156 v 0 l 0.10343,-0.11622 v 0 l 0.10344,-0.11683 v 0 l 0.10344,-0.11743 v 0 l 0.10344,-0.11802 v 0 l 0.10344,-0.11866 v 0 l 0.10344,-0.11926 v 0 l 0.10344,-0.11987 v 0 l 0.10343,-0.12047 v 0 l 0.10344,-0.12109 v 0 l 0.10344,-0.1217 v 0 l 0.10344,-0.12231 v 0 l 0.10345,-0.12291 v 0 l 0.10342,-0.12353 v 0 l 0.10344,-0.12415 v 0 l 0.10344,-0.12473 v 0 l 0.10345,-0.12535 v 0 l 0.10342,-0.12597 v 0 l 0.10345,-0.12658 v 0 l 0.10344,-0.12718 v 0 l 0.10343,-0.12778 v 0 l 0.10345,-0.1284 v 0 l 0.10343,-0.12902 v 0 l 0.10344,-0.12962 v 0 l 0.10344,-0.13022 v 0 l 0.10343,-0.13085 v 0 l 0.10344,-0.13144 v 0 l 0.10345,-0.13206 v 0 l 0.10344,-0.13267 v 0 l 0.10342,-0.13327 v 0 l 0.10345,-0.13389 v 0 l 0.10343,-0.1345 v 0 l 0.10344,-0.1351 v 0 l 0.10345,-0.13571 v 0 l 0.10343,-0.13633 v 0 l 0.10344,-0.13694 v 0 l 0.10344,-0.13753 v 0 l 0.10343,-0.13815 v 0 l 0.10344,-0.13876 v 0 l 0.10345,-0.13937 v 0 l 0.10344,-0.13998 v 0 l 0.10342,-0.14058 v 0 l 0.10345,-0.14121 v 0 l 0.10343,-0.14182 v 0 l 0.10345,-0.14241 v 0 l 0.10343,-0.14302 v 0 l 0.10344,-0.14365 v 0 l 0.10344,-0.14424 v 0 l 0.10344,-0.14486 v 0 l 0.10344,-0.14546 v 0 l 0.10343,-0.14607 v 0 l 0.10345,-0.14669 v 0 l 0.10343,-0.1473 v 0 l 0.10343,-0.1479 v 0 l 0.10345,-0.1485 v 0 l 0.10344,-0.14912 v 0 l 0.10344,-0.14974 v 0 l 0.10343,-0.15034 v 0 l 0.10344,-0.15096 v 0 l 0.10343,-0.15154 v 0 l 0.103459,-0.15217 v 0 l 0.10343,-0.15278 v 0 l 0.10343,-0.15339 v 0 l 0.10345,-0.154 v 0 l 0.10343,-0.15461 v 0 l 0.10343,-0.15521 v 0 l 0.10345,-0.15583 v 0 l 0.10344,-0.15642 v 0 l 0.10344,-0.15706 v 0 l 0.10343,-0.15765 v 0 l 0.10344,-0.15826 v 0 l 0.10343,-0.15887 v 0 l 0.10346,-0.15949 v 0 l 0.10342,-0.16009 v 0 l 0.10344,-0.1607 v 0 l 0.10345,-0.1613 v 0 l 0.10343,-0.16193 v 0 l 0.10344,-0.16252 v 0 l 0.10344,-0.16314 v 0 l 0.10344,-0.16376 v 0 l 0.10344,-0.16434 v 0 l 0.10343,-0.16496 v 0 l 0.10344,-0.16559 v 0 l 0.10345,-0.16619 v 0 l 0.10344,-0.16679 v 0 l 0.10342,-0.1674 v 0 l 0.10345,-0.16802 v 0 l 0.10343,-0.16863 v 0 l 0.10345,-0.16923 v 0 l 0.10344,-0.16982 v 0 l 0.10343,-0.17048 v 0 l 0.10344,-0.17105 v 0 l 0.10344,-0.17167 v 0 l 0.10343,-0.17227 v 0 l 0.10344,-0.17289 v 0 l 0.10345,-0.17351 v 0 l 0.10344,-0.1741 v 0 l 0.10342,-0.17472 v 0 l 0.10345,-0.17532 v 0 l 0.10344,-0.17595 v 0 l 0.10344,-0.17654 v 0 l 0.10343,-0.17715 v 0 l 0.10344,-0.17776 v 0 l 0.10344,-0.17839 v 0 l 0.10344,-0.17898 v 0 l 0.10344,-0.17959 v 0 l 0.10343,-0.18021 v 0 l 0.10345,-0.1808 v 0 l 0.10343,-0.18143 v 0 l 0.10343,-0.18202 v 0 l 0.10345,-0.18265 v 0 l 0.10344,-0.18325 v 0 l 0.10344,-0.18385 v 0 l 0.10343,-0.18447 v 0 l 0.10344,-0.18507 v 0 l 0.10343,-0.1857 v 0 l 0.10346,-0.18629 v 0 l 0.10343,-0.18691 v 0 l 0.10343,-0.18751 v 0 l 0.10345,-0.18814 v 0 l 0.10343,-0.18871 v 0 l 0.10344,-0.18936 v 0 l 0.10344,-0.18995 v 0 l 0.10344,-0.19056 v 0 l 0.10344,-0.19117 v 0 l 0.10344,-0.19178 v 0 l 0.10343,-0.1924 v 0 l 0.10344,-0.19299 v 0 l 0.10345,-0.19361 v 0 l 0.10343,-0.19422 v 0 l 0.10343,-0.19484 v 0 l 0.10345,-0.19544 v 0 l 0.10343,-0.19604 v 0 l 0.10345,-0.19665 v 0 l 0.10343,-0.19728 v 0 l 0.10344,-0.19787 v 0 l 0.10343,-0.19848 v 0 l 0.10345,-0.19909 v 0 l 0.10344,-0.19971 v 0 l 0.10343,-0.20031 v 0 l 0.10345,-0.20093 v 0 l 0.10343,-0.20153 v 0 l 0.10343,-0.20213 v 0 l 0.10344,-0.20276 v 0 l 0.10345,-0.20336 v 0 l 0.10344,-0.20397 v 0 l 0.10343,-0.20459 v 0 l 0.10344,-0.20517 v 0 l 0.10343,-0.20581 v 0 l 0.10346,-0.20641 v 0 l 0.10342,-0.20701 v 0 l 0.10344,-0.20763 v 0 l 0.10345,-0.20824 v 0 l 0.10343,-0.20884 v 0 l 0.10343,-0.20946 v 0 l 0.10345,-0.21006 v 0 l 0.10344,-0.21067 v 0 l 0.10343,-0.21129 v 0 l 0.10344,-0.21189 v 0 l 0.10344,-0.2125 v 0 l 0.10343,-0.21311 v 0 l 0.10346,-0.21372 v 0 l 0.10342,-0.21433 v 0 l 0.10344,-0.21494 v 0 l 0.10344,-0.21555 v 0 l 0.10344,-0.21616 v 0 l 0.10344,-0.21676 v 0 l 0.10344,-0.21738 v 0 l 0.10344,-0.21799 v 0 l 0.10343,-0.21859 v 0 l 0.10344,-0.2192 v 0 l 0.10343,-0.21983 v 0 l 0.10345,-0.22043 v 0 l 0.10345,-0.22103 v 0 l 0.10342,-0.22164 v 0 l 0.10344,-0.22224 v 0 l 0.10344,-0.22286 v 0 l 0.10345,-0.22347 v 0 l 0.10342,-0.2241 v 0 l 0.10345,-0.22469 v 0 l 0.10344,-0.2253 v 0 l 0.10343,-0.2259 v 0 l 0.10344,-0.22652 v 0 l 0.10344,-0.22713 v 0 l 0.10344,-0.22774 v 0 l 0.10344,-0.22834 v 0 l 0.10343,-0.22895 v 0 l 0.10345,-0.22958 v 0 l 0.10344,-0.23017 v 0 l 0.10344,-0.23078 v 0 l 0.10343,-0.2314 v 0 l 0.10344,-0.23201 v 0 l 0.10343,-0.2326 v 0 l 0.10345,-0.23323 v 0 l 0.10343,-0.23383 v 0 l 0.10344,-0.23443 v 0 l 0.10345,-0.23506 v 0 l 0.10343,-0.23567 v 0 l 0.10343,-0.23626 v 0 l 0.10344,-0.23688 v 0 l 0.10345,-0.23749 v 0 l 0.10343,-0.23809 v 0 l 0.10344,-0.2387 v 0 l 0.10344,-0.23934 v 0 l 0.10343,-0.23991 v 0 l 0.10346,-0.24055 v 0 l 0.10342,-0.24113 v 0 l 0.10344,-0.24177 v 0 l 0.10344,-0.24236 v 0 l 0.10344,-0.24296 v 0 l 0.10343,-0.24359 v 0 l 0.10345,-0.24419 v 0 l 0.10344,-0.2448 v 0 l 0.10343,-0.24542 v 0 l 0.10344,-0.24601 v 0 l 0.10343,-0.24663 v 0 l 0.10345,-0.24725 v 0 l 0.10345,-0.24784 v 0 l 0.10342,-0.24846 v 0 l 0.10344,-0.24906 v 0 l 0.10344,-0.24968 v 0 l 0.10344,-0.25028 v 0 l 0.10343,-0.2509 v 0 l 0.10345,-0.25152 v 0 l 0.10344,-0.25211 v 0 l 0.10343,-0.25272 v 0 l 0.10344,-0.25332 v 0 l 0.10344,-0.25395 v 0 l 0.10344,-0.25456 v 0 l 0.10344,-0.25516 v 0 l 0.10343,-0.25577 v 0 l 0.10344,-0.25638 v 0 l 0.10344,-0.25699 v 0 l 0.10345,-0.2576 v 0 l 0.10342,-0.2582 v 0 l 0.10345,-0.25882 v 0 l 0.10343,-0.25943 v 0 l 0.10344,-0.26004 v 0 l 0.10344,-0.26064 v 0 l 0.10344,-0.26126 v 0 l 0.10344,-0.26187 v 0 l 0.10344,-0.26247 v 0 l 0.10343,-0.26309 v 0 l 0.10343,-0.26369 v 0 l 0.10346,-0.26431 v 0 l 0.10344,-0.2649 v 0 l 0.10343,-0.26553 v 0 l 0.10344,-0.26613 v 0 l 0.10343,-0.26675 v 0 l 0.10344,-0.267342 v 0 l 0.10345,-0.26796 v 0 l 0.10343,-0.268568 v 0 l 0.10344,-0.26918 v 0 l 0.10344,-0.269788 v 0 l 0.10344,-0.270396 v 0 l 0.10343,-0.271007 v 0 l 0.10345,-0.271616 v 0 l 0.10343,-0.272226 v 0 l 0.10344,-0.272835 v 0 l 0.10344,-0.273444 v 0 l 0.10343,-0.274054 v 0 l 0.10345,-0.274662 v 0 l 0.10344,-0.275271 v 0 l 0.10343,-0.275885 v 0 l 0.10343,-0.276491 v 0 l 0.10345,-0.2771 v 0 l 0.10345,-0.27771 v 0 l 0.10342,-0.278321 v 0 l 0.10345,-0.278928 v 0 l 0.10343,-0.279538 v 0 l 0.10344,-0.280149 v 0 l 0.10343,-0.280756 v 0 l 0.10345,-0.281369 v 0 l 0.10344,-0.281978 v 0 l 0.10344,-0.282585 v 0 l 0.10343,-0.283193 v 0 l 0.10343,-0.283806 v 0 l 0.10345,-0.284412 v 0 l 0.10344,-0.285024 v 0 l 0.10343,-0.285634 v 0 l 0.10345,-0.286243 v 0 l 0.10343,-0.286849 v 0 l 0.10344,-0.287463 v 0 l 0.10344,-0.288072 v 0 l 0.10344,-0.288678 v 0 l 0.10343,-0.28929 v 0 l 0.10345,-0.289898 v 0 l 0.10343,-0.290511 v 0 l 0.10344,-0.291116 v 0 l 0.10345,-0.29173 v 0 l 0.10343,-0.292333 v 0 l 0.10344,-0.292947 v 0 l 0.10343,-0.293555 v 0 l 0.10344,-0.294166 v 0 l 0.10345,-0.294772 v 0 l 0.10343,-0.295385 v 0 l 0.10344,-0.295994 v 0 l 0.10344,-0.296602 v 0 l 0.10344,-0.297211 v 0 l 0.10342,-0.297825 v 0 l 0.10346,-0.29843 v 0 l 0.10344,-0.299038 v 0 l 0.10343,-0.299652 v 0 l 0.10344,-0.300259 v 0 l 0.10343,-0.300866 v 0 l 0.10345,-0.301477 v 0 l 0.10344,-0.302088 v 0 l 0.10343,-0.302696 v 0 l 0.10344,-0.30331 v 0 l 0.10344,-0.303914 v 0 l 0.10344,-0.304524 v 0 l 0.10343,-0.305135 v 0 l 0.10345,-0.305746 v 0 l 0.10343,-0.306353 v 0 l 0.10344,-0.306964 v 0 l 0.10344,-0.307571 v 0 l 0.10344,-0.308182 v 0 l 0.10344,-0.308789 v 0 l 0.10344,-0.309403 v 0 l 0.10343,-0.310006 v 0 l 0.10343,-0.310622 v 0 l 0.10345,-0.31123 v 0 l 0.10345,-0.311835 v 0 l 0.10342,-0.31245 v 0 l 0.10345,-0.313059 v 0 l 0.10343,-0.313664 v 0 l 0.10344,-0.314276 v 0 l 0.10343,-0.314885 v 0 l 0.10345,-0.315494 v 0 l 0.10344,-0.316105 v 0 l 0.10344,-0.316715 v 0 l 0.10343,-0.317322 v 0 l 0.10343,-0.317933 v 0 l 0.10346,-0.318541 v 0 l 0.10343,-0.319151 v 0 l 0.10343,-0.319762 v 0 l 0.10345,-0.320369 v 0 l 0.10343,-0.32098 v 0 l 0.10344,-0.321592 v 0 l 0.10344,-0.322196 v 0 l 0.10344,-0.322805 v 0 l 0.10343,-0.323421 v 0 l 0.10345,-0.324027 v 0 l 0.10343,-0.324634 v 0 l 0.10344,-0.325254 v 0 l 0.10345,-0.325857 v 0 l 0.10343,-0.326637 v 0 l 0.10343,-0.327073 v 0 l 0.10344,-0.327681 v 0 l 0.10344,-0.328295 v 0 l 0.10345,-0.328903 v 0 l 0.10343,-0.329509 v 0 l 0.10344,-0.330121 v 0 l 0.10343,-0.330731 v 0 l 0.10345,-0.331339 v 0 l 0.10343,-0.331949 v 0 l 0.10344,-0.33256 v 0 l 0.10345,-0.333168 v 0 l 0.10343,-0.333779 v 0 l 0.10343,-0.334384 v 0 l 0.10344,-0.334997 v 0 l 0.10345,-0.335606 v 0 l 0.10343,-0.336215 v 0 l 0.10344,-0.336826 v 0 l 0.10344,-0.337435 v 0 l 0.10343,-0.338043 v 0 l 0.10345,-0.338654 v 0 l 0.10343,-0.339261 v 0 l 0.10344,-0.339871 v 0 l 0.10344,-0.340483 v 0 l 0.10344,-0.34109 v 0 l 0.10344,-0.341701 v 0 l 0.10344,-0.342308 v 0 l 0.10344,-0.342919 v 0 l 0.10343,-0.343529 v 0 l 0.10345,-0.344137 v 0 l 0.10342,-0.344747 v 0 l 0.10344,-0.345358 v 0 l 0.10346,-0.345966 v 0 l 0.10343,-0.346575 v 0 l 0.10343,-0.347185 v 0 l 0.10344,-0.347794 v 0 l 0.10344,-0.348405 v 0 l 0.10344,-0.349014 v 0 l 0.10344,-0.349623 v 0 l 0.10344,-0.350229 v 0 l 0.10343,-0.350841 v 0 l 0.10345,-0.351453 v 0 l 0.10342,-0.352058 v 0 l 0.10345,-0.352671 v 0 l 0.10344,-0.353281 v 0 l 0.10344,-0.353887 v 0 l 0.10343,-0.3545 v 0 l 0.10344,-0.355106 v 0 l 0.10345,-0.355717 v 0 l 0.10343,-0.356328 v 0 l 0.10344,-0.356934 v 0 l 0.10343,-0.357546 v 0 l 0.10344,-0.358153 v 0 l 0.10345,-0.358763 v 0 l 0.10343,-0.359374 v 0 l 0.10344,-0.359982"
       stroke-opacity="0.698039"
       stroke-linecap="round"
       stroke-linejoin="round"
       stroke-miterlimit="10"
       stroke-width="0.16275"
       id="path2"
       style="stroke:#1311a2;stroke-width:1.114;stroke-dasharray:none;stroke-opacity:1"
       clip-path="url(#clipPath2)"
       transform="translate(10.798468,14.544876)" /><path
       style="fill:#040404;stroke:#000000;stroke-width:0.840562;stroke-miterlimit:3.7;stroke-dasharray:none;marker-end:url(#ConcaveTriangle)"
       d="M 10.799251,98.52675 156.23759,98.79754"
       id="path1" /><path
       style="fill:#040404;stroke:#000000;stroke-width:0.850147;stroke-miterlimit:3.7;stroke-dasharray:none;marker-end:url(#ConcaveTriangle-1)"
       d="M 84.683336,145.22811 84.753129,31.782767"
       id="path1-5" /><text
       xml:space="preserve"
       style="font-style:italic;font-variant:normal;font-weight:normal;font-stretch:normal;font-size:11.2889px;font-family:'Bell MT';-inkscape-font-specification:'Bell MT, Italic';font-variant-ligatures:normal;font-variant-caps:normal;font-variant-numeric:normal;font-variant-east-asian:normal;text-align:start;writing-mode:lr-tb;direction:ltr;text-anchor:start;fill:none;stroke:#000000;stroke-width:0.903999;stroke-miterlimit:3.7;stroke-dasharray:none;stroke-opacity:1"
       x="164.11688"
       y="101.44396"
       id="text2"><tspan
         sodipodi:role="line"
         id="tspan2"
         style="font-style:italic;font-variant:normal;font-weight:normal;font-stretch:normal;font-size:11.2889px;font-family:'Bell MT';-inkscape-font-specification:'Bell MT, Italic';font-variant-ligatures:normal;font-variant-caps:normal;font-variant-numeric:normal;font-variant-east-asian:normal;stroke:#000000;stroke-width:0.904;stroke-opacity:1"
         x="164.11688"
         y="101.44396">x</tspan></text><text
       xml:space="preserve"
       style="font-style:italic;font-variant:normal;font-weight:normal;font-stretch:normal;font-size:11.2889px;font-family:'Bell MT';-inkscape-font-specification:'Bell MT, Italic';font-variant-ligatures:normal;font-variant-caps:normal;font-variant-numeric:normal;font-variant-east-asian:normal;text-align:start;writing-mode:lr-tb;direction:ltr;text-anchor:start;fill:none;stroke:#000000;stroke-width:0.903999;stroke-miterlimit:3.7;stroke-dasharray:none;stroke-opacity:1"
       x="82.7575"
       y="20.084587"
       id="text3"><tspan
         sodipodi:role="line"
         id="tspan3"
         style="stroke-width:0.904"
         x="82.7575"
         y="20.084587">y</tspan></text><path
       style="fill:none;fill-opacity:1;stroke:#000000;stroke-width:0.463;stroke-miterlimit:3.7;stroke-dasharray:2.778, 2.778;stroke-dashoffset:0;stroke-opacity:1"
       d="m 47.369476,59.11063 74.744794,0.33073"
       id="path18" /><path
       style="fill:none;fill-opacity:1;stroke:#000000;stroke-width:0.537888;stroke-miterlimit:3.7;stroke-dasharray:1.61367, 1.61367;stroke-dashoffset:0;stroke-opacity:1"
       d="M 121.73286,60.49353 121.9848,99.1729"
       id="path18-4" /><path
       style="fill:none;fill-opacity:1;stroke:#000000;stroke-width:0.544271;stroke-miterlimit:3.7;stroke-dasharray:1.63282, 1.63282;stroke-dashoffset:0;stroke-opacity:1"
       d="m 47.724772,59.39876 0.251806,39.62471"
       id="path18-4-8" /><text
       xml:space="preserve"
       style="font-style:italic;font-variant:normal;font-weight:normal;font-stretch:normal;font-size:11.2889px;font-family:'Bell MT';-inkscape-font-specification:'Bell MT, Italic';font-variant-ligatures:normal;font-variant-caps:normal;font-variant-numeric:normal;font-variant-east-asian:normal;text-align:start;writing-mode:lr-tb;direction:ltr;text-anchor:start;fill:none;fill-opacity:1;stroke:#000000;stroke-width:0.74;stroke-miterlimit:3.7;stroke-dasharray:none;stroke-dashoffset:0;stroke-opacity:1"
       x="41.005173"
       y="107.40601"
       id="text19"><tspan
         sodipodi:role="line"
         id="tspan19"
         style="stroke-width:0.74"
         x="41.005173"
         y="107.40601">-x</tspan></text><text
       xml:space="preserve"
       style="font-style:italic;font-variant:normal;font-weight:normal;font-stretch:normal;font-size:11.2889px;font-family:'Bell MT';-inkscape-font-specification:'Bell MT, Italic';font-variant-ligatures:normal;font-variant-caps:normal;font-variant-numeric:normal;font-variant-east-asian:normal;text-align:start;writing-mode:lr-tb;direction:ltr;text-anchor:start;fill:none;fill-opacity:1;stroke:#000000;stroke-width:0.74;stroke-miterlimit:3.7;stroke-dasharray:none;stroke-dashoffset:0;stroke-opacity:1"
       x="118.94999"
       y="107.04848"
       id="text20"><tspan
         sodipodi:role="line"
         id="tspan20"
         style="stroke-width:0.74"
         x="118.94999"
         y="107.04848">x</tspan></text><text
       xml:space="preserve"
       style="font-style:italic;font-variant:normal;font-weight:normal;font-stretch:normal;font-size:6.53616px;font-family:'Bell MT';-inkscape-font-specification:'Bell MT, Italic';font-variant-ligatures:normal;font-variant-caps:normal;font-variant-numeric:normal;font-variant-east-asian:normal;text-align:start;writing-mode:lr-tb;direction:ltr;text-anchor:start;fill:#21d13f;fill-opacity:1;stroke:#000000;stroke-width:0.428452;stroke-miterlimit:3.7;stroke-dasharray:none;stroke-dashoffset:0;stroke-opacity:1"
       x="86.229263"
       y="47.658493"
       id="text21"
       transform="scale(1.0448385,0.95708572)"><tspan
         sodipodi:role="line"
         id="tspan21"
         style="stroke-width:0.428452"
         x="86.229263"
         y="47.658493">f(-x) = f(x)</tspan></text><ellipse
       style="fill:#21d13f;fill-opacity:1;stroke:#000000;stroke-width:0.74;stroke-miterlimit:3.7;stroke-dasharray:none;stroke-dashoffset:0;stroke-opacity:1"
       id="path21"
       cx="84.983215"
       cy="59.316223"
       rx="2.1452703"
       ry="1.6089526" /><path
       style="fill:none;fill-opacity:1;stroke:#000000;stroke-width:0.585253;stroke-miterlimit:3.7;stroke-dasharray:none;stroke-dashoffset:0;stroke-opacity:1;marker-end:url(#ConcaveTriangle)"
       d="m 87.292382,57.65539 c 0,0 11.123068,-0.24442 13.740258,-6.59936"
       id="path22" /><path
       style="fill:none;fill-opacity:1;stroke:#000000;stroke-width:0.74;stroke-miterlimit:3.7;stroke-dasharray:none;stroke-dashoffset:0;stroke-opacity:1"
       d="M 150.05641,64.85816 Z"
       id="path23" /></g></svg>
