<?xml version="1.0" encoding="UTF-8" standalone="no"?>
<!-- Created with Inkscape (http://www.inkscape.org/) -->

<svg
   version="1.1"
   id="svg1"
   width="112.21262"
   height="21.567709"
   viewBox="0 0 112.21262 21.567709"
   xmlns="http://www.w3.org/2000/svg"
   xmlns:svg="http://www.w3.org/2000/svg">
  <defs
     id="defs1">
    <clipPath
       clipPathUnits="userSpaceOnUse"
       id="clipPath255">
      <rect
         style="fill:#000000"
         id="rect255"
         width="153.06122"
         height="37.7551"
         x="134.69388"
         y="396.93878" />
    </clipPath>
  </defs>
  <g
     id="g1"
     clip-path="url(#clipPath255)"
     transform="translate(-147.01227,-405.44271)">
    <path
       id="path21"
       d="M 0,0 H 123.123 V 39.096 H 0 Z"
       style="fill:#ffffff;fill-opacity:1;fill-rule:nonzero;stroke:none"
       transform="matrix(1.3333333,0,0,-1.3333333,131.66133,442.292)" />
    <g
       id="g21"
       aria-label="y=f(x)=x"
       transform="matrix(1.3333333,0,0,1.3333333,147.84,421.06267)"
       style="stroke:#000000;stroke-opacity:1">
      <path
         id="path22"
         d="m -0.10558594,2.578 c -0.0117188,0.1054687 -0.0117188,0.1875 -0.0117188,0.2578125 0,0.6210937 0.52734375,1.125 1.18359374,1.125 1.5117188,0 3.09375,-1.78125 3.9375,-4.4296875 L 7.0311328,-6.7852813 6.8670703,-6.9141875 c -0.4101562,0.1523437 -0.7382812,0.2460937 -1.0546875,0.2695312 l -0.5039062,1.8984375 c -0.1757813,0.6679688 -0.6796875,1.7226563 -1.1484375,2.4257813 -0.5039063,0.7265625 -1.2070313,1.359375 -1.5234375,1.359375 -0.1640625,0 -0.2929688,-0.328125 -0.28125,-0.6914063 l 0.011719,-0.1875 0.2109375,-2.7773437 c 0.035156,-0.4453125 0.058594,-0.9960938 0.058594,-1.3945313 0,-0.6445312 -0.09375,-0.9023437 -0.3398438,-0.9023437 -0.1875,0 -0.3867187,0.1054687 -1.078125,0.5742187 l -1.17187499,0.8085938 0.15234375,0.2578125 0.71484375,-0.4335938 0.0585938,-0.046875 c 0.14062499,-0.082031 0.24609369,-0.1289062 0.30468749,-0.1289062 0.1992187,0 0.3164062,0.2695312 0.3164062,0.75 0,0.011719 0,0.09375 -0.011719,0.2109375 l -0.2460938,3.4921875 -0.011719,0.57421875 c 0,0.59765625 0.2578125,1.0078125 0.609375,1.0078125 0.5390625,0 1.734375,-1.21875005 2.8125,-2.83593755 L 4.0428516,-0.2345 C 3.3162891,2.3084687 2.6014453,3.3514375 1.5936328,3.3514375 c -0.5039062,0 -0.89062499,-0.3867188 -0.89062499,-0.8789063 0,-0.082031 0.0117188,-0.1875 0.0234375,-0.3164062 l -0.140625,-0.058594 z m 0,0"
         style="fill:#000000;fill-opacity:1;fill-rule:nonzero;stroke:#000000;stroke-opacity:1" />
      <path
         id="path23"
         d="m 21.793828,-4.8868438 c 0.222656,0 0.503906,0 0.503906,-0.3046875 0,-0.2929687 -0.28125,-0.2929687 -0.492187,-0.2929687 h -8.953125 c -0.210938,0 -0.503906,0 -0.503906,0.2929687 0,0.3046875 0.292968,0.3046875 0.515625,0.3046875 z m 0.01172,2.8945313 c 0.210937,0 0.492187,0 0.492187,-0.2929688 0,-0.3046875 -0.28125,-0.3046875 -0.503906,-0.3046875 h -8.929687 c -0.222657,0 -0.515625,0 -0.515625,0.3046875 0,0.2929688 0.292968,0.2929688 0.503906,0.2929688 z m 0,0"
         style="fill:#000000;fill-opacity:1;fill-rule:nonzero;stroke:#000000;stroke-opacity:1" />
      <path
         id="path24"
         d="m 33.448125,-5.4962188 c 0.05859,-0.2695312 0.164063,-0.5976562 0.246094,-0.796875 l -0.05859,-0.1054687 -0.105469,0.035156 c -0.339843,0.082031 -0.492187,0.09375 -1.195312,0.09375 h -0.234375 l 0.304687,-1.6054687 c 0.222657,-1.2304688 0.632813,-1.78125 1.289063,-1.78125 0.433594,0 0.820312,0.2226562 1.03125,0.5625 l 0.140625,-0.058594 c 0.07031,-0.2226562 0.222656,-0.6679687 0.328125,-0.9609368 l 0.08203,-0.210938 c -0.234375,-0.105469 -0.679687,-0.1875 -1.007812,-0.1875 -0.164063,0 -0.386719,0.03516 -0.503907,0.09375 -0.339843,0.164063 -1.523437,1.0429686 -1.851562,1.3828123 -0.316406,0.3164063 -0.492188,0.75 -0.644531,1.5585938 L 31.0575,-6.3399688 c -0.597656,0.28125 -0.878906,0.3984375 -1.242187,0.5273438 L 29.745,-5.4962188 h 1.160156 L 30.77625,-4.687625 c -0.421875,2.7890625 -0.960937,5.4609375 -1.277344,6.4570312 -0.257812,0.84375 -0.679687,1.2890625 -1.195312,1.2890625 -0.339844,0 -0.492188,-0.1054687 -0.75,-0.421875 l -0.199219,0.058594 c -0.05859,0.328125 -0.257812,1.0195312 -0.328125,1.1484375 0.128906,0.070312 0.339844,0.1171875 0.503906,0.1171875 0.585938,0 1.359375,-0.4453125 1.921875,-1.125 0.867188,-1.03125 1.183594,-2.02734375 2.238282,-7.0664063 0.03516,-0.1757812 0.152343,-0.7148437 0.269531,-1.265625 z m 0,0"
         style="fill:#000000;fill-opacity:1;fill-rule:nonzero;stroke:#000000;stroke-opacity:1" />
      <path
         id="path25"
         d="m 40.576055,3.5858125 c 0,-0.046875 0,-0.070312 -0.246094,-0.328125 -1.875,-1.8867188 -2.355469,-4.7109375 -2.355469,-6.9960938 0,-2.6015625 0.574219,-5.203125 2.414063,-7.0781247 0.1875,-0.175782 0.1875,-0.199219 0.1875,-0.246094 0,-0.105469 -0.05859,-0.152344 -0.140625,-0.152344 -0.152344,0 -1.5,1.019531 -2.378907,2.917969 -0.761718,1.640625 -0.949218,3.3046875 -0.949218,4.5585937 0,1.171875 0.164062,2.97656255 0.996093,4.66406255 0.890625,1.83984375 2.179688,2.81249995 2.332032,2.81249995 0.08203,0 0.140625,-0.046875 0.140625,-0.1523437 z m 0,0"
         style="fill:#000000;fill-opacity:1;fill-rule:nonzero;stroke:#000000;stroke-opacity:1" />
      <path
         id="path26"
         d="m 42.333867,-1.26575 c 0,0.29296875 -0.03516,0.48046875 -0.117187,0.9375 -0.03516,0.17578125 -0.04687,0.2109375 -0.05859,0.31640625 0.210937,0.1171875 0.445312,0.1640625 0.621094,0.1640625 0.46875,0 1.03125,-0.41015625 1.476562,-1.08984375 l 1.089844,-1.6757813 0.152344,0.9960938 c 0.1875,1.21875 0.515625,1.76953125 1.03125,1.76953125 0.316406,0 0.773437,-0.234375 1.242187,-0.65625 L 48.474492,-1.1368438 48.345586,-1.406375 c -0.527344,0.43359375 -0.878906,0.64453125 -1.113281,0.64453125 -0.210938,0 -0.398438,-0.140625 -0.539063,-0.43359375 -0.128906,-0.2695313 -0.292969,-0.796875 -0.363281,-1.21875 l -0.257813,-1.4414063 0.503907,-0.703125 c 0.679687,-0.9375 1.066406,-1.265625 1.511718,-1.265625 0.222657,0 0.398438,0.1171875 0.46875,0.328125 l 0.199219,-0.058594 0.210938,-1.21875 c -0.164063,-0.09375 -0.292969,-0.140625 -0.421875,-0.140625 -0.574219,0 -1.148438,0.515625 -2.039063,1.8398437 l -0.527344,0.7851563 -0.09375,-0.6914063 c -0.164062,-1.4179687 -0.550781,-1.9335937 -1.40625,-1.9335937 -0.375,0 -0.679687,0.1171875 -0.808593,0.3046875 l -0.832032,1.1835937 0.234375,0.1523438 c 0.433594,-0.4921875 0.726563,-0.6914063 0.996094,-0.6914063 0.46875,0 0.785156,0.5859375 1.03125,1.9921875 l 0.152344,0.890625 -0.574219,0.890625 c -0.609375,0.9609375 -1.101562,1.4179688 -1.5,1.4179688 -0.210937,0 -0.375,-0.0585938 -0.398437,-0.12890625 L 42.615117,-1.3009063 Z m 0,0"
         style="fill:#000000;fill-opacity:1;fill-rule:nonzero;stroke:#000000;stroke-opacity:1" />
      <path
         id="path27"
         d="m 54.02625,-3.7384063 c 0,-1.171875 -0.164062,-2.9765625 -0.984375,-4.6640625 -0.902344,-1.8398442 -2.191406,-2.8125002 -2.34375,-2.8125002 -0.08203,0 -0.140625,0.05859 -0.140625,0.152344 0,0.04687 0,0.07031 0.28125,0.339844 1.464844,1.4765622 2.320313,3.8554685 2.320313,6.9843747 0,2.5546875 -0.550782,5.1914063 -2.414063,7.078125 -0.1875,0.1757813 -0.1875,0.1992188 -0.1875,0.2460938 0,0.09375 0.05859,0.1523437 0.140625,0.1523437 0.152344,0 1.5,-1.0195312 2.378906,-2.9179687 0.761719,-1.640625 0.949219,-3.3046875 0.949219,-4.5585938 z m 16.086914,-1.1484375 c 0.222656,0 0.503906,0 0.503906,-0.3046875 0,-0.2929687 -0.28125,-0.2929687 -0.492187,-0.2929687 h -8.953125 c -0.210938,0 -0.503906,0 -0.503906,0.2929687 0,0.3046875 0.292968,0.3046875 0.515625,0.3046875 z m 0.01172,2.8945313 c 0.210937,0 0.492187,0 0.492187,-0.2929688 0,-0.3046875 -0.28125,-0.3046875 -0.503906,-0.3046875 h -8.929687 c -0.222657,0 -0.515625,0 -0.515625,0.3046875 0,0.2929688 0.292968,0.2929688 0.503906,0.2929688 z m 0,0"
         style="fill:#000000;fill-opacity:1;fill-rule:nonzero;stroke:#000000;stroke-opacity:1" />
      <path
         id="path28"
         d="m 76.353398,-1.26575 c 0,0.29296875 -0.03516,0.48046875 -0.117187,0.9375 -0.03516,0.17578125 -0.04687,0.2109375 -0.05859,0.31640625 0.210938,0.1171875 0.445313,0.1640625 0.621094,0.1640625 0.46875,0 1.03125,-0.41015625 1.476562,-1.08984375 l 1.089844,-1.6757813 0.152344,0.9960938 c 0.1875,1.21875 0.515625,1.76953125 1.03125,1.76953125 0.316406,0 0.773437,-0.234375 1.242187,-0.65625 L 82.494023,-1.1368438 82.365117,-1.406375 c -0.527344,0.43359375 -0.878906,0.64453125 -1.113281,0.64453125 -0.210938,0 -0.398438,-0.140625 -0.539063,-0.43359375 -0.128906,-0.2695313 -0.292968,-0.796875 -0.363281,-1.21875 l -0.257812,-1.4414063 0.503906,-0.703125 c 0.679687,-0.9375 1.066406,-1.265625 1.511719,-1.265625 0.222656,0 0.398437,0.1171875 0.46875,0.328125 l 0.199218,-0.058594 0.210938,-1.21875 c -0.164063,-0.09375 -0.292969,-0.140625 -0.421875,-0.140625 -0.574219,0 -1.148438,0.515625 -2.039063,1.8398437 l -0.527343,0.7851563 -0.09375,-0.6914063 c -0.164063,-1.4179687 -0.550782,-1.9335937 -1.40625,-1.9335937 -0.375,0 -0.679688,0.1171875 -0.808594,0.3046875 l -0.832031,1.1835937 0.234375,0.1523438 c 0.433593,-0.4921875 0.726562,-0.6914063 0.996093,-0.6914063 0.46875,0 0.785157,0.5859375 1.03125,1.9921875 l 0.152344,0.890625 -0.574219,0.890625 c -0.609375,0.9609375 -1.101562,1.4179688 -1.5,1.4179688 -0.210937,0 -0.375,-0.0585938 -0.398437,-0.12890625 L 76.634648,-1.3009063 Z m 0,0"
         style="fill:#000000;fill-opacity:1;fill-rule:nonzero;stroke:#000000;stroke-opacity:1" />
    </g>
  </g>
</svg>
