<?xml version="1.0" encoding="UTF-8" standalone="no"?>
<!-- Created with Inkscape (http://www.inkscape.org/) -->

<svg
   width="160.30942mm"
   height="163.78967mm"
   viewBox="0 0 160.30942 163.78967"
   version="1.1"
   id="svg1"
   xml:space="preserve"
   sodipodi:docname="FunRecta.svg"
   inkscape:export-batch-path="C:\Users\Akdemicos\Desktop\Akemicos\Akdemicos-Front\public"
   inkscape:export-batch-name="ParabolPositiva"
   xmlns:inkscape="http://www.inkscape.org/namespaces/inkscape"
   xmlns:sodipodi="http://sodipodi.sourceforge.net/DTD/sodipodi-0.dtd"
   xmlns="http://www.w3.org/2000/svg"
   xmlns:svg="http://www.w3.org/2000/svg"><sodipodi:namedview
     id="namedview1"
     pagecolor="#ffffff"
     bordercolor="#000000"
     borderopacity="0.25"
     inkscape:showpageshadow="2"
     inkscape:pageopacity="0.0"
     inkscape:pagecheckerboard="0"
     inkscape:deskcolor="#d1d1d1"
     inkscape:document-units="mm"><inkscape:page
       x="0"
       y="0"
       width="160.30942"
       height="163.78966"
       id="page1"
       margin="0"
       bleed="0" /></sodipodi:namedview><defs
     id="defs1"><marker
       style="overflow:visible"
       id="ConcaveTriangle"
       refX="0"
       refY="0"
       orient="auto-start-reverse"
       markerWidth="1"
       markerHeight="1"
       viewBox="0 0 1 1"
       preserveAspectRatio="xMidYMid"><path
         transform="scale(0.7)"
         d="M -2,-4 9,0 -2,4 c 2,-2.33 2,-5.66 0,-8 z"
         style="fill:context-stroke;fill-rule:evenodd;stroke:none"
         id="path7" /></marker><marker
       style="overflow:visible"
       id="ConcaveTriangle-1"
       refX="0"
       refY="0"
       orient="auto-start-reverse"
       markerWidth="1"
       markerHeight="1"
       viewBox="0 0 1 1"
       preserveAspectRatio="xMidYMid"><path
         transform="scale(0.7)"
         d="M -2,-4 9,0 -2,4 c 2,-2.33 2,-5.66 0,-8 z"
         style="fill:context-stroke;fill-rule:evenodd;stroke:none"
         id="path7-6" /></marker><clipPath
       clipPathUnits="userSpaceOnUse"
       id="clipPath8"><rect
         style="fill:#000000;fill-opacity:1;stroke:#000000;stroke-width:0.958001;stroke-dasharray:5.74799, 0.958001;stroke-dashoffset:0;stroke-opacity:1"
         id="rect8"
         width="160.95485"
         height="163.78967"
         x="-0.6299603"
         y="-0.31498015" /></clipPath></defs><g
     id="g8"
     clip-path="url(#clipPath8)"
     transform="translate(0.6299603,0.31498015)"><path
       fill="none"
       stroke="#006400"
       paint-order="fill stroke markers"
       d="m -14.986276,5.9622117 v 0.5600062 0 l 0.144619,0.5587652 v 0 l 0.14462,0.5575362 v 0 l 0.144624,0.5563042 v 0 l 0.144618,0.5550532 v 0 l 0.144619,0.5538343 v 0 l 0.144619,0.5525923 v 0 l 0.144618,0.5513627 v 0 l 0.144618,0.550121 v 0 l 0.144618,0.548882 v 0 l 0.144625,0.547649 v 0 l 0.144618,0.546423 v 0 l 0.144619,0.545179 v 0 l 0.144619,0.543938 v 0 l 0.144619,0.542708 v 0 l 0.144619,0.541478 v 0 l 0.144618,0.540237 v 0 l 0.144624,0.539007 v 0 l 0.144619,0.537775 v 0 l 0.144619,0.536526 v 0 l 0.144618,0.535295 v 0 l 0.144618,0.534064 v 0 l 0.144619,0.532835 v 0 l 0.144618,0.531593 v 0 l 0.144627,0.530341 v 0 l 0.144617,0.529134 v 0 l 0.144618,0.527881 v 0 l 0.144619,0.526651 v 0 l 0.144619,0.525411 v 0 l 0.144619,0.524179 v 0 l 0.144618,0.52294 v 0 l 0.144624,0.52171 v 0 l 0.144619,0.520478 v 0 l 0.144618,0.519237 v 0 l 0.144618,0.518008 v 0 l 0.1446197,0.516756 v 0 l 0.1446183,0.515535 v 0 l 0.1446191,0.514295 v 0 l 0.1446238,0.513056 v 0 l 0.1446192,0.511834 v 0 l 0.1446191,0.510594 v 0 l 0.1446176,0.509353 v 0 l 0.144619,0.508123 v 0 l 0.1446183,0.506871 v 0 l 0.14462,0.505653 v 0 l 0.1446229,0.50442 v 0 l 0.1446184,0.50317 v 0 l 0.1446199,0.501948 v 0 l 0.1446168,0.500701 v 0 l 0.1446199,0.499469 v 0 l 0.1446183,0.498238 v 0 l 0.1446183,0.497008 v 0 l 0.1446246,0.495756 v 0 l 0.1446183,0.494536 v 0 l 0.1446191,0.493296 v 0 l 0.1446193,0.492054 v 0 l 0.1446184,0.490826 v 0 l 0.1446185,0.489595 v 0 l 0.1446175,0.488352 v 0 l 0.1446247,0.487114 v 0 l 0.1446183,0.485881 v 0 l 0.1446194,0.484653 v 0 l 0.1446184,0.483401 v 0 l 0.1446185,0.48218 v 0 l 0.1446187,0.480943 v 0 l 0.144618,0.479707 v 0 l 0.1446252,0.478471 v 0 l 0.1446181,0.477238 v 0 l 0.144619,0.475997 v 0 l 0.1446191,0.474768 v 0 l 0.1446181,0.473526 v 0 l 0.1446181,0.472297 v 0 l 0.1446191,0.471056 v 0 l 0.1446251,0.469825 v 0 l 0.1446181,0.468584 v 0 l 0.1446181,0.46735 v 0 l 0.144619,0.466119 v 0 l 0.1446191,0.464878 v 0 l 0.1446181,0.46365 v 0 l 0.1446181,0.462409 v 0 l 0.1446261,0.461171 v 0 l 0.1446181,0.459941 v 0 l 0.1446171,0.458703 v 0 l 0.1446201,0.45747 v 0 l 0.144618,0.456234 v 0 l 0.1446181,0.455003 v 0 l 0.1446191,0.453765 v 0 l 0.1446231,0.452523 v 0 l 0.1446211,0.451295 v 0 l 0.1446181,0.450056 v 0 l 0.1446181,0.44882 v 0 l 0.1446191,0.447584 v 0 l 0.144618,0.446351 v 0 l 0.1446191,0.445114 v 0 l 0.1446231,0.443882 v 0 l 0.1446191,0.442646 v 0 l 0.1446191,0.441412 v 0 l 0.14461808,0.44017 v 0 l 0.14461806,0.438942 v 0 l 0.14462009,0.437701 v 0 l 0.14461909,0.436464 v 0 l 0.14462313,0.43523 v 0 l 0.14461908,0.433998 v 0 l 0.14461807,0.432763 v 0 l 0.14461909,0.431525 v 0 l 0.14461807,0.430292 v 0 l 0.14461807,0.429059 v 0 l 0.14461909,0.427815 v 0 l 0.14462414,0.426589 v 0 l 0.14461908,0.425346 v 0 l 0.14461908,0.42411 v 0 l 0.14461808,0.422887 v 0 l 0.1446181,0.421641 v 0 l 0.1446191,0.42041 v 0 l 0.144618,0.419171 v 0 l 0.1446262,0.417939 v 0 l 0.1446181,0.416697 v 0 l 0.1446191,0.415468 v 0 l 0.144618,0.414227 v 0 l 0.1446191,0.413001 v 0 l 0.1446181,0.411758 v 0 l 0.1446191,0.410522 v 0 l 0.1446241,0.409297 v 0 l 0.1446181,0.408054 v 0 l 0.1446201,0.406811 v 0 l 0.144618,0.405584 v 0 l 0.1446181,0.404351 v 0 l 0.1446191,0.403114 v 0 l 0.1446181,0.401874 v 0 l 0.1446261,0.400645 v 0 l 0.1446171,0.399406 v 0 l 0.1446191,0.398167 v 0 l 0.1446191,0.396935 v 0 l 0.144618,0.395701 v 0 l 0.1446181,0.394465 v 0 l 0.1446191,0.39323 v 0 l 0.1446241,0.391996 v 0 l 0.1446191,0.390761 v 0 l 0.1446171,0.38952 v 0 l 0.1446191,0.388293 v 0 L 5.260447,72.72978 v 0 l 0.144619,0.385815 v 0 l 0.1446171,0.384588 v 0 l 0.1446252,0.383346 v 0 l 0.144618,0.382113 v 0 l 0.1446181,0.380875 v 0 l 0.1446191,0.379635 v 0 l 0.1446181,0.378407 v 0 l 0.144619,0.377172 v 0 l 0.1446201,0.375932 v 0 l 0.1446232,0.374703 v 0 l 0.1446191,0.373462 v 0 l 0.144618,0.372227 v 0 l 0.1446181,0.370992 v 0 l 0.1446191,0.369758 v 0 l 0.1446181,0.368523 v 0 l 0.144619,0.367287 v 0 l 0.1446242,0.366054 v 0 l 0.1446191,0.364811 v 0 l 0.144619,0.363585 v 0 l 0.1446181,0.362342 v 0 l 0.1446181,0.361115 v 0 l 0.1446191,0.359873 v 0 l 0.1446191,0.358638 v 0 l 0.1446241,0.357403 v 0 l 0.1446191,0.356169 v 0 l 0.1446181,0.354934 v 0 l 0.144619,0.353691 v 0 l 0.1446181,0.352464 v 0 l 0.1446181,0.351232 v 0 l 0.1446201,0.349989 v 0 l 0.1446231,0.348752 v 0 l 0.1446181,0.347526 v 0 l 0.1446192,0.346285 v 0 l 0.144618,0.34505 v 0 l 0.14462,0.343815 v 0 l 0.144618,0.342579 v 0 l 0.144618,0.341347 v 0 l 0.144626,0.340101 v 0 l 0.144617,0.338878 v 0 l 0.144618,0.337633 v 0 l 0.144619,0.336408 v 0 l 0.14462,0.335164 v 0 l 0.144617,0.333932 v 0 l 0.144619,0.332695 v 0 l 0.144626,0.331462 v 0 l 0.144618,0.330226 v 0 l 0.144618,0.328992 v 0 l 0.144618,0.327757 v 0 l 0.14462,0.326514 v 0 l 0.144619,0.325289 v 0 l 0.144617,0.324045 v 0 l 0.144625,0.32281 v 0 l 0.144618,0.321585 v 0 l 0.144619,0.320342 v 0 l 0.144618,0.319107 v 0 l 0.144619,0.317872 v 0 l 0.14462,0.316639 v 0 l 0.144618,0.315395 v 0 l 0.144624,0.314169 v 0 l 0.144618,0.312926 v 0 l 0.144619,0.311699 v 0 l 0.144618,0.310456 v 0 l 0.144619,0.309223 v 0 l 0.144619,0.307995 v 0 l 0.144618,0.306758 v 0 l 0.144624,0.305514 v 0 l 0.144619,0.304274 v 0 l 0.14462,0.303044 v 0 l 0.144618,0.301814 v 0 l 0.144618,0.300574 v 0 l 0.14462,0.299344 v 0 l 0.144617,0.298115 v 0 l 0.144625,0.296864 v 0 l 0.144618,0.295634 v 0 l 0.144618,0.294404 v 0 l 0.14462,0.293165 v 0 l 0.144618,0.291944 v 0 l 0.144618,0.290674 v 0 l 0.14462,0.289465 v 0 l 0.144624,0.288234 v 0 l 0.144619,0.286985 v 0 l 0.144618,0.285751 v 0 l 0.14462,0.28452 v 0 l 0.144618,0.28328 v 0 l 0.144618,0.28204 v 0 l 0.144618,0.28081 v 0 l 0.144625,0.27957 v 0 l 0.144618,0.27835 v 0 l 0.144618,0.27711 v 0 l 0.14462,0.27586 v 0 l 0.14462,0.27464 v 0 l 0.144617,0.27339 v 0 l 0.144619,0.27216 v 0 l 0.144624,0.27093 v 0 l 0.144619,0.2697 v 0 l 0.144617,0.26845 v 0 l 0.144619,0.26723 v 0 l 0.14462,0.26597 v 0 l 0.144619,0.26476 v 0 l 0.144621,0.26351 v 0 l 0.144619,0.26228 v 0 l 0.144619,0.26105 v 0 l 0.144621,0.25981 v 0 l 0.144618,0.25857 v 0 l 0.14462,0.25736 v 0 l 0.144618,0.25609 v 0 l 0.144621,0.25486 v 0 l 0.14462,0.25362 v 0 l 0.144617,0.25241 v 0 l 0.144621,0.25116 v 0 l 0.144618,0.24993 v 0 l 0.144621,0.24869 v 0 l 0.14462,0.24745 v 0 l 0.144619,0.24623 v 0 l 0.144619,0.24499 v 0 l 0.14462,0.24374 v 0 l 0.14462,0.24252 v 0 l 0.144618,0.24128 v 0 l 0.144619,0.24002 v 0 l 0.14462,0.23881 v 0 l 0.14462,0.23759 v 0 l 0.144619,0.23633 v 0 l 0.144619,0.23512 v 0 l 0.14462,0.23385 v 0 l 0.14462,0.23263 v 0 l 0.144619,0.23141 v 0 l 0.14462,0.23013 v 0 l 0.144619,0.22895 v 0 l 0.144619,0.22768 v 0 l 0.14462,0.22646 v 0 l 0.144619,0.2252 v 0 l 0.14462,0.22401 v 0 l 0.144618,0.22274 v 0 l 0.14462,0.22152 v 0 l 0.144621,0.22027 v 0 l 0.144618,0.21903 v 0 l 0.144621,0.21782 v 0 l 0.144618,0.21656 v 0 l 0.14462,0.21534 v 0 l 0.144619,0.2141 v 0 l 0.144619,0.21287 v 0 l 0.14462,0.21162 v 0 l 0.144619,0.21039 v 0 l 0.14462,0.20917 v 0 l 0.144619,0.20793 v 0 l 0.144619,0.20668 v 0 l 0.14462,0.20545 v 0 l 0.14462,0.20422 v 0 l 0.14462,0.20299 v 0 l 0.144617,0.20175 v 0 l 0.14462,0.2005 v 0 l 0.144621,0.19929 v 0 l 0.144618,0.19803 v 0 l 0.14462,0.1968 v 0 l 0.144618,0.19558 v 0 l 0.144621,0.19431 v 0 l 0.144619,0.19312 v 0 l 0.14462,0.19186 v 0 l 0.14462,0.19063 v 0 l 0.144619,0.1894 v 0 l 0.14462,0.18815 v 0 l 0.144619,0.18693 v 0 l 0.144619,0.18568 v 0 l 0.144619,0.18446 v 0 l 0.14462,0.18321 v 0 l 0.14462,0.18199 v 0 l 0.144618,0.18073 v 0 l 0.144619,0.17951 v 0 l 0.14462,0.17829 v 0 l 0.144621,0.17702 v 0 l 0.144619,0.17581 v 0 l 0.144619,0.17458 v 0 l 0.144619,0.17332 v 0 l 0.14462,0.1721 v 0 l 0.144619,0.17087 v 0 l 0.14462,0.16961 v 0 l 0.144618,0.16842 v 0 l 0.14462,0.16715 v 0 l 0.14462,0.16592 v 0 l 0.144619,0.16467 v 0 l 0.14462,0.16346 v 0 l 0.144619,0.16221 v 0 l 0.144621,0.16099 v 0 l 0.144618,0.15973 v 0 l 0.144619,0.1585 v 0 l 0.144621,0.15728 v 0 l 0.144618,0.15605 v 0 l 0.14462,0.15481 v 0 l 0.144619,0.15355 v 0 l 0.144619,0.15233 v 0 l 0.14462,0.15111 v 0 l 0.14462,0.14985 v 0 l 0.144621,0.14863 v 0 l 0.144618,0.14739 v 0 l 0.144618,0.14615 v 0 l 0.144621,0.14493 v 0 l 0.144619,0.14368 v 0 l 0.14462,0.14246 v 0 l 0.144618,0.1412 v 0 l 0.144621,0.13998 v 0 l 0.144618,0.13874 v 0 l 0.144619,0.13751 v 0 l 0.144621,0.13627 v 0 l 0.144619,0.13504 v 0 l 0.14462,0.1338 v 0 l 0.144619,0.13257 v 0 l 0.144619,0.13132 v 0 l 0.14462,0.1301 v 0 l 0.144619,0.12886 v 0 l 0.14462,0.12763 v 0 l 0.144619,0.12636 v 0 l 0.144618,0.12517 v 0 l 0.144621,0.12393 v 0 l 0.144619,0.12268 v 0 l 0.14462,0.12145 v 0 l 0.144619,0.1202 v 0 l 0.144619,0.11898 v 0 l 0.14462,0.11775 v 0 l 0.144619,0.1165 v 0 l 0.14462,0.11527 v 0 l 0.144619,0.11403 v 0 l 0.144619,0.11281 v 0 l 0.14462,0.11157 v 0 l 0.144619,0.11032 v 0 l 0.144619,0.10909 v 0 l 0.144619,0.10787 v 0 l 0.144621,0.10662 v 0 l 0.14462,0.10538 v 0 l 0.144618,0.10416 v 0 l 0.144621,0.10292 v 0 l 0.144622,0.10168 v 0 l 0.144617,0.10044 v 0 l 0.14462,0.0992 v 0 l 0.144619,0.0979 v 0 l 0.144618,0.0967 v 0 l 0.144618,0.0955 v 0 l 0.144618,0.0942 v 0 l 0.144626,0.093 v 0 l 0.144619,0.0918 v 0 l 0.144617,0.0905 v 0 l 0.14462,0.0893 v 0 l 0.144619,0.088 v 0 l 0.144618,0.0868 v 0 l 0.144618,0.0856 v 0 l 0.144625,0.0844 v 0 l 0.144618,0.0831 v 0 l 0.144618,0.0819 v 0 l 0.144619,0.0806 v 0 l 0.14462,0.0794 v 0 l 0.144618,0.0782 v 0 l 0.144619,0.0769 v 0 l 0.144623,0.0757 v 0 l 0.14462,0.0745 v 0 l 0.144618,0.0732 v 0 l 0.144619,0.072 v 0 l 0.144618,0.0708 v 0 l 0.144618,0.0695 v 0 l 0.14462,0.0683 v 0 l 0.144622,0.0671 v 0 l 0.144622,0.0658 v 0 l 0.144618,0.0646 v 0 l 0.144618,0.0634 v 0 l 0.144618,0.0621 v 0 l 0.144618,0.0609 v 0 l 0.14462,0.0597 v 0 l 0.144623,0.0584 v 0 l 0.14462,0.0572 v 0 l 0.144618,0.0559 v 0 l 0.144619,0.0547 v 0 l 0.144617,0.0535 v 0 l 0.144619,0.0522 v 0 l 0.144621,0.051 v 0 l 0.144623,0.0498 v 0 l 0.144619,0.0485 v 0 l 0.144619,0.0473 v 0 l 0.144618,0.0461 v 0 l 0.144618,0.0448 v 0 l 0.144618,0.0436 v 0 l 0.144622,0.0424 v 0 l 0.144624,0.0411 v 0 l 0.144615,0.0399 v 0 l 0.144617,0.0387 v 0 l 0.144624,0.0374 v 0 l 0.144616,0.0362 v 0 l 0.144616,0.0349 v 0 l 0.144625,0.0337 v 0 l 0.144622,0.0325 v 0 l 0.144617,0.0312 v 0 l 0.144615,0.03 v 0 l 0.144624,0.0288 v 0 l 0.144616,0.0275 v 0 l 0.144617,0.0263 v 0 l 0.144622,0.0251 v 0 l 0.144626,0.0238 v 0 l 0.144615,0.0226 v 0 l 0.144624,0.0214 v 0 l 0.144616,0.0201 v 0 l 0.144616,0.0189 v 0 l 0.144624,0.0177 v 0 l 0.144615,0.0164 v 0 l 0.144625,0.0152 v 0 l 0.144615,0.014 v 0 l 0.144624,0.0127 v 0 l 0.144615,0.0115 v 0 l 0.144617,0.0103 v 0 l 0.144624,0.009 v 0 l 0.144617,0.008 v 0 l 0.144622,0.007 v 0 l 0.144617,0.005 v 0 l 0.144623,0.004 v 0 l 0.144616,0.003 v 0 l 0.144617,0.002 v 0 l 0.144624,3.8e-4 v -2e-5 l 0.144615,-8.9e-4 v 0 l 0.144624,-0.002 v 0 l 0.144616,-0.003 v 0 l 0.144624,-0.005 v 0 l 0.144616,-0.006 v 0 l 0.144616,-0.007 v 0 l 0.144624,-0.008 v 0 l 0.144616,-0.01 v 0 l 0.14462,-0.0107 v 0 l 0.144629,-0.012 v 0 l 0.144619,-0.0132 v 0 l 0.14461,-0.0144 v 0 l 0.144629,-0.0157 v 0 l 0.144609,-0.0169 v 0 l 0.14462,-0.0181 v 0 l 0.144621,-0.0194 v 0 l 0.144628,-0.0206 v 0 l 0.14461,-0.0219 v 0 l 0.144619,-0.0231 v 0 l 0.144629,-0.0243 v 0 l 0.14461,-0.0256 v 0 l 0.144619,-0.0268 v 0 l 0.144619,-0.028 v 0 l 0.144629,-0.0292 v 0 l 0.14461,-0.0305 v 0 l 0.14462,-0.0317 v 0 l 0.144618,-0.033 v 0 l 0.144622,-0.0342 v 0 l 0.144619,-0.0354 v 0 l 0.144619,-0.0367 v 0 l 0.144629,-0.0379 v 0 l 0.144609,-0.0391 v 0 l 0.144621,-0.0404 v 0 l 0.144618,-0.0416 v 0 l 0.144619,-0.0428 v 0 l 0.14462,-0.0441 v 0 l 0.144629,-0.0453 v 0 l 0.14462,-0.0465 v 0 l 0.14461,-0.0478 v 0 l 0.144629,-0.049 v 0 l 0.14461,-0.0502 v 0 l 0.144619,-0.0515 v 0 l 0.14462,-0.0527 v 0 l 0.144628,-0.054 v 0 l 0.14462,-0.0552 v 0 l 0.14461,-0.0564 v 0 l 0.144628,-0.0577 v 0 l 0.14461,-0.0589 v 0 l 0.144619,-0.0601 v 0 l 0.14462,-0.0614 v 0 l 0.144629,-0.0626 v 0 l 0.14461,-0.0638 v 0 l 0.14462,-0.0651 v 0 l 0.144628,-0.0663 v 0 l 0.144611,-0.0675 v 0 l 0.144619,-0.0688 v 0 l 0.144619,-0.07 v 0 l 0.144629,-0.0712 v 0 l 0.14461,-0.0725 v 0 l 0.14462,-0.0737 v 0 l 0.144629,-0.0749 v 0 l 0.144609,-0.0762 v 0 l 0.14463,-0.0774 v 0 l 0.14461,-0.0786 v 0 l 0.144629,-0.0799 v 0 l 0.144619,-0.0811 v 0 l 0.144619,-0.0823 v 0 l 0.144619,-0.0836 v 0 l 0.14461,-0.0848 v 0 l 0.144629,-0.0861 v 0 l 0.14461,-0.0873 v 0 l 0.14463,-0.0885 v 0 l 0.144619,-0.0898 v 0 l 0.14462,-0.091 v 0 l 0.144619,-0.0922 v 0 l 0.144609,-0.0935 v 0 l 0.144629,-0.0947 v 0 l 0.144611,-0.0959 v 0 l 0.144629,-0.0972 v 0 l 0.144619,-0.0984 v 0 l 0.144619,-0.0996 v 0 l 0.144619,-0.10093 v 0 l 0.14462,-0.10215 v 0 l 0.14462,-0.10339 v 0 l 0.144609,-0.10462 v 0 l 0.14463,-0.10586 v 0 l 0.144619,-0.10709 v 0 l 0.144619,-0.10835 v 0 l 0.14461,-0.10956 v 0 l 0.144629,-0.1108 v 0 l 0.144619,-0.11205 v 0 l 0.14461,-0.11328 v 0 l 0.144629,-0.11451 v 0 l 0.144619,-0.11573 v 0 l 0.14462,-0.11699 v 0 l 0.14461,-0.11819 v 0 l 0.14463,-0.11946 v 0 l 0.144618,-0.12068 v 0 l 0.144611,-0.12191 v 0 l 0.144628,-0.12317 v 0 l 0.14462,-0.12439 v 0 l 0.144619,-0.12563 v 0 l 0.14462,-0.12685 v 0 l 0.144619,-0.1281 v 0 l 0.14461,-0.12933 v 0 l 0.14463,-0.13058 v 0 l 0.144619,-0.1318 v 0 l 0.144619,-0.13304 v 0 l 0.144619,-0.13427 v 0 l 0.14462,-0.13551 v 0 l 0.14462,-0.13675 v 0 l 0.144609,-0.13798 v 0 l 0.144629,-0.13923 v 0 l 0.14462,-0.14045 v 0 l 0.144618,-0.14167 v 0 l 0.14462,-0.14293 v 0 l 0.144619,-0.14415 v 0 l 0.144621,-0.1454 v 0 l 0.14461,-0.14663 v 0 l 0.144628,-0.14786 v 0 l 0.14462,-0.14911 v 0 l 0.144618,-0.15033 v 0 l 0.144611,-0.15156 v 0 l 0.144629,-0.15282 v 0 l 0.144619,-0.15403 v 0 l 0.144611,-0.15527 v 0 l 0.144628,-0.15652 v 0 l 0.14462,-0.15774 v 0 l 0.144619,-0.159 v 0 l 0.14462,-0.16021 v 0 l 0.144619,-0.16145 v 0 l 0.144619,-0.16268 v 0 l 0.14462,-0.16393 v 0 l 0.144619,-0.16517 v 0 l 0.14462,-0.16639 v 0 l 0.144619,-0.16763 v 0 l 0.144619,-0.16886 v 0 l 0.14462,-0.1701 v 0 l 0.14461,-0.17134 v 0 l 0.144628,-0.17258 v 0 l 0.144621,-0.1738 v 0 l 0.144619,-0.17504 v 0 l 0.144619,-0.17627 v 0 l 0.144619,-0.17751 v 0 l 0.14462,-0.17875 v 0 l 0.14461,-0.18 v 0 l 0.144628,-0.18121 v 0 l 0.144611,-0.18245 v 0 l 0.144619,-0.18369 v 0 l 0.144619,-0.18492 v 0 l 0.144619,-0.18617 v 0 l 0.144624,-0.18739 v 0 l 0.144609,-0.18864 v 0 l 0.144627,-0.18987 v 0 l 0.144617,-0.19108 v 0 l 0.144618,-0.19235 v 0 l 0.144626,-0.19358 v 0 l 0.144618,-0.1948 v 0 l 0.144617,-0.19605 v 0 l 0.144618,-0.19726 v 0 l 0.144617,-0.19853 v 0 l 0.144626,-0.19975 v 0 l 0.144618,-0.20098 v 0 l 0.144617,-0.20223 v 0 l 0.144619,-0.20345 v 0 l 0.144617,-0.20469 v 0 l 0.144627,-0.20593 v 0 l 0.144617,-0.20715 v 0 l 0.144609,-0.20841 v 0 l 0.144626,-0.20963 v 0 l 0.144626,-0.21086 v 0 l 0.144618,-0.21211 v 0 l 0.144617,-0.21334 v 0 l 0.144618,-0.21458 v 0 l 0.144617,-0.2158 v 0 l 0.144618,-0.21706 v 0 l 0.144627,-0.21828 v 0 l 0.144617,-0.2195 v 0 l 0.144618,-0.22075 v 0 l 0.144617,-0.22199 v 0 l 0.144627,-0.22321 v 0 l 0.144617,-0.22447 v 0 l 0.144618,-0.22569 v 0 l 0.144626,-0.22693 v 0 l 0.144617,-0.22815 v 0 l 0.144618,-0.22941 v 0 l 0.144617,-0.23064 v 0 L 77.71478,111.294 v 0 l 0.144617,-0.23309 v 0 l 0.144627,-0.23434 v 0 L 78.14865,110.591 v 0 l 0.144609,-0.23682 v 0 l 0.144617,-0.23804 v 0 l 0.144618,-0.2393 v 0 l 0.144626,-0.24051 v 0 l 0.144617,-0.24175 v 0 l 0.144618,-0.24298 v 0 l 0.144617,-0.24422 v 0 l 0.144618,-0.24546 v 0 l 0.144627,-0.24669 v 0 l 0.144617,-0.24792 v 0 l 0.144618,-0.24917 v 0 l 0.144609,-0.25041 v 0 l 0.144635,-0.25163 v 0 l 0.144617,-0.25288 v 0 l 0.144618,-0.25409 v 0 l 0.144617,-0.25535 v 0 l 0.144618,-0.25658 v 0 l 0.144626,-0.25781 v 0 l 0.144618,-0.25904 v 0 l 0.144618,-0.26029 v 0 l 0.144617,-0.26151 v 0 l 0.144627,-0.26276 v 0 l 0.144617,-0.26399 v 0 l 0.144609,-0.26522 v 0 l 0.144626,-0.26647 v 0 l 0.144618,-0.26769 v 0 l 0.144626,-0.26892 v 0 l 0.144609,-0.27018 v 0 l 0.144626,-0.2714 v 0 l 0.144617,-0.27263 v 0 l 0.144628,-0.27409 v 0 l 0.144617,-0.27511 v 0 l 0.144609,-0.27634 v 0 l 0.144626,-0.27758 v 0 l 0.144618,-0.27882 v 0 l 0.144626,-0.28004 v 0 l 0.144608,-0.28128 v 0 l 0.144627,-0.28253 v 0 l 0.144617,-0.28376 v 0 l 0.144626,-0.28498 v 0 l 0.144609,-0.286229 v 0 l 0.144618,-0.287465 v 0 l 0.144636,-0.288694 v 0 l 0.144608,-0.289934 v 0 l 0.144627,-0.291165 v 0 l 0.144608,-0.292404 v 0 l 0.144627,-0.293634 v 0 l 0.144617,-0.294875 v 0 l 0.14463,-0.296114 v 0 l 0.144605,-0.297344 v 0 l 0.144615,-0.298564 v 0 l 0.144625,-0.299835 v 0 l 0.144626,-0.301034 v 0 l 0.144615,-0.302284 v 0 l 0.144604,-0.303524 v 0 l 0.144636,-0.304764 v 0 l 0.144625,-0.305994 v 0 l 0.144615,-0.307223 v 0 l 0.144615,-0.308466 v 0 l 0.144615,-0.309693 v 0 l 0.144625,-0.310937 v 0 l 0.144615,-0.312171 v 0 l 0.144625,-0.313396 v 0 l 0.144615,-0.31464 v 0 l 0.144626,-0.315875 v 0 l 0.144615,-0.317109 v 0 l 0.144625,-0.318352 v 0 l 0.144615,-0.319578 v 0 l 0.144605,-0.320812 v 0 l 0.144645,-0.322057 v 0 l 0.144615,-0.323289 v 0 l 0.144615,-0.324517 v 0 l 0.144615,-0.325758 v 0 l 0.144625,-0.326995 v 0 l 0.144615,-0.328228 v 0 l 0.144626,-0.329463 v 0 l 0.144625,-0.330697 v 0 l 0.144605,-0.33194 v 0 l 0.144625,-0.333176 v 0 l 0.144625,-0.33441 v 0 l 0.144615,-0.335637 v 0 l 0.144615,-0.336877 v 0 l 0.144625,-0.338114 v 0 l 0.144615,-0.339338 v 0 l 0.144615,-0.340584 v 0 l 0.144625,-0.341825 v 0 l 0.144615,-0.343051 v 0 l 0.144626,-0.344287 v 0 l 0.144615,-0.34552 v 0 l 0.144625,-0.346763 v 0 l 0.144615,-0.347989 v 0 l 0.144615,-0.349233 v 0 l 0.144625,-0.350467 v 0 l 0.144615,-0.351702 v 0 l 0.144625,-0.352936 v 0 l 0.144615,-0.354171 v 0 l 0.144625,-0.355405 v 0 l 0.144615,-0.356641 v 0 l 0.144626,-0.357874 v 0 l 0.144615,-0.359118 v 0 l 0.144615,-0.360343 v 0 l 0.144625,-0.361587 v 0 l 0.144615,-0.362821 v 0 l 0.144625,-0.364056 v 0 l 0.144615,-0.365281 v 0 l 0.144625,-0.366532 v 0 l 0.144615,-0.36776 v 0 l 0.144625,-0.368995 v 0 l 0.144615,-0.370227 v 0 l 0.144615,-0.371473 v 0 l 0.144626,-0.372698 v 0 l 0.144615,-0.373939 v 0 l 0.144625,-0.375187 v 0 l 0.144615,-0.376409 v 0 l 0.144615,-0.377643 v 0 l 0.144625,-0.378881 v 0 l 0.144615,-0.380113 v 0 l 0.144625,-0.381348 v 0 l 0.144615,-0.382591 v 0 l 0.144625,-0.383816 v 0 l 0.144615,-0.385062 v 0 l 0.144626,-0.386285 v 0 l 0.144615,-0.387528 v 0 l 0.144615,-0.388763 v 0 l 0.144625,-0.389991 v 0 l 0.144615,-0.391233 v 0 l 0.144635,-0.392468 v 0 l 0.144605,-0.393709 v 0 l 0.144625,-0.394935 v 0 l 0.144615,-0.396172 v 0 l 0.144625,-0.397414 v 0 l 0.144615,-0.39864 v 0 l 0.144615,-0.399882 v 0 l 0.144626,-0.401118 v 0 l 0.144615,-0.402353 v 0 l 0.144625,-0.403577 v 0 l 0.144615,-0.40483 v 0 l 0.144625,-0.406056 v 0 l 0.144605,-0.407291 v 0 l 0.144635,-0.408525 v 0 L 98.53998,65.00729 v 0 l 0.144615,-0.410994 v 0 l 0.144625,-0.412237 v 0 l 0.144615,-0.413471 v 0 l 0.144626,-0.414699 v 0 l 0.144605,-0.415939 v 0 l 0.144635,-0.417176 v 0 l 0.144615,-0.41841 v 0 l 0.144625,-0.419652 v 0 l 0.144615,-0.420878 v 0 l 0.144615,-0.422113 v 0 l 0.144629,-0.423357 v 0 l 0.14461,-0.424583 v 0 l 0.14463,-0.425825 v 0 l 0.1446,-0.427061 v 0 l 0.14464,-0.428293 v 0 l 0.14461,-0.429529 v 0 l 0.14463,-0.430762 v 0 l 0.1446,-0.432001 v 0 l 0.14463,-0.433231 v 0 l 0.14464,-0.434475 v 0 l 0.1446,-0.435704 v 0 l 0.14462,-0.436943 v 0 l 0.14461,-0.438172 v 0 l 0.14463,-0.439413 v 0 l 0.14462,-0.440649 v 0 l 0.14462,-0.441883 v 0 l 0.1446,-0.443117 v 0 l 0.14464,-0.444353 v 0 l 0.14461,-0.445594 v 0 l 0.14463,-0.446822 v 0 l 0.14461,-0.448057 v 0 l 0.14461,-0.449297 v 0 l 0.14463,-0.450534 v 0 l 0.14463,-0.45176 v 0 l 0.14461,-0.453003 v 0 l 0.14463,-0.454235 v 0 l 0.14461,-0.455472 v 0 l 0.14462,-0.456707 v 0 l 0.14462,-0.457939 v 0 l 0.14461,-0.459186 v 0 l 0.14462,-0.460409 v 0 l 0.14463,-0.461652 v 0 l 0.14462,-0.462879 v 0 l 0.14462,-0.464123 v 0 l 0.1446,-0.465356 v 0 l 0.14464,-0.466591 v 0 l 0.14461,-0.46782 v 0 l 0.14463,-0.469065 v 0 l 0.1446,-0.470294 v 0 l 0.14463,-0.471526 v 0 l 0.14462,-0.472777 v 0 l 0.14463,-0.473997 v 0 l 0.1446,-0.475237 v 0 l 0.14462,-0.476478 v 0 l 0.14462,-0.477699 v 0 l 0.14463,-0.47895 v 0 l 0.14463,-0.48018 v 0 l 0.1446,-0.48141 v 0 l 0.14463,-0.482661 v 0 l 0.14462,-0.483883 v 0 l 0.14462,-0.485122 v 0 l 0.14461,-0.486351 v 0 l 0.14464,-0.487593 v 0 l 0.1446,-0.488825 v 0 l 0.14463,-0.490063 v 0 l 0.14461,-0.491297 v 0 l 0.14462,-0.492534 v 0 l 0.14462,-0.493768 v 0 l 0.14463,-0.495004 v 0 l 0.14462,-0.49624 v 0 l 0.14461,-0.497476 v 0 l 0.14461,-0.498708 v 0 l 0.14463,-0.49995 v 0 l 0.14462,-0.501178 v 0 l 0.14462,-0.502421 v 0 l 0.14461,-0.50364 v 0 l 0.14463,-0.504891 v 0 l 0.14462,-0.506122 v 0 l 0.14462,-0.507353 v 0 l 0.14461,-0.508601 v 0 l 0.14462,-0.509823 v 0 l 0.14462,-0.511065 v 0 l 0.14464,-0.512304 v 0 l 0.1446,-0.513535 v 0 l 0.14462,-0.514766 v 0 l 0.14462,-0.516006 v 0 l 0.14463,-0.517236 v 0 l 0.14461,-0.518478 v 0 l 0.14462,-0.519707 v 0 l 0.14462,-0.52095 v 0 l 0.14462,-0.52219 v 0 l 0.14462,-0.523408 v 0 l 0.14462,-0.52465 v 0 l 0.14461,-0.525893 v 0 l 0.14462,-0.527129 v 0 l 0.14463,-0.528352 v 0 l 0.14463,-0.529592 v 0 l 0.1446,-0.530834 v 0 l 0.14462,-0.532063 v 0 l 0.14462,-0.533305 v 0 l 0.14463,-0.534534 v 0 l 0.14461,-0.535766 v 0 l 0.14462,-0.537015 v 0 l 0.14463,-0.538236 v 0 l 0.14462,-0.539477 v 0 l 0.1446,-0.540717 v 0 l 0.14463,-0.541939 v 0 l 0.14461,-0.543187 v 0 l 0.14463,-0.544419 v 0 l 0.14461,-0.545659 v 0 l 0.14463,-0.546893 v 0 l 0.14462,-0.548121 v 0 l 0.14463,-0.54936 v 0 l 0.14461,-0.550592 v 0 l 0.14461,-0.5518326 v 0 l 0.14463,-0.5530723 v 0 l 0.14461,-0.5542953 v 0 l 0.14463,-0.5555322 v 0 l 0.14461,-0.5567762 v 0 l 0.14462,-0.5580042 v 0 l 0.14462,-0.5592472 v 0 l 0.14462,-0.5604751 v 0 l 0.14462,-0.5617181 v 0 l 0.14462,-0.5629377 v 0 l 0.14462,-0.5641883 v 0 l 0.14462,-0.5654188 v 0 l 0.14462,-0.5666594 v 0 l 0.14462,-0.5678899 v 0 l 0.14461,-0.5691304 v 0 L 117.34051,1.2189 v 0 l 0.14461,-0.57160153 v 0 l 0.14463,-0.5728222 v 0 l 0.14461,-0.57407268 v 0 l 0.14463,-0.57530329 v 0 l 0.14461,-0.5765339 v 0 l 0.14463,-0.5777745 v 0 l 0.14461,-0.579015 v 0 l 0.14462,-0.5802456 v 0 l 0.14462,-0.5814661 v 0 l 0.14463,-0.5827267 v 0 l 0.14461,-0.5839473 v 0 l 0.14462,-0.5851882 v 0 l 0.14462,-0.5864289 v 0 l 0.14462,-0.5876488 v 0 l 0.14462,-0.5888991 v 0 l 0.14462,-0.5901202 v 0 l 0.14463,-0.591361 v 0 l 0.14461,-0.5925915 v 0 l 0.14461,-0.5938413 v 0 l 0.14463,-0.5950732 v 0 l 0.14461,-0.596302 v 0 l 0.14463,-0.597544 v 0 l 0.14461,-0.598763 v 0 l 0.14462,-0.600015 v 0 l 0.14462,-0.601245 v 0 l 0.14462,-0.602486 v 0 l 0.14462,-0.603716 v 0 l 0.14462,-0.604959 v 0 l 0.14462,-0.606177 v 0 l 0.14463,-0.607429 v 0 l 0.14461,-0.608657 v 0 l 0.14462,-0.60989 v 0 l 0.14462,-0.611129 v 0 l 0.14462,-0.612372 v 0 l 0.14461,-0.61359 v 0 l 0.14463,-0.61484 v 0 l 0.14461,-0.616063 v 0 l 0.14463,-0.617312 v 0 l 0.14462,-0.618543 v 0 l 0.14462,-0.619773 v 0 l 0.14461,-0.621015 v 0 l 0.14462,-0.622255 v 0 l 0.14463,-0.623476 v 0 l 0.14463,-0.624715 v 0 l 0.14461,-0.625947 v 0 l 0.14461,-0.627197 v 0 l 0.14463,-0.628417 v 0 l 0.14461,-0.629669 v 0 l 0.14463,-0.630889 v 0 l 0.1446,-0.632129 v 0 l 0.14464,-0.633381 v 0 l 0.14461,-0.634589 v 0 l 0.14462,-0.635841 v 0 l 0.14461,-0.637072 v 0 l 0.14462,-0.638303 v 0 l 0.14463,-0.639542 v 0 l 0.14462,-0.640783 v 0 l 0.14462,-0.642014 v 0 l 0.14461,-0.643245 v 0 l 0.14463,-0.644485 v 0 l 0.14462,-0.645716 v 0 l 0.14461,-0.646955 v 0 l 0.14462,-0.648196 v 0 l 0.14461,-0.649418 v 0 l 0.14464,-0.650657 v 0 l 0.14461,-0.6519 v 0 l 0.14463,-0.653138 v 0 l 0.1446,-0.65436 v 0 l 0.14463,-0.6556 v 0 l 0.14462,-0.656842 v 0 l 0.14462,-0.658069 v 0 l 0.14461,-0.659312 v 0 l 0.14462,-0.660543 v 0 l 0.14463,-0.661783 v 0 l 0.14462,-0.663013 v 0 l 0.1446,-0.664245 v 0 l 0.14463,-0.665494 v 0 l 0.14462,-0.666715 v 0 l 0.14463,-0.667956 v 0 l 0.14461,-0.669186 v 0 l 0.14462,-0.670426 v 0 l 0.14461,-0.671669 v 0 l 0.14463,-0.672897 v 0 l 0.14462,-0.674139 v 0 l 0.14461,-0.675357 v 0 l 0.14462,-0.676611 v 0 l 0.14463,-0.677829 v 0 l 0.14462,-0.679071 v 0 l 0.14461,-0.680312 v 0 l 0.14462,-0.681551 v 0 l 0.14462,-0.682783 v 0 l 0.14462,-0.684022 v 0 l 0.14463,-0.685246 v 0 l 0.14462,-0.686482 v 0 l 0.14461,-0.687727 v 0 l 0.14463,-0.688954 v 0 l 0.14462,-0.690195 v 0 l 0.14461,-0.691427 v 0 l 0.14462,-0.692667 v 0 l 0.14462,-0.693897 v 0 l 0.14462,-0.695129 v 0 l 0.14462,-0.696369 v 0 l 0.14461,-0.697608 v 0 l 0.14463,-0.698841 v 0 l 0.14462,-0.700081 v 0 l 0.14463,-0.7013 v 0 l 0.1446,-0.702552 v 0 l 0.14463,-0.703783 v 0 l 0.14461,-0.705012 v 0 l 0.14463,-0.706263 v 0 l 0.14461,-0.707483 v 0 l 0.14462,-0.708725 v 0 l 0.14462,-0.709956 v 0 l 0.14463,-0.711194 v 0 l 0.14461,-0.712436 v 0 l 0.14462,-0.713658 v 0 l 0.14463,-0.714896 v 0 l 0.14461,-0.716138 v 0 l 0.14462,-0.717379 v 0 l 0.14462,-0.718608 v 0 l 0.14461,-0.71983 v 0 l 0.14463,-0.72108 v 0 l 0.14462,-0.72232 v 0 l 0.14462,-0.723552 v 0 l 0.14461,-0.724772 v 0 l 0.14462,-0.726022 v 0 l 0.14462,-0.727253 v 0 l 0.14463,-0.728484 v 0 l 0.1446,-0.729724"
       stroke-opacity="0.698039"
       stroke-linecap="round"
       stroke-linejoin="round"
       stroke-miterlimit="10"
       stroke-width="0.388898"
       id="path2"
       style="stroke:#1311a1;stroke-width:1.114;stroke-dasharray:none;stroke-opacity:1" /><text
       fill="#006400"
       stroke="none"
       font-family="geogebra-sans-serif, sans-serif"
       font-size="2.48895px"
       font-style="normal"
       font-weight="normal"
       text-decoration="normal"
       x="-70.296951"
       y="-252.5462"
       text-anchor="start"
       dominant-baseline="alphabetic"
       fill-opacity="1"
       id="text2-4"
       transform="scale(1.6529477,0.60497981)"
       style="stroke-width:0.155559">f</text><text
       fill="none"
       stroke="#ffffff"
       font-family="geogebra-sans-serif, sans-serif"
       font-size="2.48895px"
       font-style="normal"
       font-weight="normal"
       text-decoration="normal"
       x="-70.296951"
       y="-252.5462"
       text-anchor="start"
       dominant-baseline="alphabetic"
       stroke-opacity="1"
       stroke-linejoin="bevel"
       stroke-miterlimit="10"
       stroke-width="0.466678"
       id="text3-8"
       transform="scale(1.6529477,0.60497981)">f</text><text
       fill="#006400"
       stroke="none"
       font-family="geogebra-sans-serif, sans-serif"
       font-size="2.48895px"
       font-style="normal"
       font-weight="normal"
       text-decoration="normal"
       x="-70.296951"
       y="-252.5462"
       text-anchor="start"
       dominant-baseline="alphabetic"
       fill-opacity="1"
       id="text4"
       transform="scale(1.6529477,0.60497981)"
       style="stroke-width:0.155559">f</text><g
       id="g7"><path
         style="fill:#040404;stroke:#000000;stroke-width:0.840562;stroke-miterlimit:3.7;stroke-dasharray:none;marker-end:url(#ConcaveTriangle)"
         d="m 7.83e-4,83.640137 145.438337,0.27079"
         id="path1" /><path
         style="fill:#040404;stroke:#000000;stroke-width:0.83971;stroke-miterlimit:3.7;stroke-dasharray:none;marker-end:url(#ConcaveTriangle-1)"
         d="M 73.901748,164.17492 73.954482,17.695173"
         id="path1-5" /><text
         xml:space="preserve"
         style="font-style:italic;font-variant:normal;font-weight:normal;font-stretch:normal;font-size:11.2889px;font-family:'Bell MT';-inkscape-font-specification:'Bell MT, Italic';font-variant-ligatures:normal;font-variant-caps:normal;font-variant-numeric:normal;font-variant-east-asian:normal;text-align:start;writing-mode:lr-tb;direction:ltr;text-anchor:start;fill:none;stroke:#000000;stroke-width:0.903999;stroke-miterlimit:3.7;stroke-dasharray:none;stroke-opacity:1"
         x="153.31842"
         y="86.55735"
         id="text2"><tspan
           id="tspan2"
           style="font-style:italic;font-variant:normal;font-weight:normal;font-stretch:normal;font-size:11.2889px;font-family:'Bell MT';-inkscape-font-specification:'Bell MT, Italic';font-variant-ligatures:normal;font-variant-caps:normal;font-variant-numeric:normal;font-variant-east-asian:normal;stroke:#000000;stroke-width:0.904;stroke-opacity:1"
           x="153.31842"
           y="86.55735">x</tspan></text><text
         xml:space="preserve"
         style="font-style:italic;font-variant:normal;font-weight:normal;font-stretch:normal;font-size:11.2889px;font-family:'Bell MT';-inkscape-font-specification:'Bell MT, Italic';font-variant-ligatures:normal;font-variant-caps:normal;font-variant-numeric:normal;font-variant-east-asian:normal;text-align:start;writing-mode:lr-tb;direction:ltr;text-anchor:start;fill:none;stroke:#000000;stroke-width:0.903999;stroke-miterlimit:3.7;stroke-dasharray:none;stroke-opacity:1"
         x="71.95903"
         y="5.1979685"
         id="text3"><tspan
           id="tspan3"
           style="stroke-width:0.904"
           x="71.95903"
           y="5.1979685">y</tspan></text><path
         style="fill:#000000;fill-opacity:1;stroke:#000000;stroke-width:1.111;stroke-dasharray:6.66601, 1.111;stroke-dashoffset:0;stroke-opacity:1"
         d="M 50.186921,133.13148 49.766782,83.99484"
         id="path3" /><path
         style="fill:#000000;fill-opacity:1;stroke:#000000;stroke-width:0.958;stroke-dasharray:5.74799, 0.958;stroke-dashoffset:0;stroke-opacity:1"
         d="m 50.519678,133.14877 23.722605,-0.26866"
         id="path3-5" /><ellipse
         style="fill:#1d6b25;fill-opacity:1;stroke:#000000;stroke-width:0.89784;stroke-dasharray:none;stroke-dashoffset:0;stroke-opacity:1"
         id="path4"
         cx="50.695724"
         cy="132.8517"
         rx="3.1653049"
         ry="2.4631288" /><text
         xml:space="preserve"
         style="font-style:italic;font-variant:normal;font-weight:normal;font-stretch:normal;font-size:14.1111px;font-family:'Bell MT';-inkscape-font-specification:'Bell MT, Italic';font-variant-ligatures:normal;font-variant-caps:normal;font-variant-numeric:normal;font-variant-east-asian:normal;text-align:start;writing-mode:lr-tb;direction:ltr;text-anchor:start;fill:#000000;fill-opacity:1;stroke:#000000;stroke-width:0.876;stroke-dasharray:none;stroke-dashoffset:0;stroke-opacity:1"
         x="33.663773"
         y="80.61972"
         id="text5"><tspan
           sodipodi:role="line"
           id="tspan4"
           style="font-style:italic;font-variant:normal;font-weight:normal;font-stretch:normal;font-size:14.1111px;font-family:'Bell MT';-inkscape-font-specification:'Bell MT, Italic';font-variant-ligatures:normal;font-variant-caps:normal;font-variant-numeric:normal;font-variant-east-asian:normal;fill:#000000;fill-opacity:1;stroke:#000000;stroke-width:0.876;stroke-dasharray:none;stroke-opacity:1"
           x="33.663773"
           y="80.61972">-b/2a</tspan></text><text
         xml:space="preserve"
         style="font-style:italic;font-variant:normal;font-weight:normal;font-stretch:normal;font-size:14.1111px;font-family:'Bell MT';-inkscape-font-specification:'Bell MT, Italic';font-variant-ligatures:normal;font-variant-caps:normal;font-variant-numeric:normal;font-variant-east-asian:normal;text-align:start;writing-mode:lr-tb;direction:ltr;text-anchor:start;fill:#000000;fill-opacity:1;stroke:#000000;stroke-width:0.676;stroke-dasharray:none;stroke-dashoffset:0;stroke-opacity:1"
         x="77.744781"
         y="135.62741"
         id="text6"><tspan
           sodipodi:role="line"
           id="tspan5"
           style="font-style:italic;font-variant:normal;font-weight:normal;font-stretch:normal;font-size:14.1111px;font-family:'Bell MT';-inkscape-font-specification:'Bell MT, Italic';font-variant-ligatures:normal;font-variant-caps:normal;font-variant-numeric:normal;font-variant-east-asian:normal;fill:#000000;fill-opacity:1;stroke-width:0.676;stroke-dasharray:none"
           x="77.744781"
           y="135.62741">f(-b/2a)</tspan></text></g></g></svg>
