<?xml version="1.0" encoding="UTF-8" standalone="no"?>
<!-- Created with Inkscape (http://www.inkscape.org/) -->

<svg
   width="48.002972mm"
   height="9.4494047mm"
   viewBox="0 0 48.002972 9.4494047"
   version="1.1"
   id="svg1"
   xml:space="preserve"
   inkscape:export-batch-path="C:\Users\Akdemicos\Desktop\Akemicos\Akdemicos-Front\public"
   inkscape:export-batch-name="pendiente"
   xmlns:inkscape="http://www.inkscape.org/namespaces/inkscape"
   xmlns:sodipodi="http://sodipodi.sourceforge.net/DTD/sodipodi-0.dtd"
   xmlns="http://www.w3.org/2000/svg"
   xmlns:svg="http://www.w3.org/2000/svg"><sodipodi:namedview
     id="namedview1"
     pagecolor="#ffffff"
     bordercolor="#000000"
     borderopacity="0.25"
     inkscape:showpageshadow="2"
     inkscape:pageopacity="0.0"
     inkscape:pagecheckerboard="0"
     inkscape:deskcolor="#d1d1d1"
     inkscape:document-units="mm"><inkscape:page
       x="0"
       y="0"
       width="48.002972"
       height="9.4494047"
       id="page1"
       margin="0"
       bleed="0" /></sodipodi:namedview><defs
     id="defs1"><clipPath
       clipPathUnits="userSpaceOnUse"
       id="clipPath3"><rect
         style="fill:#00ff00"
         id="rect4"
         width="170.71428"
         height="35"
         x="117.7896"
         y="867.14288" /></clipPath></defs><g
     id="g1"
     inkscape:groupmode="layer"
     inkscape:label="1"
     transform="matrix(0.28118897,0,0,0.26998299,-33.121135,-234.11383)"
     clip-path="url(#clipPath3)"
     style="fill:none;fill-opacity:1;stroke:#000000;stroke-width:0.907345;stroke-dasharray:none;stroke-opacity:1"><path
       id="path1514"
       d="m 111.2,863.35998 h 298.56001 v 75.04004 H 111.2 Z"
       style="fill:none;fill-opacity:1;fill-rule:nonzero;stroke:#000000;stroke-width:0.907345;stroke-dasharray:none;stroke-opacity:1" /><path
       id="path1515"
       d="m 0,0 -0.32,0.16 c -0.32,0.16 -0.49,0.32 -0.65,0.32 -0.16,0 -0.16,-0.16 -0.16,-0.32 0,0 0,-0.16 0,-0.32 l 0.81,-3.2 c 0.16,-0.16 0.16,-0.32 0.16,-0.48 0,-0.16 -0.16,-0.32 -0.32,-0.32 -0.33,0 -0.65,0.32 -1.29,0.64 -0.64,0.48 -1.12,0.96 -1.6,1.6 l 0.32,-1.44 c 0,-0.16 0,-0.32 0,-0.48 0,-0.16 0,-0.32 -0.16,-0.32 -0.32,0 -0.8,0.32 -1.44,0.8 -0.48,0.32 -0.64,0.48 -1.44,1.44 l 0.48,-1.44 c 0,-0.16 0,-0.32 0,-0.48 0,-0.16 -0.16,-0.32 -0.16,-0.32 -0.32,0 -0.64,0.32 -1.45,0.8 l -0.32,0.32 v 0.16 l 0.32,-0.16 c 0.48,-0.32 0.48,-0.32 0.64,-0.32 0,0 0.17,0.16 0.17,0.32 0,0.48 -0.49,2.56 -0.97,4 l 0.16,0.16 0.64,-0.16 0.17,-1.12 c 0.32,-1.12 0.64,-1.76 1.28,-2.4 0.32,-0.48 0.8,-0.8 1.12,-0.8 0.16,0 0.16,0 0.16,0.16 0,0.48 -0.32,1.6 -0.64,3.52 l -0.16,0.64 v 0.16 l 0.8,-0.16 0.16,-1.12 c 0.16,-0.8 0.48,-1.6 0.96,-2.24 0.64,-0.64 1.12,-0.96 1.44,-0.96 0.16,0 0.16,0.16 0.16,0.32 0,0.16 0,0.32 -0.32,1.28 -0.16,0.64 -0.32,1.28 -0.32,1.6 -0.16,0.32 -0.16,0.64 -0.16,0.8 0,0.32 0,0.48 0.32,0.48 0.16,0 0.64,-0.16 1.61,-0.96 z"
       style="fill:none;fill-opacity:1;fill-rule:nonzero;stroke:#000000;stroke-width:0.907345;stroke-dasharray:none;stroke-opacity:1"
       transform="translate(129.86,887.88)" /><path
       id="path1516"
       d="M 0,0 C 0.16,0 0.48,0 0.48,-0.32 0.48,-0.48 0.16,-0.48 0,-0.48 h -6.57 c -0.16,0 -0.32,0 -0.32,0.16 C -6.89,0 -6.73,0 -6.57,0 Z m 0,2.08 c 0.16,0 0.48,0 0.48,-0.16 C 0.48,1.6 0.16,1.6 0,1.6 h -6.57 c -0.16,0 -0.32,0 -0.32,0.32 0,0.16 0.16,0.16 0.32,0.16 z"
       style="fill:none;fill-opacity:1;fill-rule:nonzero;stroke:#000000;stroke-width:0.907345;stroke-dasharray:none;stroke-opacity:1"
       transform="translate(141.08,885.32001)" /><path
       id="path1517"
       d="m 0,0 c 0,0 0,-0.16 -0.16,-0.16 -0.16,0 -0.16,0 -0.32,0.16 l -3.84,7.37 c -0.16,0.16 -0.16,0.16 -0.16,0.16 0,0.32 0.32,0.32 0.48,0.32 h 7.69 c 0.16,0 0.32,0 0.32,-0.32 0,0 0,0 0,-0.16 z m -0.16,0.48 3.69,6.89 h -7.37 z"
       style="fill:none;fill-opacity:1;fill-rule:nonzero;stroke:#000000;stroke-width:0.907345;stroke-dasharray:none;stroke-opacity:1"
       transform="translate(151.64999,873.95001)" /><path
       id="path1518"
       d="m 0,0 c 0,0.16 0,0.16 0,0.32 0,0.32 0.32,0.8 0.8,0.8 1.13,0 2.25,-1.28 2.89,-3.36 l 1.6,-4.65 H 5.13 c -0.32,0 -0.64,0.16 -0.8,0.16 l -0.32,1.44 c -0.16,0.48 -0.48,1.28 -0.96,1.76 -0.32,0.48 -0.8,0.97 -1.12,0.97 0,0 -0.16,-0.16 -0.16,-0.49 v -0.16 l 0.16,-2.08 c 0,-0.32 0,-0.64 0,-0.96 0,-0.48 0,-0.64 -0.16,-0.64 -0.16,0 -0.32,0 -0.81,0.32 L 0,-5.93 0.16,-5.77 0.64,-6.09 H 0.8 c 0,0 0.16,-0.16 0.16,-0.16 0.16,0 0.16,0.32 0.16,0.64 0,0 0,0 0,0.16 l -0.16,2.57 v 0.48 c 0,0.32 0.16,0.64 0.49,0.64 0.48,0 1.28,-0.8 2.08,-2.09 L 3.05,-2.08 C 2.41,-0.16 1.93,0.64 1.12,0.64 0.8,0.64 0.48,0.32 0.48,0 c 0,0 0,-0.16 0.16,-0.32 H 0.48 Z"
       style="fill:none;fill-opacity:1;fill-rule:nonzero;stroke:#000000;stroke-width:0.907345;stroke-dasharray:none;stroke-opacity:1"
       transform="translate(156.61999,883.56)" /><path
       id="path1519"
       d="m 146.2,886.28003 h 16.03"
       style="fill:none;fill-opacity:1;stroke:#000000;stroke-width:0.907345;stroke-linecap:butt;stroke-linejoin:miter;stroke-miterlimit:10;stroke-dasharray:none;stroke-opacity:1" /><path
       id="path1520"
       d="m 0,0 c 0,-0.16 0,-0.32 -0.16,-0.32 -0.16,0 -0.16,0.16 -0.32,0.32 l -3.84,7.21 c -0.16,0.16 -0.16,0.16 -0.16,0.16 0,0.32 0.32,0.32 0.48,0.32 h 7.69 c 0.16,0 0.48,0 0.48,-0.32 0,0 -0.16,0 -0.16,-0.16 z m -0.16,0.48 3.69,6.73 h -7.37 z"
       style="fill:none;fill-opacity:1;fill-rule:nonzero;stroke:#000000;stroke-width:0.907345;stroke-dasharray:none;stroke-opacity:1"
       transform="translate(151.49,888.52002)" /><path
       id="path1521"
       d="m 0,0 c 0,0.16 0,0.32 -0.16,0.64 0,0.16 0,0.16 0,0.32 0.16,0 0.32,0.16 0.48,0.16 0.32,0 0.81,-0.32 1.13,-0.8 l 0.8,-1.28 v 0.64 c 0.16,0.96 0.48,1.44 0.8,1.44 0.32,0 0.64,-0.32 0.96,-0.48 L 4.49,0.16 V -0.16 C 4.01,0.16 3.69,0.32 3.53,0.32 3.37,0.32 3.37,0.32 3.21,0 3.05,-0.16 3.05,-0.48 2.89,-0.8 L 2.73,-1.92 3.05,-2.4 c 0.48,-0.8 0.8,-0.96 1.12,-0.96 0.16,0 0.32,0 0.48,0.16 v 0 L 4.81,-4 c 0,-0.16 -0.16,-0.16 -0.32,-0.16 -0.32,0 -0.8,0.32 -1.44,1.28 L 2.73,-2.24 2.57,-2.72 C 2.41,-3.84 2.25,-4.16 1.61,-4.16 c -0.32,0 -0.48,0 -0.64,0.16 l -0.65,0.96 h 0.16 c 0.32,-0.32 0.65,-0.48 0.81,-0.48 0.32,0 0.48,0.48 0.8,1.44 v 0.8 L 1.77,-0.64 C 1.29,0 0.97,0.32 0.64,0.32 c -0.16,0 -0.32,0 -0.32,0 L 0.16,0 Z"
       style="fill:none;fill-opacity:1;fill-rule:nonzero;stroke:#000000;stroke-width:0.907345;stroke-dasharray:none;stroke-opacity:1"
       transform="translate(156.94,895.25)" /><path
       id="path1522"
       d="M 0,0 C 0.16,0 0.48,0 0.48,-0.32 0.48,-0.48 0.16,-0.48 0,-0.48 h -6.57 c -0.16,0 -0.32,0 -0.32,0.16 C -6.89,0 -6.73,0 -6.57,0 Z m 0,2.08 c 0.16,0 0.48,0 0.48,-0.16 C 0.48,1.6 0.16,1.6 0,1.6 h -6.57 c -0.16,0 -0.32,0 -0.32,0.32 0,0.16 0.16,0.16 0.32,0.16 z"
       style="fill:none;fill-opacity:1;fill-rule:nonzero;stroke:#000000;stroke-width:0.907345;stroke-dasharray:none;stroke-opacity:1"
       transform="translate(173.92999,885.32001)" /><path
       id="path1523"
       d="m 0,0 c 0,0.16 0,0.16 0,0.32 0,0.32 0.32,0.8 0.8,0.8 1.13,0 2.41,-1.28 2.89,-3.36 l 1.6,-4.65 H 5.13 c -0.32,0 -0.48,0.16 -0.8,0.16 l -0.32,1.44 c -0.16,0.48 -0.48,1.28 -0.8,1.76 -0.48,0.48 -0.96,0.97 -1.12,0.97 -0.16,0 -0.32,-0.16 -0.32,-0.49 v -0.16 l 0.16,-2.08 c 0,-0.32 0.16,-0.64 0.16,-0.96 0,-0.48 -0.16,-0.64 -0.32,-0.64 -0.16,0 -0.32,0 -0.81,0.32 l -0.8,0.64 v 0.16 L 0.8,-6.09 v 0 c 0.16,0 0.16,-0.16 0.16,-0.16 0.16,0 0.32,0.32 0.32,0.64 0,0 0,0 0,0.16 L 1.12,-2.88 0.96,-2.4 c 0,0.32 0.32,0.64 0.49,0.64 0.48,0 1.28,-0.8 2.08,-2.09 L 3.05,-2.08 C 2.57,-0.16 1.93,0.64 1.28,0.64 0.8,0.64 0.64,0.32 0.64,0 c 0,0 0,-0.16 0,-0.32 H 0.48 Z"
       style="fill:none;fill-opacity:1;fill-rule:nonzero;stroke:#000000;stroke-width:0.907345;stroke-dasharray:none;stroke-opacity:1"
       transform="translate(179.38,883.56)" /><path
       id="path1524"
       d="m 0,0 v 0.16 c 1.44,0 1.44,0 1.77,0 0.32,0 0.32,0 1.92,0 C 3.53,0 3.53,-0.16 3.53,-0.16 c 0,-0.16 0,-0.32 0.16,-0.48 -0.96,0.16 -1.28,0.16 -2.89,0.16 l 1.45,-1.6 c 0.8,-0.81 1.12,-1.29 1.12,-1.77 0,-0.96 -0.64,-1.6 -1.6,-1.6 -0.65,0 -0.97,0.16 -1.45,0.64 l -0.16,1.12 h 0.32 v -0.48 c 0.16,-0.48 0.48,-0.64 0.96,-0.64 0.81,0 1.13,0.48 1.13,1.12 0,0.64 -0.32,1.29 -1.13,2.25 z"
       style="fill:none;fill-opacity:1;fill-rule:nonzero;stroke:#000000;stroke-width:0.907345;stroke-dasharray:none;stroke-opacity:1"
       transform="translate(184.99,883.40002)" /><path
       id="path1525"
       d="M 0,0 C 0.16,0 0.48,0 0.48,-0.32 0.48,-0.48 0.16,-0.48 0,-0.48 h -5.93 c -0.16,0 -0.48,0 -0.48,0.16 C -6.41,0 -6.09,0 -5.93,0 Z"
       style="fill:none;fill-opacity:1;fill-rule:nonzero;stroke:#000000;stroke-width:0.907345;stroke-dasharray:none;stroke-opacity:1"
       transform="translate(198.78,879.22998)" /><path
       id="path1526"
       d="m 0,0 c 0,0.16 0,0.16 0,0.32 0,0.32 0.48,0.8 0.96,0.8 1.13,0 2.25,-1.28 2.89,-3.36 l 1.44,-4.65 v 0 c -0.32,0 -0.64,0.16 -0.8,0.16 l -0.48,1.44 c 0,0.48 -0.48,1.28 -0.8,1.76 -0.32,0.48 -0.8,0.97 -1.12,0.97 -0.16,0 -0.16,-0.16 -0.16,-0.49 v -0.16 l 0.16,-2.08 c 0,-0.32 0,-0.64 0,-0.96 0,-0.48 0,-0.64 -0.32,-0.64 0,0 -0.16,0 -0.65,0.32 l -0.96,0.64 0.16,0.16 0.48,-0.32 v 0 c 0.16,0 0.32,-0.16 0.32,-0.16 0.16,0 0.16,0.32 0.16,0.64 0,0 0,0 0,0.16 l -0.16,2.57 v 0.48 c 0,0.32 0.16,0.64 0.49,0.64 0.32,0 1.28,-0.8 2.08,-2.09 L 3.21,-2.08 C 2.57,-0.16 2.09,0.64 1.28,0.64 0.96,0.64 0.64,0.32 0.64,0 c 0,0 0,-0.16 0,-0.32 v 0 z"
       style="fill:none;fill-opacity:1;fill-rule:nonzero;stroke:#000000;stroke-width:0.907345;stroke-dasharray:none;stroke-opacity:1"
       transform="translate(202.3,883.56)" /><path
       id="path1527"
       d="m 0,0 h 0.16 l 0.97,-0.48 c 0,0 0,0 0,0 0.16,0 0.16,0 0.16,0.32 v 3.85 c 0,0.32 -0.16,0.48 -0.65,0.48 H 0.32 V 4.49 C 1.45,4.33 1.45,4.33 1.61,4.33 c 0,0 0.32,0 0.48,0 0.16,0 0.48,0 0.8,0.16 V 4.17 H 2.41 C 1.93,4.17 1.93,4.01 1.93,3.69 V -1.12 H 1.77 C 1.29,-0.8 0.64,-0.64 0,-0.32 Z"
       style="fill:none;fill-opacity:1;fill-rule:nonzero;stroke:#000000;stroke-width:0.907345;stroke-dasharray:none;stroke-opacity:1"
       transform="translate(208.39,879.22998)" /><path
       id="path1528"
       d="m 179.06,886.28003 h 33.5"
       style="fill:none;fill-opacity:1;stroke:#000000;stroke-width:0.907345;stroke-linecap:butt;stroke-linejoin:miter;stroke-miterlimit:10;stroke-dasharray:none;stroke-opacity:1" /><path
       id="path1529"
       d="m 0,0 c 0,0.16 0,0.32 -0.16,0.64 0,0.16 0,0.16 0,0.32 0.16,0 0.32,0.16 0.48,0.16 0.32,0 0.81,-0.32 1.13,-0.8 l 0.8,-1.28 v 0.64 c 0.16,0.96 0.48,1.44 0.8,1.44 0.32,0 0.64,-0.32 0.96,-0.48 L 4.49,0.16 V -0.16 C 4.01,0.16 3.69,0.32 3.53,0.32 3.37,0.32 3.37,0.32 3.21,0 3.05,-0.16 3.05,-0.48 2.89,-0.8 L 2.73,-1.92 3.05,-2.4 c 0.48,-0.8 0.8,-0.96 1.12,-0.96 0.16,0 0.32,0 0.48,0.16 v 0 L 4.81,-4 c 0,-0.16 -0.16,-0.16 -0.32,-0.16 -0.32,0 -0.8,0.32 -1.44,1.28 L 2.73,-2.24 2.57,-2.72 C 2.41,-3.84 2.25,-4.16 1.61,-4.16 c -0.32,0 -0.48,0 -0.65,0.16 l -0.64,0.96 h 0.16 c 0.32,-0.32 0.65,-0.48 0.81,-0.48 0.32,0 0.48,0.48 0.8,1.44 v 0.8 L 1.77,-0.64 C 1.29,0 0.8,0.32 0.64,0.32 c -0.16,0 -0.32,0 -0.32,0 L 0.16,0 Z"
       style="fill:none;fill-opacity:1;fill-rule:nonzero;stroke:#000000;stroke-width:0.907345;stroke-dasharray:none;stroke-opacity:1"
       transform="translate(179.7,895.25)" /><path
       id="path1530"
       d="m 0,0 v 0.17 c 1.44,0 1.44,0 1.77,0 0.32,0 0.32,0 1.92,0 C 3.53,0 3.53,0 3.53,-0.16 c 0,-0.16 0,-0.16 0.16,-0.32 -0.96,0 -1.28,0 -2.89,0 l 1.45,-1.44 c 0.8,-0.96 1.12,-1.28 1.12,-1.92 0,-0.96 -0.64,-1.44 -1.6,-1.44 -0.65,0 -0.97,0.16 -1.45,0.48 L 0.16,-3.68 H 0.48 V -4 c 0.16,-0.48 0.48,-0.64 0.96,-0.64 0.81,0 1.13,0.32 1.13,0.96 0,0.64 -0.32,1.28 -1.13,2.24 z"
       style="fill:none;fill-opacity:1;fill-rule:nonzero;stroke:#000000;stroke-width:0.907345;stroke-dasharray:none;stroke-opacity:1"
       transform="translate(184.99,897.81)" /><path
       id="path1531"
       d="M 0,0 C 0.16,0 0.48,0 0.48,-0.16 0.48,-0.48 0.16,-0.48 0,-0.48 h -5.93 c -0.16,0 -0.48,0 -0.48,0.32 C -6.41,0 -6.09,0 -5.93,0 Z"
       style="fill:none;fill-opacity:1;fill-rule:nonzero;stroke:#000000;stroke-width:0.907345;stroke-dasharray:none;stroke-opacity:1"
       transform="translate(198.78,893.65002)" /><path
       id="path1532"
       d="m 0,0 c 0,0.16 0,0.32 0,0.64 0,0.16 0,0.16 0,0.32 0.16,0 0.32,0.16 0.32,0.16 0.48,0 0.81,-0.32 1.13,-0.8 l 0.8,-1.28 0.16,0.64 c 0.16,0.96 0.32,1.44 0.8,1.44 0.16,0 0.48,-0.32 0.96,-0.48 L 4.65,0.16 4.49,-0.16 C 4.17,0.16 3.85,0.32 3.69,0.32 3.53,0.32 3.37,0.32 3.37,0 3.21,-0.16 3.05,-0.48 3.05,-0.8 L 2.89,-1.92 3.21,-2.4 c 0.48,-0.8 0.8,-0.96 1.12,-0.96 0.16,0 0.32,0 0.32,0.16 H 4.81 L 4.97,-4 C 4.81,-4.16 4.81,-4.16 4.65,-4.16 c -0.48,0 -0.8,0.32 -1.44,1.28 L 2.73,-2.24 V -2.72 C 2.57,-3.84 2.25,-4.16 1.61,-4.16 c -0.16,0 -0.48,0 -0.48,0.16 l -0.65,0.96 h 0.16 c 0.33,-0.32 0.49,-0.48 0.65,-0.48 0.48,0 0.64,0.48 0.8,1.44 l 0.16,0.8 -0.48,0.64 C 1.29,0 0.97,0.32 0.64,0.32 c -0.16,0 -0.16,0 -0.32,0 V 0 Z"
       style="fill:none;fill-opacity:1;fill-rule:nonzero;stroke:#000000;stroke-width:0.907345;stroke-dasharray:none;stroke-opacity:1"
       transform="translate(202.78,895.25)" /><path
       id="path1533"
       d="m 0,0 h 0.16 l 0.97,-0.48 c 0,0 0,0 0,0 0.16,0 0.16,0.16 0.16,0.32 V 3.68 C 1.29,4.16 1.13,4.16 0.8,4.16 H 0.32 v 0.33 c 1.13,0 1.13,0 1.29,0 0.16,0 0.32,0 0.48,0 0.16,0 0.48,0 0.8,0 V 4.16 H 2.41 c -0.48,0 -0.48,0 -0.48,-0.48 v -4.8 H 1.77 C 1.29,-0.8 0.64,-0.64 0,-0.32 Z"
       style="fill:none;fill-opacity:1;fill-rule:nonzero;stroke:#000000;stroke-width:0.907345;stroke-dasharray:none;stroke-opacity:1"
       transform="translate(208.55,893.65002)" /><path
       id="path1534"
       d="m 0,0 c -0.32,0.16 -0.48,0.16 -0.96,0.32 -0.16,0.8 -0.32,1.61 -0.96,2.57 l 0.16,0.16 0.32,-0.32 C -0.48,1.6 -0.16,0.96 0.16,0.16 Z"
       style="fill:none;fill-opacity:1;fill-rule:nonzero;stroke:#000000;stroke-width:0.907345;stroke-dasharray:none;stroke-opacity:1"
       transform="translate(229.39,887.56)" /><path
       id="path1535"
       d="M 0,0 C 0,0.64 0,0.96 0,1.44 0.48,1.6 0.96,1.76 1.44,1.76 2.72,1.76 3.85,0.96 3.85,0 3.85,-0.32 3.69,-0.64 3.53,-0.8 3.21,-1.12 2.88,-1.28 1.92,-1.44 0.96,-1.6 0.8,-1.76 0.8,-2.24 c 0,-0.64 0.32,-0.96 0.96,-0.96 0.8,0 1.29,0.48 1.29,0.96 v 0.16 h 0.32 c 0,-0.48 0,-0.8 0,-1.12 C 2.88,-3.36 2.4,-3.52 1.92,-3.52 0.8,-3.52 0,-2.88 0,-1.92 c 0,0.48 0.32,0.8 0.8,1.12 0.16,0.16 0.8,0.32 1.44,0.48 0.48,0 0.81,0.32 0.81,0.64 0,0.64 -0.65,0.96 -1.29,0.96 -0.8,0 -1.44,-0.32 -1.44,-0.8 L 0.32,0 Z"
       style="fill:none;fill-opacity:1;fill-rule:nonzero;stroke:#000000;stroke-width:0.907345;stroke-dasharray:none;stroke-opacity:1"
       transform="translate(240.92999,887.40002)" /><path
       id="path1536"
       d="m 0,0 v -0.16 c -0.64,0.32 -1.12,0.48 -1.76,0.48 v 0.32 h 0.48 c 0.32,0 0.48,0 0.48,0.8 v 2.4 c 0,0.64 -0.16,0.64 -0.48,0.64 L -1.76,4.64 V 4.96 C -0.64,4.8 -0.64,4.8 -0.48,4.8 c 0.32,0 0.32,0 1.44,0.16 V 4.64 L 0.48,4.48 C 0,4.48 0,4.48 0,3.84 Z m -0.48,-2.4 c -0.32,0 -0.64,0.32 -0.64,0.64 0,0.16 0.32,0.48 0.64,0.48 0.32,0 0.64,-0.32 0.64,-0.48 0,-0.32 -0.32,-0.64 -0.64,-0.64 z"
       style="fill:none;fill-opacity:1;fill-rule:nonzero;stroke:#000000;stroke-width:0.907345;stroke-dasharray:none;stroke-opacity:1"
       transform="translate(247.02,884.03998)" /><path
       id="path1537"
       d="m 0,0 c 0,0.16 -0.16,0.32 -0.16,0.64 0,0.16 0,0.16 0,0.16 0.16,0.16 0.32,0.16 0.48,0.16 0.32,0 0.64,-0.32 1.12,-0.8 l 0.8,-1.28 v 0.8 C 2.4,0.64 2.72,0.96 3.04,0.96 3.36,0.96 3.69,0.8 4.01,0.48 L 4.49,0 4.33,-0.16 C 4.01,0.16 3.69,0.32 3.52,0.32 3.36,0.32 3.2,0.16 3.2,0 3.04,-0.16 2.88,-0.64 2.88,-0.96 L 2.72,-1.92 3.04,-2.56 c 0.48,-0.64 0.81,-0.96 1.13,-0.96 0.16,0 0.32,0.16 0.32,0.32 h 0.16 l 0.16,-0.96 c 0,0 -0.16,-0.16 -0.32,-0.16 -0.32,0 -0.8,0.48 -1.45,1.44 L 2.56,-2.24 V -2.88 C 2.4,-3.84 2.08,-4.32 1.6,-4.32 1.28,-4.32 0.96,-4.16 0.96,-4 l -0.64,0.8 0.16,0.16 c 0.32,-0.32 0.48,-0.48 0.8,-0.48 0.32,0 0.48,0.48 0.64,1.44 L 2.08,-1.44 1.76,-0.8 C 1.28,0 0.8,0.32 0.64,0.32 0.48,0.32 0.32,0.32 0.32,0.16 L 0.16,-0.16 Z"
       style="fill:none;fill-opacity:1;fill-rule:nonzero;stroke:#000000;stroke-width:0.907345;stroke-dasharray:none;stroke-opacity:1"
       transform="translate(251.83,888.03998)" /><path
       id="path1538"
       d="m 0,0 v 0 l 0.96,-0.48 c 0,0 0.16,0 0.16,0 0,0 0,0 0,0.16 v 4.01 c 0,0.32 -0.16,0.48 -0.48,0.48 H 0.16 v 0.16 c 1.28,0 1.28,0 1.28,0 0.16,0 0.32,0 0.64,0 0,0 0.32,0 0.64,0 V 4.17 H 2.24 C 1.92,4.17 1.76,4.01 1.76,3.69 V -1.12 H 1.6 c -0.48,0.16 -0.96,0.48 -1.76,0.8 z"
       style="fill:none;fill-opacity:1;fill-rule:nonzero;stroke:#000000;stroke-width:0.907345;stroke-dasharray:none;stroke-opacity:1"
       transform="translate(257.60001,886.44)" /><path
       id="path1539"
       d="m 0,0 c 0,-0.16 0,-0.16 0,-0.32 0,0 0,-0.16 -0.16,-0.16 -0.16,0 -0.16,0 -0.32,0.16 l -4.97,9.77 c 0,0.16 0,0.16 0,0.16 0,0 0,0.16 0.16,0.16 0.16,0 0.16,0 0.32,-0.16 z"
       style="fill:none;fill-opacity:1;fill-rule:nonzero;stroke:#000000;stroke-width:0.907345;stroke-dasharray:none;stroke-opacity:1"
       transform="translate(271.54001,881.47998)" /><path
       id="path1540"
       d="M 0,0 C 0.16,0 0.48,0 0.48,-0.32 0.48,-0.48 0.16,-0.48 0,-0.48 h -6.57 c -0.16,0 -0.32,0 -0.32,0.16 C -6.89,0 -6.73,0 -6.57,0 Z m 0,2.08 c 0.16,0 0.48,0 0.48,-0.16 C 0.48,1.6 0.16,1.6 0,1.6 h -6.57 c -0.16,0 -0.32,0 -0.32,0.32 0,0.16 0.16,0.16 0.32,0.16 z"
       style="fill:none;fill-opacity:1;fill-rule:nonzero;stroke:#000000;stroke-width:0.907345;stroke-dasharray:none;stroke-opacity:1"
       transform="translate(272.34,885.32001)" /><path
       id="path1541"
       d="m 0,0 c 0,0.16 0,0.32 -0.16,0.65 0,0.16 0,0.16 0,0.16 0.16,0.16 0.32,0.16 0.48,0.16 0.32,0 0.8,-0.32 1.12,-0.81 l 0.8,-1.28 0.16,0.8 c 0.16,0.97 0.32,1.29 0.64,1.29 0.33,0 0.65,-0.16 0.97,-0.49 L 4.49,0 V -0.16 C 4.01,0.16 3.85,0.32 3.69,0.32 3.53,0.32 3.37,0.16 3.2,0 3.2,-0.16 3.04,-0.64 3.04,-0.96 L 2.72,-1.92 3.2,-2.56 c 0.49,-0.64 0.81,-0.96 1.13,-0.96 0.16,0 0.16,0.16 0.32,0.32 h 0.16 l 0.16,-0.96 c -0.16,0 -0.32,-0.16 -0.32,-0.16 -0.48,0 -0.96,0.48 -1.61,1.44 L 2.72,-2.24 2.56,-2.88 c 0,-0.96 -0.32,-1.44 -0.96,-1.44 -0.32,0 -0.48,0.16 -0.64,0.32 l -0.64,0.8 0.16,0.16 c 0.32,-0.32 0.64,-0.48 0.8,-0.48 0.32,0 0.64,0.48 0.8,1.44 L 2.24,-1.44 1.76,-0.8 C 1.28,0 0.96,0.32 0.64,0.32 0.48,0.32 0.32,0.32 0.32,0.16 L 0.16,-0.16 Z"
       style="fill:none;fill-opacity:1;fill-rule:nonzero;stroke:#000000;stroke-width:0.907345;stroke-dasharray:none;stroke-opacity:1"
       transform="translate(276.98999,888.03998)" /><path
       id="path1542"
       d="m 0,0 v 0.32 c 1.6,0 1.6,0 1.76,0 0.33,0 0.33,0 1.93,0 0,-0.16 0,-0.32 0,-0.48 0,0 0,-0.16 0,-0.32 -0.96,0 -1.28,0 -2.73,0.16 l 1.45,-1.61 c 0.64,-0.8 0.96,-1.28 0.96,-1.76 0,-0.96 -0.64,-1.6 -1.61,-1.6 -0.64,0 -0.96,0.16 -1.44,0.64 l -0.16,1.12 h 0.32 l 0.16,-0.48 c 0,-0.48 0.32,-0.64 0.8,-0.64 0.81,0 1.29,0.48 1.29,1.12 0,0.64 -0.48,1.12 -1.29,2.08 z"
       style="fill:none;fill-opacity:1;fill-rule:nonzero;stroke:#000000;stroke-width:0.907345;stroke-dasharray:none;stroke-opacity:1"
       transform="translate(282.28,890.45001)" /></g></svg>
