<?xml version="1.0" encoding="UTF-8" standalone="no"?>
<!-- Created with Inkscape (http://www.inkscape.org/) -->

<svg
   version="1.1"
   id="svg1"
   width="111.95703"
   height="14.265624"
   viewBox="0 0 111.95703 14.265624"
   sodipodi:docname="writetex.pdf"
   inkscape:export-batch-path="..\Akemicos\Akdemicos-Front\public"
   inkscape:export-batch-name="Periodo2pi"
   xmlns:inkscape="http://www.inkscape.org/namespaces/inkscape"
   xmlns:sodipodi="http://sodipodi.sourceforge.net/DTD/sodipodi-0.dtd"
   xmlns="http://www.w3.org/2000/svg"
   xmlns:svg="http://www.w3.org/2000/svg">
  <defs
     id="defs1" />
  <sodipodi:namedview
     id="namedview1"
     pagecolor="#ffffff"
     bordercolor="#000000"
     borderopacity="0.25"
     inkscape:showpageshadow="2"
     inkscape:pageopacity="0.0"
     inkscape:pagecheckerboard="0"
     inkscape:deskcolor="#d1d1d1"
     showgrid="false">
    <inkscape:page
       x="0"
       y="0"
       width="111.95703"
       height="14.265624"
       id="page1"
       margin="0"
       bleed="0" />
  </sodipodi:namedview>
  <g
     id="g97"
     inkscape:groupmode="layer"
     inkscape:label="2"
     transform="translate(-676.57138,-854.35714)">
    <g
       id="g98"
       aria-label="Periodo=2π"
       transform="matrix(1.3333333,0,0,1.3333333,676.15033,868.24917)">
      <path
         id="path98"
         d="m 3.0931328,-9.2119922 c 0.5039063,-0.1171875 0.9257813,-0.1640625 1.40625,-0.1640625 1.5585938,0 2.390625,0.7148438 2.390625,2.0742188 0,1.2890625 -0.8789062,2.1914062 -2.1328125,2.1914062 -0.2929687,0 -0.515625,-0.023437 -0.890625,-0.140625 l 0.1523438,0.515625 c 0.3398437,0.070312 0.5390625,0.082031 0.8320312,0.082031 1.9570313,0 3.46875,-1.3242188 3.46875,-3.046875 0,-1.3828125 -1.125,-2.2265625 -2.9414062,-2.2265625 -0.070312,0 -0.2109375,0 -0.3984375,0.011719 -0.5390625,0.011719 -1.6289063,0.035156 -2.0390625,0.035156 -0.3164063,0 -0.3164063,0 -2.61328129,-0.046875 v 0.4335937 l 0.64453125,0.035156 c 0.64453124,0.046875 0.76171874,0.234375 0.76171874,1.3007812 v 6.4335938 c 0,1.13671871 -0.070312,1.25390621 -0.7265625,1.28906246 l -0.69140624,0.046875 v 0.43359375 c 0.84375004,-0.03515625 1.34765624,-0.046875 2.09765624,-0.046875 0.7382813,0 1.2539063,0.01171875 2.109375,0.046875 v -0.43359375 l -0.6914062,-0.046875 C 3.1751641,-0.46980469 3.0931328,-0.58699219 3.0931328,-1.7237109 Z m 11.8417972,8.203125 -0.1875,-0.140625 c -0.914063,0.55078126 -1.253907,0.67968751 -1.863282,0.67968751 -0.9375,0 -1.710937,-0.421875 -2.109375,-1.12500001 -0.269531,-0.46875 -0.375,-0.8789062 -0.398437,-1.7109375 h 2.085937 c 0.996094,0 1.605469,-0.035156 2.601563,-0.1992187 0.01172,-0.1992188 0.02344,-0.328125 0.02344,-0.4921875 0,-1.6523438 -1.054687,-2.7304688 -2.660156,-2.7304688 -0.539062,0 -1.148437,0.1875 -1.734375,0.5273438 -1.1835936,0.6796875 -1.6523436,1.5703125 -1.6523436,3.0585937 0,0.9023438 0.2109375,1.6757813 0.5976563,2.22656251 0.5742183,0.76171875 1.5351563,1.1953125 2.6132813,1.1953125 0.527344,0 1.066406,-0.10546875 1.652344,-0.36328125 0.386718,-0.1640625 0.691406,-0.3515625 0.738281,-0.43359375 z m -1.125,-2.8242187 c -0.738282,0.035156 -1.089844,0.046875 -1.605469,0.046875 -0.65625,0 -1.03125,-0.011719 -1.804688,-0.082031 0,-0.6796875 0.05859,-0.9960937 0.246094,-1.3710937 0.304688,-0.6328125 0.914063,-1.0195313 1.605469,-1.0195313 0.46875,0 0.84375,0.1875 1.101562,0.5742188 0.316407,0.4804687 0.421875,0.890625 0.457032,1.8515622 z m 2.053711,-1.9101563 h 0.527343 c 0.574219,0 0.632813,0.1054688 0.632813,1.0546875 v 3.2226563 c 0,0.90234371 -0.03516,1.00781246 -0.527344,1.03124996 l -0.65625,0.046875 v 0.43359375 c 1.03125,-0.03515625 1.40625,-0.046875 1.757813,-0.046875 0.292968,0 0.292968,0 2.050781,0.046875 v -0.43359375 l -0.738281,-0.046875 c -0.644532,-0.0351563 -0.679688,-0.0820313 -0.679688,-1.03124996 v -2.4609375 c 0,-0.8671875 0.574219,-1.5820313 1.277344,-1.5820313 0.433594,0 0.726562,0.1992188 0.960937,0.65625 h 0.304688 l 0.128906,-1.7226562 c -0.164062,-0.09375 -0.421875,-0.1523438 -0.679687,-0.1523438 -0.421875,0 -0.890625,0.234375 -1.183594,0.5859375 l -0.808594,0.9492188 v -1.4765625 l -0.128906,-0.058594 c -0.726563,0.3046875 -1.476563,0.5039063 -2.238281,0.5859375 z m 8.036132,-0.9257812 -0.128906,-0.058594 c -0.726562,0.3046875 -1.476562,0.5039063 -2.238281,0.5859375 v 0.3984375 h 0.527344 c 0.574218,0 0.632812,0.1054688 0.632812,1.0546875 v 3.2226563 c 0,0.90234371 -0.03516,1.00781246 -0.527344,1.03124996 l -0.65625,0.046875 v 0.43359375 c 1.429688,-0.046875 1.429688,-0.046875 1.792969,-0.046875 0.351563,0 0.351563,0 1.792969,0.046875 v -0.43359375 l -0.667969,-0.046875 c -0.480469,-0.0234375 -0.527344,-0.12890625 -0.527344,-1.03124996 z m -0.65625,-3.1875 c -0.433593,0 -0.808593,0.375 -0.808593,0.8085937 0,0.4101563 0.375,0.7851563 0.796875,0.7851563 0.410156,0 0.796875,-0.375 0.796875,-0.7851563 0,-0.4101562 -0.386719,-0.8085937 -0.785157,-0.8085937 z m 6.131836,3.1289062 c -2.085937,0 -3.539062,1.4765625 -3.539062,3.609375 0,2.0273438 1.277344,3.39843751 3.128906,3.39843751 2.203125,0 3.785156,-1.52343751 3.785156,-3.67968751 0,-1.9335937 -1.40625,-3.328125 -3.375,-3.328125 z m -0.257812,0.46875 c 1.324219,0 2.296875,1.4414063 2.296875,3.3867188 0,1.6523437 -0.726563,2.68359371 -1.886719,2.68359371 -1.40625,0 -2.355469,-1.37109371 -2.355469,-3.41015621 0,-1.7226563 0.691407,-2.6601563 1.945313,-2.6601563 z m 9.999023,-0.011719 c -0.796875,-0.3398438 -1.207031,-0.4570313 -1.699218,-0.4570313 -0.386719,0 -0.738282,0.082031 -1.089844,0.2695313 l -1.265625,0.6679687 c -0.820313,0.421875 -1.347656,1.4765625 -1.347656,2.6953125 0,1.1484375 0.386718,2.0859375 1.089843,2.66015626 0.480469,0.421875 1.160157,0.609375 2.097657,0.609375 0.28125,0 0.609375,-0.0585938 0.679687,-0.1171875 l 1.59375,-1.33593746 -0.07031,1.32421871 c 0.703125,-0.03515625 0.9375,-0.046875 1.101562,-0.046875 0.117188,0 0.316406,0 0.621094,0.01171875 0.105469,0.01171875 0.386719,0.01171875 0.691406,0.03515625 v -0.43359375 l -0.667969,-0.046875 c -0.480468,-0.0234375 -0.527343,-0.12890625 -0.527343,-1.03124996 v -8.8359373 l -0.128907,-0.117187 c -0.632812,0.246093 -1.101562,0.363281 -2.238281,0.5390618 v 0.3984375 h 0.808594 c 0.257812,0 0.351562,0.1523437 0.351562,0.5859375 z m 0,3.09375 c 0,0.9375 -0.02344,1.078125 -0.210937,1.40625 -0.398438,0.6796875 -1.101563,1.12499996 -1.78125,1.12499996 -1.265625,0 -2.167969,-1.21874996 -2.167969,-2.92968746 0,-1.5585938 0.773438,-2.484375 2.074219,-2.484375 0.539062,0 1.113281,0.1875 1.617187,0.5390625 0.304688,0.1992187 0.46875,0.3867187 0.46875,0.5039062 z m 6.855469,-3.5507813 c -2.085937,0 -3.539062,1.4765625 -3.539062,3.609375 0,2.0273438 1.277343,3.39843751 3.128906,3.39843751 2.203125,0 3.785156,-1.52343751 3.785156,-3.67968751 0,-1.9335937 -1.40625,-3.328125 -3.375,-3.328125 z m -0.257812,0.46875 c 1.324218,0 2.296875,1.4414063 2.296875,3.3867188 0,1.6523437 -0.726563,2.68359371 -1.886719,2.68359371 -1.40625,0 -2.355469,-1.37109371 -2.355469,-3.41015621 0,-1.7226563 0.691406,-2.6601563 1.945313,-2.6601563 z m 16.227539,0.7265625 h -7.230469 v 0.796875 h 7.230469 z m 0,2.7773438 h -7.230469 v 0.8085937 h 7.230469 z m 5.144531,2.42578121 v 0.375 c 2.671875,-0.046875 2.671875,-0.046875 3.199219,-0.046875 0.515625,0 0.515625,0 3.28125,0.046875 -0.03516,-0.3046875 -0.03516,-0.4453125 -0.03516,-0.64453125 0,-0.1875 0,-0.33984375 0.03516,-0.64453126 -1.652344,0.070312 -2.308594,0.082031 -4.96875,0.140625 l 2.613281,-2.765625 c 1.394531,-1.4882812 1.828125,-2.2734375 1.828125,-3.3515625 0,-1.640625 -1.125,-2.6601562 -2.941406,-2.6601562 -1.042969,0 -1.734375,0.28125 -2.4375,0.9960937 l -0.246094,1.9570313 h 0.410156 l 0.1875,-0.65625 c 0.234375,-0.8320313 0.75,-1.1953125 1.710938,-1.1953125 1.230468,0 2.015625,0.7734375 2.015625,1.9921875 0,1.078125 -0.597657,2.1328125 -2.214844,3.8554687 z m 0,0"
         style="fill:#000000;fill-opacity:1;fill-rule:nonzero;stroke:none" />
      <path
         id="path99"
         d="m 75.58825,-5.0635547 0.128906,-0.1054687 c 0.292969,-0.8554688 0.867188,-0.9023438 1.6875,-0.9023438 0.175782,0 0.433594,0.011719 0.726563,0.011719 -1.195313,3.28125 -1.746094,4.265625 -2.90625,6.08203121 l 0.128906,0.12890625 1.054688,-0.36328125 C 76.935906,-1.336992 77.803094,-3.5166795 78.599969,-6.0362107 l 2.660156,0.09375 c -0.246094,0.890625 -1.078125,3.4921875 -1.078125,4.40625 0,1.51171871 0.550781,1.68749996 0.996094,1.68749996 0.726562,0 1.148437,-0.17578125 2.050781,-0.9375 l -0.117187,-0.28124996 -0.339844,0.24609371 c 0.03516,-0.0234375 -0.375,0.3046875 -0.621094,0.3046875 -0.667969,0 -0.878906,-0.421875 -0.878906,-1.30078121 0,-0.3632813 0.03516,-0.75 0.117187,-1.171875 0.246094,-1.1835938 0.492188,-2.3671875 0.621094,-2.953125 0.328125,0 0.65625,-0.011719 0.984375,-0.058594 0.257813,0 0.574219,-0.140625 0.808594,-0.2226562 0.152344,-0.3046875 0.210937,-0.328125 0.480469,-0.6796875 l -0.09375,-0.1640625 c -0.386719,0.1289062 -1.03125,0.2695312 -1.511719,0.2695312 -0.164063,0.011719 -0.527344,0.023437 -0.890625,0.023437 -1.523438,-0.011719 -3.890625,-0.1289062 -4.523438,-0.1289062 -1.078125,0 -1.464843,0.4804687 -1.886718,1.7226562 z m 0,0"
         style="fill:#000000;fill-opacity:1;fill-rule:nonzero;stroke:none" />
    </g>
  </g>
</svg>
