<?xml version="1.0" encoding="UTF-8" standalone="no"?>
<!-- Created with Inkscape (http://www.inkscape.org/) -->

<svg
   width="158.75mm"
   height="163.70665mm"
   viewBox="0 0 158.75 163.70665"
   version="1.1"
   id="svg1"
   xml:space="preserve"
   sodipodi:docname="FunRecta.svg"
   inkscape:export-batch-path="C:\Users\Akdemicos\Desktop\Akemicos\Akdemicos-Front\public"
   inkscape:export-batch-name="Policubico"
   xmlns:inkscape="http://www.inkscape.org/namespaces/inkscape"
   xmlns:sodipodi="http://sodipodi.sourceforge.net/DTD/sodipodi-0.dtd"
   xmlns="http://www.w3.org/2000/svg"
   xmlns:svg="http://www.w3.org/2000/svg"><sodipodi:namedview
     id="namedview1"
     pagecolor="#ffffff"
     bordercolor="#000000"
     borderopacity="0.25"
     inkscape:showpageshadow="2"
     inkscape:pageopacity="0.0"
     inkscape:pagecheckerboard="0"
     inkscape:deskcolor="#d1d1d1"
     inkscape:document-units="mm"><inkscape:page
       x="0"
       y="0"
       width="158.75"
       height="163.70667"
       id="page1"
       margin="0"
       bleed="0" /></sodipodi:namedview><defs
     id="defs1"><marker
       style="overflow:visible"
       id="ConcaveTriangle"
       refX="0"
       refY="0"
       orient="auto-start-reverse"
       markerWidth="1"
       markerHeight="1"
       viewBox="0 0 1 1"
       preserveAspectRatio="xMidYMid"><path
         transform="scale(0.7)"
         d="M -2,-4 9,0 -2,4 c 2,-2.33 2,-5.66 0,-8 z"
         style="fill:context-stroke;fill-rule:evenodd;stroke:none"
         id="path7" /></marker><marker
       style="overflow:visible"
       id="ConcaveTriangle-1"
       refX="0"
       refY="0"
       orient="auto-start-reverse"
       markerWidth="1"
       markerHeight="1"
       viewBox="0 0 1 1"
       preserveAspectRatio="xMidYMid"><path
         transform="scale(0.7)"
         d="M -2,-4 9,0 -2,4 c 2,-2.33 2,-5.66 0,-8 z"
         style="fill:context-stroke;fill-rule:evenodd;stroke:none"
         id="path7-6" /></marker><clipPath
       clipPathUnits="userSpaceOnUse"
       id="clipPath8"><rect
         style="fill:#000000;fill-opacity:1;stroke:#000000;stroke-width:0.958001;stroke-dasharray:5.74799, 0.958001;stroke-dashoffset:0;stroke-opacity:1"
         id="rect9"
         width="160.95485"
         height="163.78967"
         x="-0.6299603"
         y="-0.31498015" /></clipPath><clipPath
       clipPathUnits="userSpaceOnUse"
       id="clipPath14"><rect
         style="fill:#000000;fill-opacity:1;stroke:#1411a2;stroke-width:1.114;stroke-dasharray:none;stroke-dashoffset:0;stroke-opacity:1"
         id="rect15"
         width="159.06499"
         height="163.78967"
         x="-0.31498015"
         y="0.6299603" /></clipPath></defs><path
     fill="none"
     stroke="#006400"
     paint-order="fill stroke markers"
     d="m -14.9362,11.534645 v 0.59488 0 l 0.16172,0.593562 v 0 l 0.161721,0.592256 v 0 l 0.161726,0.590947 v 0 l 0.161719,0.589619 v 0 l 0.16172,0.588324 v 0 l 0.161721,0.587004 v 0 l 0.161719,0.585698 v 0 l 0.161719,0.584379 v 0 l 0.161719,0.583063 v 0 l 0.161727,0.581754 v 0 l 0.161719,0.58045 v 0 l 0.16172,0.57913 v 0 l 0.16172,0.577811 v 0 l 0.161721,0.576505 v 0 l 0.16172,0.575197 v 0 l 0.161719,0.57388 v 0 l 0.161726,0.572573 v 0 l 0.16172,0.571264 v 0 l 0.16172,0.569938 v 0 l 0.161719,0.56863 v 0 l 0.161719,0.567322 v 0 l 0.161721,0.566017 v 0 l 0.161719,0.564697 v 0 l 0.161729,0.563368 v 0 l 0.161718,0.562085 v 0 l 0.161719,0.560754 v 0 l 0.16172,0.559448 v 0 l 0.16172,0.55813 v 0 l 0.16172,0.556822 v 0 l 0.16172,0.555505 v 0 l 0.1617254,0.554199 v 0 l 0.1617202,0.55289 v 0 l 0.1617191,0.551572 v 0 l 0.1617191,0.550267 v 0 l 0.161721,0.548936 v 0 l 0.1617194,0.547639 v 0 l 0.1617203,0.546323 v 0 l 0.1617256,0.545005 v 0 l 0.1617204,0.543708 v 0 l 0.1617204,0.542391 v 0 l 0.1617186,0.541072 v 0 l 0.1617202,0.539766 v 0 l 0.1617195,0.538436 v 0 l 0.1617213,0.537142 v 0 l 0.1617246,0.535832 v 0 l 0.1617195,0.534505 v 0 l 0.1617212,0.533206 v 0 l 0.1617178,0.531881 v 0 L -7.0118852,39.671 v 0 l 0.1617194,0.529266 v 0 l 0.1617195,0.527958 v 0 l 0.1617264,0.526629 v 0 l 0.1617195,0.525332 v 0 l 0.1617203,0.524016 v 0 l 0.1617205,0.522696 v 0 l 0.1617196,0.521392 v 0 l 0.1617196,0.520084 v 0 l 0.1617186,0.518763 v 0 l 0.1617265,0.517449 v 0 l 0.1617195,0.516138 v 0 l 0.1617206,0.514835 v 0 l 0.1617196,0.513504 v 0 l 0.1617196,0.512207 v 0 l 0.1617199,0.510893 v 0 l 0.1617191,0.509581 v 0 l 0.1617271,0.508267 v 0 l 0.1617192,0.506957 v 0 l 0.1617203,0.505639 v 0 l 0.1617203,0.504334 v 0 l 0.1617192,0.503014 v 0 l 0.1617192,0.501709 v 0 l 0.1617203,0.500391 v 0 l 0.1617271,0.499082 v 0 l 0.1617192,0.497765 v 0 l 0.1617192,0.496454 v 0 l 0.1617202,0.495146 v 0 l 0.1617203,0.493827 v 0 l 0.1617192,0.492524 v 0 l 0.1617192,0.491205 v 0 l 0.1617282,0.48989 v 0 l 0.1617192,0.488583 v 0 l 0.1617181,0.487268 v 0 l 0.1617214,0.485959 v 0 l 0.1617191,0.484645 v 0 l 0.1617192,0.483338 v 0 l 0.1617203,0.482023 v 0 l 0.16172482,0.480703 v 0 l 0.16172256,0.479399 v 0 l 0.1617192,0.478083 v 0 l 0.16171921,0.476769 v 0 l 0.16172032,0.475457 v 0 l 0.1617191,0.474147 v 0 l 0.16172032,0.472833 v 0 l 0.1617248,0.471524 v 0 l 0.16172032,0.470212 v 0 l 0.16172032,0.4689 v 0 l 0.16171919,0.467581 v 0 l 0.16171916,0.466277 v 0 l 0.16172148,0.464958 v 0 l 0.1617203,0.463645 v 0 l 0.1617248,0.462333 v 0 l 0.1617203,0.461025 v 0 l 0.1617192,0.459713 v 0 l 0.1617203,0.458397 v 0 l 0.1617192,0.457088 v 0 l 0.1617191,0.455778 v 0 l 0.1617203,0.454457 v 0 l 0.161726,0.453154 v 0 l 0.1617203,0.451834 v 0 l 0.1617203,0.450521 v 0 l 0.1617192,0.449222 v 0 l 0.1617192,0.447898 v 0 l 0.1617203,0.446591 v 0 l 0.1617191,0.445274 v 0 l 0.1617283,0.443966 v 0 l 0.1617192,0.442646 v 0 l 0.1617203,0.441341 v 0 l 0.1617191,0.440023 v 0 l 0.1617203,0.43872 v 0 l 0.1617192,0.4374 v 0 l 0.1617203,0.436086 v 0 l 0.161726,0.434786 v 0 l 0.1617192,0.433465 v 0 l 0.1617214,0.432145 v 0 l 0.1617191,0.430841 v 0 l 0.1617192,0.429532 v 0 l 0.1617203,0.428217 v 0 l 0.1617192,0.4269 v 0 l 0.1617282,0.425595 v 0 l 0.1617181,0.424279 v 0 l 0.1617203,0.422962 v 0 l 0.1617203,0.421654 v 0 l 0.1617191,0.420343 v 0 l 0.1617192,0.419029 v 0 l 0.1617203,0.417718 v 0 l 0.161726,0.416407 v 0 l 0.1617203,0.415096 v 0 l 0.1617181,0.413777 v 0 l 0.1617203,0.412473 v 0 l 0.1617214,0.411152 v 0 l 0.1617203,0.409841 v 0 l 0.161718,0.408538 v 0 l 0.1617272,0.407219 v 0 l 0.1617191,0.405908 v 0 l 0.1617192,0.404594 v 0 l 0.1617203,0.403276 v 0 l 0.1617192,0.401972 v 0 l 0.1617202,0.40066 v 0 l 0.1617215,0.399343 v 0 l 0.1617249,0.398037 v 0 l 0.1617203,0.396719 v 0 l 0.1617191,0.395407 v 0 l 0.1617192,0.394095 v 0 l 0.1617203,0.392784 v 0 l 0.1617193,0.391473 v 0 l 0.16172,0.390159 v 0 l 0.161726,0.38885 v 0 l 0.16172,0.387529 v 0 l 0.161721,0.386227 v 0 l 0.161719,0.384906 v 0 l 0.161719,0.383603 v 0 l 0.16172,0.382284 v 0 l 0.161721,0.380972 v 0 l 0.161726,0.37966 v 0 l 0.16172,0.378349 v 0 l 0.161719,0.377037 v 0 l 0.16172,0.375716 v 0 l 0.16172,0.374414 v 0 l 0.161719,0.373104 v 0 l 0.161721,0.371784 v 0 l 0.161725,0.370471 v 0 l 0.161719,0.369167 v 0 l 0.161721,0.36785 v 0 l 0.161719,0.366537 v 0 l 0.161721,0.365226 v 0 l 0.161719,0.363913 v 0 l 0.161719,0.362604 v 0 l 0.161728,0.36128 v 0 l 0.161718,0.359982 v 0 l 0.161719,0.358658 v 0 l 0.161721,0.357358 v 0 l 0.161721,0.356036 v 0 l 0.161718,0.354727 v 0 l 0.16172,0.353413 v 0 l 0.161728,0.352104 v 0 l 0.161719,0.35079 v 0 l 0.161719,0.349475 v 0 l 0.161719,0.34817 v 0 l 0.161722,0.34685 v 0 l 0.16172,0.34555 v 0 l 0.161718,0.34422 v 0 l 0.161727,0.34291 v 0 l 0.161719,0.34161 v 0 l 0.16172,0.3403 v 0 l 0.161719,0.33897 v 0 l 0.161721,0.33767 v 0 l 0.161721,0.33636 v 0 l 0.161719,0.33503 v 0 l 0.161726,0.33374 v 0 l 0.161719,0.33241 v 0 l 0.16172,0.33111 v 0 l 0.161719,0.32979 v 0 l 0.16172,0.32848 v 0 l 0.161721,0.32717 v 0 l 0.161719,0.32587 v 0 l 0.161725,0.32454 v 0 l 0.161721,0.32322 v 0 l 0.161721,0.32191 v 0 l 0.161719,0.32061 v 0 l 0.161719,0.31929 v 0 l 0.161722,0.31799 v 0 l 0.161718,0.31668 v 0 l 0.161726,0.31535 v 0 l 0.16172,0.31404 v 0 l 0.161719,0.31274 v 0 l 0.161721,0.31142 v 0 l 0.161719,0.31013 v 0 l 0.161719,0.30877 v 0 l 0.161721,0.30749 v 0 l 0.161726,0.30619 v 0 l 0.16172,0.30485 v 0 l 0.16172,0.30355 v 0 l 0.161721,0.30224 v 0 l 0.161719,0.30092 v 0 l 0.161719,0.2996 v 0 l 0.161719,0.2983 v 0 l 0.161727,0.29698 v 0 l 0.161719,0.29568 v 0 l 0.161719,0.29437 v 0 l 0.161722,0.29304 v 0 l 0.161721,0.29174 v 0 l 0.161718,0.29042 v 0 l 0.16172,0.28911 v 0 l 0.161726,0.2878 v 0 l 0.16172,0.28649 v 0 l 0.161718,0.28517 v 0 l 0.16172,0.28387 v 0 l 0.161722,0.28254 v 0 l 0.16172,0.28124 v 0 l 0.161722,0.27992 v 0 l 0.161721,0.27862 v 0 l 0.16172,0.2773 v 0 l 0.161722,0.27599 v 0 l 0.161719,0.27467 v 0 l 0.161722,0.27339 v 0 l 0.161719,0.27204 v 0 l 0.161722,0.27073 v 0 l 0.161722,0.26941 v 0 l 0.161717,0.26813 v 0 l 0.161723,0.2668 v 0 l 0.161719,0.2655 v 0 l 0.161722,0.26417 v 0 l 0.161722,0.26286 v 0 l 0.16172,0.26157 v 0 l 0.16172,0.26024 v 0 l 0.161722,0.25892 v 0 l 0.161721,0.25763 v 0 l 0.161719,0.2563 v 0 l 0.16172,0.25497 v 0 l 0.161722,0.25368 v 0 l 0.161721,0.25238 v 0 l 0.16172,0.25105 v 0 l 0.16172,0.24976 v 0 l 0.161722,0.24842 v 0 l 0.161721,0.24711 v 0 l 0.16172,0.24582 v 0 l 0.161721,0.24447 v 0 l 0.161721,0.2432 v 0 l 0.16172,0.24186 v 0 l 0.161721,0.24056 v 0 l 0.16172,0.23923 v 0 l 0.161722,0.23796 v 0 l 0.161719,0.23661 v 0 l 0.161721,0.23531 v 0 l 0.161723,0.23399 v 0 l 0.161719,0.23267 v 0 l 0.161722,0.23139 v 0 l 0.161719,0.23004 v 0 l 0.161722,0.22875 v 0 l 0.16172,0.22743 v 0 l 0.16172,0.22613 v 0 l 0.161721,0.2248 v 0 l 0.161721,0.22349 v 0 l 0.161721,0.2222 v 0 l 0.16172,0.22088 v 0 l 0.16172,0.21955 v 0 l 0.161722,0.21824 v 0 l 0.161721,0.21694 v 0 l 0.161721,0.21563 v 0 l 0.161718,0.21431 v 0 l 0.161722,0.21299 v 0 l 0.161722,0.2117 v 0 l 0.161719,0.21036 v 0 l 0.161722,0.20906 v 0 l 0.161719,0.20776 v 0 l 0.161722,0.20641 v 0 l 0.16172,0.20514 v 0 l 0.161722,0.20381 v 0 l 0.161721,0.2025 v 0 l 0.16172,0.2012 v 0 l 0.161721,0.19986 v 0 l 0.161721,0.19857 v 0 l 0.16172,0.19725 v 0 l 0.16172,0.19594 v 0 l 0.161721,0.19462 v 0 l 0.161722,0.19333 v 0 l 0.161719,0.19198 v 0 l 0.16172,0.19069 v 0 l 0.161721,0.18939 v 0 l 0.161723,0.18805 v 0 l 0.16172,0.18676 v 0 l 0.16172,0.18545 v 0 l 0.161721,0.18411 v 0 l 0.161721,0.18282 v 0 l 0.16172,0.18151 v 0 l 0.161721,0.18017 v 0 l 0.161719,0.17891 v 0 l 0.161722,0.17756 v 0 l 0.161721,0.17625 v 0 l 0.16172,0.17492 v 0 l 0.161722,0.17364 v 0 l 0.16172,0.17232 v 0 l 0.161722,0.17101 v 0 l 0.161719,0.16968 v 0 l 0.161721,0.16837 v 0 l 0.161722,0.16707 v 0 l 0.161719,0.16577 v 0 l 0.161722,0.16445 v 0 l 0.16172,0.16311 v 0 l 0.16172,0.16182 v 0 l 0.161721,0.16052 v 0 l 0.161722,0.15918 v 0 l 0.161722,0.15789 v 0 l 0.161719,0.15657 v 0 l 0.161719,0.15525 v 0 l 0.161723,0.15395 v 0 l 0.16172,0.15263 v 0 l 0.161721,0.15133 v 0 l 0.161719,0.14999 v 0 l 0.161723,0.1487 v 0 l 0.161719,0.14738 v 0 l 0.16172,0.14608 v 0 l 0.161723,0.14475 v 0 l 0.16172,0.14345 v 0 l 0.161721,0.14213 v 0 l 0.16172,0.14083 v 0 l 0.16172,0.1395 v 0 l 0.161722,0.1382 v 0 l 0.16172,0.13688 v 0 l 0.161721,0.13558 v 0 l 0.161721,0.13423 v 0 l 0.161719,0.13296 v 0 l 0.161722,0.13165 v 0 l 0.16172,0.13032 v 0 l 0.161722,0.12902 v 0 l 0.16172,0.12768 v 0 l 0.16172,0.12639 v 0 l 0.161721,0.12508 v 0 l 0.161721,0.12376 v 0 l 0.161721,0.12245 v 0 l 0.16172,0.12113 v 0 l 0.16172,0.11983 v 0 l 0.161722,0.11852 v 0 l 0.16172,0.11719 v 0 l 0.16172,0.11588 v 0 l 0.16172,0.11459 v 0 l 0.161723,0.11326 v 0 l 0.161721,0.11194 v 0 l 0.161719,0.11065 v 0 l 0.161723,0.10933 v 0 l 0.161723,0.10801 v 0 l 0.161718,0.1067 v 0 l 0.161722,0.10537 v 0 l 0.16172,0.104 v 0 l 0.161719,0.10272 v 0 l 0.161719,0.10145 v 0 l 0.161719,0.10006 v 0 l 0.161728,0.0988 v 0 l 0.16172,0.0975 v 0 l 0.161718,0.0961 v 0 l 0.161722,0.0949 v 0 l 0.16172,0.0935 v 0 l 0.161719,0.0922 v 0 l 0.161719,0.0909 v 0 l 0.161727,0.0897 v 0 l 0.161719,0.0883 v 0 l 0.161719,0.087 v 0 l 0.16172,0.0856 v 0 l 0.161722,0.0843 v 0 l 0.161719,0.0831 v 0 l 0.16172,0.0817 v 0 l 0.161725,0.0804 v 0 l 0.161721,0.0791 v 0 l 0.161719,0.0778 v 0 l 0.16172,0.0765 v 0 l 0.161719,0.0752 v 0 l 0.161719,0.0738 v 0 l 0.161722,0.0726 v 0 l 0.161723,0.0713 v 0 l 0.161724,0.0699 v 0 l 0.161719,0.0686 v 0 l 0.161719,0.0674 v 0 l 0.161719,0.066 v 0 l 0.161719,0.0647 v 0 l 0.161722,0.0634 v 0 l 0.161724,0.062 v 0 l 0.161722,0.0608 v 0 l 0.161719,0.0594 v 0 l 0.16172,0.0581 v 0 l 0.161718,0.0568 v 0 l 0.16172,0.0555 v 0 l 0.161723,0.0542 v 0 l 0.161724,0.0529 v 0 l 0.16172,0.0515 v 0 l 0.161721,0.0502 v 0 l 0.161719,0.049 v 0 l 0.161719,0.0476 v 0 l 0.161719,0.0463 v 0 l 0.161724,0.045 v 0 l 0.161725,0.0437 v 0 l 0.161716,0.0424 v 0 l 0.161718,0.0411 v 0 l 0.161726,0.0397 v 0 l 0.161717,0.0385 v 0 l 0.161717,0.0371 v 0 l 0.161726,0.0358 v 0 l 0.161724,0.0345 v 0 l 0.161718,0.0331 v 0 l 0.161716,0.0319 v 0 l 0.161726,0.0306 v 0 l 0.161716,0.0292 v 0 l 0.161718,0.0279 v 0 l 0.161724,0.0267 v 0 l 0.161728,0.0253 v 0 l 0.161716,0.024 v 0 l 0.161726,0.0227 v 0 l 0.161716,0.0214 v 0 l 0.161717,0.0201 v 0 l 0.161726,0.0188 v 0 l 0.161716,0.0174 v 0 l 0.161727,0.0162 v 0 l 0.161715,0.0149 v 0 l 0.161726,0.0135 v 0 l 0.161716,0.0122 v 0 l 0.161718,0.0109 v 0 l 0.161726,0.01 v 0 l 0.161718,0.008 v 0 l 0.161723,0.007 v 0 l 0.161718,0.005 v 0 l 0.161725,0.004 v 0 l 0.161717,0.003 v 0 l 0.161718,0.002 v 0 l 0.161726,4e-4 v -2e-5 l 0.161715,-9.5e-4 v 0 l 0.161726,-0.002 v 0 l 0.161717,-0.003 v 0 l 0.161726,-0.005 v 0 l 0.161717,-0.006 v 0 l 0.161717,-0.007 v 0 l 0.161725,-0.008 v 0 l 0.161717,-0.0106 v 0 l 0.161722,-0.0114 v 0 l 0.161731,-0.0127 v 0 l 0.16172,-0.014 v 0 l 0.16171,-0.0153 v 0 l 0.161732,-0.0167 v 0 l 0.161709,-0.0179 v 0 l 0.161721,-0.0192 v 0 l 0.161723,-0.0206 v 0 l 0.16173,-0.0219 v 0 l 0.16171,-0.0233 v 0 l 0.16172,-0.0245 v 0 l 0.161732,-0.0258 v 0 l 0.16171,-0.0272 v 0 l 0.16172,-0.0285 v 0 l 0.16172,-0.0297 v 0 l 0.161732,-0.031 v 0 l 0.16171,-0.0324 v 0 l 0.161721,-0.0337 v 0 l 0.161719,-0.0351 v 0 l 0.161724,-0.0363 v 0 l 0.16172,-0.0376 v 0 l 0.16172,-0.039 v 0 l 0.161731,-0.0403 v 0 l 0.161709,-0.0415 v 0 l 0.161723,-0.0429 v 0 l 0.161719,-0.0442 v 0 l 0.16172,-0.0455 v 0 l 0.161722,-0.0468 v 0 l 0.161731,-0.0481 v 0 l 0.161721,-0.0494 v 0 l 0.16171,-0.0508 v 0 l 0.161732,-0.0521 v 0 l 0.16171,-0.0533 v 0 l 0.16172,-0.0547 v 0 l 0.161722,-0.056 v 0 l 0.16173,-0.0574 v 0 l 0.161721,-0.0586 v 0 l 0.16171,-0.0599 v 0 l 0.161731,-0.0613 v 0 l 0.16171,-0.0626 v 0 l 0.16172,-0.0638 v 0 l 0.161721,-0.0652 v 0 l 0.161732,-0.0665 v 0 l 0.16171,-0.0678 v 0 l 0.161721,-0.0692 v 0 l 0.16173,-0.0704 v 0 l 0.161712,-0.0717 v 0 l 0.16172,-0.0731 v 0 l 0.16172,-0.0744 v 0 l 0.161731,-0.0756 v 0 l 0.161711,-0.077 v 0 l 0.161721,-0.0783 v 0 l 0.161731,-0.0796 v 0 l 0.161709,-0.0809 v 0 l 0.161733,-0.0822 v 0 l 0.16171,-0.0835 v 0 l 0.161731,-0.0849 v 0 l 0.161721,-0.0862 v 0 l 0.16172,-0.0874 v 0 l 0.16172,-0.0888 v 0 l 0.16171,-0.0901 v 0 l 0.161732,-0.0915 v 0 l 0.16171,-0.0927 v 0 l 0.161732,-0.094 v 0 l 0.161721,-0.0954 v 0 l 0.161721,-0.0967 v 0 l 0.16172,-0.0979 v 0 l 0.161709,-0.0993 v 0 l 0.161731,-0.10059 v 0 l 0.161712,-0.10188 v 0 l 0.161731,-0.10325 v 0 l 0.16172,-0.10453 v 0 l 0.161721,-0.1058 v 0 l 0.16172,-0.10721 v 0 l 0.161721,-0.10852 v 0 l 0.161721,-0.10982 v 0 l 0.161709,-0.11114 v 0 l 0.161733,-0.11245 v 0 l 0.16172,-0.11376 v 0 l 0.16172,-0.1151 v 0 l 0.161711,-0.11638 v 0 l 0.161731,-0.1177 v 0 l 0.16172,-0.11903 v 0 l 0.16171,-0.12033 v 0 l 0.161732,-0.12164 v 0 l 0.16172,-0.12294 v 0 l 0.161721,-0.12428 v 0 l 0.16171,-0.12555 v 0 l 0.161733,-0.1269 v 0 l 0.161719,-0.12819 v 0 l 0.161711,-0.1295 v 0 l 0.161731,-0.13084 v 0 l 0.161721,-0.13214 v 0 l 0.16172,-0.13345 v 0 l 0.161721,-0.13475 v 0 l 0.161721,-0.13608 v 0 l 0.16171,-0.13738 v 0 l 0.161732,-0.13871 v 0 l 0.16172,-0.14001 v 0 l 0.161721,-0.14133 v 0 l 0.16172,-0.14263 v 0 l 0.161721,-0.14395 v 0 l 0.161722,-0.14526 v 0 l 0.161709,-0.14658 v 0 l 0.161731,-0.1479 v 0 l 0.161721,-0.14919 v 0 l 0.161719,-0.1505 v 0 l 0.161722,-0.15183 v 0 l 0.16172,-0.15312 v 0 l 0.161722,-0.15446 v 0 l 0.161711,-0.15576 v 0 l 0.16173,-0.15707 v 0 l 0.161721,-0.15839 v 0 l 0.161719,-0.15969 v 0 l 0.161712,-0.161 v 0 l 0.161731,-0.16234 v 0 l 0.16172,-0.16362 v 0 l 0.161711,-0.16494 v 0 l 0.161731,-0.16627 v 0 l 0.161721,-0.16756 v 0 l 0.16172,-0.1689 v 0 l 0.161722,-0.17019 v 0 l 0.16172,-0.1715 v 0 l 0.16172,-0.17281 v 0 l 0.161721,-0.17414 v 0 l 0.161721,-0.17546 v 0 l 0.161721,-0.17675 v 0 l 0.16172,-0.17807 v 0 l 0.16172,-0.17937 v 0 l 0.161722,-0.1807 v 0 l 0.16171,-0.18201 v 0 l 0.16173,-0.18332 v 0 l 0.161722,-0.18463 v 0 l 0.161721,-0.18594 v 0 l 0.16172,-0.18724 v 0 l 0.16172,-0.18857 v 0 l 0.161721,-0.18988 v 0 l 0.161711,-0.19121 v 0 l 0.16173,-0.19249 v 0 l 0.161711,-0.19382 v 0 l 0.16172,-0.19513 v 0 l 0.161721,-0.19643 v 0 l 0.16172,-0.19776 v 0 l 0.161726,-0.19906 v 0 l 0.161709,-0.20039 v 0 l 0.161729,-0.2017 v 0 l 0.161718,-0.20297 v 0 l 0.161719,-0.20433 v 0 l 0.161728,-0.20564 v 0 l 0.161719,-0.20693 v 0 l 0.161718,-0.20826 v 0 l 0.161719,-0.20954 v 0 l 0.161718,-0.2109 v 0 l 0.161728,-0.21218 v 0 l 0.161719,-0.2135 v 0 l 0.161718,-0.21482 v 0 l 0.16172,-0.21612 v 0 l 0.161718,-0.21744 v 0 l 0.161729,-0.21875 v 0 l 0.161718,-0.22005 v 0 l 0.161709,-0.22139 v 0 l 0.161729,-0.22269 v 0 l 0.161728,-0.22399 v 0 l 0.161719,-0.22532 v 0 l 0.161718,-0.22662 v 0 l 0.161719,-0.22795 v 0 l 0.161718,-0.22923 v 0 l 0.161719,-0.23058 v 0 l 0.161729,-0.23187 v 0 l 0.161718,-0.23317 v 0 l 0.161719,-0.2345 v 0 l 0.161718,-0.23581 v 0 l 0.161729,-0.23712 v 0 l 0.161718,-0.23844 v 0 l 0.161719,-0.23975 v 0 l 0.161728,-0.24106 v 0 l 0.161718,-0.24236 v 0 l 0.161719,-0.24369 v 0 l 0.161718,-0.24501 v 0 l 0.161721,-0.24632 v 0 l 0.161717,-0.2476 v 0 l 0.16173,-0.24894 v 0 l 0.161728,-0.25024 v 0 l 0.161709,-0.25156 v 0 l 0.161718,-0.25287 v 0 l 0.161719,-0.2542 v 0 l 0.161728,-0.25549 v 0 l 0.161718,-0.2568 v 0 l 0.161719,-0.25811 v 0 l 0.161718,-0.25943 v 0 l 0.161719,-0.26075 v 0 l 0.161729,-0.26205 v 0 l 0.161718,-0.26336 v 0 l 0.161719,-0.26469 v 0 l 0.161709,-0.266 v 0 l 0.161738,-0.2673 v 0 l 0.161718,-0.26863 v 0 l 0.161719,-0.26991 v 0 l 0.161718,-0.27125 v 0 l 0.161719,-0.27256 v 0 l 0.161728,-0.27386 v 0 l 0.16172,-0.27518 v 0 l 0.161719,-0.2765 v 0 l 0.161718,-0.27779 v 0 l 0.161729,-0.27912 v 0 l 0.161718,-0.28043 v 0 l 0.161709,-0.28174 v 0 l 0.161728,-0.28306 v 0 l 0.161719,-0.28436 v 0 l 0.161728,-0.28567 v 0 l 0.161709,-0.28701 v 0 l 0.161728,-0.2883 v 0 l 0.161718,-0.2896 v 0 l 0.16173,-0.29116 v 0 l 0.161718,-0.29225 v 0 l 0.161709,-0.29354 v 0 l 0.161728,-0.29487 v 0 l 0.161719,-0.29618 v 0 l 0.161728,-0.29748 v 0 l 0.161708,-0.2988 v 0 l 0.16173,-0.30012 v 0 l 0.161718,-0.30143 v 0 l 0.161728,-0.30273 v 0 l 0.161709,-0.30405 v 0 l 0.161719,-0.30537 v 0 l 0.161739,-0.30667 v 0 l 0.161708,-0.30799 v 0 l 0.161729,-0.3093 v 0 l 0.161708,-0.31061 v 0 l 0.161729,-0.31192 v 0 l 0.161718,-0.31324 v 0 l 0.161733,-0.31455 v 0 l 0.161704,-0.31587 v 0 l 0.161716,-0.31715 v 0 l 0.161727,-0.31851 v 0 l 0.161728,-0.31978 v 0 l 0.161716,-0.32111 v 0 l 0.161703,-0.32242 v 0 l 0.161739,-0.32375 v 0 l 0.161727,-0.32505 v 0 l 0.161716,-0.32635 v 0 l 0.161716,-0.32768 v 0 l 0.161715,-0.32897 v 0 l 0.161727,-0.33031 v 0 l 0.161716,-0.33161 v 0 l 0.161727,-0.33291 v 0 l 0.161716,-0.33423 v 0 l 0.161728,-0.33555 v 0 l 0.161715,-0.33685 v 0 l 0.161729,-0.33818 v 0 l 0.16171,-0.33948 v 0 l 0.16171,-0.34079 v 0 l 0.16175,-0.34211 v 0 l 0.16171,-0.34343 v 0 l 0.16172,-0.34472 v 0 l 0.16172,-0.34605 v 0 l 0.16172,-0.34735 v 0 l 0.16172,-0.34867 v 0 l 0.16173,-0.349982 v 0 l 0.16172,-0.351291 v 0 l 0.16171,-0.352611 v 0 l 0.16172,-0.353924 v 0 l 0.16173,-0.355235 v 0 l 0.16172,-0.356538 v 0 l 0.16171,-0.357856 v 0 l 0.16173,-0.35917 v 0 l 0.16172,-0.36047 v 0 l 0.16171,-0.361793 v 0 l 0.16173,-0.363112 v 0 l 0.16171,-0.364414 v 0 l 0.16173,-0.365727 v 0 l 0.16172,-0.367037 v 0 l 0.16172,-0.368357 v 0 l 0.16172,-0.36966 v 0 l 0.16172,-0.370981 v 0 l 0.16172,-0.372292 v 0 l 0.16172,-0.373604 v 0 l 0.16173,-0.374915 v 0 l 0.16171,-0.376226 v 0 l 0.16173,-0.377538 v 0 l 0.16171,-0.37885 v 0 l 0.16173,-0.38016 v 0 l 0.16172,-0.381482 v 0 l 0.16171,-0.382783 v 0 l 0.16173,-0.384104 v 0 l 0.16172,-0.385416 v 0 l 0.16172,-0.386727 v 0 l 0.16172,-0.388028 v 0 l 0.16173,-0.389358 v 0 l 0.16171,-0.390661 v 0 l 0.16173,-0.391974 v 0 l 0.16171,-0.393283 v 0 l 0.16172,-0.394606 v 0 l 0.16173,-0.395907 v 0 l 0.16171,-0.397226 v 0 l 0.16173,-0.398551 v 0 l 0.16172,-0.399849 v 0 l 0.16171,-0.401161 v 0 l 0.16173,-0.402475 v 0 l 0.16171,-0.403784 v 0 l 0.16173,-0.405096 v 0 l 0.16172,-0.406417 v 0 l 0.16172,-0.407717 v 0 l 0.16172,-0.409042 v 0 l 0.16173,-0.41034 v 0 l 0.16171,-0.411661 v 0 l 0.16172,-0.412973 v 0 l 0.16173,-0.414277 v 0 l 0.16171,-0.415597 v 0 l 0.16174,-0.416908 v 0 l 0.1617,-0.418227 v 0 l 0.16173,-0.419529 v 0 l 0.16172,-0.420843 v 0 l 0.16172,-0.422163 v 0 l 0.16172,-0.423465 v 0 l 0.16172,-0.424784 v 0 l 0.16172,-0.426097 v 0 l 0.16172,-0.427409 v 0 l 0.16173,-0.428709 v 0 l 0.16171,-0.430041 v 0 l 0.16173,-0.431342 v 0 l 0.1617,-0.432655 v 0 l 0.16174,-0.433965 v 0 l 0.16172,-0.435285 v 0 l 0.16171,-0.436588 v 0 l 0.16173,-0.437909 v 0 l 0.16172,-0.43922 v 0 l 0.16172,-0.440523 v 0 l 0.16171,-0.441842 v 0 l 0.16174,-0.443155 v 0 l 0.16171,-0.444466 v 0 l 0.16173,-0.445785 v 0 l 0.16172,-0.447088 v 0 l 0.16171,-0.448399 v 0 l 0.16173,-0.449722 v 0 l 0.16171,-0.451023 v 0 l 0.16173,-0.452343 v 0 l 0.1617,-0.453655 v 0 l 0.16175,-0.454965 v 0 l 0.16171,-0.456277 v 0 l 0.16173,-0.457588 v 0 l 0.1617,-0.458903 v 0 l 0.16173,-0.46021 v 0 l 0.16175,-0.461531 v 0 l 0.16169,-0.462837 v 0 l 0.16173,-0.464154 v 0 l 0.16171,-0.465458 v 0 l 0.16173,-0.466777 v 0 l 0.16172,-0.46809 v 0 l 0.16172,-0.469401 v 0 l 0.1617,-0.470711 v 0 l 0.16174,-0.472025 v 0 l 0.16171,-0.473343 v 0 l 0.16174,-0.474647 v 0 l 0.16171,-0.47596 v 0 l 0.16171,-0.477276 v 0 l 0.16173,-0.47859 v 0 l 0.16173,-0.479893 v 0 l 0.16171,-0.481214 v 0 L 117.8365,57.7126 v 0 l 0.16171,-0.483836 v 0 l 0.16173,-0.485147 v 0 l 0.16172,-0.486457 v 0 l 0.16171,-0.487781 v 0 l 0.16172,-0.489081 v 0 l 0.16173,-0.490401 v 0 l 0.16172,-0.491704 v 0 l 0.16172,-0.493026 v 0 l 0.1617,-0.494335 v 0 l 0.16175,-0.495648 v 0 l 0.16171,-0.496953 v 0 l 0.16173,-0.498275 v 0 l 0.1617,-0.499581 v 0 l 0.16173,-0.50089 v 0 l 0.16172,-0.502219 v 0 l 0.16173,-0.503514 v 0 l 0.1617,-0.504832 v 0 l 0.16172,-0.50615 v 0 l 0.16173,-0.507447 v 0 l 0.16173,-0.508776 v 0 l 0.16173,-0.510083 v 0 l 0.1617,-0.511389 v 0 l 0.16173,-0.512719 v 0 l 0.16172,-0.514016 v 0 l 0.16173,-0.515332 v 0 l 0.16171,-0.516638 v 0 l 0.16174,-0.517958 v 0 l 0.1617,-0.519266 v 0 l 0.16173,-0.520581 v 0 l 0.16171,-0.521892 v 0 l 0.16172,-0.523206 v 0 l 0.16172,-0.524517 v 0 l 0.16174,-0.525829 v 0 l 0.16172,-0.527143 v 0 l 0.16171,-0.528456 v 0 l 0.16171,-0.529764 v 0 l 0.16173,-0.531084 v 0 l 0.16172,-0.532389 v 0 l 0.16172,-0.533708 v 0 l 0.16171,-0.535004 v 0 l 0.16174,-0.536332 v 0 l 0.16172,-0.537641 v 0 l 0.16172,-0.538947 v 0 l 0.16171,-0.540274 v 0 l 0.16172,-0.541572 v 0 l 0.16172,-0.542891 v 0 l 0.16174,-0.544207 v 0 l 0.1617,-0.545515 v 0 l 0.16172,-0.546822 v 0 l 0.16173,-0.54814 v 0 l 0.16173,-0.549446 v 0 l 0.16171,-0.550766 v 0 l 0.16172,-0.552071 v 0 l 0.16172,-0.553391 v 0 l 0.16172,-0.554709 v 0 l 0.16172,-0.556003 v 0 l 0.16173,-0.557322 v 0 l 0.16171,-0.558642 v 0 l 0.16172,-0.559956 v 0 l 0.16173,-0.561254 v 0 l 0.16173,-0.562572 v 0 l 0.1617,-0.563891 v 0 l 0.16172,-0.565197 v 0 l 0.16172,-0.566516 v 0 l 0.16174,-0.567821 v 0 l 0.16171,-0.56913 v 0 l 0.16172,-0.570457 v 0 l 0.16173,-0.571754 v 0 l 0.16172,-0.573073 v 0 l 0.1617,-0.574389 v 0 l 0.16173,-0.575688 v 0 l 0.16171,-0.577013 v 0 l 0.16174,-0.578322 v 0 l 0.16171,-0.57964 v 0 l 0.16173,-0.58095 v 0 l 0.16172,-0.582255 v 0 l 0.16173,-0.58357 v 0 l 0.16171,-0.58488 v 0 l 0.16171,-0.586197 v 0 l 0.16173,-0.587514 v 0 l 0.16171,-0.588814 v 0 l 0.16174,-0.590127 v 0 l 0.16171,-0.591449 v 0 l 0.16172,-0.592753 v 0 l 0.16172,-0.594074 v 0 l 0.16172,-0.595378 v 0 l 0.16172,-0.596699 v 0 l 0.16172,-0.597994 v 0 l 0.16173,-0.599322 v 0 l 0.16172,-0.6006296 v 0 l 0.16172,-0.6019475 v 0 l 0.16172,-0.6032546 v 0 l 0.16171,-0.6045724 v 0 l 0.16173,-0.6058799 v 0 l 0.16171,-0.6071974 v 0 l 0.16173,-0.6084941 v 0 l 0.16172,-0.6098224 v 0 l 0.16173,-0.6111296 v 0 l 0.16171,-0.6124369 v 0 l 0.16173,-0.6137548 v 0 l 0.16171,-0.6150725 v 0 L 134.332,1.6016615 v 0 l 0.16172,-0.6176762 v 0 l 0.16174,-0.61901536 v 0 l 0.16171,-0.62031196 v 0 l 0.16172,-0.62163014 v 0 l 0.16172,-0.62294814 v 0 l 0.16172,-0.6242439 v 0 l 0.16172,-0.6255722 v 0 l 0.16172,-0.6268693 v 0 l 0.16173,-0.6281873 v 0 l 0.16172,-0.6294945 v 0 l 0.16171,-0.6308221 v 0 l 0.16173,-0.6321307 v 0 l 0.16171,-0.633436 v 0 l 0.16173,-0.6347554 v 0 l 0.16171,-0.6360503 v 0 l 0.16172,-0.6373803 v 0 l 0.16172,-0.6386868 v 0 l 0.16172,-0.6400052 v 0 l 0.16173,-0.6413117 v 0 l 0.16172,-0.642632 v 0 l 0.16172,-0.643926 v 0 l 0.16173,-0.645256 v 0 l 0.16171,-0.646561 v 0 l 0.16172,-0.64787 v 0 l 0.16172,-0.649186 v 0 l 0.16173,-0.650507 v 0 l 0.16171,-0.651801 v 0 l 0.16173,-0.653128 v 0 l 0.16171,-0.654428 v 0 l 0.16173,-0.655754 v 0 l 0.16172,-0.657062 v 0 l 0.16172,-0.658369 v 0 l 0.16171,-0.659688 v 0 l 0.16172,-0.661005 v 0 l 0.16174,-0.662302 v 0 l 0.16173,-0.663619 v 0 l 0.16171,-0.664927 v 0 l 0.16171,-0.666255 v 0 l 0.16173,-0.667551 v 0 l 0.16171,-0.668881 v 0 l 0.16174,-0.670177 v 0 l 0.16169,-0.671494 v 0 l 0.16175,-0.672824 v 0 l 0.16171,-0.674107 v 0 l 0.16172,-0.675438 v 0 l 0.16171,-0.676745 v 0 l 0.16172,-0.678052 v 0 l 0.16173,-0.679369 v 0 l 0.16172,-0.680687 v 0 l 0.16173,-0.681995 v 0 l 0.16171,-0.683302 v 0 l 0.16173,-0.68462 v 0 l 0.16172,-0.685927 v 0 l 0.16171,-0.687243 v 0 l 0.16172,-0.688562 v 0 l 0.16171,-0.68986 v 0 l 0.16175,-0.691176 v 0 l 0.16171,-0.692496 v 0 l 0.16173,-0.693811 v 0 l 0.1617,-0.69511 v 0 l 0.16173,-0.696427 v 0 l 0.16172,-0.697746 v 0 l 0.16172,-0.699049 v 0 l 0.16171,-0.70037 v 0 l 0.16172,-0.701678 v 0 l 0.16174,-0.702995 v 0 l 0.16172,-0.704301 v 0 l 0.1617,-0.70561 v 0 l 0.16173,-0.706937 v 0 l 0.16172,-0.708234 v 0 l 0.16173,-0.709552 v 0 l 0.16171,-0.710859 v 0 l 0.16172,-0.712176 v 0 l 0.16171,-0.713496 v 0 l 0.16174,-0.714801 v 0 l 0.16172,-0.716121 v 0 l 0.16171,-0.717414 v 0 l 0.16172,-0.718746 v 0 l 0.16173,-0.72004 v 0 l 0.16172,-0.721359 v 0 l 0.16171,-0.722678 v 0 l 0.16172,-0.723994 v 0 l 0.16173,-0.725302 v 0 l 0.16172,-0.726619 v 0 l 0.16173,-0.727919 v 0 l 0.16172,-0.729232 v 0 l 0.16171,-0.730554 v 0 l 0.16173,-0.731858 v 0 l 0.16173,-0.733176 v 0 l 0.16171,-0.734485 v 0 l 0.16172,-0.735802 v 0 l 0.16172,-0.737109 v 0 l 0.16172,-0.738417 v 0 l 0.16172,-0.739735 v 0 l 0.16171,-0.741051 v 0 l 0.16173,-0.74236 v 0 l 0.16172,-0.743678 v 0 l 0.16174,-0.744973 v 0 l 0.1617,-0.746302 v 0 l 0.16173,-0.747611 v 0 l 0.16171,-0.748915 v 0 l 0.16173,-0.750245 v 0 l 0.16171,-0.751541 v 0 l 0.16172,-0.75286 v 0 l 0.16172,-0.754168 v 0 l 0.16174,-0.755482 v 0 l 0.16171,-0.756803 v 0 l 0.16172,-0.7581 v 0 l 0.16173,-0.759415 v 0 l 0.16171,-0.760735 v 0 l 0.16172,-0.762053 v 0 l 0.16172,-0.763358 v 0 l 0.16171,-0.764657 v 0 l 0.16174,-0.765984 v 0 l 0.16172,-0.767302 v 0 l 0.16172,-0.76861 v 0 l 0.16171,-0.769907 v 0 l 0.16172,-0.771234 v 0 l 0.16172,-0.772542 v 0 l 0.16173,-0.773849 v 0 l 0.1617,-0.775167"
     stroke-opacity="0.698039"
     stroke-linecap="round"
     stroke-linejoin="round"
     stroke-miterlimit="10"
     stroke-width="0.388898"
     id="path2"
     style="display:none;stroke:#1311a1;stroke-width:1.21415;stroke-dasharray:none;stroke-opacity:1"
     clip-path="url(#clipPath8)"
     transform="translate(1.8898805,-0.31498014)" /><g
     id="g14"
     clip-path="url(#clipPath14)"
     transform="translate(-4.8491372e-7,-0.6299603)"><g
       id="g9"><path
         style="fill:#040404;stroke:#000000;stroke-width:0.840562;stroke-miterlimit:3.7;stroke-dasharray:none;marker-end:url(#ConcaveTriangle)"
         d="m 7.83e-4,83.640137 145.438337,0.27079"
         id="path1" /><path
         style="fill:#040404;stroke:#000000;stroke-width:0.83971;stroke-miterlimit:3.7;stroke-dasharray:none;marker-end:url(#ConcaveTriangle-1)"
         d="M 73.901748,164.17492 73.954482,17.695173"
         id="path1-5" /><text
         xml:space="preserve"
         style="font-style:italic;font-variant:normal;font-weight:normal;font-stretch:normal;font-size:11.2889px;font-family:'Bell MT';-inkscape-font-specification:'Bell MT, Italic';font-variant-ligatures:normal;font-variant-caps:normal;font-variant-numeric:normal;font-variant-east-asian:normal;text-align:start;writing-mode:lr-tb;direction:ltr;text-anchor:start;fill:none;stroke:#000000;stroke-width:0.903999;stroke-miterlimit:3.7;stroke-dasharray:none;stroke-opacity:1"
         x="153.31842"
         y="86.55735"
         id="text2"><tspan
           id="tspan2"
           style="font-style:italic;font-variant:normal;font-weight:normal;font-stretch:normal;font-size:11.2889px;font-family:'Bell MT';-inkscape-font-specification:'Bell MT, Italic';font-variant-ligatures:normal;font-variant-caps:normal;font-variant-numeric:normal;font-variant-east-asian:normal;stroke:#000000;stroke-width:0.904;stroke-opacity:1"
           x="153.31842"
           y="86.55735">x</tspan></text><text
         xml:space="preserve"
         style="font-style:italic;font-variant:normal;font-weight:normal;font-stretch:normal;font-size:11.2889px;font-family:'Bell MT';-inkscape-font-specification:'Bell MT, Italic';font-variant-ligatures:normal;font-variant-caps:normal;font-variant-numeric:normal;font-variant-east-asian:normal;text-align:start;writing-mode:lr-tb;direction:ltr;text-anchor:start;fill:none;stroke:#000000;stroke-width:0.903999;stroke-miterlimit:3.7;stroke-dasharray:none;stroke-opacity:1"
         x="71.95903"
         y="5.1979685"
         id="text3"><tspan
           id="tspan3"
           style="stroke-width:0.904"
           x="71.95903"
           y="5.1979685">y</tspan></text><path
         style="display:none;fill:#000000;fill-opacity:1;stroke:#000000;stroke-width:1.15479;stroke-dasharray:6.92877, 1.15479;stroke-dashoffset:0;stroke-opacity:1"
         d="M 103.73296,83.996387 103.314,30.761382"
         id="path3" /><path
         style="display:none;fill:#000000;fill-opacity:1;stroke:#000000;stroke-width:1.06132;stroke-dasharray:6.36792, 1.06132;stroke-dashoffset:0;stroke-opacity:1"
         d="M 73.822801,31.093886 103.22587,30.827852"
         id="path3-5" /><text
         xml:space="preserve"
         style="font-style:italic;font-variant:normal;font-weight:normal;font-stretch:normal;font-size:14.1111px;font-family:'Bell MT';-inkscape-font-specification:'Bell MT, Italic';font-variant-ligatures:normal;font-variant-caps:normal;font-variant-numeric:normal;font-variant-east-asian:normal;text-align:start;writing-mode:lr-tb;direction:ltr;text-anchor:start;display:none;fill:#000000;fill-opacity:1;stroke:#000000;stroke-width:0.876;stroke-dasharray:none;stroke-dashoffset:0;stroke-opacity:1"
         x="83.745621"
         y="96.368729"
         id="text5"><tspan
           sodipodi:role="line"
           id="tspan4"
           style="font-style:italic;font-variant:normal;font-weight:normal;font-stretch:normal;font-size:14.1111px;font-family:'Bell MT';-inkscape-font-specification:'Bell MT, Italic';font-variant-ligatures:normal;font-variant-caps:normal;font-variant-numeric:normal;font-variant-east-asian:normal;fill:#000000;fill-opacity:1;stroke:#000000;stroke-width:0.876;stroke-dasharray:none;stroke-opacity:1"
           x="0"
           y="0">-b/2a</tspan></text><text
         xml:space="preserve"
         style="font-style:italic;font-variant:normal;font-weight:normal;font-stretch:normal;font-size:14.1111px;font-family:'Bell MT';-inkscape-font-specification:'Bell MT, Italic';font-variant-ligatures:normal;font-variant-caps:normal;font-variant-numeric:normal;font-variant-east-asian:normal;text-align:start;writing-mode:lr-tb;direction:ltr;text-anchor:start;display:none;fill:#000000;fill-opacity:1;stroke:#000000;stroke-width:0.676;stroke-dasharray:none;stroke-dashoffset:0;stroke-opacity:1"
         x="26.717997"
         y="35.778702"
         id="text6"><tspan
           sodipodi:role="line"
           id="tspan5"
           style="font-style:italic;font-variant:normal;font-weight:normal;font-stretch:normal;font-size:14.1111px;font-family:'Bell MT';-inkscape-font-specification:'Bell MT, Italic';font-variant-ligatures:normal;font-variant-caps:normal;font-variant-numeric:normal;font-variant-east-asian:normal;fill:#000000;fill-opacity:1;stroke-width:0.676;stroke-dasharray:none"
           x="0"
           y="0">f(-b/2a)</tspan></text><path
         fill="none"
         stroke="#006400"
         paint-order="fill stroke markers"
         d="m 43.722203,165.21797 0.322184,-1.44721 0.322186,-1.43941 0.322184,-1.43158 0.322185,-1.42378 0.322185,-1.41595 0.322187,-1.40815 0.322186,-1.40033 0.322185,-1.3925 0.322183,-1.38468 0.322187,-1.37688 0.322183,-1.36906 0.322185,-1.36123 0.322186,-1.35343 0.322187,-1.34561 0.322186,-1.33778 0.322184,-1.32998 0.322185,-1.32214 0.322186,-1.31435 0.322182,-1.30652 0.322186,-1.29871 0.322187,-1.29087 0.322186,-1.28309 0.322185,-1.27526 0.322184,-1.26743 0.322186,-1.25961 0.322185,-1.25181 0.322185,-1.24398 0.322184,-1.23619 0.322185,-1.22833 0.322187,-1.22055 0.322186,-1.21272 0.322184,-1.2049 0.322185,-1.19709 0.322185,-1.18926 0.322185,-1.18146 0.322184,-1.17365 0.322189,-1.16581 0.322185,-1.15801 0.322183,-1.15018 0.322187,-1.14237 0.322184,-1.13455 0.322183,-1.12675 0.322187,-1.1189 0.322184,-1.11112 0.322185,-1.10327 0.322188,-1.09547 0.322184,-1.08766 0.322187,-1.07983 0.322183,-1.07202 0.322184,-1.0642 0.322187,-1.05639 0.322183,-1.04857 0.322189,-1.040751 0.322186,-1.032934 0.322183,-1.025118 0.322186,-1.017302 0.322184,-1.009486 0.322185,-1.001667 0.322185,-0.993851 0.322185,-0.986035 0.322185,-0.978218 0.322188,-0.970401 0.322183,-0.962584 0.322187,-0.954768 0.322184,-0.946951 0.644369,-1.870452 0.64437,-1.839183 0.644373,-1.807917 0.644369,-1.77665 0.64437,-1.745384 0.644369,-1.714117 0.644375,-1.682847 0.644368,-1.651583 0.64437,-1.620316 0.644368,-1.589046 0.644375,-1.557781 0.644369,-1.526515 0.644371,-1.495249 0.644367,-1.463977 0.644374,-1.432713 0.64437,-1.401447 0.64437,-1.370177 0.644369,-1.338914 0.644372,-1.307644 0.64437,-1.276377 0.64437,-1.245111 0.644369,-1.213843 0.644373,-1.182576 0.64437,-1.151311 0.644369,-1.120043 0.644371,-1.088775 0.644372,-1.057507 0.64437,-1.026241 0.644368,-0.994977 0.644372,-0.963706 1.288742,-1.833614 1.288738,-1.708546 1.288743,-1.583477 1.288739,-1.458408 1.288743,-1.333342 1.288742,-1.208272 1.288737,-1.083207 1.288739,-0.958136 1.288749,-0.833069 1.288739,-0.708001 1.288738,-0.582932 1.288738,-0.457864 1.28874,-0.332797 1.28875,-0.207728 1.28873,-0.08265 1.28875,0.04241 1.28874,0.167477 1.28873,0.292544 1.28874,0.417612 1.28873,0.542682 1.28876,0.667748 1.28874,0.792817 1.28873,0.917887 1.28875,1.042953 1.28874,1.168021 1.28874,1.293088 1.28874,1.418159 1.28875,1.543224 1.28873,1.668295 1.28874,1.793361 0.64436,0.943582 0.64438,0.974848 0.64438,1.006115 0.64437,1.037384 0.64436,1.068648 0.64438,1.099916 0.64436,1.131186 0.64437,1.162451 0.64437,1.193718 0.64439,1.224983 0.64436,1.256252 0.64437,1.287519 0.64437,1.318785 0.64436,1.350055 0.64438,1.381317 0.64436,1.412588 0.64438,1.443856 0.64437,1.475119 0.64437,1.506389 0.64436,1.537656 0.64439,1.568921 0.64437,1.600188 0.64436,1.631458 0.64437,1.662721 0.64438,1.693991 0.64436,1.725257 0.64437,1.756525 0.64437,1.787791 0.64439,1.819059 0.64434,1.850324 0.3222,0.936887 0.32219,0.944707 0.32217,0.95252 0.3222,0.960338 0.32219,0.968157 0.32217,0.975969 0.32218,0.983791 0.3222,0.991604 0.32217,0.999421 0.32219,1.007238 0.3222,1.015056 0.32217,1.022872 0.3222,1.03069 0.32218,1.038498 0.32218,1.04633 0.32218,1.05414 0.3222,1.06195 0.32217,1.06977 0.32219,1.07759 0.3222,1.08541 0.32218,1.09322 0.32218,1.10104 0.32218,1.10885 0.32219,1.11668 0.32218,1.12448 0.32219,1.13232 0.32218,1.14013 0.3222,1.14794 0.32217,1.15575 0.32218,1.16358 0.3222,1.1714 0.32219,1.17919 0.32217,1.18703 0.32219,1.19482 0.3222,1.20268 0.32217,1.21047 0.32218,1.21829 0.32219,1.22609 0.32219,1.23395 0.32219,1.24173 0.32218,1.24957 0.32219,1.25737 0.32218,1.26518 0.32219,1.27301 0.32217,1.28082 0.3222,1.28865 0.32217,1.29647 0.32219,1.30427 0.3222,1.31209 0.32217,1.31991 0.3222,1.32772 0.32217,1.33555 0.32219,1.34336 0.32218,1.35118 0.3222,1.35897 0.32217,1.36682 0.32219,1.37464 0.3222,1.38244 0.32217,1.39026 0.32217,1.39807 0.3222,1.4059 0.32219,1.4137 0.32218,1.42153 0.32219,1.42935 0.32218,1.43716 0.32219,1.44497"
         stroke-opacity="0.698039"
         stroke-linecap="round"
         stroke-linejoin="round"
         stroke-miterlimit="10"
         stroke-width="2.5"
         id="path2-7"
         style="display:none;stroke:#1411a2;stroke-width:1.43359;stroke-dasharray:none;stroke-opacity:1" /><ellipse
         style="display:none;fill:#1d6b25;fill-opacity:1;stroke:#000000;stroke-width:0.89784;stroke-dasharray:none;stroke-dashoffset:0;stroke-opacity:1"
         id="path4"
         cx="102.98243"
         cy="30.483149"
         rx="3.1653049"
         ry="2.4631288" /></g><g
       id="g4"
       clip-path="url(#clipPath5)"
       transform="matrix(0.30146645,0,0,0.21676414,-34.338227,3.2219174)"
       style="stroke:#1411a2;stroke-width:4.54381;stroke-dasharray:none;stroke-opacity:1"><path
         fill="none"
         stroke="#006400"
         paint-order="fill stroke markers"
         d="m 236.80704,741 h 5.23551 L 243,734.6631 v 0 l 1,-6.54672 v 0 l 1,-6.4753 v 0 l 1,-6.40425 v 0 l 1,-6.33362 v 0 l 1,-6.26336 v 0 l 1,-6.1935 v 0 l 1,-6.12403 v 0 l 1,-6.05496 v 0 l 1,-5.98627 v 0 l 1,-5.91797 v 0 l 1,-5.85008 v 0 l 1,-5.78256 v 0 l 1,-5.71545 v 0 l 1,-5.64872 v 0 l 1,-5.58239 v 0 l 1,-5.51644 v 0 l 1,-5.45089 v 0 l 1,-5.38574 v 0 l 1,-5.32096 v 0 l 1,-5.25659 v 0 l 1,-5.19261 v 0 l 1,-5.12902 v 0 l 1,-5.06581 v 0 l 1,-5.00301 v 0 l 1,-4.94059 v 0 l 1,-4.87857 v 0 l 1,-4.81693 v 0 l 1,-4.75569 v 0 l 1,-4.69484 v 0 l 1,-4.63439 v 0 l 1,-4.57432 v 0 l 1,-4.51464 v 0 l 1,-4.45536 v 0 l 1,-4.39648 v 0 l 1,-4.33797 v 0 l 1,-4.27987 v 0 l 1,-4.22215 v 0 l 1,-4.16483 v 0 l 1,-4.1079 v 0 l 1,-4.05136 v 0 l 1,-3.99521 v 0 l 1,-3.93945 v 0 l 1,-3.8841 v 0 l 1,-3.82911 v 0 l 1,-3.77454 v 0 l 1,-3.72035 v 0 l 1,-3.66655 v 0 l 1,-3.61315 v 0 l 1,-3.56013 v 0 l 1,-3.50752 v 0 l 1,-3.45528 v 0 l 1,-3.40344 v 0 l 1,-3.352 v 0 l 1,-3.30095 v 0 l 1,-3.25028 v 0 l 1,-3.20001 v 0 l 1,-3.15013 v 0 l 1,-3.10064 v 0 l 1,-3.05155 v 0 l 1,-3.00285 v 0 l 1,-2.95453 v 0 l 1,-2.90661 v 0 l 1,-2.85909 v 0 l 1,-2.81195 v 0 l 1,-2.7652 v 0 l 1,-2.71885 v 0 l 1,-2.67289 v 0 l 1,-2.62732 v 0 l 1,-2.58215 v 0 l 1,-2.53736 v 0 l 1,-2.49296 v 0 l 1,-2.44896 v 0 l 1,-2.40536 v 0 l 1,-2.36213 v 0 l 1,-2.31931 v 0 l 1,-2.27687 v 0 l 1,-2.23483 v 0 l 1,-2.19317 v 0 l 1,-2.15192 v 0 l 1,-2.11105 v 0 l 1,-2.07058 v 0 l 1,-2.03049 v 0 l 1,-1.9908 v 0 l 1,-1.95149 v 0 l 1,-1.91259 v 0 l 1,-1.87408 v 0 l 1,-1.83594 v 0 l 1,-1.79822 v 0 l 1,-1.76087 v 0 l 1,-1.72392 v 0 l 1,-1.68737 v 0 l 1,-1.6512 v 0 l 1,-1.61542 v 0 l 1,-1.58004 v 0 l 1,-1.54505 v 0 l 1,-1.51046 v 0 l 1,-1.47624 v 0 l 1,-1.44243 v 0 l 1,-1.40901 v 0 l 1,-1.37597 v 0 l 1,-1.34334 v 0 l 1,-1.31108 v 0 l 1,-1.27923 v 0 l 1,-1.24777 v 0 l 1,-1.21669 v 0 l 1,-1.18601 v 0 l 1,-1.15573 v 0 l 1,-1.12582 v 0 l 1,-1.09632 v 0 l 1,-1.06721 v 0 l 1,-1.03848 v 0 l 1,-1.01015 v 0 l 1,-0.98222 v 0 l 1,-0.95467 v 0 l 1,-0.92751 v 0 l 1,-0.90075 v 0 l 1,-0.87438 v 0 l 1,-0.84841 v 0 l 1,-0.82281 v 0 l 1,-0.79762 v 0 l 1,-0.77281 v 0 l 1,-0.7484 v 0 l 1,-0.72438 v 0 l 1,-0.70075 v 0 l 1,-0.67752 v 0 l 1,-0.65467 v 0 l 1,-0.63221 v 0 l 1,-0.61016 v 0 l 1,-0.58849 v 0 l 1,-0.5672 v 0 l 1,-0.54633 v 0 l 1,-0.52582 v 0 l 1,-0.50573 v 0 l 1,-0.48601 v 0 l 1,-0.4667 v 0 l 1,-0.44777 v 0 l 1,-0.42923 v 0 l 1,-0.41109 v 0 l 1,-0.39334 v 0 l 1,-0.37598 v 0 l 1,-0.35901 v 0 l 1,-0.34243 v 0 l 1,-0.32625 v 0 l 1,-0.31046 v 0 l 1,-0.29506 v 0 l 1,-0.28005 v 0 l 1,-0.26543 v 0 l 1,-0.2512 v 0 l 1,-0.23737 v 0 l 1,-0.22393 v 0 l 1,-0.21088 v 0 l 1,-0.19822 v 0 l 1,-0.18595 v 0 l 1,-0.17408 v 0 l 1,-0.1626 v 0 l 1,-0.1515 v 0 l 1,-0.14081 v 0 l 1,-0.1305 v 0 l 1,-0.12058 v 0 l 1,-0.11106 v 0 l 1,-0.10193 v 0 l 1,-0.0932 v 0 l 1,-0.0848 v 0 l 1,-0.0769 v 0 l 1,-0.0693 v 0 l 1,-0.0621 v 0 l 1,-0.0554 v 0 l 1,-0.049 v 0 l 1,-0.043 v 0 l 1,-0.0374 v 0 l 1,-0.0322 v 0 l 1,-0.0273 v 0 l 1,-0.0229 v 0 l 1,-0.0189 v 0 l 1,-0.0152 v 0 l 1,-0.012 v 0 l 1,-0.009 v 0 l 1,-0.007 v 0 l 1,-0.005 v 0 l 1,-0.003 v 0 l 1,-0.002 v 0 l 1,-6.5e-4 v 0 l 1,-1.5e-4 v 0 l 1,-2e-5 v 0 l 1,-3e-4 v 0 l 1,-9.5e-4 v 0 l 1,-0.002 v 0 l 1,-0.003 v 0 l 1,-0.005 v 0 l 1,-0.008 v 0 l 1,-0.0101 v 0 l 1,-0.0132 v 0 l 1,-0.0166 v 0 l 1,-0.0204 v 0 l 1,-0.0245 v 0 l 1,-0.0291 v 0 l 1,-0.0341 v 0 l 1,-0.0395 v 0 l 1,-0.0452 v 0 l 1,-0.0514 v 0 l 1,-0.0579 v 0 l 1,-0.0649 v 0 l 1,-0.0722 v 0 l 1,-0.0799 v 0 l 1,-0.088 v 0 l 1,-0.0965 v 0 l 1,-0.10538 v 0 l 1,-0.11467 v 0 l 1,-0.12433 v 0 l 1,-0.13441 v 0 l 1,-0.14486 v 0 l 1,-0.15571 v 0 l 1,-0.16695 v 0 l 1,-0.17859 v 0 l 1,-0.19061 v 0 l 1,-0.20302 v 0 l 1,-0.21584 v 0 l 1,-0.22903 v 0 l 1,-0.24263 v 0 l 1,-0.25661 v 0 l 1,-0.27099 v 0 l 1,-0.28575 v 0 l 1,-0.30092 v 0 l 1,-0.31646 v 0 l 1,-0.33241 v 0 l 1,-0.34874 v 0 l 1,-0.36547 v 0 l 1,-0.38259 v 0 l 1,-0.40009 v 0 l 1,-0.418 v 0 l 1,-0.43629 v 0 l 1,-0.45498 v 0 l 1,-0.47406 v 0 l 1,-0.49352 v 0 l 1,-0.51339 v 0 l 1,-0.53363 v 0 l 1,-0.55429 v 0 l 1,-0.57531 v 0 l 1,-0.59675 v 0 l 1,-0.61857 v 0 l 1,-0.64077 v 0 l 1,-0.66339 v 0 l 1,-0.68637 v 0 l 1,-0.70976 v 0 l 1,-0.73355 v 0 l 1,-0.75771 v 0 l 1,-0.78227 v 0 l 1,-0.80723 v 0 l 1,-0.83258 v 0 l 1,-0.85831 v 0 l 1,-0.88445 v 0 l 1,-0.91096 v 0 l 1,-0.93788 v 0 l 1,-0.96518 v 0 l 1,-0.99288 v 0 l 1,-1.02097 v 0 l 1,-1.04944 v 0 l 1,-1.07832 v 0 l 1,-1.10759 v 0 l 1,-1.13724 v 0 l 1,-1.16728 v 0 l 1,-1.19773 v 0 l 1,-1.22856 v 0 l 1,-1.25978 v 0 l 1,-1.29139 v 0 l 1,-1.32341 v 0 l 1,-1.3558 v 0 l 1,-1.38859 v 0 l 1,-1.42177 v 0 l 1,-1.45535 v 0 l 1,-1.48931 v 0 l 1,-1.52367 v 0 l 1,-1.55841 v 0 l 1,-1.59356 v 0 l 1,-1.62909 v 0 l 1,-1.66502 v 0 l 1,-1.70133 v 0 l 1,-1.73804 v 0 l 1,-1.77514 v 0 l 1,-1.81264 v 0 l 1,-1.85051 v 0 l 1,-1.88879 v 0 l 1,-1.92746 v 0 l 1,-1.96652 v 0 l 1,-2.00596 v 0 l 1,-2.04581 v 0 l 1,-2.08605 v 0 l 1,-2.12667 v 0 l 1,-2.16769 v 0 l 1,-2.20909 v 0 l 1,-2.2509 v 0 l 1,-2.2931 v 0 l 1,-2.33567 v 0 l 1,-2.37866 v 0 l 1,-2.42202 v 0 l 1,-2.46578 v 0 l 1,-2.50994 v 0 l 1,-2.55448 v 0 l 1,-2.59941 v 0 l 1,-2.64475 v 0 l 1,-2.69046 v 0 l 1,-2.73657 v 0 l 1,-2.78308 v 0 l 1,-2.82997 v 0 l 1,-2.87726 v 0 l 1,-2.92494 v 0 l 1,-2.973 v 0 l 1,-3.02147 v 0 l 1,-3.07032 v 0 l 1,-3.11957 v 0 l 1,-3.16921 v 0 l 1,-3.21923 v 0 l 1,-3.26966 v 0 l 1,-3.32047 v 0 l 1,-3.37167 v 0 l 1,-3.42327 v 0 l 1,-3.47526 v 0 l 1,-3.52763 v 0 l 1,-3.58041 v 0 l 1,-3.63357 v 0 l 1,-3.68713 v 0 l 1,-3.74108 v 0 l 1,-3.79541 v 0 l 1,-3.85015 v 0 l 1,-3.90526 v 0 l 1,-3.96079 v 0 l 1,-4.01668 v 0 l 1,-4.07299 v 0 l 1,-4.12968 v 0 l 1,-4.18675 v 0 l 1,-4.24423 v 0 l 1,-4.3021 v 0 l 1,-4.36035 v 0 l 1,-4.419 v 0 l 1,-4.47804 v 0 l 1,-4.537478 v 0 l 1,-4.597299 v 0 l 1,-4.657514 v 0 l 1,-4.718121 v 0 l 1,-4.779121 v 0 l 1,-4.840513 v 0 l 1,-4.902295 v 0 l 1,-4.964471 v 0 l 1,-5.027037 v 0 l 1,-5.089995 v 0 l 1,-5.153346 v 0 l 1,-5.217088 v 0 l 1,-5.281222 v 0 l 1,-5.345747 v 0 l 1,-5.410665 v 0 l 1,-5.475974 v 0 l 1,-5.541676 v 0 l 1,-5.607768 v 0 l 1,-5.6742523 v 0 l 1,-5.7411291 v 0 l 1,-5.8083974 v 0 l 1,-5.8760574 v 0 L 600.0465,-10"
         stroke-opacity="0.698039"
         stroke-linecap="round"
         stroke-linejoin="round"
         stroke-miterlimit="10"
         stroke-width="2.5"
         id="path2-6"
         style="stroke:#1411a2;stroke-width:4.54381;stroke-dasharray:none;stroke-opacity:1" /></g></g></svg>
