<?xml version="1.0" encoding="UTF-8" standalone="no"?>
<!-- Created with Inkscape (http://www.inkscape.org/) -->

<svg
   version="1.1"
   id="svg1"
   width="368.02155"
   height="20.555941"
   viewBox="0 0 368.02155 20.555941"
   sodipodi:docname="1.pdf"
   inkscape:export-filename="Akemicos\Akdemicos-Front\public\polinomica.png"
   inkscape:export-xdpi="96"
   inkscape:export-ydpi="96"
   inkscape:export-batch-path="Akemicos\Akdemicos-Front\public"
   inkscape:export-batch-name="1"
   xmlns:inkscape="http://www.inkscape.org/namespaces/inkscape"
   xmlns:sodipodi="http://sodipodi.sourceforge.net/DTD/sodipodi-0.dtd"
   xmlns="http://www.w3.org/2000/svg"
   xmlns:svg="http://www.w3.org/2000/svg">
  <defs
     id="defs1">
    <clipPath
       clipPathUnits="userSpaceOnUse"
       id="clipPath1669">
      <rect
         style="fill:#000000"
         id="rect1670"
         width="235"
         height="25.833334"
         x="74.166664"
         y="475.83334" />
    </clipPath>
  </defs>
  <sodipodi:namedview
     id="namedview1"
     pagecolor="#ffffff"
     bordercolor="#000000"
     borderopacity="0.25"
     inkscape:showpageshadow="2"
     inkscape:pageopacity="0.0"
     inkscape:pagecheckerboard="0"
     inkscape:deskcolor="#d1d1d1">
    <inkscape:page
       x="0"
       y="0"
       width="368.02155"
       height="20.555941"
       id="page1"
       margin="0"
       bleed="0" />
  </sodipodi:namedview>
  <g
     id="g1"
     inkscape:groupmode="layer"
     inkscape:label="1"
     clip-path="url(#clipPath1669)"
     transform="matrix(1.6951609,0,0,1.595281,-143.29448,-767.16626)"
     style="fill:#000000;fill-opacity:1;stroke:#000000;stroke-width:0.545467;stroke-dasharray:none;stroke-opacity:1">
    <g
       id="g1670">
      <path
         id="path635"
         d="m 0,0 c 0,-0.16 0.16,-0.48 0.16,-0.64 v 0 0 c -0.32,0 -0.48,0 -0.97,0 h -0.16 l 0.16,-1.12 c 0.16,-0.96 0.49,-1.28 0.97,-1.28 0.32,0 0.64,0.16 0.8,0.32 h 0.16 c 0,-0.16 0.16,-0.48 0.16,-0.64 L 1.44,-3.52 C 1.12,-3.68 0.8,-3.68 0.64,-3.68 c -0.16,0 -0.32,0 -0.32,0 -0.32,0.16 -1.13,0.8 -1.45,1.12 -0.16,0.16 -0.32,0.48 -0.48,1.12 l -0.16,0.8 c -0.48,0.16 -0.64,0.32 -0.96,0.48 V 0 h 0.8 v 0.64 c -0.32,2.08 -0.8,4.01 -0.96,4.81 -0.16,0.48 -0.48,0.8 -0.96,0.8 -0.16,0 -0.32,0 -0.48,-0.16 h -0.16 c 0,0.16 -0.16,0.8 -0.32,0.8 0.16,0 0.32,0.16 0.48,0.16 0.32,0 0.96,-0.32 1.44,-0.96 0.64,-0.64 0.8,-1.44 1.6,-5.13 0,-0.16 0.16,-0.48 0.16,-0.96 z"
         style="fill:#000000;fill-opacity:1;fill-rule:nonzero;stroke:#000000;stroke-width:0.545467;stroke-dasharray:none;stroke-opacity:1"
         transform="translate(89.470001,486.45999)" />
      <path
         id="path636"
         d="m 0,0 c 0,0 0,0 -0.17,-0.32 -1.44,-1.28 -1.76,-3.37 -1.76,-5.13 0,-1.92 0.48,-3.84 1.76,-5.28 0.17,0 0.17,-0.16 0.17,-0.16 0,0 0,0 -0.17,0 0,0 -1.12,0.64 -1.76,2.08 -0.48,1.28 -0.64,2.4 -0.64,3.36 0,0.8 0.16,2.24 0.8,3.53 0.64,1.28 1.6,2.08 1.6,2.08 C 0,0.16 0,0 0,0 Z"
         style="fill:#000000;fill-opacity:1;fill-rule:nonzero;stroke:#000000;stroke-width:0.545467;stroke-dasharray:none;stroke-opacity:1"
         transform="translate(94.760002,493.19)" />
      <path
         id="path637"
         d="M 0,0 C 0,0.16 0,0.32 0,0.65 -0.16,0.81 -0.16,0.81 -0.16,0.81 0,0.97 0.16,0.97 0.32,0.97 c 0.32,0 0.8,-0.32 1.12,-0.81 l 0.8,-1.28 0.16,0.8 C 2.56,0.65 2.72,0.97 3.2,0.97 3.36,0.97 3.68,0.81 4,0.48 L 4.65,0 4.49,-0.16 C 4.16,0.16 3.84,0.32 3.68,0.32 3.52,0.32 3.36,0.16 3.2,0 3.2,-0.16 3.04,-0.64 3.04,-0.96 L 2.72,-1.92 3.2,-2.56 C 3.68,-3.2 4,-3.52 4.33,-3.52 c 0.16,0 0.32,0.16 0.32,0.32 h 0.16 l 0.16,-0.96 c -0.16,0 -0.32,-0.16 -0.32,-0.16 -0.49,0 -0.81,0.48 -1.61,1.44 L 2.72,-2.24 V -2.88 C 2.56,-3.84 2.24,-4.32 1.6,-4.32 1.28,-4.32 1.12,-4.16 0.96,-4 l -0.64,0.8 0.32,0.16 c 0.32,-0.32 0.48,-0.48 0.64,-0.48 0.32,0 0.64,0.48 0.8,1.44 L 2.24,-1.44 1.76,-0.8 C 1.28,0 0.96,0.32 0.64,0.32 0.48,0.32 0.32,0.32 0.32,0.16 L 0.16,-0.16 Z"
         style="fill:#000000;fill-opacity:1;fill-rule:nonzero;stroke:#000000;stroke-width:0.545467;stroke-dasharray:none;stroke-opacity:1"
         transform="translate(96.040001,489.66)" />
      <path
         id="path638"
         d="m 0,0 c 0,-0.8 -0.16,-2.24 -0.64,-3.36 -0.8,-1.44 -1.6,-2.08 -1.76,-2.08 -0.16,0 -0.16,0 -0.16,0 0,0 0,0.16 0.16,0.32 1.12,1.12 1.76,2.88 1.76,5.12 0,1.92 -0.32,3.85 -1.76,5.29 -0.16,0.16 -0.16,0.16 -0.16,0.16 0,0 0,0.16 0.16,0.16 0.16,0 1.12,-0.8 1.76,-2.24 C -0.16,2.24 0,0.96 0,0 Z"
         style="fill:#000000;fill-opacity:1;fill-rule:nonzero;stroke:#000000;stroke-width:0.545467;stroke-dasharray:none;stroke-opacity:1"
         transform="translate(104.69,487.73999)" />
      <path
         id="path639"
         d="M 0,0 C 0.16,0 0.48,0 0.48,-0.32 0.48,-0.48 0.16,-0.48 0,-0.48 h -6.57 c -0.16,0 -0.32,0 -0.32,0.16 C -6.89,0 -6.73,0 -6.57,0 Z m 0,2.08 c 0.16,0 0.48,0 0.48,-0.16 C 0.48,1.6 0.16,1.6 0,1.6 h -6.57 c -0.16,0 -0.32,0 -0.32,0.32 0,0.16 0.16,0.16 0.32,0.16 z"
         style="fill:#000000;fill-opacity:1;fill-rule:nonzero;stroke:#000000;stroke-width:0.545467;stroke-dasharray:none;stroke-opacity:1"
         transform="translate(116.55,486.94)" />
      <path
         id="path640"
         d="M 0,0 V -0.16 L -0.32,0.16 C -0.8,0 -0.96,-0.16 -1.28,-0.16 -1.6,-0.16 -1.76,0 -2.09,0.16 -2.73,0.48 -3.05,0.8 -3.37,1.28 c -0.48,0.96 -0.8,2.24 -0.8,3.04 0,0.49 0.16,0.81 0.32,0.81 0.32,0 0.64,-0.16 1.12,-0.65 0.48,-0.32 0.8,-0.8 1.45,-1.6 L -1.6,4.16 c 0,0.16 -0.16,0.48 -0.16,0.65 0,0.16 0.16,0.32 0.32,0.32 0.32,0 0.64,-0.32 1.6,-0.97 L 0,3.84 C 0,4 0,4 -0.16,4 -0.48,4.32 -0.64,4.32 -0.8,4.32 c 0,0 -0.16,0 -0.16,-0.16 0,0 0,-0.16 0,-0.16 z m -0.8,0.64 c -0.32,1.12 -0.48,1.76 -0.8,2.24 -0.65,0.96 -1.29,1.44 -1.61,1.44 -0.16,0 -0.16,0 -0.16,-0.32 0,-0.64 0.32,-1.92 0.64,-2.72 0.32,-0.64 0.48,-0.8 0.97,-0.8 0.32,0 0.48,0 0.96,0.16 z"
         style="fill:#000000;fill-opacity:1;fill-rule:nonzero;stroke:#000000;stroke-width:0.545467;stroke-dasharray:none;stroke-opacity:1"
         transform="translate(125.21,485.5)" />
      <path
         id="path641"
         d="M 0,0 V 0.16 L 0.32,0 c 0.32,-0.16 0.32,-0.16 0.32,-0.16 0.16,0 0.16,0 0.16,0.16 0,0.48 -0.32,1.93 -0.64,3.05 V 3.21 C 0.48,3.05 0.64,3.05 0.8,3.05 0.96,2.09 1.12,1.45 1.44,0.96 1.92,0.32 2.4,-0.16 2.88,-0.16 c 0,0 0.17,0 0.17,0.16 0,0.16 -0.17,0.32 -0.17,0.48 L 2.4,2.25 c 0,0.32 0,0.48 0,0.64 0,0.16 0,0.32 0.16,0.32 0.32,0 0.49,-0.16 1.29,-0.8 V 2.25 L 3.53,2.41 C 3.37,2.57 3.21,2.73 3.05,2.73 c 0,0 0,-0.16 0,-0.16 0,-0.16 0,-0.16 0,-0.16 L 3.53,0.16 c 0,-0.32 0.16,-0.48 0.16,-0.64 C 3.69,-0.64 3.53,-0.8 3.37,-0.8 3.05,-0.8 2.56,-0.48 2.08,0 1.76,0.32 1.44,0.48 1.12,1.12 l 0.32,-1.28 c 0,-0.16 0,-0.16 0,-0.32 0,-0.16 0,-0.32 -0.16,-0.32 -0.16,0 -0.48,0.16 -1.12,0.64 z"
         style="fill:#000000;fill-opacity:1;fill-rule:nonzero;stroke:#000000;stroke-width:0.545467;stroke-dasharray:none;stroke-opacity:1"
         transform="translate(126.17,489.01999)" />
      <path
         id="path642"
         d="m 0,0 c 0,0.16 0,0.32 -0.16,0.65 0,0.16 0,0.16 0,0.16 0.16,0.16 0.32,0.16 0.48,0.16 0.32,0 0.8,-0.32 1.12,-0.81 l 0.8,-1.28 0.16,0.8 c 0.16,0.97 0.32,1.29 0.64,1.29 0.33,0 0.65,-0.16 0.97,-0.49 L 4.49,0 V -0.16 C 4.01,0.16 3.85,0.32 3.69,0.32 3.53,0.32 3.37,0.16 3.2,0 3.2,-0.16 3.04,-0.64 3.04,-0.96 L 2.72,-1.92 3.2,-2.56 c 0.49,-0.64 0.81,-0.96 1.13,-0.96 0.16,0 0.16,0.16 0.32,0.32 h 0.16 l 0.16,-0.96 c -0.16,0 -0.32,-0.16 -0.32,-0.16 -0.48,0 -0.96,0.48 -1.61,1.44 L 2.72,-2.24 2.56,-2.88 c 0,-0.96 -0.32,-1.44 -0.96,-1.44 -0.32,0 -0.48,0.16 -0.64,0.32 l -0.64,0.8 0.16,0.16 c 0.32,-0.32 0.64,-0.48 0.8,-0.48 0.32,0 0.64,0.48 0.8,1.44 L 2.24,-1.44 1.76,-0.8 C 1.28,0 0.96,0.32 0.64,0.32 0.48,0.32 0.32,0.32 0.32,0.16 L 0.16,-0.16 Z"
         style="fill:#000000;fill-opacity:1;fill-rule:nonzero;stroke:#000000;stroke-width:0.545467;stroke-dasharray:none;stroke-opacity:1"
         transform="translate(131.46001,489.66)" />
      <path
         id="path643"
         d="M 0,0 V 0.16 L 0.32,0 c 0.32,-0.16 0.32,-0.16 0.32,-0.16 0.16,0 0.16,0 0.16,0.16 0,0.48 -0.32,1.92 -0.64,3.04 L 0.32,3.2 C 0.48,3.04 0.64,3.04 0.8,3.04 0.96,2.08 1.12,1.44 1.44,0.96 1.92,0.32 2.56,-0.16 2.88,-0.16 c 0,0 0.16,0 0.16,0.16 0,0.16 0,0.32 -0.16,0.48 L 2.56,2.24 C 2.4,2.56 2.4,2.72 2.4,2.88 2.4,3.04 2.56,3.2 2.56,3.2 2.88,3.2 3.2,3.04 3.85,2.4 V 2.24 L 3.69,2.4 C 3.36,2.56 3.2,2.72 3.2,2.72 3.04,2.72 3.04,2.56 3.04,2.56 c 0,-0.16 0,-0.16 0,-0.16 L 3.53,0.16 C 3.69,-0.16 3.69,-0.32 3.69,-0.48 3.69,-0.64 3.53,-0.8 3.36,-0.8 3.04,-0.8 2.56,-0.48 2.08,0 1.76,0.32 1.6,0.48 1.12,1.12 l 0.32,-1.28 c 0,-0.16 0,-0.16 0,-0.32 0,-0.16 0,-0.32 -0.16,-0.32 -0.16,0 -0.48,0.16 -1.12,0.64 z"
         style="fill:#000000;fill-opacity:1;fill-rule:nonzero;stroke:#000000;stroke-width:0.545467;stroke-dasharray:none;stroke-opacity:1"
         transform="translate(137.07001,483.57999)" />
      <path
         id="path644"
         d="M 0,0 H 3.04 C 3.2,0 3.36,0 3.36,-0.16 3.36,-0.32 3.2,-0.32 3.04,-0.32 H 0 v -3.2 c 0,-0.16 0,-0.32 -0.32,-0.32 -0.16,0 -0.16,0.16 -0.16,0.32 v 3.2 h -3.05 c -0.16,0 -0.48,0 -0.48,0.16 C -4.01,0 -3.69,0 -3.53,0 h 3.05 v 3.21 c 0,0.16 0,0.32 0.16,0.32 C 0,3.53 0,3.37 0,3.21 Z"
         style="fill:#000000;fill-opacity:1;fill-rule:nonzero;stroke:#000000;stroke-width:0.545467;stroke-dasharray:none;stroke-opacity:1"
         transform="translate(148.61,487.89999)" />
      <path
         id="path645"
         d="M 0,0 V -0.16 L -0.32,0.16 C -0.8,0 -0.96,-0.16 -1.28,-0.16 c -0.33,0 -0.49,0.16 -0.81,0.32 -0.64,0.32 -0.96,0.64 -1.28,1.12 -0.48,0.96 -0.8,2.24 -0.8,3.04 0,0.49 0.16,0.81 0.32,0.81 0.32,0 0.64,-0.16 1.12,-0.65 0.48,-0.32 0.8,-0.8 1.45,-1.6 l -0.33,1.28 c 0,0.16 -0.16,0.48 -0.16,0.65 0,0.16 0.16,0.32 0.33,0.32 0.32,0 0.64,-0.32 1.6,-0.97 L 0,3.84 C 0,4 0,4 -0.16,4 -0.48,4.32 -0.64,4.32 -0.8,4.32 c 0,0 -0.16,0 -0.16,-0.16 0,0 0,-0.16 0,-0.16 z m -0.8,0.64 c -0.16,1.12 -0.48,1.76 -0.81,2.24 -0.64,0.96 -1.28,1.44 -1.6,1.44 -0.16,0 -0.16,0 -0.16,-0.32 0,-0.64 0.32,-1.92 0.64,-2.72 0.32,-0.64 0.48,-0.8 0.96,-0.8 0.33,0 0.49,0 0.97,0.16 z"
         style="fill:#000000;fill-opacity:1;fill-rule:nonzero;stroke:#000000;stroke-width:0.545467;stroke-dasharray:none;stroke-opacity:1"
         transform="translate(159.35001,485.5)" />
      <path
         id="path646"
         d="M 0,0 V 0.16 L 0.32,0 c 0.32,-0.16 0.32,-0.16 0.32,-0.16 0.16,0 0.16,0 0.16,0.16 0,0.32 -0.32,1.93 -0.64,3.05 V 3.21 C 0.48,3.05 0.64,3.05 0.8,3.05 0.96,2.09 1.12,1.45 1.44,0.97 1.92,0.32 2.56,-0.16 2.88,-0.16 c 0,0 0.16,0 0.16,0.16 0,0.16 -0.16,0.32 -0.16,0.48 L 2.4,2.25 c 0,0.32 0,0.48 0,0.64 0,0.16 0,0.32 0.16,0.32 0.32,0 0.48,-0.16 1.29,-0.8 V 2.25 L 3.53,2.41 C 3.37,2.57 3.2,2.57 3.04,2.57 c 0,0 0,0 0,-0.16 0,0 0,0 0,0 L 3.53,0.16 C 3.69,-0.16 3.69,-0.32 3.69,-0.48 3.69,-0.64 3.53,-0.8 3.37,-0.8 3.04,-0.8 2.56,-0.48 2.08,0 1.76,0.32 1.44,0.48 1.12,1.13 l 0.32,-1.29 c 0,-0.16 0,-0.32 0,-0.32 0,-0.16 0,-0.32 -0.16,-0.32 -0.16,0 -0.48,0.16 -1.12,0.64 z"
         style="fill:#000000;fill-opacity:1;fill-rule:nonzero;stroke:#000000;stroke-width:0.545467;stroke-dasharray:none;stroke-opacity:1"
         transform="translate(160.31,489.34)" />
      <path
         id="path647"
         d="M 0,0 C 0.16,0 0.32,0 0.32,-0.16 0.32,-0.33 0.16,-0.33 0,-0.33 h -4.49 c -0.16,0 -0.32,0 -0.32,0.17 C -4.81,0 -4.65,0 -4.49,0 Z"
         style="fill:#000000;fill-opacity:1;fill-rule:nonzero;stroke:#000000;stroke-width:0.545467;stroke-dasharray:none;stroke-opacity:1"
         transform="translate(170.25,490.47)" />
      <path
         id="path648"
         d="m 0,0 v 0 l 1.12,-0.48 c 0,0 0,0 0,0 0,0 0,0 0,0.16 v 4.01 c 0,0.32 0,0.48 -0.48,0.48 H 0.16 v 0.16 c 1.28,0 1.28,0 1.28,0 0.16,0 0.32,0 0.64,0 0,0 0.32,0 0.64,0 V 4.17 H 2.4 C 1.92,4.17 1.76,4.01 1.76,3.69 v -4.81 0 c -0.48,0.16 -1.12,0.48 -1.92,0.8 z"
         style="fill:#000000;fill-opacity:1;fill-rule:nonzero;stroke:#000000;stroke-width:0.545467;stroke-dasharray:none;stroke-opacity:1"
         transform="translate(171.85001,488.06)" />
      <path
         id="path649"
         d="m 0,0 c 0,0.16 0,0.32 0,0.65 0,0.16 0,0.16 0,0.16 0.16,0.16 0.32,0.16 0.32,0.16 0.48,0 0.8,-0.32 1.12,-0.81 l 0.8,-1.28 0.16,0.8 c 0.16,0.97 0.32,1.29 0.8,1.29 0.16,0 0.48,-0.16 0.96,-0.49 L 4.65,0 4.48,-0.16 C 4.16,0.16 3.84,0.32 3.68,0.32 3.52,0.32 3.36,0.16 3.36,0 3.2,-0.16 3.04,-0.64 3.04,-0.96 L 2.88,-1.92 3.2,-2.56 C 3.68,-3.2 4,-3.52 4.32,-3.52 c 0.16,0 0.33,0.16 0.33,0.32 h 0.16 l 0.16,-0.96 c -0.16,0 -0.16,-0.16 -0.32,-0.16 -0.49,0 -0.81,0.48 -1.45,1.44 L 2.72,-2.24 V -2.88 C 2.56,-3.84 2.24,-4.32 1.6,-4.32 1.44,-4.32 1.12,-4.16 1.12,-4 l -0.64,0.8 0.16,0.16 c 0.32,-0.32 0.48,-0.48 0.64,-0.48 0.48,0 0.64,0.48 0.8,1.44 L 2.24,-1.44 1.76,-0.8 C 1.28,0 0.96,0.32 0.64,0.32 c -0.16,0 -0.16,0 -0.32,-0.16 v -0.32 z"
         style="fill:#000000;fill-opacity:1;fill-rule:nonzero;stroke:#000000;stroke-width:0.545467;stroke-dasharray:none;stroke-opacity:1"
         transform="translate(176.17999,489.66)" />
      <path
         id="path650"
         d="M 0,0 0.16,0.16 0.32,0 c 0.32,-0.16 0.32,-0.16 0.48,-0.16 0,0 0.16,0 0.16,0.16 0,0.48 -0.32,1.92 -0.64,3.04 V 3.2 C 0.48,3.04 0.64,3.04 0.8,3.04 0.96,2.08 1.12,1.44 1.6,0.96 1.92,0.32 2.56,-0.16 2.88,-0.16 c 0.16,0 0.16,0 0.16,0.16 0,0.16 0,0.32 0,0.48 L 2.56,2.24 C 2.56,2.56 2.4,2.72 2.4,2.88 2.4,3.04 2.56,3.2 2.72,3.2 2.88,3.2 3.2,3.04 4,2.4 L 3.84,2.24 3.68,2.4 C 3.52,2.56 3.36,2.72 3.2,2.72 c 0,0 -0.16,-0.16 -0.16,-0.16 0,-0.16 0,-0.16 0,-0.16 L 3.68,0.16 c 0,-0.32 0,-0.48 0,-0.64 0,-0.16 0,-0.32 -0.16,-0.32 C 3.2,-0.8 2.56,-0.48 2.08,0 1.76,0.32 1.6,0.48 1.12,1.12 L 1.44,-0.16 C 1.6,-0.32 1.6,-0.32 1.6,-0.48 1.6,-0.64 1.44,-0.8 1.28,-0.8 c -0.16,0 -0.32,0.16 -0.96,0.64 z"
         style="fill:#000000;fill-opacity:1;fill-rule:nonzero;stroke:#000000;stroke-width:0.545467;stroke-dasharray:none;stroke-opacity:1"
         transform="translate(181.78999,483.57999)" />
      <path
         id="path651"
         d="M 0,0 C 0.16,0 0.32,0 0.32,-0.16 0.32,-0.33 0.16,-0.33 0,-0.33 h -4.49 c -0.16,0 -0.32,0 -0.32,0.17 C -4.81,0 -4.65,0 -4.49,0 Z"
         style="fill:#000000;fill-opacity:1;fill-rule:nonzero;stroke:#000000;stroke-width:0.545467;stroke-dasharray:none;stroke-opacity:1"
         transform="translate(191.72,484.70001)" />
      <path
         id="path652"
         d="m 0,0 h 0.16 l 0.96,-0.48 c 0,0 0,0 0,0 0.16,0 0.16,0 0.16,0.16 v 4 C 1.28,4 1.12,4.16 0.8,4.16 H 0.32 v 0.16 c 1.12,0 1.12,0 1.28,0 0.16,0 0.32,0 0.48,0 0.16,0 0.48,0 0.8,0 V 4.16 H 2.4 C 2.08,4.16 1.92,4 1.92,3.68 V -1.13 H 1.76 C 1.28,-0.8 0.8,-0.64 0,-0.32 Z"
         style="fill:#000000;fill-opacity:1;fill-rule:nonzero;stroke:#000000;stroke-width:0.545467;stroke-dasharray:none;stroke-opacity:1"
         transform="translate(193.33,482.29999)" />
      <path
         id="path653"
         d="M 0,0 H 3.04 C 3.2,0 3.36,0 3.36,-0.16 3.36,-0.32 3.2,-0.32 3.04,-0.32 H 0 v -3.2 c 0,-0.16 0,-0.32 -0.32,-0.32 -0.16,0 -0.16,0.16 -0.16,0.32 v 3.2 h -3.05 c -0.16,0 -0.48,0 -0.48,0.16 C -4.01,0 -3.69,0 -3.53,0 h 3.05 v 3.21 c 0,0.16 0,0.32 0.16,0.32 C 0,3.53 0,3.37 0,3.21 Z"
         style="fill:#000000;fill-opacity:1;fill-rule:nonzero;stroke:#000000;stroke-width:0.545467;stroke-dasharray:none;stroke-opacity:1"
         transform="translate(204.07001,487.89999)" />
      <path
         id="path654"
         d="m 0,0 c -0.32,0 -0.64,0.32 -0.64,0.64 0,0.32 0.32,0.64 0.64,0.64 0.32,0 0.64,-0.32 0.64,-0.64 C 0.64,0.32 0.32,0 0,0 Z"
         style="fill:#000000;fill-opacity:1;fill-rule:nonzero;stroke:#000000;stroke-width:0.545467;stroke-dasharray:none;stroke-opacity:1"
         transform="translate(211.60001,489.34)" />
      <path
         id="path655"
         d="m 0,0 c -0.32,0 -0.64,0.32 -0.64,0.64 0,0.33 0.32,0.65 0.64,0.65 0.32,0 0.48,-0.32 0.48,-0.65 C 0.48,0.32 0.32,0 0,0 Z"
         style="fill:#000000;fill-opacity:1;fill-rule:nonzero;stroke:#000000;stroke-width:0.545467;stroke-dasharray:none;stroke-opacity:1"
         transform="translate(214.32001,489.34)" />
      <path
         id="path656"
         d="m 0,0 c -0.32,0 -0.64,0.32 -0.64,0.64 0,0.32 0.32,0.64 0.64,0.64 0.32,0 0.64,-0.32 0.64,-0.64 C 0.64,0.32 0.32,0 0,0 Z"
         style="fill:#000000;fill-opacity:1;fill-rule:nonzero;stroke:#000000;stroke-width:0.545467;stroke-dasharray:none;stroke-opacity:1"
         transform="translate(216.89,489.34)" />
      <path
         id="path657"
         d="m 0,0 h 3.21 c 0.16,0 0.32,0 0.32,-0.16 0,-0.16 -0.16,-0.16 -0.32,-0.16 H 0 v -3.2 c 0,-0.16 0,-0.32 -0.16,-0.32 -0.16,0 -0.16,0.16 -0.16,0.32 v 3.2 h -3.2 c -0.16,0 -0.32,0 -0.32,0.16 C -3.84,0 -3.68,0 -3.52,0 h 3.2 v 3.21 c 0,0.16 0,0.32 0.16,0.32 C 0,3.53 0,3.37 0,3.21 Z"
         style="fill:#000000;fill-opacity:1;fill-rule:nonzero;stroke:#000000;stroke-width:0.545467;stroke-dasharray:none;stroke-opacity:1"
         transform="translate(224.89999,487.89999)" />
      <path
         id="path658"
         d="M 0,0 -0.16,-0.16 -0.48,0.16 C -0.8,0 -1.12,-0.16 -1.28,-0.16 -1.6,-0.16 -1.92,0 -2.08,0.16 -2.72,0.48 -3.2,0.8 -3.37,1.28 c -0.48,0.96 -0.8,2.24 -0.8,3.04 0,0.49 0.16,0.81 0.32,0.81 0.16,0 0.65,-0.16 0.97,-0.65 0.48,-0.32 0.96,-0.8 1.44,-1.6 l -0.32,1.28 c 0,0.16 0,0.48 0,0.65 0,0.16 0.16,0.32 0.32,0.32 0.16,0 0.64,-0.32 1.44,-0.97 V 3.84 C -0.16,4 -0.16,4 -0.16,4 -0.48,4.32 -0.64,4.32 -0.8,4.32 c -0.16,0 -0.16,0 -0.16,-0.16 0,0 0,-0.16 0,-0.16 z m -0.8,0.64 c -0.32,1.12 -0.48,1.76 -0.8,2.24 -0.64,0.96 -1.28,1.44 -1.6,1.44 -0.17,0 -0.33,0 -0.33,-0.32 0,-0.64 0.33,-1.92 0.81,-2.72 0.16,-0.64 0.48,-0.8 0.96,-0.8 0.16,0 0.48,0 0.96,0.16 z"
         style="fill:#000000;fill-opacity:1;fill-rule:nonzero;stroke:#000000;stroke-width:0.545467;stroke-dasharray:none;stroke-opacity:1"
         transform="translate(235.8,485.5)" />
      <path
         id="path659"
         d="m 0,0 v 0.32 c 1.6,0 1.6,0 1.93,0 0.16,0 0.16,0 1.76,0 0,-0.16 0,-0.32 0,-0.48 0,0 0,-0.16 0,-0.32 -0.96,0 -1.28,0 -2.73,0.16 l 1.45,-1.61 c 0.8,-0.8 0.96,-1.28 0.96,-1.76 0,-0.96 -0.64,-1.6 -1.6,-1.6 -0.65,0 -0.97,0.16 -1.45,0.64 v 1.12 h 0.16 l 0.16,-0.48 c 0.16,-0.48 0.32,-0.64 0.96,-0.64 0.65,0 1.13,0.48 1.13,1.12 0,0.64 -0.32,1.12 -1.29,2.09 z"
         style="fill:#000000;fill-opacity:1;fill-rule:nonzero;stroke:#000000;stroke-width:0.545467;stroke-dasharray:none;stroke-opacity:1"
         transform="translate(236.44,492.07001)" />
      <path
         id="path660"
         d="m 0,0 c 0,0.16 0,0.32 -0.16,0.65 0,0.16 0,0.16 0,0.16 0.16,0.16 0.32,0.16 0.48,0.16 0.32,0 0.64,-0.32 1.12,-0.81 l 0.8,-1.28 v 0.8 C 2.4,0.65 2.73,0.97 3.05,0.97 3.37,0.97 3.69,0.81 4.01,0.48 L 4.49,0 4.33,-0.16 C 4.01,0.16 3.69,0.32 3.53,0.32 3.37,0.32 3.21,0.16 3.21,0 3.05,-0.16 2.89,-0.64 2.89,-0.96 L 2.73,-1.92 3.05,-2.56 c 0.48,-0.64 0.8,-0.96 1.12,-0.96 0.16,0 0.32,0.16 0.32,0.32 h 0.16 l 0.16,-0.96 c 0,0 -0.16,-0.16 -0.32,-0.16 -0.32,0 -0.8,0.48 -1.44,1.44 L 2.57,-2.24 V -2.88 C 2.4,-3.84 2.08,-4.32 1.6,-4.32 1.28,-4.32 0.96,-4.16 0.96,-4 l -0.64,0.8 0.16,0.16 c 0.32,-0.32 0.48,-0.48 0.8,-0.48 0.32,0 0.48,0.48 0.64,1.44 L 2.08,-1.44 1.76,-0.8 C 1.28,0 0.8,0.32 0.64,0.32 0.48,0.32 0.32,0.32 0.32,0.16 L 0.16,-0.16 Z"
         style="fill:#000000;fill-opacity:1;fill-rule:nonzero;stroke:#000000;stroke-width:0.545467;stroke-dasharray:none;stroke-opacity:1"
         transform="translate(241.41,489.66)" />
      <path
         id="path661"
         d="m 0,0 v 0.16 c 1.44,0 1.44,0 1.76,0 0.32,0 0.32,0 1.77,0 0,-0.16 0,-0.16 0,-0.32 0,0 0,-0.16 0,-0.32 -0.97,0 -1.29,0 -2.73,0 l 1.44,-1.44 c 0.81,-0.8 0.97,-1.28 0.97,-1.92 0,-0.8 -0.65,-1.45 -1.61,-1.45 -0.48,0 -0.96,0.16 -1.28,0.65 L 0.16,-3.68 H 0.32 L 0.48,-4 c 0.16,-0.48 0.32,-0.64 0.96,-0.64 0.64,0 1.12,0.48 1.12,1.12 0,0.64 -0.32,1.12 -1.28,2.08 z"
         style="fill:#000000;fill-opacity:1;fill-rule:nonzero;stroke:#000000;stroke-width:0.545467;stroke-dasharray:none;stroke-opacity:1"
         transform="translate(246.86,486.45999)" />
      <path
         id="path662"
         d="m 0,0 h 3.21 c 0.16,0 0.32,0 0.32,-0.16 0,-0.16 -0.16,-0.16 -0.32,-0.16 H 0 v -3.2 c 0,-0.16 0,-0.32 -0.16,-0.32 -0.16,0 -0.16,0.16 -0.16,0.32 v 3.2 h -3.2 c -0.16,0 -0.32,0 -0.32,0.16 C -3.84,0 -3.68,0 -3.52,0 h 3.2 v 3.21 c 0,0.16 0,0.32 0.16,0.32 C 0,3.53 0,3.37 0,3.21 Z"
         style="fill:#000000;fill-opacity:1;fill-rule:nonzero;stroke:#000000;stroke-width:0.545467;stroke-dasharray:none;stroke-opacity:1"
         transform="translate(257.76001,487.89999)" />
      <path
         id="path663"
         d="M 0,0 -0.16,-0.16 -0.48,0.16 C -0.8,0 -1.12,-0.16 -1.28,-0.16 -1.6,-0.16 -1.92,0 -2.08,0.16 -2.72,0.48 -3.2,0.8 -3.37,1.28 c -0.48,0.96 -0.8,2.24 -0.8,3.04 0,0.49 0.16,0.81 0.32,0.81 0.16,0 0.65,-0.16 0.97,-0.65 0.48,-0.32 0.96,-0.8 1.44,-1.6 l -0.32,1.28 c 0,0.16 0,0.48 0,0.65 0,0.16 0.16,0.32 0.32,0.32 0.16,0 0.64,-0.32 1.44,-0.97 V 3.84 C -0.16,4 -0.16,4 -0.16,4 -0.48,4.32 -0.64,4.32 -0.8,4.32 c -0.16,0 -0.16,0 -0.16,-0.16 0,0 0,-0.16 0,-0.16 z m -0.8,0.64 c -0.32,1.12 -0.48,1.76 -0.8,2.24 -0.64,0.96 -1.28,1.44 -1.6,1.44 -0.17,0 -0.33,0 -0.33,-0.32 0,-0.64 0.33,-1.92 0.81,-2.72 0.16,-0.64 0.48,-0.8 0.96,-0.8 0.16,0 0.48,0 0.96,0.16 z"
         style="fill:#000000;fill-opacity:1;fill-rule:nonzero;stroke:#000000;stroke-width:0.545467;stroke-dasharray:none;stroke-opacity:1"
         transform="translate(268.66,485.5)" />
      <path
         id="path664"
         d="m 0,0 h 0.16 l 0.96,-0.48 c 0,0 0,0 0,0 0,0 0,0 0,0.16 v 4.01 c 0,0.32 0,0.48 -0.48,0.48 H 0.16 v 0.16 c 1.28,0 1.28,0 1.44,0 0,0 0.16,0 0.48,0 0.16,0 0.32,0 0.64,0 V 4.17 H 2.4 C 1.92,4.17 1.92,4.01 1.92,3.69 V -1.12 H 1.76 C 1.28,-0.96 0.64,-0.64 0,-0.32 Z"
         style="fill:#000000;fill-opacity:1;fill-rule:nonzero;stroke:#000000;stroke-width:0.545467;stroke-dasharray:none;stroke-opacity:1"
         transform="translate(269.78,488.06)" />
      <path
         id="path665"
         d="m 0,0 c 0,0.16 0,0.32 -0.16,0.65 0,0.16 0,0.16 0,0.16 0.16,0.16 0.32,0.16 0.48,0.16 0.32,0 0.64,-0.32 1.12,-0.81 l 0.8,-1.28 v 0.8 C 2.4,0.65 2.72,0.97 3.04,0.97 3.36,0.97 3.68,0.81 4,0.48 L 4.49,0 4.33,-0.16 C 4,0.16 3.68,0.32 3.52,0.32 3.36,0.32 3.2,0.16 3.2,0 3.04,-0.16 2.88,-0.64 2.88,-0.96 L 2.72,-1.92 3.04,-2.56 c 0.48,-0.64 0.8,-0.96 1.13,-0.96 0.16,0 0.32,0.16 0.32,0.32 h 0.16 l 0.16,-0.96 c 0,0 -0.16,-0.16 -0.32,-0.16 -0.32,0 -0.81,0.48 -1.45,1.44 L 2.56,-2.24 V -2.88 C 2.4,-3.84 2.24,-4.32 1.6,-4.32 1.28,-4.32 0.96,-4.16 0.96,-4 l -0.64,0.8 0.16,0.16 c 0.32,-0.32 0.48,-0.48 0.8,-0.48 0.32,0 0.48,0.48 0.64,1.44 L 2.08,-1.44 1.76,-0.8 C 1.28,0 0.8,0.32 0.64,0.32 0.48,0.32 0.32,0.32 0.32,0.16 L 0.16,-0.16 Z"
         style="fill:#000000;fill-opacity:1;fill-rule:nonzero;stroke:#000000;stroke-width:0.545467;stroke-dasharray:none;stroke-opacity:1"
         transform="translate(274.26999,489.66)" />
      <path
         id="path666"
         d="M 0,0 H 3.04 C 3.2,0 3.36,0 3.36,-0.16 3.36,-0.32 3.2,-0.32 3.04,-0.32 H 0 v -3.2 c 0,-0.16 0,-0.32 -0.32,-0.32 -0.16,0 -0.16,0.16 -0.16,0.32 v 3.2 h -3.05 c -0.16,0 -0.48,0 -0.48,0.16 C -4.01,0 -3.69,0 -3.53,0 h 3.05 v 3.21 c 0,0.16 0,0.32 0.16,0.32 C 0,3.53 0,3.37 0,3.21 Z"
         style="fill:#000000;fill-opacity:1;fill-rule:nonzero;stroke:#000000;stroke-width:0.545467;stroke-dasharray:none;stroke-opacity:1"
         transform="translate(286.29001,487.89999)" />
      <path
         id="path667"
         d="M 0,0 V -0.16 L -0.32,0.16 C -0.8,0 -0.96,-0.16 -1.28,-0.16 c -0.33,0 -0.49,0.16 -0.81,0.32 -0.64,0.32 -0.96,0.64 -1.28,1.12 -0.48,0.96 -0.8,2.24 -0.8,3.04 0,0.49 0.16,0.81 0.32,0.81 0.32,0 0.64,-0.16 1.12,-0.65 0.48,-0.32 0.8,-0.8 1.45,-1.6 l -0.33,1.28 c 0,0.16 -0.16,0.48 -0.16,0.65 0,0.16 0.16,0.32 0.33,0.32 0.32,0 0.64,-0.32 1.6,-0.97 L 0,3.84 C 0,4 0,4 -0.16,4 -0.48,4.32 -0.64,4.32 -0.8,4.32 c 0,0 -0.16,0 -0.16,-0.16 0,0 0,-0.16 0,-0.16 z m -0.8,0.64 c -0.16,1.12 -0.48,1.76 -0.81,2.24 -0.64,0.96 -1.28,1.44 -1.6,1.44 -0.16,0 -0.16,0 -0.16,-0.32 0,-0.64 0.32,-1.92 0.64,-2.72 0.32,-0.64 0.48,-0.8 0.96,-0.8 0.33,0 0.49,0 0.97,0.16 z"
         style="fill:#000000;fill-opacity:1;fill-rule:nonzero;stroke:#000000;stroke-width:0.545467;stroke-dasharray:none;stroke-opacity:1"
         transform="translate(297.03,485.5)" />
      <path
         id="path668"
         d="m 0,0 c -1.28,0 -1.76,0.96 -1.76,2.88 0,0.97 0.16,1.77 0.32,2.25 0.32,0.32 0.8,0.64 1.28,0.64 1.12,0 1.77,-1.12 1.77,-3.21 C 1.61,0.8 1.12,0 0,0 Z m -0.16,0.32 c 0.8,0 1.12,0.8 1.12,2.72 0,1.61 -0.32,2.41 -0.96,2.41 -0.8,0 -1.12,-0.8 -1.12,-2.73 0,-1.76 0.32,-2.4 0.96,-2.4 z"
         style="fill:#000000;fill-opacity:1;fill-rule:nonzero;stroke:#000000;stroke-width:0.545467;stroke-dasharray:none;stroke-opacity:1"
         transform="translate(299.75,486.78)" />
    </g>
  </g>
</svg>
