<?xml version="1.0" encoding="UTF-8" standalone="no"?>
<!-- Created with Inkscape (http://www.inkscape.org/) -->

<svg
   version="1.1"
   id="svg1"
   width="136.34088"
   height="37.7551"
   viewBox="0 0 136.34088 37.7551"
   xmlns="http://www.w3.org/2000/svg"
   xmlns:svg="http://www.w3.org/2000/svg">
  <defs
     id="defs1">
    <clipPath
       clipPathUnits="userSpaceOnUse"
       id="clipPath255">
      <rect
         style="fill:#000000"
         id="rect255"
         width="153.06122"
         height="37.7551"
         x="80.612244"
         y="219.38776" />
    </clipPath>
  </defs>
  <g
     id="g1"
     clip-path="url(#clipPath255)"
     style="stroke:#000000;stroke-opacity:1"
     transform="translate(-97.332587,-219.38776)">
    <g
       id="g2"
       aria-label="Sonfuncionesdelaforma&#10;y=f(x)=x&#10;a&#10;Sia=n,dondenesunenteropositivoseobtieneslasfunciones&#10;polinomicasconunsolotérmino"
       transform="matrix(1.3333333,0,0,1.3333333,97.921333,194.904)"
       style="stroke:#000000;stroke-opacity:1">
      <path
         id="path2"
         d="m 6.4105625,-7.5481172 c 0,-0.7617187 0.058594,-1.2421875 0.1992187,-2.015625 -1.1484375,-0.4687498 -1.7929687,-0.6093748 -2.578125,-0.6093748 -2.1328125,0 -3.6914062,1.3476561 -3.6914062,3.2343748 0,0.703125 0.1875,1.21875 0.609375,1.6054688 0.4804687,0.4453125 1.1484375,0.6679687 2.53125,0.8554687 1.1132812,0.1640625 1.6171875,0.3164063 1.9804687,0.6445313 0.375,0.3046875 0.5507813,0.7148437 0.5507813,1.265625 0,1.2890625 -1.078125,2.22656246 -2.5664063,2.22656246 -1.1484375,0 -2.2734375,-0.5625 -2.34375,-1.14843746 L 0.98478125,-2.4504609 H 0.52775 c 0.0234375,0.2578125 0.0234375,0.4804687 0.0234375,0.5742187 0,0.65625 -0.0351563,0.97265626 -0.1171875,1.61718751 0.8085937,0.36328125 1.640625,0.5390625 2.4726562,0.5390625 2.4960938,0 4.3125,-1.50000001 4.3125,-3.58593751 0,-0.6679687 -0.1875,-1.1367187 -0.5976562,-1.5117187 C 6.1293125,-5.2981172 5.5199375,-5.4856172 3.9144687,-5.6965547 2.168375,-5.9309297 1.5472812,-6.3996797 1.5472812,-7.5012422 c 0,-1.2070312 0.9023438,-2.0625 2.1679688,-2.0625 0.5625,0 1.0898437,0.1054688 1.4765625,0.328125 0.46875,0.2460938 0.6328125,0.4570313 0.6796875,0.8671875 l 0.082031,0.8203125 z m 5.4052735,0.8203125 c -2.0859376,0 -3.5390626,1.4765625 -3.5390626,3.609375 0,2.0273438 1.2773438,3.39843751 3.1289066,3.39843751 2.203125,0 3.785156,-1.52343751 3.785156,-3.67968751 0,-1.9335937 -1.40625,-3.328125 -3.375,-3.328125 z m -0.257813,0.46875 c 1.324219,0 2.296875,1.4414063 2.296875,3.3867188 0,1.6523437 -0.726562,2.68359371 -1.886718,2.68359371 -1.40625,0 -2.3554691,-1.37109371 -2.3554691,-3.41015621 0,-1.7226563 0.6914061,-2.6601563 1.9453121,-2.6601563 z m 9.975586,6.30468751 c 0.878907,-0.046875 0.890625,-0.046875 1.136719,-0.046875 0.199219,0 0.199219,0 1.183594,0.046875 v -0.43359375 l -0.585938,-0.046875 c -0.492187,-0.0234375 -0.527343,-0.1171875 -0.527343,-1.03124996 v -2.765625 c 0,-1.6757813 -0.796875,-2.4960938 -2.402344,-2.4960938 -0.527344,0 -0.832031,0.1054688 -1.125,0.3632813 l -1.089844,0.9375 v -1.2421875 l -0.128906,-0.058594 c -0.738281,0.3046875 -1.488281,0.5039063 -2.238281,0.5859375 v 0.3984375 h 0.527343 c 0.574219,0 0.632813,0.1054688 0.632813,1.0546875 v 3.2226563 c 0,0.90234371 -0.04687,1.00781246 -0.539063,1.03124996 l -0.644531,0.046875 v 0.43359375 c 0.984375,-0.03515625 1.371094,-0.046875 1.78125,-0.046875 0.421875,0 0.808594,0.01171875 1.78125,0.046875 v -0.43359375 l -0.644531,-0.046875 c -0.492188,-0.0234375 -0.527344,-0.12890625 -0.527344,-1.03124996 v -3.0351563 c 0,-0.6445312 0.9375,-1.3476562 1.816406,-1.3476562 0.960938,0 1.59375,0.7148437 1.59375,1.8164062 z M 33.06193,-10.290305 c -0.292969,-0.105468 -0.46875,-0.152343 -0.65625,-0.152343 -0.457032,0 -0.960938,0.246093 -1.277344,0.5976558 l -0.832031,0.9492188 c -0.410157,0.4804687 -0.597657,1.125 -0.597657,2.0625 v 0.609375 l -0.996093,0.4453125 v 0.3164062 l 0.996093,-0.058594 v 4.0546875 c 0,0.90234371 -0.04687,1.00781246 -0.539062,1.03124996 l -0.65625,0.046875 v 0.43359375 c 1.441406,-0.046875 1.441406,-0.046875 1.792969,-0.046875 0.363281,0 0.363281,0 1.792968,0.046875 v -0.43359375 l -0.65625,-0.046875 C 30.940836,-0.45827344 30.90568,-0.56374219 30.90568,-1.4660859 v -4.0546875 h 1.769531 l 0.105469,-0.7617188 -1.875,0.058594 v -1.21875 c 0,-1.6523438 0.175781,-2.0507813 0.996093,-2.0507813 0.386719,0 0.644532,0.09375 0.996094,0.3984375 l 0.164063,-0.082031 z m 7.110351,3.6210941 -0.128906,-0.058594 c -0.738281,0.3046875 -1.476563,0.5039063 -2.238281,0.5859375 v 0.3984375 h 0.527343 c 0.574219,0 0.632813,0.1054688 0.632813,1.0546875 v 2.3320313 c 0,0.3164062 -0.199219,0.7148437 -0.527344,1.0546875 -0.410156,0.39843746 -0.867187,0.59765621 -1.429687,0.59765621 -0.492188,0 -0.902344,-0.15234375 -1.125,-0.43359371 C 35.684,-1.3606172 35.578531,-1.8059297 35.578531,-2.4387422 v -4.2304687 l -0.128906,-0.058594 c -0.726563,0.3046875 -1.476563,0.5039063 -2.238281,0.5859375 v 0.3984375 h 0.527343 c 0.574219,0 0.632813,0.1054688 0.632813,1.0546875 v 2.4023438 c 0,1.0078125 0.09375,1.45312496 0.351562,1.81640621 0.304688,0.421875 0.855469,0.64453125 1.675782,0.64453125 0.644531,0 1.21875,-0.19921875 1.605468,-0.5625 L 38.96525,-1.2785859 c 0,0.42187496 -0.01172,0.64453121 -0.05859,1.32421871 0.960938,-0.046875 0.972656,-0.046875 1.195313,-0.046875 0.199218,0 0.199218,0 1.183593,0.046875 v -0.43359375 l -0.585937,-0.046875 c -0.492188,-0.0234375 -0.527344,-0.1171875 -0.527344,-1.03124996 z m 7.31543,6.71484371 c 0.878906,-0.046875 0.890625,-0.046875 1.136719,-0.046875 0.199218,0 0.199218,0 1.183593,0.046875 v -0.43359375 l -0.585937,-0.046875 c -0.492188,-0.0234375 -0.527344,-0.1171875 -0.527344,-1.03124996 v -2.765625 c 0,-1.6757813 -0.796875,-2.4960938 -2.402344,-2.4960938 -0.527343,0 -0.832031,0.1054688 -1.125,0.3632813 l -1.089843,0.9375 v -1.2421875 l -0.128907,-0.058594 c -0.738281,0.3046875 -1.488281,0.5039063 -2.238281,0.5859375 v 0.3984375 h 0.527344 c 0.574219,0 0.632812,0.1054688 0.632812,1.0546875 v 3.2226563 c 0,0.90234371 -0.04687,1.00781246 -0.539062,1.03124996 l -0.644531,0.046875 v 0.43359375 c 0.984375,-0.03515625 1.371093,-0.046875 1.78125,-0.046875 0.421875,0 0.808593,0.01171875 1.78125,0.046875 v -0.43359375 l -0.644532,-0.046875 c -0.492187,-0.0234375 -0.527343,-0.12890625 -0.527343,-1.03124996 v -3.0351563 c 0,-0.6445312 0.9375,-1.3476562 1.816406,-1.3476562 0.960937,0 1.59375,0.7148437 1.59375,1.8164062 z m 8.185547,-4.51171871 c 0,-0.65625 0.07031,-1.2421875 0.210937,-1.7578125 -0.574218,-0.3515625 -1.078125,-0.5039063 -1.664062,-0.5039063 -0.691406,0 -1.5,0.2695313 -2.355469,0.8203125 -1.007812,0.6328125 -1.535156,1.6289063 -1.535156,2.8945313 0,1.9335937 1.359375,3.29296871 3.28125,3.29296871 0.75,0 1.828125,-0.26953125 1.96875,-0.48046875 l 0.304687,-0.45703125 -0.152343,-0.22265625 c -0.527344,0.29296875 -0.984375,0.421875 -1.5,0.421875 -1.59375,0 -2.636719,-1.23046876 -2.636719,-3.12890626 0,-1.5351562 0.714844,-2.390625 2.003906,-2.390625 0.632813,0 1.324219,0.28125 1.582031,0.6445313 l 0.09375,0.8671875 z m 3.345703,-2.203125 -0.128906,-0.058594 c -0.726563,0.3046875 -1.476563,0.5039063 -2.238282,0.5859375 v 0.3984375 h 0.527344 c 0.574219,0 0.632813,0.1054688 0.632813,1.0546875 v 3.2226563 c 0,0.90234371 -0.03516,1.00781246 -0.527344,1.03124996 l -0.65625,0.046875 v 0.43359375 c 1.429687,-0.046875 1.429687,-0.046875 1.792969,-0.046875 0.351562,0 0.351562,0 1.792968,0.046875 v -0.43359375 l -0.667968,-0.046875 c -0.480469,-0.0234375 -0.527344,-0.12890625 -0.527344,-1.03124996 z m -0.65625,-3.1875 c -0.433594,0 -0.808594,0.375 -0.808594,0.8085937 0,0.4101563 0.375,0.7851563 0.796875,0.7851563 0.410156,0 0.796875,-0.375 0.796875,-0.7851563 0,-0.4101562 -0.386719,-0.8085937 -0.785156,-0.8085937 z m 6.131836,3.1289062 c -2.085938,0 -3.539063,1.4765625 -3.539063,3.609375 0,2.0273438 1.277344,3.39843751 3.128907,3.39843751 2.203125,0 3.785156,-1.52343751 3.785156,-3.67968751 0,-1.9335937 -1.40625,-3.328125 -3.375,-3.328125 z m -0.257813,0.46875 c 1.324219,0 2.296875,1.4414063 2.296875,3.3867188 0,1.6523437 -0.726562,2.68359371 -1.886718,2.68359371 -1.40625,0 -2.355469,-1.37109371 -2.355469,-3.41015621 0,-1.7226563 0.691406,-2.6601563 1.945312,-2.6601563 z m 9.975586,6.30468751 c 0.878907,-0.046875 0.890625,-0.046875 1.136719,-0.046875 0.199219,0 0.199219,0 1.183594,0.046875 v -0.43359375 l -0.585938,-0.046875 c -0.492187,-0.0234375 -0.527343,-0.1171875 -0.527343,-1.03124996 v -2.765625 c 0,-1.6757813 -0.796875,-2.4960938 -2.402344,-2.4960938 -0.527344,0 -0.832031,0.1054688 -1.125,0.3632813 l -1.089844,0.9375 v -1.2421875 l -0.128906,-0.058594 c -0.738281,0.3046875 -1.488281,0.5039063 -2.238281,0.5859375 v 0.3984375 h 0.527343 c 0.574219,0 0.632813,0.1054688 0.632813,1.0546875 v 3.2226563 c 0,0.90234371 -0.04687,1.00781246 -0.539063,1.03124996 l -0.644531,0.046875 v 0.43359375 c 0.984375,-0.03515625 1.371094,-0.046875 1.78125,-0.046875 0.421875,0 0.808594,0.01171875 1.78125,0.046875 v -0.43359375 l -0.644531,-0.046875 C 70.83732,-0.45827344 70.802164,-0.56374219 70.802164,-1.4660859 v -3.0351563 c 0,-0.6445312 0.9375,-1.3476562 1.816406,-1.3476562 0.960938,0 1.59375,0.7148437 1.59375,1.8164062 z m 8.736328,-1.05468751 -0.1875,-0.140625 c -0.914062,0.55078126 -1.253906,0.67968751 -1.863281,0.67968751 -0.9375,0 -1.710937,-0.421875 -2.109375,-1.12500001 -0.269531,-0.46875 -0.375,-0.8789062 -0.398437,-1.7109375 h 2.085937 c 0.996094,0 1.605469,-0.035156 2.601563,-0.1992187 0.01172,-0.1992188 0.02344,-0.328125 0.02344,-0.4921875 0,-1.6523438 -1.054687,-2.7304688 -2.660156,-2.7304688 -0.539063,0 -1.148438,0.1875 -1.734375,0.5273438 -1.183594,0.6796875 -1.652344,1.5703125 -1.652344,3.0585937 0,0.9023438 0.210938,1.6757813 0.597656,2.22656251 0.574219,0.76171875 1.535157,1.1953125 2.613282,1.1953125 0.527343,0 1.066406,-0.10546875 1.652343,-0.36328125 0.386719,-0.1640625 0.691407,-0.3515625 0.738282,-0.43359375 z m -1.125,-2.8242187 c -0.738281,0.035156 -1.089843,0.046875 -1.605468,0.046875 -0.65625,0 -1.03125,-0.011719 -1.804688,-0.082031 0,-0.6796875 0.05859,-0.9960937 0.246094,-1.3710937 0.304687,-0.6328125 0.914062,-1.0195313 1.605469,-1.0195313 0.46875,0 0.84375,0.1875 1.101562,0.5742188 0.316406,0.4804687 0.421875,0.890625 0.457031,1.8515622 z m 2.314454,1.78125 c 0,0.984375 -0.03516,1.41796871 -0.152344,1.99218746 0.738281,0.24609375 1.300781,0.33984375 1.957031,0.33984375 1.886719,0 3.222656,-0.99609375 3.222656,-2.40234371 0,-0.4453125 -0.128906,-0.7734375 -0.410156,-1.0664063 -0.375,-0.3515625 -0.84375,-0.5273437 -2.109375,-0.7734375 -1.171875,-0.2226562 -1.558594,-0.515625 -1.558594,-1.171875 0,-0.7148437 0.503907,-1.125 1.371094,-1.125 0.960938,0 1.699219,0.5039063 1.699219,1.1835938 v 0.328125 h 0.398437 c 0.01172,-0.8320313 0.03516,-1.1835938 0.07031,-1.6171875 -0.761719,-0.2578125 -1.277344,-0.3632813 -1.863281,-0.3632813 -1.664063,0 -2.683594,0.7851563 -2.683594,2.0742188 0,0.6914062 0.316406,1.1835937 0.984375,1.4765625 0.386719,0.1757812 1.136719,0.4101562 2.121094,0.6210937 0.644531,0.140625 0.914062,0.4453125 0.914062,0.9960938 0,0.77343746 -0.714844,1.31249996 -1.734375,1.31249996 -1.042969,0 -1.792969,-0.50390625 -1.792969,-1.21874996 v -0.5859375 z m 15.577148,-4.21875 c -0.796875,-0.3398438 -1.207031,-0.4570313 -1.699219,-0.4570313 -0.386719,0 -0.738281,0.082031 -1.089844,0.2695313 l -1.265625,0.6679687 c -0.820312,0.421875 -1.347656,1.4765625 -1.347656,2.6953125 0,1.1484375 0.386719,2.0859375 1.089844,2.66015626 0.480469,0.421875 1.160156,0.609375 2.097656,0.609375 0.28125,0 0.609375,-0.0585938 0.679688,-0.1171875 l 1.59375,-1.33593746 -0.07031,1.32421871 c 0.703126,-0.03515625 0.937496,-0.046875 1.101556,-0.046875 0.11719,0 0.31641,0 0.6211,0.01171875 0.10547,0.01171875 0.38672,0.01171875 0.6914,0.03515625 v -0.43359375 l -0.66797,-0.046875 c -0.48046,-0.0234375 -0.52734,-0.12890625 -0.52734,-1.03124996 v -8.8359371 l -0.12891,-0.117188 c -0.63281,0.246094 -1.101555,0.363281 -2.238273,0.5390626 v 0.3984375 h 0.808593 c 0.257813,0 0.351563,0.1523437 0.351563,0.5859375 z m 0,3.09375 c 0,0.9375 -0.02344,1.078125 -0.210938,1.40625 -0.398437,0.6796875 -1.101562,1.12499996 -1.78125,1.12499996 -1.265625,0 -2.167968,-1.21874996 -2.167968,-2.92968746 0,-1.5585938 0.773437,-2.484375 2.074218,-2.484375 0.539063,0 1.113282,0.1875 1.617188,0.5390625 0.304687,0.1992187 0.46875,0.3867187 0.46875,0.5039062 z m 9.12891,2.1679687 -0.1875,-0.140625 c -0.91407,0.55078126 -1.25391,0.67968751 -1.86329,0.67968751 -0.9375,0 -1.71093,-0.421875 -2.10937,-1.12500001 -0.26953,-0.46875 -0.375,-0.8789062 -0.39844,-1.7109375 h 2.08594 c 0.99609,0 1.60547,-0.035156 2.60156,-0.1992187 0.0117,-0.1992188 0.0234,-0.328125 0.0234,-0.4921875 0,-1.6523438 -1.05469,-2.7304688 -2.66016,-2.7304688 -0.53906,0 -1.14843,0.1875 -1.73437,0.5273438 -1.1836,0.6796875 -1.65235,1.5703125 -1.65235,3.0585937 0,0.9023438 0.21094,1.6757813 0.59766,2.22656251 0.57422,0.76171875 1.53516,1.1953125 2.61328,1.1953125 0.52735,0 1.06641,-0.10546875 1.65235,-0.36328125 0.38671,-0.1640625 0.6914,-0.3515625 0.73828,-0.43359375 z m -1.125,-2.8242187 c -0.73829,0.035156 -1.08985,0.046875 -1.60547,0.046875 -0.65625,0 -1.03125,-0.011719 -1.80469,-0.082031 0,-0.6796875 0.0586,-0.9960937 0.24609,-1.3710937 0.30469,-0.6328125 0.91407,-1.0195313 1.60547,-1.0195313 0.46875,0 0.84375,0.1875 1.10156,0.5742188 0.31641,0.4804687 0.42188,0.890625 0.45704,1.8515622 z m 6.23144,-5.6484375 h 0.8086 c 0.25781,0 0.35156,0.1523437 0.35156,0.5859375 v 7.4296875 c 0,0.90234371 -0.0352,1.00781246 -0.52735,1.03124996 l -0.65625,0.046875 v 0.43359375 c 1.42969,-0.046875 1.42969,-0.046875 1.79297,-0.046875 0.35157,0 0.35157,0 1.79297,0.046875 v -0.43359375 l -0.66797,-0.046875 c -0.48047,-0.0234375 -0.52734,-0.12890625 -0.52734,-1.03124996 v -8.8359371 l -0.12891,-0.117188 c -0.63281,0.246094 -1.10156,0.363281 -2.23828,0.5390626 z m 8.49902,8.3085937 -0.082,1.21875001 c 0.9375,-0.046875 0.9375,-0.046875 1.125,-0.046875 0.0703,0 0.4336,0.01171875 1.06641,0.046875 v -0.43359375 l -0.5625,-0.0234375 c -0.35156,-0.0234375 -0.41016,-0.140625 -0.41016,-0.83203126 v -2.625 c 0,-2.0976562 -0.59765,-2.859375 -2.26172,-2.859375 -0.62109,0 -1.18359,0.1523438 -1.73437,0.4921875 l -0.76172,0.4570313 v 0.9257812 l 0.375,0.1054688 0.1875,-0.4453125 c 0.30469,-0.6796875 0.44531,-0.7734375 1.10156,-0.7734375 1.34766,0 1.91016,0.5273437 1.95703,1.828125 l -1.42968,0.2695312 c -1.94532,0.3515625 -2.76563,1.03125 -2.76563,2.2734375 0,1.12500001 0.67969,1.76953126 1.80469,1.76953126 0.25781,0 0.50391,-0.046875 0.60937,-0.1171875 z m 0,-0.609375 c -0.42187,0.5859375 -1.32421,1.13671876 -1.88671,1.13671876 -0.57422,0 -1.07813,-0.52734376 -1.07813,-1.14843746 0,-0.5273438 0.29297,-1.03125 0.72656,-1.3007813 0.35157,-0.2226562 1.14844,-0.421875 2.23828,-0.5742187 z m 11.58106,-8.5078128 c -0.29297,-0.105468 -0.46875,-0.152343 -0.65625,-0.152343 -0.45703,0 -0.96094,0.246093 -1.27734,0.5976558 l -0.83204,0.9492188 c -0.41015,0.4804687 -0.59765,1.125 -0.59765,2.0625 v 0.609375 l -0.9961,0.4453125 v 0.3164062 l 0.9961,-0.058594 v 4.0546875 c 0,0.90234371 -0.0469,1.00781246 -0.53906,1.03124996 l -0.65625,0.046875 v 0.43359375 c 1.4414,-0.046875 1.4414,-0.046875 1.79296,-0.046875 0.36329,0 0.36329,0 1.79297,0.046875 v -0.43359375 l -0.65625,-0.046875 c -0.49218,-0.0234375 -0.52734,-0.12890625 -0.52734,-1.03124996 v -4.0546875 h 1.76953 l 0.10547,-0.7617188 -1.875,0.058594 v -1.21875 c 0,-1.6523438 0.17578,-2.0507813 0.99609,-2.0507813 0.38672,0 0.64453,0.09375 0.9961,0.3984375 l 0.16406,-0.082031 z m 3.88769,3.5625003 c -2.08593,0 -3.53906,1.4765625 -3.53906,3.609375 0,2.0273438 1.27735,3.39843751 3.12891,3.39843751 2.20312,0 3.78515,-1.52343751 3.78515,-3.67968751 0,-1.9335937 -1.40625,-3.328125 -3.375,-3.328125 z m -0.25781,0.46875 c 1.32422,0 2.29688,1.4414063 2.29688,3.3867188 0,1.6523437 -0.72657,2.68359371 -1.88672,2.68359371 -1.40625,0 -2.35547,-1.37109371 -2.35547,-3.41015621 0,-1.7226563 0.69141,-2.6601563 1.94531,-2.6601563 z m 4.42383,0.515625 h 0.52734 c 0.57422,0 0.63282,0.1054688 0.63282,1.0546875 v 3.2226563 c 0,0.90234371 -0.0352,1.00781246 -0.52735,1.03124996 l -0.65625,0.046875 v 0.43359375 c 1.03125,-0.03515625 1.40625,-0.046875 1.75782,-0.046875 0.29296,0 0.29296,0 2.05078,0.046875 v -0.43359375 l -0.73828,-0.046875 c -0.64454,-0.0351563 -0.67969,-0.0820313 -0.67969,-1.03124996 v -2.4609375 c 0,-0.8671875 0.57422,-1.5820313 1.27734,-1.5820313 0.4336,0 0.72656,0.1992188 0.96094,0.65625 h 0.30469 l 0.1289,-1.7226562 c -0.16406,-0.09375 -0.42187,-0.1523438 -0.67968,-0.1523438 -0.42188,0 -0.89063,0.234375 -1.1836,0.5859375 l -0.80859,0.9492188 v -1.4765625 l -0.12891,-0.058594 c -0.72656,0.3046875 -1.47656,0.5039063 -2.23828,0.5859375 z m 5.83887,0 h 0.52734 c 0.57422,0 0.63281,0.1054688 0.63281,1.0546875 v 3.2226563 c 0,0.90234371 -0.0351,1.00781246 -0.52734,1.03124996 l -0.65625,0.046875 v 0.43359375 c 1.37109,-0.046875 1.41797,-0.046875 1.81641,-0.046875 0.39843,0 0.77343,0.01171875 1.71093,0.046875 v -0.43359375 l -0.60937,-0.046875 c -0.48047,-0.0234375 -0.52734,-0.12890625 -0.52734,-1.03124996 v -3.0351563 c 0,-0.6445312 0.94921,-1.3476562 1.80468,-1.3476562 0.77344,0 1.3125,0.7265625 1.3125,1.8164062 v 2.5664063 c 0,0.90234371 -0.0469,1.00781246 -0.53906,1.03124996 l -0.65625,0.046875 v 0.43359375 c 1.42969,-0.046875 1.42969,-0.046875 1.79297,-0.046875 0.36328,0 0.36328,0 1.79297,0.046875 v -0.43359375 l -0.65625,-0.046875 c -0.49219,-0.0234375 -0.53906,-0.12890625 -0.53906,-1.03124996 v -3.0351563 c 0,-0.6445312 0.94921,-1.3476562 1.8164,-1.3476562 0.77344,0 1.30078,0.7265625 1.30078,1.8164062 v 4.07812501 c 0.87891,-0.046875 0.89063,-0.046875 1.13672,-0.046875 0.1875,0 0.1875,0 1.27735,0.046875 v -0.43359375 l -0.67969,-0.046875 c -0.48047,-0.0234375 -0.52735,-0.12890625 -0.52735,-1.03124996 v -2.953125 c 0,-1.4179688 -0.83203,-2.3085938 -2.15625,-2.3085938 -0.5039,0 -0.91406,0.1289063 -1.17187,0.3632813 l -1.08984,0.9726562 c -0.45704,-0.9492187 -1.05469,-1.3359375 -2.03907,-1.3359375 -0.52734,0 -0.9375,0.1289063 -1.19531,0.3632813 l -0.98437,0.9140625 v -1.21875 l -0.12891,-0.058594 c -0.72656,0.3046875 -1.47656,0.5039063 -2.23828,0.5859375 z m 17.0625,4.5703125 -0.082,1.21875001 c 0.9375,-0.046875 0.9375,-0.046875 1.125,-0.046875 0.0703,0 0.43359,0.01171875 1.0664,0.046875 v -0.43359375 l -0.5625,-0.0234375 c -0.35156,-0.0234375 -0.41015,-0.140625 -0.41015,-0.83203126 v -2.625 c 0,-2.0976562 -0.59766,-2.859375 -2.26172,-2.859375 -0.6211,0 -1.1836,0.1523438 -1.73438,0.4921875 l -0.76172,0.4570313 v 0.9257812 l 0.375,0.1054688 0.1875,-0.4453125 c 0.30469,-0.6796875 0.44532,-0.7734375 1.10157,-0.7734375 1.34765,0 1.91015,0.5273437 1.95703,1.828125 l -1.42969,0.2695312 c -1.94531,0.3515625 -2.76562,1.03125 -2.76562,2.2734375 0,1.12500001 0.67968,1.76953126 1.80468,1.76953126 0.25782,0 0.50391,-0.046875 0.60938,-0.1171875 z m 0,-0.609375 c -0.42188,0.5859375 -1.32422,1.13671876 -1.88672,1.13671876 -0.57422,0 -1.07813,-0.52734376 -1.07813,-1.14843746 0,-0.5273438 0.29297,-1.03125 0.72657,-1.3007813 0.35156,-0.2226562 1.14843,-0.421875 2.23828,-0.5742187 z m 0,0"
         style="fill:#000000;fill-opacity:1;fill-rule:nonzero;stroke:#000000;stroke-opacity:1" />
      <path
         id="path3"
         d="m 0.07364844,38.442117 c -0.01171875,0.105469 -0.01171875,0.1875 -0.01171875,0.257813 0,0.621093 0.52734375,1.125 1.18359371,1.125 1.5117188,0 3.09375,-1.78125 3.9375,-4.429688 L 7.2103672,29.078836 7.0463047,28.94993 c -0.4101563,0.152343 -0.7382813,0.246093 -1.0546875,0.269531 l -0.5039063,1.898437 c -0.1757812,0.667969 -0.6796875,1.722657 -1.1484375,2.425782 -0.5039062,0.726562 -1.2070312,1.359375 -1.5234375,1.359375 -0.1640625,0 -0.2929687,-0.328125 -0.28125,-0.691407 l 0.011719,-0.1875 0.2109375,-2.777343 c 0.035156,-0.445313 0.058594,-0.996094 0.058594,-1.394532 0,-0.644531 -0.09375,-0.902343 -0.3398437,-0.902343 -0.1875,0 -0.3867188,0.105468 -1.078125,0.574218 l -1.17187501,0.808594 0.15234375,0.257813 0.71484376,-0.433594 0.058594,-0.04687 c 0.140625,-0.08203 0.2460938,-0.128906 0.3046875,-0.128906 0.1992188,0 0.3164063,0.269531 0.3164063,0.75 0,0.01172 0,0.09375 -0.011719,0.210937 l -0.2460937,3.492188 -0.011719,0.574218 c 0,0.597657 0.2578125,1.007813 0.609375,1.007813 0.5390625,0 1.734375,-1.21875 2.8125,-2.835938 l -0.703125,2.449219 c -0.7265625,2.542969 -1.4414062,3.585938 -2.4492187,3.585938 -0.5039063,0 -0.89062501,-0.386719 -0.89062501,-0.878907 0,-0.08203 0.0117188,-0.1875 0.0234375,-0.316406 l -0.140625,-0.05859 z m 0,0"
         style="fill:#000000;fill-opacity:1;fill-rule:nonzero;stroke:#000000;stroke-opacity:1" />
      <path
         id="path4"
         d="m 21.973062,30.977273 c 0.222657,0 0.503907,0 0.503907,-0.304687 0,-0.292969 -0.28125,-0.292969 -0.492188,-0.292969 h -8.953125 c -0.210937,0 -0.503906,0 -0.503906,0.292969 0,0.304687 0.292969,0.304687 0.515625,0.304687 z m 0.01172,2.894532 c 0.210938,0 0.492188,0 0.492188,-0.292969 0,-0.304688 -0.28125,-0.304688 -0.503907,-0.304688 h -8.929687 c -0.222656,0 -0.515625,0 -0.515625,0.304688 0,0.292969 0.292969,0.292969 0.503906,0.292969 z m 0,0"
         style="fill:#000000;fill-opacity:1;fill-rule:nonzero;stroke:#000000;stroke-opacity:1" />
      <path
         id="path5"
         d="m 33.627359,30.367898 c 0.05859,-0.269531 0.164063,-0.597656 0.246094,-0.796875 l -0.05859,-0.105468 -0.105468,0.03516 c -0.339844,0.08203 -0.492188,0.09375 -1.195313,0.09375 h -0.234375 l 0.304688,-1.605469 c 0.222656,-1.230469 0.632812,-1.78125 1.289062,-1.78125 0.433594,0 0.820313,0.222656 1.03125,0.5625 l 0.140625,-0.05859 c 0.07031,-0.222656 0.222656,-0.667968 0.328125,-0.960937 l 0.08203,-0.210938 c -0.234375,-0.105468 -0.679687,-0.1875 -1.007812,-0.1875 -0.164063,0 -0.386719,0.03516 -0.503906,0.09375 -0.339844,0.164063 -1.523438,1.042969 -1.851563,1.382813 -0.316406,0.316406 -0.492187,0.75 -0.644531,1.558594 l -0.210938,1.136718 c -0.597656,0.28125 -0.878906,0.398438 -1.242187,0.527344 l -0.07031,0.316406 h 1.160157 L 30.95549,31.1765 c -0.421875,2.789063 -0.960937,5.460938 -1.277343,6.457031 -0.257813,0.84375 -0.679688,1.289063 -1.195313,1.289063 -0.339844,0 -0.492187,-0.105469 -0.75,-0.421875 l -0.199219,0.05859 c -0.05859,0.328125 -0.257812,1.019531 -0.328125,1.148437 0.128907,0.07031 0.339844,0.117188 0.503907,0.117188 0.585937,0 1.359375,-0.445313 1.921875,-1.125 0.867187,-1.03125 1.183593,-2.027344 2.238281,-7.066407 0.03516,-0.175781 0.152344,-0.714843 0.269531,-1.265625 z m 0,0"
         style="fill:#000000;fill-opacity:1;fill-rule:nonzero;stroke:#000000;stroke-opacity:1" />
      <path
         id="path6"
         d="m 40.752359,39.44993 c 0,-0.04687 0,-0.07031 -0.246093,-0.328125 -1.875,-1.886719 -2.355469,-4.710938 -2.355469,-6.996094 0,-2.601563 0.574219,-5.203125 2.414062,-7.078125 0.1875,-0.175781 0.1875,-0.199219 0.1875,-0.246094 0,-0.105469 -0.05859,-0.152344 -0.140625,-0.152344 -0.152343,0 -1.5,1.019532 -2.378906,2.917969 -0.761719,1.640625 -0.949219,3.304688 -0.949219,4.558594 0,1.171875 0.164063,2.976562 0.996094,4.664062 0.890625,1.839844 2.179688,2.8125 2.332031,2.8125 0.08203,0 0.140625,-0.04687 0.140625,-0.152343 z m 0,0"
         style="fill:#000000;fill-opacity:1;fill-rule:nonzero;stroke:#000000;stroke-opacity:1" />
      <path
         id="path7"
         d="m 42.513102,34.598367 c 0,0.292969 -0.03516,0.480469 -0.117188,0.9375 -0.03516,0.175781 -0.04687,0.210938 -0.05859,0.316406 0.210938,0.117188 0.445313,0.164063 0.621094,0.164063 0.46875,0 1.03125,-0.410156 1.476563,-1.089844 l 1.089843,-1.675781 0.152344,0.996094 c 0.1875,1.21875 0.515625,1.769531 1.03125,1.769531 0.316406,0 0.773438,-0.234375 1.242188,-0.65625 l 0.703125,-0.632813 -0.128907,-0.269531 c -0.527343,0.433594 -0.878906,0.644531 -1.113281,0.644531 -0.210937,0 -0.398437,-0.140625 -0.539062,-0.433593 -0.128907,-0.269532 -0.292969,-0.796875 -0.363282,-1.21875 l -0.257812,-1.441407 0.503906,-0.703125 c 0.679688,-0.9375 1.066406,-1.265625 1.511719,-1.265625 0.222656,0 0.398437,0.117188 0.46875,0.328125 l 0.199219,-0.05859 0.210937,-1.21875 c -0.164062,-0.09375 -0.292969,-0.140625 -0.421875,-0.140625 -0.574219,0 -1.148437,0.515625 -2.039062,1.839843 l -0.527344,0.785157 -0.09375,-0.691407 c -0.164063,-1.417968 -0.550781,-1.933593 -1.40625,-1.933593 -0.375,0 -0.679688,0.117187 -0.808594,0.304687 l -0.832031,1.183594 0.234375,0.152344 c 0.433594,-0.492188 0.726562,-0.691407 0.996094,-0.691407 0.46875,0 0.785156,0.585938 1.03125,1.992188 l 0.152343,0.890625 -0.574218,0.890625 c -0.609375,0.960937 -1.101563,1.417969 -1.5,1.417969 -0.210938,0 -0.375,-0.05859 -0.398438,-0.128907 l -0.164062,-0.398437 z m 0,0"
         style="fill:#000000;fill-opacity:1;fill-rule:nonzero;stroke:#000000;stroke-opacity:1" />
      <path
         id="path8"
         d="m 54.205484,32.125711 c 0,-1.171875 -0.164062,-2.976563 -0.984375,-4.664063 -0.902343,-1.839843 -2.191406,-2.8125 -2.34375,-2.8125 -0.08203,0 -0.140625,0.05859 -0.140625,0.152344 0,0.04687 0,0.07031 0.28125,0.339844 1.464844,1.476562 2.320313,3.855469 2.320313,6.984375 0,2.554687 -0.550781,5.191406 -2.414063,7.078125 -0.1875,0.175781 -0.1875,0.199219 -0.1875,0.246094 0,0.09375 0.05859,0.152343 0.140625,0.152343 0.152344,0 1.5,-1.019531 2.378907,-2.917968 0.761718,-1.640625 0.949218,-3.304688 0.949218,-4.558594 z m 16.086914,-1.148438 c 0.222657,0 0.503907,0 0.503907,-0.304687 0,-0.292969 -0.28125,-0.292969 -0.492188,-0.292969 h -8.953125 c -0.210937,0 -0.503906,0 -0.503906,0.292969 0,0.304687 0.292969,0.304687 0.515625,0.304687 z m 0.01172,2.894532 c 0.210938,0 0.492188,0 0.492188,-0.292969 0,-0.304688 -0.28125,-0.304688 -0.503907,-0.304688 h -8.929687 c -0.222656,0 -0.515625,0 -0.515625,0.304688 0,0.292969 0.292969,0.292969 0.503906,0.292969 z m 0,0"
         style="fill:#000000;fill-opacity:1;fill-rule:nonzero;stroke:#000000;stroke-opacity:1" />
      <path
         id="path9"
         d="m 76.438883,34.985086 c 0,0.199219 -0.02344,0.328125 -0.08203,0.644531 -0.02344,0.128906 -0.02344,0.152344 -0.03516,0.222656 0.140625,0.08203 0.304688,0.117188 0.421875,0.117188 0.328125,0 0.714844,-0.28125 1.03125,-0.75 l 0.75,-1.171875 0.117188,0.691406 c 0.128906,0.84375 0.351562,1.230469 0.714844,1.230469 0.222656,0 0.539062,-0.164063 0.855468,-0.457031 l 0.492188,-0.433594 -0.09375,-0.1875 c -0.363281,0.292969 -0.609375,0.445312 -0.761719,0.445312 -0.152344,0 -0.28125,-0.105468 -0.386719,-0.304687 -0.08203,-0.1875 -0.199218,-0.550781 -0.246093,-0.84375 l -0.175782,-1.007813 0.339844,-0.480468 c 0.46875,-0.65625 0.738281,-0.878907 1.054688,-0.878907 0.152343,0 0.28125,0.08203 0.328125,0.222657 l 0.140625,-0.03516 0.140625,-0.84375 c -0.117188,-0.07031 -0.199219,-0.105468 -0.292969,-0.105468 -0.398438,0 -0.796875,0.363281 -1.417969,1.277343 l -0.363281,0.550782 -0.05859,-0.480469 c -0.128906,-0.984375 -0.386719,-1.347656 -0.984375,-1.347656 -0.257812,0 -0.46875,0.08203 -0.5625,0.210937 l -0.574219,0.832031 0.164063,0.09375 c 0.304687,-0.339843 0.503906,-0.480468 0.691406,-0.480468 0.328125,0 0.539063,0.410156 0.714844,1.394531 l 0.105469,0.609375 -0.398438,0.621094 c -0.421875,0.667968 -0.761719,0.984375 -1.042969,0.984375 -0.152343,0 -0.257812,-0.03516 -0.28125,-0.09375 l -0.105468,-0.269532 z m 11.569336,-9.744141 -0.105469,-0.09375 -0.328125,0.175782 c -0.410156,-0.140625 -0.574219,-0.1875 -0.84375,-0.1875 -0.28125,0 -0.480469,0.05859 -0.75,0.1875 -0.621094,0.304687 -0.949219,0.597656 -1.195313,1.089843 -0.433593,0.890625 -0.75,2.085938 -0.75,2.859375 0,0.433594 0.152344,0.773438 0.339844,0.773438 0.222656,0 0.597656,-0.210938 0.984375,-0.550781 0.410156,-0.386719 0.796875,-0.832032 1.335938,-1.582032 l -0.28125,1.265625 c -0.04687,0.164063 -0.05859,0.339844 -0.05859,0.503907 0,0.222656 0.08203,0.351562 0.234375,0.351562 0.234375,0 0.632812,-0.257812 1.453125,-0.9375 l -0.07031,-0.210937 c -0.05859,0.04687 -0.08203,0.07031 -0.128906,0.105468 -0.316406,0.269532 -0.46875,0.363282 -0.621094,0.363282 -0.08203,0 -0.140625,-0.09375 -0.140625,-0.234375 0,-0.04687 0,-0.08203 0.01172,-0.105469 z m -0.832032,0.574219 c -0.222656,1.089844 -0.410156,1.605469 -0.75,2.121094 -0.5625,0.84375 -1.171875,1.417969 -1.488281,1.417969 -0.117187,0 -0.175781,-0.128907 -0.175781,-0.398438 0,-0.644531 0.269531,-1.804687 0.621094,-2.601562 0.246093,-0.550782 0.46875,-0.726563 0.949218,-0.726563 0.222657,0 0.410157,0.03516 0.84375,0.1875 z m 0,0"
         style="fill:#000000;fill-opacity:1;fill-rule:nonzero;stroke:#000000;stroke-opacity:1" />
      <path
         id="path10"
         d="m 6.4105625,89.861063 c 0,-0.761719 0.058594,-1.242188 0.1992187,-2.015625 -1.1484375,-0.46875 -1.7929687,-0.609375 -2.578125,-0.609375 -2.1328125,0 -3.6914062,1.347656 -3.6914062,3.234375 0,0.703125 0.1875,1.21875 0.609375,1.605468 0.4804687,0.445313 1.1484375,0.667969 2.53125,0.855469 1.1132812,0.164063 1.6171875,0.316406 1.9804687,0.644531 0.375,0.304688 0.5507813,0.714844 0.5507813,1.265625 0,1.289063 -1.078125,2.226563 -2.5664063,2.226563 -1.1484375,0 -2.2734375,-0.5625 -2.34375,-1.148438 L 0.98478125,94.958719 H 0.52775 c 0.0234375,0.257812 0.0234375,0.480469 0.0234375,0.574219 0,0.65625 -0.0351563,0.972656 -0.1171875,1.617187 0.8085937,0.363281 1.640625,0.539063 2.4726562,0.539063 2.4960938,0 4.3125,-1.5 4.3125,-3.585938 0,-0.667969 -0.1875,-1.136719 -0.5976562,-1.511719 C 6.1293125,92.111063 5.5199375,91.923563 3.9144687,91.712625 2.168375,91.47825 1.5472812,91.0095 1.5472812,89.907938 c 0,-1.207032 0.9023438,-2.0625 2.1679688,-2.0625 0.5625,0 1.0898437,0.105468 1.4765625,0.328125 0.46875,0.246093 0.6328125,0.457031 0.6796875,0.867187 l 0.082031,0.820313 z m 3.8173825,0.878906 -0.128906,-0.05859 c -0.7265624,0.304688 -1.4765624,0.503906 -2.2382812,0.585938 v 0.398437 h 0.5273438 c 0.5742187,0 0.6328125,0.105469 0.6328125,1.054688 v 3.222656 c 0,0.902344 -0.035156,1.007812 -0.5273438,1.03125 l -0.65625,0.04687 v 0.433594 c 1.4296875,-0.04687 1.4296875,-0.04687 1.7929688,-0.04687 0.3515625,0 0.3515625,0 1.7929689,0.04687 v -0.433594 l -0.667969,-0.04687 c -0.480469,-0.02344 -0.527344,-0.128906 -0.527344,-1.03125 z m -0.6562497,-3.1875 c -0.4335937,0 -0.8085937,0.375 -0.8085937,0.808594 0,0.410156 0.375,0.785156 0.796875,0.785156 0.4101562,0 0.7968754,-0.375 0.7968754,-0.785156 0,-0.410157 -0.3867192,-0.808594 -0.7851567,-0.808594 z m 0,0"
         style="fill:#000000;fill-opacity:1;fill-rule:nonzero;stroke:#000000;stroke-opacity:1" />
      <path
         id="path11"
         d="m 22.910562,90.6345 -0.140625,-0.128906 -0.480468,0.257812 c -0.585938,-0.210937 -0.832032,-0.269531 -1.21875,-0.269531 -0.398438,0 -0.679688,0.07031 -1.066407,0.257813 -0.890625,0.445312 -1.371093,0.878906 -1.722656,1.582031 -0.632812,1.277344 -1.078125,3 -1.078125,4.113281 0,0.632813 0.210938,1.113281 0.492188,1.113281 0.304687,0 0.855468,-0.304687 1.394531,-0.796875 0.609375,-0.550781 1.171875,-1.195312 1.945312,-2.285156 l -0.421875,1.828125 c -0.05859,0.246094 -0.08203,0.503906 -0.08203,0.726563 0,0.316406 0.128906,0.503906 0.339844,0.503906 0.328125,0 0.925781,-0.375 2.097656,-1.347656 L 22.863687,95.8845 c -0.08203,0.07031 -0.128906,0.105469 -0.1875,0.164063 -0.457031,0.386718 -0.667968,0.515625 -0.878906,0.515625 -0.128906,0 -0.222656,-0.128907 -0.222656,-0.328125 0,-0.07031 0,-0.117188 0.01172,-0.164063 z m -1.195312,0.832031 c -0.304688,1.570313 -0.585938,2.308594 -1.066406,3.058594 -0.820313,1.207031 -1.699219,2.039063 -2.15625,2.039063 -0.175782,0 -0.257813,-0.1875 -0.257813,-0.574219 0,-0.925781 0.398438,-2.601563 0.902344,-3.75 C 19.488687,91.454813 19.816812,91.197 20.4965,91.197 c 0.339844,0 0.597656,0.05859 1.21875,0.269531 z m 0,0"
         style="fill:#000000;fill-opacity:1;fill-rule:nonzero;stroke:#000000;stroke-opacity:1" />
      <path
         id="path12"
         d="m 39.513102,92.521219 c 0.222656,0 0.503906,0 0.503906,-0.304688 0,-0.292968 -0.28125,-0.292968 -0.492188,-0.292968 h -8.953125 c -0.210937,0 -0.503906,0 -0.503906,0.292968 0,0.304688 0.292969,0.304688 0.515625,0.304688 z m 0.01172,2.894531 c 0.210938,0 0.492188,0 0.492188,-0.292969 0,-0.304687 -0.28125,-0.304687 -0.503906,-0.304687 h -8.929688 c -0.222656,0 -0.515625,0 -0.515625,0.304687 0,0.292969 0.292969,0.292969 0.503906,0.292969 z m 0,0"
         style="fill:#000000;fill-opacity:1;fill-rule:nonzero;stroke:#000000;stroke-opacity:1" />
      <path
         id="path13"
         d="m 46.919352,91.841531 0.105468,0.292969 0.457032,-0.304687 c 0.527343,-0.328125 0.574218,-0.363282 0.679687,-0.363282 0.152344,0 0.257813,0.152344 0.257813,0.363282 0,0.726562 -0.597657,3.503906 -1.183594,5.554687 l 0.105469,0.152344 c 0.351562,-0.105469 0.691406,-0.1875 1.007812,-0.246094 0.269531,-1.804687 0.574219,-2.742187 1.230469,-3.726562 0.773437,-1.207032 1.851562,-2.097657 2.496094,-2.097657 0.152343,0 0.246093,0.128907 0.246093,0.351563 0,0.257812 -0.04687,0.550781 -0.164062,1.019531 l -0.75,3.035156 c -0.128906,0.527344 -0.175781,0.855469 -0.175781,1.089844 0,0.363281 0.152343,0.574219 0.421875,0.574219 0.375,0 0.890625,-0.304688 2.296875,-1.347656 l -0.140625,-0.257813 -0.375,0.246094 c -0.410157,0.269531 -0.726563,0.421875 -0.878907,0.421875 -0.09375,0 -0.1875,-0.128906 -0.1875,-0.28125 0,-0.07031 0.02344,-0.234375 0.03516,-0.292969 l 0.949218,-3.949219 c 0.09375,-0.421875 0.152344,-0.820312 0.152344,-1.066406 0,-0.328125 -0.152344,-0.515625 -0.445312,-0.515625 -0.597657,0 -1.59375,0.550781 -2.4375,1.335938 -0.539063,0.503906 -0.949219,0.984375 -1.6875,2.039062 l 0.539062,-2.308594 c 0.05859,-0.257812 0.09375,-0.433593 0.09375,-0.597656 0,-0.292969 -0.117187,-0.46875 -0.339844,-0.46875 -0.292968,0 -0.855468,0.316406 -1.898437,1.066406 z m 0,0"
         style="fill:#000000;fill-opacity:1;fill-rule:nonzero;stroke:#000000;stroke-opacity:1" />
      <path
         id="path14"
         d="m 62.707437,95.638406 c -0.386718,0.128907 -0.644531,0.222657 -1.40625,0.433594 -0.105468,1.089844 -0.457031,2.027344 -1.289062,3.398438 l 0.199219,0.164062 0.585937,-0.28125 c 1.160156,-1.5 1.710938,-2.402344 2.109375,-3.503906 z m 11.613282,-4.5 c -0.796875,-0.339843 -1.207032,-0.457031 -1.699219,-0.457031 -0.386719,0 -0.738281,0.08203 -1.089844,0.269531 l -1.265625,0.667969 c -0.820312,0.421875 -1.347656,1.476563 -1.347656,2.695313 0,1.148437 0.386719,2.085937 1.089844,2.660156 0.480468,0.421875 1.160156,0.609375 2.097656,0.609375 0.28125,0 0.609375,-0.05859 0.679687,-0.117188 l 1.59375,-1.335937 -0.07031,1.324219 c 0.703125,-0.03516 0.9375,-0.04687 1.101562,-0.04687 0.117188,0 0.316407,0 0.621094,0.01172 0.105469,0.01172 0.386719,0.01172 0.691406,0.03516 v -0.433594 l -0.667968,-0.04687 c -0.480469,-0.02344 -0.527344,-0.128906 -0.527344,-1.03125 v -8.835938 l -0.128906,-0.117187 c -0.632813,0.246094 -1.101563,0.363281 -2.238282,0.539062 v 0.398438 h 0.808594 c 0.257813,0 0.351563,0.152344 0.351563,0.585937 z m 0,3.09375 c 0,0.9375 -0.02344,1.078125 -0.210938,1.40625 -0.398437,0.679688 -1.101562,1.125 -1.78125,1.125 -1.265625,0 -2.167969,-1.21875 -2.167969,-2.929687 0,-1.558594 0.773438,-2.484375 2.074219,-2.484375 0.539063,0 1.113281,0.1875 1.617188,0.539062 0.304687,0.199219 0.46875,0.386719 0.46875,0.503907 z m 6.855468,-3.550781 c -2.085937,0 -3.539062,1.476563 -3.539062,3.609375 0,2.027344 1.277344,3.398438 3.128906,3.398438 2.203125,0 3.785156,-1.523438 3.785156,-3.679688 0,-1.933594 -1.40625,-3.328125 -3.375,-3.328125 z m -0.257812,0.46875 c 1.324219,0 2.296875,1.441406 2.296875,3.386719 0,1.652344 -0.726563,2.683594 -1.886719,2.683594 -1.40625,0 -2.355469,-1.371094 -2.355469,-3.410157 0,-1.722656 0.691407,-2.660156 1.945313,-2.660156 z m 9.978516,6.304688 c 0.878906,-0.04687 0.890625,-0.04687 1.136718,-0.04687 0.199219,0 0.199219,0 1.183594,0.04687 v -0.433594 l -0.585937,-0.04687 c -0.492188,-0.02344 -0.527344,-0.117188 -0.527344,-1.03125 v -2.765625 c 0,-1.675781 -0.796875,-2.496094 -2.402344,-2.496094 -0.527344,0 -0.832031,0.105469 -1.125,0.363281 l -1.089844,0.9375 v -1.242187 l -0.128906,-0.05859 c -0.738281,0.304688 -1.488281,0.503906 -2.238281,0.585938 v 0.398437 h 0.527344 c 0.574218,0 0.632812,0.105469 0.632812,1.054688 v 3.222656 c 0,0.902344 -0.04687,1.007812 -0.539062,1.03125 l -0.644532,0.04687 v 0.433594 c 0.984375,-0.03516 1.371094,-0.04687 1.78125,-0.04687 0.421875,0 0.808594,0.01172 1.78125,0.04687 v -0.433594 l -0.644531,-0.04687 c -0.492187,-0.02344 -0.527344,-0.128906 -0.527344,-1.03125 v -3.035156 c 0,-0.644532 0.9375,-1.347657 1.816407,-1.347657 0.960937,0 1.59375,0.714844 1.59375,1.816407 z m 8.373046,-6.316407 c -0.796875,-0.339843 -1.207031,-0.457031 -1.699218,-0.457031 -0.386719,0 -0.738282,0.08203 -1.089844,0.269531 l -1.265625,0.667969 c -0.820313,0.421875 -1.347656,1.476563 -1.347656,2.695313 0,1.148437 0.386718,2.085937 1.089843,2.660156 0.480469,0.421875 1.160157,0.609375 2.097657,0.609375 0.28125,0 0.609375,-0.05859 0.679687,-0.117188 l 1.59375,-1.335937 -0.07031,1.324219 c 0.703125,-0.03516 0.937499,-0.04687 1.101559,-0.04687 0.11719,0 0.31641,0 0.62109,0.01172 0.10547,0.01172 0.38672,0.01172 0.69141,0.03516 v -0.433594 l -0.66797,-0.04687 c -0.48047,-0.02344 -0.52734,-0.128906 -0.52734,-1.03125 v -8.835938 l -0.12891,-0.117187 c -0.632808,0.246094 -1.101558,0.363281 -2.238277,0.539062 v 0.398438 h 0.808594 c 0.257812,0 0.351562,0.152344 0.351562,0.585937 z m 0,3.09375 c 0,0.9375 -0.02344,1.078125 -0.210937,1.40625 -0.398438,0.679688 -1.101563,1.125 -1.78125,1.125 -1.265625,0 -2.167969,-1.21875 -2.167969,-2.929687 0,-1.558594 0.773438,-2.484375 2.074219,-2.484375 0.539062,0 1.113281,0.1875 1.617187,0.539062 0.304688,0.199219 0.46875,0.386719 0.46875,0.503907 z m 9.128903,2.167969 -0.1875,-0.140625 c -0.91406,0.550781 -1.2539,0.679688 -1.86328,0.679688 -0.9375,0 -1.71094,-0.421875 -2.10937,-1.125 -0.26953,-0.46875 -0.375,-0.878907 -0.39844,-1.710938 h 2.08594 c 0.99609,0 1.60547,-0.03516 2.60156,-0.199219 0.0117,-0.199218 0.0234,-0.328125 0.0234,-0.492187 0,-1.652344 -1.05469,-2.730469 -2.66016,-2.730469 -0.53906,0 -1.14844,0.1875 -1.73437,0.527344 -1.1836,0.679687 -1.65235,1.570312 -1.65235,3.058594 0,0.902343 0.21094,1.675781 0.59766,2.226562 0.57422,0.761719 1.53515,1.195313 2.61328,1.195313 0.52734,0 1.06641,-0.105469 1.65234,-0.363282 0.38672,-0.164062 0.69141,-0.351562 0.73828,-0.433593 z m -1.125,-2.824219 c -0.73828,0.03516 -1.08984,0.04687 -1.60547,0.04687 -0.65625,0 -1.03125,-0.01172 -1.80468,-0.08203 0,-0.679687 0.0586,-0.996094 0.24609,-1.371094 0.30469,-0.632812 0.91406,-1.019531 1.60547,-1.019531 0.46875,0 0.84375,0.1875 1.10156,0.574219 0.31641,0.480469 0.42188,0.890625 0.45703,1.851562 z m 12.64453,3.878907 c 0.87891,-0.04687 0.89063,-0.04687 1.13672,-0.04687 0.19922,0 0.19922,0 1.1836,0.04687 v -0.433594 l -0.58594,-0.04687 c -0.49219,-0.02344 -0.52734,-0.117188 -0.52734,-1.03125 v -2.765625 c 0,-1.675781 -0.79688,-2.496094 -2.40235,-2.496094 -0.52734,0 -0.83203,0.105469 -1.125,0.363281 l -1.08984,0.9375 v -1.242187 l -0.12891,-0.05859 c -0.73828,0.304688 -1.48828,0.503906 -2.23828,0.585938 v 0.398437 h 0.52734 c 0.57422,0 0.63282,0.105469 0.63282,1.054688 v 3.222656 c 0,0.902344 -0.0469,1.007812 -0.53907,1.03125 l -0.64453,0.04687 v 0.433594 c 0.98438,-0.03516 1.3711,-0.04687 1.78125,-0.04687 0.42188,0 0.8086,0.01172 1.78125,0.04687 v -0.433594 l -0.64453,-0.04687 c -0.49219,-0.02344 -0.52734,-0.128906 -0.52734,-1.03125 v -3.035156 c 0,-0.644532 0.9375,-1.347657 1.8164,-1.347657 0.96094,0 1.59375,0.714844 1.59375,1.816407 z m 13.78711,-1.054688 -0.1875,-0.140625 c -0.91406,0.550781 -1.2539,0.679688 -1.86328,0.679688 -0.9375,0 -1.71093,-0.421875 -2.10937,-1.125 -0.26953,-0.46875 -0.375,-0.878907 -0.39844,-1.710938 h 2.08594 c 0.99609,0 1.60547,-0.03516 2.60156,-0.199219 0.0117,-0.199218 0.0234,-0.328125 0.0234,-0.492187 0,-1.652344 -1.05469,-2.730469 -2.66016,-2.730469 -0.53906,0 -1.14844,0.1875 -1.73437,0.527344 -1.1836,0.679687 -1.65235,1.570312 -1.65235,3.058594 0,0.902343 0.21094,1.675781 0.59766,2.226562 0.57422,0.761719 1.53516,1.195313 2.61328,1.195313 0.52734,0 1.06641,-0.105469 1.65234,-0.363282 0.38672,-0.164062 0.69141,-0.351562 0.73829,-0.433593 z m -1.125,-2.824219 c -0.73828,0.03516 -1.08984,0.04687 -1.60546,0.04687 -0.65625,0 -1.03125,-0.01172 -1.80469,-0.08203 0,-0.679687 0.0586,-0.996094 0.24609,-1.371094 0.30469,-0.632812 0.91406,-1.019531 1.60547,-1.019531 0.46875,0 0.84375,0.1875 1.10156,0.574219 0.31641,0.480469 0.42188,0.890625 0.45703,1.851562 z m 2.31153,1.78125 c 0,0.984375 -0.0352,1.417969 -0.15235,1.992188 0.73829,0.246094 1.30079,0.339844 1.95704,0.339844 1.88671,0 3.22265,-0.996094 3.22265,-2.402344 0,-0.445313 -0.1289,-0.773438 -0.41015,-1.066406 -0.375,-0.351563 -0.84375,-0.527344 -2.10938,-0.773438 -1.17187,-0.222656 -1.55859,-0.515625 -1.55859,-1.171875 0,-0.714844 0.5039,-1.125 1.37109,-1.125 0.96094,0 1.69922,0.503906 1.69922,1.183594 v 0.328125 h 0.39844 c 0.0117,-0.832031 0.0352,-1.183594 0.0703,-1.617188 -0.76172,-0.257812 -1.27734,-0.363281 -1.86328,-0.363281 -1.66406,0 -2.6836,0.785156 -2.6836,2.074219 0,0.691406 0.31641,1.183594 0.98438,1.476562 0.38672,0.175782 1.13672,0.410157 2.12109,0.621094 0.64453,0.140625 0.91407,0.445313 0.91407,0.996094 0,0.773437 -0.71485,1.3125 -1.73438,1.3125 -1.04297,0 -1.79297,-0.503906 -1.79297,-1.21875 v -0.585938 z m 17.75097,-4.617187 -0.1289,-0.05859 c -0.73828,0.304688 -1.47656,0.503906 -2.23828,0.585938 v 0.398437 h 0.52734 c 0.57422,0 0.63281,0.105469 0.63281,1.054688 v 2.332031 c 0,0.316406 -0.19922,0.714844 -0.52734,1.054687 -0.41016,0.398438 -0.86719,0.597657 -1.42969,0.597657 -0.49219,0 -0.90234,-0.152344 -1.125,-0.433594 -0.19922,-0.222656 -0.30469,-0.667969 -0.30469,-1.300781 v -4.230469 l -0.1289,-0.05859 c -0.72656,0.304688 -1.47656,0.503906 -2.23828,0.585938 v 0.398437 h 0.52734 c 0.57422,0 0.63281,0.105469 0.63281,1.054688 v 2.402343 c 0,1.007813 0.0937,1.453125 0.35157,1.816407 0.30468,0.421875 0.85546,0.644531 1.67578,0.644531 0.64453,0 1.21875,-0.199219 1.60547,-0.5625 l 0.96093,-0.890625 c 0,0.421875 -0.0117,0.644531 -0.0586,1.324219 0.96094,-0.04687 0.97266,-0.04687 1.19531,-0.04687 0.19922,0 0.19922,0 1.1836,0.04687 v -0.433594 l -0.58594,-0.04687 c -0.49219,-0.02344 -0.52735,-0.117188 -0.52735,-1.03125 z m 7.31543,6.714844 c 0.87891,-0.04687 0.89063,-0.04687 1.13672,-0.04687 0.19922,0 0.19922,0 1.1836,0.04687 v -0.433594 l -0.58594,-0.04687 c -0.49219,-0.02344 -0.52734,-0.117188 -0.52734,-1.03125 v -2.765625 c 0,-1.675781 -0.79688,-2.496094 -2.40235,-2.496094 -0.52734,0 -0.83203,0.105469 -1.125,0.363281 l -1.08984,0.9375 v -1.242187 l -0.12891,-0.05859 c -0.73828,0.304688 -1.48828,0.503906 -2.23828,0.585938 v 0.398437 h 0.52734 c 0.57422,0 0.63282,0.105469 0.63282,1.054688 v 3.222656 c 0,0.902344 -0.0469,1.007812 -0.53907,1.03125 l -0.64453,0.04687 v 0.433594 c 0.98438,-0.03516 1.3711,-0.04687 1.78125,-0.04687 0.42188,0 0.8086,0.01172 1.78125,0.04687 v -0.433594 l -0.64453,-0.04687 c -0.49219,-0.02344 -0.52734,-0.128906 -0.52734,-1.03125 v -3.035156 c 0,-0.644532 0.9375,-1.347657 1.8164,-1.347657 0.96094,0 1.59375,0.714844 1.59375,1.816407 z m 13.78711,-1.054688 -0.1875,-0.140625 c -0.91406,0.550781 -1.2539,0.679688 -1.86328,0.679688 -0.9375,0 -1.71094,-0.421875 -2.10937,-1.125 -0.26953,-0.46875 -0.375,-0.878907 -0.39844,-1.710938 h 2.08594 c 0.99609,0 1.60547,-0.03516 2.60156,-0.199219 0.0117,-0.199218 0.0234,-0.328125 0.0234,-0.492187 0,-1.652344 -1.05469,-2.730469 -2.66016,-2.730469 -0.53906,0 -1.14844,0.1875 -1.73437,0.527344 -1.1836,0.679687 -1.65235,1.570312 -1.65235,3.058594 0,0.902343 0.21094,1.675781 0.59766,2.226562 0.57422,0.761719 1.53515,1.195313 2.61328,1.195313 0.52734,0 1.06641,-0.105469 1.65234,-0.363282 0.38672,-0.164062 0.69141,-0.351562 0.73828,-0.433593 z m -1.125,-2.824219 c -0.73828,0.03516 -1.08984,0.04687 -1.60547,0.04687 -0.65625,0 -1.03125,-0.01172 -1.80468,-0.08203 0,-0.679687 0.0586,-0.996094 0.24609,-1.371094 0.30469,-0.632812 0.91406,-1.019531 1.60547,-1.019531 0.46875,0 0.84375,0.1875 1.10156,0.574219 0.31641,0.480469 0.42188,0.890625 0.45703,1.851562 z m 7.6084,3.878907 c 0.87891,-0.04687 0.89063,-0.04687 1.13672,-0.04687 0.19922,0 0.19922,0 1.18359,0.04687 v -0.433594 l -0.58593,-0.04687 c -0.49219,-0.02344 -0.52735,-0.117188 -0.52735,-1.03125 v -2.765625 c 0,-1.675781 -0.79687,-2.496094 -2.40234,-2.496094 -0.52734,0 -0.83203,0.105469 -1.125,0.363281 l -1.08984,0.9375 v -1.242187 l -0.12891,-0.05859 c -0.73828,0.304688 -1.48828,0.503906 -2.23828,0.585938 v 0.398437 h 0.52734 c 0.57422,0 0.63281,0.105469 0.63281,1.054688 v 3.222656 c 0,0.902344 -0.0469,1.007812 -0.53906,1.03125 l -0.64453,0.04687 v 0.433594 c 0.98438,-0.03516 1.37109,-0.04687 1.78125,-0.04687 0.42188,0 0.80859,0.01172 1.78125,0.04687 v -0.433594 l -0.64453,-0.04687 c -0.49219,-0.02344 -0.52734,-0.128906 -0.52734,-1.03125 v -3.035156 c 0,-0.644532 0.9375,-1.347657 1.8164,-1.347657 0.96094,0 1.59375,0.714844 1.59375,1.816407 z m 3.87305,-5.53125 v 4.136718 c 0,1.066407 0.46875,1.523438 1.58203,1.523438 0.32812,0 0.66797,-0.07031 0.75,-0.175781 l 0.69141,-0.761719 -0.1875,-0.246094 c -0.35157,0.199219 -0.57422,0.28125 -0.84375,0.28125 -0.5625,0 -0.78516,-0.292969 -0.78516,-0.996094 v -3.761718 h 1.82812 l 0.12891,-0.773438 -1.95703,0.09375 v -0.550781 c 0,-0.597656 0.0352,-1.113281 0.15234,-2.039063 l -0.16406,-0.152343 c -0.35156,0.210937 -0.78516,0.398437 -1.21875,0.539062 0.0352,0.433594 0.0469,0.703125 0.0469,1.136719 v 1.007812 l -1.11329,0.503907 v 0.292968 z m 9.54199,4.476562 -0.1875,-0.140625 c -0.91406,0.550781 -1.25391,0.679688 -1.86328,0.679688 -0.9375,0 -1.71094,-0.421875 -2.10938,-1.125 -0.26953,-0.46875 -0.375,-0.878907 -0.39843,-1.710938 h 2.08593 c 0.9961,0 1.60547,-0.03516 2.60157,-0.199219 0.0117,-0.199218 0.0234,-0.328125 0.0234,-0.492187 0,-1.652344 -1.05468,-2.730469 -2.66015,-2.730469 -0.53906,0 -1.14844,0.1875 -1.73438,0.527344 -1.18359,0.679687 -1.65234,1.570312 -1.65234,3.058594 0,0.902343 0.21094,1.675781 0.59766,2.226562 0.57421,0.761719 1.53515,1.195313 2.61328,1.195313 0.52734,0 1.0664,-0.105469 1.65234,-0.363282 0.38672,-0.164062 0.69141,-0.351562 0.73828,-0.433593 z m -1.125,-2.824219 c -0.73828,0.03516 -1.08984,0.04687 -1.60547,0.04687 -0.65625,0 -1.03125,-0.01172 -1.80469,-0.08203 0,-0.679687 0.0586,-0.996094 0.2461,-1.371094 0.30469,-0.632812 0.91406,-1.019531 1.60547,-1.019531 0.46875,0 0.84375,0.1875 1.10156,0.574219 0.31641,0.480469 0.42187,0.890625 0.45703,1.851562 z m 2.05371,-1.910156 h 0.52735 c 0.57421,0 0.63281,0.105469 0.63281,1.054688 v 3.222656 c 0,0.902344 -0.0352,1.007812 -0.52735,1.03125 l -0.65625,0.04687 v 0.433594 c 1.03125,-0.03516 1.40625,-0.04687 1.75782,-0.04687 0.29297,0 0.29297,0 2.05078,0.04687 v -0.433594 l -0.73828,-0.04687 c -0.64453,-0.03516 -0.67969,-0.08203 -0.67969,-1.03125 v -2.460938 c 0,-0.867187 0.57422,-1.582031 1.27734,-1.582031 0.4336,0 0.72657,0.199219 0.96094,0.65625 h 0.30469 l 0.1289,-1.722656 c -0.16406,-0.09375 -0.42187,-0.152344 -0.67968,-0.152344 -0.42188,0 -0.89063,0.234375 -1.1836,0.585938 l -0.80859,0.949218 v -1.476562 l -0.12891,-0.05859 c -0.72656,0.304688 -1.47656,0.503906 -2.23828,0.585938 z m 9.20508,-0.984375 c -2.08594,0 -3.53906,1.476563 -3.53906,3.609375 0,2.027344 1.27734,3.398438 3.1289,3.398438 2.20313,0 3.78516,-1.523438 3.78516,-3.679688 0,-1.933594 -1.40625,-3.328125 -3.375,-3.328125 z m -0.25781,0.46875 c 1.32422,0 2.29687,1.441406 2.29687,3.386719 0,1.652344 -0.72656,2.683594 -1.88672,2.683594 -1.40625,0 -2.35547,-1.371094 -2.35547,-3.410157 0,-1.722656 0.69141,-2.660156 1.94532,-2.660156 z m 9.27246,0.515625 h 0.53906 c 0.5625,0 0.62109,0.105469 0.62109,1.054688 v 7.207031 c 0,0.914061 -0.0352,1.007811 -0.52734,1.042971 l -0.65625,0.0352 v 0.4336 c 1.42969,-0.0469 1.42969,-0.0469 1.79297,-0.0469 0.35156,0 0.35156,0 1.79297,0.0469 v -0.4336 l -0.66797,-0.0352 c -0.48047,-0.0352 -0.52734,-0.12891 -0.52734,-1.042971 v -2.707031 c 0.43359,0.257812 0.89062,0.363281 1.53515,0.363281 0.42188,0 0.78516,-0.09375 1.01953,-0.234375 l 1.64063,-1.054688 c 0.57422,-0.375 1.24219,-1.851562 1.24219,-2.777343 0,-1.59375 -1.32422,-2.835938 -2.97657,-2.835938 -0.53906,0 -1.05468,0.140625 -1.27734,0.363281 l -1.18359,1.066407 v -1.371094 l -0.12891,-0.05859 c -0.72656,0.304688 -1.47656,0.503906 -2.23828,0.585938 z m 2.36719,1.347656 c 0,-0.199218 0.0703,-0.351562 0.25781,-0.597656 0.42187,-0.527344 1.00781,-0.796875 1.72265,-0.796875 1.34766,0 2.21485,0.9375 2.21485,2.4375 0,1.605469 -0.96094,2.789063 -2.26172,2.789063 -0.78516,0 -1.37109,-0.257813 -1.93359,-0.84375 z m 10.11035,-2.332031 c -2.08594,0 -3.53907,1.476563 -3.53907,3.609375 0,2.027344 1.27735,3.398438 3.12891,3.398438 2.20313,0 3.78516,-1.523438 3.78516,-3.679688 0,-1.933594 -1.40625,-3.328125 -3.375,-3.328125 z m -0.25782,0.46875 c 1.32422,0 2.29688,1.441406 2.29688,3.386719 0,1.652344 -0.72656,2.683594 -1.88672,2.683594 -1.40625,0 -2.35547,-1.371094 -2.35547,-3.410157 0,-1.722656 0.69141,-2.660156 1.94531,-2.660156 z m 4.67872,4.207031 c 0,0.984375 -0.0352,1.417969 -0.15235,1.992188 0.73828,0.246094 1.30078,0.339844 1.95703,0.339844 1.88672,0 3.22266,-0.996094 3.22266,-2.402344 0,-0.445313 -0.12891,-0.773438 -0.41016,-1.066406 -0.375,-0.351563 -0.84375,-0.527344 -2.10937,-0.773438 -1.17188,-0.222656 -1.5586,-0.515625 -1.5586,-1.171875 0,-0.714844 0.50391,-1.125 1.3711,-1.125 0.96094,0 1.69922,0.503906 1.69922,1.183594 v 0.328125 h 0.39843 c 0.0117,-0.832031 0.0352,-1.183594 0.0703,-1.617188 -0.76172,-0.257812 -1.27735,-0.363281 -1.86328,-0.363281 -1.66407,0 -2.6836,0.785156 -2.6836,2.074219 0,0.691406 0.31641,1.183594 0.98438,1.476562 0.38672,0.175782 1.13672,0.410157 2.12109,0.621094 0.64453,0.140625 0.91406,0.445313 0.91406,0.996094 0,0.773437 -0.71484,1.3125 -1.73437,1.3125 -1.04297,0 -1.79297,-0.503906 -1.79297,-1.21875 v -0.585938 z m 8.19433,-4.617187 -0.1289,-0.05859 c -0.72657,0.304688 -1.47657,0.503906 -2.23829,0.585938 v 0.398437 h 0.52735 c 0.57422,0 0.63281,0.105469 0.63281,1.054688 v 3.222656 c 0,0.902344 -0.0352,1.007812 -0.52734,1.03125 l -0.65625,0.04687 v 0.433594 c 1.42968,-0.04687 1.42968,-0.04687 1.79297,-0.04687 0.35156,0 0.35156,0 1.79296,0.04687 v -0.433594 l -0.66796,-0.04687 c -0.48047,-0.02344 -0.52735,-0.128906 -0.52735,-1.03125 z m -0.65625,-3.1875 c -0.43359,0 -0.80859,0.375 -0.80859,0.808594 0,0.410156 0.375,0.785156 0.79687,0.785156 0.41016,0 0.79688,-0.375 0.79688,-0.785156 0,-0.410157 -0.38672,-0.808594 -0.78516,-0.808594 z m 3.54199,4.371094 v 4.136718 c 0,1.066407 0.46875,1.523438 1.58204,1.523438 0.32812,0 0.66796,-0.07031 0.75,-0.175781 l 0.6914,-0.761719 -0.1875,-0.246094 c -0.35156,0.199219 -0.57422,0.28125 -0.84375,0.28125 -0.5625,0 -0.78515,-0.292969 -0.78515,-0.996094 v -3.761718 h 1.82812 l 0.12891,-0.773438 -1.95703,0.09375 v -0.550781 c 0,-0.597656 0.0352,-1.113281 0.15234,-2.039063 l -0.16406,-0.152343 c -0.35157,0.210937 -0.78516,0.398437 -1.21875,0.539062 0.0352,0.433594 0.0469,0.703125 0.0469,1.136719 v 1.007812 l -1.11328,0.503907 v 0.292968 z m 5.96485,-1.183594 -0.12891,-0.05859 c -0.72656,0.304688 -1.47656,0.503906 -2.23828,0.585938 v 0.398437 h 0.52734 c 0.57422,0 0.63282,0.105469 0.63282,1.054688 v 3.222656 c 0,0.902344 -0.0352,1.007812 -0.52735,1.03125 l -0.65625,0.04687 v 0.433594 c 1.42969,-0.04687 1.42969,-0.04687 1.79297,-0.04687 0.35156,0 0.35156,0 1.79297,0.04687 v -0.433594 l -0.66797,-0.04687 c -0.48047,-0.02344 -0.52734,-0.128906 -0.52734,-1.03125 z m -0.65625,-3.1875 c -0.4336,0 -0.8086,0.375 -0.8086,0.808594 0,0.410156 0.375,0.785156 0.79688,0.785156 0.41016,0 0.79687,-0.375 0.79687,-0.785156 0,-0.410157 -0.38671,-0.808594 -0.78515,-0.808594 z m 9.87011,3.667969 V 90.822 c -0.86718,0.03516 -1.125,0.04687 -1.34765,0.04687 -0.23438,0 -0.49219,-0.01172 -1.34766,-0.04687 v 0.398438 l 0.58594,0.03516 c 0.22266,0.01172 0.33984,0.140625 0.33984,0.375 0,0.222656 -0.0937,0.609375 -0.26953,1.042969 L 253.31291,94.197 c -0.17579,0.410156 -0.35157,0.820313 -0.89063,2.003906 l -1.71094,-4.125 c -0.082,-0.199218 -0.1289,-0.386718 -0.1289,-0.550781 0,-0.152344 0.1289,-0.257812 0.36328,-0.269531 l 0.70312,-0.03516 V 90.822 c -1.40625,0.04687 -1.40625,0.04687 -1.6875,0.04687 -0.26953,0 -0.96093,-0.01172 -1.66406,-0.04687 v 0.398438 l 0.49219,0.03516 c 0.21094,0.02344 0.28125,0.117187 0.44531,0.46875 l 2.46094,5.789062 h 0.72656 c 0.082,-0.246093 0.22266,-0.621093 0.22266,-0.65625 0.16406,-0.421875 0.35156,-0.914062 0.36328,-0.914062 l 1.6875,-3.726563 c 0.3164,-0.679687 0.51562,-0.9375 0.80859,-0.960937 z m 3.79395,-0.539063 c -2.08594,0 -3.53906,1.476563 -3.53906,3.609375 0,2.027344 1.27734,3.398438 3.1289,3.398438 2.20313,0 3.78516,-1.523438 3.78516,-3.679688 0,-1.933594 -1.40625,-3.328125 -3.375,-3.328125 z m -0.25781,0.46875 c 1.32422,0 2.29687,1.441406 2.29687,3.386719 0,1.652344 -0.72656,2.683594 -1.88672,2.683594 -1.40625,0 -2.35546,-1.371094 -2.35546,-3.410157 0,-1.722656 0.6914,-2.660156 1.94531,-2.660156 z m 9.72949,4.207031 c 0,0.984375 -0.0352,1.417969 -0.15234,1.992188 0.73828,0.246094 1.30078,0.339844 1.95703,0.339844 1.88672,0 3.22265,-0.996094 3.22265,-2.402344 0,-0.445313 -0.1289,-0.773438 -0.41015,-1.066406 -0.375,-0.351563 -0.84375,-0.527344 -2.10938,-0.773438 -1.17187,-0.222656 -1.55859,-0.515625 -1.55859,-1.171875 0,-0.714844 0.5039,-1.125 1.37109,-1.125 0.96094,0 1.69922,0.503906 1.69922,1.183594 v 0.328125 h 0.39844 c 0.0117,-0.832031 0.0351,-1.183594 0.0703,-1.617188 -0.76172,-0.257812 -1.27734,-0.363281 -1.86328,-0.363281 -1.66406,0 -2.68359,0.785156 -2.68359,2.074219 0,0.691406 0.3164,1.183594 0.98437,1.476562 0.38672,0.175782 1.13672,0.410157 2.12109,0.621094 0.64454,0.140625 0.91407,0.445313 0.91407,0.996094 0,0.773437 -0.71485,1.3125 -1.73438,1.3125 -1.04297,0 -1.79297,-0.503906 -1.79297,-1.21875 v -0.585938 z m 11.76562,1.042969 -0.1875,-0.140625 c -0.91406,0.550781 -1.2539,0.679688 -1.86328,0.679688 -0.9375,0 -1.71093,-0.421875 -2.10937,-1.125 -0.26953,-0.46875 -0.375,-0.878907 -0.39844,-1.710938 h 2.08594 c 0.99609,0 1.60547,-0.03516 2.60156,-0.199219 0.0117,-0.199218 0.0234,-0.328125 0.0234,-0.492187 0,-1.652344 -1.05469,-2.730469 -2.66016,-2.730469 -0.53906,0 -1.14844,0.1875 -1.73437,0.527344 -1.1836,0.679687 -1.65235,1.570312 -1.65235,3.058594 0,0.902343 0.21094,1.675781 0.59766,2.226562 0.57422,0.761719 1.53516,1.195313 2.61328,1.195313 0.52734,0 1.06641,-0.105469 1.65234,-0.363282 0.38672,-0.164062 0.69141,-0.351562 0.73829,-0.433593 z m -1.125,-2.824219 c -0.73828,0.03516 -1.08984,0.04687 -1.60546,0.04687 -0.65625,0 -1.03125,-0.01172 -1.80469,-0.08203 0,-0.679687 0.0586,-0.996094 0.24609,-1.371094 0.30469,-0.632812 0.91406,-1.019531 1.60547,-1.019531 0.46875,0 0.84375,0.1875 1.10156,0.574219 0.31641,0.480469 0.42188,0.890625 0.45703,1.851562 z m 10.7754,-2.894531 c -2.08594,0 -3.53907,1.476563 -3.53907,3.609375 0,2.027344 1.27735,3.398438 3.12891,3.398438 2.20312,0 3.78516,-1.523438 3.78516,-3.679688 0,-1.933594 -1.40625,-3.328125 -3.375,-3.328125 z m -0.25782,0.46875 c 1.32422,0 2.29688,1.441406 2.29688,3.386719 0,1.652344 -0.72656,2.683594 -1.88672,2.683594 -1.40625,0 -2.35547,-1.371094 -2.35547,-3.410157 0,-1.722656 0.69141,-2.660156 1.94531,-2.660156 z m 6.24903,-4.042969 -0.12891,-0.117187 c -0.63281,0.246094 -1.11328,0.363281 -2.23828,0.539062 v 0.398438 h 0.79687 c 0.25782,0 0.36329,0.152344 0.36329,0.585937 v 6.703125 c 0,0.890625 -0.0117,1.277344 -0.11719,2.273438 l 0.23437,0.09375 0.57422,-0.515625 c 0.5625,0.363281 1.08985,0.515625 1.83985,0.515625 0.5625,0 0.9375,-0.105469 1.24218,-0.316406 l 1.42969,-1.03125 c 0.63281,-0.46875 1.13672,-1.652344 1.13672,-2.695313 0,-1.664062 -1.07813,-2.859375 -2.60156,-2.859375 -0.66797,0 -1.3711,0.257813 -1.7461,0.632813 l -0.78515,0.796875 z m 0,5.882813 c 0,-0.199219 0.14062,-0.457031 0.36328,-0.714844 0.41015,-0.421875 0.96094,-0.65625 1.55859,-0.65625 1.19531,0 1.95703,0.972656 1.95703,2.507813 0,1.605468 -0.85547,2.71875 -2.07422,2.71875 -0.75,0 -1.80468,-0.457032 -1.80468,-0.773438 z m 7.18359,-1.066406 v 4.136718 c 0,1.066407 0.46875,1.523438 1.58203,1.523438 0.32813,0 0.66797,-0.07031 0.75,-0.175781 l 0.69141,-0.761719 -0.1875,-0.246094 c -0.35156,0.199219 -0.57422,0.28125 -0.84375,0.28125 -0.5625,0 -0.78516,-0.292969 -0.78516,-0.996094 v -3.761718 h 1.82813 l 0.1289,-0.773438 -1.95703,0.09375 v -0.550781 c 0,-0.597656 0.0352,-1.113281 0.15235,-2.039063 l -0.16407,-0.152343 c -0.35156,0.210937 -0.78515,0.398437 -1.21875,0.539062 0.0352,0.433594 0.0469,0.703125 0.0469,1.136719 v 1.007812 l -1.11328,0.503907 v 0.292968 z m 5.96777,-1.183594 -0.1289,-0.05859 c -0.72657,0.304688 -1.47657,0.503906 -2.23828,0.585938 v 0.398437 h 0.52734 c 0.57422,0 0.63281,0.105469 0.63281,1.054688 v 3.222656 c 0,0.902344 -0.0351,1.007812 -0.52734,1.03125 l -0.65625,0.04687 v 0.433594 c 1.42969,-0.04687 1.42969,-0.04687 1.79297,-0.04687 0.35156,0 0.35156,0 1.79297,0.04687 v -0.433594 l -0.66797,-0.04687 c -0.48047,-0.02344 -0.52735,-0.128906 -0.52735,-1.03125 z m -0.65625,-3.1875 c -0.43359,0 -0.80859,0.375 -0.80859,0.808594 0,0.410156 0.375,0.785156 0.79687,0.785156 0.41016,0 0.79688,-0.375 0.79688,-0.785156 0,-0.410157 -0.38672,-0.808594 -0.78516,-0.808594 z m 8.40528,8.847656 -0.1875,-0.140625 c -0.91407,0.550781 -1.25391,0.679688 -1.86328,0.679688 -0.9375,0 -1.71094,-0.421875 -2.10938,-1.125 -0.26953,-0.46875 -0.375,-0.878907 -0.39844,-1.710938 h 2.08594 c 0.99609,0 1.60547,-0.03516 2.60156,-0.199219 0.0117,-0.199218 0.0234,-0.328125 0.0234,-0.492187 0,-1.652344 -1.05469,-2.730469 -2.66016,-2.730469 -0.53906,0 -1.14843,0.1875 -1.73437,0.527344 -1.18359,0.679687 -1.65234,1.570312 -1.65234,3.058594 0,0.902343 0.21093,1.675781 0.59765,2.226562 0.57422,0.761719 1.53516,1.195313 2.61328,1.195313 0.52735,0 1.06641,-0.105469 1.65235,-0.363282 0.38672,-0.164062 0.6914,-0.351562 0.73828,-0.433593 z m -1.125,-2.824219 c -0.73828,0.03516 -1.08985,0.04687 -1.60547,0.04687 -0.65625,0 -1.03125,-0.01172 -1.80469,-0.08203 0,-0.679687 0.0586,-0.996094 0.24609,-1.371094 0.30469,-0.632812 0.91407,-1.019531 1.60547,-1.019531 0.46875,0 0.84375,0.1875 1.10157,0.574219 0.3164,0.480469 0.42187,0.890625 0.45703,1.851562 z m 7.6084,3.878907 c 0.8789,-0.04687 0.89062,-0.04687 1.13671,-0.04687 0.19922,0 0.19922,0 1.1836,0.04687 v -0.433594 l -0.58594,-0.04687 c -0.49219,-0.02344 -0.52734,-0.117188 -0.52734,-1.03125 v -2.765625 c 0,-1.675781 -0.79688,-2.496094 -2.40235,-2.496094 -0.52734,0 -0.83203,0.105469 -1.125,0.363281 l -1.08984,0.9375 v -1.242187 l -0.12891,-0.05859 c -0.73828,0.304688 -1.48828,0.503906 -2.23828,0.585938 v 0.398437 h 0.52735 c 0.57421,0 0.63281,0.105469 0.63281,1.054688 v 3.222656 c 0,0.902344 -0.0469,1.007812 -0.53906,1.03125 l -0.64454,0.04687 v 0.433594 c 0.98438,-0.03516 1.3711,-0.04687 1.78125,-0.04687 0.42188,0 0.8086,0.01172 1.78125,0.04687 v -0.433594 l -0.64453,-0.04687 c -0.49218,-0.02344 -0.52734,-0.128906 -0.52734,-1.03125 v -3.035156 c 0,-0.644532 0.9375,-1.347657 1.81641,-1.347657 0.96093,0 1.59375,0.714844 1.59375,1.816407 z m 8.73632,-1.054688 -0.1875,-0.140625 c -0.91406,0.550781 -1.2539,0.679688 -1.86328,0.679688 -0.9375,0 -1.71094,-0.421875 -2.10937,-1.125 -0.26953,-0.46875 -0.375,-0.878907 -0.39844,-1.710938 h 2.08594 c 0.99609,0 1.60547,-0.03516 2.60156,-0.199219 0.0117,-0.199218 0.0234,-0.328125 0.0234,-0.492187 0,-1.652344 -1.05469,-2.730469 -2.66016,-2.730469 -0.53906,0 -1.14844,0.1875 -1.73437,0.527344 -1.1836,0.679687 -1.65235,1.570312 -1.65235,3.058594 0,0.902343 0.21094,1.675781 0.59766,2.226562 0.57422,0.761719 1.53515,1.195313 2.61328,1.195313 0.52734,0 1.06641,-0.105469 1.65234,-0.363282 0.38672,-0.164062 0.69141,-0.351562 0.73828,-0.433593 z m -1.125,-2.824219 c -0.73828,0.03516 -1.08984,0.04687 -1.60547,0.04687 -0.65625,0 -1.03125,-0.01172 -1.80468,-0.08203 0,-0.679687 0.0586,-0.996094 0.24609,-1.371094 0.30469,-0.632812 0.91406,-1.019531 1.60547,-1.019531 0.46875,0 0.84375,0.1875 1.10156,0.574219 0.31641,0.480469 0.42188,0.890625 0.45703,1.851562 z m 2.31446,1.78125 c 0,0.984375 -0.0352,1.417969 -0.15235,1.992188 0.73828,0.246094 1.30078,0.339844 1.95703,0.339844 1.88672,0 3.22266,-0.996094 3.22266,-2.402344 0,-0.445313 -0.12891,-0.773438 -0.41016,-1.066406 -0.375,-0.351563 -0.84375,-0.527344 -2.10937,-0.773438 -1.17188,-0.222656 -1.55859,-0.515625 -1.55859,-1.171875 0,-0.714844 0.5039,-1.125 1.37109,-1.125 0.96094,0 1.69922,0.503906 1.69922,1.183594 v 0.328125 h 0.39844 c 0.0117,-0.832031 0.0352,-1.183594 0.0703,-1.617188 -0.76172,-0.257812 -1.27735,-0.363281 -1.86328,-0.363281 -1.66407,0 -2.6836,0.785156 -2.6836,2.074219 0,0.691406 0.31641,1.183594 0.98438,1.476562 0.38672,0.175782 1.13672,0.410157 2.12109,0.621094 0.64453,0.140625 0.91406,0.445313 0.91406,0.996094 0,0.773437 -0.71484,1.3125 -1.73437,1.3125 -1.04297,0 -1.79297,-0.503906 -1.79297,-1.21875 v -0.585938 z m 10.86035,-7.429687 h 0.80859 c 0.25781,0 0.35156,0.152344 0.35156,0.585937 v 7.429688 c 0,0.902344 -0.0351,1.007812 -0.52734,1.03125 l -0.65625,0.04687 v 0.433594 c 1.42969,-0.04687 1.42969,-0.04687 1.79297,-0.04687 0.35156,0 0.35156,0 1.79297,0.04687 v -0.433594 l -0.66797,-0.04687 c -0.48047,-0.02344 -0.52734,-0.128906 -0.52734,-1.03125 v -8.835938 l -0.12891,-0.117187 c -0.63281,0.246094 -1.10156,0.363281 -2.23828,0.539062 z m 8.49902,8.308594 -0.082,1.21875 c 0.9375,-0.04687 0.9375,-0.04687 1.125,-0.04687 0.0703,0 0.43359,0.01172 1.06641,0.04687 v -0.433594 l -0.5625,-0.02344 c -0.35157,-0.02344 -0.41016,-0.140625 -0.41016,-0.832031 v -2.625 c 0,-2.097656 -0.59766,-2.859375 -2.26172,-2.859375 -0.62109,0 -1.18359,0.152344 -1.73437,0.492188 l -0.76172,0.457031 v 0.925781 l 0.375,0.105469 0.1875,-0.445313 c 0.30469,-0.679687 0.44531,-0.773437 1.10156,-0.773437 1.34766,0 1.91016,0.527344 1.95703,1.828125 l -1.42969,0.269531 c -1.94531,0.351563 -2.76562,1.03125 -2.76562,2.273438 0,1.125 0.67969,1.769531 1.80469,1.769531 0.25781,0 0.5039,-0.04687 0.60937,-0.117188 z m 0,-0.609375 c -0.42187,0.585937 -1.32422,1.136718 -1.88672,1.136718 -0.57422,0 -1.07812,-0.527343 -1.07812,-1.148437 0,-0.527344 0.29297,-1.03125 0.72656,-1.300781 0.35156,-0.222657 1.14844,-0.421875 2.23828,-0.574219 z m 3.10547,-0.269532 c 0,0.984375 -0.0352,1.417969 -0.15234,1.992188 0.73828,0.246094 1.30078,0.339844 1.95703,0.339844 1.88672,0 3.22265,-0.996094 3.22265,-2.402344 0,-0.445313 -0.1289,-0.773438 -0.41015,-1.066406 -0.375,-0.351563 -0.84375,-0.527344 -2.10938,-0.773438 -1.17187,-0.222656 -1.55859,-0.515625 -1.55859,-1.171875 0,-0.714844 0.50391,-1.125 1.37109,-1.125 0.96094,0 1.69922,0.503906 1.69922,1.183594 v 0.328125 h 0.39844 c 0.0117,-0.832031 0.0352,-1.183594 0.0703,-1.617188 -0.76172,-0.257812 -1.27734,-0.363281 -1.86328,-0.363281 -1.66406,0 -2.68359,0.785156 -2.68359,2.074219 0,0.691406 0.3164,1.183594 0.98437,1.476562 0.38672,0.175782 1.13672,0.410157 2.1211,0.621094 0.64453,0.140625 0.91406,0.445313 0.91406,0.996094 0,0.773437 -0.71485,1.3125 -1.73438,1.3125 -1.04297,0 -1.79297,-0.503906 -1.79297,-1.21875 v -0.585938 z m 15.43359,-8.238281 c -0.29296,-0.105469 -0.46875,-0.152344 -0.65625,-0.152344 -0.45703,0 -0.96093,0.246094 -1.27734,0.597657 l -0.83203,0.949218 c -0.41016,0.480469 -0.59766,1.125 -0.59766,2.0625 v 0.609375 l -0.99609,0.445313 V 91.947 l 0.99609,-0.05859 v 4.054688 c 0,0.902344 -0.0469,1.007812 -0.53906,1.03125 l -0.65625,0.04687 v 0.433594 c 1.44141,-0.04687 1.44141,-0.04687 1.79297,-0.04687 0.36328,0 0.36328,0 1.79297,0.04687 v -0.433594 l -0.65625,-0.04687 c -0.49219,-0.02344 -0.52735,-0.128906 -0.52735,-1.03125 V 91.88841 h 1.76954 l 0.10546,-0.761718 -1.875,0.05859 v -1.21875 c 0,-1.652343 0.17579,-2.050781 0.9961,-2.050781 0.38672,0 0.64453,0.09375 0.99609,0.398438 l 0.16406,-0.08203 z m 7.11036,3.621094 -0.12891,-0.05859 c -0.73828,0.304688 -1.47656,0.503906 -2.23828,0.585938 v 0.398437 h 0.52734 c 0.57422,0 0.63281,0.105469 0.63281,1.054688 v 2.332031 c 0,0.316406 -0.19921,0.714844 -0.52734,1.054687 -0.41016,0.398438 -0.86719,0.597657 -1.42969,0.597657 -0.49218,0 -0.90234,-0.152344 -1.125,-0.433594 -0.19922,-0.222656 -0.30468,-0.667969 -0.30468,-1.300781 v -4.230469 l -0.12891,-0.05859 c -0.72656,0.304688 -1.47656,0.503906 -2.23828,0.585938 v 0.398437 h 0.52734 c 0.57422,0 0.63281,0.105469 0.63281,1.054688 v 2.402343 c 0,1.007813 0.0937,1.453125 0.35157,1.816407 0.30468,0.421875 0.85547,0.644531 1.67578,0.644531 0.64453,0 1.21875,-0.199219 1.60547,-0.5625 l 0.96093,-0.890625 c 0,0.421875 -0.0117,0.644531 -0.0586,1.324219 0.96094,-0.04687 0.97266,-0.04687 1.19531,-0.04687 0.19922,0 0.19922,0 1.1836,0.04687 v -0.433594 l -0.58594,-0.04687 c -0.49219,-0.02344 -0.52734,-0.117188 -0.52734,-1.03125 z m 7.31543,6.714844 c 0.8789,-0.04687 0.89062,-0.04687 1.13671,-0.04687 0.19922,0 0.19922,0 1.1836,0.04687 v -0.433594 l -0.58594,-0.04687 c -0.49219,-0.02344 -0.52734,-0.117188 -0.52734,-1.03125 v -2.765625 c 0,-1.675781 -0.79688,-2.496094 -2.40235,-2.496094 -0.52734,0 -0.83203,0.105469 -1.125,0.363281 l -1.08984,0.9375 v -1.242187 l -0.12891,-0.05859 c -0.73828,0.304688 -1.48828,0.503906 -2.23828,0.585938 v 0.398437 h 0.52735 c 0.57421,0 0.63281,0.105469 0.63281,1.054688 v 3.222656 c 0,0.902344 -0.0469,1.007812 -0.53906,1.03125 l -0.64454,0.04687 v 0.433594 c 0.98438,-0.03516 1.3711,-0.04687 1.78125,-0.04687 0.42188,0 0.8086,0.01172 1.78125,0.04687 v -0.433594 l -0.64453,-0.04687 c -0.49218,-0.02344 -0.52734,-0.128906 -0.52734,-1.03125 v -3.035156 c 0,-0.644532 0.9375,-1.347657 1.81641,-1.347657 0.96093,0 1.59375,0.714844 1.59375,1.816407 z m 8.18554,-4.511719 c 0,-0.65625 0.0703,-1.242188 0.21094,-1.757813 -0.57422,-0.351562 -1.07813,-0.503906 -1.66406,-0.503906 -0.69141,0 -1.5,0.269531 -2.35547,0.820313 -1.00781,0.632812 -1.53516,1.628906 -1.53516,2.894531 0,1.933594 1.35938,3.292969 3.28125,3.292969 0.75,0 1.82813,-0.269532 1.96875,-0.480469 l 0.30469,-0.457031 -0.15234,-0.222657 c -0.52735,0.292969 -0.98438,0.421875 -1.5,0.421875 -1.59375,0 -2.63672,-1.230468 -2.63672,-3.128906 0,-1.535156 0.71484,-2.390625 2.0039,-2.390625 0.63282,0 1.32422,0.28125 1.58203,0.644531 l 0.0937,0.867188 z m 3.34571,-2.203125 -0.12891,-0.05859 c -0.72656,0.304688 -1.47656,0.503906 -2.23828,0.585938 v 0.398437 h 0.52734 c 0.57422,0 0.63281,0.105469 0.63281,1.054688 v 3.222656 c 0,0.902344 -0.0352,1.007812 -0.52734,1.03125 l -0.65625,0.04687 v 0.433594 c 1.42969,-0.04687 1.42969,-0.04687 1.79297,-0.04687 0.35156,0 0.35156,0 1.79297,0.04687 v -0.433594 l -0.66797,-0.04687 c -0.48047,-0.02344 -0.52734,-0.128906 -0.52734,-1.03125 z m -0.65625,-3.1875 c -0.4336,0 -0.8086,0.375 -0.8086,0.808594 0,0.410156 0.375,0.785156 0.79688,0.785156 0.41015,0 0.79687,-0.375 0.79687,-0.785156 0,-0.410157 -0.38672,-0.808594 -0.78515,-0.808594 z m 6.13183,3.128906 c -2.08594,0 -3.53906,1.476563 -3.53906,3.609375 0,2.027344 1.27734,3.398438 3.12891,3.398438 2.20312,0 3.78515,-1.523438 3.78515,-3.679688 0,-1.933594 -1.40625,-3.328125 -3.375,-3.328125 z m -0.25781,0.46875 c 1.32422,0 2.29687,1.441406 2.29687,3.386719 0,1.652344 -0.72656,2.683594 -1.88671,2.683594 -1.40625,0 -2.35547,-1.371094 -2.35547,-3.410157 0,-1.722656 0.6914,-2.660156 1.94531,-2.660156 z m 9.97558,6.304688 c 0.87891,-0.04687 0.89063,-0.04687 1.13672,-0.04687 0.19922,0 0.19922,0 1.1836,0.04687 v -0.433594 l -0.58594,-0.04687 c -0.49219,-0.02344 -0.52734,-0.117188 -0.52734,-1.03125 v -2.765625 c 0,-1.675781 -0.79688,-2.496094 -2.40235,-2.496094 -0.52734,0 -0.83203,0.105469 -1.125,0.363281 l -1.08984,0.9375 v -1.242187 l -0.12891,-0.05859 c -0.73828,0.304688 -1.48828,0.503906 -2.23828,0.585938 v 0.398437 h 0.52734 c 0.57422,0 0.63282,0.105469 0.63282,1.054688 v 3.222656 c 0,0.902344 -0.0469,1.007812 -0.53907,1.03125 l -0.64453,0.04687 v 0.433594 c 0.98438,-0.03516 1.3711,-0.04687 1.78125,-0.04687 0.42188,0 0.8086,0.01172 1.78125,0.04687 v -0.433594 l -0.64453,-0.04687 c -0.49219,-0.02344 -0.52734,-0.128906 -0.52734,-1.03125 v -3.035156 c 0,-0.644532 0.9375,-1.347657 1.8164,-1.347657 0.96094,0 1.59375,0.714844 1.59375,1.816407 z m 8.73633,-1.054688 -0.1875,-0.140625 c -0.91406,0.550781 -1.2539,0.679688 -1.86328,0.679688 -0.9375,0 -1.71094,-0.421875 -2.10937,-1.125 -0.26953,-0.46875 -0.375,-0.878907 -0.39844,-1.710938 h 2.08594 c 0.99609,0 1.60547,-0.03516 2.60156,-0.199219 0.0117,-0.199218 0.0234,-0.328125 0.0234,-0.492187 0,-1.652344 -1.05469,-2.730469 -2.66016,-2.730469 -0.53906,0 -1.14844,0.1875 -1.73437,0.527344 -1.1836,0.679687 -1.65235,1.570312 -1.65235,3.058594 0,0.902343 0.21094,1.675781 0.59766,2.226562 0.57422,0.761719 1.53515,1.195313 2.61328,1.195313 0.52734,0 1.06641,-0.105469 1.65234,-0.363282 0.38672,-0.164062 0.69141,-0.351562 0.73828,-0.433593 z m -1.125,-2.824219 c -0.73828,0.03516 -1.08984,0.04687 -1.60547,0.04687 -0.65625,0 -1.03125,-0.01172 -1.80468,-0.08203 0,-0.679687 0.0586,-0.996094 0.24609,-1.371094 0.30469,-0.632812 0.91406,-1.019531 1.60547,-1.019531 0.46875,0 0.84375,0.1875 1.10156,0.574219 0.31641,0.480469 0.42188,0.890625 0.45703,1.851562 z m 2.31446,1.78125 c 0,0.984375 -0.0352,1.417969 -0.15235,1.992188 0.73828,0.246094 1.30078,0.339844 1.95703,0.339844 1.88672,0 3.22266,-0.996094 3.22266,-2.402344 0,-0.445313 -0.12891,-0.773438 -0.41016,-1.066406 -0.375,-0.351563 -0.84375,-0.527344 -2.10937,-0.773438 -1.17188,-0.222656 -1.5586,-0.515625 -1.5586,-1.171875 0,-0.714844 0.50391,-1.125 1.3711,-1.125 0.96094,0 1.69922,0.503906 1.69922,1.183594 v 0.328125 h 0.39843 c 0.0117,-0.832031 0.0352,-1.183594 0.0703,-1.617188 -0.76172,-0.257812 -1.27735,-0.363281 -1.86328,-0.363281 -1.66407,0 -2.6836,0.785156 -2.6836,2.074219 0,0.691406 0.31641,1.183594 0.98438,1.476562 0.38672,0.175782 1.13672,0.410157 2.12109,0.621094 0.64453,0.140625 0.91406,0.445313 0.91406,0.996094 0,0.773437 -0.71484,1.3125 -1.73437,1.3125 -1.04297,0 -1.79297,-0.503906 -1.79297,-1.21875 V 95.357156 Z M 0.14103125,109.59837 h 0.5390625 c 0.56249995,0 0.62109375,0.10547 0.62109375,1.05468 v 7.20704 c 0,0.91406 -0.035156,1.00781 -0.52734375,1.04296 l -0.65625,0.0352 v 0.43359 c 1.42968745,-0.0469 1.42968745,-0.0469 1.79296875,-0.0469 0.3515625,0 0.3515625,0 1.7929687,0.0469 v -0.43359 l -0.6679687,-0.0352 c -0.4804688,-0.0351 -0.5273438,-0.1289 -0.5273438,-1.04296 v -2.70704 c 0.4335938,0.25782 0.890625,0.36329 1.5351563,0.36329 0.421875,0 0.7851562,-0.0937 1.0195312,-0.23438 l 1.640625,-1.05469 c 0.5742188,-0.375 1.2421875,-1.85156 1.2421875,-2.77734 0,-1.59375 -1.3242187,-2.83594 -2.9765625,-2.83594 -0.5390625,0 -1.0546875,0.14063 -1.2773437,0.36328 l -1.1835938,1.06641 v -1.37109 l -0.1289062,-0.0586 C 1.65275,108.91868 0.90275,109.1179 0.14103125,109.19993 Z m 2.36718745,1.34765 c 0,-0.19922 0.070312,-0.35156 0.2578125,-0.59765 0.421875,-0.52735 1.0078125,-0.79688 1.7226563,-0.79688 1.3476562,0 2.2148437,0.9375 2.2148437,2.4375 0,1.60547 -0.9609375,2.78906 -2.2617187,2.78906 -0.7851563,0 -1.3710938,-0.25781 -1.9335938,-0.84375 z M 12.61857,108.61399 c -2.085937,0 -3.5390622,1.47656 -3.5390622,3.60938 0,2.02734 1.2773442,3.39843 3.1289062,3.39843 2.203125,0 3.785156,-1.52343 3.785156,-3.67968 0,-1.9336 -1.40625,-3.32813 -3.375,-3.32813 z m -0.257812,0.46875 c 1.324219,0 2.296875,1.44141 2.296875,3.38672 0,1.65234 -0.726563,2.68359 -1.886719,2.68359 -1.40625,0 -2.355469,-1.37109 -2.355469,-3.41015 0,-1.72266 0.691407,-2.66016 1.945313,-2.66016 z m 4.423828,-3.22265 h 0.808594 c 0.257812,0 0.351562,0.15234 0.351562,0.58593 v 7.42969 c 0,0.90234 -0.03516,1.00781 -0.527344,1.03125 l -0.65625,0.0469 v 0.43359 c 1.429688,-0.0469 1.429688,-0.0469 1.792969,-0.0469 0.351563,0 0.351563,0 1.792969,0.0469 v -0.43359 l -0.667969,-0.0469 c -0.480469,-0.0234 -0.527344,-0.12891 -0.527344,-1.03125 v -8.83594 l -0.128906,-0.11718 c -0.632812,0.24609 -1.101562,0.36328 -2.238281,0.53906 z m 6.541992,2.8125 -0.128906,-0.0586 c -0.726563,0.30469 -1.476563,0.50391 -2.238281,0.58594 v 0.39844 h 0.527343 c 0.574219,0 0.632813,0.10547 0.632813,1.05468 v 3.22266 c 0,0.90234 -0.03516,1.00781 -0.527344,1.03125 l -0.65625,0.0469 v 0.43359 c 1.429688,-0.0469 1.429688,-0.0469 1.792969,-0.0469 0.351562,0 0.351562,0 1.792969,0.0469 v -0.43359 l -0.667969,-0.0469 c -0.480469,-0.0234 -0.527344,-0.12891 -0.527344,-1.03125 z m -0.65625,-3.1875 c -0.433594,0 -0.808594,0.375 -0.808594,0.80859 0,0.41016 0.375,0.78516 0.796875,0.78516 0.410157,0 0.796875,-0.375 0.796875,-0.78516 0,-0.41016 -0.386718,-0.80859 -0.785156,-0.80859 z m 8.015625,9.90234 c 0.878906,-0.0469 0.890625,-0.0469 1.136719,-0.0469 0.199219,0 0.199219,0 1.183594,0.0469 v -0.43359 l -0.585938,-0.0469 c -0.492187,-0.0234 -0.527344,-0.11719 -0.527344,-1.03125 v -2.76562 c 0,-1.67579 -0.796875,-2.4961 -2.402343,-2.4961 -0.527344,0 -0.832032,0.10547 -1.125,0.36328 l -1.089844,0.9375 v -1.24218 l -0.128906,-0.0586 c -0.738282,0.30469 -1.488282,0.50391 -2.238282,0.58594 v 0.39844 h 0.527344 c 0.574219,0 0.632813,0.10547 0.632813,1.05468 v 3.22266 c 0,0.90234 -0.04687,1.00781 -0.539063,1.03125 l -0.644531,0.0469 v 0.43359 c 0.984375,-0.0352 1.371094,-0.0469 1.78125,-0.0469 0.421875,0 0.808594,0.0117 1.78125,0.0469 v -0.43359 l -0.644531,-0.0469 c -0.492188,-0.0234 -0.527344,-0.12891 -0.527344,-1.03125 v -3.03516 c 0,-0.64453 0.9375,-1.34765 1.816406,-1.34765 0.960938,0 1.59375,0.71484 1.59375,1.8164 z m 6.462891,-6.77344 c -2.085938,0 -3.539063,1.47656 -3.539063,3.60938 0,2.02734 1.277344,3.39843 3.128906,3.39843 2.203125,0 3.785157,-1.52343 3.785157,-3.67968 0,-1.9336 -1.40625,-3.32813 -3.375,-3.32813 z m -0.257813,0.46875 c 1.324219,0 2.296875,1.44141 2.296875,3.38672 0,1.65234 -0.726562,2.68359 -1.886719,2.68359 -1.40625,0 -2.355468,-1.37109 -2.355468,-3.41015 0,-1.72266 0.691406,-2.66016 1.945312,-2.66016 z m 4.353516,0.51563 h 0.527344 c 0.574218,0 0.632812,0.10547 0.632812,1.05468 v 3.22266 c 0,0.90234 -0.03516,1.00781 -0.527344,1.03125 l -0.65625,0.0469 v 0.43359 c 1.371094,-0.0469 1.417969,-0.0469 1.816407,-0.0469 0.398437,0 0.773437,0.0117 1.710937,0.0469 v -0.43359 l -0.609375,-0.0469 c -0.480469,-0.0234 -0.527344,-0.12891 -0.527344,-1.03125 v -3.03516 c 0,-0.64453 0.949219,-1.34765 1.804688,-1.34765 0.773437,0 1.3125,0.72656 1.3125,1.8164 v 2.56641 c 0,0.90234 -0.04687,1.00781 -0.539063,1.03125 l -0.65625,0.0469 v 0.43359 c 1.429688,-0.0469 1.429688,-0.0469 1.792969,-0.0469 0.363281,0 0.363281,0 1.792969,0.0469 v -0.43359 l -0.65625,-0.0469 c -0.492188,-0.0234 -0.539063,-0.12891 -0.539063,-1.03125 v -3.03516 c 0,-0.64453 0.949219,-1.34765 1.816407,-1.34765 0.773437,0 1.300781,0.72656 1.300781,1.8164 v 4.07813 c 0.878906,-0.0469 0.890625,-0.0469 1.136719,-0.0469 0.1875,0 0.1875,0 1.277343,0.0469 v -0.43359 l -0.679687,-0.0469 c -0.480469,-0.0234 -0.527344,-0.12891 -0.527344,-1.03125 v -2.95312 c 0,-1.41797 -0.832031,-2.3086 -2.15625,-2.3086 -0.503906,0 -0.914062,0.12891 -1.171875,0.36328 l -1.089844,0.97266 c -0.457031,-0.94922 -1.054687,-1.33594 -2.039062,-1.33594 -0.527344,0 -0.9375,0.12891 -1.195313,0.36328 l -0.984375,0.91407 v -1.21875 l -0.128906,-0.0586 c -0.726562,0.30469 -1.476562,0.50391 -2.238281,0.58594 z m 15.105469,-0.92578 -0.128907,-0.0586 c -0.726562,0.30469 -1.476562,0.50391 -2.238281,0.58594 v 0.39844 h 0.527344 c 0.574219,0 0.632812,0.10547 0.632812,1.05468 v 3.22266 c 0,0.90234 -0.03516,1.00781 -0.527343,1.03125 l -0.65625,0.0469 v 0.43359 c 1.429687,-0.0469 1.429687,-0.0469 1.792968,-0.0469 0.351563,0 0.351563,0 1.792969,0.0469 v -0.43359 l -0.667969,-0.0469 c -0.480468,-0.0234 -0.527343,-0.12891 -0.527343,-1.03125 z m -0.65625,-3.1875 c -0.433594,0 -0.808594,0.375 -0.808594,0.80859 0,0.41016 0.375,0.78516 0.796875,0.78516 0.410156,0 0.796875,-0.375 0.796875,-0.78516 0,-0.41016 -0.386719,-0.80859 -0.785156,-0.80859 z m 7.854492,5.39062 c 0,-0.65625 0.07031,-1.24219 0.210937,-1.75781 -0.574218,-0.35156 -1.078125,-0.50391 -1.664062,-0.50391 -0.691406,0 -1.5,0.26953 -2.355469,0.82031 -1.007812,0.63282 -1.535156,1.62891 -1.535156,2.89454 0,1.93359 1.359375,3.29296 3.28125,3.29296 0.75,0 1.828125,-0.26953 1.96875,-0.48046 l 0.304687,-0.45704 -0.152343,-0.22265 c -0.527344,0.29297 -0.984375,0.42187 -1.5,0.42187 -1.59375,0 -2.636719,-1.23047 -2.636719,-3.1289 0,-1.53516 0.714844,-2.39063 2.003906,-2.39063 0.632813,0 1.324219,0.28125 1.582031,0.64453 l 0.09375,0.86719 z m 5.302734,3.29297 -0.08203,1.21875 c 0.9375,-0.0469 0.9375,-0.0469 1.125,-0.0469 0.07031,0 0.433594,0.0117 1.066406,0.0469 v -0.43359 l -0.5625,-0.0234 c -0.351562,-0.0234 -0.410156,-0.14063 -0.410156,-0.83203 v -2.625 c 0,-2.09766 -0.597656,-2.85938 -2.261719,-2.85938 -0.621094,0 -1.183594,0.15235 -1.734375,0.49219 l -0.761719,0.45703 v 0.92578 l 0.375,0.10547 0.1875,-0.44531 c 0.304688,-0.67969 0.445313,-0.77344 1.101563,-0.77344 1.347656,0 1.910156,0.52734 1.957031,1.82813 l -1.429687,0.26953 c -1.945313,0.35156 -2.765625,1.03125 -2.765625,2.27343 0,1.125 0.679687,1.76954 1.804687,1.76954 0.257813,0 0.503906,-0.0469 0.609375,-0.11719 z m 0,-0.60938 c -0.421875,0.58594 -1.324219,1.13672 -1.886719,1.13672 -0.574218,0 -1.078125,-0.52734 -1.078125,-1.14843 0,-0.52735 0.292969,-1.03125 0.726563,-1.30079 0.351562,-0.22265 1.148437,-0.42187 2.238281,-0.57421 z m 3.108399,-0.26953 c 0,0.98438 -0.03516,1.41797 -0.152344,1.99219 0.738281,0.24609 1.300781,0.33984 1.957031,0.33984 1.886719,0 3.222656,-0.99609 3.222656,-2.40234 0,-0.44531 -0.128906,-0.77344 -0.410156,-1.06641 -0.375,-0.35156 -0.84375,-0.52734 -2.109375,-0.77343 -1.171875,-0.22266 -1.558594,-0.51563 -1.558594,-1.17188 0,-0.71484 0.503907,-1.125 1.371094,-1.125 0.960938,0 1.699219,0.50391 1.699219,1.1836 v 0.32812 h 0.398437 c 0.01172,-0.83203 0.03516,-1.18359 0.07031,-1.61719 -0.761719,-0.25781 -1.277344,-0.36328 -1.863281,-0.36328 -1.664063,0 -2.683594,0.78516 -2.683594,2.07422 0,0.69141 0.316406,1.18359 0.984375,1.47656 0.386719,0.17578 1.136719,0.41016 2.121094,0.6211 0.644531,0.14062 0.914062,0.44531 0.914062,0.99609 0,0.77344 -0.714844,1.3125 -1.734375,1.3125 -1.042969,0 -1.792969,-0.50391 -1.792969,-1.21875 v -0.58594 z m 15.389648,-2.41406 c 0,-0.65625 0.07031,-1.24219 0.210938,-1.75781 -0.574219,-0.35156 -1.078125,-0.50391 -1.664063,-0.50391 -0.691406,0 -1.5,0.26953 -2.355469,0.82031 -1.007812,0.63282 -1.535156,1.62891 -1.535156,2.89454 0,1.93359 1.359375,3.29296 3.28125,3.29296 0.75,0 1.828125,-0.26953 1.96875,-0.48046 l 0.304688,-0.45704 -0.152344,-0.22265 c -0.527344,0.29297 -0.984375,0.42187 -1.5,0.42187 -1.59375,0 -2.636719,-1.23047 -2.636719,-3.1289 0,-1.53516 0.714844,-2.39063 2.003906,-2.39063 0.632813,0 1.324219,0.28125 1.582032,0.64453 l 0.09375,0.86719 z m 4.646484,-2.26172 c -2.085937,0 -3.539062,1.47656 -3.539062,3.60938 0,2.02734 1.277344,3.39843 3.128906,3.39843 2.203125,0 3.785156,-1.52343 3.785156,-3.67968 0,-1.9336 -1.40625,-3.32813 -3.375,-3.32813 z m -0.257812,0.46875 c 1.324219,0 2.296875,1.44141 2.296875,3.38672 0,1.65234 -0.726563,2.68359 -1.886719,2.68359 -1.40625,0 -2.355469,-1.37109 -2.355469,-3.41015 0,-1.72266 0.691407,-2.66016 1.945313,-2.66016 z m 9.978519,6.30469 c 0.8789,-0.0469 0.89062,-0.0469 1.13672,-0.0469 0.19921,0 0.19921,0 1.18359,0.0469 v -0.43359 l -0.58594,-0.0469 c -0.49219,-0.0234 -0.52734,-0.11719 -0.52734,-1.03125 v -2.76562 c 0,-1.67579 -0.79688,-2.4961 -2.40235,-2.4961 -0.52734,0 -0.832027,0.10547 -1.124996,0.36328 l -1.089844,0.9375 v -1.24218 l -0.128906,-0.0586 c -0.738281,0.30469 -1.488281,0.50391 -2.238281,0.58594 v 0.39844 h 0.527344 c 0.574218,0 0.632812,0.10547 0.632812,1.05468 v 3.22266 c 0,0.90234 -0.04687,1.00781 -0.539062,1.03125 l -0.644532,0.0469 v 0.43359 c 0.984375,-0.0352 1.371094,-0.0469 1.78125,-0.0469 0.421875,0 0.808594,0.0117 1.78125,0.0469 v -0.43359 l -0.644531,-0.0469 c -0.492187,-0.0234 -0.527344,-0.12891 -0.527344,-1.03125 v -3.03516 c 0,-0.64453 0.9375,-1.34765 1.81641,-1.34765 0.96093,0 1.59375,0.71484 1.59375,1.8164 z m 13.86035,-6.71484 -0.12891,-0.0586 c -0.73828,0.30469 -1.47656,0.50391 -2.23828,0.58594 v 0.39844 h 0.52734 c 0.57422,0 0.63282,0.10547 0.63282,1.05468 v 2.33204 c 0,0.3164 -0.19922,0.71484 -0.52735,1.05468 -0.41015,0.39844 -0.86718,0.59766 -1.42968,0.59766 -0.49219,0 -0.90235,-0.15234 -1.125,-0.43359 -0.19922,-0.22266 -0.30469,-0.66797 -0.30469,-1.30079 v -4.23046 l -0.12891,-0.0586 c -0.72656,0.30469 -1.47656,0.50391 -2.23828,0.58594 v 0.39844 h 0.52734 c 0.57422,0 0.63282,0.10547 0.63282,1.05468 v 2.40235 c 0,1.00781 0.0937,1.45312 0.35156,1.8164 0.30469,0.42188 0.85547,0.64454 1.67578,0.64454 0.64453,0 1.21875,-0.19922 1.60547,-0.5625 l 0.96094,-0.89063 c 0,0.42188 -0.0117,0.64453 -0.0586,1.32422 0.96094,-0.0469 0.97266,-0.0469 1.19532,-0.0469 0.19921,0 0.19921,0 1.18359,0.0469 v -0.43359 l -0.58594,-0.0469 c -0.49219,-0.0234 -0.52734,-0.11719 -0.52734,-1.03125 z m 7.3125,6.71484 c 0.8789,-0.0469 0.89062,-0.0469 1.13672,-0.0469 0.19922,0 0.19922,0 1.18359,0.0469 v -0.43359 l -0.58594,-0.0469 c -0.49218,-0.0234 -0.52734,-0.11719 -0.52734,-1.03125 v -2.76562 c 0,-1.67579 -0.79688,-2.4961 -2.40234,-2.4961 -0.52735,0 -0.83204,0.10547 -1.125,0.36328 l -1.08985,0.9375 v -1.24218 l -0.1289,-0.0586 c -0.73829,0.30469 -1.48829,0.50391 -2.23829,0.58594 v 0.39844 h 0.52735 c 0.57422,0 0.63281,0.10547 0.63281,1.05468 v 3.22266 c 0,0.90234 -0.0469,1.00781 -0.53906,1.03125 l -0.64453,0.0469 v 0.43359 c 0.98437,-0.0352 1.37109,-0.0469 1.78125,-0.0469 0.42187,0 0.80859,0.0117 1.78125,0.0469 v -0.43359 l -0.64453,-0.0469 c -0.49219,-0.0234 -0.52735,-0.12891 -0.52735,-1.03125 v -3.03516 c 0,-0.64453 0.9375,-1.34765 1.81641,-1.34765 0.96094,0 1.59375,0.71484 1.59375,1.8164 z m 7.22754,-2.09766 c 0,0.98438 -0.0352,1.41797 -0.15235,1.99219 0.73828,0.24609 1.30078,0.33984 1.95703,0.33984 1.88672,0 3.22266,-0.99609 3.22266,-2.40234 0,-0.44531 -0.12891,-0.77344 -0.41016,-1.06641 -0.375,-0.35156 -0.84375,-0.52734 -2.10937,-0.77343 -1.17188,-0.22266 -1.55859,-0.51563 -1.55859,-1.17188 0,-0.71484 0.5039,-1.125 1.37109,-1.125 0.96094,0 1.69922,0.50391 1.69922,1.1836 v 0.32812 h 0.39844 c 0.0117,-0.83203 0.0351,-1.18359 0.0703,-1.61719 -0.76172,-0.25781 -1.27735,-0.36328 -1.86328,-0.36328 -1.66407,0 -2.6836,0.78516 -2.6836,2.07422 0,0.69141 0.31641,1.18359 0.98438,1.47656 0.38672,0.17578 1.13672,0.41016 2.12109,0.6211 0.64453,0.14062 0.91406,0.44531 0.91406,0.99609 0,0.77344 -0.71484,1.3125 -1.73437,1.3125 -1.04297,0 -1.79297,-0.50391 -1.79297,-1.21875 v -0.58594 z m 9.49511,-4.67578 c -2.08593,0 -3.53906,1.47656 -3.53906,3.60938 0,2.02734 1.27735,3.39843 3.12891,3.39843 2.20312,0 3.78515,-1.52343 3.78515,-3.67968 0,-1.9336 -1.40625,-3.32813 -3.375,-3.32813 z m -0.25781,0.46875 c 1.32422,0 2.29688,1.44141 2.29688,3.38672 0,1.65234 -0.72657,2.68359 -1.88672,2.68359 -1.40625,0 -2.35547,-1.37109 -2.35547,-3.41015 0,-1.72266 0.69141,-2.66016 1.94531,-2.66016 z m 4.4209,-3.22265 h 0.80859 c 0.25782,0 0.35157,0.15234 0.35157,0.58593 v 7.42969 c 0,0.90234 -0.0352,1.00781 -0.52735,1.03125 l -0.65625,0.0469 v 0.43359 c 1.42969,-0.0469 1.42969,-0.0469 1.79297,-0.0469 0.35156,0 0.35156,0 1.79297,0.0469 v -0.43359 l -0.66797,-0.0469 c -0.48047,-0.0234 -0.52734,-0.12891 -0.52734,-1.03125 v -8.83594 l -0.12891,-0.11718 c -0.63281,0.24609 -1.10156,0.36328 -2.23828,0.53906 z m 7.84277,2.7539 c -2.08593,0 -3.53906,1.47656 -3.53906,3.60938 0,2.02734 1.27734,3.39843 3.12891,3.39843 2.20312,0 3.78515,-1.52343 3.78515,-3.67968 0,-1.9336 -1.40625,-3.32813 -3.375,-3.32813 z m -0.25781,0.46875 c 1.32422,0 2.29688,1.44141 2.29688,3.38672 0,1.65234 -0.72657,2.68359 -1.88672,2.68359 -1.40625,0 -2.35547,-1.37109 -2.35547,-3.41015 0,-1.72266 0.6914,-2.66016 1.94531,-2.66016 z m 9.67676,0.77344 v 4.13672 c 0,1.0664 0.46875,1.52344 1.58203,1.52344 0.32813,0 0.66797,-0.0703 0.75,-0.17579 l 0.69141,-0.76171 -0.1875,-0.2461 c -0.35157,0.19922 -0.57422,0.28125 -0.84375,0.28125 -0.5625,0 -0.78516,-0.29297 -0.78516,-0.99609 v -3.76172 h 1.82813 l 0.1289,-0.77344 -1.95703,0.0937 v -0.55078 c 0,-0.59766 0.0352,-1.11328 0.15234,-2.03906 l -0.16406,-0.15235 c -0.35156,0.21094 -0.78515,0.39844 -1.21875,0.53907 0.0352,0.43359 0.0469,0.70312 0.0469,1.13672 v 1.00781 l -1.11328,0.5039 v 0.29297 z m 9.53906,4.47656 -0.1875,-0.14062 c -0.91406,0.55078 -1.2539,0.67968 -1.86328,0.67968 -0.9375,0 -1.71094,-0.42187 -2.10937,-1.125 -0.26954,-0.46875 -0.375,-0.8789 -0.39844,-1.71093 h 2.08594 c 0.99609,0 1.60546,-0.0352 2.60156,-0.19922 0.0117,-0.19922 0.0234,-0.32813 0.0234,-0.49219 0,-1.65234 -1.05469,-2.73047 -2.66016,-2.73047 -0.53906,0 -1.14844,0.1875 -1.73438,0.52735 -1.18359,0.67968 -1.65234,1.57031 -1.65234,3.05859 0,0.90234 0.21094,1.67578 0.59766,2.22656 0.57422,0.76172 1.53515,1.19531 2.61328,1.19531 0.52734,0 1.0664,-0.10546 1.65234,-0.36328 0.38672,-0.16406 0.69141,-0.35156 0.73828,-0.43359 z m -1.125,-2.82422 c -0.73828,0.0352 -1.08984,0.0469 -1.60547,0.0469 -0.65625,0 -1.03125,-0.0117 -1.80468,-0.082 0,-0.67969 0.0586,-0.9961 0.24609,-1.3711 0.30469,-0.63281 0.91406,-1.01953 1.60547,-1.01953 0.46875,0 0.84375,0.1875 1.10156,0.57422 0.31641,0.48047 0.42188,0.89063 0.45703,1.85156 z m -2.97656,-3.42187 h 0.57422 l 2.0625,-1.30078 c 0.46875,-0.29297 0.57422,-0.41016 0.57422,-0.66797 0,-0.26953 -0.19922,-0.49219 -0.44532,-0.49219 -0.21093,0 -0.46875,0.16406 -0.78515,0.48047 z m 5.0332,1.51172 h 0.52735 c 0.57421,0 0.63281,0.10547 0.63281,1.05468 v 3.22266 c 0,0.90234 -0.0352,1.00781 -0.52735,1.03125 l -0.65625,0.0469 v 0.43359 c 1.03125,-0.0352 1.40625,-0.0469 1.75782,-0.0469 0.29297,0 0.29297,0 2.05078,0.0469 v -0.43359 l -0.73828,-0.0469 c -0.64453,-0.0352 -0.67969,-0.082 -0.67969,-1.03125 v -2.46094 c 0,-0.86718 0.57422,-1.58203 1.27734,-1.58203 0.4336,0 0.72657,0.19922 0.96094,0.65625 h 0.30469 l 0.1289,-1.72265 c -0.16406,-0.0937 -0.42187,-0.15235 -0.67968,-0.15235 -0.42188,0 -0.89063,0.23438 -1.1836,0.58594 l -0.80859,0.94922 v -1.47656 l -0.12891,-0.0586 c -0.72656,0.30469 -1.47656,0.50391 -2.23828,0.58594 z m 5.83887,0 h 0.52734 c 0.57422,0 0.63282,0.10547 0.63282,1.05468 v 3.22266 c 0,0.90234 -0.0352,1.00781 -0.52735,1.03125 l -0.65625,0.0469 v 0.43359 c 1.3711,-0.0469 1.41797,-0.0469 1.81641,-0.0469 0.39844,0 0.77344,0.0117 1.71094,0.0469 v -0.43359 l -0.60938,-0.0469 c -0.48047,-0.0234 -0.52734,-0.12891 -0.52734,-1.03125 v -3.03516 c 0,-0.64453 0.94922,-1.34765 1.80468,-1.34765 0.77344,0 1.3125,0.72656 1.3125,1.8164 v 2.56641 c 0,0.90234 -0.0469,1.00781 -0.53906,1.03125 l -0.65625,0.0469 v 0.43359 c 1.42969,-0.0469 1.42969,-0.0469 1.79297,-0.0469 0.36328,0 0.36328,0 1.79297,0.0469 v -0.43359 l -0.65625,-0.0469 c -0.49219,-0.0234 -0.53906,-0.12891 -0.53906,-1.03125 v -3.03516 c 0,-0.64453 0.94922,-1.34765 1.8164,-1.34765 0.77344,0 1.30078,0.72656 1.30078,1.8164 v 4.07813 c 0.87891,-0.0469 0.89063,-0.0469 1.13672,-0.0469 0.1875,0 0.1875,0 1.27735,0.0469 v -0.43359 l -0.67969,-0.0469 c -0.48047,-0.0234 -0.52734,-0.12891 -0.52734,-1.03125 v -2.95312 c 0,-1.41797 -0.83204,-2.3086 -2.15625,-2.3086 -0.50391,0 -0.91407,0.12891 -1.17188,0.36328 l -1.08984,0.97266 c -0.45703,-0.94922 -1.05469,-1.33594 -2.03907,-1.33594 -0.52734,0 -0.9375,0.12891 -1.19531,0.36328 l -0.98437,0.91407 v -1.21875 l -0.12891,-0.0586 c -0.72656,0.30469 -1.47656,0.50391 -2.23828,0.58594 z m 15.10547,-0.92578 -0.12891,-0.0586 c -0.72656,0.30469 -1.47656,0.50391 -2.23828,0.58594 v 0.39844 h 0.52734 c 0.57422,0 0.63282,0.10547 0.63282,1.05468 v 3.22266 c 0,0.90234 -0.0352,1.00781 -0.52735,1.03125 l -0.65625,0.0469 v 0.43359 c 1.42969,-0.0469 1.42969,-0.0469 1.79297,-0.0469 0.35156,0 0.35156,0 1.79297,0.0469 v -0.43359 l -0.66797,-0.0469 c -0.48047,-0.0234 -0.52734,-0.12891 -0.52734,-1.03125 z m -0.65625,-3.1875 c -0.4336,0 -0.8086,0.375 -0.8086,0.80859 0,0.41016 0.375,0.78516 0.79688,0.78516 0.41016,0 0.79687,-0.375 0.79687,-0.78516 0,-0.41016 -0.38671,-0.80859 -0.78515,-0.80859 z m 8.01855,9.90234 c 0.87891,-0.0469 0.89063,-0.0469 1.13672,-0.0469 0.19922,0 0.19922,0 1.1836,0.0469 v -0.43359 l -0.58594,-0.0469 c -0.49219,-0.0234 -0.52735,-0.11719 -0.52735,-1.03125 v -2.76562 c 0,-1.67579 -0.79687,-2.4961 -2.40234,-2.4961 -0.52734,0 -0.83203,0.10547 -1.125,0.36328 l -1.08984,0.9375 v -1.24218 l -0.12891,-0.0586 c -0.73828,0.30469 -1.48828,0.50391 -2.23828,0.58594 v 0.39844 h 0.52734 c 0.57422,0 0.63282,0.10547 0.63282,1.05468 v 3.22266 c 0,0.90234 -0.0469,1.00781 -0.53907,1.03125 l -0.64453,0.0469 v 0.43359 c 0.98438,-0.0352 1.3711,-0.0469 1.78125,-0.0469 0.42188,0 0.8086,0.0117 1.78125,0.0469 v -0.43359 l -0.64453,-0.0469 c -0.49219,-0.0234 -0.52734,-0.12891 -0.52734,-1.03125 v -3.03516 c 0,-0.64453 0.9375,-1.34765 1.8164,-1.34765 0.96094,0 1.59375,0.71484 1.59375,1.8164 z m 6.46289,-6.77344 c -2.08593,0 -3.53906,1.47656 -3.53906,3.60938 0,2.02734 1.27734,3.39843 3.12891,3.39843 2.20312,0 3.78515,-1.52343 3.78515,-3.67968 0,-1.9336 -1.40625,-3.32813 -3.375,-3.32813 z m -0.25781,0.46875 c 1.32422,0 2.29688,1.44141 2.29688,3.38672 0,1.65234 -0.72657,2.68359 -1.88672,2.68359 -1.40625,0 -2.35547,-1.37109 -2.35547,-3.41015 0,-1.72266 0.6914,-2.66016 1.94531,-2.66016 z m 0,0"
         style="fill:#000000;fill-opacity:1;fill-rule:nonzero;stroke:#000000;stroke-opacity:1" />
    </g>
  </g>
</svg>
