<?xml version="1.0" encoding="UTF-8" standalone="no"?>
<!-- Created with Inkscape (http://www.inkscape.org/) -->

<svg
   version="1.1"
   id="svg1"
   width="118.98253"
   height="22.732544"
   viewBox="0 0 118.98253 22.732544"
   xmlns="http://www.w3.org/2000/svg"
   xmlns:svg="http://www.w3.org/2000/svg">
  <defs
     id="defs1">
    <clipPath
       clipPathUnits="userSpaceOnUse"
       id="clipPath255">
      <rect
         style="fill:#000000;stroke-width:0.976388"
         id="rect255"
         width="145.91837"
         height="37.7551"
         x="1031.6327"
         y="233.6734" />
    </clipPath>
  </defs>
  <g
     id="g89"
     clip-path="url(#clipPath255)"
     transform="translate(-1031.9732,-238.63725)">
    <path
       id="path92"
       d="M 0,0 H 123.123 V 39.889 H 0 Z"
       style="fill:#ffffff;fill-opacity:1;fill-rule:nonzero;stroke:none"
       transform="matrix(1.3333333,0,0,-1.3333333,1016.6213,276.652)" />
    <g
       id="g92"
       aria-label="y=f(x)=x&#10;5"
       transform="matrix(1.3333333,0,0,1.3333333,1032.8013,255.42267)"
       style="stroke:#000000;stroke-opacity:1">
      <path
         id="path93"
         d="m -0.10588281,2.5775312 c -0.0117188,0.1054688 -0.0117188,0.1875 -0.0117188,0.2578125 0,0.6210938 0.52734375,1.125 1.18359371,1.125 1.5117188,0 3.09375,-1.78125 3.9375,-4.42968745 L 7.0308359,-6.78575 6.8667734,-6.9146563 C 6.4566172,-6.7623125 6.1284922,-6.6685625 5.8120859,-6.645125 l -0.5039062,1.8984375 c -0.1757813,0.6679687 -0.6796875,1.7226562 -1.1484375,2.4257812 -0.5039063,0.7265625 -1.2070313,1.35937505 -1.5234375,1.35937505 -0.1640625,0 -0.2929688,-0.32812505 -0.28125,-0.69140625 l 0.011719,-0.1875 0.2109375,-2.7773438 c 0.035156,-0.4453125 0.058594,-0.9960937 0.058594,-1.3945312 0,-0.6445313 -0.09375,-0.9023438 -0.3398438,-0.9023438 -0.1875,0 -0.3867187,0.1054688 -1.078125,0.5742188 L 0.04646094,-5.5318438 0.19880469,-5.2740313 0.91364844,-5.707625 0.97224219,-5.7545 C 1.1128672,-5.836531 1.2183359,-5.8834063 1.2769297,-5.8834063 c 0.1992187,0 0.3164062,0.2695313 0.3164062,0.75 0,0.011719 0,0.09375 -0.011719,0.2109375 l -0.2460938,3.4921875 -0.011719,0.5742188 c 0,0.59765625 0.2578125,1.0078125 0.609375,1.0078125 0.5390625,0 1.734375,-1.21875 2.8125,-2.8359375 l -0.703125,2.44921875 C 3.3159922,2.308 2.6011484,3.3509687 1.5933359,3.3509687 c -0.5039062,0 -0.89062496,-0.3867187 -0.89062496,-0.8789062 0,-0.082031 0.0117188,-0.1875 0.0234375,-0.3164063 l -0.140625,-0.058594 z m 0,0"
         style="fill:#000000;fill-opacity:1;fill-rule:nonzero;stroke:#000000;stroke-opacity:1" />
      <path
         id="path94"
         d="m 21.793531,-4.8873125 c 0.222656,0 0.503906,0 0.503906,-0.3046875 0,-0.2929688 -0.28125,-0.2929688 -0.492187,-0.2929688 h -8.953125 c -0.210937,0 -0.503906,0 -0.503906,0.2929688 0,0.3046875 0.292969,0.3046875 0.515625,0.3046875 z m 0.01172,2.8945312 c 0.210937,0 0.492187,0 0.492187,-0.2929687 0,-0.3046875 -0.28125,-0.3046875 -0.503906,-0.3046875 h -8.929687 c -0.222656,0 -0.515625,0 -0.515625,0.3046875 0,0.2929687 0.292969,0.2929687 0.503906,0.2929687 z m 0,0"
         style="fill:#000000;fill-opacity:1;fill-rule:nonzero;stroke:#000000;stroke-opacity:1" />
      <path
         id="path95"
         d="m 33.447828,-5.4966875 c 0.05859,-0.2695313 0.164063,-0.5976563 0.246094,-0.796875 l -0.05859,-0.1054688 -0.105469,0.035156 c -0.339843,0.082031 -0.492187,0.09375 -1.195312,0.09375 h -0.234375 l 0.304687,-1.6054688 c 0.222657,-1.2304687 0.632813,-1.78125 1.289063,-1.78125 0.433594,0 0.820312,0.2226563 1.03125,0.5625 l 0.140625,-0.058594 c 0.07031,-0.2226563 0.222656,-0.6679688 0.328125,-0.9609379 l 0.08203,-0.210938 c -0.234375,-0.105468 -0.679687,-0.1875 -1.007812,-0.1875 -0.164063,0 -0.386719,0.03516 -0.503907,0.09375 -0.339843,0.164063 -1.523437,1.0429696 -1.851562,1.3828134 -0.316406,0.3164062 -0.492188,0.75 -0.644531,1.5585937 l -0.210938,1.1367188 c -0.597656,0.28125 -0.878906,0.3984375 -1.242187,0.5273437 l -0.07031,0.3164063 h 1.160156 l -0.128906,0.8085937 C 30.354078,-1.8990313 29.815016,0.77284375 29.498609,1.7689375 29.240797,2.6126875 28.818922,3.058 28.303297,3.058 c -0.339844,0 -0.492188,-0.1054688 -0.75,-0.421875 l -0.199219,0.058594 c -0.05859,0.328125 -0.257812,1.0195313 -0.328125,1.1484375 0.128906,0.070312 0.339844,0.1171875 0.503906,0.1171875 0.585938,0 1.359375,-0.4453125 1.921875,-1.125 0.867188,-1.03125 1.183594,-2.0273437 2.238282,-7.0664062 0.03516,-0.1757813 0.152343,-0.7148438 0.269531,-1.265625 z m 0,0"
         style="fill:#000000;fill-opacity:1;fill-rule:nonzero;stroke:#000000;stroke-opacity:1" />
      <path
         id="path96"
         d="m 40.575758,3.5853437 c 0,-0.046875 0,-0.070312 -0.246094,-0.328125 -1.875,-1.8867187 -2.355469,-4.7109375 -2.355469,-6.9960937 0,-2.6015625 0.574219,-5.203125 2.414063,-7.078125 0.1875,-0.175781 0.1875,-0.199219 0.1875,-0.246094 0,-0.105469 -0.05859,-0.152344 -0.140625,-0.152344 -0.152344,0 -1.5,1.019532 -2.378906,2.9179692 -0.761719,1.640625 -0.949219,3.3046875 -0.949219,4.5585938 0,1.171875 0.164062,2.9765625 0.996094,4.6640625 0.890625,1.8398437 2.179687,2.8125 2.332031,2.8125 0.08203,0 0.140625,-0.046875 0.140625,-0.1523438 z m 0,0"
         style="fill:#000000;fill-opacity:1;fill-rule:nonzero;stroke:#000000;stroke-opacity:1" />
      <path
         id="path97"
         d="m 42.330641,-1.2662188 c 0,0.2929688 -0.03516,0.4804688 -0.117188,0.93750005 -0.03516,0.17578125 -0.04687,0.2109375 -0.05859,0.31640625 0.210938,0.1171875 0.445313,0.1640625 0.621094,0.1640625 0.46875,0 1.03125,-0.41015625 1.476563,-1.08984375 l 1.089843,-1.67578125 0.152344,0.9960937 c 0.1875,1.21875005 0.515625,1.7695313 1.03125,1.7695313 0.316406,0 0.773438,-0.234375 1.242188,-0.65625 l 0.703125,-0.6328125 -0.128907,-0.2695313 c -0.527343,0.4335938 -0.878906,0.6445313 -1.113281,0.6445313 -0.210937,0 -0.398437,-0.140625 -0.539062,-0.4335938 -0.128907,-0.2695312 -0.292969,-0.796875 -0.363282,-1.21875 l -0.257812,-1.4414062 0.503906,-0.703125 c 0.679688,-0.9375 1.066406,-1.265625 1.511719,-1.265625 0.222656,0 0.398437,0.1171875 0.46875,0.328125 l 0.199219,-0.058594 0.210937,-1.21875 c -0.164062,-0.09375 -0.292969,-0.140625 -0.421875,-0.140625 -0.574219,0 -1.148437,0.515625 -2.039062,1.8398438 l -0.527344,0.7851562 -0.09375,-0.6914062 c -0.164063,-1.4179688 -0.550781,-1.9335938 -1.40625,-1.9335938 -0.375,0 -0.679688,0.1171875 -0.808594,0.3046875 l -0.832031,1.1835938 0.234375,0.1523437 c 0.433594,-0.4921875 0.726562,-0.6914062 0.996094,-0.6914062 0.46875,0 0.785156,0.5859375 1.03125,1.9921875 l 0.152343,0.890625 -0.574218,0.890625 c -0.609375,0.9609375 -1.101563,1.41796875 -1.5,1.41796875 -0.210938,0 -0.375,-0.0585938 -0.398438,-0.12890625 L 42.611891,-1.301375 Z m 0,0"
         style="fill:#000000;fill-opacity:1;fill-rule:nonzero;stroke:#000000;stroke-opacity:1" />
      <path
         id="path98"
         d="m 54.025953,-3.738875 c 0,-1.171875 -0.164062,-2.9765625 -0.984375,-4.6640625 -0.902344,-1.8398435 -2.191406,-2.8125005 -2.34375,-2.8125005 -0.08203,0 -0.140625,0.05859 -0.140625,0.152344 0,0.04687 0,0.07031 0.28125,0.339844 1.464844,1.4765625 2.320313,3.8554687 2.320313,6.984375 0,2.5546875 -0.550782,5.1914062 -2.414063,7.078125 -0.1875,0.1757812 -0.1875,0.1992187 -0.1875,0.2460937 0,0.09375 0.05859,0.1523438 0.140625,0.1523438 0.152344,0 1.5,-1.0195313 2.378906,-2.91796875 0.761719,-1.640625 0.949219,-3.30468755 0.949219,-4.55859375 z m 16.086914,-1.1484375 c 0.222656,0 0.503906,0 0.503906,-0.3046875 0,-0.2929688 -0.28125,-0.2929688 -0.492187,-0.2929688 h -8.953125 c -0.210938,0 -0.503906,0 -0.503906,0.2929688 0,0.3046875 0.292968,0.3046875 0.515625,0.3046875 z m 0.01172,2.8945312 c 0.210937,0 0.492187,0 0.492187,-0.2929687 0,-0.3046875 -0.28125,-0.3046875 -0.503906,-0.3046875 H 61.18318 c -0.222657,0 -0.515625,0 -0.515625,0.3046875 0,0.2929687 0.292968,0.2929687 0.503906,0.2929687 z m 0,0"
         style="fill:#000000;fill-opacity:1;fill-rule:nonzero;stroke:#000000;stroke-opacity:1" />
      <path
         id="path99"
         d="m 76.356031,-1.2662188 c 0,0.2929688 -0.03516,0.4804688 -0.117187,0.93750005 -0.03516,0.17578125 -0.04687,0.2109375 -0.05859,0.31640625 0.210937,0.1171875 0.445312,0.1640625 0.621094,0.1640625 0.46875,0 1.03125,-0.41015625 1.476562,-1.08984375 l 1.089844,-1.67578125 0.152344,0.9960937 c 0.1875,1.21875005 0.515625,1.7695313 1.03125,1.7695313 0.316406,0 0.773437,-0.234375 1.242187,-0.65625 l 0.703125,-0.6328125 -0.128906,-0.2695313 c -0.527344,0.4335938 -0.878906,0.6445313 -1.113281,0.6445313 -0.210938,0 -0.398438,-0.140625 -0.539063,-0.4335938 -0.128906,-0.2695312 -0.292969,-0.796875 -0.363281,-1.21875 l -0.257813,-1.4414062 0.503907,-0.703125 c 0.679687,-0.9375 1.066406,-1.265625 1.511718,-1.265625 0.222657,0 0.398438,0.1171875 0.46875,0.328125 l 0.199219,-0.058594 0.210938,-1.21875 c -0.164063,-0.09375 -0.292969,-0.140625 -0.421875,-0.140625 -0.574219,0 -1.148438,0.515625 -2.039063,1.8398438 l -0.527344,0.7851562 -0.09375,-0.6914062 c -0.164062,-1.4179688 -0.550781,-1.9335938 -1.40625,-1.9335938 -0.375,0 -0.679687,0.1171875 -0.808593,0.3046875 l -0.832032,1.1835938 0.234375,0.1523437 c 0.433594,-0.4921875 0.726563,-0.6914062 0.996094,-0.6914062 0.46875,0 0.785156,0.5859375 1.03125,1.9921875 L 79.274,-3.082625 78.699781,-2.192 c -0.609375,0.9609375 -1.101562,1.41796875 -1.5,1.41796875 -0.210937,0 -0.375,-0.0585938 -0.398437,-0.12890625 L 76.637281,-1.301375 Z m 0,0"
         style="fill:#000000;fill-opacity:1;fill-rule:nonzero;stroke:#000000;stroke-opacity:1" />
      <path
         id="path100"
         d="m 84.811109,-11.230086 c 1.289063,0.03516 1.839844,0.04687 3.035157,0.04687 l 0.04687,-0.04687 c -0.01172,-0.1875 -0.01172,-0.257812 -0.01172,-0.386719 0,-0.140625 0,-0.222656 0.01172,-0.398437 l -0.04687,-0.05859 c -0.75,0.04687 -1.195313,0.05859 -1.734375,0.05859 -0.539063,0 -0.984375,-0.01172 -1.734375,-0.05859 l -0.04687,0.05859 c 0.01172,0.597656 0.02344,1.042969 0.02344,1.359375 0,0.8437498 -0.03516,1.8046873 -0.05859,2.2382811 l 0.199219,0.058594 c 0.46875,-0.46875 0.738281,-0.5976562 1.21875,-0.5976562 0.960938,0 1.558594,0.6679687 1.558594,1.7460937 0,1.1015625 -0.632813,1.7578125 -1.722656,1.7578125 -0.539063,0 -1.042969,-0.1875 -1.171875,-0.4453125 l -0.46875,-0.8085937 -0.234375,0.140625 c 0.234375,0.5625 0.351562,0.8789062 0.492187,1.3242187 0.28125,0.140625 0.679688,0.234375 1.101563,0.234375 0.667968,0 1.371093,-0.2929687 1.921875,-0.7617187 0.609375,-0.5390625 0.925781,-1.21875 0.925781,-1.9570313 0,-1.125 -0.808594,-1.921875 -1.945313,-1.921875 -0.46875,0 -0.832031,0.1289063 -1.453125,0.4921875 z m 0,0"
         style="fill:#000000;fill-opacity:1;fill-rule:nonzero;stroke:#000000;stroke-opacity:1" />
    </g>
  </g>
</svg>
