<?xml version="1.0" encoding="UTF-8" standalone="no"?>
<!-- Created with Inkscape (http://www.inkscape.org/) -->

<svg
   version="1.1"
   id="svg1"
   width="160.14491"
   height="18.84058"
   viewBox="0 0 160.14491 18.84058"
   sodipodi:docname="1.pdf"
   inkscape:export-batch-path="Akemicos\Akdemicos-Front\public"
   inkscape:export-batch-name="puntosP"
   xmlns:inkscape="http://www.inkscape.org/namespaces/inkscape"
   xmlns:sodipodi="http://sodipodi.sourceforge.net/DTD/sodipodi-0.dtd"
   xmlns="http://www.w3.org/2000/svg"
   xmlns:svg="http://www.w3.org/2000/svg">
  <defs
     id="defs1">
    <clipPath
       clipPathUnits="userSpaceOnUse"
       id="clipPath1669">
      <rect
         style="fill:#000000"
         id="rect1670"
         width="130.43478"
         height="15.942029"
         x="586.95654"
         y="807.2464" />
    </clipPath>
  </defs>
  <sodipodi:namedview
     id="namedview1"
     pagecolor="#ffffff"
     bordercolor="#000000"
     borderopacity="0.25"
     inkscape:showpageshadow="2"
     inkscape:pageopacity="0.0"
     inkscape:pagecheckerboard="0"
     inkscape:deskcolor="#d1d1d1"
     showgrid="false">
    <inkscape:page
       x="0"
       y="0"
       width="160.14491"
       height="18.84058"
       id="page1"
       margin="0"
       bleed="0" />
  </sodipodi:namedview>
  <g
     id="g1"
     inkscape:groupmode="layer"
     inkscape:label="1"
     clip-path="url(#clipPath1669)"
     style="stroke:#000000;stroke-width:0.944882;stroke-dasharray:none;stroke-opacity:1"
     transform="matrix(1.2277777,0,0,1.1818182,-720.65215,-954.01849)">
    <path
       id="path1435"
       d="M 0,0 H 0.48 C 0.8,0 0.96,0.16 0.96,0.32 0.96,0.48 0.8,0.8 0.8,1.12 L 0,5.77 c -0.16,0.96 -0.16,0.96 -0.64,0.96 h -0.32 l -0.16,0.32 h 0.48 c 0.48,0 0.8,0 0.96,0 0.16,0 0.48,0 0.96,0 H 1.76 L 1.92,6.73 h -0.8 c -0.32,0 -0.32,0 -0.32,-0.32 0,0 0,-0.16 0,-0.32 L 1.76,0.96 c 0,-0.16 0,-0.32 0,-0.48 0,0 0,-0.16 0.16,-0.32 0.32,0 0.48,0 0.64,0 1.12,0 1.6,0.32 1.6,1.45 0,1.12 -0.64,2.08 -1.6,2.08 C 2.24,3.69 2.08,3.53 1.6,3.37 L 1.76,3.69 C 2.08,4.01 2.24,4.01 2.56,4.01 4,4.01 5.13,2.73 5.13,1.29 5.13,0.16 4.49,-0.32 3.2,-0.32 H 1.76 0.48 0 Z"
       style="fill:#000000;fill-opacity:1;fill-rule:nonzero;stroke:#000000;stroke-width:0.944882;stroke-dasharray:none;stroke-opacity:1"
       transform="translate(589.85998,809.86999)" />
    <path
       id="path1436"
       d="m 0,0 v 0 l 1.12,-0.48 c 0,0 0,0 0,0 0,0 0,0.16 0,0.32 v 3.84 c 0,0.48 0,0.48 -0.48,0.48 L 0.16,4.32 v 0.16 c 1.28,0 1.28,0 1.28,0 0.16,0 0.32,0 0.64,0 0,0 0.32,0 0.64,0 V 4.32 L 2.4,4.16 c -0.48,0 -0.64,0 -0.64,-0.48 v -4.64 -0.16 c -0.64,0.32 -1.12,0.64 -1.92,0.8 z"
       style="fill:#000000;fill-opacity:1;fill-rule:nonzero;stroke:#000000;stroke-width:0.944882;stroke-dasharray:none;stroke-opacity:1"
       transform="translate(594.83002,814.35998)" />
    <path
       id="path1437"
       d="M 0,0 C 0.16,0 0.32,0 0.32,-0.16 0.32,-0.32 0.16,-0.32 0,-0.32 h -6.73 c -0.16,0 -0.32,0 -0.32,0.16 C -7.05,0 -6.89,0 -6.57,0 Z m 0,2.24 c 0.16,0 0.32,0 0.32,-0.32 C 0.32,1.76 0.16,1.76 0,1.76 h -6.57 c -0.32,0 -0.48,0 -0.48,0.16 0,0.32 0.16,0.32 0.32,0.32 z"
       style="fill:#000000;fill-opacity:1;fill-rule:nonzero;stroke:#000000;stroke-width:0.944882;stroke-dasharray:none;stroke-opacity:1"
       transform="translate(609.40997,813.23999)" />
    <path
       id="path1438"
       d="m 0,0 c 0,-0.16 0,-0.16 -0.17,-0.32 -1.44,-1.44 -1.76,-3.52 -1.76,-5.12 0,-1.92 0.32,-3.85 1.76,-5.29 C 0,-10.89 0,-10.89 0,-10.89 c 0,-0.16 0,-0.16 -0.17,-0.16 -0.16,0 -1.12,0.8 -1.76,2.24 -0.48,1.13 -0.64,2.41 -0.64,3.37 0,0.8 0.16,2.08 0.64,3.36 0.8,1.44 1.6,2.08 1.76,2.08 z"
       style="fill:#000000;fill-opacity:1;fill-rule:nonzero;stroke:#000000;stroke-width:0.944882;stroke-dasharray:none;stroke-opacity:1"
       transform="translate(617.27002,819.64001)" />
    <path
       id="path1439"
       d="m 0,0 c 0,0.16 0,0.32 -0.16,0.64 0,0.16 0,0.16 0,0.32 0.16,0 0.32,0.16 0.48,0.16 0.32,0 0.8,-0.32 1.12,-0.8 l 0.8,-1.28 0.16,0.8 c 0,0.8 0.32,1.28 0.64,1.28 C 3.36,1.12 3.68,0.96 4,0.64 L 4.49,0.16 V 0 C 4,0.16 3.84,0.32 3.68,0.32 3.52,0.32 3.36,0.32 3.2,0 3.2,-0.16 3.04,-0.48 2.88,-0.8 L 2.72,-1.92 3.2,-2.4 c 0.48,-0.64 0.8,-0.96 1.12,-0.96 0.17,0 0.17,0.16 0.33,0.32 L 4.81,-3.2 4.97,-4 C 4.81,-4.16 4.65,-4.16 4.65,-4.16 c -0.49,0 -0.97,0.32 -1.61,1.44 L 2.72,-2.24 2.56,-2.72 C 2.56,-3.84 2.24,-4.16 1.6,-4.16 1.28,-4.16 1.12,-4 0.96,-4 l -0.64,0.96 0.16,0.16 c 0.32,-0.48 0.64,-0.64 0.8,-0.64 0.32,0 0.64,0.48 0.8,1.6 l 0.16,0.64 -0.48,0.64 C 1.28,0 0.96,0.32 0.64,0.32 c -0.16,0 -0.32,0 -0.32,0 L 0.16,0 Z"
       style="fill:#000000;fill-opacity:1;fill-rule:nonzero;stroke:#000000;stroke-width:0.944882;stroke-dasharray:none;stroke-opacity:1"
       transform="translate(618.54999,815.96002)" />
    <path
       id="path1440"
       d="m 0,0 v 0 l 1.12,-0.48 c 0,0 0,0 0,0 0,0 0,0.16 0,0.32 v 3.85 c 0,0.48 0,0.48 -0.48,0.48 L 0.16,4.33 v 0.16 c 1.28,0 1.28,0 1.44,0 0,0 0.16,0 0.48,0 0.16,0 0.32,0 0.64,0 V 4.33 L 2.4,4.17 c -0.48,0 -0.48,0 -0.48,-0.48 V -0.96 L 1.76,-1.12 C 1.28,-0.8 0.64,-0.48 0,-0.32 Z"
       style="fill:#000000;fill-opacity:1;fill-rule:nonzero;stroke:#000000;stroke-width:0.944882;stroke-dasharray:none;stroke-opacity:1"
       transform="translate(624.32001,814.35998)" />
    <path
       id="path1441"
       d="m 0,0 c -0.32,0 -0.48,0.16 -1.12,0.32 0,0.8 -0.32,1.44 -0.97,2.56 h 0.16 l 0.49,-0.16 c 0.8,-1.12 1.28,-1.76 1.6,-2.56 z"
       style="fill:#000000;fill-opacity:1;fill-rule:nonzero;stroke:#000000;stroke-width:0.944882;stroke-dasharray:none;stroke-opacity:1"
       transform="translate(630.40997,815.64001)" />
    <path
       id="path1442"
       d="m 0,0 c 0,0 0,0.16 0,0.16 0,0.48 0.48,0.8 0.96,0.8 1.13,0 2.25,-1.28 2.89,-3.2 L 5.29,-6.88 5.13,-7.04 c -0.32,0.16 -0.48,0.16 -0.8,0.16 l -0.32,1.44 c -0.16,0.48 -0.48,1.28 -0.8,1.76 -0.32,0.64 -0.96,1.12 -1.12,1.12 -0.16,0 -0.33,-0.32 -0.33,-0.64 h 0.17 l 0.16,-2.08 c 0,-0.32 0,-0.8 0,-1.12 0,-0.48 -0.16,-0.64 -0.33,-0.64 -0.16,0 -0.32,0.16 -0.8,0.48 l -0.8,0.48 0.16,0.32 0.48,-0.32 v -0.16 c 0.16,0 0.16,0 0.32,0 0,0 0.16,0.16 0.16,0.48 0,0 0,0.16 0,0.16 l -0.16,2.56 v 0.48 c 0,0.48 0.16,0.8 0.48,0.8 0.33,0 1.29,-0.96 2.09,-2.08 l -0.64,1.76 c -0.48,1.92 -0.96,2.72 -1.77,2.72 -0.32,0 -0.64,-0.32 -0.64,-0.8 0,0 0,0 0,-0.16 H 0.48 Z"
       style="fill:#000000;fill-opacity:1;fill-rule:nonzero;stroke:#000000;stroke-width:0.944882;stroke-dasharray:none;stroke-opacity:1"
       transform="translate(632.65002,818.84003)" />
    <path
       id="path1443"
       d="m 0,0 v 0 l 1.12,-0.48 c 0,0 0,0 0,0 0,0 0,0.16 0,0.32 v 3.85 c 0,0.48 0,0.48 -0.48,0.48 L 0.16,4.33 v 0.16 c 1.28,0 1.28,0 1.44,0 0,0 0.16,0 0.48,0 0.16,0 0.32,0 0.64,0 V 4.33 L 2.4,4.17 c -0.48,0 -0.48,0 -0.48,-0.48 V -0.96 L 1.76,-1.12 C 1.28,-0.8 0.64,-0.48 0,-0.32 Z"
       style="fill:#000000;fill-opacity:1;fill-rule:nonzero;stroke:#000000;stroke-width:0.944882;stroke-dasharray:none;stroke-opacity:1"
       transform="translate(638.73999,814.35998)" />
    <path
       id="path1444"
       d="m 0,0 c 0,-0.96 -0.17,-2.24 -0.81,-3.53 -0.64,-1.28 -1.6,-2.08 -1.6,-2.08 -0.16,0 -0.16,0 -0.16,0.16 0,0 0,0 0.16,0.16 1.12,1.12 1.76,2.89 1.76,5.29 0,1.92 -0.48,3.84 -1.76,5.12 -0.16,0.16 -0.16,0.16 -0.16,0.32 0,0 0,0 0.16,0 0,0 1.12,-0.64 1.76,-2.08 C -0.17,2.08 0,0.96 0,0 Z"
       style="fill:#000000;fill-opacity:1;fill-rule:nonzero;stroke:#000000;stroke-width:0.944882;stroke-dasharray:none;stroke-opacity:1"
       transform="translate(645.96002,814.20001)" />
    <path
       id="path1445"
       d="m 0,0 c -0.32,-0.32 -0.48,-0.64 -0.64,-1.12 l -0.64,-1.76 c 0,-0.16 -0.16,-0.32 -0.16,-0.48 0,-0.16 0.16,-0.16 0.48,-0.16 l 0.32,-0.16 v -0.16 c -0.96,0 -0.96,0 -1.29,0 -0.16,0 -0.16,0 -1.12,0 v 0.16 l 0.16,0.16 c 0.32,0 0.32,0 0.48,0.48 l 1.29,2.72 c 0.16,0.8 0.32,0.96 0.48,1.6 L -0.8,1.92 c -0.32,0.8 -0.8,1.28 -1.13,1.28 -0.32,0 -0.48,0 -0.64,-0.16 h -0.16 l -0.16,0.8 c 0.16,0 0.32,0.17 0.48,0.17 0.81,0 1.29,-0.49 1.61,-1.29 l 2.24,-4.96 c 0.32,-0.96 0.48,-1.28 0.8,-1.28 l 0.32,-0.16 v -0.16 c -0.8,0 -0.8,0 -0.96,0 -0.16,0 -0.16,0 -1.12,0 v 0.16 l 0.32,0.16 c 0.32,0 0.48,0 0.48,0.16 0,0.16 0,0.16 -0.16,0.32 z"
       style="fill:#000000;fill-opacity:1;fill-rule:nonzero;stroke:#000000;stroke-width:0.944882;stroke-dasharray:none;stroke-opacity:1"
       transform="translate(653.48999,815.96002)" />
    <path
       id="path1446"
       d="m 0,0 h 0.64 c 0.16,0 0.32,0.16 0.32,0.32 0,0.16 0,0.48 -0.16,0.8 L 0.16,5.77 c -0.32,0.96 -0.32,0.96 -0.64,0.96 h -0.48 v 0.32 h 0.48 c 0.32,0 0.64,0 0.96,0 0.16,0 0.48,0 0.8,0 H 1.92 V 6.73 H 1.28 c -0.32,0 -0.48,0 -0.48,-0.32 0,0 0,-0.16 0,-0.32 L 1.76,0.96 c 0,-0.16 0,-0.32 0.16,-0.48 0,0 0,-0.16 0,-0.32 0.32,0 0.48,0 0.81,0 0.96,0 1.6,0.32 1.6,1.45 0,1.12 -0.8,2.08 -1.76,2.08 C 2.4,3.69 2.08,3.53 1.76,3.37 v 0.32 c 0.32,0.32 0.64,0.32 0.97,0.32 1.28,0 2.56,-1.28 2.56,-2.72 0,-1.13 -0.8,-1.61 -2.08,-1.61 H 1.76 0.64 0 Z"
       style="fill:#000000;fill-opacity:1;fill-rule:nonzero;stroke:#000000;stroke-width:0.944882;stroke-dasharray:none;stroke-opacity:1"
       transform="translate(660.70001,809.86999)" />
    <path
       id="path1447"
       d="m 0,0 v 0.16 c 1.44,0 1.44,0 1.76,0 0.32,0 0.32,0 1.77,0 0,-0.16 0,-0.16 0,-0.32 0,-0.16 0,-0.16 0,-0.32 -0.97,0 -1.29,0 -2.73,0 L 2.24,-1.92 C 3.04,-2.72 3.2,-3.2 3.2,-3.84 3.2,-4.8 2.56,-5.28 1.6,-5.28 1.12,-5.28 0.64,-5.12 0.32,-4.8 L 0.16,-3.68 H 0.32 L 0.48,-4 c 0.16,-0.48 0.32,-0.64 0.96,-0.64 0.64,0 1.12,0.32 1.12,1.12 0,0.48 -0.32,1.12 -1.28,2.08 z"
       style="fill:#000000;fill-opacity:1;fill-rule:nonzero;stroke:#000000;stroke-width:0.944882;stroke-dasharray:none;stroke-opacity:1"
       transform="translate(665.34998,818.52002)" />
    <path
       id="path1448"
       d="M 0,0 C 0.16,0 0.48,0 0.48,-0.16 0.48,-0.32 0.16,-0.32 0,-0.32 h -6.57 c -0.16,0 -0.32,0 -0.32,0.16 C -6.89,0 -6.73,0 -6.57,0 Z m 0,2.24 c 0.16,0 0.48,0 0.48,-0.32 C 0.48,1.76 0.16,1.76 0,1.76 h -6.57 c -0.16,0 -0.32,0 -0.32,0.16 0,0.32 0.16,0.32 0.32,0.32 z"
       style="fill:#000000;fill-opacity:1;fill-rule:nonzero;stroke:#000000;stroke-width:0.944882;stroke-dasharray:none;stroke-opacity:1"
       transform="translate(680.25,813.23999)" />
    <path
       id="path1449"
       d="m 0,0 c 0,-0.16 0,-0.16 -0.16,-0.32 -1.44,-1.44 -1.76,-3.52 -1.76,-5.12 0,-1.92 0.48,-3.85 1.76,-5.29 C 0,-10.89 0,-10.89 0,-10.89 c 0,-0.16 0,-0.16 0,-0.16 -0.16,0 -1.12,0.8 -1.76,2.24 -0.65,1.13 -0.81,2.41 -0.81,3.37 0,0.8 0.16,2.08 0.81,3.36 C -1.12,-0.64 -0.16,0 0,0 Z"
       style="fill:#000000;fill-opacity:1;fill-rule:nonzero;stroke:#000000;stroke-width:0.944882;stroke-dasharray:none;stroke-opacity:1"
       transform="translate(688.10999,819.64001)" />
    <path
       id="path1450"
       d="m 0,0 c 0,0.16 0,0.32 0,0.64 0,0.16 0,0.16 0,0.32 0.16,0 0.32,0.16 0.32,0.16 0.48,0 0.8,-0.32 1.12,-0.8 l 0.8,-1.28 0.16,0.8 c 0.17,0.8 0.33,1.28 0.81,1.28 0.16,0 0.48,-0.16 0.96,-0.48 L 4.65,0.16 4.49,0 C 4.17,0.16 3.85,0.32 3.69,0.32 3.53,0.32 3.37,0.32 3.37,0 3.21,-0.16 3.05,-0.48 3.05,-0.8 L 2.89,-1.92 3.21,-2.4 c 0.48,-0.64 0.8,-0.96 1.12,-0.96 0.16,0 0.32,0.16 0.32,0.32 L 4.81,-3.2 4.97,-4 C 4.81,-4.16 4.81,-4.16 4.65,-4.16 c -0.48,0 -0.8,0.32 -1.44,1.44 L 2.73,-2.24 V -2.72 C 2.57,-3.84 2.24,-4.16 1.6,-4.16 1.44,-4.16 1.12,-4 1.12,-4 l -0.64,0.96 0.16,0.16 c 0.32,-0.48 0.48,-0.64 0.64,-0.64 0.48,0 0.64,0.48 0.8,1.6 l 0.16,0.64 -0.48,0.64 C 1.28,0 0.96,0.32 0.64,0.32 c -0.16,0 -0.16,0 -0.32,0 V 0 Z"
       style="fill:#000000;fill-opacity:1;fill-rule:nonzero;stroke:#000000;stroke-width:0.944882;stroke-dasharray:none;stroke-opacity:1"
       transform="translate(689.39001,815.96002)" />
    <path
       id="path1451"
       d="m 0,0 v 0.16 c 1.44,0 1.44,0 1.76,0 0.32,0 0.32,0 1.77,0 0,-0.16 0,-0.16 0,-0.32 0,-0.16 0,-0.16 0,-0.32 -0.81,0 -1.29,0 -2.73,0 l 1.44,-1.44 c 0.81,-0.8 0.97,-1.28 0.97,-1.92 0,-0.96 -0.49,-1.44 -1.61,-1.44 -0.48,0 -0.96,0.16 -1.28,0.48 L 0.16,-3.68 H 0.32 L 0.48,-4 c 0.16,-0.48 0.48,-0.64 0.96,-0.64 0.64,0 1.12,0.32 1.12,1.12 0,0.48 -0.32,1.12 -1.28,2.08 z"
       style="fill:#000000;fill-opacity:1;fill-rule:nonzero;stroke:#000000;stroke-width:0.944882;stroke-dasharray:none;stroke-opacity:1"
       transform="translate(694.84003,818.52002)" />
    <path
       id="path1452"
       d="m 0,0 c -0.32,0 -0.48,0.16 -0.97,0.32 -0.16,0.8 -0.48,1.44 -0.96,2.56 h 0.16 L -1.45,2.72 C -0.48,1.6 -0.16,0.96 0.16,0.16 Z"
       style="fill:#000000;fill-opacity:1;fill-rule:nonzero;stroke:#000000;stroke-width:0.944882;stroke-dasharray:none;stroke-opacity:1"
       transform="translate(701.25,815.64001)" />
    <path
       id="path1453"
       d="m 0,0 c -0.16,0 -0.16,0.16 -0.16,0.16 0,0.48 0.48,0.8 0.96,0.8 1.12,0 2.24,-1.28 2.88,-3.2 L 5.12,-6.88 V -7.04 C 4.8,-6.88 4.48,-6.88 4.32,-6.88 L 4,-5.44 c -0.16,0.48 -0.64,1.28 -0.96,1.76 -0.32,0.64 -0.8,1.12 -1.12,1.12 -0.16,0 -0.16,-0.32 -0.16,-0.64 v 0 l 0.16,-2.08 c 0,-0.32 0,-0.8 0,-1.12 0,-0.48 0,-0.64 -0.16,-0.64 -0.16,0 -0.32,0.16 -0.8,0.48 L 0,-6.08 0.16,-5.76 0.64,-6.08 0.8,-6.24 c 0,0 0.16,0 0.16,0 0.16,0 0.16,0.16 0.16,0.48 0,0 0,0.16 0,0.16 l -0.16,2.56 v 0.48 c 0,0.48 0.16,0.8 0.48,0.8 0.32,0 1.28,-0.96 2.08,-2.08 L 3.04,-2.08 C 2.4,-0.16 1.92,0.64 1.12,0.64 0.8,0.64 0.48,0.32 0.48,-0.16 c 0,0 0,0 0,-0.16 v 0 z"
       style="fill:#000000;fill-opacity:1;fill-rule:nonzero;stroke:#000000;stroke-width:0.944882;stroke-dasharray:none;stroke-opacity:1"
       transform="translate(703.65997,818.84003)" />
    <path
       id="path1454"
       d="m 0,0 v 0.16 c 1.44,0 1.44,0 1.76,0 0.32,0 0.32,0 1.77,0 0,-0.16 0,-0.16 0,-0.32 0,-0.16 0,-0.16 0,-0.32 -0.81,0 -1.29,0 -2.73,0 l 1.44,-1.44 c 0.81,-0.8 0.97,-1.28 0.97,-1.92 0,-0.96 -0.49,-1.44 -1.61,-1.44 -0.48,0 -0.96,0.16 -1.28,0.48 L 0.16,-3.68 H 0.32 L 0.48,-4 c 0.16,-0.48 0.48,-0.64 0.96,-0.64 0.64,0 1.12,0.32 1.12,1.12 0,0.48 -0.32,1.12 -1.28,2.08 z"
       style="fill:#000000;fill-opacity:1;fill-rule:nonzero;stroke:#000000;stroke-width:0.944882;stroke-dasharray:none;stroke-opacity:1"
       transform="translate(709.27002,818.52002)" />
    <path
       id="path1455"
       d="m 0,0 c 0,-0.96 0,-2.24 -0.64,-3.53 -0.64,-1.28 -1.61,-2.08 -1.77,-2.08 0,0 -0.16,0 -0.16,0.16 0,0 0,0 0.32,0.16 0.97,1.12 1.61,2.89 1.61,5.29 0,1.92 -0.32,3.84 -1.77,5.12 -0.16,0.16 -0.16,0.16 -0.16,0.32 0,0 0.16,0 0.16,0 0.16,0 1.13,-0.64 1.77,-2.08 C 0,2.08 0,0.96 0,0 Z"
       style="fill:#000000;fill-opacity:1;fill-rule:nonzero;stroke:#000000;stroke-width:0.944882;stroke-dasharray:none;stroke-opacity:1"
       transform="translate(716.79999,814.20001)" />
  </g>
</svg>
