<?xml version="1.0" encoding="UTF-8" standalone="no"?>
<!-- Created with Inkscape (http://www.inkscape.org/) -->

<svg
   version="1.1"
   id="svg1"
   width="218.5567"
   height="21.649485"
   viewBox="0 0 218.5567 21.649485"
   sodipodi:docname="writetex.pdf"
   inkscape:export-batch-path="..\Akemicos\Akdemicos-Front\public"
   inkscape:export-batch-name="Rancosecante"
   xmlns:inkscape="http://www.inkscape.org/namespaces/inkscape"
   xmlns:sodipodi="http://sodipodi.sourceforge.net/DTD/sodipodi-0.dtd"
   xmlns="http://www.w3.org/2000/svg"
   xmlns:svg="http://www.w3.org/2000/svg">
  <defs
     id="defs1">
    <clipPath
       clipPathUnits="userSpaceOnUse"
       id="clipPath184">
      <rect
         style="fill:#000000;stroke:#000000;stroke-opacity:1"
         id="rect185"
         width="218.5567"
         height="21.649485"
         x="440.20618"
         y="848.45361" />
    </clipPath>
  </defs>
  <sodipodi:namedview
     id="namedview1"
     pagecolor="#ffffff"
     bordercolor="#000000"
     borderopacity="0.25"
     inkscape:showpageshadow="2"
     inkscape:pageopacity="0.0"
     inkscape:pagecheckerboard="0"
     inkscape:deskcolor="#d1d1d1"
     showgrid="false">
    <inkscape:page
       x="0"
       y="0"
       width="218.5567"
       height="21.649485"
       id="page1"
       margin="0"
       bleed="0" />
  </sodipodi:namedview>
  <g
     id="g1"
     inkscape:groupmode="layer"
     inkscape:label="1"
     clip-path="url(#clipPath184)"
     transform="translate(-440.20618,-848.45361)">
    <g
       id="g70"
       aria-label="y&#10;Dominio={R−{nπ},conn∈Z},Rango=(−∞,−1]∪[1,∞),"
       transform="matrix(1.3333333,0,0,1.3333333,264.72,796.948)">
      <path
         id="path71"
         d="m -0.10640625,2.5790391 c -0.0117188,0.1054687 -0.0117188,0.1875 -0.0117188,0.2578125 0,0.6210937 0.52734375,1.125 1.18359375,1.125 1.5117188,0 3.09375,-1.78125 3.9375,-4.42968754 L 7.0303125,-6.7842422 6.86625,-6.9131484 c -0.4101562,0.1523437 -0.7382812,0.2460937 -1.0546875,0.2695312 l -0.5039062,1.8984375 c -0.1757813,0.6679688 -0.6796875,1.7226563 -1.1484375,2.4257813 -0.5039063,0.7265625 -1.2070313,1.35937496 -1.5234375,1.35937496 -0.1640625,0 -0.2929688,-0.32812496 -0.28125,-0.69140626 l 0.011719,-0.1875 0.2109375,-2.7773437 c 0.035156,-0.4453125 0.058594,-0.9960938 0.058594,-1.3945313 0,-0.6445312 -0.09375,-0.9023437 -0.3398438,-0.9023437 -0.1875,0 -0.3867187,0.1054687 -1.078125,0.5742187 l -1.171875,0.8085938 0.15234375,0.2578125 0.71484375,-0.4335938 0.0585938,-0.046875 c 0.140625,-0.082031 0.2460937,-0.1289062 0.3046875,-0.1289062 0.1992187,0 0.3164062,0.2695312 0.3164062,0.75 0,0.011719 0,0.09375 -0.011719,0.2109375 L 1.335,-1.4287734 1.3232813,-0.85455469 c 0,0.59765625 0.2578125,1.0078125 0.609375,1.0078125 0.5390625,0 1.734375,-1.21875001 2.8125,-2.83593751 l -0.703125,2.44921876 C 3.3154688,2.3095078 2.600625,3.3524766 1.5928125,3.3524766 c -0.5039062,0 -0.890625,-0.3867188 -0.890625,-0.8789063 0,-0.082031 0.0117188,-0.1875 0.0234375,-0.3164062 L 0.585,2.0985703 Z m 0,0"
         style="fill:#000000;fill-opacity:1;fill-rule:nonzero;stroke:none" />
      <path
         id="path72"
         d="m -99.373008,51.446227 v 0.328125 c 1.664063,-0.04687 1.664063,-0.04687 1.992188,-0.04687 0.257812,0 0.492187,0 0.75,0.01172 1.125,0.03516 1.125,0.03516 1.324218,0.03516 1.839844,0 3.222657,-0.480469 4.21875,-1.464844 1.03125,-1.019531 1.664063,-2.566406 1.664063,-4.101563 0,-2.671875 -1.980469,-4.40625 -5.003906,-4.40625 -0.105469,0 -0.28125,0 -0.539063,0.01172 -0.726562,0.01172 -1.335937,0.03516 -1.957031,0.03516 -0.527344,0 -1.324219,-0.02344 -2.953125,-0.04687 v 0.433594 l 0.574219,0.03516 c 0.65625,0.04687 0.726562,0.175782 0.726562,1.300782 v 6.796875 c 0,0.410156 -0.128906,0.726562 -0.351562,0.84375 z m 2.167969,-8.953125 c 0.363281,-0.07031 0.867187,-0.117188 1.582031,-0.117188 1.054688,0 2.203125,0.1875 2.800781,0.457031 0.316407,0.128907 0.585938,0.328125 0.84375,0.585938 0.691407,0.691406 1.019532,1.722656 1.019532,3.164062 0,1.605469 -0.480469,2.835938 -1.429688,3.609375 -0.867187,0.703125 -1.722656,0.949219 -3.339844,0.949219 -0.667968,0 -1.113281,-0.03516 -1.476562,-0.117187 z m 12.111328,2.507812 c -2.085937,0 -3.539062,1.476563 -3.539062,3.609375 0,2.027344 1.277343,3.398438 3.128906,3.398438 2.203125,0 3.785156,-1.523438 3.785156,-3.679688 0,-1.933594 -1.40625,-3.328125 -3.375,-3.328125 z m -0.257812,0.46875 c 1.324218,0 2.296875,1.441406 2.296875,3.386719 0,1.652344 -0.726563,2.683594 -1.886719,2.683594 -1.40625,0 -2.355469,-1.371094 -2.355469,-3.410157 0,-1.722656 0.691406,-2.660156 1.945313,-2.660156 z m 4.353515,0.515625 h 0.527344 c 0.574219,0 0.632812,0.105469 0.632812,1.054688 v 3.222656 c 0,0.902344 -0.03516,1.007812 -0.527343,1.03125 l -0.65625,0.04687 v 0.433594 c 1.371093,-0.04687 1.417968,-0.04687 1.816406,-0.04687 0.398437,0 0.773437,0.01172 1.710937,0.04687 v -0.433594 l -0.609375,-0.04687 c -0.480468,-0.02344 -0.527343,-0.128906 -0.527343,-1.03125 v -3.035156 c 0,-0.644532 0.949218,-1.347657 1.804687,-1.347657 0.773438,0 1.3125,0.726563 1.3125,1.816407 v 2.566406 c 0,0.902344 -0.04687,1.007812 -0.539062,1.03125 l -0.65625,0.04687 v 0.433594 c 1.429687,-0.04687 1.429687,-0.04687 1.792968,-0.04687 0.363282,0 0.363282,0 1.792969,0.04687 v -0.433594 l -0.65625,-0.04687 c -0.492187,-0.02344 -0.539062,-0.128906 -0.539062,-1.03125 v -3.035156 c 0,-0.644532 0.949218,-1.347657 1.816406,-1.347657 0.773437,0 1.300781,0.726563 1.300781,1.816407 v 4.078125 c 0.878906,-0.04687 0.890625,-0.04687 1.136719,-0.04687 0.1875,0 0.1875,0 1.277344,0.04687 v -0.433594 l -0.679688,-0.04687 c -0.480469,-0.02344 -0.527344,-0.128906 -0.527344,-1.03125 v -2.953125 c 0,-1.417969 -0.832031,-2.308594 -2.15625,-2.308594 -0.503906,0 -0.914062,0.128906 -1.171875,0.363281 l -1.089843,0.972657 c -0.457032,-0.949219 -1.054688,-1.335938 -2.039063,-1.335938 -0.527344,0 -0.9375,0.128906 -1.195312,0.363281 l -0.984375,0.914063 v -1.21875 l -0.128907,-0.05859 c -0.726562,0.304688 -1.476562,0.503906 -2.238281,0.585938 z m 15.105469,-0.925781 -0.128906,-0.05859 c -0.726563,0.304688 -1.476563,0.503906 -2.238282,0.585938 v 0.398437 h 0.527344 c 0.574219,0 0.632813,0.105469 0.632813,1.054688 v 3.222656 c 0,0.902344 -0.03516,1.007812 -0.527344,1.03125 l -0.65625,0.04687 v 0.433594 c 1.429687,-0.04687 1.429687,-0.04687 1.792969,-0.04687 0.351562,0 0.351562,0 1.792968,0.04687 v -0.433594 l -0.667968,-0.04687 c -0.480469,-0.02344 -0.527344,-0.128906 -0.527344,-1.03125 z m -0.65625,-3.1875 c -0.433594,0 -0.808594,0.375 -0.808594,0.808594 0,0.410156 0.375,0.785156 0.796875,0.785156 0.410156,0 0.796875,-0.375 0.796875,-0.785156 0,-0.410157 -0.386719,-0.808594 -0.785156,-0.808594 z m 8.018555,9.902344 c 0.878906,-0.04687 0.890625,-0.04687 1.136718,-0.04687 0.199219,0 0.199219,0 1.183594,0.04687 v -0.433594 l -0.585937,-0.04687 c -0.492188,-0.02344 -0.527344,-0.117188 -0.527344,-1.03125 v -2.765625 c 0,-1.675781 -0.796875,-2.496094 -2.402344,-2.496094 -0.527344,0 -0.832031,0.105469 -1.125,0.363281 l -1.089844,0.9375 v -1.242187 l -0.128906,-0.05859 c -0.738281,0.304688 -1.488281,0.503906 -2.238281,0.585938 v 0.398437 h 0.527344 c 0.574218,0 0.632812,0.105469 0.632812,1.054688 v 3.222656 c 0,0.902344 -0.04687,1.007812 -0.539062,1.03125 l -0.644532,0.04687 v 0.433594 c 0.984375,-0.03516 1.371094,-0.04687 1.78125,-0.04687 0.421875,0 0.808594,0.01172 1.78125,0.04687 v -0.433594 l -0.644531,-0.04687 c -0.492187,-0.02344 -0.527344,-0.128906 -0.527344,-1.03125 v -3.035156 c 0,-0.644532 0.9375,-1.347657 1.816407,-1.347657 0.960937,0 1.59375,0.714844 1.59375,1.816407 z m 5.162109,-6.714844 -0.128906,-0.05859 c -0.726563,0.304688 -1.476563,0.503906 -2.238281,0.585938 v 0.398437 h 0.527343 c 0.574219,0 0.632813,0.105469 0.632813,1.054688 v 3.222656 c 0,0.902344 -0.03516,1.007812 -0.527344,1.03125 l -0.65625,0.04687 v 0.433594 c 1.429688,-0.04687 1.429688,-0.04687 1.792969,-0.04687 0.351562,0 0.351562,0 1.792969,0.04687 v -0.433594 l -0.667969,-0.04687 c -0.480469,-0.02344 -0.527344,-0.128906 -0.527344,-1.03125 z m -0.65625,-3.1875 c -0.433594,0 -0.808594,0.375 -0.808594,0.808594 0,0.410156 0.375,0.785156 0.796875,0.785156 0.410157,0 0.796875,-0.375 0.796875,-0.785156 0,-0.410157 -0.386718,-0.808594 -0.785156,-0.808594 z m 6.131836,3.128906 c -2.085938,0 -3.539063,1.476563 -3.539063,3.609375 0,2.027344 1.277344,3.398438 3.128907,3.398438 2.203125,0 3.785156,-1.523438 3.785156,-3.679688 0,-1.933594 -1.40625,-3.328125 -3.375,-3.328125 z m -0.257813,0.46875 c 1.324219,0 2.296875,1.441406 2.296875,3.386719 0,1.652344 -0.726562,2.683594 -1.886718,2.683594 -1.40625,0 -2.355469,-1.371094 -2.355469,-3.410157 0,-1.722656 0.691406,-2.660156 1.945312,-2.660156 z m 16.699219,0.726563 h -7.230469 v 0.796875 h 7.230469 z m 0,2.777343 h -7.230469 v 0.808594 h 7.230469 z m 0,0"
         style="fill:#000000;fill-opacity:1;fill-rule:nonzero;stroke:none" />
      <path
         id="path73"
         d="m -26.309531,42.50482 c 0,-0.597656 0.386719,-1.558593 2.015625,-1.664062 0.08203,-0.01172 0.140625,-0.07031 0.140625,-0.164063 0,-0.164062 -0.117188,-0.164062 -0.28125,-0.164062 -1.5,0 -2.859375,0.761719 -2.871094,1.863281 v 3.410156 c 0,0.585938 0,1.066407 -0.597656,1.558594 -0.527344,0.433594 -1.101563,0.46875 -1.429688,0.480469 -0.07031,0.01172 -0.128906,0.07031 -0.128906,0.164062 0,0.152344 0.09375,0.152344 0.234375,0.164063 0.996094,0.05859 1.710938,0.597656 1.875,1.335937 0.04687,0.164063 0.04687,0.1875 0.04687,0.726563 v 2.964844 c 0,0.621093 0,1.101562 0.714844,1.675781 0.585937,0.445312 1.570312,0.609375 2.15625,0.609375 0.164062,0 0.28125,0 0.28125,-0.164063 0,-0.152343 -0.09375,-0.152343 -0.246094,-0.164062 -0.9375,-0.05859 -1.664062,-0.539063 -1.863281,-1.300781 -0.04687,-0.140625 -0.04687,-0.164063 -0.04687,-0.703125 v -3.140625 c 0,-0.691407 -0.117188,-0.9375 -0.597656,-1.417969 -0.316407,-0.316406 -0.75,-0.46875 -1.160157,-0.585938 1.21875,-0.339843 1.757813,-1.03125 1.757813,-1.898437 z m 0,0"
         style="fill:#000000;fill-opacity:1;fill-rule:nonzero;stroke:none" />
      <path
         id="path74"
         d="m -22.57125,42.235289 0.632813,0.03516 c 0.585937,0.04687 0.726562,0.164063 0.726562,1.300782 v 6.433593 c 0,1.136719 -0.140625,1.265625 -0.726562,1.289063 l -0.632813,0.04687 v 0.433594 c 0.84375,-0.03516 2.167969,-0.04687 2.90625,-0.04687 0.75,0 2.132813,0.01172 2.976563,0.04687 v -0.433594 l -0.691407,-0.04687 c -0.644531,-0.03516 -0.726562,-0.152344 -0.726562,-1.207031 v -7.570313 c 0.492187,-0.128906 0.914062,-0.164062 1.40625,-0.164062 1.488281,0 2.320312,0.679687 2.320312,1.898437 0,1.324219 -1.054687,2.15625 -2.71875,2.15625 -0.08203,0 -0.222656,0 -0.410156,-0.01172 l -0.08203,0.164063 c 0.152344,0.1875 0.199219,0.246094 0.363281,0.433594 0.210938,0.234375 0.246094,0.292968 0.375,0.457031 l 2.648438,3.550781 c 0.08203,0.105469 0.164062,0.222656 0.257812,0.328125 l 0.328125,0.445313 c 0.585938,-0.03516 0.796875,-0.04687 0.972656,-0.04687 0.152344,0 0.339844,0.01172 1.03125,0.04687 v -0.433594 c -0.457031,-0.04687 -0.691406,-0.128906 -0.878906,-0.375 l -3.246094,-4.242188 c 0.785157,-0.1875 1.136719,-0.351562 1.605469,-0.65625 0.785156,-0.550781 1.183594,-1.265625 1.183594,-2.109375 0,-1.394531 -0.984375,-2.15625 -2.8125,-2.15625 h -0.199219 c -0.28125,0.01172 -0.527344,0.01172 -0.726562,0.02344 -0.433594,0.02344 -0.972657,0.02344 -1.523438,0.02344 H -19.665 c -0.738281,0 -2.0625,-0.02344 -2.90625,-0.04687 z m 3.09375,1.335938 v 6.433593 c 0,1.136719 -0.07031,1.253907 -0.527344,1.289063 -0.457031,-0.03516 -0.539062,-0.152344 -0.539062,-1.289063 v -6.433593 c 0,-1.136719 0.08203,-1.253907 0.539062,-1.300782 0.457032,0.03516 0.527344,0.164063 0.527344,1.300782 z m 0,0"
         style="fill:#000000;fill-opacity:1;fill-rule:nonzero;stroke:none" />
      <path
         id="path75"
         d="m 1.7041406,48.293883 c 0.2578125,0 0.5273438,0 0.5273438,-0.304688 0,-0.304687 -0.2695313,-0.304687 -0.5273438,-0.304687 h -8.0859375 c -0.2578125,0 -0.5273437,0 -0.5273437,0.304687 0,0.304688 0.2695312,0.304688 0.5273437,0.304688 z M 10.997109,42.50482 c 0,-0.597656 0.386719,-1.558593 2.015625,-1.664062 0.08203,-0.01172 0.140625,-0.07031 0.140625,-0.164063 0,-0.164062 -0.117187,-0.164062 -0.28125,-0.164062 -1.5,0 -2.859375,0.761719 -2.871093,1.863281 v 3.410156 c 0,0.585938 0,1.066407 -0.5976566,1.558594 -0.5273438,0.433594 -1.1015625,0.46875 -1.4296875,0.480469 -0.070312,0.01172 -0.1289063,0.07031 -0.1289063,0.164062 0,0.152344 0.09375,0.152344 0.234375,0.164063 0.9960938,0.05859 1.7109375,0.597656 1.875,1.335937 0.046875,0.164063 0.046875,0.1875 0.046875,0.726563 v 2.964844 c 0,0.621093 0,1.101562 0.714843,1.675781 0.585938,0.445312 1.570313,0.609375 2.15625,0.609375 0.164063,0 0.28125,0 0.28125,-0.164063 0,-0.152343 -0.09375,-0.152343 -0.246093,-0.164062 -0.9375,-0.05859 -1.664063,-0.539063 -1.863282,-1.300781 -0.04687,-0.140625 -0.04687,-0.164063 -0.04687,-0.703125 v -3.140625 c 0,-0.691407 -0.117187,-0.9375 -0.597656,-1.417969 -0.316406,-0.316406 -0.7500023,-0.46875 -1.1601585,-0.585938 1.2187525,-0.339843 1.7578145,-1.03125 1.7578145,-1.898437 z m 0,0"
         style="fill:#000000;fill-opacity:1;fill-rule:nonzero;stroke:none" />
      <path
         id="path76"
         d="m 14.940469,46.16107 0.105469,0.292969 0.457031,-0.304687 c 0.527344,-0.328125 0.574219,-0.363282 0.679687,-0.363282 0.152344,0 0.257813,0.152344 0.257813,0.363282 0,0.726562 -0.597656,3.503906 -1.183594,5.554687 l 0.105469,0.152344 c 0.351562,-0.105469 0.691406,-0.1875 1.007812,-0.246094 0.269532,-1.804687 0.574219,-2.742187 1.230469,-3.726562 0.773438,-1.207032 1.851563,-2.097657 2.496094,-2.097657 0.152344,0 0.246094,0.128907 0.246094,0.351563 0,0.257812 -0.04687,0.550781 -0.164063,1.019531 l -0.75,3.035156 c -0.128906,0.527344 -0.175781,0.855469 -0.175781,1.089844 0,0.363281 0.152344,0.574219 0.421875,0.574219 0.375,0 0.890625,-0.304688 2.296875,-1.347656 l -0.140625,-0.257813 -0.375,0.246094 c -0.410156,0.269531 -0.726563,0.421875 -0.878906,0.421875 -0.09375,0 -0.1875,-0.128906 -0.1875,-0.28125 0,-0.07031 0.02344,-0.234375 0.03516,-0.292969 l 0.949219,-3.949219 c 0.09375,-0.421875 0.152343,-0.820312 0.152343,-1.066406 0,-0.328125 -0.152343,-0.515625 -0.445312,-0.515625 -0.597656,0 -1.59375,0.550781 -2.4375,1.335938 -0.539063,0.503906 -0.949219,0.984375 -1.6875,2.039062 L 17.49516,45.87982 c 0.05859,-0.257812 0.09375,-0.433593 0.09375,-0.597656 0,-0.292969 -0.117187,-0.46875 -0.339843,-0.46875 -0.292969,0 -0.855469,0.316406 -1.898438,1.066406 z m 0,0"
         style="fill:#000000;fill-opacity:1;fill-rule:nonzero;stroke:none" />
      <path
         id="path77"
         d="m 24.318398,46.664977 0.128907,-0.105469 c 0.292968,-0.855469 0.867187,-0.902344 1.6875,-0.902344 0.175781,0 0.433593,0.01172 0.726562,0.01172 -1.195312,3.28125 -1.746094,4.265625 -2.90625,6.082031 l 0.128906,0.128906 1.054688,-0.363281 c 0.527344,-1.125 1.394531,-3.304687 2.191406,-5.824219 l 2.660156,0.09375 c -0.246093,0.890625 -1.078125,3.492188 -1.078125,4.40625 0,1.511719 0.550782,1.6875 0.996094,1.6875 0.726563,0 1.148438,-0.175781 2.050781,-0.9375 l -0.117187,-0.28125 -0.339844,0.246094 c 0.03516,-0.02344 -0.375,0.304688 -0.621094,0.304688 -0.667968,0 -0.878906,-0.421875 -0.878906,-1.300782 0,-0.363281 0.03516,-0.75 0.117188,-1.171875 0.246093,-1.183593 0.492187,-2.367187 0.621093,-2.953125 0.328125,0 0.65625,-0.01172 0.984375,-0.05859 0.257813,0 0.574219,-0.140625 0.808594,-0.222657 0.152344,-0.304687 0.210938,-0.328125 0.480469,-0.679687 l -0.09375,-0.164063 c -0.386719,0.128907 -1.03125,0.269532 -1.511719,0.269532 -0.164062,0.01172 -0.527344,0.02344 -0.890625,0.02344 -1.523437,-0.01172 -3.890625,-0.128906 -4.523437,-0.128906 -1.078125,0 -1.464844,0.480469 -1.886719,1.722656 z m 0,0"
         style="fill:#000000;fill-opacity:1;fill-rule:nonzero;stroke:none" />
      <path
         id="path78"
         d="m 36.614297,53.47357 c 0,0.597657 -0.398438,1.558594 -2.027344,1.664063 -0.07031,0.01172 -0.128906,0.07031 -0.128906,0.164062 0,0.164063 0.164062,0.164063 0.292969,0.164063 1.453125,0 2.847656,-0.738281 2.859375,-1.863281 V 50.19232 c 0,-0.585937 0,-1.066406 0.597656,-1.558593 0.527344,-0.433594 1.089844,-0.46875 1.417969,-0.480469 0.08203,-0.01172 0.140625,-0.07031 0.140625,-0.164063 0,-0.152343 -0.09375,-0.152343 -0.246094,-0.164062 -0.984375,-0.05859 -1.699219,-0.597656 -1.863281,-1.335938 -0.04687,-0.164062 -0.04687,-0.1875 -0.04687,-0.726562 v -2.964844 c 0,-0.621094 0,-1.101562 -0.714844,-1.675781 -0.597656,-0.457031 -1.628906,-0.609375 -2.144531,-0.609375 -0.128907,0 -0.292969,0 -0.292969,0.164062 0,0.152344 0.09375,0.152344 0.234375,0.164063 0.949219,0.05859 1.675781,0.539062 1.875,1.300781 0.04687,0.140625 0.04687,0.164063 0.04687,0.703125 v 3.140625 c 0,0.691406 0.117187,0.9375 0.597656,1.417969 0.304688,0.316406 0.738281,0.46875 1.160156,0.585937 -1.21875,0.339844 -1.757812,1.03125 -1.757812,1.898438 z m 0,0"
         style="fill:#000000;fill-opacity:1;fill-rule:nonzero;stroke:none" />
      <path
         id="path79"
         d="m 43.961953,49.957945 c -0.386719,0.128907 -0.644531,0.222657 -1.40625,0.433594 -0.105469,1.089844 -0.457031,2.027344 -1.289062,3.398438 l 0.199218,0.164062 0.585938,-0.28125 c 1.160156,-1.5 1.710937,-2.402344 2.109375,-3.503906 z m 11.024414,-2.695312 c 0,-0.65625 0.07031,-1.242188 0.210938,-1.757813 -0.574219,-0.351562 -1.078125,-0.503906 -1.664063,-0.503906 -0.691406,0 -1.5,0.269531 -2.355469,0.820313 -1.007812,0.632812 -1.535156,1.628906 -1.535156,2.894531 0,1.933594 1.359375,3.292969 3.28125,3.292969 0.75,0 1.828125,-0.269532 1.96875,-0.480469 l 0.304688,-0.457031 -0.152344,-0.222657 c -0.527344,0.292969 -0.984375,0.421875 -1.5,0.421875 -1.59375,0 -2.636719,-1.230468 -2.636719,-3.128906 0,-1.535156 0.714844,-2.390625 2.003906,-2.390625 0.632813,0 1.324219,0.28125 1.582032,0.644531 l 0.09375,0.867188 z m 4.646485,-2.261719 c -2.085938,0 -3.539063,1.476563 -3.539063,3.609375 0,2.027344 1.277344,3.398438 3.128906,3.398438 2.203125,0 3.785157,-1.523438 3.785157,-3.679688 0,-1.933594 -1.40625,-3.328125 -3.375,-3.328125 z m -0.257813,0.46875 c 1.324219,0 2.296875,1.441406 2.296875,3.386719 0,1.652344 -0.726562,2.683594 -1.886719,2.683594 -1.40625,0 -2.355468,-1.371094 -2.355468,-3.410157 0,-1.722656 0.691406,-2.660156 1.945312,-2.660156 z m 9.978516,6.304688 c 0.878906,-0.04687 0.890625,-0.04687 1.136718,-0.04687 0.199219,0 0.199219,0 1.183594,0.04687 v -0.433594 l -0.585937,-0.04687 c -0.492188,-0.02344 -0.527344,-0.117188 -0.527344,-1.03125 v -2.765625 c 0,-1.675781 -0.796875,-2.496094 -2.402344,-2.496094 -0.527344,0 -0.832031,0.105469 -1.125,0.363281 l -1.089844,0.9375 v -1.242187 l -0.128906,-0.05859 c -0.738281,0.304688 -1.488281,0.503906 -2.238281,0.585938 v 0.398437 h 0.527344 c 0.574218,0 0.632812,0.105469 0.632812,1.054688 v 3.222656 c 0,0.902344 -0.04687,1.007812 -0.539062,1.03125 l -0.644532,0.04687 v 0.433594 c 0.984375,-0.03516 1.371094,-0.04687 1.78125,-0.04687 0.421875,0 0.808594,0.01172 1.78125,0.04687 v -0.433594 l -0.644531,-0.04687 c -0.492187,-0.02344 -0.527344,-0.128906 -0.527344,-1.03125 v -3.035156 c 0,-0.644532 0.9375,-1.347657 1.816407,-1.347657 0.960937,0 1.59375,0.714844 1.59375,1.816407 z m 0,0"
         style="fill:#000000;fill-opacity:1;fill-rule:nonzero;stroke:none" />
      <path
         id="path80"
         d="m 76.976602,46.16107 0.105468,0.292969 0.457032,-0.304687 c 0.527343,-0.328125 0.574218,-0.363282 0.679687,-0.363282 0.152344,0 0.257813,0.152344 0.257813,0.363282 0,0.726562 -0.597657,3.503906 -1.183594,5.554687 l 0.105469,0.152344 c 0.351562,-0.105469 0.691406,-0.1875 1.007812,-0.246094 0.269531,-1.804687 0.574219,-2.742187 1.230469,-3.726562 0.773437,-1.207032 1.851562,-2.097657 2.496094,-2.097657 0.152343,0 0.246093,0.128907 0.246093,0.351563 0,0.257812 -0.04687,0.550781 -0.164062,1.019531 l -0.75,3.035156 c -0.128906,0.527344 -0.175781,0.855469 -0.175781,1.089844 0,0.363281 0.152343,0.574219 0.421875,0.574219 0.375,0 0.890625,-0.304688 2.296875,-1.347656 l -0.140625,-0.257813 -0.375,0.246094 c -0.410157,0.269531 -0.726563,0.421875 -0.878907,0.421875 -0.09375,0 -0.1875,-0.128906 -0.1875,-0.28125 0,-0.07031 0.02344,-0.234375 0.03516,-0.292969 l 0.949218,-3.949219 c 0.09375,-0.421875 0.152344,-0.820312 0.152344,-1.066406 0,-0.328125 -0.152344,-0.515625 -0.445312,-0.515625 -0.597657,0 -1.59375,0.550781 -2.4375,1.335938 -0.539063,0.503906 -0.949219,0.984375 -1.6875,2.039062 l 0.539062,-2.308594 c 0.05859,-0.257812 0.09375,-0.433593 0.09375,-0.597656 0,-0.292969 -0.117187,-0.46875 -0.339844,-0.46875 -0.292968,0 -0.855468,0.316406 -1.898437,1.066406 z m 0,0"
         style="fill:#000000;fill-opacity:1;fill-rule:nonzero;stroke:none" />
      <path
         id="path81"
         d="m 97.888711,48.293883 c 0.257812,0 0.527344,0 0.527344,-0.304688 0,-0.304687 -0.269532,-0.304687 -0.527344,-0.304687 h -6.339844 c 0.1875,-2.003906 1.898438,-3.433594 4.007813,-3.433594 h 2.332031 c 0.257812,0 0.527344,0 0.527344,-0.304687 0,-0.292969 -0.269532,-0.292969 -0.527344,-0.292969 h -2.355469 c -2.566406,0 -4.59375,1.945312 -4.59375,4.335937 0,2.390625 2.027344,4.335938 4.59375,4.335938 h 2.355469 c 0.257812,0 0.527344,0 0.527344,-0.292969 0,-0.304687 -0.269532,-0.304687 -0.527344,-0.304687 H 95.55668 c -2.109375,0 -3.820313,-1.429688 -4.007813,-3.433594 z m 0,0"
         style="fill:#000000;fill-opacity:1;fill-rule:nonzero;stroke:none" />
      <path
         id="path82"
         d="m 115.1768,49.243102 -0.0937,0.820312 c -0.0937,0.949219 -0.29297,1.03125 -2.4961,1.03125 h -3.91406 l 6.97266,-8.882812 -0.0586,-0.410157 c -0.55078,0 -1.91015,0.04687 -2.57812,0.04687 h -2.26172 c -0.86719,0 -1.79297,-0.02344 -2.67188,-0.03516 -0.45703,-0.01172 -1.32421,-0.01172 -2.36718,-0.01172 0.0234,0.527344 0.0469,0.785157 0.0469,1.160157 0,0.375 -0.0234,0.632812 -0.0469,1.160156 h 0.49218 l 0.082,-1.019531 c 0.0469,-0.550782 0.43359,-0.667969 2.17968,-0.667969 h 3.26953 c -0.17578,0.28125 -0.3164,0.503906 -0.49218,0.738281 -0.25782,0.316406 -0.49219,0.632813 -0.73828,0.949219 l -4.33594,5.566406 c -0.19922,0.257813 -0.46875,0.585938 -1.39453,1.675781 v 0.410157 c 0.5625,0 2.21484,-0.04687 2.88281,-0.04687 h 2.88281 c 0.86719,0 1.79297,0.01172 2.67188,0.02344 0.45703,0.02344 1.32422,0.02344 2.36718,0.02344 0,-1.242188 0.0117,-1.757813 0.082,-2.53125 z m -2.28516,-5.460938 -5.23828,6.585938 c -0.26953,0.398437 -0.41016,0.585937 -0.60938,0.726562 h -0.55078 c -0.14062,-0.128906 -0.21093,-0.246094 -0.21093,-0.375 0,-0.199219 0.15234,-0.445312 0.57421,-0.984375 l 5.19141,-6.609375 c 0.26953,-0.351562 0.45703,-0.5625 0.59766,-0.691406 h 0.62109 c 0.14063,0.128906 0.21094,0.222656 0.21094,0.351562 0,0.210938 -0.16406,0.46875 -0.58594,0.996094 z m 0,0"
         style="fill:#000000;fill-opacity:1;fill-rule:nonzero;stroke:none" />
      <path
         id="path83"
         d="m 119.85258,53.47357 c 0,0.597657 -0.39844,1.558594 -2.02735,1.664063 -0.0703,0.01172 -0.1289,0.07031 -0.1289,0.164062 0,0.164063 0.16406,0.164063 0.29297,0.164063 1.45312,0 2.84765,-0.738281 2.85937,-1.863281 V 50.19232 c 0,-0.585937 0,-1.066406 0.59766,-1.558593 0.52734,-0.433594 1.08984,-0.46875 1.41797,-0.480469 0.082,-0.01172 0.14062,-0.07031 0.14062,-0.164063 0,-0.152343 -0.0937,-0.152343 -0.24609,-0.164062 -0.98438,-0.05859 -1.69922,-0.597656 -1.86328,-1.335938 -0.0469,-0.164062 -0.0469,-0.1875 -0.0469,-0.726562 v -2.964844 c 0,-0.621094 0,-1.101562 -0.71484,-1.675781 -0.59766,-0.457031 -1.62891,-0.609375 -2.14453,-0.609375 -0.12891,0 -0.29297,0 -0.29297,0.164062 0,0.152344 0.0937,0.152344 0.23437,0.164063 0.94922,0.05859 1.67578,0.539062 1.875,1.300781 0.0469,0.140625 0.0469,0.164063 0.0469,0.703125 v 3.140625 c 0,0.691406 0.11719,0.9375 0.59765,1.417969 0.30469,0.316406 0.73829,0.46875 1.16016,0.585937 -1.21875,0.339844 -1.75781,1.03125 -1.75781,1.898438 z m 0,0"
         style="fill:#000000;fill-opacity:1;fill-rule:nonzero;stroke:none" />
      <path
         id="path84"
         d="m 127.20023,49.957945 c -0.38671,0.128907 -0.64453,0.222657 -1.40625,0.433594 -0.10546,1.089844 -0.45703,2.027344 -1.28906,3.398438 l 0.19922,0.164062 0.58594,-0.28125 c 1.16015,-1.5 1.71094,-2.402344 2.10937,-3.503906 z m 8.39942,-7.441406 c 0.49219,-0.117187 0.92578,-0.164062 1.40625,-0.164062 1.5,0 2.33203,0.679687 2.33203,1.898437 0,1.324219 -1.05469,2.15625 -2.71875,2.15625 -0.0937,0 -0.22266,0 -0.41016,-0.01172 l -0.0937,0.164063 c 0.16407,0.1875 0.21094,0.246094 0.375,0.433594 0.19922,0.234375 0.2461,0.292968 0.375,0.457031 l 2.63672,3.550781 c 0.0937,0.105469 0.17578,0.222656 0.25781,0.328125 0.10547,0.128906 0.1875,0.257813 0.32813,0.445313 0.67969,-0.04687 0.82031,-0.04687 0.98437,-0.04687 0.12891,0 0.12891,0 1.03125,0.04687 v -0.433594 c -0.45703,-0.04687 -0.6914,-0.128906 -0.8789,-0.375 l -3.25781,-4.242188 c 0.80859,-0.199218 1.18359,-0.363281 1.65234,-0.691406 0.75,-0.527344 1.14844,-1.242187 1.14844,-2.074219 0,-1.382812 -1.00782,-2.15625 -2.77735,-2.15625 h -0.23437 c -1.86328,0.04687 -1.86328,0.04687 -2.35547,0.04687 -0.46875,0 -0.46875,0 -2.48438,-0.04687 v 0.433594 l 0.59766,0.03516 c 0.65625,0.04687 0.72656,0.175782 0.72656,1.300782 v 6.433593 c 0,1.136719 -0.0703,1.253907 -0.72656,1.289063 l -0.69141,0.04687 v 0.433594 c 0.84375,-0.03516 1.34766,-0.04687 2.09766,-0.04687 0.73828,0 1.25391,0.01172 2.10938,0.04687 v -0.433594 l -0.69141,-0.04687 c -0.65625,-0.03516 -0.73828,-0.152344 -0.73828,-1.289063 z m 11.1416,8.039063 -0.082,1.21875 c 0.9375,-0.04687 0.9375,-0.04687 1.125,-0.04687 0.0703,0 0.43359,0.01172 1.06641,0.04687 v -0.433594 l -0.5625,-0.02344 c -0.35157,-0.02344 -0.41016,-0.140625 -0.41016,-0.832031 v -2.625 c 0,-2.097656 -0.59766,-2.859375 -2.26172,-2.859375 -0.62109,0 -1.18359,0.152344 -1.73437,0.492188 l -0.76172,0.457031 v 0.925781 l 0.375,0.105469 0.1875,-0.445313 c 0.30468,-0.679687 0.44531,-0.773437 1.10156,-0.773437 1.34766,0 1.91016,0.527344 1.95703,1.828125 l -1.42969,0.269531 c -1.94531,0.351563 -2.76562,1.03125 -2.76562,2.273438 0,1.125 0.67969,1.769531 1.80469,1.769531 0.25781,0 0.5039,-0.04687 0.60937,-0.117188 z m 0,-0.609375 c -0.42187,0.585937 -1.32422,1.136718 -1.88672,1.136718 -0.57422,0 -1.07812,-0.527343 -1.07812,-1.148437 0,-0.527344 0.29297,-1.03125 0.72656,-1.300781 0.35156,-0.222657 1.14844,-0.421875 2.23828,-0.574219 z m 8.40527,1.828125 c 0.87891,-0.04687 0.89063,-0.04687 1.13672,-0.04687 0.19922,0 0.19922,0 1.1836,0.04687 v -0.433594 l -0.58594,-0.04687 c -0.49219,-0.02344 -0.52735,-0.117188 -0.52735,-1.03125 v -2.765625 c 0,-1.675781 -0.79687,-2.496094 -2.40234,-2.496094 -0.52734,0 -0.83203,0.105469 -1.125,0.363281 l -1.08984,0.9375 v -1.242187 l -0.12891,-0.05859 c -0.73828,0.304688 -1.48828,0.503906 -2.23828,0.585938 v 0.398437 h 0.52734 c 0.57422,0 0.63282,0.105469 0.63282,1.054688 v 3.222656 c 0,0.902344 -0.0469,1.007812 -0.53907,1.03125 l -0.64453,0.04687 v 0.433594 c 0.98438,-0.03516 1.3711,-0.04687 1.78125,-0.04687 0.42188,0 0.8086,0.01172 1.78125,0.04687 v -0.433594 l -0.64453,-0.04687 c -0.49219,-0.02344 -0.52734,-0.128906 -0.52734,-1.03125 v -3.035156 c 0,-0.644532 0.9375,-1.347657 1.8164,-1.347657 0.96094,0 1.59375,0.714844 1.59375,1.816407 z m 9.90821,-5.472657 0.36328,-0.585937 -0.0586,-0.175781 -2.03906,0.05859 c -0.52734,-0.421875 -1.04297,-0.597656 -1.74609,-0.597656 -0.63281,0 -1.35938,0.199219 -1.95703,0.539063 -0.79688,0.46875 -1.21875,1.171875 -1.21875,2.039062 0,1.066406 0.66797,1.792969 1.72265,1.910156 l -1.125,0.878907 c -0.15234,0.210937 -0.22265,0.398437 -0.22265,0.609375 0,0.410156 0.25781,0.632812 0.94922,0.832031 l -1.25391,0.679687 c -0.19922,0.117188 -0.39844,0.644532 -0.39844,1.089844 0,1.300781 1.27735,2.203125 3.10547,2.203125 2.15625,0 3.86719,-1.359375 3.86719,-3.105469 0,-1.03125 -0.69141,-1.757812 -1.6875,-1.757812 h -2.29688 c -0.75,0 -1.08984,-0.164063 -1.08984,-0.550781 0,-0.1875 0.11719,-0.351563 0.48047,-0.667969 0.0937,-0.07031 0.11719,-0.09375 0.17578,-0.152344 0.14062,0.01172 0.23437,0.02344 0.33984,0.02344 0.6211,0 1.38282,-0.269532 1.96875,-0.679688 0.64453,-0.480469 0.96094,-1.054687 0.96094,-1.816406 0,-0.28125 -0.0469,-0.46875 -0.15234,-0.773438 z m -3.9961,-0.808593 c 0.97266,0 1.62891,0.796875 1.62891,2.015625 0,0.9375 -0.59766,1.582031 -1.47656,1.582031 -0.96094,0 -1.60547,-0.75 -1.60547,-1.851563 0,-1.101562 0.52734,-1.746093 1.45312,-1.746093 z m 0.66797,6.433593 c 1.62891,0 2.17969,0.328125 2.17969,1.265625 0,1.230469 -1.125,2.144532 -2.63672,2.144532 -1.24219,0 -2.10937,-0.726563 -2.10937,-1.792969 0,-0.644531 0.375,-1.230469 0.94921,-1.476563 0.23438,-0.105468 0.63282,-0.140625 1.61719,-0.140625 z m 7.85742,-6.925781 c -2.08593,0 -3.53906,1.476563 -3.53906,3.609375 0,2.027344 1.27734,3.398438 3.12891,3.398438 2.20312,0 3.78515,-1.523438 3.78515,-3.679688 0,-1.933594 -1.40625,-3.328125 -3.375,-3.328125 z m -0.25781,0.46875 c 1.32422,0 2.29688,1.441406 2.29688,3.386719 0,1.652344 -0.72657,2.683594 -1.88672,2.683594 -1.40625,0 -2.35547,-1.371094 -2.35547,-3.410157 0,-1.722656 0.6914,-2.660156 1.94531,-2.660156 z m 12.05274,0.726563 h -7.23047 v 0.796875 h 7.23047 z m 0,2.777343 h -7.23047 v 0.808594 h 7.23047 z m 0,0"
         style="fill:#000000;fill-opacity:1;fill-rule:nonzero;stroke:none" />
      <path
         id="path85"
         d="m 187.23539,55.313414 c 0,-0.04687 0,-0.07031 -0.24609,-0.328125 -1.875,-1.886719 -2.35547,-4.710937 -2.35547,-6.996094 0,-2.601562 0.57422,-5.203125 2.41406,-7.078125 0.1875,-0.175781 0.1875,-0.199218 0.1875,-0.246093 0,-0.105469 -0.0586,-0.152344 -0.14062,-0.152344 -0.15235,0 -1.5,1.019531 -2.37891,2.917969 -0.76172,1.640625 -0.94922,3.304687 -0.94922,4.558593 0,1.171875 0.16406,2.976563 0.99609,4.664063 0.89063,1.839844 2.17969,2.8125 2.33204,2.8125 0.082,0 0.14062,-0.04687 0.14062,-0.152344 z m 0,0"
         style="fill:#000000;fill-opacity:1;fill-rule:nonzero;stroke:none" />
      <path
         id="path86"
         d="m 198.30082,48.293883 c 0.25781,0 0.52734,0 0.52734,-0.304688 0,-0.304687 -0.26953,-0.304687 -0.52734,-0.304687 h -8.08594 c -0.25781,0 -0.52734,0 -0.52734,0.304687 0,0.304688 0.26953,0.304688 0.52734,0.304688 z m 0,0"
         style="fill:#000000;fill-opacity:1;fill-rule:nonzero;stroke:none" />
      <path
         id="path87"
         d="m 206.64457,47.250914 c -1.21875,-1.652344 -1.81641,-2.308594 -3.01172,-2.308594 -1.04297,0 -2.7539,0.949219 -2.7539,3.269532 0,1.734375 1.35937,2.800781 2.63671,2.800781 0.92579,0 2.00391,-0.714844 2.8711,-2.296875 1.23047,1.628906 1.83984,2.296875 3.02344,2.296875 1.05468,0 2.78906,-0.949219 2.78906,-3.269531 0,-1.734375 -1.39453,-2.800782 -2.67188,-2.800782 -0.92578,0 -1.99218,0.726563 -2.88281,2.308594 z m -0.50391,1.078125 c -0.67968,1.148438 -1.53515,2.003906 -2.33203,2.003906 -0.51562,0 -2.10937,-0.07031 -2.10937,-2.191406 0,-1.230469 1.04297,-1.945312 1.78125,-1.945312 0.97265,0 1.4414,0.480468 2.66015,2.132812 z m 0.79688,-0.703125 c 0.67969,-1.148437 1.53516,-2.003906 2.33203,-2.003906 0.51563,0 2.10938,0.07031 2.10938,2.191406 0,1.230469 -1.04297,1.945313 -1.78125,1.945313 -0.97266,0 -1.44141,-0.480469 -2.66016,-2.132813 z m 0,0"
         style="fill:#000000;fill-opacity:1;fill-rule:nonzero;stroke:none" />
      <path
         id="path88"
         d="m 215.76762,49.957945 c -0.38672,0.128907 -0.64453,0.222657 -1.40625,0.433594 -0.10547,1.089844 -0.45703,2.027344 -1.28907,3.398438 l 0.19922,0.164062 0.58594,-0.28125 c 1.16016,-1.5 1.71094,-2.402344 2.10938,-3.503906 z m 0,0"
         style="fill:#000000;fill-opacity:1;fill-rule:nonzero;stroke:none" />
      <path
         id="path89"
         d="m 228.8516,48.293883 c 0.25781,0 0.52735,0 0.52735,-0.304688 0,-0.304687 -0.26954,-0.304687 -0.52735,-0.304687 h -8.08594 c -0.25781,0 -0.52734,0 -0.52734,0.304687 0,0.304688 0.26953,0.304688 0.52734,0.304688 z m 0,0"
         style="fill:#000000;fill-opacity:1;fill-rule:nonzero;stroke:none" />
      <path
         id="path90"
         d="m 231.75785,43.770445 h 0.14063 l 1.85156,-0.832031 c 0.0117,-0.02344 0.0352,-0.02344 0.0469,-0.02344 0.082,0 0.11719,0.128906 0.11719,0.480468 v 6.949219 c 0,0.75 -0.16406,0.914063 -0.9375,0.949219 l -0.79687,0.04687 v 0.433594 c 2.20312,-0.04687 2.20312,-0.04687 2.35547,-0.04687 0.1875,0 0.5039,0 0.99609,0.01172 0.17578,0.01172 0.66797,0.01172 1.26562,0.03516 V 51.34076 l -0.75,-0.04687 c -0.78515,-0.03516 -0.9375,-0.199219 -0.9375,-0.949219 V 41.84857 l -0.19921,-0.07031 c -0.92579,0.480469 -1.94532,0.914062 -3.25782,1.371094 z m 0,0"
         style="fill:#000000;fill-opacity:1;fill-rule:nonzero;stroke:none" />
      <path
         id="path91"
         d="m 240.52641,40.512633 h -2.05078 v 0.597656 h 1.45312 v 13.757813 h -1.45312 v 0.597656 h 2.05078 z m 0,0"
         style="fill:#000000;fill-opacity:1;fill-rule:nonzero;stroke:none" />
      <path
         id="path92"
         d="m 254.73246,43.325133 c 0,-0.269531 0,-0.539063 -0.30469,-0.539063 -0.29297,0 -0.29297,0.269532 -0.29297,0.539063 v 5.414062 c 0,2.238282 -2.4375,2.71875 -3.5625,2.71875 -0.67968,0 -1.61718,-0.128906 -2.41406,-0.644531 -1.14844,-0.726562 -1.14844,-1.6875 -1.14844,-2.085937 v -5.402344 c 0,-0.269531 0,-0.539063 -0.29296,-0.539063 -0.30469,0 -0.30469,0.269532 -0.30469,0.539063 v 5.472656 c 0,2.273438 2.28515,3.257813 4.16015,3.257813 1.94532,0 4.16016,-1.042969 4.16016,-3.246094 z m 0,0"
         style="fill:#000000;fill-opacity:1;fill-rule:nonzero;stroke:none" />
      <path
         id="path93"
         d="M 262.65141,55.465758 V 54.868102 H 261.21 V 41.110289 h 1.44141 v -0.597656 h -2.03907 v 14.953125 z m 0,0"
         style="fill:#000000;fill-opacity:1;fill-rule:nonzero;stroke:none" />
      <path
         id="path94"
         d="m 264.1309,43.770445 h 0.14062 l 1.85157,-0.832031 c 0.0117,-0.02344 0.0351,-0.02344 0.0469,-0.02344 0.082,0 0.11719,0.128906 0.11719,0.480468 v 6.949219 c 0,0.75 -0.16406,0.914063 -0.9375,0.949219 l -0.79688,0.04687 v 0.433594 c 2.20313,-0.04687 2.20313,-0.04687 2.35547,-0.04687 0.1875,0 0.50391,0 0.9961,0.01172 0.17578,0.01172 0.66796,0.01172 1.26562,0.03516 V 51.34076 l -0.75,-0.04687 c -0.78516,-0.03516 -0.9375,-0.199219 -0.9375,-0.949219 V 41.84857 l -0.19922,-0.07031 c -0.92578,0.480469 -1.94531,0.914062 -3.25781,1.371094 z m 9.14062,6.1875 c -0.38672,0.128907 -0.64453,0.222657 -1.40625,0.433594 -0.10547,1.089844 -0.45703,2.027344 -1.28906,3.398438 l 0.19922,0.164062 0.58594,-0.28125 c 1.16015,-1.5 1.71093,-2.402344 2.10937,-3.503906 z m 0,0"
         style="fill:#000000;fill-opacity:1;fill-rule:nonzero;stroke:none" />
      <path
         id="path95"
         d="m 282.7227,47.250914 c -1.21875,-1.652344 -1.81641,-2.308594 -3.01172,-2.308594 -1.04297,0 -2.75391,0.949219 -2.75391,3.269532 0,1.734375 1.35938,2.800781 2.63672,2.800781 0.92578,0 2.00391,-0.714844 2.87109,-2.296875 1.23047,1.628906 1.83985,2.296875 3.02344,2.296875 1.05469,0 2.78906,-0.949219 2.78906,-3.269531 0,-1.734375 -1.39453,-2.800782 -2.67187,-2.800782 -0.92578,0 -1.99219,0.726563 -2.88281,2.308594 z m -0.50391,1.078125 c -0.67969,1.148438 -1.53516,2.003906 -2.33203,2.003906 -0.51563,0 -2.10938,-0.07031 -2.10938,-2.191406 0,-1.230469 1.04297,-1.945312 1.78125,-1.945312 0.97266,0 1.44141,0.480468 2.66016,2.132812 z m 0.79687,-0.703125 c 0.67969,-1.148437 1.53516,-2.003906 2.33204,-2.003906 0.51562,0 2.10937,0.07031 2.10937,2.191406 0,1.230469 -1.04297,1.945313 -1.78125,1.945313 -0.97266,0 -1.44141,-0.480469 -2.66016,-2.132813 z m 0,0"
         style="fill:#000000;fill-opacity:1;fill-rule:nonzero;stroke:none" />
      <path
         id="path96"
         d="m 293.41898,47.989195 c 0,-1.171875 -0.16406,-2.976562 -0.98437,-4.664062 -0.90234,-1.839844 -2.19141,-2.8125 -2.34375,-2.8125 -0.082,0 -0.14063,0.05859 -0.14063,0.152344 0,0.04687 0,0.07031 0.28125,0.339843 1.46485,1.476563 2.32032,3.855469 2.32032,6.984375 0,2.554688 -0.55078,5.191407 -2.41407,7.078125 -0.1875,0.175782 -0.1875,0.199219 -0.1875,0.246094 0,0.09375 0.0586,0.152344 0.14063,0.152344 0.15234,0 1.5,-1.019531 2.37891,-2.917969 0.76171,-1.640625 0.94921,-3.304687 0.94921,-4.558594 z m 0,0"
         style="fill:#000000;fill-opacity:1;fill-rule:nonzero;stroke:none" />
      <path
         id="path97"
         d="m 302.64164,49.957945 c -0.38672,0.128907 -0.64453,0.222657 -1.40625,0.433594 -0.10547,1.089844 -0.45703,2.027344 -1.28906,3.398438 l 0.19922,0.164062 0.58593,-0.28125 c 1.16016,-1.5 1.71094,-2.402344 2.10938,-3.503906 z m 0,0"
         style="fill:#000000;fill-opacity:1;fill-rule:nonzero;stroke:none" />
    </g>
  </g>
</svg>
