<?xml version="1.0" encoding="UTF-8" standalone="no"?>
<!-- Created with Inkscape (http://www.inkscape.org/) -->

<svg
   version="1.1"
   id="svg1"
   width="85.567009"
   height="26.498772"
   viewBox="0 0 85.567009 26.498772"
   sodipodi:docname="writetex.pdf"
   inkscape:export-batch-path="..\Akemicos\Akdemicos-Front\public"
   inkscape:export-batch-name="Rancotangente"
   xmlns:inkscape="http://www.inkscape.org/namespaces/inkscape"
   xmlns:sodipodi="http://sodipodi.sourceforge.net/DTD/sodipodi-0.dtd"
   xmlns="http://www.w3.org/2000/svg"
   xmlns:svg="http://www.w3.org/2000/svg">
  <defs
     id="defs1">
    <clipPath
       clipPathUnits="userSpaceOnUse"
       id="clipPath192">
      <rect
         style="fill:#000000;stroke:#000000;stroke-opacity:1"
         id="rect193"
         width="85.567009"
         height="28.86598"
         x="1320.6185"
         y="571.13403" />
    </clipPath>
  </defs>
  <sodipodi:namedview
     id="namedview1"
     pagecolor="#ffffff"
     bordercolor="#000000"
     borderopacity="0.25"
     inkscape:showpageshadow="2"
     inkscape:pageopacity="0.0"
     inkscape:pagecheckerboard="0"
     inkscape:deskcolor="#d1d1d1"
     showgrid="false">
    <inkscape:page
       x="0"
       y="0"
       width="85.567009"
       height="26.498772"
       id="page1"
       margin="0"
       bleed="0" />
  </sodipodi:namedview>
  <g
     id="g97"
     inkscape:groupmode="layer"
     inkscape:label="2"
     clip-path="url(#clipPath192)"
     transform="translate(-1320.6185,-571.13403)">
    <g
       id="g156"
       aria-label="y&#10;Dominio={R−{nπ},conn∈Z},Rango=R,Periodo=π"
       transform="matrix(1.3333333,0,0,1.3333333,1152.2533,525.648)">
      <path
         id="path157"
         d="m -0.10503906,2.5784531 c -0.0117188,0.1054688 -0.0117188,0.1875 -0.0117188,0.2578125 0,0.6210938 0.52734375,1.125 1.18359366,1.125 1.5117189,0 3.0937501,-1.78125 3.9375001,-4.42968747 L 7.0316797,-6.7848281 6.8676172,-6.9137344 c -0.4101563,0.1523438 -0.7382813,0.2460938 -1.0546875,0.2695313 l -0.5039063,1.8984375 c -0.1757812,0.6679687 -0.6796875,1.7226562 -1.1484375,2.4257812 -0.5039062,0.7265625 -1.2070312,1.35937503 -1.5234375,1.35937503 -0.1640625,0 -0.2929687,-0.32812503 -0.28125,-0.69140623 l 0.011719,-0.1875 0.2109375,-2.7773438 c 0.035156,-0.4453125 0.058594,-0.9960937 0.058594,-1.3945312 0,-0.6445313 -0.09375,-0.9023438 -0.3398437,-0.9023438 -0.1875,0 -0.3867188,0.1054688 -1.078125,0.5742188 l -1.17187501,0.8085937 0.15234375,0.2578125 0.71484375,-0.4335937 0.0585938,-0.046875 c 0.14062491,-0.082031 0.24609371,-0.1289063 0.30468741,-0.1289063 0.1992188,0 0.3164063,0.2695313 0.3164063,0.75 0,0.011719 0,0.09375 -0.011719,0.2109375 l -0.2460937,3.4921875 -0.011719,0.57421878 c 0,0.59765625 0.2578125,1.0078125 0.609375,1.0078125 0.5390625,0 1.734375,-1.21874998 2.8125,-2.83593748 l -0.703125,2.44921873 C 3.3168359,2.3089219 2.6019922,3.3518906 1.5941797,3.3518906 c -0.5039063,0 -0.89062501,-0.3867187 -0.89062501,-0.8789062 0,-0.082031 0.0117188,-0.1875 0.0234375,-0.3164063 l -0.140625,-0.058594 z m 0,0"
         style="fill:#000000;fill-opacity:1;fill-rule:nonzero;stroke:none" />
      <path
         id="path158"
         d="m -101.3023,49.652672 v 0.328125 c 1.664058,-0.04687 1.664058,-0.04687 1.992183,-0.04687 0.257812,0 0.492187,0 0.75,0.01172 1.125,0.03516 1.125,0.03516 1.324219,0.03516 1.839843,0 3.222656,-0.480469 4.21875,-1.464844 1.03125,-1.019531 1.664062,-2.566406 1.664062,-4.101562 0,-2.671875 -1.980469,-4.40625 -5.003906,-4.40625 -0.105469,0 -0.28125,0 -0.539063,0.01172 -0.726562,0.01172 -1.335937,0.03516 -1.957031,0.03516 -0.527344,0 -1.324214,-0.02344 -2.953124,-0.04687 v 0.433593 l 0.57422,0.03516 c 0.65625,0.04687 0.72656,0.175781 0.72656,1.300781 v 6.796875 c 0,0.410156 -0.12891,0.726562 -0.35156,0.84375 z m 2.167964,-8.953125 c 0.363281,-0.07031 0.867188,-0.117188 1.582031,-0.117188 1.054688,0 2.203125,0.1875 2.800782,0.457032 0.316406,0.128906 0.585937,0.328125 0.84375,0.585937 0.691406,0.691406 1.019531,1.722656 1.019531,3.164063 0,1.605468 -0.480469,2.835937 -1.429688,3.609375 -0.867187,0.703125 -1.722656,0.949218 -3.339843,0.949218 -0.667969,0 -1.113282,-0.03516 -1.476563,-0.117187 z m 12.111328,2.507812 c -2.085937,0 -3.539062,1.476563 -3.539062,3.609375 0,2.027344 1.277343,3.398438 3.128906,3.398438 2.203125,0 3.785156,-1.523438 3.785156,-3.679688 0,-1.933593 -1.40625,-3.328125 -3.375,-3.328125 z m -0.257812,0.46875 c 1.324218,0 2.296875,1.441407 2.296875,3.386719 0,1.652344 -0.726563,2.683594 -1.886719,2.683594 -1.40625,0 -2.355469,-1.371094 -2.355469,-3.410156 0,-1.722657 0.691406,-2.660157 1.945313,-2.660157 z m 4.353515,0.515625 h 0.527344 c 0.574219,0 0.632813,0.105469 0.632813,1.054688 v 3.222656 c 0,0.902344 -0.03516,1.007813 -0.527344,1.03125 l -0.65625,0.04687 v 0.433594 c 1.371094,-0.04687 1.417969,-0.04687 1.816406,-0.04687 0.398438,0 0.773438,0.01172 1.710938,0.04687 v -0.433594 l -0.609375,-0.04687 c -0.480469,-0.02344 -0.527344,-0.128906 -0.527344,-1.03125 v -3.035156 c 0,-0.644531 0.949219,-1.347656 1.804687,-1.347656 0.773438,0 1.3125,0.726562 1.3125,1.816406 v 2.566406 c 0,0.902344 -0.04687,1.007813 -0.539062,1.03125 l -0.65625,0.04687 v 0.433594 c 1.429687,-0.04687 1.429687,-0.04687 1.792969,-0.04687 0.363281,0 0.363281,0 1.792968,0.04687 v -0.433594 l -0.65625,-0.04687 c -0.492187,-0.02344 -0.539062,-0.128906 -0.539062,-1.03125 v -3.035156 c 0,-0.644531 0.949219,-1.347656 1.816406,-1.347656 0.773438,0 1.300781,0.726562 1.300781,1.816406 v 4.078125 c 0.878907,-0.04687 0.890625,-0.04687 1.136719,-0.04687 0.1875,0 0.1875,0 1.277344,0.04687 v -0.433594 l -0.679688,-0.04687 c -0.480468,-0.02344 -0.527343,-0.128906 -0.527343,-1.03125 v -2.953125 c 0,-1.417969 -0.832032,-2.308594 -2.15625,-2.308594 -0.503907,0 -0.914063,0.128907 -1.171875,0.363282 l -1.089844,0.972656 c -0.457031,-0.949219 -1.054688,-1.335938 -2.039063,-1.335938 -0.527343,0 -0.9375,0.128907 -1.195312,0.363282 l -0.984375,0.914062 v -1.21875 l -0.128906,-0.05859 c -0.726563,0.304688 -1.476563,0.503907 -2.238282,0.585938 z m 15.105469,-0.925781 -0.128906,-0.05859 c -0.726563,0.304688 -1.476563,0.503907 -2.238281,0.585938 v 0.398437 h 0.527343 c 0.574219,0 0.632813,0.105469 0.632813,1.054688 v 3.222656 c 0,0.902344 -0.03516,1.007813 -0.527344,1.03125 l -0.65625,0.04687 v 0.433594 c 1.429688,-0.04687 1.429688,-0.04687 1.792969,-0.04687 0.351562,0 0.351562,0 1.792969,0.04687 v -0.433594 l -0.667969,-0.04687 c -0.480469,-0.02344 -0.527344,-0.128906 -0.527344,-1.03125 z m -0.65625,-3.1875 c -0.433594,0 -0.808594,0.375 -0.808594,0.808594 0,0.410156 0.375,0.785156 0.796875,0.785156 0.410157,0 0.796875,-0.375 0.796875,-0.785156 0,-0.410156 -0.386718,-0.808594 -0.785156,-0.808594 z m 8.018555,9.902344 c 0.878906,-0.04687 0.890625,-0.04687 1.136719,-0.04687 0.199218,0 0.199218,0 1.183593,0.04687 v -0.433594 l -0.585937,-0.04687 c -0.492188,-0.02344 -0.527344,-0.117187 -0.527344,-1.03125 v -2.765625 c 0,-1.675781 -0.796875,-2.496094 -2.402344,-2.496094 -0.527343,0 -0.832031,0.105469 -1.125,0.363282 l -1.089843,0.9375 v -1.242188 l -0.128907,-0.05859 c -0.738281,0.304688 -1.488281,0.503907 -2.238281,0.585938 v 0.398437 h 0.527344 c 0.574219,0 0.632812,0.105469 0.632812,1.054688 v 3.222656 c 0,0.902344 -0.04687,1.007813 -0.539062,1.03125 l -0.644531,0.04687 v 0.433594 c 0.984375,-0.03516 1.371093,-0.04687 1.78125,-0.04687 0.421875,0 0.808593,0.01172 1.78125,0.04687 v -0.433594 l -0.644532,-0.04687 c -0.492187,-0.02344 -0.527343,-0.128906 -0.527343,-1.03125 v -3.035156 c 0,-0.644531 0.9375,-1.347656 1.816406,-1.347656 0.960937,0 1.59375,0.714843 1.59375,1.816406 z m 5.162109,-6.714844 -0.128906,-0.05859 c -0.726563,0.304688 -1.476563,0.503907 -2.238281,0.585938 v 0.398437 h 0.527343 c 0.574219,0 0.632813,0.105469 0.632813,1.054688 v 3.222656 c 0,0.902344 -0.03516,1.007813 -0.527344,1.03125 l -0.65625,0.04687 v 0.433594 c 1.429688,-0.04687 1.429688,-0.04687 1.792969,-0.04687 0.351562,0 0.351562,0 1.792969,0.04687 v -0.433594 l -0.667969,-0.04687 c -0.480469,-0.02344 -0.527344,-0.128906 -0.527344,-1.03125 z m -0.65625,-3.1875 c -0.433594,0 -0.808594,0.375 -0.808594,0.808594 0,0.410156 0.375,0.785156 0.796875,0.785156 0.410157,0 0.796875,-0.375 0.796875,-0.785156 0,-0.410156 -0.386718,-0.808594 -0.785156,-0.808594 z m 6.131836,3.128906 c -2.085937,0 -3.539062,1.476563 -3.539062,3.609375 0,2.027344 1.277343,3.398438 3.128906,3.398438 2.203125,0 3.785156,-1.523438 3.785156,-3.679688 0,-1.933593 -1.40625,-3.328125 -3.375,-3.328125 z m -0.257812,0.46875 c 1.324218,0 2.296875,1.441407 2.296875,3.386719 0,1.652344 -0.726563,2.683594 -1.886719,2.683594 -1.40625,0 -2.355469,-1.371094 -2.355469,-3.410156 0,-1.722657 0.691406,-2.660157 1.945313,-2.660157 z m 16.227539,0.726563 h -7.230469 v 0.796875 h 7.230469 z m 0,2.777344 h -7.230469 v 0.808593 h 7.230469 z m 0,0"
         style="fill:#000000;fill-opacity:1;fill-rule:nonzero;stroke:none" />
      <path
         id="path159"
         d="m -28.707578,40.711266 c 0,-0.597657 0.386719,-1.558594 2.015625,-1.664063 0.08203,-0.01172 0.140625,-0.07031 0.140625,-0.164062 0,-0.164063 -0.117188,-0.164063 -0.28125,-0.164063 -1.5,0 -2.859375,0.761719 -2.871094,1.863281 v 3.410157 c 0,0.585937 0,1.066406 -0.597656,1.558593 -0.527344,0.433594 -1.101563,0.46875 -1.429688,0.480469 -0.07031,0.01172 -0.128906,0.07031 -0.128906,0.164063 0,0.152343 0.09375,0.152343 0.234375,0.164062 0.996094,0.05859 1.710938,0.597656 1.875,1.335938 0.04687,0.164062 0.04687,0.1875 0.04687,0.726562 v 2.964844 c 0,0.621094 0,1.101562 0.714844,1.675781 0.585937,0.445313 1.570312,0.609375 2.15625,0.609375 0.164062,0 0.28125,0 0.28125,-0.164062 0,-0.152344 -0.09375,-0.152344 -0.246094,-0.164063 -0.9375,-0.05859 -1.664062,-0.539062 -1.863281,-1.300781 -0.04687,-0.140625 -0.04687,-0.164063 -0.04687,-0.703125 v -3.140625 c 0,-0.691406 -0.117188,-0.9375 -0.597656,-1.417969 -0.316407,-0.316406 -0.75,-0.46875 -1.160157,-0.585937 1.21875,-0.339844 1.757813,-1.03125 1.757813,-1.898438 z m 0,0"
         style="fill:#000000;fill-opacity:1;fill-rule:nonzero;stroke:none" />
      <path
         id="path160"
         d="m -24.966367,40.441734 0.632812,0.03516 c 0.585938,0.04687 0.726563,0.164062 0.726563,1.300781 v 6.433594 c 0,1.136718 -0.140625,1.265625 -0.726563,1.289062 l -0.632812,0.04687 v 0.433594 c 0.84375,-0.03516 2.167969,-0.04687 2.90625,-0.04687 0.75,0 2.132812,0.01172 2.976562,0.04687 v -0.433594 l -0.691406,-0.04687 c -0.644531,-0.03516 -0.726562,-0.152344 -0.726562,-1.207031 v -7.570313 c 0.492187,-0.128906 0.914062,-0.164062 1.40625,-0.164062 1.488281,0 2.320312,0.679687 2.320312,1.898437 0,1.324219 -1.054687,2.15625 -2.71875,2.15625 -0.08203,0 -0.222656,0 -0.410156,-0.01172 l -0.08203,0.164062 c 0.152343,0.1875 0.199218,0.246094 0.363281,0.433594 0.210937,0.234375 0.246094,0.292969 0.375,0.457031 l 2.648437,3.550781 c 0.08203,0.105469 0.164063,0.222657 0.257813,0.328125 l 0.328125,0.445313 c 0.585937,-0.03516 0.796875,-0.04687 0.972656,-0.04687 0.152344,0 0.339844,0.01172 1.03125,0.04687 v -0.433594 c -0.457031,-0.04687 -0.691406,-0.128906 -0.878906,-0.375 l -3.246094,-4.242187 c 0.785156,-0.1875 1.136719,-0.351563 1.605469,-0.65625 0.785156,-0.550782 1.183594,-1.265625 1.183594,-2.109375 0,-1.394532 -0.984375,-2.15625 -2.8125,-2.15625 h -0.199219 c -0.28125,0.01172 -0.527344,0.01172 -0.726563,0.02344 -0.433593,0.02344 -0.972656,0.02344 -1.523437,0.02344 h -1.453125 c -0.738281,0 -2.0625,-0.02344 -2.90625,-0.04687 z m 3.09375,1.335938 v 6.433594 c 0,1.136718 -0.07031,1.253906 -0.527344,1.289062 -0.457031,-0.03516 -0.539062,-0.152344 -0.539062,-1.289062 v -6.433594 c 0,-1.136719 0.08203,-1.253906 0.539062,-1.300781 0.457031,0.03516 0.527344,0.164062 0.527344,1.300781 z m 0,0"
         style="fill:#000000;fill-opacity:1;fill-rule:nonzero;stroke:none" />
      <path
         id="path161"
         d="m -0.84039062,46.500328 c 0.2578125,0 0.52734375,0 0.52734375,-0.304687 0,-0.304688 -0.26953125,-0.304688 -0.52734375,-0.304688 H -8.9263281 c -0.2578125,0 -0.5273438,0 -0.5273438,0.304688 0,0.304687 0.2695313,0.304687 0.5273438,0.304687 z M 8.3031641,40.711266 c 0,-0.597657 0.3867187,-1.558594 2.0156249,-1.664063 0.08203,-0.01172 0.140625,-0.07031 0.140625,-0.164062 0,-0.164063 -0.117187,-0.164063 -0.28125,-0.164063 -1.4999999,0 -2.8593749,0.761719 -2.8710937,1.863281 v 3.410157 c 0,0.585937 0,1.066406 -0.5976562,1.558593 -0.5273438,0.433594 -1.1015625,0.46875 -1.4296875,0.480469 -0.070312,0.01172 -0.1289063,0.07031 -0.1289063,0.164063 0,0.152343 0.09375,0.152343 0.234375,0.164062 0.9960938,0.05859 1.7109375,0.597656 1.875,1.335938 0.046875,0.164062 0.046875,0.1875 0.046875,0.726562 v 2.964844 c 0,0.621094 0,1.101562 0.7148438,1.675781 0.5859375,0.445313 1.5703125,0.609375 2.1562499,0.609375 0.164063,0 0.28125,0 0.28125,-0.164062 0,-0.152344 -0.09375,-0.152344 -0.246094,-0.164063 -0.9374997,-0.05859 -1.6640622,-0.539062 -1.8632809,-1.300781 -0.046875,-0.140625 -0.046875,-0.164063 -0.046875,-0.703125 v -3.140625 c 0,-0.691406 -0.1171875,-0.9375 -0.5976563,-1.417969 -0.3164062,-0.316406 -0.75,-0.46875 -1.1601562,-0.585937 1.21875,-0.339844 1.7578125,-1.03125 1.7578125,-1.898438 z m 0,0"
         style="fill:#000000;fill-opacity:1;fill-rule:nonzero;stroke:none" />
      <path
         id="path162"
         d="m 12.246523,44.367516 0.105469,0.292968 0.457031,-0.304687 c 0.527344,-0.328125 0.574219,-0.363281 0.679688,-0.363281 0.152344,0 0.257812,0.152343 0.257812,0.363281 0,0.726562 -0.597656,3.503906 -1.183593,5.554687 l 0.105468,0.152344 c 0.351563,-0.105469 0.691407,-0.1875 1.007813,-0.246094 0.269531,-1.804687 0.574219,-2.742187 1.230469,-3.726562 0.773437,-1.207031 1.851562,-2.097656 2.496093,-2.097656 0.152344,0 0.246094,0.128906 0.246094,0.351562 0,0.257813 -0.04687,0.550781 -0.164062,1.019531 l -0.75,3.035157 c -0.128907,0.527343 -0.175782,0.855468 -0.175782,1.089843 0,0.363282 0.152344,0.574219 0.421875,0.574219 0.375,0 0.890625,-0.304687 2.296875,-1.347656 l -0.140625,-0.257813 -0.375,0.246094 c -0.410156,0.269531 -0.726562,0.421875 -0.878906,0.421875 -0.09375,0 -0.1875,-0.128906 -0.1875,-0.28125 0,-0.07031 0.02344,-0.234375 0.03516,-0.292969 l 0.949219,-3.949218 c 0.09375,-0.421875 0.152344,-0.820313 0.152344,-1.066407 0,-0.328125 -0.152344,-0.515625 -0.445313,-0.515625 -0.597656,0 -1.59375,0.550782 -2.4375,1.335938 -0.539062,0.503906 -0.949218,0.984375 -1.6875,2.039062 l 0.539063,-2.308593 c 0.05859,-0.257813 0.09375,-0.433594 0.09375,-0.597657 0,-0.292968 -0.117188,-0.46875 -0.339844,-0.46875 -0.292969,0 -0.855469,0.316407 -1.898437,1.066407 z m 0,0"
         style="fill:#000000;fill-opacity:1;fill-rule:nonzero;stroke:none" />
      <path
         id="path163"
         d="m 21.624453,44.871422 0.128906,-0.105469 c 0.292969,-0.855469 0.867188,-0.902344 1.6875,-0.902344 0.175782,0 0.433594,0.01172 0.726563,0.01172 -1.195313,3.28125 -1.746094,4.265625 -2.90625,6.082031 l 0.128906,0.128907 1.054688,-0.363282 c 0.527343,-1.125 1.394531,-3.304687 2.191406,-5.824218 l 2.660156,0.09375 c -0.246094,0.890625 -1.078125,3.492187 -1.078125,4.40625 0,1.511718 0.550781,1.6875 0.996094,1.6875 0.726562,0 1.148437,-0.175782 2.050781,-0.9375 l -0.117187,-0.28125 -0.339844,0.246093 c 0.03516,-0.02344 -0.375,0.304688 -0.621094,0.304688 -0.667969,0 -0.878906,-0.421875 -0.878906,-1.300781 0,-0.363282 0.03516,-0.75 0.117187,-1.171875 0.246094,-1.183594 0.492188,-2.367188 0.621094,-2.953125 0.328125,0 0.65625,-0.01172 0.984375,-0.05859 0.257813,0 0.574219,-0.140625 0.808594,-0.222656 0.152344,-0.304688 0.210937,-0.328125 0.480469,-0.679688 l -0.09375,-0.164062 c -0.386719,0.128906 -1.03125,0.269531 -1.511719,0.269531 -0.164063,0.01172 -0.527344,0.02344 -0.890625,0.02344 -1.523438,-0.01172 -3.890625,-0.128906 -4.523438,-0.128906 -1.078125,0 -1.464843,0.480469 -1.886718,1.722656 z m 0,0"
         style="fill:#000000;fill-opacity:1;fill-rule:nonzero;stroke:none" />
      <path
         id="path164"
         d="m 33.920352,51.680016 c 0,0.597656 -0.398438,1.558593 -2.027344,1.664062 -0.07031,0.01172 -0.128906,0.07031 -0.128906,0.164063 0,0.164062 0.164062,0.164062 0.292968,0.164062 1.453125,0 2.847657,-0.738281 2.859375,-1.863281 v -3.410156 c 0,-0.585938 0,-1.066407 0.597657,-1.558594 0.527343,-0.433594 1.089843,-0.46875 1.417968,-0.480469 0.08203,-0.01172 0.140625,-0.07031 0.140625,-0.164062 0,-0.152344 -0.09375,-0.152344 -0.246093,-0.164063 -0.984375,-0.05859 -1.699219,-0.597656 -1.863282,-1.335937 -0.04687,-0.164063 -0.04687,-0.1875 -0.04687,-0.726563 v -2.964844 c 0,-0.621093 0,-1.101562 -0.714843,-1.675781 -0.597657,-0.457031 -1.628907,-0.609375 -2.144532,-0.609375 -0.128906,0 -0.292968,0 -0.292968,0.164063 0,0.152343 0.09375,0.152343 0.234375,0.164062 0.949218,0.05859 1.675781,0.539063 1.875,1.300781 0.04687,0.140625 0.04687,0.164063 0.04687,0.703125 v 3.140625 c 0,0.691407 0.117187,0.9375 0.597656,1.417969 0.304687,0.316406 0.738281,0.46875 1.160156,0.585938 -1.21875,0.339843 -1.757812,1.03125 -1.757812,1.898437 z m 0,0"
         style="fill:#000000;fill-opacity:1;fill-rule:nonzero;stroke:none" />
      <path
         id="path165"
         d="m 41.268008,48.164391 c -0.386719,0.128906 -0.644531,0.222656 -1.40625,0.433593 -0.105469,1.089844 -0.457031,2.027344 -1.289063,3.398438 l 0.199219,0.164062 0.585938,-0.28125 c 1.160156,-1.5 1.710937,-2.402343 2.109375,-3.503906 z m 10.549805,-2.695313 c 0,-0.65625 0.07031,-1.242187 0.210937,-1.757812 -0.574219,-0.351563 -1.078125,-0.503907 -1.664062,-0.503907 -0.691407,0 -1.5,0.269532 -2.355469,0.820313 -1.007813,0.632812 -1.535156,1.628906 -1.535156,2.894531 0,1.933594 1.359375,3.292969 3.28125,3.292969 0.75,0 1.828125,-0.269531 1.96875,-0.480469 l 0.304687,-0.457031 -0.152344,-0.222656 c -0.527343,0.292968 -0.984375,0.421875 -1.5,0.421875 -1.59375,0 -2.636718,-1.230469 -2.636718,-3.128907 0,-1.535156 0.714843,-2.390625 2.003906,-2.390625 0.632812,0 1.324219,0.28125 1.582031,0.644532 l 0.09375,0.867187 z m 4.649414,-2.261719 c -2.085938,0 -3.539063,1.476563 -3.539063,3.609375 0,2.027344 1.277344,3.398438 3.128906,3.398438 2.203125,0 3.785157,-1.523438 3.785157,-3.679688 0,-1.933593 -1.40625,-3.328125 -3.375,-3.328125 z m -0.257813,0.46875 c 1.324219,0 2.296875,1.441407 2.296875,3.386719 0,1.652344 -0.726562,2.683594 -1.886719,2.683594 -1.40625,0 -2.355468,-1.371094 -2.355468,-3.410156 0,-1.722657 0.691406,-2.660157 1.945312,-2.660157 z M 66.185,49.980797 c 0.878906,-0.04687 0.890625,-0.04687 1.136719,-0.04687 0.199219,0 0.199219,0 1.183594,0.04687 v -0.433594 l -0.585938,-0.04687 c -0.492187,-0.02344 -0.527344,-0.117187 -0.527344,-1.03125 v -2.765625 c 0,-1.675781 -0.796875,-2.496094 -2.402343,-2.496094 -0.527344,0 -0.832032,0.105469 -1.125,0.363282 l -1.089844,0.9375 v -1.242188 l -0.128906,-0.05859 c -0.738282,0.304688 -1.488282,0.503907 -2.238282,0.585938 v 0.398437 H 60.935 c 0.574219,0 0.632813,0.105469 0.632813,1.054688 v 3.222656 c 0,0.902344 -0.04687,1.007813 -0.539063,1.03125 l -0.644531,0.04687 v 0.433594 c 0.984375,-0.03516 1.371094,-0.04687 1.78125,-0.04687 0.421875,0 0.808594,0.01172 1.78125,0.04687 v -0.433594 l -0.644531,-0.04687 C 62.81,49.476891 62.774844,49.371422 62.774844,48.469078 v -3.035156 c 0,-0.644531 0.9375,-1.347656 1.816406,-1.347656 0.960938,0 1.59375,0.714843 1.59375,1.816406 z m 0,0"
         style="fill:#000000;fill-opacity:1;fill-rule:nonzero;stroke:none" />
      <path
         id="path166"
         d="m 73.345156,44.367516 0.105469,0.292968 0.457031,-0.304687 c 0.527344,-0.328125 0.574219,-0.363281 0.679688,-0.363281 0.152344,0 0.257812,0.152343 0.257812,0.363281 0,0.726562 -0.597656,3.503906 -1.183593,5.554687 l 0.105468,0.152344 c 0.351563,-0.105469 0.691407,-0.1875 1.007813,-0.246094 0.269531,-1.804687 0.574219,-2.742187 1.230469,-3.726562 0.773437,-1.207031 1.851562,-2.097656 2.496093,-2.097656 0.152344,0 0.246094,0.128906 0.246094,0.351562 0,0.257813 -0.04687,0.550781 -0.164062,1.019531 l -0.75,3.035157 c -0.128907,0.527343 -0.175782,0.855468 -0.175782,1.089843 0,0.363282 0.152344,0.574219 0.421875,0.574219 0.375,0 0.890625,-0.304687 2.296875,-1.347656 l -0.140625,-0.257813 -0.375,0.246094 c -0.410156,0.269531 -0.726562,0.421875 -0.878906,0.421875 -0.09375,0 -0.1875,-0.128906 -0.1875,-0.28125 0,-0.07031 0.02344,-0.234375 0.03516,-0.292969 l 0.949219,-3.949218 c 0.09375,-0.421875 0.152344,-0.820313 0.152344,-1.066407 0,-0.328125 -0.152344,-0.515625 -0.445313,-0.515625 -0.597656,0 -1.59375,0.550782 -2.4375,1.335938 -0.539062,0.503906 -0.949218,0.984375 -1.6875,2.039062 l 0.539063,-2.308593 c 0.05859,-0.257813 0.09375,-0.433594 0.09375,-0.597657 0,-0.292968 -0.117188,-0.46875 -0.339844,-0.46875 -0.292969,0 -0.855469,0.316407 -1.898437,1.066407 z m 0,0"
         style="fill:#000000;fill-opacity:1;fill-rule:nonzero;stroke:none" />
      <path
         id="path167"
         d="m 93.516055,46.500328 c 0.257812,0 0.527343,0 0.527343,-0.304687 0,-0.304688 -0.269531,-0.304688 -0.527343,-0.304688 h -6.339844 c 0.1875,-2.003906 1.898437,-3.433594 4.007812,-3.433594 h 2.332032 c 0.257812,0 0.527343,0 0.527343,-0.304687 0,-0.292969 -0.269531,-0.292969 -0.527343,-0.292969 h -2.355469 c -2.566406,0 -4.59375,1.945313 -4.59375,4.335938 0,2.390625 2.027344,4.335937 4.59375,4.335937 h 2.355469 c 0.257812,0 0.527343,0 0.527343,-0.292969 0,-0.304687 -0.269531,-0.304687 -0.527343,-0.304687 h -2.332032 c -2.109375,0 -3.820312,-1.429688 -4.007812,-3.433594 z m 0,0"
         style="fill:#000000;fill-opacity:1;fill-rule:nonzero;stroke:none" />
      <path
         id="path168"
         d="m 110.06293,47.449547 -0.0937,0.820312 c -0.0937,0.949219 -0.29297,1.03125 -2.49609,1.03125 h -3.91407 l 6.97266,-8.882812 -0.0586,-0.410156 c -0.55079,0 -1.91016,0.04687 -2.57813,0.04687 h -2.26172 c -0.86719,0 -1.79297,-0.02344 -2.67187,-0.03516 -0.45703,-0.01172 -1.32422,-0.01172 -2.36719,-0.01172 0.0234,0.527343 0.0469,0.785156 0.0469,1.160156 0,0.375 -0.0234,0.632812 -0.0469,1.160156 h 0.49219 l 0.082,-1.019531 c 0.0469,-0.550781 0.43359,-0.667969 2.17969,-0.667969 h 3.26953 c -0.17578,0.28125 -0.31641,0.503906 -0.49219,0.738281 -0.25781,0.316407 -0.49219,0.632813 -0.73828,0.949219 l -4.33594,5.566406 c -0.19922,0.257813 -0.46875,0.585938 -1.39453,1.675782 v 0.410156 c 0.5625,0 2.21484,-0.04687 2.88281,-0.04687 h 2.88281 c 0.86719,0 1.79297,0.01172 2.67188,0.02344 0.45703,0.02344 1.32422,0.02344 2.36719,0.02344 0,-1.242188 0.0117,-1.757813 0.082,-2.53125 z m -2.28516,-5.460938 -5.23828,6.585938 c -0.26953,0.398437 -0.41015,0.585937 -0.60937,0.726562 h -0.55078 c -0.14063,-0.128906 -0.21094,-0.246093 -0.21094,-0.375 0,-0.199218 0.15234,-0.445312 0.57422,-0.984375 l 5.1914,-6.609375 c 0.26953,-0.351562 0.45703,-0.5625 0.59766,-0.691406 h 0.62109 c 0.14063,0.128906 0.21094,0.222656 0.21094,0.351563 0,0.210937 -0.16406,0.46875 -0.58594,0.996093 z m 0,0"
         style="fill:#000000;fill-opacity:1;fill-rule:nonzero;stroke:none" />
      <path
         id="path169"
         d="m 114.73871,51.680016 c 0,0.597656 -0.39844,1.558593 -2.02734,1.664062 -0.0703,0.01172 -0.12891,0.07031 -0.12891,0.164063 0,0.164062 0.16406,0.164062 0.29297,0.164062 1.45312,0 2.84766,-0.738281 2.85937,-1.863281 v -3.410156 c 0,-0.585938 0,-1.066407 0.59766,-1.558594 0.52734,-0.433594 1.08984,-0.46875 1.41797,-0.480469 0.082,-0.01172 0.14062,-0.07031 0.14062,-0.164062 0,-0.152344 -0.0937,-0.152344 -0.24609,-0.164063 -0.98437,-0.05859 -1.69922,-0.597656 -1.86328,-1.335937 -0.0469,-0.164063 -0.0469,-0.1875 -0.0469,-0.726563 v -2.964844 c 0,-0.621093 0,-1.101562 -0.71484,-1.675781 -0.59766,-0.457031 -1.62891,-0.609375 -2.14453,-0.609375 -0.12891,0 -0.29297,0 -0.29297,0.164063 0,0.152343 0.0937,0.152343 0.23438,0.164062 0.94921,0.05859 1.67578,0.539063 1.875,1.300781 0.0469,0.140625 0.0469,0.164063 0.0469,0.703125 v 3.140625 c 0,0.691407 0.11719,0.9375 0.59766,1.417969 0.30468,0.316406 0.73828,0.46875 1.16015,0.585938 -1.21875,0.339843 -1.75781,1.03125 -1.75781,1.898437 z m 0,0"
         style="fill:#000000;fill-opacity:1;fill-rule:nonzero;stroke:none" />
      <path
         id="path170"
         d="m 122.08637,48.164391 c -0.38672,0.128906 -0.64453,0.222656 -1.40625,0.433593 -0.10547,1.089844 -0.45703,2.027344 -1.28907,3.398438 l 0.19922,0.164062 0.58594,-0.28125 c 1.16016,-1.5 1.71094,-2.402343 2.10938,-3.503906 z m 7.92773,-7.441407 c 0.49219,-0.117187 0.92578,-0.164062 1.40625,-0.164062 1.5,0 2.33203,0.679687 2.33203,1.898437 0,1.324219 -1.05468,2.15625 -2.71875,2.15625 -0.0937,0 -0.22265,0 -0.41015,-0.01172 l -0.0937,0.164062 c 0.16406,0.1875 0.21093,0.246094 0.375,0.433594 0.19922,0.234375 0.24609,0.292969 0.375,0.457031 l 2.63672,3.550781 c 0.0937,0.105469 0.17578,0.222657 0.25781,0.328125 0.10547,0.128907 0.1875,0.257813 0.32812,0.445313 0.67969,-0.04687 0.82032,-0.04687 0.98438,-0.04687 0.1289,0 0.1289,0 1.03125,0.04687 v -0.433594 c -0.45703,-0.04687 -0.69141,-0.128906 -0.87891,-0.375 l -3.25781,-4.242187 c 0.80859,-0.199219 1.18359,-0.363282 1.65234,-0.691407 0.75,-0.527343 1.14844,-1.242187 1.14844,-2.074218 0,-1.382813 -1.00781,-2.15625 -2.77734,-2.15625 h -0.23438 c -1.86328,0.04687 -1.86328,0.04687 -2.35547,0.04687 -0.46875,0 -0.46875,0 -2.48437,-0.04687 v 0.433593 l 0.59765,0.03516 c 0.65625,0.04687 0.72657,0.175781 0.72657,1.300781 v 6.433594 c 0,1.136718 -0.0703,1.253906 -0.72657,1.289062 l -0.6914,0.04687 v 0.433594 c 0.84375,-0.03516 1.34765,-0.04687 2.09765,-0.04687 0.73829,0 1.25391,0.01172 2.10938,0.04687 v -0.433594 l -0.69141,-0.04687 c -0.65625,-0.03516 -0.73828,-0.152344 -0.73828,-1.289062 z m 11.1416,8.039063 -0.082,1.21875 c 0.9375,-0.04687 0.9375,-0.04687 1.125,-0.04687 0.0703,0 0.4336,0.01172 1.06641,0.04687 v -0.433594 l -0.5625,-0.02344 c -0.35156,-0.02344 -0.41016,-0.140625 -0.41016,-0.832032 v -2.625 c 0,-2.097656 -0.59765,-2.859375 -2.26172,-2.859375 -0.62109,0 -1.18359,0.152344 -1.73437,0.492188 l -0.76172,0.457031 v 0.925781 l 0.375,0.105469 0.1875,-0.445312 c 0.30469,-0.679688 0.44531,-0.773438 1.10156,-0.773438 1.34766,0 1.91016,0.527344 1.95703,1.828125 l -1.42968,0.269531 c -1.94532,0.351563 -2.76563,1.03125 -2.76563,2.273438 0,1.125 0.67969,1.769531 1.80469,1.769531 0.25781,0 0.5039,-0.04687 0.60937,-0.117187 z m 0,-0.609375 c -0.42187,0.585937 -1.32422,1.136719 -1.88672,1.136719 -0.57421,0 -1.07812,-0.527344 -1.07812,-1.148438 0,-0.527344 0.29297,-1.03125 0.72656,-1.300781 0.35156,-0.222656 1.14844,-0.421875 2.23828,-0.574219 z m 8.40235,1.828125 c 0.8789,-0.04687 0.89062,-0.04687 1.13672,-0.04687 0.19921,0 0.19921,0 1.18359,0.04687 v -0.433594 l -0.58594,-0.04687 c -0.49219,-0.02344 -0.52734,-0.117187 -0.52734,-1.03125 v -2.765625 c 0,-1.675781 -0.79688,-2.496094 -2.40235,-2.496094 -0.52734,0 -0.83203,0.105469 -1.125,0.363282 l -1.08984,0.9375 v -1.242188 l -0.12891,-0.05859 c -0.73828,0.304688 -1.48828,0.503907 -2.23828,0.585938 v 0.398437 h 0.52735 c 0.57422,0 0.63281,0.105469 0.63281,1.054688 v 3.222656 c 0,0.902344 -0.0469,1.007813 -0.53906,1.03125 l -0.64453,0.04687 v 0.433594 c 0.98437,-0.03516 1.37109,-0.04687 1.78125,-0.04687 0.42187,0 0.80859,0.01172 1.78125,0.04687 v -0.433594 l -0.64454,-0.04687 c -0.49218,-0.02344 -0.52734,-0.128906 -0.52734,-1.03125 v -3.035156 c 0,-0.644531 0.9375,-1.347656 1.81641,-1.347656 0.96093,0 1.59375,0.714843 1.59375,1.816406 z m 9.9082,-5.472656 0.36328,-0.585938 -0.0586,-0.175781 -2.03907,0.05859 c -0.52734,-0.421875 -1.04296,-0.597657 -1.74609,-0.597657 -0.63281,0 -1.35937,0.199219 -1.95703,0.539063 -0.79688,0.46875 -1.21875,1.171875 -1.21875,2.039062 0,1.066407 0.66797,1.792969 1.72266,1.910157 l -1.125,0.878906 c -0.15235,0.210937 -0.22266,0.398437 -0.22266,0.609375 0,0.410156 0.25781,0.632812 0.94922,0.832031 l -1.25391,0.679688 c -0.19922,0.117187 -0.39844,0.644531 -0.39844,1.089843 0,1.300782 1.27735,2.203125 3.10547,2.203125 2.15625,0 3.86719,-1.359375 3.86719,-3.105468 0,-1.03125 -0.69141,-1.757813 -1.6875,-1.757813 h -2.29687 c -0.75,0 -1.08985,-0.164062 -1.08985,-0.550781 0,-0.1875 0.11719,-0.351563 0.48047,-0.667969 0.0937,-0.07031 0.11719,-0.09375 0.17578,-0.152344 0.14063,0.01172 0.23438,0.02344 0.33985,0.02344 0.62109,0 1.38281,-0.269531 1.96875,-0.679688 0.64453,-0.480468 0.96093,-1.054687 0.96093,-1.816406 0,-0.28125 -0.0469,-0.46875 -0.15234,-0.773437 z m -3.99609,-0.808594 c 0.97265,0 1.6289,0.796875 1.6289,2.015625 0,0.9375 -0.59765,1.582031 -1.47656,1.582031 -0.96094,0 -1.60547,-0.75 -1.60547,-1.851562 0,-1.101563 0.52734,-1.746094 1.45313,-1.746094 z m 0.66796,6.433594 c 1.62891,0 2.17969,0.328125 2.17969,1.265625 0,1.230468 -1.125,2.144531 -2.63672,2.144531 -1.24218,0 -2.10937,-0.726563 -2.10937,-1.792969 0,-0.644531 0.375,-1.230469 0.94922,-1.476562 0.23437,-0.105469 0.63281,-0.140625 1.61718,-0.140625 z m 7.86036,-6.925782 c -2.08594,0 -3.53907,1.476563 -3.53907,3.609375 0,2.027344 1.27735,3.398438 3.12891,3.398438 2.20313,0 3.78516,-1.523438 3.78516,-3.679688 0,-1.933593 -1.40625,-3.328125 -3.375,-3.328125 z m -0.25782,0.46875 c 1.32422,0 2.29688,1.441407 2.29688,3.386719 0,1.652344 -0.72656,2.683594 -1.88672,2.683594 -1.40625,0 -2.35547,-1.371094 -2.35547,-3.410156 0,-1.722657 0.69141,-2.660157 1.94531,-2.660157 z m 12.04981,0.726563 H 168.56 v 0.796875 h 7.23047 z m 0,2.777344 H 168.56 v 0.808593 h 7.23047 z m 0,0"
         style="fill:#000000;fill-opacity:1;fill-rule:nonzero;stroke:none" />
      <path
         id="path171"
         d="m 176.84516,40.441734 0.63281,0.03516 c 0.58594,0.04687 0.72656,0.164062 0.72656,1.300781 v 6.433594 c 0,1.136718 -0.14062,1.265625 -0.72656,1.289062 l -0.63281,0.04687 v 0.433594 c 0.84375,-0.03516 2.16796,-0.04687 2.90625,-0.04687 0.75,0 2.13281,0.01172 2.97656,0.04687 v -0.433594 l -0.69141,-0.04687 C 181.39203,49.465172 181.31,49.347984 181.31,48.293297 v -7.570313 c 0.49219,-0.128906 0.91406,-0.164062 1.40625,-0.164062 1.48828,0 2.32031,0.679687 2.32031,1.898437 0,1.324219 -1.05469,2.15625 -2.71875,2.15625 -0.082,0 -0.22265,0 -0.41015,-0.01172 l -0.082,0.164062 c 0.15235,0.1875 0.19922,0.246094 0.36329,0.433594 0.21093,0.234375 0.24609,0.292969 0.375,0.457031 l 2.64843,3.550781 c 0.082,0.105469 0.16407,0.222657 0.25782,0.328125 l 0.32812,0.445313 c 0.58594,-0.03516 0.79688,-0.04687 0.97266,-0.04687 0.15234,0 0.33984,0.01172 1.03125,0.04687 v -0.433594 c -0.45703,-0.04687 -0.69141,-0.128906 -0.87891,-0.375 l -3.24609,-4.242187 c 0.78515,-0.1875 1.13672,-0.351563 1.60547,-0.65625 0.78515,-0.550782 1.18359,-1.265625 1.18359,-2.109375 0,-1.394532 -0.98438,-2.15625 -2.8125,-2.15625 h -0.19922 c -0.28125,0.01172 -0.52734,0.01172 -0.72656,0.02344 -0.4336,0.02344 -0.97266,0.02344 -1.52344,0.02344 h -1.45312 c -0.73829,0 -2.0625,-0.02344 -2.90625,-0.04687 z m 3.09375,1.335938 v 6.433594 c 0,1.136718 -0.0703,1.253906 -0.52735,1.289062 -0.45703,-0.03516 -0.53906,-0.152344 -0.53906,-1.289062 v -6.433594 c 0,-1.136719 0.082,-1.253906 0.53906,-1.300781 0.45703,0.03516 0.52735,0.164062 0.52735,1.300781 z m 0,0"
         style="fill:#000000;fill-opacity:1;fill-rule:nonzero;stroke:none" />
      <path
         id="path172"
         d="m 195.25238,48.164391 c -0.38672,0.128906 -0.64453,0.222656 -1.40625,0.433593 -0.10547,1.089844 -0.45703,2.027344 -1.28906,3.398438 l 0.19922,0.164062 0.58594,-0.28125 c 1.16015,-1.5 1.71093,-2.402343 2.10937,-3.503906 z m 7.92774,-7.441407 c 0.5039,-0.117187 0.92578,-0.164062 1.40625,-0.164062 1.55859,0 2.39062,0.714844 2.39062,2.074219 0,1.289062 -0.8789,2.191406 -2.13281,2.191406 -0.29297,0 -0.51563,-0.02344 -0.89063,-0.140625 l 0.15235,0.515625 c 0.33984,0.07031 0.53906,0.08203 0.83203,0.08203 1.95703,0 3.46875,-1.324219 3.46875,-3.046875 0,-1.382812 -1.125,-2.226562 -2.94141,-2.226562 -0.0703,0 -0.21093,0 -0.39843,0.01172 -0.53907,0.01172 -1.62891,0.03516 -2.03907,0.03516 -0.3164,0 -0.3164,0 -2.61328,-0.04687 v 0.433593 l 0.64453,0.03516 c 0.64453,0.04687 0.76172,0.234375 0.76172,1.300781 v 6.433594 c 0,1.136718 -0.0703,1.253906 -0.72656,1.289062 l -0.69141,0.04687 v 0.433594 c 0.84375,-0.03516 1.34766,-0.04687 2.09766,-0.04687 0.73828,0 1.25391,0.01172 2.10937,0.04687 V 49.54721 l -0.6914,-0.04687 c -0.65625,-0.03516 -0.73828,-0.152344 -0.73828,-1.289062 z m 11.83886,8.203125 -0.1875,-0.140625 c -0.91406,0.550782 -1.2539,0.679688 -1.86328,0.679688 -0.9375,0 -1.71093,-0.421875 -2.10937,-1.125 -0.26953,-0.46875 -0.375,-0.878906 -0.39844,-1.710938 h 2.08594 c 0.99609,0 1.60547,-0.03516 2.60156,-0.199218 0.0117,-0.199219 0.0234,-0.328125 0.0234,-0.492188 0,-1.652344 -1.05469,-2.730469 -2.66016,-2.730469 -0.53906,0 -1.14844,0.1875 -1.73437,0.527344 -1.1836,0.679688 -1.65235,1.570313 -1.65235,3.058594 0,0.902344 0.21094,1.675781 0.59766,2.226562 0.57422,0.761719 1.53516,1.195313 2.61328,1.195313 0.52734,0 1.06641,-0.105469 1.65234,-0.363281 0.38672,-0.164063 0.69141,-0.351563 0.73829,-0.433594 z m -1.125,-2.824218 c -0.73828,0.03516 -1.08984,0.04687 -1.60546,0.04687 -0.65625,0 -1.03125,-0.01172 -1.80469,-0.08203 0,-0.679687 0.0586,-0.996093 0.24609,-1.371093 0.30469,-0.632813 0.91406,-1.019532 1.60547,-1.019532 0.46875,0 0.84375,0.1875 1.10156,0.574219 0.31641,0.480469 0.42188,0.890625 0.45703,1.851563 z m 2.05664,-1.910157 h 0.52735 c 0.57422,0 0.63281,0.105469 0.63281,1.054688 v 3.222656 c 0,0.902344 -0.0352,1.007813 -0.52734,1.03125 l -0.65625,0.04687 v 0.433594 c 1.03125,-0.03516 1.40625,-0.04687 1.75781,-0.04687 0.29297,0 0.29297,0 2.05078,0.04687 v -0.433594 l -0.73828,-0.04687 c -0.64453,-0.03516 -0.67969,-0.08203 -0.67969,-1.03125 v -2.460937 c 0,-0.867188 0.57422,-1.582032 1.27735,-1.582032 0.43359,0 0.72656,0.199219 0.96093,0.65625 h 0.30469 l 0.12891,-1.722656 c -0.16407,-0.09375 -0.42188,-0.152344 -0.67969,-0.152344 -0.42188,0 -0.89063,0.234375 -1.18359,0.585938 l -0.8086,0.949219 v -1.476563 l -0.1289,-0.05859 c -0.72657,0.304688 -1.47657,0.503907 -2.23829,0.585938 z m 8.03321,-0.925781 -0.12891,-0.05859 c -0.72656,0.304688 -1.47656,0.503907 -2.23828,0.585938 v 0.398437 h 0.52734 c 0.57422,0 0.63282,0.105469 0.63282,1.054688 v 3.222656 c 0,0.902344 -0.0352,1.007813 -0.52735,1.03125 l -0.65625,0.04687 v 0.433594 c 1.42969,-0.04687 1.42969,-0.04687 1.79297,-0.04687 0.35156,0 0.35156,0 1.79297,0.04687 v -0.433594 l -0.66797,-0.04687 c -0.48047,-0.02344 -0.52734,-0.128906 -0.52734,-1.03125 z m -0.65625,-3.1875 c -0.4336,0 -0.8086,0.375 -0.8086,0.808594 0,0.410156 0.375,0.785156 0.79688,0.785156 0.41016,0 0.79687,-0.375 0.79687,-0.785156 0,-0.410156 -0.38671,-0.808594 -0.78515,-0.808594 z m 6.13183,3.128906 c -2.08593,0 -3.53906,1.476563 -3.53906,3.609375 0,2.027344 1.27735,3.398438 3.12891,3.398438 2.20312,0 3.78515,-1.523438 3.78515,-3.679688 0,-1.933593 -1.40625,-3.328125 -3.375,-3.328125 z m -0.25781,0.46875 c 1.32422,0 2.29688,1.441407 2.29688,3.386719 0,1.652344 -0.72657,2.683594 -1.88672,2.683594 -1.40625,0 -2.35547,-1.371094 -2.35547,-3.410156 0,-1.722657 0.69141,-2.660157 1.94531,-2.660157 z m 10.00195,-0.01172 c -0.79687,-0.339844 -1.20703,-0.457032 -1.69921,-0.457032 -0.38672,0 -0.73829,0.08203 -1.08985,0.269532 l -1.26562,0.667968 c -0.82032,0.421875 -1.34766,1.476563 -1.34766,2.695313 0,1.148437 0.38672,2.085937 1.08984,2.660156 0.48047,0.421875 1.16016,0.609375 2.09766,0.609375 0.28125,0 0.60938,-0.05859 0.67969,-0.117187 l 1.59375,-1.335938 -0.0703,1.324219 c 0.70312,-0.03516 0.9375,-0.04687 1.10156,-0.04687 0.11719,0 0.3164,0 0.62109,0.01172 0.10547,0.01172 0.38672,0.01172 0.69141,0.03516 v -0.433594 l -0.66797,-0.04687 c -0.48047,-0.02344 -0.52734,-0.128906 -0.52734,-1.03125 v -8.835937 l -0.12891,-0.117188 c -0.63281,0.246094 -1.10156,0.363281 -2.23828,0.539063 v 0.398437 h 0.80859 c 0.25781,0 0.35156,0.152344 0.35156,0.585938 z m 0,3.09375 c 0,0.9375 -0.0234,1.078125 -0.21093,1.40625 -0.39844,0.679687 -1.10157,1.125 -1.78125,1.125 -1.26563,0 -2.16797,-1.21875 -2.16797,-2.929688 0,-1.558594 0.77344,-2.484375 2.07422,-2.484375 0.53906,0 1.11328,0.1875 1.61718,0.539063 0.30469,0.199218 0.46875,0.386718 0.46875,0.503906 z m 6.85547,-3.550782 c -2.08593,0 -3.53906,1.476563 -3.53906,3.609375 0,2.027344 1.27734,3.398438 3.12891,3.398438 2.20312,0 3.78515,-1.523438 3.78515,-3.679688 0,-1.933593 -1.40625,-3.328125 -3.375,-3.328125 z m -0.25781,0.46875 c 1.32422,0 2.29688,1.441407 2.29688,3.386719 0,1.652344 -0.72657,2.683594 -1.88672,2.683594 -1.40625,0 -2.35547,-1.371094 -2.35547,-3.410156 0,-1.722657 0.6914,-2.660157 1.94531,-2.660157 z m 16.22461,0.726563 h -7.23047 v 0.796875 h 7.23047 z m 0,2.777344 h -7.23047 v 0.808593 h 7.23047 z m 0,0"
         style="fill:#000000;fill-opacity:1;fill-rule:nonzero;stroke:none" />
      <path
         id="path173"
         d="m 268.50043,44.871422 0.12891,-0.105469 c 0.29296,-0.855469 0.86718,-0.902344 1.6875,-0.902344 0.17578,0 0.43359,0.01172 0.72656,0.01172 -1.19531,3.28125 -1.7461,4.265625 -2.90625,6.082031 l 0.1289,0.128907 1.05469,-0.363282 c 0.52735,-1.125 1.39453,-3.304687 2.19141,-5.824218 l 2.66015,0.09375 c -0.24609,0.890625 -1.07812,3.492187 -1.07812,4.40625 0,1.511718 0.55078,1.6875 0.99609,1.6875 0.72657,0 1.14844,-0.175782 2.05078,-0.9375 l -0.11718,-0.28125 -0.33985,0.246093 c 0.0352,-0.02344 -0.375,0.304688 -0.62109,0.304688 -0.66797,0 -0.87891,-0.421875 -0.87891,-1.300781 0,-0.363282 0.0352,-0.75 0.11719,-1.171875 0.24609,-1.183594 0.49219,-2.367188 0.62109,-2.953125 0.32813,0 0.65625,-0.01172 0.98438,-0.05859 0.25781,0 0.57422,-0.140625 0.80859,-0.222656 0.15235,-0.304688 0.21094,-0.328125 0.48047,-0.679688 l -0.0937,-0.164062 c -0.38672,0.128906 -1.03125,0.269531 -1.51172,0.269531 -0.16406,0.01172 -0.52734,0.02344 -0.89062,0.02344 -1.52344,-0.01172 -3.89063,-0.128906 -4.52344,-0.128906 -1.07812,0 -1.46484,0.480469 -1.88672,1.722656 z m 0,0"
         style="fill:#000000;fill-opacity:1;fill-rule:nonzero;stroke:none" />
    </g>
  </g>
</svg>
