<?xml version="1.0" encoding="UTF-8" standalone="no"?>
<!-- Created with Inkscape (http://www.inkscape.org/) -->

<svg
   version="1.1"
   id="svg1"
   width="219.13069"
   height="27.835052"
   viewBox="0 0 219.13069 27.835052"
   sodipodi:docname="writetex.pdf"
   inkscape:export-batch-path="..\Akemicos\Akdemicos-Front\public"
   inkscape:export-batch-name="Ransecante"
   xmlns:inkscape="http://www.inkscape.org/namespaces/inkscape"
   xmlns:sodipodi="http://sodipodi.sourceforge.net/DTD/sodipodi-0.dtd"
   xmlns="http://www.w3.org/2000/svg"
   xmlns:svg="http://www.w3.org/2000/svg">
  <defs
     id="defs1">
    <clipPath
       clipPathUnits="userSpaceOnUse"
       id="clipPath187">
      <rect
         style="fill:#000000;stroke:#000000;stroke-opacity:1"
         id="rect188"
         width="221.64949"
         height="27.835052"
         x="1387.6289"
         y="330.92783" />
    </clipPath>
  </defs>
  <sodipodi:namedview
     id="namedview1"
     pagecolor="#ffffff"
     bordercolor="#000000"
     borderopacity="0.25"
     inkscape:showpageshadow="2"
     inkscape:pageopacity="0.0"
     inkscape:pagecheckerboard="0"
     inkscape:deskcolor="#d1d1d1"
     showgrid="false">
    <inkscape:page
       x="0"
       y="0"
       width="219.13069"
       height="27.835052"
       id="page1"
       margin="0"
       bleed="0" />
  </sodipodi:namedview>
  <g
     id="g97"
     inkscape:groupmode="layer"
     inkscape:label="2"
     clip-path="url(#clipPath187)"
     transform="translate(-1387.6289,-330.92783)">
    <path
       id="path129"
       d="m 1379.3281,349.14453 c -0.5156,0.17187 -0.8593,0.29687 -1.875,0.57812 -0.1406,1.45313 -0.6093,2.70313 -1.7187,4.53125 l 0.2656,0.21875 0.7813,-0.375 c 1.5468,-2 2.2812,-3.20312 2.8125,-4.67187 z m 13.7579,-9.92188 c 0.6562,-0.15625 1.2343,-0.21875 1.875,-0.21875 2,0 3.1093,0.90625 3.1093,2.53125 0,1.76563 -1.4062,2.875 -3.625,2.875 -0.1249,0 -0.2968,0 -0.5468,-0.0156 l -0.125,0.21875 c 0.2188,0.25 0.2813,0.32812 0.5,0.57812 0.2657,0.3125 0.3282,0.39063 0.5,0.60938 l 3.5157,4.73437 c 0.1249,0.14063 0.2343,0.29688 0.3437,0.4375 0.1406,0.17188 0.25,0.34375 0.4375,0.59375 0.9063,-0.0625 1.0938,-0.0625 1.3125,-0.0625 0.1719,0 0.1719,0 1.375,0.0625 v -0.57812 c -0.6094,-0.0625 -0.9219,-0.17188 -1.1719,-0.5 l -4.3437,-5.65625 c 1.0781,-0.26563 1.5781,-0.48438 2.2031,-0.92188 1,-0.70312 1.5313,-1.65625 1.5313,-2.76562 0,-1.84375 -1.3438,-2.875 -3.7032,-2.875 h -0.3125 c -2.4843,0.0625 -2.4843,0.0625 -3.1406,0.0625 -0.625,0 -0.625,0 -3.3125,-0.0625 v 0.57812 l 0.7969,0.0469 c 0.875,0.0625 0.9687,0.23438 0.9687,1.73438 v 8.57812 c 0,1.51563 -0.094,1.67188 -0.9687,1.71875 l -0.9219,0.0625 v 0.57812 c 1.125,-0.0469 1.7969,-0.0625 2.7969,-0.0625 0.9844,0 1.6719,0.0156 2.8125,0.0625 v -0.57812 l -0.9219,-0.0625 c -0.875,-0.0469 -0.9844,-0.20312 -0.9844,-1.71875 z m 14.8593,10.71875 -0.1093,1.625 c 1.25,-0.0625 1.25,-0.0625 1.5,-0.0625 0.094,0 0.5781,0.0156 1.4219,0.0625 v -0.57812 l -0.75,-0.0312 c -0.4688,-0.0313 -0.5469,-0.1875 -0.5469,-1.10938 v -3.5 c 0,-2.79687 -0.7969,-3.8125 -3.0156,-3.8125 -0.8281,0 -1.5781,0.20313 -2.3125,0.65625 l -1.0156,0.60938 v 1.23437 l 0.5,0.14063 0.25,-0.59375 c 0.4062,-0.90625 0.5937,-1.03125 1.4687,-1.03125 1.7969,0 2.5469,0.70312 2.6094,2.4375 l -1.9063,0.35937 c -2.5937,0.46875 -3.6875,1.375 -3.6875,3.03125 0,1.5 0.9063,2.35938 2.4063,2.35938 0.3437,0 0.6719,-0.0625 0.8125,-0.15625 z m 0,-0.8125 c -0.5625,0.78125 -1.7656,1.51563 -2.5156,1.51563 -0.7656,0 -1.4375,-0.70313 -1.4375,-1.53125 0,-0.70313 0.3906,-1.375 0.9688,-1.73438 0.4687,-0.29687 1.5312,-0.5625 2.9843,-0.76562 z m 11.2032,2.4375 c 1.1718,-0.0625 1.1875,-0.0625 1.5156,-0.0625 0.2656,0 0.2656,0 1.5781,0.0625 v -0.57812 l -0.7812,-0.0625 c -0.6563,-0.0313 -0.7032,-0.15626 -0.7032,-1.375 v -3.6875 c 0,-2.23438 -1.0625,-3.32813 -3.2031,-3.32813 -0.7031,0 -1.1094,0.14063 -1.5,0.48437 l -1.4531,1.25 v -1.65624 l -0.1719,-0.0781 c -0.9844,0.40625 -1.9844,0.67187 -2.9844,0.78125 v 0.53125 h 0.7032 c 0.7656,0 0.8437,0.14062 0.8437,1.40625 v 4.29687 c 0,1.20313 -0.062,1.34375 -0.7187,1.375 l -0.8594,0.0625 v 0.57813 c 1.3125,-0.0469 1.8281,-0.0625 2.375,-0.0625 0.5625,0 1.0781,0.0156 2.375,0.0625 v -0.57813 l -0.8594,-0.0625 c -0.6562,-0.0312 -0.7031,-0.17187 -0.7031,-1.375 v -4.04687 c 0,-0.85938 1.25,-1.79688 2.4219,-1.79688 1.2812,0 2.125,0.95313 2.125,2.42188 z m 13.2109,-7.29687 0.4844,-0.78125 -0.078,-0.23438 -2.7187,0.0781 c -0.7031,-0.5625 -1.3906,-0.79687 -2.3281,-0.79687 -0.8438,0 -1.8125,0.26562 -2.6094,0.71875 -1.0625,0.625 -1.625,1.5625 -1.625,2.71875 0,1.42187 0.8906,2.39062 2.2969,2.54687 l -1.5,1.17188 c -0.2032,0.28125 -0.2969,0.53125 -0.2969,0.8125 0,0.54687 0.3437,0.84375 1.2656,1.10937 l -1.6719,0.90625 c -0.2656,0.15625 -0.5312,0.85938 -0.5312,1.45313 0,1.73437 1.7031,2.9375 4.1406,2.9375 2.875,0 5.1563,-1.8125 5.1563,-4.14063 0,-1.375 -0.9219,-2.34375 -2.25,-2.34375 h -3.0625 c -1,0 -1.4532,-0.21875 -1.4532,-0.73437 0,-0.25 0.1563,-0.46875 0.6407,-0.89063 0.1249,-0.0937 0.1562,-0.125 0.2343,-0.20312 0.1875,0.0156 0.3125,0.0312 0.4532,0.0312 0.8281,0 1.8437,-0.35937 2.625,-0.90625 0.8593,-0.64062 1.2812,-1.40625 1.2812,-2.42187 0,-0.375 -0.062,-0.625 -0.2031,-1.03125 z m -5.3281,-1.07813 c 1.2968,0 2.1718,1.0625 2.1718,2.6875 0,1.25 -0.7968,2.10938 -1.9687,2.10938 -1.2813,0 -2.1406,-1 -2.1406,-2.46875 0,-1.46875 0.7031,-2.32813 1.9375,-2.32813 z m 0.8906,8.57813 c 2.1719,0 2.9062,0.4375 2.9062,1.6875 0,1.64062 -1.5,2.85937 -3.5156,2.85937 -1.6562,0 -2.8125,-0.96875 -2.8125,-2.39062 0,-0.85938 0.5,-1.64063 1.2657,-1.96875 0.3124,-0.14063 0.8437,-0.1875 2.1562,-0.1875 z m 10.4805,-9.23438 c -2.7813,0 -4.7188,1.96875 -4.7188,4.8125 0,2.70313 1.7031,4.53125 4.1719,4.53125 2.9375,0 5.0469,-2.03125 5.0469,-4.90625 0,-2.57812 -1.875,-4.4375 -4.5,-4.4375 z m -0.3438,0.625 c 1.7656,0 3.0625,1.92188 3.0625,4.51563 0,2.20312 -0.9687,3.57812 -2.5156,3.57812 -1.875,0 -3.1406,-1.82812 -3.1406,-4.54687 0,-2.29688 0.9218,-3.54688 2.5937,-3.54688 z m 16.0664,0.96875 h -9.6406 v 1.0625 h 9.6406 z m 0,3.70313 h -9.6406 v 1.07812 h 9.6406 z m 0,0"
       style="fill:#000000;fill-opacity:1;fill-rule:nonzero;stroke:none;stroke-width:1.33333" />
    <path
       id="path130"
       d="m 1461.9414,356.28515 c 0,-0.0625 0,-0.0937 -0.3281,-0.4375 -2.5,-2.51562 -3.1406,-6.28125 -3.1406,-9.32812 0,-3.46875 0.7656,-6.9375 3.2187,-9.4375 0.25,-0.23438 0.25,-0.26563 0.25,-0.32813 0,-0.14062 -0.078,-0.20312 -0.1875,-0.20312 -0.2031,0 -2,1.35937 -3.1718,3.89062 -1.0157,2.1875 -1.2657,4.40625 -1.2657,6.07813 0,1.5625 0.2188,3.96875 1.3282,6.21875 1.1875,2.45312 2.9062,3.75 3.1093,3.75 0.1094,0 0.1875,-0.0625 0.1875,-0.20313 z m 0,0"
       style="fill:#000000;fill-opacity:1;fill-rule:nonzero;stroke:none;stroke-width:1.33333" />
    <path
       id="path131"
       d="m 1476.6953,346.92578 c 0.3438,0 0.7032,0 0.7032,-0.40625 0,-0.40625 -0.3594,-0.40625 -0.7032,-0.40625 h -10.7812 c -0.3438,0 -0.7031,0 -0.7031,0.40625 0,0.40625 0.3593,0.40625 0.7031,0.40625 z m 0,0"
       style="fill:#000000;fill-opacity:1;fill-rule:nonzero;stroke:none;stroke-width:1.33333" />
    <path
       id="path132"
       d="m 1487.8203,345.53515 c -1.625,-2.20312 -2.4218,-3.07812 -4.0156,-3.07812 -1.3906,0 -3.6719,1.26562 -3.6719,4.35937 0,2.3125 1.8125,3.73438 3.5157,3.73438 1.2343,0 2.6718,-0.95313 3.8281,-3.0625 1.6406,2.17187 2.4531,3.0625 4.0312,3.0625 1.4063,0 3.7188,-1.26563 3.7188,-4.35938 0,-2.3125 -1.8594,-3.73437 -3.5625,-3.73437 -1.2344,0 -2.6563,0.96875 -3.8438,3.07812 z m -0.6718,1.4375 c -0.9063,1.53125 -2.0469,2.67188 -3.1094,2.67188 -0.6875,0 -2.8125,-0.0937 -2.8125,-2.92188 0,-1.64062 1.3906,-2.59375 2.375,-2.59375 1.2969,0 1.9219,0.64063 3.5469,2.84375 z m 1.0625,-0.9375 c 0.9062,-1.53125 2.0468,-2.67187 3.1093,-2.67187 0.6875,0 2.8125,0.0937 2.8125,2.92187 0,1.64063 -1.3906,2.59375 -2.375,2.59375 -1.2968,0 -1.9218,-0.64062 -3.5468,-2.84375 z m 0,0"
       style="fill:#000000;fill-opacity:1;fill-rule:nonzero;stroke:none;stroke-width:1.33333" />
    <path
       id="path133"
       d="m 1499.9883,349.14453 c -0.5156,0.17187 -0.8594,0.29687 -1.875,0.57812 -0.1406,1.45313 -0.6094,2.70313 -1.7187,4.53125 l 0.2656,0.21875 0.7812,-0.375 c 1.5469,-2 2.2813,-3.20312 2.8125,-4.67187 z m 0,0"
       style="fill:#000000;fill-opacity:1;fill-rule:nonzero;stroke:none;stroke-width:1.33333" />
    <path
       id="path134"
       d="m 1517.4297,346.92578 c 0.3438,0 0.7031,0 0.7031,-0.40625 0,-0.40625 -0.3593,-0.40625 -0.7031,-0.40625 h -10.7812 c -0.3438,0 -0.7032,0 -0.7032,0.40625 0,0.40625 0.3594,0.40625 0.7032,0.40625 z m 0,0"
       style="fill:#000000;fill-opacity:1;fill-rule:nonzero;stroke:none;stroke-width:1.33333" />
    <path
       id="path135"
       d="m 1521.3047,340.89453 h 0.1875 l 2.4688,-1.10938 c 0.016,-0.0312 0.047,-0.0312 0.062,-0.0312 0.1093,0 0.1562,0.17187 0.1562,0.64062 v 9.26563 c 0,1 -0.2187,1.21875 -1.25,1.26562 l -1.0625,0.0625 v 0.57812 c 2.9375,-0.0625 2.9375,-0.0625 3.1407,-0.0625 0.25,0 0.6718,0 1.3281,0.0156 0.2344,0.0156 0.8906,0.0156 1.6875,0.0469 v -0.57812 l -1,-0.0625 c -1.0469,-0.0469 -1.25,-0.26562 -1.25,-1.26562 v -11.32813 l -0.2656,-0.0937 c -1.2344,0.64062 -2.5938,1.21875 -4.3438,1.82812 z m 0,0"
       style="fill:#000000;fill-opacity:1;fill-rule:nonzero;stroke:none;stroke-width:1.33333" />
    <path
       id="path136"
       d="m 1533,336.55078 h -2.7343 v 0.79687 h 1.9374 v 18.34375 h -1.9374 v 0.79688 H 1533 Z m 0,0"
       style="fill:#000000;fill-opacity:1;fill-rule:nonzero;stroke:none;stroke-width:1.33333" />
    <path
       id="path137"
       d="m 1552.7539,340.30078 c 0,-0.35938 0,-0.71875 -0.4062,-0.71875 -0.3906,0 -0.3906,0.35937 -0.3906,0.71875 v 7.21875 c 0,2.98437 -3.25,3.625 -4.75,3.625 -0.9063,0 -2.1563,-0.17188 -3.2188,-0.85938 -1.5312,-0.96875 -1.5312,-2.25 -1.5312,-2.78125 v -7.20312 c 0,-0.35938 0,-0.71875 -0.3907,-0.71875 -0.4062,0 -0.4062,0.35937 -0.4062,0.71875 v 7.29687 c 0,3.03125 3.0469,4.34375 5.5469,4.34375 2.5937,0 5.5468,-1.39062 5.5468,-4.32812 z m 0,0"
       style="fill:#000000;fill-opacity:1;fill-rule:nonzero;stroke:none;stroke-width:1.33333" />
    <path
       id="path138"
       d="m 1565.7362,356.1148 v -0.79687 h -1.9219 v -18.34375 h 1.9219 v -0.79687 h -2.7188 v 19.93749 z m 0,0"
       style="fill:#000000;fill-opacity:1;fill-rule:nonzero;stroke:none;stroke-width:1.33333" />
    <path
       id="path139"
       d="m 1567.7088,340.52106 h 0.1875 l 2.4688,-1.10938 c 0.016,-0.0312 0.047,-0.0312 0.062,-0.0312 0.1094,0 0.1563,0.17188 0.1563,0.64063 v 9.26562 c 0,1 -0.2188,1.21875 -1.25,1.26562 l -1.0625,0.0625 v 0.57812 c 2.9375,-0.0625 2.9375,-0.0625 3.1406,-0.0625 0.25,0 0.6719,0 1.3281,0.0156 0.2344,0.0156 0.8907,0.0156 1.6875,0.0469 v -0.57813 l -1,-0.0625 c -1.0468,-0.0469 -1.25,-0.26563 -1.25,-1.26563 v -11.32813 l -0.2656,-0.0937 c -1.2344,0.64062 -2.5937,1.21875 -4.3437,1.82812 z m 12.1875,8.25 c -0.5156,0.17187 -0.8593,0.29687 -1.875,0.57812 -0.1406,1.45312 -0.6093,2.70312 -1.7187,4.53125 l 0.2656,0.21875 0.7813,-0.375 c 1.5468,-2 2.2812,-3.20312 2.8125,-4.67188 z m 0,0"
       style="fill:#000000;fill-opacity:1;fill-rule:nonzero;stroke:none;stroke-width:1.33333" />
    <path
       id="path140"
       d="m 1592.4979,345.16168 c -1.625,-2.20312 -2.4219,-3.07812 -4.0156,-3.07812 -1.3906,0 -3.6719,1.26562 -3.6719,4.35937 0,2.3125 1.8125,3.73437 3.5156,3.73437 1.2344,0 2.6719,-0.95312 3.8282,-3.06249 1.6406,2.17187 2.4531,3.06249 4.0312,3.06249 1.4063,0 3.7188,-1.26562 3.7188,-4.35937 0,-2.3125 -1.8594,-3.73437 -3.5625,-3.73437 -1.2344,0 -2.6563,0.96875 -3.8438,3.07812 z m -0.6719,1.4375 c -0.9062,1.53125 -2.0468,2.67188 -3.1093,2.67188 -0.6875,0 -2.8125,-0.0937 -2.8125,-2.92188 0,-1.64062 1.3906,-2.59375 2.375,-2.59375 1.2968,0 1.9218,0.64063 3.5468,2.84375 z m 1.0625,-0.9375 c 0.9063,-1.53125 2.0469,-2.67187 3.1094,-2.67187 0.6875,0 2.8125,0.0937 2.8125,2.92187 0,1.64063 -1.3906,2.59375 -2.375,2.59375 -1.2969,0 -1.9219,-0.64062 -3.5469,-2.84375 z m 0,0"
       style="fill:#000000;fill-opacity:1;fill-rule:nonzero;stroke:none;stroke-width:1.33333" />
    <path
       id="path141"
       d="m 1606.7596,346.14606 c 0,-1.5625 -0.2187,-3.96875 -1.3125,-6.21875 -1.2031,-2.45313 -2.9219,-3.75 -3.125,-3.75 -0.1093,0 -0.1875,0.0781 -0.1875,0.20312 0,0.0625 0,0.0937 0.375,0.45313 1.9531,1.96875 3.0938,5.14062 3.0938,9.3125 0,3.40624 -0.7344,6.92187 -3.2188,9.4375 -0.25,0.23437 -0.25,0.26562 -0.25,0.32812 0,0.125 0.078,0.20312 0.1875,0.20312 0.2031,0 2,-1.35937 3.1719,-3.89062 1.0156,-2.1875 1.2656,-4.40625 1.2656,-6.07812 z m 0,0"
       style="fill:#000000;fill-opacity:1;fill-rule:nonzero;stroke:none;stroke-width:1.33333" />
  </g>
</svg>
