<?xml version="1.0" encoding="UTF-8" standalone="no"?>
<!-- Created with Inkscape (http://www.inkscape.org/) -->

<svg
   version="1.1"
   id="svg1"
   width="200"
   height="28.571426"
   viewBox="0 0 200 28.571426"
   xmlns="http://www.w3.org/2000/svg"
   xmlns:svg="http://www.w3.org/2000/svg">
  <defs
     id="defs1">
    <clipPath
       clipPathUnits="userSpaceOnUse"
       id="clipPath255">
      <rect
         style="fill:#000000;stroke-width:0.994395"
         id="rect255"
         width="200"
         height="28.571426"
         x="1028.5714"
         y="621.42859" />
    </clipPath>
  </defs>
  <g
     id="g89"
     clip-path="url(#clipPath255)"
     style="stroke:#000000;stroke-opacity:1"
     transform="translate(-1028.5714,-621.42859)">
    <g
       id="g149"
       aria-label="y=f(x)=x&#10;1/2&#10;=&#10;√"
       transform="matrix(1.3333333,0,0,1.3333333,1032.8013,640.15867)"
       style="stroke:#000000;stroke-opacity:1">
      <path
         id="path150"
         d="m -0.10588281,2.5792422 c -0.0117188,0.1054687 -0.0117188,0.1875 -0.0117188,0.2578125 0,0.6210937 0.52734375,1.125 1.18359371,1.125 1.5117188,0 3.09375,-1.78125 3.9375,-4.42968751 L 7.0308359,-6.7840391 6.8667734,-6.9129453 c -0.4101562,0.1523437 -0.7382812,0.2460937 -1.0546875,0.2695312 l -0.5039062,1.8984375 c -0.1757813,0.6679688 -0.6796875,1.7226563 -1.1484375,2.4257813 -0.5039063,0.7265625 -1.2070313,1.35937499 -1.5234375,1.35937499 -0.1640625,0 -0.2929688,-0.32812499 -0.28125,-0.69140629 l 0.011719,-0.1875 0.2109375,-2.7773437 c 0.035156,-0.4453125 0.058594,-0.9960938 0.058594,-1.3945313 0,-0.6445312 -0.09375,-0.9023437 -0.3398438,-0.9023437 -0.1875,0 -0.3867187,0.1054687 -1.078125,0.5742187 l -1.17187496,0.8085938 0.15234375,0.2578125 0.71484375,-0.4335938 0.0585938,-0.046875 c 0.14062496,-0.082031 0.24609366,-0.1289062 0.30468746,-0.1289062 0.1992187,0 0.3164062,0.2695312 0.3164062,0.75 0,0.011719 0,0.09375 -0.011719,0.2109375 l -0.2460938,3.4921875 -0.011719,0.57421874 c 0,0.59765625 0.2578125,1.0078125 0.609375,1.0078125 0.5390625,0 1.734375,-1.21875004 2.8125,-2.83593754 l -0.703125,2.44921879 C 3.3159922,2.3097109 2.6011484,3.3526797 1.5933359,3.3526797 c -0.5039062,0 -0.89062496,-0.3867188 -0.89062496,-0.8789063 0,-0.082031 0.0117188,-0.1875 0.0234375,-0.3164062 l -0.140625,-0.058594 z m 0,0"
         style="fill:#000000;fill-opacity:1;fill-rule:nonzero;stroke:#000000;stroke-opacity:1" />
      <path
         id="path151"
         d="m 21.793531,-4.8856016 c 0.222656,0 0.503906,0 0.503906,-0.3046875 0,-0.2929687 -0.28125,-0.2929687 -0.492187,-0.2929687 h -8.953125 c -0.210937,0 -0.503906,0 -0.503906,0.2929687 0,0.3046875 0.292969,0.3046875 0.515625,0.3046875 z m 0.01172,2.8945313 c 0.210937,0 0.492187,0 0.492187,-0.2929688 0,-0.3046875 -0.28125,-0.3046875 -0.503906,-0.3046875 h -8.929687 c -0.222656,0 -0.515625,0 -0.515625,0.3046875 0,0.2929688 0.292969,0.2929688 0.503906,0.2929688 z m 0,0"
         style="fill:#000000;fill-opacity:1;fill-rule:nonzero;stroke:#000000;stroke-opacity:1" />
      <path
         id="path152"
         d="m 33.447828,-5.4949766 c 0.05859,-0.2695312 0.164063,-0.5976562 0.246094,-0.796875 l -0.05859,-0.1054687 -0.105469,0.035156 c -0.339843,0.082031 -0.492187,0.09375 -1.195312,0.09375 h -0.234375 l 0.304687,-1.6054687 c 0.222657,-1.2304688 0.632813,-1.78125 1.289063,-1.78125 0.433594,0 0.820312,0.2226562 1.03125,0.5625 l 0.140625,-0.058594 c 0.07031,-0.2226562 0.222656,-0.6679687 0.328125,-0.960937 l 0.08203,-0.210938 c -0.234375,-0.105468 -0.679687,-0.1875 -1.007812,-0.1875 -0.164063,0 -0.386719,0.03516 -0.503907,0.09375 -0.339843,0.164063 -1.523437,1.0429688 -1.851562,1.3828125 -0.316406,0.3164063 -0.492188,0.75 -0.644531,1.5585938 l -0.210938,1.1367187 c -0.597656,0.28125 -0.878906,0.3984375 -1.242187,0.5273438 l -0.07031,0.3164062 h 1.160156 l -0.128906,0.8085938 c -0.421875,2.7890625 -0.960937,5.46093749 -1.277344,6.4570312 -0.257812,0.84375 -0.679687,1.2890625 -1.195312,1.2890625 -0.339844,0 -0.492188,-0.1054687 -0.75,-0.421875 l -0.199219,0.058594 c -0.05859,0.328125 -0.257812,1.0195312 -0.328125,1.1484375 0.128906,0.070312 0.339844,0.1171875 0.503906,0.1171875 0.585938,0 1.359375,-0.4453125 1.921875,-1.125 0.867188,-1.03125 1.183594,-2.02734376 2.238282,-7.0664063 0.03516,-0.1757812 0.152343,-0.7148437 0.269531,-1.265625 z m 0,0"
         style="fill:#000000;fill-opacity:1;fill-rule:nonzero;stroke:#000000;stroke-opacity:1" />
      <path
         id="path153"
         d="m 40.575758,3.5870547 c 0,-0.046875 0,-0.070312 -0.246094,-0.328125 -1.875,-1.8867188 -2.355469,-4.7109375 -2.355469,-6.9960938 0,-2.6015625 0.574219,-5.203125 2.414063,-7.0781249 0.1875,-0.175781 0.1875,-0.199219 0.1875,-0.246094 0,-0.105469 -0.05859,-0.152344 -0.140625,-0.152344 -0.152344,0 -1.5,1.019532 -2.378906,2.9179692 -0.761719,1.640625 -0.949219,3.3046875 -0.949219,4.5585937 0,1.171875 0.164062,2.97656254 0.996094,4.66406254 0.890625,1.83984376 2.179687,2.81249996 2.332031,2.81249996 0.08203,0 0.140625,-0.046875 0.140625,-0.1523437 z m 0,0"
         style="fill:#000000;fill-opacity:1;fill-rule:nonzero;stroke:#000000;stroke-opacity:1" />
      <path
         id="path154"
         d="m 42.330641,-1.2645078 c 0,0.29296874 -0.03516,0.48046874 -0.117188,0.93749999 -0.03516,0.17578125 -0.04687,0.2109375 -0.05859,0.31640625 0.210938,0.1171875 0.445313,0.1640625 0.621094,0.1640625 0.46875,0 1.03125,-0.41015625 1.476563,-1.08984375 l 1.089843,-1.67578129 0.152344,0.9960938 c 0.1875,1.21874999 0.515625,1.76953124 1.03125,1.76953124 0.316406,0 0.773438,-0.234375 1.242188,-0.65625 L 48.47127,-1.1356016 48.342363,-1.4051328 c -0.527343,0.43359374 -0.878906,0.64453124 -1.113281,0.64453124 -0.210937,0 -0.398437,-0.140625 -0.539062,-0.43359374 -0.128907,-0.2695313 -0.292969,-0.796875 -0.363282,-1.21875 l -0.257812,-1.4414063 0.503906,-0.703125 c 0.679688,-0.9375 1.066406,-1.265625 1.511719,-1.265625 0.222656,0 0.398437,0.1171875 0.46875,0.328125 l 0.199219,-0.058594 0.210937,-1.21875 c -0.164062,-0.09375 -0.292969,-0.140625 -0.421875,-0.140625 -0.574219,0 -1.148437,0.515625 -2.039062,1.8398437 l -0.527344,0.7851563 -0.09375,-0.6914063 c -0.164063,-1.4179687 -0.550781,-1.9335937 -1.40625,-1.9335937 -0.375,0 -0.679688,0.1171875 -0.808594,0.3046875 l -0.832031,1.1835937 0.234375,0.1523438 c 0.433594,-0.4921875 0.726562,-0.6914063 0.996094,-0.6914063 0.46875,0 0.785156,0.5859375 1.03125,1.9921875 l 0.152343,0.890625 -0.574218,0.890625 c -0.609375,0.9609375 -1.101563,1.41796879 -1.5,1.41796879 -0.210938,0 -0.375,-0.0585938 -0.398438,-0.12890625 L 42.611891,-1.2996641 Z m 0,0"
         style="fill:#000000;fill-opacity:1;fill-rule:nonzero;stroke:#000000;stroke-opacity:1" />
      <path
         id="path155"
         d="m 54.025953,-3.7371641 c 0,-1.171875 -0.164062,-2.9765625 -0.984375,-4.6640625 -0.902344,-1.8398434 -2.191406,-2.8125004 -2.34375,-2.8125004 -0.08203,0 -0.140625,0.05859 -0.140625,0.152344 0,0.04687 0,0.07031 0.28125,0.339844 1.464844,1.4765624 2.320313,3.8554687 2.320313,6.9843749 0,2.5546875 -0.550782,5.1914063 -2.414063,7.078125 -0.1875,0.1757813 -0.1875,0.1992188 -0.1875,0.2460938 0,0.09375 0.05859,0.1523437 0.140625,0.1523437 0.152344,0 1.5,-1.0195312 2.378906,-2.91796871 0.761719,-1.640625 0.949219,-3.30468749 0.949219,-4.55859379 z m 16.086914,-1.1484375 c 0.222656,0 0.503906,0 0.503906,-0.3046875 0,-0.2929687 -0.28125,-0.2929687 -0.492187,-0.2929687 h -8.953125 c -0.210938,0 -0.503906,0 -0.503906,0.2929687 0,0.3046875 0.292968,0.3046875 0.515625,0.3046875 z m 0.01172,2.8945313 c 0.210937,0 0.492187,0 0.492187,-0.2929688 0,-0.3046875 -0.28125,-0.3046875 -0.503906,-0.3046875 H 61.18318 c -0.222657,0 -0.515625,0 -0.515625,0.3046875 0,0.2929688 0.292968,0.2929688 0.503906,0.2929688 z m 0,0"
         style="fill:#000000;fill-opacity:1;fill-rule:nonzero;stroke:#000000;stroke-opacity:1" />
      <path
         id="path156"
         d="m 76.356031,-1.2645078 c 0,0.29296874 -0.03516,0.48046874 -0.117187,0.93749999 -0.03516,0.17578125 -0.04687,0.2109375 -0.05859,0.31640625 0.210937,0.1171875 0.445312,0.1640625 0.621094,0.1640625 0.46875,0 1.03125,-0.41015625 1.476562,-1.08984375 l 1.089844,-1.67578129 0.152344,0.9960938 c 0.1875,1.21874999 0.515625,1.76953124 1.03125,1.76953124 0.316406,0 0.773437,-0.234375 1.242187,-0.65625 L 82.496656,-1.1356016 82.36775,-1.4051328 c -0.527344,0.43359374 -0.878906,0.64453124 -1.113281,0.64453124 -0.210938,0 -0.398438,-0.140625 -0.539063,-0.43359374 -0.128906,-0.2695313 -0.292969,-0.796875 -0.363281,-1.21875 l -0.257813,-1.4414063 0.503907,-0.703125 c 0.679687,-0.9375 1.066406,-1.265625 1.511718,-1.265625 0.222657,0 0.398438,0.1171875 0.46875,0.328125 l 0.199219,-0.058594 0.210938,-1.21875 c -0.164063,-0.09375 -0.292969,-0.140625 -0.421875,-0.140625 -0.574219,0 -1.148438,0.515625 -2.039063,1.8398437 l -0.527344,0.7851563 -0.09375,-0.6914063 c -0.164062,-1.4179687 -0.550781,-1.9335937 -1.40625,-1.9335937 -0.375,0 -0.679687,0.1171875 -0.808593,0.3046875 l -0.832032,1.1835937 0.234375,0.1523438 c 0.433594,-0.4921875 0.726563,-0.6914063 0.996094,-0.6914063 0.46875,0 0.785156,0.5859375 1.03125,1.9921875 l 0.152344,0.890625 -0.574219,0.890625 c -0.609375,0.9609375 -1.101562,1.41796879 -1.5,1.41796879 -0.210937,0 -0.375,-0.0585938 -0.398437,-0.12890625 L 76.637281,-1.2996641 Z m 0,0"
         style="fill:#000000;fill-opacity:1;fill-rule:nonzero;stroke:#000000;stroke-opacity:1" />
      <path
         id="path157"
         d="m 84.213453,-10.739117 h 0.09375 l 1.289063,-0.574219 c 0.01172,-0.01172 0.02344,-0.01172 0.03516,-0.01172 0.05859,0 0.07031,0.09375 0.07031,0.328125 v 4.8281253 c 0,0.5273438 -0.105468,0.6328125 -0.644531,0.65625 l -0.550781,0.035156 v 0.3046875 c 1.535156,-0.035156 1.535156,-0.035156 1.640625,-0.035156 0.128906,0 0.351562,0 0.691406,0.011719 0.117188,0.011719 0.457031,0.011719 0.867188,0.023437 v -0.3046875 l -0.515625,-0.035156 c -0.550782,-0.023437 -0.644532,-0.1289062 -0.644532,-0.65625 v -5.9062503 l -0.140625,-0.04687 c -0.644531,0.339844 -1.359375,0.632813 -2.261718,0.960938 z m 9.609375,-1.699219 h -0.597656 l -3.703125,8.4140626 h 0.597656 z m 1.154297,6.9960938 v 0.2695313 c 1.863281,-0.035156 1.863281,-0.035156 2.214844,-0.035156 0.363281,0 0.363281,0 2.285156,0.035156 -0.02344,-0.2109375 -0.02344,-0.3164063 -0.02344,-0.4570313 0,-0.1289062 0,-0.2226562 0.02344,-0.4453125 -1.148438,0.046875 -1.605469,0.058594 -3.445313,0.1054688 L 97.8365,-7.9031797 c 0.972656,-1.0195312 1.265625,-1.5703125 1.265625,-2.3203123 0,-1.136719 -0.773438,-1.851563 -2.039063,-1.851563 -0.714843,0 -1.207031,0.199219 -1.6875,0.703125 l -0.175781,1.347657 h 0.292969 l 0.128906,-0.457032 c 0.152344,-0.574218 0.515625,-0.820312 1.183594,-0.820312 0.855469,0 1.40625,0.539062 1.40625,1.3828123 0,0.75 -0.421875,1.4882813 -1.546875,2.6835938 z m 0,0"
         style="fill:#000000;fill-opacity:1;fill-rule:nonzero;stroke:#000000;stroke-opacity:1" />
      <path
         id="path158"
         d="m 114.73494,-4.8856016 c 0.22265,0 0.5039,0 0.5039,-0.3046875 0,-0.2929687 -0.28125,-0.2929687 -0.49218,-0.2929687 h -8.95313 c -0.21094,0 -0.5039,0 -0.5039,0.2929687 0,0.3046875 0.29296,0.3046875 0.51562,0.3046875 z m 0.0117,2.8945313 c 0.21093,0 0.49218,0 0.49218,-0.2929688 0,-0.3046875 -0.28125,-0.3046875 -0.5039,-0.3046875 h -8.92969 c -0.22266,0 -0.51562,0 -0.51562,0.3046875 0,0.2929688 0.29296,0.2929688 0.5039,0.2929688 z m 0,0"
         style="fill:#000000;fill-opacity:1;fill-rule:nonzero;stroke:#000000;stroke-opacity:1" />
      <path
         id="path159"
         d="m 126.23396,1.8526797 -2.625,-5.8125 c -0.10547,-0.2460938 -0.1875,-0.2460938 -0.22266,-0.2460938 -0.0234,0 -0.0937,0 -0.25781,0.1171875 l -1.41797,1.078125 c -0.19922,0.1523438 -0.19922,0.1992188 -0.19922,0.2460938 0,0.070312 0.0469,0.1640625 0.15235,0.1640625 0.0937,0 0.33984,-0.2109375 0.5039,-0.328125 0.0937,-0.082031 0.31641,-0.2460938 0.48047,-0.3632813 l 2.94141,6.4804688 c 0.10547,0.234375 0.1875,0.234375 0.31641,0.234375 0.22265,0 0.26953,-0.09375 0.375,-0.3046875 l 6.78515,-14.0507817 c 0.10547,-0.210937 0.10547,-0.269531 0.10547,-0.304687 0,-0.140625 -0.11719,-0.292969 -0.29297,-0.292969 -0.11719,0 -0.22265,0.07031 -0.33984,0.316406 z m 0,0"
         style="fill:#000000;fill-opacity:1;fill-rule:nonzero;stroke:#000000;stroke-opacity:1" />
    </g>
    <path
       id="path160"
       d="M 0,0 H 7.919"
       style="fill:none;stroke:#000000;stroke-width:0.588;stroke-linecap:butt;stroke-linejoin:miter;stroke-miterlimit:10;stroke-dasharray:none;stroke-opacity:1"
       transform="matrix(1.3333333,0,0,-1.3333333,1210.2053,625.19067)" />
    <path
       id="path161"
       d="m 0.30483594,-1.2645078 c 0,0.29296874 -0.0351563,0.48046874 -0.1171875,0.93749999 -0.0351563,0.17578125 -0.046875,0.2109375 -0.0585938,0.31640625 0.2109375,0.1171875 0.4453125,0.1640625 0.62109375,0.1640625 0.46874991,0 1.03124991,-0.41015625 1.47656251,-1.08984375 l 1.0898437,-1.67578129 0.1523437,0.9960938 c 0.1875,1.21874999 0.515625,1.76953124 1.03125,1.76953124 0.3164063,0 0.7734375,-0.234375 1.2421875,-0.65625 L 6.4454609,-1.1356016 6.3165547,-1.4051328 c -0.5273438,0.43359374 -0.8789063,0.64453124 -1.1132813,0.64453124 -0.2109375,0 -0.3984375,-0.140625 -0.5390625,-0.43359374 -0.1289062,-0.2695313 -0.2929687,-0.796875 -0.3632812,-1.21875 l -0.2578125,-1.4414063 0.5039062,-0.703125 c 0.6796875,-0.9375 1.0664063,-1.265625 1.5117188,-1.265625 0.2226562,0 0.3984375,0.1171875 0.46875,0.328125 l 0.1992187,-0.058594 0.2109375,-1.21875 c -0.1640625,-0.09375 -0.2929687,-0.140625 -0.421875,-0.140625 -0.5742187,0 -1.1484375,0.515625 -2.0390625,1.8398437 l -0.5273437,0.7851563 -0.09375,-0.6914063 c -0.1640625,-1.4179687 -0.5507813,-1.9335937 -1.40625,-1.9335937 -0.375,0 -0.6796875,0.1171875 -0.8085938,0.3046875 l -0.83203121,1.1835937 0.23437501,0.1523438 c 0.4335937,-0.4921875 0.7265625,-0.6914063 0.9960937,-0.6914063 0.46875,0 0.7851563,0.5859375 1.03125,1.9921875 l 0.1523438,0.890625 -0.5742188,0.890625 c -0.609375,0.9609375 -1.1015625,1.41796879 -1.5,1.41796879 -0.21093746,0 -0.37499996,-0.0585938 -0.39843746,-0.12890625 L 0.58608594,-1.2996641 Z m 0,0"
       style="fill:#000000;fill-opacity:1;fill-rule:nonzero;stroke:#000000;stroke-opacity:1"
       aria-label="x"
       transform="matrix(1.3333333,0,0,1.3333333,1210.7693,640.15867)" />
  </g>
</svg>
