<?xml version="1.0" encoding="UTF-8" standalone="no"?>
<!-- Created with Inkscape (http://www.inkscape.org/) -->

<svg
   version="1.1"
   id="svg1"
   width="194.43515"
   height="28.571426"
   viewBox="0 0 194.43515 28.571426"
   xmlns="http://www.w3.org/2000/svg"
   xmlns:svg="http://www.w3.org/2000/svg">
  <defs
     id="defs1">
    <clipPath
       clipPathUnits="userSpaceOnUse"
       id="clipPath255">
      <rect
         style="fill:#000000;stroke-width:0.980463"
         id="rect255"
         width="194.43515"
         height="28.571426"
         x="1031.8501"
         y="832.35754" />
    </clipPath>
  </defs>
  <g
     id="g89"
     clip-path="url(#clipPath255)"
     style="stroke:#000000;stroke-opacity:1"
     transform="translate(-1031.8501,-832.35754)">
    <path
       id="path175"
       d="M 0,0 H 250.682 V 40.342 H 0 Z"
       style="fill:#ffffff;fill-opacity:1;fill-rule:nonzero;stroke:#000000;stroke-opacity:1"
       transform="matrix(1.3333333,0,0,-1.3333333,1016.6213,872.028)" />
    <g
       id="g175"
       aria-label="y=f(x)=x&#10;1/3&#10;=&#10;3&#10;√"
       transform="matrix(1.3333333,0,0,1.3333333,1032.8013,850.79867)"
       style="stroke:#000000;stroke-opacity:1">
      <path
         id="path176"
         d="m -0.10588281,2.5767812 c -0.0117188,0.1054688 -0.0117188,0.1875 -0.0117188,0.2578125 0,0.6210938 0.52734375,1.125 1.18359371,1.125 1.5117188,0 3.09375,-1.78125 3.9375,-4.42968745 L 7.0308359,-6.7865 6.8667734,-6.9154063 C 6.4566172,-6.7630625 6.1284922,-6.6693125 5.8120859,-6.645875 l -0.5039062,1.8984375 c -0.1757813,0.6679687 -0.6796875,1.7226562 -1.1484375,2.4257812 -0.5039063,0.7265625 -1.2070313,1.35937505 -1.5234375,1.35937505 -0.1640625,0 -0.2929688,-0.32812505 -0.28125,-0.69140625 l 0.011719,-0.1875 0.2109375,-2.7773438 c 0.035156,-0.4453125 0.058594,-0.9960937 0.058594,-1.3945312 0,-0.6445313 -0.09375,-0.9023438 -0.3398438,-0.9023438 -0.1875,0 -0.3867187,0.1054688 -1.078125,0.5742188 L 0.04646144,-5.5325938 0.19880519,-5.2747813 0.91364894,-5.708375 0.97224274,-5.75525 C 1.1128677,-5.837281 1.2183364,-5.8841563 1.2769302,-5.8841563 c 0.1992187,0 0.3164062,0.2695313 0.3164062,0.75 0,0.011719 0,0.09375 -0.011719,0.2109375 l -0.2460938,3.4921875 -0.011719,0.5742188 c 0,0.59765625 0.2578125,1.0078125 0.609375,1.0078125 0.5390625,0 1.734375,-1.21875 2.8125,-2.8359375 l -0.703125,2.44921875 C 3.3159922,2.30725 2.6011484,3.3502187 1.5933359,3.3502187 c -0.5039062,0 -0.89062496,-0.3867187 -0.89062496,-0.8789062 0,-0.082031 0.0117188,-0.1875 0.0234375,-0.3164063 l -0.140625,-0.058594 z m 0,0"
         style="fill:#000000;fill-opacity:1;fill-rule:nonzero;stroke:#000000;stroke-opacity:1" />
      <path
         id="path177"
         d="m 21.793531,-4.8880625 c 0.222656,0 0.503906,0 0.503906,-0.3046875 0,-0.2929688 -0.28125,-0.2929688 -0.492187,-0.2929688 h -8.953125 c -0.210937,0 -0.503906,0 -0.503906,0.2929688 0,0.3046875 0.292969,0.3046875 0.515625,0.3046875 z m 0.01172,2.8945312 c 0.210937,0 0.492187,0 0.492187,-0.2929687 0,-0.3046875 -0.28125,-0.3046875 -0.503906,-0.3046875 h -8.929687 c -0.222656,0 -0.515625,0 -0.515625,0.3046875 0,0.2929687 0.292969,0.2929687 0.503906,0.2929687 z m 0,0"
         style="fill:#000000;fill-opacity:1;fill-rule:nonzero;stroke:#000000;stroke-opacity:1" />
      <path
         id="path178"
         d="m 33.447828,-5.4974375 c 0.05859,-0.2695313 0.164063,-0.5976563 0.246094,-0.796875 l -0.05859,-0.1054688 -0.105469,0.035156 c -0.339843,0.082031 -0.492187,0.09375 -1.195312,0.09375 h -0.234375 l 0.304687,-1.6054688 c 0.222657,-1.2304687 0.632813,-1.78125 1.289063,-1.78125 0.433594,0 0.820312,0.2226563 1.03125,0.5625 l 0.140625,-0.058594 c 0.07031,-0.2226563 0.222656,-0.6679688 0.328125,-0.9609379 l 0.08203,-0.210938 c -0.234375,-0.105468 -0.679687,-0.1875 -1.007812,-0.1875 -0.164063,0 -0.386719,0.03516 -0.503907,0.09375 -0.339843,0.164063 -1.523437,1.0429696 -1.851562,1.3828134 -0.316406,0.3164062 -0.492188,0.75 -0.644531,1.5585937 l -0.210938,1.1367188 c -0.597656,0.28125 -0.878906,0.3984375 -1.242187,0.5273437 l -0.07031,0.3164063 h 1.160156 l -0.128906,0.8085937 c -0.421875,2.7890625 -0.960937,5.46093755 -1.277344,6.4570313 -0.257812,0.84375 -0.679687,1.2890625 -1.195312,1.2890625 -0.339844,0 -0.492188,-0.1054688 -0.75,-0.421875 l -0.199219,0.058594 c -0.05859,0.328125 -0.257812,1.0195313 -0.328125,1.1484375 0.128906,0.070312 0.339844,0.1171875 0.503906,0.1171875 0.585938,0 1.359375,-0.4453125 1.921875,-1.125 0.867188,-1.03125 1.183594,-2.0273437 2.238282,-7.0664062 0.03516,-0.1757813 0.152343,-0.7148438 0.269531,-1.265625 z m 0,0"
         style="fill:#000000;fill-opacity:1;fill-rule:nonzero;stroke:#000000;stroke-opacity:1" />
      <path
         id="path179"
         d="m 40.575758,3.5845937 c 0,-0.046875 0,-0.070312 -0.246094,-0.328125 -1.875,-1.8867187 -2.355469,-4.7109375 -2.355469,-6.9960937 0,-2.6015625 0.574219,-5.203125 2.414063,-7.078125 0.1875,-0.175781 0.1875,-0.199219 0.1875,-0.246094 0,-0.105469 -0.05859,-0.152344 -0.140625,-0.152344 -0.152344,0 -1.5,1.019532 -2.378906,2.9179692 -0.761719,1.640625 -0.949219,3.3046875 -0.949219,4.5585938 0,1.171875 0.164062,2.9765625 0.996094,4.6640625 0.890625,1.8398437 2.179687,2.8125 2.332031,2.8125 0.08203,0 0.140625,-0.046875 0.140625,-0.1523438 z m 0,0"
         style="fill:#000000;fill-opacity:1;fill-rule:nonzero;stroke:#000000;stroke-opacity:1" />
      <path
         id="path180"
         d="m 42.330641,-1.2669688 c 0,0.2929688 -0.03516,0.4804688 -0.117188,0.93750005 -0.03516,0.17578125 -0.04687,0.2109375 -0.05859,0.31640625 C 42.365797,0.104125 42.600172,0.151 42.775953,0.151 c 0.46875,0 1.03125,-0.41015625 1.476563,-1.08984375 l 1.089843,-1.67578125 0.152344,0.9960937 c 0.1875,1.21875005 0.515625,1.7695313 1.03125,1.7695313 0.316406,0 0.773438,-0.234375 1.242188,-0.65625 l 0.703125,-0.6328125 -0.128907,-0.2695313 c -0.527343,0.4335938 -0.878906,0.6445313 -1.113281,0.6445313 -0.210937,0 -0.398437,-0.140625 -0.539062,-0.4335938 -0.128907,-0.2695312 -0.292969,-0.796875 -0.363282,-1.21875 l -0.257812,-1.4414062 0.503906,-0.703125 c 0.679688,-0.9375 1.066406,-1.265625 1.511719,-1.265625 0.222656,0 0.398437,0.1171875 0.46875,0.328125 l 0.199219,-0.058594 0.210937,-1.21875 c -0.164062,-0.09375 -0.292969,-0.140625 -0.421875,-0.140625 -0.574219,0 -1.148437,0.515625 -2.039062,1.8398438 l -0.527344,0.7851562 -0.09375,-0.6914062 c -0.164063,-1.4179688 -0.550781,-1.9335938 -1.40625,-1.9335938 -0.375,0 -0.679688,0.1171875 -0.808594,0.3046875 l -0.832031,1.1835938 0.234375,0.1523437 c 0.433594,-0.4921875 0.726562,-0.6914062 0.996094,-0.6914062 0.46875,0 0.785156,0.5859375 1.03125,1.9921875 l 0.152343,0.890625 -0.574218,0.890625 c -0.609375,0.9609375 -1.101563,1.41796875 -1.5,1.41796875 -0.210938,0 -0.375,-0.0585938 -0.398438,-0.12890625 L 42.611891,-1.302125 Z m 0,0"
         style="fill:#000000;fill-opacity:1;fill-rule:nonzero;stroke:#000000;stroke-opacity:1" />
      <path
         id="path181"
         d="m 54.025953,-3.739625 c 0,-1.171875 -0.164062,-2.9765625 -0.984375,-4.6640625 -0.902344,-1.8398435 -2.191406,-2.8125005 -2.34375,-2.8125005 -0.08203,0 -0.140625,0.05859 -0.140625,0.152344 0,0.04687 0,0.07031 0.28125,0.339844 1.464844,1.4765625 2.320313,3.8554687 2.320313,6.984375 0,2.5546875 -0.550782,5.1914062 -2.414063,7.078125 -0.1875,0.1757812 -0.1875,0.1992187 -0.1875,0.2460937 0,0.09375 0.05859,0.1523438 0.140625,0.1523438 0.152344,0 1.5,-1.0195313 2.378906,-2.91796875 0.761719,-1.640625 0.949219,-3.30468755 0.949219,-4.55859375 z m 16.086914,-1.1484375 c 0.222656,0 0.503906,0 0.503906,-0.3046875 0,-0.2929688 -0.28125,-0.2929688 -0.492187,-0.2929688 h -8.953125 c -0.210938,0 -0.503906,0 -0.503906,0.2929688 0,0.3046875 0.292968,0.3046875 0.515625,0.3046875 z m 0.01172,2.8945312 c 0.210937,0 0.492187,0 0.492187,-0.2929687 0,-0.3046875 -0.28125,-0.3046875 -0.503906,-0.3046875 H 61.18318 c -0.222657,0 -0.515625,0 -0.515625,0.3046875 0,0.2929687 0.292968,0.2929687 0.503906,0.2929687 z m 0,0"
         style="fill:#000000;fill-opacity:1;fill-rule:nonzero;stroke:#000000;stroke-opacity:1" />
      <path
         id="path182"
         d="m 76.356031,-1.2669688 c 0,0.2929688 -0.03516,0.4804688 -0.117187,0.93750005 -0.03516,0.17578125 -0.04687,0.2109375 -0.05859,0.31640625 C 76.391187,0.104125 76.625562,0.151 76.801344,0.151 c 0.46875,0 1.03125,-0.41015625 1.476562,-1.08984375 l 1.089844,-1.67578125 0.152344,0.9960937 c 0.1875,1.21875005 0.515625,1.7695313 1.03125,1.7695313 0.316406,0 0.773437,-0.234375 1.242187,-0.65625 l 0.703125,-0.6328125 -0.128906,-0.2695313 c -0.527344,0.4335938 -0.878906,0.6445313 -1.113281,0.6445313 -0.210938,0 -0.398438,-0.140625 -0.539063,-0.4335938 -0.128906,-0.2695312 -0.292969,-0.796875 -0.363281,-1.21875 l -0.257813,-1.4414062 0.503907,-0.703125 c 0.679687,-0.9375 1.066406,-1.265625 1.511718,-1.265625 0.222657,0 0.398438,0.1171875 0.46875,0.328125 l 0.199219,-0.058594 0.210938,-1.21875 c -0.164063,-0.09375 -0.292969,-0.140625 -0.421875,-0.140625 -0.574219,0 -1.148438,0.515625 -2.039063,1.8398438 l -0.527344,0.7851562 -0.09375,-0.6914062 c -0.164062,-1.4179688 -0.550781,-1.9335938 -1.40625,-1.9335938 -0.375,0 -0.679687,0.1171875 -0.808593,0.3046875 l -0.832032,1.1835938 0.234375,0.1523437 c 0.433594,-0.4921875 0.726563,-0.6914062 0.996094,-0.6914062 0.46875,0 0.785156,0.5859375 1.03125,1.9921875 L 79.274,-3.083375 78.699781,-2.19275 c -0.609375,0.9609375 -1.101562,1.41796875 -1.5,1.41796875 -0.210937,0 -0.375,-0.0585938 -0.398437,-0.12890625 L 76.637281,-1.302125 Z m 0,0"
         style="fill:#000000;fill-opacity:1;fill-rule:nonzero;stroke:#000000;stroke-opacity:1" />
      <path
         id="path183"
         d="m 84.213453,-10.738648 h 0.09375 l 1.289063,-0.574219 c 0.01172,-0.01172 0.02344,-0.01172 0.03516,-0.01172 0.05859,0 0.07031,0.09375 0.07031,0.328125 v 4.8281251 c 0,0.5273437 -0.105468,0.6328125 -0.644531,0.65625 l -0.550781,0.035156 v 0.3046875 c 1.535156,-0.035156 1.535156,-0.035156 1.640625,-0.035156 0.128906,0 0.351562,0 0.691406,0.011719 0.117188,0.011719 0.457031,0.011719 0.867188,0.023437 v -0.3046875 l -0.515625,-0.035156 c -0.550782,-0.023437 -0.644532,-0.1289063 -0.644532,-0.65625 v -5.9062501 l -0.140625,-0.04687 c -0.644531,0.339844 -1.359375,0.632813 -2.261718,0.960938 z m 9.609375,-1.699219 h -0.597656 l -3.703125,8.4140623 h 0.597656 z m 1.423828,2.273437 h 0.304688 l 0.175781,-0.5625 c 0.117187,-0.339843 0.738281,-0.679687 1.253906,-0.679687 0.65625,0 1.183594,0.527344 1.183594,1.160156 0,0.7500001 -0.597656,1.3710938 -1.300781,1.3710938 -0.08203,0 -0.1875,-0.011719 -0.316407,-0.023437 h -0.152343 l -0.117188,0.5273438 0.07031,0.058594 c 0.375,-0.1757812 0.5625,-0.2226562 0.832031,-0.2226562 0.832031,0 1.3125,0.5273437 1.3125,1.4296875 0,1.0195312 -0.609375,1.6875 -1.535156,1.6875 -0.457032,0 -0.867188,-0.1523438 -1.171875,-0.421875 -0.234375,-0.2226563 -0.363282,-0.4570313 -0.550782,-0.9960938 l -0.269531,0.1054688 c 0.210938,0.609375 0.28125,0.9609375 0.351563,1.4648437 0.527343,0.1757813 0.960937,0.2578125 1.324218,0.2578125 0.796875,0 1.722657,-0.4453125 2.261719,-1.1132812 0.339844,-0.4101563 0.515625,-0.84375 0.515625,-1.3125 0,-0.4804688 -0.199219,-0.9023438 -0.5625,-1.1484375 -0.246094,-0.1757813 -0.480469,-0.2578125 -0.972656,-0.3515625 0.796875,-0.6210938 1.089844,-1.0781249 1.089844,-1.6640619 0,-0.890625 -0.738282,-1.476563 -1.839844,-1.476563 -0.679688,0 -1.125,0.1875 -1.605469,0.667969 z m 0,0"
         style="fill:#000000;fill-opacity:1;fill-rule:nonzero;stroke:#000000;stroke-opacity:1" />
      <path
         id="path184"
         d="m 114.73494,-4.8880625 c 0.22265,0 0.5039,0 0.5039,-0.3046875 0,-0.2929688 -0.28125,-0.2929688 -0.49218,-0.2929688 h -8.95313 c -0.21094,0 -0.5039,0 -0.5039,0.2929688 0,0.3046875 0.29296,0.3046875 0.51562,0.3046875 z m 0.0117,2.8945312 c 0.21093,0 0.49218,0 0.49218,-0.2929687 0,-0.3046875 -0.28125,-0.3046875 -0.5039,-0.3046875 h -8.92969 c -0.22266,0 -0.51562,0 -0.51562,0.3046875 0,0.2929687 0.29296,0.2929687 0.5039,0.2929687 z m 0,0"
         style="fill:#000000;fill-opacity:1;fill-rule:nonzero;stroke:#000000;stroke-opacity:1" />
      <path
         id="path185"
         d="m 124.56697,-9.1888438 h 0.24609 l 0.15235,-0.4453125 c 0.082,-0.2695312 0.58593,-0.5390627 0.99609,-0.5390627 0.51563,0 0.9375,0.4218752 0.9375,0.9257815 0,0.5976562 -0.46875,1.1015625 -1.03125,1.1015625 -0.0586,0 -0.15234,-0.011719 -0.25781,-0.023437 h -0.11719 l -0.0937,0.421875 0.0586,0.046875 c 0.30469,-0.140625 0.44532,-0.1757813 0.66797,-0.1757813 0.65625,0 1.04297,0.421875 1.04297,1.1484375 0,0.8085938 -0.49219,1.3476563 -1.23047,1.3476563 -0.36328,0 -0.6914,-0.1171875 -0.92578,-0.3515625 -0.19922,-0.1640625 -0.30469,-0.3515625 -0.44531,-0.7851563 l -0.22266,0.082031 c 0.16407,0.4804687 0.23438,0.7734375 0.28125,1.171875 0.42188,0.140625 0.77344,0.2109375 1.06641,0.2109375 0.64453,0 1.37109,-0.3632813 1.80469,-0.9023438 0.28125,-0.3164062 0.41015,-0.6679687 0.41015,-1.0429687 0,-0.3867188 -0.15234,-0.7265625 -0.44531,-0.9257813 -0.19922,-0.140625 -0.38672,-0.1992187 -0.78516,-0.2695312 0.64454,-0.4921875 0.87891,-0.8671875 0.87891,-1.3359375 0,-0.7031257 -0.58594,-1.1835937 -1.47656,-1.1835937 -0.53906,0 -0.89063,0.152343 -1.27735,0.539062 z m 0,0"
         style="fill:#000000;fill-opacity:1;fill-rule:nonzero;stroke:#000000;stroke-opacity:1" />
      <path
         id="path186"
         d="m 126.23396,1.8531484 -2.625,-5.8125 c -0.10547,-0.2460937 -0.1875,-0.2460937 -0.22266,-0.2460937 -0.0234,0 -0.0937,0 -0.25781,0.1171875 l -1.41797,1.078125 c -0.19922,0.1523437 -0.19922,0.1992187 -0.19922,0.2460937 0,0.070312 0.0469,0.1640625 0.15235,0.1640625 0.0937,0 0.33984,-0.2109375 0.5039,-0.328125 0.0937,-0.082031 0.31641,-0.2460937 0.48047,-0.3632812 l 2.94141,6.4804687 c 0.10547,0.234375 0.1875,0.234375 0.31641,0.234375 0.22265,0 0.26953,-0.09375 0.375,-0.3046875 l 6.78515,-14.0507814 c 0.10547,-0.210937 0.10547,-0.269531 0.10547,-0.304687 0,-0.140625 -0.11719,-0.292969 -0.29297,-0.292969 -0.11719,0 -0.22265,0.07031 -0.33984,0.316406 z m 0,0"
         style="fill:#000000;fill-opacity:1;fill-rule:nonzero;stroke:#000000;stroke-opacity:1" />
    </g>
    <path
       id="path187"
       d="M 0,0 H 7.919"
       style="fill:none;stroke:#000000;stroke-width:0.588;stroke-linecap:butt;stroke-linejoin:miter;stroke-miterlimit:10;stroke-dasharray:none;stroke-opacity:1"
       transform="matrix(1.3333333,0,0,-1.3333333,1210.2053,835.832)" />
    <path
       id="path188"
       d="m 0.30483594,-1.2669688 c 0,0.2929688 -0.0351563,0.4804688 -0.1171875,0.93750005 -0.0351563,0.17578125 -0.046875,0.2109375 -0.0585938,0.31640625 C 0.33999219,0.104125 0.57436719,0.151 0.75014844,0.151 1.2188984,0.151 1.7813984,-0.25915625 2.2267109,-0.93884375 L 3.3165547,-2.614625 3.4688984,-1.6185313 c 0.1875,1.21875005 0.515625,1.7695313 1.03125,1.7695313 0.3164063,0 0.7734375,-0.234375 1.2421875,-0.65625 L 6.4454609,-1.1380625 6.3165547,-1.4075938 C 5.7892109,-0.974 5.4376484,-0.7630625 5.2032734,-0.7630625 c -0.2109375,0 -0.3984375,-0.140625 -0.5390625,-0.4335938 -0.1289062,-0.2695312 -0.2929687,-0.796875 -0.3632812,-1.21875 l -0.2578125,-1.4414062 0.5039062,-0.703125 c 0.6796875,-0.9375 1.0664063,-1.265625 1.5117188,-1.265625 0.2226562,0 0.3984375,0.1171875 0.46875,0.328125 l 0.1992187,-0.058594 0.2109375,-1.21875 c -0.1640625,-0.09375 -0.2929687,-0.140625 -0.421875,-0.140625 -0.5742187,0 -1.1484375,0.515625 -2.0390625,1.8398438 l -0.5273437,0.7851562 -0.09375,-0.6914062 c -0.1640625,-1.4179688 -0.5507813,-1.9335938 -1.40625,-1.9335938 -0.375,0 -0.6796875,0.1171875 -0.8085938,0.3046875 l -0.83203121,1.183594 0.23437501,0.1523437 c 0.4335937,-0.4921875 0.7265625,-0.6914062 0.9960937,-0.6914062 0.46875,0 0.7851563,0.5859375 1.03125,1.9921875 l 0.1523438,0.890625 -0.5742188,0.890625 c -0.609375,0.9609375 -1.1015625,1.41796875 -1.5,1.41796875 -0.21093746,0 -0.37499996,-0.0585938 -0.39843746,-0.12890625 L 0.58608594,-1.302125 Z m 0,0"
       style="fill:#000000;fill-opacity:1;fill-rule:nonzero;stroke:#000000;stroke-opacity:1"
       aria-label="x"
       transform="matrix(1.3333333,0,0,1.3333333,1210.7693,850.79867)" />
  </g>
</svg>
