<?xml version="1.0" encoding="UTF-8" standalone="no"?>
<!-- Created with Inkscape (http://www.inkscape.org/) -->

<svg
   width="159.16341mm"
   height="164.19601mm"
   viewBox="0 0 159.16341 164.19601"
   version="1.1"
   id="svg1"
   inkscape:export-batch-path="Akemicos\Akdemicos-Front\public"
   inkscape:export-batch-name="Reciproca"
   xml:space="preserve"
   inkscape:version="1.4 (86a8ad7, 2024-10-11)"
   sodipodi:docname="Impar.svg"
   xmlns:inkscape="http://www.inkscape.org/namespaces/inkscape"
   xmlns:sodipodi="http://sodipodi.sourceforge.net/DTD/sodipodi-0.dtd"
   xmlns="http://www.w3.org/2000/svg"
   xmlns:svg="http://www.w3.org/2000/svg"><sodipodi:namedview
     id="namedview1"
     pagecolor="#ffffff"
     bordercolor="#000000"
     borderopacity="0.25"
     inkscape:showpageshadow="2"
     inkscape:pageopacity="0.0"
     inkscape:pagecheckerboard="0"
     inkscape:deskcolor="#d1d1d1"
     inkscape:document-units="mm"
     showguides="true"
     inkscape:zoom="0.64"
     inkscape:cx="256.25"
     inkscape:cy="691.40625"
     inkscape:window-width="1440"
     inkscape:window-height="837"
     inkscape:window-x="-8"
     inkscape:window-y="-8"
     inkscape:window-maximized="1"
     inkscape:current-layer="svg1"><inkscape:page
       x="0"
       y="0"
       width="159.16341"
       height="164.196"
       id="page1"
       margin="0"
       bleed="0" /></sodipodi:namedview><defs
     id="defs1"><marker
       style="overflow:visible"
       id="ConcaveTriangle"
       refX="0"
       refY="0"
       orient="auto-start-reverse"
       inkscape:stockid="Concave triangle arrow"
       markerWidth="1"
       markerHeight="1"
       viewBox="0 0 1 1"
       inkscape:isstock="true"
       inkscape:collect="always"
       preserveAspectRatio="xMidYMid"><path
         transform="scale(0.7)"
         d="M -2,-4 9,0 -2,4 c 2,-2.33 2,-5.66 0,-8 z"
         style="fill:context-stroke;fill-rule:evenodd;stroke:none"
         id="path7" /></marker><marker
       style="overflow:visible"
       id="ConcaveTriangle-1"
       refX="0"
       refY="0"
       orient="auto-start-reverse"
       inkscape:stockid="Concave triangle arrow"
       markerWidth="1"
       markerHeight="1"
       viewBox="0 0 1 1"
       inkscape:isstock="true"
       inkscape:collect="always"
       preserveAspectRatio="xMidYMid"><path
         transform="scale(0.7)"
         d="M -2,-4 9,0 -2,4 c 2,-2.33 2,-5.66 0,-8 z"
         style="fill:context-stroke;fill-rule:evenodd;stroke:none"
         id="path7-6" /></marker><clipPath
       clipPathUnits="userSpaceOnUse"
       id="clipPath1"><rect
         style="fill:#000000;stroke-width:0.265917"
         id="rect2"
         width="159.16341"
         height="165.36458"
         x="11.988932"
         y="67.799477" /></clipPath><clipPath
       clipPathUnits="userSpaceOnUse"
       id="clipPath3"><rect
         style="fill:#000000;fill-opacity:1;stroke:#1410a2;stroke-width:1.114;stroke-dasharray:none;stroke-opacity:1"
         id="rect4"
         width="159.57683"
         height="151.30859"
         x="11.988933"
         y="81.442055" /></clipPath></defs><g
     id="g29"
     clip-path="url(#clipPath1)"
     transform="translate(-11.988932,-68.554633)"><path
       style="display:inline;fill:#040404;stroke:#000000;stroke-width:0.840562;stroke-miterlimit:3.7;stroke-dasharray:none;marker-end:url(#ConcaveTriangle)"
       d="m 11.716233,152.19477 145.438337,0.27079"
       id="path1" /><path
       style="display:inline;fill:#040404;stroke:#000000;stroke-width:0.83971;stroke-miterlimit:3.7;stroke-dasharray:none;marker-end:url(#ConcaveTriangle-1)"
       d="M 85.617198,232.72955 85.669932,86.249806"
       id="path1-5" /><text
       xml:space="preserve"
       style="font-style:italic;font-variant:normal;font-weight:normal;font-stretch:normal;font-size:11.2889px;font-family:'Bell MT';-inkscape-font-specification:'Bell MT, Italic';font-variant-ligatures:normal;font-variant-caps:normal;font-variant-numeric:normal;font-variant-east-asian:normal;text-align:start;writing-mode:lr-tb;direction:ltr;text-anchor:start;fill:none;stroke:#000000;stroke-width:0.903999;stroke-miterlimit:3.7;stroke-dasharray:none;stroke-opacity:1"
       x="165.03387"
       y="155.11198"
       id="text2"><tspan
         sodipodi:role="line"
         id="tspan2"
         style="font-style:italic;font-variant:normal;font-weight:normal;font-stretch:normal;font-size:11.2889px;font-family:'Bell MT';-inkscape-font-specification:'Bell MT, Italic';font-variant-ligatures:normal;font-variant-caps:normal;font-variant-numeric:normal;font-variant-east-asian:normal;stroke:#000000;stroke-width:0.904;stroke-opacity:1"
         x="165.03387"
         y="155.11198">x</tspan></text><text
       xml:space="preserve"
       style="font-style:italic;font-variant:normal;font-weight:normal;font-stretch:normal;font-size:11.2889px;font-family:'Bell MT';-inkscape-font-specification:'Bell MT, Italic';font-variant-ligatures:normal;font-variant-caps:normal;font-variant-numeric:normal;font-variant-east-asian:normal;text-align:start;writing-mode:lr-tb;direction:ltr;text-anchor:start;fill:none;stroke:#000000;stroke-width:0.903999;stroke-miterlimit:3.7;stroke-dasharray:none;stroke-opacity:1"
       x="83.674477"
       y="73.752602"
       id="text3"><tspan
         sodipodi:role="line"
         id="tspan3"
         style="stroke-width:0.904"
         x="83.674477"
         y="73.752602">y</tspan></text><path
       style="display:none;fill:none;fill-opacity:1;stroke:#000000;stroke-width:0.623;stroke-miterlimit:3.7;stroke-dasharray:3.73799, 3.73799;stroke-dashoffset:0;stroke-opacity:1"
       d="m 87.149945,112.77663 35.878495,0.33477"
       id="path18" /><path
       style="display:none;fill:none;fill-opacity:1;stroke:#000000;stroke-width:0.735;stroke-miterlimit:3.7;stroke-dasharray:4.40997, 4.40997;stroke-dashoffset:0;stroke-opacity:1"
       d="m 46.567635,190.33095 38.77345,0.33413"
       id="path18-9" /><path
       style="display:none;fill:none;fill-opacity:1;stroke:#000000;stroke-width:0.738;stroke-miterlimit:3.7;stroke-dasharray:2.21401, 2.21401;stroke-dashoffset:0;stroke-opacity:1"
       d="m 124.30349,114.16155 0.25194,38.67937"
       id="path18-4" /><path
       style="display:none;fill:none;fill-opacity:1;stroke:#000000;stroke-width:0.744;stroke-miterlimit:3.7;stroke-dasharray:2.23201, 2.23201;stroke-dashoffset:0;stroke-opacity:1"
       d="m 44.92105,152.75428 0.251806,39.62471"
       id="path18-4-8"
       sodipodi:insensitive="true" /><text
       xml:space="preserve"
       style="font-style:italic;font-variant:normal;font-weight:normal;font-stretch:normal;font-size:11.2889px;font-family:'Bell MT';-inkscape-font-specification:'Bell MT, Italic';font-variant-ligatures:normal;font-variant-caps:normal;font-variant-numeric:normal;font-variant-east-asian:normal;text-align:start;writing-mode:lr-tb;direction:ltr;text-anchor:start;display:none;fill:none;fill-opacity:1;stroke:#000000;stroke-width:0.74;stroke-miterlimit:3.7;stroke-dasharray:none;stroke-dashoffset:0;stroke-opacity:1"
       x="32.000282"
       y="159.42038"
       id="text19"><tspan
         sodipodi:role="line"
         id="tspan19"
         style="stroke-width:0.74"
         x="0"
         y="0">-x</tspan></text><text
       xml:space="preserve"
       style="font-style:italic;font-variant:normal;font-weight:normal;font-stretch:normal;font-size:11.2889px;font-family:'Bell MT';-inkscape-font-specification:'Bell MT, Italic';font-variant-ligatures:normal;font-variant-caps:normal;font-variant-numeric:normal;font-variant-east-asian:normal;text-align:start;writing-mode:lr-tb;direction:ltr;text-anchor:start;display:none;fill:none;fill-opacity:1;stroke:#000000;stroke-width:0.74;stroke-miterlimit:3.7;stroke-dasharray:none;stroke-dashoffset:0;stroke-opacity:1"
       x="123.58767"
       y="159.88968"
       id="text20"><tspan
         sodipodi:role="line"
         id="tspan20"
         style="stroke-width:0.74"
         x="0"
         y="0">x</tspan></text><text
       xml:space="preserve"
       style="font-style:italic;font-variant:normal;font-weight:normal;font-stretch:normal;font-size:6.53616px;font-family:'Bell MT';-inkscape-font-specification:'Bell MT, Italic';font-variant-ligatures:normal;font-variant-caps:normal;font-variant-numeric:normal;font-variant-east-asian:normal;text-align:start;writing-mode:lr-tb;direction:ltr;text-anchor:start;display:none;fill:#21d13f;fill-opacity:1;stroke:#000000;stroke-width:0.428452;stroke-miterlimit:3.7;stroke-dasharray:none;stroke-dashoffset:0;stroke-opacity:1"
       x="100.16401"
       y="219.06308"
       id="text21"
       transform="scale(1.0448385,0.95708572)"><tspan
         sodipodi:role="line"
         id="tspan21"
         style="stroke-width:0.428452"
         x="0"
         y="0">f(-x) = - f(x)</tspan></text><ellipse
       style="display:none;fill:#21d13f;fill-opacity:1;stroke:#000000;stroke-width:0.74;stroke-miterlimit:3.7;stroke-dasharray:none;stroke-dashoffset:0;stroke-opacity:1"
       id="path21"
       cx="85.900192"
       cy="112.98424"
       rx="2.1452703"
       ry="1.6089526" /><ellipse
       style="display:none;fill:#21d13f;fill-opacity:1;stroke:#000000;stroke-width:0.74;stroke-miterlimit:3.7;stroke-dasharray:none;stroke-dashoffset:0;stroke-opacity:1"
       id="path21-0"
       cx="85.511757"
       cy="190.67647"
       rx="2.1452703"
       ry="1.6089526" /><path
       style="display:none;fill:none;fill-opacity:1;stroke:#000000;stroke-width:0.74;stroke-miterlimit:3.7;stroke-dasharray:none;stroke-dashoffset:0;stroke-opacity:1"
       d="M 150.97339,118.52618 Z"
       id="path23" /><g
       id="g4"
       clip-path="url(#clipPath5)"
       transform="matrix(0.26301141,0,0,0.17346634,-27.25473,94.686589)"
       style="display:none;stroke:#1311a1;stroke-width:5.21543;stroke-dasharray:none;stroke-opacity:1"><path
         fill="none"
         stroke="#006400"
         paint-order="fill stroke markers"
         d="m 236.80704,741 h 5.23551 L 243,734.6631 v 0 l 1,-6.54672 v 0 l 1,-6.4753 v 0 l 1,-6.40425 v 0 l 1,-6.33362 v 0 l 1,-6.26336 v 0 l 1,-6.1935 v 0 l 1,-6.12403 v 0 l 1,-6.05496 v 0 l 1,-5.98627 v 0 l 1,-5.91797 v 0 l 1,-5.85008 v 0 l 1,-5.78256 v 0 l 1,-5.71545 v 0 l 1,-5.64872 v 0 l 1,-5.58239 v 0 l 1,-5.51644 v 0 l 1,-5.45089 v 0 l 1,-5.38574 v 0 l 1,-5.32096 v 0 l 1,-5.25659 v 0 l 1,-5.19261 v 0 l 1,-5.12902 v 0 l 1,-5.06581 v 0 l 1,-5.00301 v 0 l 1,-4.94059 v 0 l 1,-4.87857 v 0 l 1,-4.81693 v 0 l 1,-4.75569 v 0 l 1,-4.69484 v 0 l 1,-4.63439 v 0 l 1,-4.57432 v 0 l 1,-4.51464 v 0 l 1,-4.45536 v 0 l 1,-4.39648 v 0 l 1,-4.33797 v 0 l 1,-4.27987 v 0 l 1,-4.22215 v 0 l 1,-4.16483 v 0 l 1,-4.1079 v 0 l 1,-4.05136 v 0 l 1,-3.99521 v 0 l 1,-3.93945 v 0 l 1,-3.8841 v 0 l 1,-3.82911 v 0 l 1,-3.77454 v 0 l 1,-3.72035 v 0 l 1,-3.66655 v 0 l 1,-3.61315 v 0 l 1,-3.56013 v 0 l 1,-3.50752 v 0 l 1,-3.45528 v 0 l 1,-3.40344 v 0 l 1,-3.352 v 0 l 1,-3.30095 v 0 l 1,-3.25028 v 0 l 1,-3.20001 v 0 l 1,-3.15013 v 0 l 1,-3.10064 v 0 l 1,-3.05155 v 0 l 1,-3.00285 v 0 l 1,-2.95453 v 0 l 1,-2.90661 v 0 l 1,-2.85909 v 0 l 1,-2.81195 v 0 l 1,-2.7652 v 0 l 1,-2.71885 v 0 l 1,-2.67289 v 0 l 1,-2.62732 v 0 l 1,-2.58215 v 0 l 1,-2.53736 v 0 l 1,-2.49296 v 0 l 1,-2.44896 v 0 l 1,-2.40536 v 0 l 1,-2.36213 v 0 l 1,-2.31931 v 0 l 1,-2.27687 v 0 l 1,-2.23483 v 0 l 1,-2.19317 v 0 l 1,-2.15192 v 0 l 1,-2.11105 v 0 l 1,-2.07058 v 0 l 1,-2.03049 v 0 l 1,-1.9908 v 0 l 1,-1.95149 v 0 l 1,-1.91259 v 0 l 1,-1.87408 v 0 l 1,-1.83594 v 0 l 1,-1.79822 v 0 l 1,-1.76087 v 0 l 1,-1.72392 v 0 l 1,-1.68737 v 0 l 1,-1.6512 v 0 l 1,-1.61542 v 0 l 1,-1.58004 v 0 l 1,-1.54505 v 0 l 1,-1.51046 v 0 l 1,-1.47624 v 0 l 1,-1.44243 v 0 l 1,-1.40901 v 0 l 1,-1.37597 v 0 l 1,-1.34334 v 0 l 1,-1.31108 v 0 l 1,-1.27923 v 0 l 1,-1.24777 v 0 l 1,-1.21669 v 0 l 1,-1.18601 v 0 l 1,-1.15573 v 0 l 1,-1.12582 v 0 l 1,-1.09632 v 0 l 1,-1.06721 v 0 l 1,-1.03848 v 0 l 1,-1.01015 v 0 l 1,-0.98222 v 0 l 1,-0.95467 v 0 l 1,-0.92751 v 0 l 1,-0.90075 v 0 l 1,-0.87438 v 0 l 1,-0.84841 v 0 l 1,-0.82281 v 0 l 1,-0.79762 v 0 l 1,-0.77281 v 0 l 1,-0.7484 v 0 l 1,-0.72438 v 0 l 1,-0.70075 v 0 l 1,-0.67752 v 0 l 1,-0.65467 v 0 l 1,-0.63221 v 0 l 1,-0.61016 v 0 l 1,-0.58849 v 0 l 1,-0.5672 v 0 l 1,-0.54633 v 0 l 1,-0.52582 v 0 l 1,-0.50573 v 0 l 1,-0.48601 v 0 l 1,-0.4667 v 0 l 1,-0.44777 v 0 l 1,-0.42923 v 0 l 1,-0.41109 v 0 l 1,-0.39334 v 0 l 1,-0.37598 v 0 l 1,-0.35901 v 0 l 1,-0.34243 v 0 l 1,-0.32625 v 0 l 1,-0.31046 v 0 l 1,-0.29506 v 0 l 1,-0.28005 v 0 l 1,-0.26543 v 0 l 1,-0.2512 v 0 l 1,-0.23737 v 0 l 1,-0.22393 v 0 l 1,-0.21088 v 0 l 1,-0.19822 v 0 l 1,-0.18595 v 0 l 1,-0.17408 v 0 l 1,-0.1626 v 0 l 1,-0.1515 v 0 l 1,-0.14081 v 0 l 1,-0.1305 v 0 l 1,-0.12058 v 0 l 1,-0.11106 v 0 l 1,-0.10193 v 0 l 1,-0.0932 v 0 l 1,-0.0848 v 0 l 1,-0.0769 v 0 l 1,-0.0693 v 0 l 1,-0.0621 v 0 l 1,-0.0554 v 0 l 1,-0.049 v 0 l 1,-0.043 v 0 l 1,-0.0374 v 0 l 1,-0.0322 v 0 l 1,-0.0273 v 0 l 1,-0.0229 v 0 l 1,-0.0189 v 0 l 1,-0.0152 v 0 l 1,-0.012 v 0 l 1,-0.009 v 0 l 1,-0.007 v 0 l 1,-0.005 v 0 l 1,-0.003 v 0 l 1,-0.002 v 0 l 1,-6.5e-4 v 0 l 1,-1.5e-4 v 0 l 1,-2e-5 v 0 l 1,-3e-4 v 0 l 1,-9.5e-4 v 0 l 1,-0.002 v 0 l 1,-0.003 v 0 l 1,-0.005 v 0 l 1,-0.008 v 0 l 1,-0.0101 v 0 l 1,-0.0132 v 0 l 1,-0.0166 v 0 l 1,-0.0204 v 0 l 1,-0.0245 v 0 l 1,-0.0291 v 0 l 1,-0.0341 v 0 l 1,-0.0395 v 0 l 1,-0.0452 v 0 l 1,-0.0514 v 0 l 1,-0.0579 v 0 l 1,-0.0649 v 0 l 1,-0.0722 v 0 l 1,-0.0799 v 0 l 1,-0.088 v 0 l 1,-0.0965 v 0 l 1,-0.10538 v 0 l 1,-0.11467 v 0 l 1,-0.12433 v 0 l 1,-0.13441 v 0 l 1,-0.14486 v 0 l 1,-0.15571 v 0 l 1,-0.16695 v 0 l 1,-0.17859 v 0 l 1,-0.19061 v 0 l 1,-0.20302 v 0 l 1,-0.21584 v 0 l 1,-0.22903 v 0 l 1,-0.24263 v 0 l 1,-0.25661 v 0 l 1,-0.27099 v 0 l 1,-0.28575 v 0 l 1,-0.30092 v 0 l 1,-0.31646 v 0 l 1,-0.33241 v 0 l 1,-0.34874 v 0 l 1,-0.36547 v 0 l 1,-0.38259 v 0 l 1,-0.40009 v 0 l 1,-0.418 v 0 l 1,-0.43629 v 0 l 1,-0.45498 v 0 l 1,-0.47406 v 0 l 1,-0.49352 v 0 l 1,-0.51339 v 0 l 1,-0.53363 v 0 l 1,-0.55429 v 0 l 1,-0.57531 v 0 l 1,-0.59675 v 0 l 1,-0.61857 v 0 l 1,-0.64077 v 0 l 1,-0.66339 v 0 l 1,-0.68637 v 0 l 1,-0.70976 v 0 l 1,-0.73355 v 0 l 1,-0.75771 v 0 l 1,-0.78227 v 0 l 1,-0.80723 v 0 l 1,-0.83258 v 0 l 1,-0.85831 v 0 l 1,-0.88445 v 0 l 1,-0.91096 v 0 l 1,-0.93788 v 0 l 1,-0.96518 v 0 l 1,-0.99288 v 0 l 1,-1.02097 v 0 l 1,-1.04944 v 0 l 1,-1.07832 v 0 l 1,-1.10759 v 0 l 1,-1.13724 v 0 l 1,-1.16728 v 0 l 1,-1.19773 v 0 l 1,-1.22856 v 0 l 1,-1.25978 v 0 l 1,-1.29139 v 0 l 1,-1.32341 v 0 l 1,-1.3558 v 0 l 1,-1.38859 v 0 l 1,-1.42177 v 0 l 1,-1.45535 v 0 l 1,-1.48931 v 0 l 1,-1.52367 v 0 l 1,-1.55841 v 0 l 1,-1.59356 v 0 l 1,-1.62909 v 0 l 1,-1.66502 v 0 l 1,-1.70133 v 0 l 1,-1.73804 v 0 l 1,-1.77514 v 0 l 1,-1.81264 v 0 l 1,-1.85051 v 0 l 1,-1.88879 v 0 l 1,-1.92746 v 0 l 1,-1.96652 v 0 l 1,-2.00596 v 0 l 1,-2.04581 v 0 l 1,-2.08605 v 0 l 1,-2.12667 v 0 l 1,-2.16769 v 0 l 1,-2.20909 v 0 l 1,-2.2509 v 0 l 1,-2.2931 v 0 l 1,-2.33567 v 0 l 1,-2.37866 v 0 l 1,-2.42202 v 0 l 1,-2.46578 v 0 l 1,-2.50994 v 0 l 1,-2.55448 v 0 l 1,-2.59941 v 0 l 1,-2.64475 v 0 l 1,-2.69046 v 0 l 1,-2.73657 v 0 l 1,-2.78308 v 0 l 1,-2.82997 v 0 l 1,-2.87726 v 0 l 1,-2.92494 v 0 l 1,-2.973 v 0 l 1,-3.02147 v 0 l 1,-3.07032 v 0 l 1,-3.11957 v 0 l 1,-3.16921 v 0 l 1,-3.21923 v 0 l 1,-3.26966 v 0 l 1,-3.32047 v 0 l 1,-3.37167 v 0 l 1,-3.42327 v 0 l 1,-3.47526 v 0 l 1,-3.52763 v 0 l 1,-3.58041 v 0 l 1,-3.63357 v 0 l 1,-3.68713 v 0 l 1,-3.74108 v 0 l 1,-3.79541 v 0 l 1,-3.85015 v 0 l 1,-3.90526 v 0 l 1,-3.96079 v 0 l 1,-4.01668 v 0 l 1,-4.07299 v 0 l 1,-4.12968 v 0 l 1,-4.18675 v 0 l 1,-4.24423 v 0 l 1,-4.3021 v 0 l 1,-4.36035 v 0 l 1,-4.419 v 0 l 1,-4.47804 v 0 l 1,-4.537478 v 0 l 1,-4.597299 v 0 l 1,-4.657514 v 0 l 1,-4.718121 v 0 l 1,-4.779121 v 0 l 1,-4.840513 v 0 l 1,-4.902295 v 0 l 1,-4.964471 v 0 l 1,-5.027037 v 0 l 1,-5.089995 v 0 l 1,-5.153346 v 0 l 1,-5.217088 v 0 l 1,-5.281222 v 0 l 1,-5.345747 v 0 l 1,-5.410665 v 0 l 1,-5.475974 v 0 l 1,-5.541676 v 0 l 1,-5.607768 v 0 l 1,-5.6742523 v 0 l 1,-5.7411291 v 0 l 1,-5.8083974 v 0 l 1,-5.8760574 v 0 L 600.0465,-10"
         stroke-opacity="0.698039"
         stroke-linecap="round"
         stroke-linejoin="round"
         stroke-miterlimit="10"
         stroke-width="2.5"
         id="path2"
         style="stroke:#1311a1;stroke-width:5.21543;stroke-dasharray:none;stroke-opacity:1" /><text
         fill="#006400"
         stroke="none"
         font-family="geogebra-sans-serif, sans-serif"
         font-size="16px"
         font-style="normal"
         font-weight="normal"
         text-decoration="normal"
         x="244"
         y="721"
         text-anchor="start"
         dominant-baseline="alphabetic"
         fill-opacity="1"
         id="text2-7"
         style="stroke:#1311a1;stroke-width:5.21543;stroke-dasharray:none;stroke-opacity:1">f</text><text
         fill="none"
         stroke="#ffffff"
         font-family="geogebra-sans-serif, sans-serif"
         font-size="16px"
         font-style="normal"
         font-weight="normal"
         text-decoration="normal"
         x="244"
         y="721"
         text-anchor="start"
         dominant-baseline="alphabetic"
         stroke-opacity="1"
         stroke-linejoin="bevel"
         stroke-miterlimit="10"
         stroke-width="3"
         id="text3-7"
         style="stroke:#1311a1;stroke-width:5.21543;stroke-dasharray:none;stroke-opacity:1">f</text></g><text
       xml:space="preserve"
       style="font-style:italic;font-variant:normal;font-weight:normal;font-stretch:normal;font-size:18.5223px;font-family:'Bell MT';-inkscape-font-specification:'Bell MT, Italic';font-variant-ligatures:normal;font-variant-caps:normal;font-variant-numeric:normal;font-variant-east-asian:normal;text-align:start;writing-mode:lr-tb;direction:ltr;text-anchor:start;display:none;fill:none;fill-opacity:1;stroke:#000000;stroke-width:1.428;stroke-miterlimit:3.7;stroke-dasharray:none;stroke-dashoffset:0;stroke-opacity:1"
       x="193.21898"
       y="84.051689"
       id="text27"
       transform="scale(0.46803391,2.1365973)"><tspan
         sodipodi:role="line"
         id="tspan27"
         style="fill:none;stroke:#000000;stroke-width:1.428;stroke-dasharray:none;stroke-opacity:1"
         x="0"
         y="0">}</tspan></text><text
       xml:space="preserve"
       style="font-style:italic;font-variant:normal;font-weight:normal;font-stretch:normal;font-size:11.2889px;font-family:'Bell MT';-inkscape-font-specification:'Bell MT, Italic';font-variant-ligatures:normal;font-variant-caps:normal;font-variant-numeric:normal;font-variant-east-asian:normal;text-align:start;writing-mode:lr-tb;direction:ltr;text-anchor:start;display:none;fill:none;fill-opacity:1;stroke:#000000;stroke-width:0.628;stroke-miterlimit:3.7;stroke-dasharray:none;stroke-dashoffset:0;stroke-opacity:1"
       x="95.911461"
       y="173.63281"
       id="text28"><tspan
         sodipodi:role="line"
         id="tspan28"
         style="stroke-width:0.628;stroke-dasharray:none"
         x="0"
         y="0"> d</tspan></text><text
       xml:space="preserve"
       style="font-style:italic;font-variant:normal;font-weight:normal;font-stretch:normal;font-size:11.2889px;font-family:'Bell MT';-inkscape-font-specification:'Bell MT, Italic';font-variant-ligatures:normal;font-variant-caps:normal;font-variant-numeric:normal;font-variant-east-asian:normal;text-align:start;writing-mode:lr-tb;direction:ltr;text-anchor:start;display:none;fill:none;fill-opacity:1;stroke:#000000;stroke-width:0.628;stroke-miterlimit:3.7;stroke-dasharray:none;stroke-dashoffset:0;stroke-opacity:1"
       x="63.764385"
       y="136.31535"
       id="text28-0"><tspan
         sodipodi:role="line"
         id="tspan28-2"
         style="stroke-width:0.628;stroke-dasharray:none"
         x="0"
         y="0"> d</tspan></text><text
       xml:space="preserve"
       style="font-style:italic;font-variant:normal;font-weight:normal;font-stretch:normal;font-size:19.6539px;font-family:'Bell MT';-inkscape-font-specification:'Bell MT, Italic';font-variant-ligatures:normal;font-variant-caps:normal;font-variant-numeric:normal;font-variant-east-asian:normal;text-align:start;writing-mode:lr-tb;direction:ltr;text-anchor:start;display:none;fill:none;fill-opacity:1;stroke:#000000;stroke-width:1.29227;stroke-miterlimit:3.7;stroke-dasharray:none;stroke-dashoffset:0;stroke-opacity:1"
       x="152.78999"
       y="68.391472"
       id="text29"
       transform="scale(0.48765236,2.0506412)"><tspan
         sodipodi:role="line"
         id="tspan29"
         style="stroke-width:1.29227;stroke-dasharray:none"
         x="0"
         y="0">{</tspan></text><path
       style="display:none;fill:none;fill-opacity:1;stroke:#000000;stroke-width:1.1115;stroke-miterlimit:3.7;stroke-dasharray:none;stroke-dashoffset:0;stroke-opacity:1;marker-end:url(#ConcaveTriangle-1)"
       d="m 87.031301,193.76324 c 0,0 0.290791,9.48144 9.596168,11.63633"
       id="path29" /><path
       fill="none"
       stroke="#006400"
       paint-order="fill stroke markers"
       d="m -51.907941,153.81599 v 0.002 0 l 0.264584,0.002 v 0 l 0.264583,0.002 v 0 l 0.264583,0.002 v 0 l 0.264584,0.002 v 0 l 0.264583,0.002 v 0 l 0.264583,0.002 v 0 l 0.264584,0.002 v 0 l 0.264583,0.002 v 0 l 0.264583,0.003 v 0 l 0.264584,0.003 v 0 l 0.264583,0.003 v 0 l 0.264583,0.003 v 0 l 0.264584,0.003 v 0 l 0.264583,0.003 v 0 l 0.264583,0.003 v 0 l 0.264584,0.003 v 0 l 0.264583,0.003 v 0 l 0.264583,0.003 v 0 l 0.264584,0.003 v 0 l 0.264583,0.003 v 0 l 0.264583,0.003 v 0 l 0.264584,0.003 v 0 l 0.264583,0.003 v 0 l 0.264583,0.003 v 0 l 0.264584,0.003 v 0 l 0.264583,0.003 v 0 l 0.264583,0.003 v 0 l 0.264584,0.003 v 0 l 0.264583,0.003 v 0 l 0.264583,0.003 v 0 l 0.264584,0.003 v 0 l 0.264583,0.003 v 0 l 0.264583,0.003 v 0 l 0.264584,0.003 v 0 l 0.264583,0.003 v 0 l 0.264583,0.003 v 0 l 0.264583,0.003 v 0 l 0.264584,0.003 v 0 l 0.264583,0.003 v 0 l 0.264583,0.003 v 0 l 0.264584,0.003 v 0 l 0.264583,0.003 v 0 l 0.264583,0.003 v 0 l 0.264584,0.003 v 0 l 0.264583,0.003 v 0 l 0.264583,0.003 v 0 l 0.264584,0.003 v 0 l 0.264583,0.003 v 0 l 0.264583,0.003 v 0 l 0.264584,0.003 v 0 l 0.264583,0.003 v 0 l 0.264583,0.003 v 0 l 0.264584,0.003 v 0 l 0.264583,0.003 v 0 l 0.264583,0.003 v 0 l 0.264584,0.003 v 0 l 0.264583,0.003 v 0 l 0.264583,0.003 v 0 l 0.264584,0.003 v 0 l 0.264583,0.003 v 0 l 0.264583,0.003 v 0 l 0.264584,0.003 v 0 l 0.264583,0.003 v 0 l 0.264583,0.003 v 0 l 0.264584,0.003 v 0 l 0.264583,0.003 v 0 l 0.264583,0.003 v 0 l 0.264584,0.003 v 0 l 0.264583,0.003 v 0 l 0.264583,0.003 v 0 l 0.264584,0.003 v 0 l 0.264583,0.003 v 0 l 0.264583,0.003 v 0 l 0.264584,0.003 v 0 l 0.264583,0.003 v 0 l 0.264583,0.003 v 0 l 0.264584,0.003 v 0 l 0.264583,0.003 v 0 l 0.264583,0.003 v 0 l 0.264584,0.003 v 0 l 0.264583,0.003 v 0 l 0.264583,0.003 v 0 l 0.264584,0.003 v 0 l 0.264583,0.003 v 0 l 0.264583,0.003 v 0 l 0.264584,0.003 v 0 l 0.264583,0.003 v 0 l 0.264583,0.004 v 0 l 0.264584,0.004 v 0 l 0.264583,0.004 v 0 l 0.264583,0.004 v 0 l 0.264584,0.004 v 0 l 0.264583,0.004 v 0 l 0.264583,0.004 v 0 l 0.264584,0.004 v 0 l 0.264583,0.004 v 0 l 0.264583,0.004 v 0 l 0.264584,0.004 v 0 l 0.264583,0.004 v 0 l 0.264583,0.004 v 0 l 0.264584,0.004 v 0 l 0.264583,0.004 v 0 l 0.264583,0.004 v 0 l 0.264584,0.004 v 0 l 0.264583,0.004 v 0 l 0.264583,0.004 v 0 l 0.264584,0.004 v 0 l 0.264583,0.004 v 0 l 0.264583,0.004 v 0 l 0.264584,0.004 v 0 l 0.264583,0.004 v 0 l 0.264583,0.004 v 0 l 0.264584,0.004 v 0 l 0.264583,0.004 v 0 l 0.264583,0.004 v 0 l 0.264584,0.004 v 0 l 0.264583,0.004 v 0 l 0.264583,0.004 v 0 l 0.264584,0.004 v 0 l 0.264583,0.004 v 0 l 0.264583,0.004 v 0 l 0.264584,0.004 v 0 l 0.264583,0.004 v 0 l 0.264583,0.004 v 0 l 0.264584,0.004 v 0 l 0.264583,0.004 v 0 l 0.264583,0.004 v 0 l 0.264584,0.004 v 0 l 0.264583,0.004 v 0 l 0.264583,0.004 v 0 l 0.264584,0.004 v 0 l 0.264583,0.004 v 0 l 0.264583,0.004 v 0 l 0.264584,0.004 v 0 l 0.264583,0.004 v 0 l 0.264583,0.004 v 0 l 0.264583,0.004 v 0 l 0.264584,0.005 v 0 l 0.264583,0.005 v 0 l 0.264583,0.005 v 0 l 0.264584,0.005 v 0 l 0.264583,0.005 v 0 l 0.264583,0.005 v 0 l 0.264584,0.005 v 0 l 0.264583,0.005 v 0 l 0.264583,0.005 v 0 l 0.264584,0.005 v 0 l 0.264583,0.005 v 0 l 0.264583,0.005 v 0 l 0.264584,0.005 v 0 l 0.264583,0.005 v 0 l 0.264583,0.005 v 0 l 0.264584,0.005 v 0 l 0.264583,0.005 v 0 l 0.264583,0.005 v 0 l 0.264584,0.005 v 0 l 0.264583,0.005 v 0 l 0.264583,0.005 v 0 l 0.2645838,0.005 v 0 l 0.2645833,0.005 v 0 l 0.2645833,0.005 v 0 l 0.2645833,0.005 v 0 l 0.2645834,0.005 v 0 l 0.2645833,0.005 v 0 l 0.2645833,0.005 v 0 l 0.2645834,0.005 v 0 l 0.2645833,0.005 v 0 l 0.2645833,0.005 v 0 l 0.2645834,0.005 v 0 l 0.2645833,0.005 v 0 l 0.2645833,0.005 v 0 l 0.2645833,0.005 v 0 l 0.2645834,0.005 v 0 l 0.2645833,0.005 v 0 l 0.2645833,0.006 v 0 l 0.2645834,0.006 v 0 l 0.2645833,0.006 v 0 l 0.2645833,0.006 v 0 l 0.2645834,0.006 v 0 l 0.2645833,0.006 v 0 l 0.2645833,0.006 v 0 l 0.2645833,0.006 v 0 l 0.2645834,0.006 v 0 l 0.2645833,0.006 v 0 l 0.2645833,0.006 v 0 l 0.2645834,0.006 v 0 l 0.2645833,0.006 v 0 l 0.2645833,0.006 v 0 l 0.2645834,0.006 v 0 l 0.2645833,0.006 v 0 l 0.2645833,0.006 v 0 l 0.2645833,0.006 v 0 l 0.26458338,0.006 v 0 l 0.26458333,0.006 v 0 l 0.26458333,0.006 v 0 l 0.26458333,0.006 v 0 l 0.26458333,0.006 v 0 l 0.26458333,0.006 v 0 l 0.26458333,0.006 v 0 l 0.26458334,0.006 v 0 l 0.2645833,0.006 v 0 l 0.2645833,0.006 v 0 l 0.2645834,0.007 v 0 l 0.2645833,0.007 v 0 l 0.2645833,0.007 v 0 l 0.2645834,0.007 v 0 l 0.2645833,0.007 v 0 l 0.2645833,0.007 v 0 l 0.2645834,0.007 v 0 l 0.2645833,0.007 v 0 l 0.2645833,0.007 v 0 l 0.2645833,0.007 v 0 l 0.2645834,0.007 v 0 l 0.2645833,0.007 v 0 l 0.2645833,0.007 v 0 l 0.2645834,0.007 v 0 l 0.2645833,0.007 v 0 l 0.2645833,0.007 v 0 l 0.2645834,0.007 v 0 l 0.2645833,0.007 v 0 l 0.2645833,0.007 v 0 l 0.2645833,0.007 v 0 l 0.2645834,0.007 v 0 l 0.2645833,0.007 v 0 l 0.2645833,0.008 v 0 l 0.2645834,0.008 v 0 l 0.2645833,0.008 v 0 l 0.2645833,0.008 v 0 l 0.2645834,0.008 v 0 l 0.2645833,0.008 v 0 l 0.2645833,0.008 v 0 l 0.2645833,0.008 v 0 l 0.2645834,0.008 v 0 l 0.2645838,0.008 v 0 l 0.264583,0.008 v 0 l 0.264583,0.008 v 0 l 0.264583,0.008 v 0 l 0.264584,0.008 v 0 l 0.264583,0.008 v 0 l 0.264583,0.008 v 0 l 0.264584,0.008 v 0 l 0.264583,0.008 v 0 l 0.264583,0.009 v 0 l 0.264584,0.009 v 0 l 0.264583,0.009 v 0 l 0.264583,0.009 v 0 l 0.264584,0.009 v 0 l 0.264583,0.009 v 0 l 0.264583,0.009 v 0 l 0.264584,0.009 v 0 l 0.264583,0.009 v 0 l 0.264583,0.009 v 0 l 0.264584,0.009 v 0 l 0.264583,0.009 v 0 l 0.264583,0.009 v 0 l 0.264584,0.009 v 0 l 0.264583,0.009 v 0 l 0.264583,0.01 v 0 l 0.264584,0.01 v 0 l 0.264583,0.01 v 0 l 0.264583,0.01 v 0 l 0.264584,0.01 v 0 l 0.264583,0.01 v 0 l 0.264583,0.01 v 0 l 0.264584,0.0101 v 0 l 0.264583,0.0101 v 0 l 0.264583,0.0102 v 0 l 0.264584,0.0103 v 0 l 0.264583,0.0104 v 0 l 0.264583,0.0104 v 0 l 0.264584,0.0107 v 0 l 0.264583,0.0106 v 0 l 0.264583,0.0107 v 0 l 0.264584,0.0108 v 0 l 0.264583,0.0109 v 0 l 0.264583,0.011 v 0 l 0.264584,0.0111 v 0 l 0.264583,0.0112 v 0 l 0.264583,0.0112 v 0 l 0.264584,0.0113 v 0 l 0.264583,0.0114 v 0 l 0.264583,0.0115 v 0 l 0.264584,0.0116 v 0 l 0.264583,0.0117 v 0 l 0.264583,0.0118 v 0 l 0.264584,0.0119 v 0 l 0.264583,0.012 v 0 l 0.264583,0.0121 v 0 l 0.264584,0.0122 v 0 l 0.264583,0.0123 v 0 l 0.264583,0.0125 v 0 l 0.264584,0.0126 v 0 l 0.264583,0.0127 v 0 l 0.264583,0.0128 v 0 l 0.264584,0.0129 v 0 l 0.264583,0.013 v 0 l 0.264583,0.0131 v 0 l 0.264584,0.0132 v 0 l 0.264583,0.0134 v 0 l 0.264583,0.0135 v 0 l 0.264584,0.0136 v 0 l 0.264583,0.0137 v 0 l 0.264583,0.0139 v 0 l 0.264584,0.014 v 0 l 0.264583,0.0141 v 0 l 0.264583,0.0142 v 0 l 0.264584,0.0144 v 0 l 0.264583,0.0145 v 0 l 0.264583,0.0146 v 0 l 0.264584,0.0148 v 0 l 0.264583,0.0149 v 0 l 0.264583,0.0151 v 0 l 0.264584,0.0152 v 0 l 0.264583,0.0154 v 0 l 0.264583,0.0155 v 0 l 0.264584,0.0157 v 0 l 0.264583,0.0158 v 0 l 0.264583,0.016 v 0 l 0.264584,0.0161 v 0 l 0.264583,0.0163 v 0 l 0.264583,0.0165 v 0 l 0.264584,0.0166 v 0 l 0.264583,0.0168 v 0 l 0.264583,0.017 v 0 l 0.264584,0.0171 v 0 l 0.264583,0.0173 v 0 l 0.264583,0.0175 v 0 l 0.264584,0.0177 v 0 l 0.264583,0.0179 v 0 l 0.264583,0.0181 v 0 l 0.264584,0.0182 v 0 l 0.264583,0.0184 v 0 l 0.264583,0.0186 v 0 l 0.264584,0.0188 v 0 l 0.264583,0.019 v 0 l 0.264583,0.0192 v 0 l 0.264583,0.0194 v 0 l 0.264584,0.0196 v 0 l 0.264583,0.0199 v 0 l 0.264583,0.0201 v 0 l 0.264584,0.0203 v 0 l 0.264583,0.0205 v 0 l 0.264583,0.0208 v 0 l 0.264584,0.021 v 0 l 0.264583,0.0213 v 0 l 0.264583,0.0215 v 0 l 0.264584,0.0217 v 0 l 0.264583,0.022 v 0 l 0.264583,0.0222 v 0 l 0.264584,0.0225 v 0 l 0.264583,0.0228 v 0 l 0.264583,0.023 v 0 l 0.264584,0.0233 v 0 l 0.264583,0.0236 v 0 l 0.264583,0.0239 v 0 l 0.264584,0.0242 v 0 l 0.264583,0.0245 v 0 l 0.264583,0.0247 v 0 l 0.264584,0.0251 v 0 l 0.264583,0.0253 v 0 l 0.264583,0.0257 v 0 l 0.264584,0.026 v 0 l 0.264583,0.0263 v 0 l 0.264583,0.0267 v 0 l 0.264584,0.027 v 0 l 0.264583,0.0274 v 0 l 0.264583,0.0277 v 0 l 0.264584,0.0281 v 0 l 0.264583,0.0284 v 0 l 0.264583,0.0288 v 0 l 0.264584,0.0292 v 0 l 0.264583,0.0296 v 0 l 0.264583,0.03 v 0 l 0.264584,0.0304 v 0 l 0.264583,0.0308 v 0 l 0.264583,0.0312 v 0 l 0.264584,0.0317 v 0 l 0.264583,0.0321 v 0 l 0.264583,0.0326 v 0 l 0.264584,0.033 v 0 l 0.264583,0.0335 v 0 l 0.264583,0.034 v 0 l 0.264584,0.0345 v 0 l 0.264583,0.035 v 0 l 0.264583,0.0355 v 0 l 0.264584,0.036 v 0 l 0.264583,0.0366 v 0 l 0.264583,0.0371 v 0 l 0.264584,0.0377 v 0 l 0.264583,0.0383 v 0 l 0.264583,0.0388 v 0 l 0.264584,0.0394 v 0 l 0.264583,0.0401 v 0 l 0.264583,0.0407 v 0 l 0.264584,0.0413 v 0 l 0.264583,0.0418 v 0 l 0.264583,0.0427 v 0 l 0.264584,0.0434 v 0 l 0.264583,0.0441 v 0 l 0.264583,0.0448 v 0 l 0.264584,0.0455 v 0 l 0.264583,0.0463 v 0 l 0.264583,0.0471 v 0 l 0.264584,0.0479 v 0 l 0.264583,0.0487 v 0 l 0.264583,0.0496 v 0 l 0.264584,0.0505 v 0 l 0.264583,0.0514 v 0 l 0.264583,0.0523 v 0 l 0.264584,0.0532 v 0 l 0.264583,0.0542 v 0 l 0.264583,0.0552 v 0 l 0.264584,0.0562 v 0 l 0.264583,0.0572 v 0 l 0.264583,0.0583 v 0 l 0.264584,0.0594 v 0 l 0.264583,0.0606 v 0 l 0.264583,0.0618 v 0 l 0.264584,0.063 v 0 l 0.264583,0.0642 v 0 l 0.264583,0.0655 v 0 l 0.264584,0.0668 v 0 l 0.264583,0.0682 v 0 l 0.264583,0.0696 v 0 l 0.264584,0.071 v 0 l 0.264583,0.0725 v 0 l 0.264583,0.0741 v 0 l 0.264584,0.0757 v 0 l 0.264583,0.0773 v 0 l 0.264583,0.079 v 0 l 0.264584,0.0808 v 0 l 0.264583,0.0826 v 0 l 0.264583,0.0845 v 0 l 0.264584,0.0864 v 0 l 0.264583,0.0884 v 0 l 0.264583,0.0905 v 0 l 0.264583,0.0926 v 0 l 0.264584,0.0949 v 0 l 0.264583,0.0972 v 0 l 0.264583,0.0996 v 0 l 0.264584,0.10208 v 0 l 0.264583,0.10466 v 0 l 0.264583,0.10734 v 0 l 0.264584,0.11014 v 0 l 0.264583,0.11303 v 0 l 0.264583,0.11604 v 0 l 0.264584,0.11918 v 0 l 0.264583,0.12245 v 0 l 0.264583,0.12585 v 0 l 0.264584,0.12939 v 0 l 0.264583,0.13309 v 0 l 0.264583,0.13695 v 0 l 0.264584,0.14098 v 0 l 0.264583,0.14518 v 0 l 0.264583,0.14958 v 0 l 0.264584,0.15419 v 0 l 0.264583,0.159 v 0 l 0.264583,0.16406 v 0 l 0.264584,0.16934 v 0 l 0.264583,0.1749 v 0 l 0.264583,0.18072 v 0 l 0.264584,0.18686 v 0 l 0.264583,0.19329 v 0 l 0.264583,0.20008 v 0 l 0.264584,0.20722 v 0 l 0.264583,0.21476 v 0 l 0.264583,0.22272 v 0 l 0.264584,0.23111 v 0 l 0.264583,0.24001 v 0 l 0.264583,0.24942 v 0 l 0.264584,0.25939 v 0 l 0.264583,0.26999 v 0 l 0.264583,0.28123 v 0 l 0.264584,0.2932 v 0 l 0.264583,0.30595 v 0 l 0.264583,0.31954 v 0 l 0.264584,0.33407 v 0 l 0.264583,0.34961 v 0 l 0.264583,0.36626 v 0 l 0.264584,0.38412 v 0 l 0.264583,0.40333 v 0 l 0.264583,0.42401 v 0 l 0.264584,0.44633 v 0 l 0.264583,0.47045 v 0 l 0.264583,0.49659 v 0 l 0.264584,0.52497 v 0 l 0.264583,0.55584 v 0 l 0.264583,0.58954 v 0 l 0.264584,0.62638 v 0 l 0.264583,0.66679 v 0 l 0.264583,0.71125 v 0 l 0.264584,0.7603 v 0 l 0.264583,0.8146 v 0 l 0.264583,0.87494 v 0 l 0.264584,0.94225 v 0 l 0.264583,1.01763 v 0 l 0.264583,1.10243 v 0 l 0.264584,1.1983 v 0 l 0.264583,1.30722 v 0 l 0.264583,1.43173 v 0 l 0.264584,1.5749 v 0 l 0.264583,1.74068 v 0 l 0.264583,1.93409 v 0 l 0.264584,2.16163 v 0 l 0.264583,2.43183 v 0 l 0.264583,2.75608 v 0 l 0.264584,3.1498 v 0 l 0.264583,3.63439 v 0 l 0.264583,4.24011 v 0 l 0.264584,5.01105 v 0 l 0.264583,6.01326 v 0 l 0.264583,7.34954 v 0 l 0.264584,9.18692 v 0 l 0.264583,11.81176 v 0 l 0.264583,15.749 v 0 l 0.264584,22.04861 v 0 l 0.264583,33.07292 v 0 l 0.264583,55.12152 v 0 l 0.264584,110.24306 v 0 l 0.264583,330.72916 m 0.79375,-1322.91665 v 330.72917 0 l 0.264583,110.24305 v 0 l 0.264584,55.121526 v 0 l 0.264583,33.072916 v 0 l 0.264583,22.048611 v 0 l 0.264584,15.749008 v 0 l 0.264583,11.811756 v 0 l 0.264583,9.186921 v 0 l 0.264584,7.349537 v 0 l 0.264583,6.013257 v 0 l 0.264583,5.011049 v 0 l 0.264584,4.240119 v 0 l 0.264583,3.63438 v 0 l 0.264583,3.14981 v 0 l 0.264583,2.75607 v 0 l 0.264584,2.43184 v 0 l 0.264583,2.16162 v 0 l 0.264583,1.93409 v 0 l 0.264584,1.74068 v 0 l 0.264583,1.5749 v 0 l 0.264583,1.43173 v 0 l 0.264584,1.30723 v 0 l 0.264583,1.19829 v 0 l 0.264583,1.10244 v 0 l 0.264584,1.01762 v 0 l 0.264583,0.94225 v 0 l 0.264583,0.87495 v 0 l 0.264584,0.8146 v 0 l 0.264583,0.7603 v 0 l 0.264583,0.71124 v 0 l 0.264584,0.6668 v 0 l 0.264583,0.62638 v 0 l 0.264583,0.58953 v 0 l 0.264584,0.55585 v 0 l 0.264583,0.52497 v 0 l 0.264583,0.49659 v 0 l 0.264584,0.47045 v 0 l 0.264583,0.44633 v 0 l 0.264583,0.42401 v 0 l 0.264584,0.40333 v 0 l 0.264583,0.38412 v 0 l 0.264583,0.36626 v 0 l 0.264584,0.3496 v 0 l 0.264583,0.33407 v 0 l 0.264583,0.31955 v 0 l 0.264584,0.30595 v 0 l 0.264583,0.2932 v 0 l 0.264583,0.28123 v 0 l 0.264584,0.26998 v 0 l 0.264583,0.2594 v 0 l 0.264583,0.24942 v 0 l 0.264584,0.24 v 0 l 0.264579,0.23112 v 0 l 0.26459,0.22271 v 0 l 0.26458,0.21476 v 0 l 0.26458,0.20723 v 0 l 0.26459,0.20007 v 0 l 0.26458,0.1933 v 0 l 0.26458,0.18685 v 0 l 0.26459,0.18073 v 0 l 0.26458,0.1749 v 0 l 0.26458,0.16934 v 0 l 0.26459,0.16405 v 0 l 0.26458,0.15901 v 0 l 0.26458,0.15418 v 0 l 0.26459,0.14959 v 0 l 0.26458,0.14518 v 0 l 0.26458,0.14098 v 0 l 0.26459,0.13694 v 0 l 0.26458,0.13309 v 0 l 0.26458,0.1294 v 0 l 0.26459,0.12584 v 0 l 0.26458,0.12245 v 0 l 0.26458,0.11918 v 0 l 0.26459,0.11605 v 0 l 0.26458,0.11303 v 0 l 0.26458,0.11013 v 0 l 0.26459,0.10735 v 0 l 0.26458,0.10466 v 0 l 0.26458,0.10208 v 0 l 0.26459,0.0996 v 0 l 0.26458,0.0972 v 0 l 0.26458,0.0949 v 0 l 0.26459,0.0926 v 0 l 0.26458,0.0905 v 0 l 0.26458,0.0884 v 0 l 0.26459,0.0864 v 0 l 0.26458,0.0845 v 0 l 0.26458,0.0826 v 0 l 0.26459,0.0808 v 0 l 0.26458,0.079 v 0 l 0.26458,0.0773 v 0 l 0.26459,0.0757 v 0 l 0.26458,0.0741 v 0 l 0.26458,0.0725 v 0 l 0.26459,0.071 v 0 l 0.26458,0.0696 v 0 l 0.26458,0.0682 v 0 l 0.26459,0.0668 v 0 l 0.26458,0.0655 v 0 l 0.26458,0.0642 v 0 l 0.26459,0.063 v 0 l 0.26458,0.0617 v 0 l 0.26458,0.0606 v 0 l 0.26459,0.0594 v 0 l 0.26458,0.0583 v 0 l 0.26458,0.0572 v 0 l 0.26459,0.0562 v 0 l 0.26458,0.0552 v 0 l 0.26458,0.0542 v 0 l 0.26459,0.0532 v 0 l 0.26458,0.0523 v 0 l 0.26458,0.0513 v 0 l 0.26459,0.0505 v 0 l 0.26458,0.0496 v 0 l 0.26458,0.0487 v 0 l 0.26459,0.0479 v 0 l 0.26458,0.0471 v 0 l 0.26458,0.0463 v 0 l 0.26459,0.0456 v 0 l 0.26458,0.0448 v 0 l 0.26458,0.0441 v 0 l 0.26459,0.0434 v 0 l 0.26458,0.0427 v 0 l 0.26458,0.042 v 0 l 0.26459,0.0413 v 0 l 0.26458,0.0407 v 0 l 0.26458,0.0401 v 0 l 0.26459,0.0394 v 0 l 0.26458,0.0388 v 0 l 0.26458,0.0383 v 0 l 0.26459,0.0377 v 0 l 0.26458,0.0371 v 0 l 0.26458,0.0366 v 0 l 0.26459,0.036 v 0 l 0.26458,0.0355 v 0 l 0.26458,0.035 v 0 l 0.26459,0.0345 v 0 l 0.26458,0.034 v 0 l 0.26458,0.0335 v 0 l 0.26459,0.033 v 0 l 0.26458,0.0326 v 0 l 0.26458,0.0321 v 0 l 0.26459,0.0317 v 0 l 0.26458,0.0312 v 0 l 0.26458,0.0308 v 0 l 0.26459,0.0304 v 0 l 0.26458,0.03 v 0 l 0.26458,0.0296 v 0 l 0.26459,0.0292 v 0 l 0.26458,0.0288 v 0 l 0.26458,0.0284 v 0 l 0.26459,0.0281 v 0 l 0.26458,0.0277 v 0 l 0.26458,0.0273 v 0 l 0.26459,0.027 v 0 l 0.26458,0.0267 v 0 l 0.26458,0.0263 v 0 l 0.26459,0.026 v 0 l 0.26458,0.0257 v 0 l 0.26458,0.0253 v 0 l 0.26459,0.0251 v 0 l 0.26458,0.0247 v 0 l 0.26458,0.0245 v 0 l 0.26459,0.0242 v 0 l 0.26458,0.0239 v 0 l 0.26458,0.0236 v 0 l 0.26459,0.0233 v 0 l 0.26458,0.023 v 0 l 0.26458,0.0228 v 0 l 0.26459,0.0225 v 0 l 0.26458,0.0222 v 0 l 0.26458,0.022 v 0 l 0.26459,0.0217 v 0 l 0.26458,0.0215 v 0 l 0.26458,0.0212 v 0 l 0.26459,0.021 v 0 l 0.26458,0.0208 v 0 l 0.26458,0.0205 v 0 l 0.26459,0.0203 v 0 l 0.26458,0.0201 v 0 l 0.26458,0.0199 v 0 l 0.26459,0.0196 v 0 l 0.26458,0.0194 v 0 l 0.26458,0.0192 v 0 l 0.26459,0.019 v 0 l 0.26458,0.0188 v 0 l 0.26458,0.0186 v 0 l 0.26459,0.0184 v 0 l 0.26458,0.0182 v 0 l 0.26458,0.018 v 0 l 0.26459,0.0179 v 0 l 0.26458,0.0177 v 0 l 0.26458,0.0175 v 0 l 0.26459,0.0173 v 0 l 0.26458,0.0171 v 0 l 0.26458,0.017 v 0 l 0.26459,0.0168 v 0 l 0.26458,0.0166 v 0 l 0.26458,0.0165 v 0 l 0.26459,0.0163 v 0 l 0.26458,0.0161 v 0 l 0.26458,0.016 v 0 l 0.26459,0.0158 v 0 l 0.26458,0.0157 v 0 l 0.26458,0.0155 v 0 l 0.26459,0.0154 v 0 l 0.26458,0.0152 v 0 l 0.26458,0.0151 v 0 l 0.26459,0.0149 v 0 l 0.26458,0.0148 v 0 l 0.26458,0.0147 v 0 l 0.26459,0.0145 v 0 l 0.26458,0.0144 v 0 l 0.26458,0.0142 v 0 l 0.26459,0.0141 v 0 l 0.26458,0.014 v 0 l 0.26458,0.0139 v 0 l 0.26459,0.0137 v 0 l 0.26458,0.0136 v 0 l 0.26458,0.0135 v 0 l 0.26459,0.0134 v 0 l 0.26458,0.0132 v 0 l 0.26458,0.0131 v 0 l 0.26459,0.013 v 0 l 0.26458,0.0129 v 0 l 0.26458,0.0128 v 0 l 0.26459,0.0127 v 0 l 0.26458,0.0126 v 0 l 0.26458,0.0125 v 0 l 0.26459,0.0123 v 0 l 0.26458,0.0122 v 0 l 0.26458,0.0121 v 0 l 0.26459,0.012 v 0 l 0.26458,0.0119 v 0 l 0.26458,0.0118 v 0 l 0.26459,0.0117 v 0 l 0.26458,0.0116 v 0 l 0.26458,0.0115 v 0 l 0.26459,0.0114 v 0 l 0.26458,0.0113 v 0 l 0.26458,0.0112 v 0 l 0.26459,0.0112 v 0 l 0.26458,0.0111 v 0 l 0.26458,0.011 v 0 l 0.26459,0.0109 v 0 l 0.26458,0.0108 v 0 l 0.26458,0.0107 v 0 l 0.26459,0.0105 v 0 l 0.26458,0.0105 v 0 l 0.26458,0.0104 v 0 l 0.26459,0.0104 v 0 l 0.26458,0.0103 v 0 l 0.26458,0.0102 v 0 l 0.26459,0.0101 v 0 l 0.26458,0.0101 v 0 l 0.26458,0.01 v 0 l 0.26459,0.01 v 0 l 0.26458,0.01 v 0 l 0.26458,0.01 v 0 l 0.26459,0.01 v 0 l 0.26458,0.01 v 0 l 0.26458,0.01 v 0 l 0.26459,0.009 v 0 l 0.26458,0.009 v 0 l 0.26458,0.009 v 0 l 0.26459,0.009 v 0 l 0.26458,0.009 v 0 l 0.26458,0.009 v 0 l 0.26459,0.009 v 0 l 0.26458,0.009 v 0 l 0.26458,0.009 v 0 l 0.26459,0.009 v 0 l 0.26458,0.009 v 0 l 0.26458,0.009 v 0 l 0.26459,0.009 v 0 l 0.26458,0.009 v 0 l 0.26458,0.009 v 0 l 0.26459,0.008 v 0 l 0.26458,0.008 v 0 l 0.26458,0.008 v 0 l 0.26459,0.008 v 0 l 0.26458,0.008 v 0 l 0.26458,0.008 v 0 l 0.26459,0.008 v 0 l 0.26458,0.008 v 0 l 0.26458,0.008 v 0 l 0.26459,0.008 v 0 l 0.26458,0.008 v 0 l 0.26458,0.008 v 0 l 0.26459,0.008 v 0 l 0.26458,0.008 v 0 l 0.26458,0.008 v 0 l 0.26459,0.008 v 0 l 0.26458,0.008 v 0 l 0.26458,0.008 v 0 l 0.26459,0.007 v 0 l 0.26458,0.007 v 0 l 0.26458,0.007 v 0 l 0.26459,0.007 v 0 l 0.26458,0.007 v 0 l 0.26458,0.007 v 0 l 0.26459,0.007 v 0 l 0.26458,0.007 v 0 l 0.26458,0.007 v 0 l 0.26459,0.007 v 0 l 0.26458,0.007 v 0 l 0.26458,0.007 v 0 l 0.26459,0.007 v 0 l 0.26458,0.007 v 0 l 0.26458,0.007 v 0 l 0.26459,0.007 v 0 l 0.26458,0.007 v 0 l 0.26458,0.007 v 0 l 0.26459,0.007 v 0 l 0.26458,0.007 v 0 l 0.26458,0.007 v 0 l 0.26459,0.007 v 0 l 0.26458,0.006 v 0 l 0.26458,0.006 v 0 l 0.26459,0.006 v 0 l 0.26458,0.006 v 0 l 0.26458,0.006 v 0 l 0.26459,0.006 v 0 l 0.26458,0.006 v 0 l 0.26458,0.006 v 0 l 0.26459,0.006 v 0 l 0.26458,0.006 v 0 l 0.26458,0.006 v 0 l 0.26459,0.006 v 0 l 0.26458,0.006 v 0 l 0.26458,0.006 v 0 l 0.26459,0.006 v 0 l 0.26458,0.006 v 0 l 0.26458,0.006 v 0 l 0.26459,0.006 v 0 l 0.26458,0.006 v 0 l 0.26458,0.006 v 0 l 0.26459,0.006 v 0 l 0.26458,0.006 v 0 l 0.26458,0.006 v 0 l 0.26459,0.006 v 0 l 0.26458,0.006 v 0 l 0.26458,0.006 v 0 l 0.26459,0.006 v 0 l 0.26458,0.006 v 0 l 0.26458,0.005 v 0 l 0.26459,0.005 v 0 l 0.26458,0.005 v 0 l 0.26458,0.005 v 0 l 0.26459,0.005 v 0 l 0.26458,0.005 v 0 l 0.26458,0.005 v 0 l 0.26459,0.005 v 0 l 0.26458,0.005 v 0 l 0.26458,0.005 v 0 l 0.26459,0.005 v 0 l 0.26458,0.005 v 0 l 0.26458,0.005 v 0 l 0.26459,0.005 v 0 l 0.26458,0.005 v 0 l 0.26458,0.005 v 0 l 0.26459,0.005 v 0 l 0.26458,0.005 v 0 l 0.26458,0.005 v 0 l 0.26459,0.005 v 0 l 0.26458,0.005 v 0 l 0.26458,0.005 v 0 l 0.26459,0.005 v 0 l 0.26458,0.005 v 0 l 0.26458,0.005 v 0 l 0.26459,0.005 v 0 l 0.26458,0.005 v 0 l 0.26458,0.005 v 0 l 0.26459,0.005 v 0 l 0.26458,0.005 v 0 l 0.26458,0.005 v 0 l 0.26459,0.005 v 0 l 0.26458,0.005 v 0 l 0.26458,0.005 v 0 l 0.26459,0.005 v 0 l 0.26458,0.005 v 0 l 0.26458,0.005 v 0 l 0.26459,0.004 v 0 l 0.26458,0.004 v 0 l 0.26458,0.004 v 0 l 0.26459,0.004 v 0 l 0.26458,0.004 v 0 l 0.26458,0.004 v 0 l 0.26459,0.004 v 0 l 0.26458,0.004 v 0 l 0.26458,0.004 v 0 l 0.26459,0.004 v 0 l 0.26458,0.004 v 0 l 0.26458,0.004 v 0 l 0.26459,0.004 v 0 l 0.26458,0.004 v 0 l 0.26458,0.004 v 0 l 0.26459,0.004 v 0 l 0.26458,0.004 v 0 l 0.26458,0.004 v 0 l 0.26459,0.004 v 0 l 0.26458,0.004 v 0 l 0.26458,0.004 v 0 l 0.26459,0.004 v 0 l 0.26458,0.004 v 0 l 0.26458,0.004 v 0 l 0.26459,0.004 v 0 l 0.26458,0.004 v 0 l 0.26458,0.004 v 0 l 0.26459,0.004 v 0 l 0.26458,0.004 v 0 l 0.26458,0.004 v 0 l 0.26459,0.004 v 0 l 0.26458,0.004 v 0 l 0.26458,0.004 v 0 l 0.26459,0.004 v 0 l 0.26458,0.004 v 0 l 0.26458,0.004 v 0 l 0.26459,0.004 v 0 l 0.26458,0.004 v 0 l 0.26458,0.004 v 0 l 0.26459,0.004 v 0 l 0.26458,0.004 v 0 l 0.26458,0.004 v 0 l 0.26459,0.004 v 0 l 0.26458,0.004 v 0 l 0.26458,0.004 v 0 l 0.26459,0.004 v 0 l 0.26458,0.004 v 0 l 0.26458,0.004 v 0 l 0.26459,0.004 v 0 l 0.26458,0.004 v 0 l 0.26458,0.004 v 0 l 0.26459,0.003 v 0 l 0.26458,0.003 v 0 l 0.26458,0.003 v 0 l 0.26459,0.003 v 0 l 0.26458,0.003 v 0 l 0.26458,0.003 v 0 l 0.26459,0.003 v 0 l 0.26458,0.003 v 0 l 0.26458,0.003 v 0 l 0.26459,0.003 v 0 l 0.26458,0.003 v 0 l 0.26458,0.003 v 0 l 0.26459,0.003 v 0 l 0.26458,0.003 v 0 l 0.26458,0.003 v 0 l 0.26459,0.003 v 0 l 0.26458,0.003 v 0 l 0.26458,0.003 v 0 l 0.26459,0.003 v 0 l 0.26458,0.003 v 0 l 0.26458,0.003 v 0 l 0.26459,0.003 v 0 l 0.26458,0.003 v 0 l 0.26458,0.003 v 0 l 0.26459,0.003 v 0 l 0.26458,0.003 v 0 l 0.26458,0.003 v 0 l 0.26459,0.003 v 0 l 0.26458,0.003 v 0 l 0.26458,0.003 v 0 l 0.26459,0.003 v 0 l 0.26458,0.003 v 0 l 0.26458,0.003 v 0 l 0.26459,0.003 v 0 l 0.26458,0.003 v 0 l 0.26458,0.003 v 0 l 0.26459,0.003 v 0 l 0.26458,0.003 v 0 l 0.26458,0.003 v 0 l 0.26459,0.003 v 0 l 0.26458,0.003 v 0 l 0.26458,0.003 v 0 l 0.26459,0.003 v 0 l 0.26458,0.003 v 0 l 0.26458,0.003 v 0 l 0.26459,0.003 v 0 l 0.26458,0.003 v 0 l 0.26458,0.003 v 0 l 0.26459,0.003 v 0 l 0.26458,0.003 v 0 l 0.26458,0.003 v 0 l 0.26459,0.003 v 0 l 0.26458,0.003 v 0 l 0.26458,0.003 v 0 l 0.26459,0.003 v 0 l 0.26458,0.003 v 0 l 0.26458,0.003 v 0 l 0.26459,0.003 v 0 l 0.26458,0.003 v 0 l 0.26458,0.003 v 0 l 0.26459,0.003 v 0 l 0.26458,0.003 v 0 l 0.26458,0.003 v 0 l 0.26459,0.003 v 0 l 0.26458,0.003 v 0 l 0.26458,0.003 v 0 l 0.26459,0.003 v 0 l 0.26458,0.003 v 0 l 0.26458,0.003 v 0 l 0.26459,0.003 v 0 l 0.26458,0.003 v 0 l 0.26458,0.003 v 0 l 0.26459,0.003 v 0 l 0.26458,0.003 v 0 l 0.26458,0.003 v 0 l 0.26459,0.003 v 0 l 0.26458,0.003 v 0 l 0.26458,0.003 v 0 l 0.26459,0.002 v 0 l 0.26458,0.002 v 0 l 0.26458,0.002 v 0 l 0.26459,0.002 v 0 l 0.26458,0.002 v 0 l 0.26458,0.002 v 0 l 0.26459,0.002 v 0 l 0.26458,0.002 v 0 l 0.26458,0.002"
       stroke-opacity="0.698039"
       stroke-linecap="round"
       stroke-linejoin="round"
       stroke-miterlimit="10"
       stroke-width="0.661458"
       id="path2-4"
       style="display:inline;fill:none;fill-opacity:1;stroke:#1410a2;stroke-width:1.114;stroke-dasharray:none;stroke-opacity:1"
       clip-path="url(#clipPath3)" /></g></svg>
