<?xml version="1.0" encoding="UTF-8" standalone="no"?>
<!-- Created with Inkscape (http://www.inkscape.org/) -->

<svg
   version="1.1"
   id="svg1"
   width="94.285713"
   height="41.904762"
   viewBox="0 0 94.285713 41.904762"
   sodipodi:docname="11.pdf"
   inkscape:export-batch-path="Akemicos\Akdemicos-Front\public"
   inkscape:export-batch-name="rsimetrica"
   xmlns:inkscape="http://www.inkscape.org/namespaces/inkscape"
   xmlns:sodipodi="http://sodipodi.sourceforge.net/DTD/sodipodi-0.dtd"
   xmlns="http://www.w3.org/2000/svg"
   xmlns:svg="http://www.w3.org/2000/svg">
  <defs
     id="defs1">
    <clipPath
       clipPathUnits="userSpaceOnUse"
       id="clipPath991">
      <rect
         style="fill:#000000;stroke:#000000;stroke-width:1.3;stroke-opacity:1"
         id="rect992"
         width="94.285713"
         height="41.904762"
         x="167.61903"
         y="48.57143" />
    </clipPath>
  </defs>
  <sodipodi:namedview
     id="namedview1"
     pagecolor="#ffffff"
     bordercolor="#000000"
     borderopacity="0.25"
     inkscape:showpageshadow="2"
     inkscape:pageopacity="0.0"
     inkscape:pagecheckerboard="0"
     inkscape:deskcolor="#d1d1d1">
    <inkscape:page
       x="0"
       y="0"
       width="94.285713"
       height="41.904762"
       id="page1"
       margin="0"
       bleed="0" />
  </sodipodi:namedview>
  <g
     id="g1"
     inkscape:groupmode="layer"
     inkscape:label="1"
     clip-path="url(#clipPath991)"
     transform="translate(-167.61903,-48.57143)">
    <path
       id="path31"
       d="m 0,0 c 0,0.32 0,0.64 -0.16,1.28 0,0.16 0,0.16 0,0.32 0.16,0.16 0.48,0.16 0.8,0.16 0.48,0 1.28,-0.48 1.76,-1.28 l 1.45,-2.25 0.16,1.29 c 0.32,1.6 0.8,2.24 1.44,2.24 0.32,0 0.96,-0.16 1.44,-0.8 L 7.85,0.16 7.69,-0.16 C 7.05,0.32 6.57,0.64 6.25,0.64 6.09,0.64 5.77,0.48 5.61,0.16 5.45,-0.16 5.29,-0.96 5.13,-1.44 l -0.32,-1.93 0.64,-0.8 c 0.8,-1.28 1.28,-1.6 1.92,-1.6 0.32,0 0.48,0.16 0.64,0.32 h 0.16 l 0.32,-1.6 C 8.33,-7.21 8.17,-7.21 8.01,-7.21 c -0.8,0 -1.6,0.64 -2.72,2.4 L 4.65,-3.85 4.49,-4.81 c -0.16,-1.76 -0.64,-2.4 -1.77,-2.4 -0.48,0 -0.8,0.16 -0.96,0.32 l -1.12,1.6 0.32,0.16 c 0.48,-0.64 0.96,-0.8 1.28,-0.8 0.64,0 0.96,0.64 1.29,2.4 l 0.16,1.28 -0.65,1.13 C 2.24,0 1.6,0.64 1.12,0.64 0.8,0.64 0.64,0.64 0.64,0.48 L 0.32,0 Z"
       style="fill:#000000;fill-opacity:1;fill-rule:nonzero;stroke:none"
       transform="translate(172.96001,74.480003)" />
    <path
       id="path32"
       d="M 0,0 C 0.32,0 0.64,0 0.64,-0.32 0.64,-0.8 0.32,-0.8 0,-0.8 h -11.54 c -0.16,0 -0.64,0 -0.64,0.48 0,0.32 0.48,0.32 0.8,0.32 z m 0,3.69 c 0.32,0 0.64,0 0.64,-0.32 C 0.64,3.05 0.32,3.05 0,3.05 h -11.38 c -0.32,0 -0.8,0 -0.8,0.32 0,0.32 0.48,0.32 0.64,0.32 z"
       style="fill:#000000;fill-opacity:1;fill-rule:nonzero;stroke:none"
       transform="translate(200.69,69.830002)" />
    <path
       id="path33"
       d="M 0,0 C 0.32,0 0.65,0 0.65,-0.48 0.65,-0.8 0.32,-0.8 0,-0.8 h -10.41 c -0.33,0 -0.65,0 -0.65,0.32 0,0.48 0.32,0.48 0.65,0.48 z"
       style="fill:#000000;fill-opacity:1;fill-rule:nonzero;stroke:none"
       transform="translate(220.56,71.75)" />
    <path
       id="path34"
       d="m 0,0 -0.32,-0.16 c -0.97,0.48 -1.61,0.64 -2.89,0.8 v 0.32 h 0.8 c 0.48,0 0.64,0.16 0.64,0.48 0,0 0,0.32 0,0.32 l -1.92,10.25 c 0,0 0,0 0,0.16 0,0.64 0.96,1.28 1.92,1.28 0.64,0 1.61,-0.32 2.41,-0.96 C 2.4,11.21 3.68,8.81 3.68,6.41 3.68,5.61 3.36,4.96 3.2,4.64 3.04,4.48 2.88,4.32 2.56,4.32 2.08,4.32 1.6,4.48 1.12,4.8 0.16,5.29 -0.48,5.93 -1.61,7.37 Z m 1.6,5.45 c 0.48,0 0.64,0.48 0.64,1.28 0,1.28 -0.32,2.88 -0.96,4 -0.48,1.28 -1.28,1.92 -2.25,1.92 -0.8,0 -1.28,-0.48 -1.28,-1.28 0,-0.48 0,-0.96 0.16,-1.6 0.32,-1.44 0.8,-2.4 1.61,-3.2 C 0.16,5.93 0.96,5.45 1.6,5.45 Z"
       style="fill:#000000;fill-opacity:1;fill-rule:nonzero;stroke:none"
       transform="translate(233.23,50.450001)" />
    <path
       id="path35"
       d="M 224.09,71.589996 H 242.2"
       style="fill:none;stroke:#000000;stroke-width:0.801;stroke-linecap:butt;stroke-linejoin:miter;stroke-miterlimit:10;stroke-dasharray:none;stroke-opacity:1" />
    <path
       id="path36"
       d="m 0,0 v 0.48 c 3.37,0 3.37,0 4.01,0 0.8,0 0.8,0 4.33,0 C 8.18,0.16 8.18,0 8.18,-0.32 c 0,-0.16 0,-0.48 0.16,-0.8 -2.25,0 -3.05,0.16 -6.42,0.16 l 3.37,-3.52 c 1.76,-1.92 2.24,-2.89 2.24,-4.33 0,-2.08 -1.44,-3.36 -3.68,-3.36 -1.28,0 -2.25,0.32 -3.21,1.28 l -0.16,2.4 h 0.48 l 0.16,-0.8 c 0.32,-0.96 0.96,-1.44 2.25,-1.44 1.6,0 2.56,0.96 2.56,2.56 0,1.29 -0.8,2.73 -2.88,4.81 z"
       style="fill:#000000;fill-opacity:1;fill-rule:nonzero;stroke:none"
       transform="translate(224.41,88.25)" />
    <path
       id="path37"
       d="M 0,0 -0.32,-0.16 -0.8,0.16 c -0.8,-0.32 -1.12,-0.32 -1.6,-0.32 -0.48,0 -0.97,0 -1.45,0.32 -1.12,0.48 -1.76,1.13 -2.08,1.93 -0.96,1.6 -1.44,3.84 -1.44,5.28 0,0.8 0.32,1.44 0.64,1.44 0.32,0 1.12,-0.32 1.76,-0.96 0.8,-0.8 1.44,-1.6 2.57,-3.04 l -0.64,2.4 c 0,0.32 0,0.64 0,0.96 0,0.32 0.16,0.64 0.32,0.64 0.48,0 1.28,-0.48 2.72,-1.76 L -0.16,6.73 c 0,0 -0.16,0 -0.16,0.16 -0.64,0.48 -0.96,0.64 -1.12,0.64 -0.16,0 -0.32,-0.16 -0.32,-0.48 0,0 0,-0.16 0,-0.16 z m -1.6,0.96 c -0.32,2.09 -0.8,3.05 -1.44,4.01 -0.97,1.44 -2.09,2.56 -2.73,2.56 -0.16,0 -0.32,-0.16 -0.32,-0.8 0,-1.12 0.48,-3.2 1.12,-4.64 0.48,-1.13 0.96,-1.45 1.77,-1.45 0.48,0 0.8,0.16 1.6,0.32 z"
       style="fill:#000000;fill-opacity:1;fill-rule:nonzero;stroke:none"
       transform="translate(241.24,80.080002)" />
  </g>
</svg>
