<?xml version="1.0" encoding="UTF-8" standalone="no"?>
<!-- Created with Inkscape (http://www.inkscape.org/) -->

<svg
   version="1.1"
   id="svg1"
   width="149.48454"
   height="47.42268"
   viewBox="0 0 149.48454 47.42268"
   sodipodi:docname="writetex.pdf"
   inkscape:export-batch-path="..\Akemicos\Akdemicos-Front\public"
   inkscape:export-batch-name="secante"
   xmlns:inkscape="http://www.inkscape.org/namespaces/inkscape"
   xmlns:sodipodi="http://sodipodi.sourceforge.net/DTD/sodipodi-0.dtd"
   xmlns="http://www.w3.org/2000/svg"
   xmlns:svg="http://www.w3.org/2000/svg">
  <defs
     id="defs1">
    <clipPath
       clipPathUnits="userSpaceOnUse"
       id="clipPath185">
      <rect
         style="fill:#000000;stroke:#000000;stroke-opacity:1"
         id="rect186"
         width="149.48454"
         height="47.42268"
         x="1016.4949"
         y="242.26804" />
    </clipPath>
  </defs>
  <sodipodi:namedview
     id="namedview1"
     pagecolor="#ffffff"
     bordercolor="#000000"
     borderopacity="0.25"
     inkscape:showpageshadow="2"
     inkscape:pageopacity="0.0"
     inkscape:pagecheckerboard="0"
     inkscape:deskcolor="#d1d1d1"
     showgrid="false">
    <inkscape:page
       x="0"
       y="0"
       width="149.48454"
       height="47.42268"
       id="page1"
       margin="0"
       bleed="0" />
  </sodipodi:namedview>
  <g
     id="g97"
     inkscape:groupmode="layer"
     inkscape:label="2"
     clip-path="url(#clipPath185)"
     style="stroke:#000000;stroke-opacity:1"
     transform="translate(-1016.4949,-242.26804)">
    <g
       id="g100"
       aria-label="Secante&#10;secθ=&#10;1"
       transform="matrix(1.3333333,0,0,1.3333333,1016.0907,220.26133)"
       style="stroke:#000000;stroke-opacity:1">
      <path
         id="path101"
         d="m 1.0306328,-2.8942422 c 0,1.078125 -0.0585937,1.6640625 -0.21093749,2.48437501 1.04296879,0.46875 1.91015629,0.65625 2.97656249,0.65625 2.5664063,0 4.21875,-1.33593751 4.21875,-3.39843751 0,-1.2773437 -0.7382812,-2.15625 -2.1679687,-2.53125 l -1.6289063,-0.421875 c -1.0664062,-0.28125 -1.5234375,-0.7265625 -1.5234375,-1.453125 0,-0.9960937 0.7851563,-1.6757812 1.921875,-1.6757812 0.7617188,0 1.40625,0.2578125 1.9570313,0.7851562 l 0.082031,1.171875 h 0.5859375 c 0,-0.9257812 0.070312,-1.6171875 0.1992188,-2.0273437 L 7.3704766,-9.4801797 C 6.4095391,-9.8200234 5.6595391,-9.9723672 4.7220391,-9.9723672 c -2.3789063,0 -3.80859379,1.1484375 -3.80859379,3.0703125 0,1.2421875 0.74999999,2.1445313 2.09765629,2.5429688 l 2.0039062,0.5976562 c 0.8085938,0.2460938 1.1953125,0.6914063 1.1953125,1.3828125 0,1.0546875 -0.9140625,1.85156251 -2.15625,1.85156251 -0.9726562,0 -1.8984375,-0.43359375 -2.34375,-1.11328121 L 1.6048516,-2.8942422 Z M 15.374383,-4.2301797 c 0,-1.5351562 -1.078125,-2.53125 -2.707031,-2.53125 -0.503907,0 -0.878907,0.1054688 -1.265625,0.3398438 l -0.667969,0.3984375 c -0.9492189,0.5625 -1.3710939,1.4179687 -1.3710939,2.7773437 0,2.28515626 1.1484379,3.49218751 3.2929689,3.49218751 0.808594,0 1.347656,-0.140625 2.261719,-0.62109375 l 0.316406,-0.69140626 -0.175781,-0.2109375 c -0.667969,0.37500001 -1.101563,0.50390626 -1.675782,0.50390626 -0.75,0 -1.441406,-0.39843746 -1.804687,-1.01953126 -0.234375,-0.3984375 -0.316406,-0.7265625 -0.339844,-1.40625 h 1.875 c 0.820313,0 1.464844,-0.082031 2.261719,-0.28125 z m -3.023438,0.3164063 h -0.05859 c -0.08203,0 -0.46875,-0.011719 -0.691407,-0.035156 l -0.457031,-0.011719 c 0.04687,-1.4179688 0.386719,-1.9921875 1.21875,-1.9921875 0.820313,0 1.160156,0.5742187 1.195313,1.9921875 z m 9.178711,-0.3515625 c 0.09375,-0.9140625 0.164063,-1.3828125 0.292969,-2.015625 l -0.105469,-0.1875 c -0.65625,-0.234375 -0.960937,-0.2929688 -1.476562,-0.2929688 -0.539063,0 -0.949219,0.1054688 -1.289063,0.3046875 l -0.75,0.4453125 c -1.277343,0.7617188 -1.734375,1.4765625 -1.734375,2.7304688 0,2.2734375 1.136719,3.52734371 3.1875,3.52734371 0.714844,0 1.253907,-0.12890625 1.921875,-0.4921875 l 0.304688,-0.65625 -0.128906,-0.14062501 c -0.492188,0.19921876 -0.808594,0.26953126 -1.21875,0.26953126 -1.40625,0 -2.285157,-1.13671876 -2.285157,-2.95312496 0,-1.3125 0.492188,-2.015625 1.40625,-2.015625 0.644532,0 1.21875,0.2929687 1.265625,0.6210937 l 0.09375,0.8554688 z m 5.06836,3.30468746 -0.07031,0.890625 0.07031,0.1171875 c 0.890625,-0.03515625 1.136718,-0.0468749975 1.300781,-0.0468749975 0.175781,0 0.410156,0.0117187475 1.265625,0.0468749975 v -0.5390625 l -0.433594,-0.0351563 C 28.414422,-0.58564854 28.344109,-0.72627349 28.332391,-1.405961 v -0.3046875 c -0.01172,-0.4570313 -0.02344,-0.8554688 -0.02344,-1.1953125 0,-0.3984375 0.01172,-0.8554688 0.02344,-1.3945313 0.01172,-0.1875 0.01172,-0.3164062 0.01172,-0.421875 0,-1.2773437 -0.855468,-2.0390625 -2.308593,-2.0390625 -0.597657,0 -1.183594,0.1640625 -1.722657,0.4921875 l -0.761718,0.4570313 v 0.9960937 l 0.433593,0.09375 0.316407,-0.7148437 c 0.04687,-0.09375 0.445312,-0.1992188 0.832031,-0.1992188 0.960937,0 1.417969,0.515625 1.464844,1.6875 l -1.265625,0.2578125 c -1.804688,0.375 -2.449219,0.9375 -2.449219,2.15625 0,1.16015631 0.585937,1.78125006 1.675781,1.78125006 0.316406,0 0.5625,-0.0585938 0.703125,-0.17578125 z m 0,-0.69140626 c -0.269532,0.375 -0.808594,0.6445313 -1.230469,0.6445313 -0.457031,0 -0.738281,-0.3398438 -0.738281,-0.9023438 0,-0.703125 0.304687,-0.984375 1.324218,-1.265625 l 0.644532,-0.1640625 z m 3.222656,-3.9726562 0.644531,0.046875 c 0.339844,0.023437 0.375,0.1523437 0.375,1.0078125 v 3.140625 c 0,0.77343746 -0.07031,0.87890621 -0.515625,0.91406246 l -0.503906,0.0234375 v 0.5390625 L 31.672234,2.890625e-4 c 0.292969,0 0.984375,0.0117187475 1.945313,0.0468749975 v -0.5390625 l -0.503906,-0.0234375 c -0.445313,-0.0351563 -0.515625,-0.140625 -0.515625,-0.91406246 v -3.1171875 c 0,-0.5039063 0.585937,-0.9726563 1.21875,-0.9726563 0.9375,0 1.347656,0.5039063 1.347656,1.6523438 v 3.91406246 c 0.808594,-0.03515625 1.054687,-0.0468749975 1.289062,-0.0468749975 0.199219,0 0.199219,0 1.441407,0.0468749975 v -0.5390625 l -0.46875,-0.0234375 c -0.445313,-0.0351563 -0.515625,-0.140625 -0.515625,-0.91406246 v -2.671875 c 0,-1.1015625 -0.128907,-1.6523438 -0.503907,-2.0507813 -0.375,-0.3867187 -0.960937,-0.609375 -1.664062,-0.609375 -0.433594,0 -0.773438,0.09375 -0.996094,0.28125 l -1.148437,0.890625 v -1.078125 l -0.09375,-0.09375 c -1.488282,0.4921875 -1.886719,0.5742188 -2.683594,0.6210938 z m 13.078125,4.76953121 -0.117188,-0.28125001 c -0.292968,0.15234376 -0.433593,0.18750001 -0.667968,0.18750001 -0.667969,0 -0.878907,-0.22265621 -0.878907,-0.92578121 v -3.421875 h 1.511719 l 0.117188,-0.9257813 -1.628907,0.082031 v -0.8320313 c 0,-0.7617187 0.03516,-1.2304687 0.164063,-1.9453125 l -0.199219,-0.1523437 c -0.574219,0.28125 -1.019531,0.4453125 -1.746094,0.7265625 0.03516,0.7382812 0.05859,1.0195312 0.05859,1.3125 v 0.8671875 l -0.949219,0.609375 v 0.3164062 l 0.914063,-0.058594 v 3.7148437 c 0,1.27734376 0.539062,1.82812501 1.78125,1.82812501 0.445312,0 0.808594,-0.10546875 0.9375,-0.2578125 z m 6.735351,-3.37500001 c 0,-1.5351562 -1.078125,-2.53125 -2.707031,-2.53125 -0.503906,0 -0.878906,0.1054688 -1.265625,0.3398438 l -0.667969,0.3984375 c -0.949218,0.5625 -1.371093,1.4179687 -1.371093,2.7773437 0,2.28515626 1.148437,3.49218751 3.292968,3.49218751 0.808594,0 1.347657,-0.140625 2.261719,-0.62109375 l 0.316406,-0.69140626 -0.175781,-0.2109375 c -0.667969,0.37500001 -1.101562,0.50390626 -1.675781,0.50390626 -0.75,0 -1.441406,-0.39843746 -1.804688,-1.01953126 -0.234375,-0.3984375 -0.316406,-0.7265625 -0.339843,-1.40625 h 1.875 c 0.820312,0 1.464843,-0.082031 2.261718,-0.28125 z m -3.023437,0.3164063 h -0.05859 c -0.08203,0 -0.46875,-0.011719 -0.691406,-0.035156 l -0.457031,-0.011719 c 0.04687,-1.4179688 0.386718,-1.9921875 1.21875,-1.9921875 0.820312,0 1.160156,0.5742187 1.195312,1.9921875 z m 0,0"
         style="fill:#000000;fill-opacity:1;fill-rule:nonzero;stroke:#000000;stroke-opacity:1" />
      <path
         id="path102"
         d="m 0.58532031,36.603805 c 0,0.984375 -0.0351563,1.417968 -0.15234375,1.992187 0.73828124,0.246094 1.30078124,0.339844 1.95703124,0.339844 1.8867188,0 3.2226563,-0.996094 3.2226563,-2.402344 0,-0.445312 -0.1289063,-0.773437 -0.4101563,-1.066406 -0.375,-0.351563 -0.84375,-0.527344 -2.109375,-0.773438 -1.171875,-0.222656 -1.5585937,-0.515625 -1.5585937,-1.171875 0,-0.714843 0.5039062,-1.125 1.3710937,-1.125 0.9609375,0 1.6992188,0.503907 1.6992188,1.183594 v 0.328125 h 0.3984375 c 0.011719,-0.832031 0.035156,-1.183594 0.070312,-1.617187 -0.7617188,-0.257813 -1.2773438,-0.363282 -1.8632813,-0.363282 -1.6640625,0 -2.68359374,0.785157 -2.68359374,2.074219 0,0.691406 0.31640625,1.183594 0.98437504,1.476563 0.3867187,0.175781 1.1367187,0.410156 2.1210937,0.621093 0.6445313,0.140625 0.9140625,0.445313 0.9140625,0.996094 0,0.773438 -0.7148437,1.3125 -1.734375,1.3125 -1.0429687,0 -1.7929687,-0.503906 -1.7929687,-1.21875 v -0.585937 z m 11.76562469,1.042968 -0.1875,-0.140625 c -0.914062,0.550782 -1.253906,0.679688 -1.863281,0.679688 -0.9374999,0 -1.7109374,-0.421875 -2.1093749,-1.125 -0.2695313,-0.46875 -0.375,-0.878906 -0.3984375,-1.710938 h 2.0859375 c 0.9960939,0 1.6054689,-0.03516 2.6015629,-0.199218 0.01172,-0.199219 0.02344,-0.328125 0.02344,-0.492188 0,-1.652344 -1.054687,-2.730469 -2.6601562,-2.730469 -0.5390625,0 -1.1484375,0.1875 -1.734375,0.527344 -1.1835937,0.679688 -1.6523437,1.570313 -1.6523437,3.058594 0,0.902344 0.2109375,1.675781 0.5976562,2.226562 0.5742188,0.761719 1.5351563,1.195313 2.6132813,1.195313 0.5273434,0 1.0664064,-0.105469 1.6523434,-0.363281 0.386719,-0.164063 0.691407,-0.351563 0.738282,-0.433594 z m -1.125,-2.824218 c -0.738281,0.03516 -1.089843,0.04687 -1.6054684,0.04687 -0.65625,0 -1.03125,-0.01172 -1.8046875,-0.08203 0,-0.679687 0.058594,-0.996093 0.2460937,-1.371093 0.3046875,-0.632813 0.9140625,-1.019532 1.6054688,-1.019532 0.4687504,0 0.8437504,0.1875 1.1015624,0.574219 0.316406,0.480469 0.421875,0.890625 0.457031,1.851563 z m 7.447266,-0.632813 c 0,-0.65625 0.07031,-1.242187 0.210937,-1.757812 -0.574218,-0.351563 -1.078125,-0.503907 -1.664062,-0.503907 -0.691406,0 -1.5,0.269532 -2.355469,0.820313 -1.007812,0.632812 -1.535156,1.628906 -1.535156,2.894531 0,1.933594 1.359375,3.292969 3.28125,3.292969 0.75,0 1.828125,-0.269531 1.96875,-0.480469 l 0.304687,-0.457031 -0.152343,-0.222656 c -0.527344,0.292968 -0.984375,0.421875 -1.5,0.421875 -1.59375,0 -2.636719,-1.230469 -2.636719,-3.128907 0,-1.535156 0.714844,-2.390625 2.003906,-2.390625 0.632813,0 1.324219,0.28125 1.582031,0.644532 l 0.09375,0.867187 z m 0,0"
         style="fill:#000000;fill-opacity:1;fill-rule:nonzero;stroke:#000000;stroke-opacity:1" />
      <path
         id="path103"
         d="m 26.439813,28.459273 c -0.621094,0 -1.242188,0.292969 -1.910157,0.949219 -1.277343,1.21875 -2.226562,3.375 -2.226562,6.023438 0,2.273437 0.46875,3.375 1.664062,3.375 0.761719,0 1.652344,-0.527344 2.332032,-1.382813 0.972656,-1.253906 1.863281,-3.621094 1.863281,-5.789062 0,-1.992188 -0.550781,-3.175782 -1.722656,-3.175782 z m -1.230469,5.460938 c 0.972656,0 1.371094,0.04687 1.617187,0.164062 -0.316406,1.441407 -0.84375,2.730469 -1.300781,3.480469 -0.292969,0.445313 -0.679687,0.703125 -1.113281,0.703125 -0.855469,0 -1.007813,-1.101562 -1.007813,-2.8125 0,-0.445312 0.02344,-0.902344 0.09375,-1.359375 0.304688,-0.128906 0.691407,-0.175781 1.710938,-0.175781 z m 0.867187,-4.921875 c 0.914063,0 0.996094,1.183594 0.996094,2.953125 0,0.410156 -0.03516,0.820312 -0.08203,1.21875 -0.292969,0.105469 -0.738281,0.152344 -1.6875,0.152344 -0.972656,0 -1.382813,-0.04687 -1.640625,-0.152344 0.363281,-1.6875 1.03125,-3.234375 1.546875,-3.84375 0.199219,-0.210938 0.527344,-0.328125 0.867187,-0.328125 z m 0,0"
         style="fill:#000000;fill-opacity:1;fill-rule:nonzero;stroke:#000000;stroke-opacity:1" />
      <path
         id="path104"
         d="m 43.314813,33.767867 c 0.222656,0 0.503906,0 0.503906,-0.304687 0,-0.292969 -0.28125,-0.292969 -0.492188,-0.292969 h -8.953125 c -0.210937,0 -0.503906,0 -0.503906,0.292969 0,0.304687 0.292969,0.304687 0.515625,0.304687 z m 0.01172,2.894531 c 0.210938,0 0.492188,0 0.492188,-0.292968 0,-0.304688 -0.28125,-0.304688 -0.503906,-0.304688 h -8.929688 c -0.222656,0 -0.515625,0 -0.515625,0.304688 0,0.292968 0.292969,0.292968 0.503906,0.292968 z m 0,0"
         style="fill:#000000;fill-opacity:1;fill-rule:nonzero;stroke:#000000;stroke-opacity:1" />
      <path
         id="path105"
         d="m 62.310906,20.985641 h 0.140625 l 1.851563,-0.832032 c 0.01172,-0.02344 0.03516,-0.02344 0.04687,-0.02344 0.08203,0 0.117187,0.128906 0.117187,0.480469 v 6.949218 c 0,0.75 -0.164062,0.914063 -0.9375,0.949219 l -0.796875,0.04687 v 0.433594 c 2.203125,-0.04687 2.203125,-0.04687 2.355469,-0.04687 0.1875,0 0.503906,0 0.996094,0.01172 0.175781,0.01172 0.667969,0.01172 1.265625,0.03516 v -0.433594 l -0.75,-0.04687 c -0.785156,-0.03516 -0.9375,-0.199219 -0.9375,-0.949219 v -8.496093 l -0.199219,-0.07031 c -0.925781,0.480469 -1.945312,0.914063 -3.257812,1.371094 z m 0,0"
         style="fill:#000000;fill-opacity:1;fill-rule:nonzero;stroke:#000000;stroke-opacity:1" />
    </g>
    <path
       id="path106"
       d="M 0,0 H 29.835"
       style="fill:none;stroke:#000000;stroke-width:0.574;stroke-linecap:butt;stroke-linejoin:miter;stroke-miterlimit:10;stroke-dasharray:none;stroke-opacity:1"
       transform="matrix(1.3333333,0,0,-1.3333333,1082.7813,267.02)" />
    <g
       id="g106"
       aria-label="cosθ&#10;=&#10;r"
       transform="matrix(1.3333333,0,0,1.3333333,1082.7813,284.924)"
       style="stroke:#000000;stroke-opacity:1">
      <path
         id="path107"
         d="m 5.7186875,-4.4635078 c 0,-0.65625 0.070312,-1.2421875 0.2109375,-1.7578125 C 5.3554062,-6.5728828 4.8515,-6.7252266 4.2655625,-6.7252266 c -0.6914063,0 -1.5,0.2695313 -2.3554688,0.8203125 -1.00781245,0.6328125 -1.5351562,1.6289063 -1.5351562,2.8945313 0,1.9335937 1.359375,3.29296874 3.28125,3.29296874 0.75,0 1.828125,-0.26953125 1.96875,-0.48046875 L 5.929625,-0.65491406 5.7772812,-0.87757031 c -0.5273437,0.29296875 -0.984375,0.421875 -1.5,0.421875 -1.59375,0 -2.6367187,-1.23046879 -2.6367187,-3.12890629 0,-1.5351562 0.7148437,-2.390625 2.0039062,-2.390625 0.6328125,0 1.3242188,0.28125 1.5820313,0.6445313 l 0.09375,0.8671875 z m 4.6464845,-2.2617188 c -2.0859376,0 -3.5390626,1.4765625 -3.5390626,3.609375 0,2.0273438 1.2773437,3.39843754 3.1289062,3.39843754 2.2031254,0 3.7851564,-1.52343754 3.7851564,-3.67968754 0,-1.9335937 -1.40625,-3.328125 -3.375,-3.328125 z m -0.257813,0.46875 c 1.324219,0 2.296875,1.4414063 2.296875,3.3867188 0,1.6523437 -0.726562,2.68359374 -1.886718,2.68359374 -1.4062504,0 -2.3554691,-1.37109374 -2.3554691,-3.41015624 0,-1.7226563 0.6914062,-2.6601563 1.9453121,-2.6601563 z M 14.789,-2.0494453 c 0,0.984375 -0.03516,1.41796874 -0.152344,1.99218749 0.738281,0.24609375 1.300781,0.33984375 1.957031,0.33984375 1.886719,0 3.222657,-0.99609375 3.222657,-2.40234374 0,-0.4453125 -0.128907,-0.7734375 -0.410157,-1.0664063 -0.375,-0.3515625 -0.84375,-0.5273437 -2.109375,-0.7734375 -1.171875,-0.2226562 -1.558593,-0.515625 -1.558593,-1.171875 0,-0.7148437 0.503906,-1.125 1.371093,-1.125 0.960938,0 1.699219,0.5039063 1.699219,1.1835938 v 0.328125 h 0.398438 c 0.01172,-0.8320313 0.03516,-1.1835938 0.07031,-1.6171875 -0.761719,-0.2578125 -1.277344,-0.3632813 -1.863281,-0.3632813 -1.664063,0 -2.683594,0.7851563 -2.683594,2.0742188 0,0.6914062 0.316406,1.1835937 0.984375,1.4765625 0.386719,0.1757812 1.136719,0.4101562 2.121094,0.6210937 0.644531,0.140625 0.914062,0.4453125 0.914062,0.9960938 0,0.77343749 -0.714843,1.31249999 -1.734375,1.31249999 -1.042968,0 -1.792968,-0.50390625 -1.792968,-1.21874999 v -0.5859375 z m 0,0"
         style="fill:#000000;fill-opacity:1;fill-rule:nonzero;stroke:#000000;stroke-opacity:1" />
      <path
         id="path108"
         d="m 27.404234,-10.193977 c -0.621093,0 -1.242187,0.2929692 -1.910156,0.9492192 -1.277344,1.21875 -2.226562,3.375 -2.226562,6.0234375 0,2.27343749 0.46875,3.37499999 1.664062,3.37499999 0.761719,0 1.652344,-0.52734375 2.332031,-1.38281249 0.972657,-1.2539063 1.863282,-3.6210938 1.863282,-5.7890625 0,-1.9921875 -0.550782,-3.1757817 -1.722657,-3.1757817 z m -1.230468,5.4609379 c 0.972656,0 1.371093,0.046875 1.617187,0.1640625 -0.316406,1.4414063 -0.84375,2.7304688 -1.300781,3.4804688 -0.292969,0.44531249 -0.679688,0.70312499 -1.113281,0.70312499 -0.855469,0 -1.007813,-1.10156249 -1.007813,-2.81249999 0,-0.4453125 0.02344,-0.9023438 0.09375,-1.359375 0.304688,-0.1289063 0.691406,-0.1757813 1.710938,-0.1757813 z m 0.867187,-4.921875 c 0.914063,0 0.996094,1.1835938 0.996094,2.953125 0,0.4101563 -0.03516,0.8203125 -0.08203,1.21875 -0.292969,0.1054688 -0.738282,0.1523438 -1.6875,0.1523438 -0.972657,0 -1.382813,-0.046875 -1.640625,-0.1523438 0.363281,-1.6875 1.03125,-3.234375 1.546875,-3.84375 0.199218,-0.2109375 0.527343,-0.328125 0.867187,-0.328125 z m 0,0"
         style="fill:#000000;fill-opacity:1;fill-rule:nonzero;stroke:#000000;stroke-opacity:1" />
      <path
         id="path109"
         d="m 45.471617,-14.729133 c 0.222656,0 0.503906,0 0.503906,-0.304687 0,-0.292969 -0.28125,-0.292969 -0.492187,-0.292969 h -8.953125 c -0.210938,0 -0.503906,0 -0.503906,0.292969 0,0.304687 0.292968,0.304687 0.515625,0.304687 z m 0.01172,2.894531 c 0.210937,0 0.492187,0 0.492187,-0.292968 0,-0.304688 -0.28125,-0.304688 -0.503906,-0.304688 H 36.54193 c -0.222657,0 -0.515625,0 -0.515625,0.304688 0,0.292968 0.292968,0.292968 0.503906,0.292968 z m 0,0"
         style="fill:#000000;fill-opacity:1;fill-rule:nonzero;stroke:#000000;stroke-opacity:1" />
      <path
         id="path110"
         d="m 58.47357,-24.792609 c 0.04687,-0.539063 0.117188,-0.996094 0.234375,-1.59375 -0.152343,-0.07031 -0.210937,-0.08203 -0.28125,-0.08203 -0.445312,0 -0.890625,0.339844 -1.40625,1.078125 l -0.386718,0.5625 c -0.5625,0.796875 -0.738282,1.101563 -0.960938,1.605469 l 0.105469,-0.597656 c 0.05859,-0.328125 0.175781,-0.902344 0.257812,-1.21875 l 0.09375,-0.363281 c 0.05859,-0.246094 0.08203,-0.433594 0.08203,-0.609375 0,-0.28125 -0.117188,-0.457032 -0.328125,-0.457032 -0.304688,0 -0.84375,0.304688 -1.910157,1.066407 l -0.398437,0.28125 0.09375,0.292968 0.46875,-0.304687 c 0.398437,-0.257813 0.550781,-0.328125 0.679687,-0.328125 0.152344,0 0.246094,0.128906 0.246094,0.316406 0,0.832031 -0.621094,3.785156 -1.183594,5.613281 l 0.140625,0.105469 c 0.210938,-0.07031 0.445313,-0.117187 0.773438,-0.1875 l 0.1875,-0.02344 0.375,-1.722657 c 0.257812,-1.195312 0.585937,-1.957031 1.21875,-2.765625 0.480469,-0.632812 0.867187,-0.9375 1.183594,-0.9375 0.222656,0 0.363281,0.07031 0.515625,0.269532 z m 0,0"
         style="fill:#000000;fill-opacity:1;fill-rule:nonzero;stroke:#000000;stroke-opacity:1" />
    </g>
    <path
       id="path111"
       d="M 0,0 H 7.919"
       style="fill:none;stroke:#000000;stroke-width:0.574;stroke-linecap:butt;stroke-linejoin:miter;stroke-miterlimit:10;stroke-dasharray:none;stroke-opacity:1"
       transform="matrix(1.3333333,0,0,-1.3333333,1152.348,267.02)" />
    <g
       id="g111"
       aria-label="x&#10;Dominio={R−{&#10;π"
       transform="matrix(1.3333333,0,0,1.3333333,1152.9133,284.924)"
       style="stroke:#000000;stroke-opacity:1">
      <path
         id="path112"
         d="m 0.30523438,-1.2642891 c 0,0.29296879 -0.0351563,0.48046879 -0.1171875,0.93750004 -0.0351563,0.17578125 -0.046875,0.2109375 -0.0585938,0.31640625 0.2109375,0.1171875 0.4453125,0.1640625 0.62109375,0.1640625 0.46875007,0 1.03124997,-0.41015625 1.47656257,-1.08984375 l 1.0898437,-1.67578124 0.1523438,0.9960937 c 0.1875,1.21875004 0.515625,1.76953129 1.03125,1.76953129 0.3164062,0 0.7734375,-0.234375 1.2421875,-0.65625 L 6.4458594,-1.1353828 6.3169531,-1.4049141 c -0.5273437,0.43359379 -0.8789062,0.64453129 -1.1132812,0.64453129 -0.2109375,0 -0.3984375,-0.140625 -0.5390625,-0.43359379 -0.1289063,-0.2695312 -0.2929688,-0.796875 -0.3632813,-1.21875 l -0.2578125,-1.4414062 0.5039063,-0.703125 c 0.6796875,-0.9375 1.0664062,-1.265625 1.5117187,-1.265625 0.2226563,0 0.3984375,0.1171875 0.46875,0.328125 l 0.1992188,-0.058594 0.2109375,-1.21875 c -0.1640625,-0.09375 -0.2929688,-0.140625 -0.421875,-0.140625 -0.5742188,0 -1.1484375,0.515625 -2.0390625,1.8398438 l -0.5273438,0.7851562 -0.09375,-0.6914062 c -0.1640625,-1.4179688 -0.5507812,-1.9335938 -1.40625,-1.9335938 -0.375,0 -0.6796875,0.1171875 -0.8085937,0.3046875 l -0.83203127,1.1835938 0.23437497,0.1523437 c 0.4335938,-0.4921875 0.7265625,-0.6914062 0.9960938,-0.6914062 0.46875,0 0.7851562,0.5859375 1.03125,1.9921875 l 0.1523437,0.890625 -0.5742187,0.890625 c -0.609375,0.9609375 -1.1015625,1.41796874 -1.5,1.41796874 -0.21093752,0 -0.37500002,-0.0585938 -0.39843752,-0.12890625 L 0.58648438,-1.2994453 Z m 0,0"
         style="fill:#000000;fill-opacity:1;fill-rule:nonzero;stroke:#000000;stroke-opacity:1" />
      <path
         id="path113"
         d="m -101.7973,49.65368 v 0.328125 c 1.66406,-0.04687 1.66406,-0.04687 1.992183,-0.04687 0.257812,0 0.492187,0 0.75,0.01172 1.125,0.03516 1.125,0.03516 1.324219,0.03516 1.839843,0 3.222656,-0.480469 4.21875,-1.464844 1.03125,-1.019531 1.664062,-2.566406 1.664062,-4.101563 0,-2.671875 -1.980469,-4.40625 -5.003906,-4.40625 -0.105469,0 -0.28125,0 -0.539063,0.01172 -0.726562,0.01172 -1.335937,0.03516 -1.957031,0.03516 -0.527344,0 -1.324214,-0.02344 -2.953124,-0.04687 v 0.433594 l 0.57422,0.03516 c 0.65625,0.04687 0.72656,0.175782 0.72656,1.300782 v 6.796875 c 0,0.410156 -0.12891,0.726562 -0.35156,0.84375 z m 2.167964,-8.953125 c 0.363281,-0.07031 0.867188,-0.117188 1.582031,-0.117188 1.054688,0 2.203125,0.1875 2.800782,0.457031 0.316406,0.128907 0.585937,0.328125 0.84375,0.585938 0.691406,0.691406 1.019531,1.722656 1.019531,3.164062 0,1.605469 -0.480469,2.835938 -1.429688,3.609375 -0.867187,0.703125 -1.722656,0.949219 -3.339843,0.949219 -0.667969,0 -1.113282,-0.03516 -1.476563,-0.117187 z m 12.111328,2.507812 c -2.085937,0 -3.539062,1.476563 -3.539062,3.609375 0,2.027344 1.277343,3.398438 3.128906,3.398438 2.203125,0 3.785156,-1.523438 3.785156,-3.679688 0,-1.933594 -1.40625,-3.328125 -3.375,-3.328125 z m -0.257812,0.46875 c 1.324218,0 2.296875,1.441406 2.296875,3.386719 0,1.652344 -0.726563,2.683594 -1.886719,2.683594 -1.40625,0 -2.355469,-1.371094 -2.355469,-3.410157 0,-1.722656 0.691406,-2.660156 1.945313,-2.660156 z m 4.353515,0.515625 h 0.527344 c 0.574219,0 0.632813,0.105469 0.632813,1.054688 v 3.222656 c 0,0.902344 -0.03516,1.007812 -0.527344,1.03125 l -0.65625,0.04687 V 49.9818 c 1.371094,-0.04687 1.417969,-0.04687 1.816406,-0.04687 0.398438,0 0.773438,0.01172 1.710938,0.04687 v -0.433594 l -0.609375,-0.04687 c -0.480469,-0.02344 -0.527344,-0.128906 -0.527344,-1.03125 V 45.43493 c 0,-0.644532 0.949219,-1.347657 1.804687,-1.347657 0.773438,0 1.3125,0.726563 1.3125,1.816407 v 2.566406 c 0,0.902344 -0.04687,1.007812 -0.539062,1.03125 l -0.65625,0.04687 V 49.9818 c 1.429687,-0.04687 1.429687,-0.04687 1.792969,-0.04687 0.363281,0 0.363281,0 1.792968,0.04687 v -0.433594 l -0.65625,-0.04687 c -0.492187,-0.02344 -0.539062,-0.128906 -0.539062,-1.03125 V 45.43493 c 0,-0.644532 0.949219,-1.347657 1.816406,-1.347657 0.773438,0 1.300781,0.726563 1.300781,1.816407 v 4.078125 c 0.878907,-0.04687 0.890625,-0.04687 1.136719,-0.04687 0.1875,0 0.1875,0 1.277344,0.04687 v -0.433594 l -0.679688,-0.04687 c -0.480468,-0.02344 -0.527343,-0.128906 -0.527343,-1.03125 v -2.953125 c 0,-1.417969 -0.832032,-2.308594 -2.15625,-2.308594 -0.503907,0 -0.914063,0.128906 -1.171875,0.363281 l -1.089844,0.972657 c -0.457031,-0.949219 -1.054688,-1.335938 -2.039063,-1.335938 -0.527343,0 -0.9375,0.128906 -1.195312,0.363281 l -0.984375,0.914063 v -1.21875 l -0.128906,-0.05859 c -0.726563,0.304688 -1.476563,0.503906 -2.238282,0.585938 z m 15.105469,-0.925781 -0.128906,-0.05859 c -0.726563,0.304688 -1.476563,0.503906 -2.238281,0.585938 v 0.398437 h 0.527343 c 0.574219,0 0.632813,0.105469 0.632813,1.054688 v 3.222656 c 0,0.902344 -0.03516,1.007812 -0.527344,1.03125 l -0.65625,0.04687 v 0.433594 c 1.429688,-0.04687 1.429688,-0.04687 1.792969,-0.04687 0.351562,0 0.351562,0 1.792969,0.04687 V 49.54821 l -0.667969,-0.04687 c -0.480469,-0.02344 -0.527344,-0.128906 -0.527344,-1.03125 z m -0.65625,-3.1875 c -0.433594,0 -0.808594,0.375 -0.808594,0.808594 0,0.410156 0.375,0.785156 0.796875,0.785156 0.410157,0 0.796875,-0.375 0.796875,-0.785156 0,-0.410157 -0.386718,-0.808594 -0.785156,-0.808594 z m 8.018555,9.902344 c 0.878906,-0.04687 0.890625,-0.04687 1.136719,-0.04687 0.199218,0 0.199218,0 1.183593,0.04687 v -0.433594 l -0.585937,-0.04687 c -0.492188,-0.02344 -0.527344,-0.117188 -0.527344,-1.03125 v -2.765625 c 0,-1.675781 -0.796875,-2.496094 -2.402344,-2.496094 -0.527343,0 -0.832031,0.105469 -1.125,0.363281 l -1.089843,0.9375 v -1.242187 l -0.128907,-0.05859 c -0.738281,0.304688 -1.488281,0.503906 -2.238281,0.585938 v 0.398437 h 0.527344 c 0.574219,0 0.632812,0.105469 0.632812,1.054688 v 3.222656 c 0,0.902344 -0.04687,1.007812 -0.539062,1.03125 l -0.644531,0.04687 v 0.433594 c 0.984375,-0.03516 1.371093,-0.04687 1.78125,-0.04687 0.421875,0 0.808593,0.01172 1.78125,0.04687 v -0.433594 l -0.644532,-0.04687 c -0.492187,-0.02344 -0.527343,-0.128906 -0.527343,-1.03125 V 45.43493 c 0,-0.644532 0.9375,-1.347657 1.816406,-1.347657 0.960937,0 1.59375,0.714844 1.59375,1.816407 z m 5.162109,-6.714844 -0.128906,-0.05859 c -0.726563,0.304688 -1.476563,0.503906 -2.238281,0.585938 v 0.398437 h 0.527343 c 0.574219,0 0.632813,0.105469 0.632813,1.054688 v 3.222656 c 0,0.902344 -0.03516,1.007812 -0.527344,1.03125 l -0.65625,0.04687 v 0.433594 c 1.429688,-0.04687 1.429688,-0.04687 1.792969,-0.04687 0.351562,0 0.351562,0 1.792969,0.04687 V 49.54821 l -0.667969,-0.04687 c -0.480469,-0.02344 -0.527344,-0.128906 -0.527344,-1.03125 z m -0.65625,-3.1875 c -0.433594,0 -0.808594,0.375 -0.808594,0.808594 0,0.410156 0.375,0.785156 0.796875,0.785156 0.410157,0 0.796875,-0.375 0.796875,-0.785156 0,-0.410157 -0.386718,-0.808594 -0.785156,-0.808594 z m 6.131836,3.128906 c -2.085937,0 -3.539062,1.476563 -3.539062,3.609375 0,2.027344 1.277343,3.398438 3.128906,3.398438 2.203125,0 3.785156,-1.523438 3.785156,-3.679688 0,-1.933594 -1.40625,-3.328125 -3.375,-3.328125 z m -0.257812,0.46875 c 1.324218,0 2.296875,1.441406 2.296875,3.386719 0,1.652344 -0.726563,2.683594 -1.886719,2.683594 -1.40625,0 -2.355469,-1.371094 -2.355469,-3.410157 0,-1.722656 0.691406,-2.660156 1.945313,-2.660156 z m 18.621093,0.726563 h -7.230468 v 0.796875 h 7.230468 z m 0,2.777343 h -7.230468 v 0.808594 h 7.230468 z m 0,0"
         style="fill:#000000;fill-opacity:1;fill-rule:nonzero;stroke:#000000;stroke-opacity:1" />
      <path
         id="path114"
         d="m -26.809023,40.712273 c 0,-0.597656 0.386718,-1.558593 2.015625,-1.664062 0.08203,-0.01172 0.140625,-0.07031 0.140625,-0.164063 0,-0.164062 -0.117188,-0.164062 -0.28125,-0.164062 -1.5,0 -2.859375,0.761719 -2.871094,1.863281 v 3.410156 c 0,0.585938 0,1.066407 -0.597656,1.558594 -0.527344,0.433594 -1.101563,0.46875 -1.429688,0.480469 -0.07031,0.01172 -0.128906,0.07031 -0.128906,0.164062 0,0.152344 0.09375,0.152344 0.234375,0.164063 0.996094,0.05859 1.710937,0.597656 1.875,1.335937 0.04687,0.164063 0.04687,0.1875 0.04687,0.726563 v 2.964844 c 0,0.621093 0,1.101562 0.714844,1.675781 0.585937,0.445312 1.570312,0.609375 2.15625,0.609375 0.164062,0 0.28125,0 0.28125,-0.164063 0,-0.152343 -0.09375,-0.152343 -0.246094,-0.164062 -0.9375,-0.05859 -1.664063,-0.539063 -1.863281,-1.300781 -0.04687,-0.140625 -0.04687,-0.164063 -0.04687,-0.703125 v -3.140625 c 0,-0.691407 -0.117188,-0.9375 -0.597657,-1.417969 -0.316406,-0.316406 -0.75,-0.46875 -1.160156,-0.585938 1.21875,-0.339843 1.757813,-1.03125 1.757813,-1.898437 z m 0,0"
         style="fill:#000000;fill-opacity:1;fill-rule:nonzero;stroke:#000000;stroke-opacity:1" />
      <path
         id="path115"
         d="m -23.067812,40.442742 0.632812,0.03516 c 0.585938,0.04687 0.726563,0.164063 0.726563,1.300782 v 6.433593 c 0,1.136719 -0.140625,1.265625 -0.726563,1.289063 l -0.632812,0.04687 v 0.433594 c 0.84375,-0.03516 2.167968,-0.04687 2.90625,-0.04687 0.75,0 2.132812,0.01172 2.976562,0.04687 V 49.54821 l -0.691406,-0.04687 c -0.644531,-0.03516 -0.726563,-0.152344 -0.726563,-1.207031 v -7.570313 c 0.492188,-0.128906 0.914063,-0.164062 1.40625,-0.164062 1.488282,0 2.320313,0.679687 2.320313,1.898437 0,1.324219 -1.054688,2.15625 -2.71875,2.15625 -0.08203,0 -0.222656,0 -0.410156,-0.01172 l -0.08203,0.164063 c 0.152344,0.1875 0.199219,0.246094 0.363282,0.433594 0.210937,0.234375 0.246093,0.292968 0.375,0.457031 l 2.648437,3.550781 c 0.08203,0.105469 0.164063,0.222656 0.257813,0.328125 l 0.328125,0.445313 c 0.585937,-0.03516 0.796875,-0.04687 0.972656,-0.04687 0.152344,0 0.339844,0.01172 1.03125,0.04687 v -0.433594 c -0.457031,-0.04687 -0.691406,-0.128906 -0.878906,-0.375 l -3.246094,-4.242188 c 0.785156,-0.1875 1.136719,-0.351562 1.605469,-0.65625 0.785156,-0.550781 1.183593,-1.265625 1.183593,-2.109375 0,-1.394531 -0.984375,-2.15625 -2.8125,-2.15625 h -0.199218 c -0.28125,0.01172 -0.527344,0.01172 -0.726563,0.02344 -0.433594,0.02344 -0.972656,0.02344 -1.523437,0.02344 h -1.453125 c -0.738282,0 -2.0625,-0.02344 -2.90625,-0.04687 z m 3.09375,1.335938 v 6.433593 c 0,1.136719 -0.07031,1.253907 -0.527344,1.289063 -0.457031,-0.03516 -0.539063,-0.152344 -0.539063,-1.289063 V 41.77868 c 0,-1.136719 0.08203,-1.253907 0.539063,-1.300782 0.457031,0.03516 0.527344,0.164063 0.527344,1.300782 z m 0,0"
         style="fill:#000000;fill-opacity:1;fill-rule:nonzero;stroke:#000000;stroke-opacity:1" />
      <path
         id="path116"
         d="m 1.8198828,46.501336 c 0.2578125,0 0.5273438,0 0.5273438,-0.304688 0,-0.304687 -0.2695313,-0.304687 -0.5273438,-0.304687 h -8.0859375 c -0.2578125,0 -0.5273437,0 -0.5273437,0.304687 0,0.304688 0.2695312,0.304688 0.5273437,0.304688 z m 9.9023442,-5.789063 c 0,-0.597656 0.386718,-1.558593 2.015625,-1.664062 0.08203,-0.01172 0.140625,-0.07031 0.140625,-0.164063 0,-0.164062 -0.117188,-0.164062 -0.28125,-0.164062 -1.5,0 -2.859375,0.761719 -2.871094,1.863281 v 3.410156 c 0,0.585938 0,1.066407 -0.597656,1.558594 -0.5273442,0.433594 -1.1015629,0.46875 -1.4296879,0.480469 -0.070312,0.01172 -0.1289063,0.07031 -0.1289063,0.164062 0,0.152344 0.09375,0.152344 0.234375,0.164063 0.9960938,0.05859 1.7109372,0.597656 1.8750002,1.335937 0.04687,0.164063 0.04687,0.1875 0.04687,0.726563 v 2.964844 c 0,0.621093 0,1.101562 0.714844,1.675781 0.585937,0.445312 1.570312,0.609375 2.15625,0.609375 0.164062,0 0.28125,0 0.28125,-0.164063 0,-0.152343 -0.09375,-0.152343 -0.246094,-0.164062 -0.9375,-0.05859 -1.664063,-0.539063 -1.863281,-1.300781 -0.04687,-0.140625 -0.04687,-0.164063 -0.04687,-0.703125 v -3.140625 c 0,-0.691407 -0.117188,-0.9375 -0.597657,-1.417969 -0.316406,-0.316406 -0.75,-0.46875 -1.1601559,-0.585938 1.2187499,-0.339843 1.7578129,-1.03125 1.7578129,-1.898437 z m 0,0"
         style="fill:#000000;fill-opacity:1;fill-rule:nonzero;stroke:#000000;stroke-opacity:1" />
      <path
         id="path117"
         d="m 17.903867,35.160516 0.128906,-0.105469 c 0.292969,-0.855469 0.867188,-0.902344 1.6875,-0.902344 0.175782,0 0.433594,0.01172 0.726563,0.01172 -1.195313,3.28125 -1.746094,4.265625 -2.90625,6.082031 l 0.128906,0.128906 1.054688,-0.363281 c 0.527343,-1.125 1.394531,-3.304687 2.191406,-5.824219 l 2.660156,0.09375 c -0.246094,0.890625 -1.078125,3.492188 -1.078125,4.40625 0,1.511719 0.550781,1.6875 0.996094,1.6875 0.726562,0 1.148437,-0.175781 2.050781,-0.9375 l -0.117187,-0.28125 -0.339844,0.246094 c 0.03516,-0.02344 -0.375,0.304688 -0.621094,0.304688 -0.667969,0 -0.878906,-0.421875 -0.878906,-1.300782 0,-0.363281 0.03516,-0.75 0.117187,-1.171875 0.246094,-1.183593 0.492188,-2.367187 0.621094,-2.953125 0.328125,0 0.65625,-0.01172 0.984375,-0.05859 0.257813,0 0.574219,-0.140625 0.808594,-0.222657 0.152344,-0.304687 0.210937,-0.328125 0.480469,-0.679687 l -0.09375,-0.164063 c -0.386719,0.128907 -1.03125,0.269532 -1.511719,0.269532 -0.164063,0.01172 -0.527344,0.02344 -0.890625,0.02344 -1.523438,-0.01172 -3.890625,-0.128906 -4.523438,-0.128906 -1.078125,0 -1.464843,0.480469 -1.886718,1.722656 z m 0,0"
         style="fill:#000000;fill-opacity:1;fill-rule:nonzero;stroke:#000000;stroke-opacity:1" />
    </g>
  </g>
</svg>
