<?xml version="1.0" encoding="UTF-8" standalone="no"?>
<!-- Created with Inkscape (http://www.inkscape.org/) -->

<svg
   version="1.1"
   id="svg1"
   width="83.809525"
   height="43.809525"
   viewBox="0 0 83.809525 43.809525"
   sodipodi:docname="writetex.pdf"
   inkscape:export-batch-path="..\Akemicos\Akdemicos-Front\public"
   inkscape:export-batch-name="seno"
   xmlns:inkscape="http://www.inkscape.org/namespaces/inkscape"
   xmlns:sodipodi="http://sodipodi.sourceforge.net/DTD/sodipodi-0.dtd"
   xmlns="http://www.w3.org/2000/svg"
   xmlns:svg="http://www.w3.org/2000/svg">
  <defs
     id="defs1">
    <clipPath
       clipPathUnits="userSpaceOnUse"
       id="clipPath173">
      <rect
         style="fill:#000000"
         id="rect174"
         width="83.809525"
         height="43.809525"
         x="129.5238"
         y="159.04762" />
    </clipPath>
  </defs>
  <sodipodi:namedview
     id="namedview1"
     pagecolor="#ffffff"
     bordercolor="#000000"
     borderopacity="0.25"
     inkscape:showpageshadow="2"
     inkscape:pageopacity="0.0"
     inkscape:pagecheckerboard="0"
     inkscape:deskcolor="#d1d1d1">
    <inkscape:page
       x="0"
       y="0"
       width="83.809525"
       height="43.809525"
       id="page1"
       margin="0"
       bleed="0" />
  </sodipodi:namedview>
  <g
     id="g1"
     inkscape:groupmode="layer"
     inkscape:label="1"
     clip-path="url(#clipPath173)"
     style="stroke:#000000;stroke-opacity:1"
     transform="translate(-129.5238,-159.04762)">
    <g
       id="g2"
       aria-label="Seno&#10;sinθ=&#10;y"
       transform="matrix(1.3333333,0,0,1.3333333,131.12933,140.11067)"
       style="stroke:#000000;stroke-opacity:1">
      <path
         id="path2"
         d="m 1.0309297,-2.8955 c 0,1.078125 -0.0585938,1.6640625 -0.21093751,2.484375 1.04296871,0.46875 1.91015621,0.65625 2.97656251,0.65625 2.5664062,0 4.21875,-1.3359375 4.21875,-3.3984375 0,-1.2773438 -0.7382813,-2.15625 -2.1679688,-2.53125 L 4.2184297,-6.1064375 C 3.1520234,-6.3876875 2.6949922,-6.833 2.6949922,-7.5595625 c 0,-0.9960938 0.7851562,-1.6757813 1.921875,-1.6757813 0.7617187,0 1.40625,0.2578125 1.9570312,0.7851563 l 0.082031,1.171875 h 0.5859375 c 0,-0.9257813 0.070312,-1.6171875 0.1992187,-2.0273438 L 7.3707734,-9.4814375 C 6.4098359,-9.8212813 5.6598359,-9.973625 4.7223359,-9.973625 c -2.3789062,0 -3.80859371,1.1484375 -3.80859371,3.0703125 0,1.2421875 0.75000001,2.1445312 2.09765621,2.5429687 l 2.0039063,0.5976563 c 0.8085937,0.2460937 1.1953125,0.6914062 1.1953125,1.3828125 0,1.0546875 -0.9140625,1.8515625 -2.15625,1.8515625 -0.9726563,0 -1.8984375,-0.43359375 -2.34375,-1.1132813 L 1.6051484,-2.8955 Z M 15.37468,-4.2314375 c 0,-1.5351563 -1.078125,-2.53125 -2.707032,-2.53125 -0.503906,0 -0.878906,0.1054687 -1.265625,0.3398437 l -0.667968,0.3984375 c -0.9492191,0.5625 -1.3710941,1.4179688 -1.3710941,2.7773438 0,2.28515625 1.1484371,3.4921875 3.2929691,3.4921875 0.808593,0 1.347656,-0.140625 2.261718,-0.62109375 L 15.234055,-1.067375 15.058273,-1.2783125 c -0.667968,0.375 -1.101562,0.50390625 -1.675781,0.50390625 -0.75,0 -1.441406,-0.39843755 -1.804687,-1.01953125 C 11.34343,-2.192375 11.261398,-2.5205 11.237961,-3.2001875 h 1.875 c 0.820312,0 1.464844,-0.082031 2.261719,-0.28125 z m -3.023438,0.3164062 h -0.05859 c -0.08203,0 -0.46875,-0.011719 -0.691406,-0.035156 l -0.457031,-0.011719 c 0.04687,-1.4179687 0.386719,-1.9921875 1.21875,-1.9921875 0.820312,0 1.160156,0.5742188 1.195312,1.9921875 z m 3.925781,-1.7109375 0.644532,0.046875 c 0.339843,0.023437 0.375,0.1523438 0.375,1.0078125 v 3.140625 c 0,0.77343755 -0.07031,0.8789063 -0.515625,0.91406255 l -0.503907,0.0234375 v 0.5390625 l 1.851563,-0.046875 c 0.292969,0 0.984375,0.01171875 1.945312,0.046875 v -0.5390625 l -0.503906,-0.0234375 C 19.12468,-0.55175 19.054367,-0.65721875 19.054367,-1.4306563 v -3.1171875 c 0,-0.5039062 0.585938,-0.9726562 1.21875,-0.9726562 0.9375,0 1.347656,0.5039062 1.347656,1.6523437 v 3.91406255 c 0.808594,-0.03515625 1.054688,-0.046875 1.289063,-0.046875 0.199219,0 0.199219,0 1.441406,0.046875 v -0.5390625 l -0.46875,-0.0234375 C 23.43718,-0.55175 23.366867,-0.65721875 23.366867,-1.4306563 v -2.671875 c 0,-1.1015625 -0.128906,-1.6523437 -0.503906,-2.0507812 -0.375,-0.3867188 -0.960938,-0.609375 -1.664063,-0.609375 -0.433593,0 -0.773437,0.09375 -0.996093,0.28125 l -1.148438,0.890625 v -1.078125 l -0.09375,-0.09375 c -1.488281,0.4921875 -1.886719,0.5742187 -2.683594,0.6210937 z m 12.539063,-1.1367187 c -2.273438,0 -3.539063,1.265625 -3.539063,3.5507812 0,2.203125 1.171875,3.4570313 3.257813,3.4570313 2.296875,0 3.585937,-1.3125 3.585937,-3.6328125 0,-2.1796875 -1.183593,-3.375 -3.304687,-3.375 z m -0.164063,0.6914062 c 1.03125,0 1.511719,1.0195313 1.511719,3.1289063 0,1.7460937 -0.398437,2.49609375 -1.371094,2.49609375 -1.03125,0 -1.570312,-1.04296875 -1.570312,-3.11718755 0,-1.734375 0.433594,-2.5078125 1.429687,-2.5078125 z m 0,0"
         style="fill:#000000;fill-opacity:1;fill-rule:nonzero;stroke:#000000;stroke-opacity:1" />
      <path
         id="path3"
         d="m 0.58561719,33.816414 c 0,0.984375 -0.0351563,1.417969 -0.15234375,1.992188 0.73828126,0.246093 1.30078126,0.339843 1.95703126,0.339843 1.8867187,0 3.2226562,-0.996093 3.2226562,-2.402343 0,-0.445313 -0.1289062,-0.773438 -0.4101562,-1.066407 -0.375,-0.351562 -0.84375,-0.527343 -2.109375,-0.773437 -1.171875,-0.222656 -1.5585938,-0.515625 -1.5585938,-1.171875 0,-0.714844 0.5039063,-1.125 1.3710938,-1.125 0.9609375,0 1.6992187,0.503906 1.6992187,1.183594 v 0.328125 h 0.3984375 c 0.011719,-0.832032 0.035156,-1.183594 0.070312,-1.617188 -0.7617187,-0.257812 -1.2773437,-0.363281 -1.8632812,-0.363281 -1.6640625,0 -2.68359376,0.785156 -2.68359376,2.074219 0,0.691406 0.31640625,1.183593 0.98437496,1.476562 0.3867188,0.175781 1.1367188,0.410156 2.1210938,0.621094 0.6445312,0.140625 0.9140625,0.445312 0.9140625,0.996094 0,0.773437 -0.7148438,1.3125 -1.734375,1.3125 -1.0429688,0 -1.7929688,-0.503907 -1.7929688,-1.21875 V 33.816414 Z M 8.7770234,29.199227 8.6481172,29.140633 C 7.9215547,29.44532 7.1715547,29.644539 6.4098359,29.72657 v 0.398438 h 0.5273438 c 0.5742187,0 0.6328125,0.105469 0.6328125,1.054687 v 3.222657 c 0,0.902343 -0.035156,1.007812 -0.5273438,1.03125 l -0.65625,0.04687 v 0.433593 c 1.4296875,-0.04687 1.4296875,-0.04687 1.7929688,-0.04687 0.3515625,0 0.3515625,0 1.7929687,0.04687 V 35.480477 L 9.3043672,35.433602 C 8.8238984,35.410164 8.7770234,35.304695 8.7770234,34.402352 Z m -0.65625,-3.1875 c -0.4335937,0 -0.8085937,0.375 -0.8085937,0.808593 0,0.410157 0.375,0.785157 0.796875,0.785157 0.4101562,0 0.796875,-0.375 0.796875,-0.785157 0,-0.410156 -0.3867188,-0.808593 -0.7851563,-0.808593 z m 8.0185546,9.902343 c 0.878906,-0.04687 0.890625,-0.04687 1.136719,-0.04687 0.199219,0 0.199219,0 1.183594,0.04687 v -0.433593 l -0.585938,-0.04687 c -0.492187,-0.02344 -0.527344,-0.117188 -0.527344,-1.03125 v -2.765625 c 0,-1.675782 -0.796875,-2.496094 -2.402343,-2.496094 -0.527344,0 -0.832032,0.105469 -1.125,0.363281 l -1.089844,0.9375 v -1.242187 l -0.128906,-0.05859 c -0.738282,0.304687 -1.488282,0.503906 -2.238282,0.585937 v 0.398438 h 0.527344 c 0.574219,0 0.632813,0.105469 0.632813,1.054687 v 3.222657 c 0,0.902343 -0.04687,1.007812 -0.539063,1.03125 l -0.644531,0.04687 v 0.433593 c 0.984375,-0.03516 1.371094,-0.04687 1.78125,-0.04687 0.421875,0 0.808594,0.01172 1.78125,0.04687 v -0.433593 l -0.644531,-0.04687 c -0.492188,-0.02344 -0.527344,-0.128907 -0.527344,-1.03125 v -3.035157 c 0,-0.644531 0.9375,-1.347656 1.816406,-1.347656 0.960938,0 1.59375,0.714844 1.59375,1.816406 z m 0,0"
         style="fill:#000000;fill-opacity:1;fill-rule:nonzero;stroke:#000000;stroke-opacity:1" />
      <path
         id="path4"
         d="m 25.725266,25.671883 c -0.621094,0 -1.242188,0.292969 -1.910157,0.949219 -1.277343,1.21875 -2.226562,3.375 -2.226562,6.023437 0,2.273438 0.46875,3.375 1.664062,3.375 0.761719,0 1.652344,-0.527344 2.332032,-1.382812 0.972656,-1.253907 1.863281,-3.621094 1.863281,-5.789063 0,-1.992187 -0.550781,-3.175781 -1.722656,-3.175781 z m -1.230469,5.460937 c 0.972656,0 1.371094,0.04687 1.617187,0.164063 -0.316406,1.441406 -0.84375,2.730469 -1.300781,3.480469 -0.292969,0.445312 -0.679687,0.703125 -1.113281,0.703125 -0.855469,0 -1.007813,-1.101563 -1.007813,-2.8125 0,-0.445313 0.02344,-0.902344 0.09375,-1.359375 0.304688,-0.128907 0.691407,-0.175782 1.710938,-0.175782 z m 0.867187,-4.921875 c 0.914063,0 0.996094,1.183594 0.996094,2.953125 0,0.410157 -0.03516,0.820313 -0.08203,1.21875 -0.292969,0.105469 -0.738281,0.152344 -1.6875,0.152344 -0.972656,0 -1.382813,-0.04687 -1.640625,-0.152344 0.363281,-1.6875 1.03125,-3.234375 1.546875,-3.84375 0.199219,-0.210937 0.527344,-0.328125 0.867187,-0.328125 z m 0,0"
         style="fill:#000000;fill-opacity:1;fill-rule:nonzero;stroke:#000000;stroke-opacity:1" />
      <path
         id="path5"
         d="m 42.597336,30.980477 c 0.222656,0 0.503906,0 0.503906,-0.304688 0,-0.292969 -0.28125,-0.292969 -0.492187,-0.292969 H 33.65593 c -0.210938,0 -0.503907,0 -0.503907,0.292969 0,0.304688 0.292969,0.304688 0.515625,0.304688 z m 0.01172,2.894531 c 0.210937,0 0.492187,0 0.492187,-0.292969 0,-0.304687 -0.28125,-0.304687 -0.503906,-0.304687 h -8.929688 c -0.222656,0 -0.515625,0 -0.515625,0.304687 0,0.292969 0.292969,0.292969 0.503907,0.292969 z m 0,0"
         style="fill:#000000;fill-opacity:1;fill-rule:nonzero;stroke:#000000;stroke-opacity:1" />
      <path
         id="path6"
         d="m 49.376633,28.730477 c -0.01172,0.105468 -0.01172,0.1875 -0.01172,0.257812 0,0.621094 0.527344,1.125 1.183594,1.125 1.511719,0 3.09375,-1.78125 3.9375,-4.429687 l 2.027344,-6.316407 -0.164063,-0.128906 c -0.410156,0.152344 -0.738281,0.246094 -1.054687,0.269531 l -0.503907,1.898438 c -0.175781,0.667969 -0.679687,1.722656 -1.148437,2.425781 -0.503906,0.726563 -1.207031,1.359375 -1.523438,1.359375 -0.164062,0 -0.292968,-0.328125 -0.28125,-0.691406 l 0.01172,-0.1875 0.210938,-2.777344 c 0.03516,-0.445312 0.05859,-0.996094 0.05859,-1.394531 0,-0.644531 -0.09375,-0.902344 -0.339843,-0.902344 -0.1875,0 -0.386719,0.105469 -1.078125,0.574219 l -1.171875,0.808594 0.152343,0.257812 0.714844,-0.433594 0.05859,-0.04687 c 0.140625,-0.08203 0.246094,-0.128906 0.304687,-0.128906 0.199219,0 0.316407,0.269531 0.316407,0.75 0,0.01172 0,0.09375 -0.01172,0.210938 l -0.246094,3.492187 -0.01172,0.574219 c 0,0.597656 0.257813,1.007812 0.609375,1.007812 0.539063,0 1.734375,-1.21875 2.8125,-2.835937 l -0.703125,2.449219 c -0.726562,2.542968 -1.441406,3.585937 -2.449218,3.585937 -0.503907,0 -0.890625,-0.386719 -0.890625,-0.878906 0,-0.08203 0.01172,-0.1875 0.02344,-0.316406 l -0.140625,-0.05859 z m 0,0"
         style="fill:#000000;fill-opacity:1;fill-rule:nonzero;stroke:#000000;stroke-opacity:1" />
    </g>
    <path
       id="path7"
       d="M 0,0 H 7.532"
       style="fill:none;stroke:#000000;stroke-width:0.574;stroke-linecap:butt;stroke-linejoin:miter;stroke-miterlimit:10;stroke-dasharray:none;stroke-opacity:1"
       transform="matrix(1.3333333,0,0,-1.3333333,196.864,183.14933)" />
    <g
       id="g7"
       aria-label="r&#10;Dominio=R,Rango=[-1,1],Periodo=2π"
       transform="matrix(1.3333333,0,0,1.3333333,197.97467,201.05333)"
       style="stroke:#000000;stroke-opacity:1">
      <path
         id="path8"
         d="m 5.2748594,-5.2372656 c 0.046875,-0.5390625 0.1171875,-0.9960938 0.234375,-1.59375 -0.1523438,-0.070312 -0.2109375,-0.082031 -0.28125,-0.082031 -0.4453125,0 -0.890625,0.3398438 -1.40625,1.078125 l -0.3867188,0.5625 c -0.5625,0.796875 -0.7382812,1.1015625 -0.9609375,1.6054688 l 0.1054688,-0.5976563 c 0.058594,-0.328125 0.1757812,-0.9023437 0.2578125,-1.21875 l 0.09375,-0.3632812 c 0.058594,-0.2460938 0.082031,-0.4335938 0.082031,-0.609375 0,-0.28125 -0.1171875,-0.4570313 -0.328125,-0.4570313 -0.3046875,0 -0.84375,0.3046875 -1.91015622,1.0664063 l -0.3984375,0.28125 0.09375,0.2929687 0.46875,-0.3046875 c 0.39843752,-0.2578125 0.55078122,-0.328125 0.67968752,-0.328125 0.1523437,0 0.2460937,0.1289063 0.2460937,0.3164063 0,0.8320312 -0.6210937,3.7851562 -1.18359372,5.61328123 l 0.140625,0.10546875 c 0.21093752,-0.0703125 0.44531252,-0.1171875 0.77343752,-0.1875 l 0.1875,-0.0234375 0.375,-1.72265628 c 0.2578125,-1.1953125 0.5859375,-1.9570312 1.21875,-2.765625 0.4804687,-0.6328125 0.8671875,-0.9375 1.1835937,-0.9375 0.2226563,0 0.3632813,0.070312 0.515625,0.2695313 z m 0,0"
         style="fill:#000000;fill-opacity:1;fill-rule:nonzero;stroke:#000000;stroke-opacity:1" />
      <path
         id="path9"
         d="m -49.314008,51.446328 v 0.328125 c 1.664063,-0.04687 1.664063,-0.04687 1.992188,-0.04687 0.257812,0 0.492187,0 0.75,0.01172 1.125,0.03516 1.125,0.03516 1.324218,0.03516 1.839844,0 3.222657,-0.480469 4.21875,-1.464844 1.03125,-1.019531 1.664063,-2.566406 1.664063,-4.101562 0,-2.671875 -1.980469,-4.40625 -5.003906,-4.40625 -0.105469,0 -0.28125,0 -0.539063,0.01172 -0.726562,0.01172 -1.335937,0.03516 -1.957031,0.03516 -0.527344,0 -1.324219,-0.02344 -2.953125,-0.04687 v 0.433594 l 0.574219,0.03516 c 0.65625,0.04687 0.726562,0.175781 0.726562,1.300781 v 6.796875 c 0,0.410156 -0.128906,0.726563 -0.351562,0.84375 z m 2.167969,-8.953125 c 0.363281,-0.07031 0.867187,-0.117187 1.582031,-0.117187 1.054688,0 2.203125,0.1875 2.800781,0.457031 0.316407,0.128906 0.585938,0.328125 0.84375,0.585937 0.691407,0.691407 1.019532,1.722657 1.019532,3.164063 0,1.605469 -0.480469,2.835937 -1.429688,3.609375 -0.867187,0.703125 -1.722656,0.949219 -3.339844,0.949219 -0.667968,0 -1.113281,-0.03516 -1.476562,-0.117188 z m 12.111328,2.507813 c -2.085937,0 -3.539062,1.476562 -3.539062,3.609375 0,2.027343 1.277343,3.398437 3.128906,3.398437 2.203125,0 3.785156,-1.523437 3.785156,-3.679687 0,-1.933594 -1.40625,-3.328125 -3.375,-3.328125 z m -0.257812,0.46875 c 1.324218,0 2.296875,1.441406 2.296875,3.386718 0,1.652344 -0.726563,2.683594 -1.886719,2.683594 -1.40625,0 -2.355469,-1.371094 -2.355469,-3.410156 0,-1.722656 0.691406,-2.660156 1.945313,-2.660156 z m 4.353515,0.515625 h 0.527344 c 0.574219,0 0.632812,0.105468 0.632812,1.054687 v 3.222656 c 0,0.902344 -0.03516,1.007813 -0.527343,1.03125 l -0.65625,0.04687 v 0.433594 c 1.371093,-0.04687 1.417968,-0.04687 1.816406,-0.04687 0.398437,0 0.773437,0.01172 1.710937,0.04687 v -0.433594 l -0.609375,-0.04687 c -0.480468,-0.02344 -0.527343,-0.128906 -0.527343,-1.03125 v -3.035156 c 0,-0.644531 0.949218,-1.347656 1.804687,-1.347656 0.773438,0 1.3125,0.726562 1.3125,1.816406 v 2.566406 c 0,0.902344 -0.04687,1.007813 -0.539062,1.03125 l -0.65625,0.04687 v 0.433594 c 1.429687,-0.04687 1.429687,-0.04687 1.792968,-0.04687 0.363282,0 0.363282,0 1.792969,0.04687 v -0.433594 l -0.65625,-0.04687 c -0.492187,-0.02344 -0.539062,-0.128906 -0.539062,-1.03125 v -3.035156 c 0,-0.644531 0.949218,-1.347656 1.816406,-1.347656 0.773437,0 1.300781,0.726562 1.300781,1.816406 v 4.078125 c 0.878906,-0.04687 0.890625,-0.04687 1.136719,-0.04687 0.1875,0 0.1875,0 1.277344,0.04687 v -0.433594 l -0.679688,-0.04687 c -0.480469,-0.02344 -0.527344,-0.128906 -0.527344,-1.03125 v -2.953125 c 0,-1.417968 -0.832031,-2.308593 -2.15625,-2.308593 -0.503906,0 -0.914062,0.128906 -1.171875,0.363281 l -1.089843,0.972656 c -0.457032,-0.949219 -1.054688,-1.335937 -2.039063,-1.335937 -0.527344,0 -0.9375,0.128906 -1.195312,0.363281 l -0.984375,0.914062 v -1.21875 l -0.128907,-0.05859 c -0.726562,0.304687 -1.476562,0.503906 -2.238281,0.585937 z m 15.105469,-0.925782 -0.128906,-0.05859 c -0.726563,0.304687 -1.476563,0.503906 -2.238282,0.585937 v 0.398438 h 0.527344 c 0.574219,0 0.632813,0.105468 0.632813,1.054687 v 3.222656 c 0,0.902344 -0.03516,1.007813 -0.527344,1.03125 l -0.65625,0.04687 v 0.433594 c 1.429687,-0.04687 1.429687,-0.04687 1.792969,-0.04687 0.351562,0 0.351562,0 1.792968,0.04687 v -0.433594 l -0.667968,-0.04687 c -0.480469,-0.02344 -0.527344,-0.128906 -0.527344,-1.03125 z m -0.65625,-3.1875 c -0.433594,0 -0.808594,0.375 -0.808594,0.808594 0,0.410156 0.375,0.785156 0.796875,0.785156 0.410156,0 0.796875,-0.375 0.796875,-0.785156 0,-0.410156 -0.386719,-0.808594 -0.785156,-0.808594 z m 8.0185546,9.902344 c 0.8789063,-0.04687 0.890625,-0.04687 1.1367188,-0.04687 0.1992187,0 0.1992187,0 1.1835937,0.04687 v -0.433594 l -0.5859375,-0.04687 c -0.4921875,-0.02344 -0.5273437,-0.117187 -0.5273437,-1.03125 v -2.765625 c 0,-1.675781 -0.796875,-2.496093 -2.4023438,-2.496093 -0.5273441,0 -0.8320311,0.105468 -1.1250001,0.363281 l -1.089844,0.9375 v -1.242188 l -0.128906,-0.05859 c -0.738281,0.304687 -1.488281,0.503906 -2.238281,0.585937 v 0.398438 h 0.527344 c 0.574218,0 0.632812,0.105468 0.632812,1.054687 v 3.222656 c 0,0.902344 -0.04687,1.007813 -0.539062,1.03125 l -0.644532,0.04687 v 0.433594 c 0.984375,-0.03516 1.371094,-0.04687 1.78125,-0.04687 0.421875,0 0.808594,0.01172 1.78125,0.04687 v -0.433594 l -0.644531,-0.04687 c -0.492187,-0.02344 -0.527344,-0.128906 -0.527344,-1.03125 v -3.035156 c 0,-0.644531 0.9375,-1.347656 1.816407,-1.347656 0.9609371,0 1.5937496,0.714844 1.5937496,1.816406 z m 5.1621094,-6.714844 -0.1289062,-0.05859 c -0.7265625,0.304687 -1.4765625,0.503906 -2.2382813,0.585937 v 0.398438 h 0.5273438 c 0.5742187,0 0.6328125,0.105468 0.6328125,1.054687 v 3.222656 c 0,0.902344 -0.035156,1.007813 -0.5273438,1.03125 l -0.65625,0.04687 v 0.433594 c 1.4296875,-0.04687 1.4296875,-0.04687 1.7929688,-0.04687 0.3515625,0 0.3515625,0 1.7929687,0.04687 v -0.433594 l -0.6679687,-0.04687 C -3.26225,51.270547 -3.309125,51.165078 -3.309125,50.262734 Z m -0.65625,-3.1875 c -0.4335937,0 -0.8085937,0.375 -0.8085937,0.808594 0,0.410156 0.375,0.785156 0.796875,0.785156 0.4101562,0 0.796875,-0.375 0.796875,-0.785156 0,-0.410156 -0.3867188,-0.808594 -0.7851563,-0.808594 z m 6.1318359,3.128907 c -2.08593746,0 -3.5390625,1.476562 -3.5390625,3.609375 0,2.027343 1.27734379,3.398437 3.1289063,3.398437 2.203125,0 3.7851562,-1.523437 3.7851562,-3.679687 0,-1.933594 -1.40625,-3.328125 -3.375,-3.328125 z m -0.2578125,0.46875 c 1.3242188,0 2.296875,1.441406 2.296875,3.386718 0,1.652344 -0.7265625,2.683594 -1.8867187,2.683594 -1.40625001,0 -2.35546876,-1.371094 -2.35546876,-3.410156 0,-1.722656 0.69140625,-2.660156 1.94531246,-2.660156 z m 16.2246096,0.726562 h -7.230469 v 0.796875 h 7.230469 z m 0,2.777344 h -7.230469 v 0.808594 h 7.230469 z m 0,0"
         style="fill:#000000;fill-opacity:1;fill-rule:nonzero;stroke:#000000;stroke-opacity:1" />
      <path
         id="path10"
         d="m 19.187945,42.235391 0.632813,0.03516 c 0.585937,0.04687 0.726562,0.164062 0.726562,1.300781 v 6.433594 c 0,1.136719 -0.140625,1.265625 -0.726562,1.289062 l -0.632813,0.04687 v 0.433594 c 0.84375,-0.03516 2.167969,-0.04687 2.90625,-0.04687 0.75,0 2.132813,0.01172 2.976563,0.04687 v -0.433594 l -0.691406,-0.04687 c -0.644532,-0.03516 -0.726563,-0.152343 -0.726563,-1.207031 v -7.570312 c 0.492188,-0.128907 0.914063,-0.164063 1.40625,-0.164063 1.488281,0 2.320313,0.679688 2.320313,1.898438 0,1.324218 -1.054688,2.15625 -2.71875,2.15625 -0.08203,0 -0.222657,0 -0.410157,-0.01172 l -0.08203,0.164062 c 0.152344,0.1875 0.199219,0.246094 0.363281,0.433594 0.210938,0.234375 0.246094,0.292969 0.375,0.457031 l 2.648438,3.550782 c 0.08203,0.105468 0.164062,0.222656 0.257812,0.328125 l 0.328125,0.445312 c 0.585938,-0.03516 0.796875,-0.04687 0.972657,-0.04687 0.152343,0 0.339843,0.01172 1.03125,0.04687 v -0.433594 c -0.457032,-0.04687 -0.691407,-0.128906 -0.878907,-0.375 l -3.246093,-4.242187 c 0.785156,-0.1875 1.136718,-0.351563 1.605468,-0.65625 0.785157,-0.550781 1.183594,-1.265625 1.183594,-2.109375 0,-1.394531 -0.984375,-2.15625 -2.8125,-2.15625 h -0.19922 c -0.28125,0.01172 -0.527343,0.01172 -0.726562,0.02344 -0.433594,0.02344 -0.972656,0.02344 -1.523438,0.02344 h -1.453125 c -0.738281,0 -2.0625,-0.02344 -2.90625,-0.04687 z m 3.09375,1.335937 v 6.433594 c 0,1.136719 -0.07031,1.253906 -0.527343,1.289062 -0.457032,-0.03516 -0.539063,-0.152343 -0.539063,-1.289062 v -6.433594 c 0,-1.136719 0.08203,-1.253906 0.539063,-1.300781 0.457031,0.03516 0.527343,0.164062 0.527343,1.300781 z m 0,0"
         style="fill:#000000;fill-opacity:1;fill-rule:nonzero;stroke:#000000;stroke-opacity:1" />
      <path
         id="path11"
         d="m 37.598102,49.958047 c -0.386719,0.128906 -0.644532,0.222656 -1.40625,0.433594 -0.105469,1.089843 -0.457032,2.027343 -1.289063,3.398437 l 0.199219,0.164063 0.585937,-0.28125 c 1.160157,-1.5 1.710938,-2.402344 2.109375,-3.503907 z m 7.924804,-7.441406 c 0.492188,-0.117188 0.925782,-0.164063 1.40625,-0.164063 1.5,0 2.332032,0.679688 2.332032,1.898438 0,1.324218 -1.054688,2.15625 -2.71875,2.15625 -0.09375,0 -0.222657,0 -0.410157,-0.01172 l -0.09375,0.164062 c 0.164063,0.1875 0.210938,0.246094 0.375,0.433594 0.199219,0.234375 0.246094,0.292969 0.375,0.457031 l 2.636719,3.550782 c 0.09375,0.105468 0.175781,0.222656 0.257813,0.328125 0.105468,0.128906 0.1875,0.257812 0.328125,0.445312 0.679687,-0.04687 0.820312,-0.04687 0.984375,-0.04687 0.128906,0 0.128906,0 1.03125,0.04687 v -0.433594 c -0.457032,-0.04687 -0.691407,-0.128906 -0.878907,-0.375 l -3.257812,-4.242187 c 0.808594,-0.199219 1.183594,-0.363281 1.652344,-0.691406 0.75,-0.527344 1.148437,-1.242188 1.148437,-2.074219 0,-1.382813 -1.007812,-2.15625 -2.777344,-2.15625 h -0.234375 c -1.863281,0.04687 -1.863281,0.04687 -2.355468,0.04687 -0.46875,0 -0.46875,0 -2.484375,-0.04687 v 0.433594 l 0.597656,0.03516 c 0.65625,0.04687 0.726562,0.175781 0.726562,1.300781 v 6.433594 c 0,1.136719 -0.07031,1.253906 -0.726562,1.289062 l -0.691406,0.04687 v 0.433594 c 0.84375,-0.03516 1.347656,-0.04687 2.097656,-0.04687 0.738281,0 1.253906,0.01172 2.109375,0.04687 v -0.433594 l -0.691406,-0.04687 c -0.65625,-0.03516 -0.738282,-0.152343 -0.738282,-1.289062 z m 11.141602,8.039062 -0.08203,1.21875 c 0.9375,-0.04687 0.9375,-0.04687 1.125,-0.04687 0.07031,0 0.433593,0.01172 1.066406,0.04687 v -0.433594 l -0.5625,-0.02344 c -0.351563,-0.02344 -0.410156,-0.140625 -0.410156,-0.832031 v -2.625 c 0,-2.097657 -0.597657,-2.859375 -2.261719,-2.859375 -0.621094,0 -1.183594,0.152343 -1.734375,0.492187 l -0.761719,0.457031 v 0.925782 l 0.375,0.105468 0.1875,-0.445312 c 0.304688,-0.679688 0.445313,-0.773438 1.101563,-0.773438 1.347656,0 1.910156,0.527344 1.957031,1.828125 l -1.429688,0.269532 c -1.945312,0.351562 -2.765625,1.03125 -2.765625,2.273437 0,1.125 0.679688,1.769531 1.804688,1.769531 0.257812,0 0.503906,-0.04687 0.609375,-0.117187 z m 0,-0.609375 c -0.421875,0.585938 -1.324219,1.136719 -1.886719,1.136719 -0.574219,0 -1.078125,-0.527344 -1.078125,-1.148438 0,-0.527343 0.292969,-1.03125 0.726563,-1.300781 0.351562,-0.222656 1.148437,-0.421875 2.238281,-0.574219 z m 8.402344,1.828125 c 0.878906,-0.04687 0.890625,-0.04687 1.136718,-0.04687 0.199219,0 0.199219,0 1.183594,0.04687 v -0.433594 l -0.585937,-0.04687 c -0.492188,-0.02344 -0.527344,-0.117187 -0.527344,-1.03125 v -2.765625 c 0,-1.675781 -0.796875,-2.496093 -2.402344,-2.496093 -0.527344,0 -0.832031,0.105468 -1.125,0.363281 l -1.089844,0.9375 v -1.242188 l -0.128906,-0.05859 c -0.738281,0.304687 -1.488281,0.503906 -2.238281,0.585937 v 0.398438 h 0.527344 c 0.574218,0 0.632812,0.105468 0.632812,1.054687 v 3.222656 c 0,0.902344 -0.04687,1.007813 -0.539062,1.03125 l -0.644532,0.04687 v 0.433594 c 0.984375,-0.03516 1.371094,-0.04687 1.78125,-0.04687 0.421875,0 0.808594,0.01172 1.78125,0.04687 v -0.433594 l -0.644531,-0.04687 c -0.492187,-0.02344 -0.527344,-0.128906 -0.527344,-1.03125 v -3.035156 c 0,-0.644531 0.9375,-1.347656 1.816407,-1.347656 0.960937,0 1.59375,0.714844 1.59375,1.816406 z m 9.908203,-5.472656 0.363281,-0.585938 -0.05859,-0.175781 -2.039062,0.05859 c -0.527344,-0.421875 -1.042969,-0.597656 -1.746094,-0.597656 -0.632813,0 -1.359375,0.199218 -1.957031,0.539062 -0.796875,0.46875 -1.21875,1.171875 -1.21875,2.039063 0,1.066406 0.667968,1.792968 1.722656,1.910156 l -1.125,0.878906 c -0.152344,0.210938 -0.222656,0.398438 -0.222656,0.609375 0,0.410156 0.257812,0.632813 0.949218,0.832031 l -1.253906,0.679688 c -0.199219,0.117187 -0.398437,0.644531 -0.398437,1.089844 0,1.300781 1.277343,2.203125 3.105468,2.203125 2.15625,0 3.867188,-1.359375 3.867188,-3.105469 0,-1.03125 -0.691406,-1.757813 -1.6875,-1.757813 h -2.296875 c -0.75,0 -1.089844,-0.164062 -1.089844,-0.550781 0,-0.1875 0.117188,-0.351562 0.480469,-0.667969 0.09375,-0.07031 0.117187,-0.09375 0.175781,-0.152343 0.140625,0.01172 0.234375,0.02344 0.339844,0.02344 0.621094,0 1.382812,-0.269531 1.96875,-0.679687 0.644531,-0.480469 0.960937,-1.054688 0.960937,-1.816407 0,-0.28125 -0.04687,-0.46875 -0.152343,-0.773437 z m -3.996094,-0.808594 c 0.972656,0 1.628906,0.796875 1.628906,2.015625 0,0.9375 -0.597656,1.582031 -1.476562,1.582031 -0.960938,0 -1.605469,-0.75 -1.605469,-1.851562 0,-1.101563 0.527344,-1.746094 1.453125,-1.746094 z m 0.667969,6.433594 c 1.628906,0 2.179687,0.328125 2.179687,1.265625 0,1.230469 -1.125,2.144531 -2.636719,2.144531 -1.242187,0 -2.109375,-0.726562 -2.109375,-1.792969 0,-0.644531 0.375,-1.230468 0.949219,-1.476562 0.234375,-0.105469 0.632813,-0.140625 1.617188,-0.140625 z m 7.860351,-6.925781 c -2.085937,0 -3.539062,1.476562 -3.539062,3.609375 0,2.027343 1.277344,3.398437 3.128906,3.398437 2.203125,0 3.785156,-1.523437 3.785156,-3.679687 0,-1.933594 -1.40625,-3.328125 -3.375,-3.328125 z m -0.257812,0.46875 c 1.324219,0 2.296875,1.441406 2.296875,3.386718 0,1.652344 -0.726563,2.683594 -1.886719,2.683594 -1.40625,0 -2.355469,-1.371094 -2.355469,-3.410156 0,-1.722656 0.691407,-2.660156 1.945313,-2.660156 z m 12.049804,0.726562 h -7.230468 v 0.796875 h 7.230468 z m 0,2.777344 h -7.230468 v 0.808594 h 7.230468 z m 2.003907,5.390625 c 1.019531,-0.02344 1.042968,-0.02344 1.382812,-0.02344 0.351563,0 0.421875,0 1.394531,0.02344 l 0.09375,-0.08203 v -0.375 l -0.05859,-0.07031 h -0.550782 c -0.386718,0 -0.703125,-0.08203 -0.878906,-0.234375 -0.128906,-0.128906 -0.164062,-0.328125 -0.164062,-0.796875 0,-0.01172 0,-0.316406 -0.01172,-0.75 v -8.4375 c 0.01172,-0.398437 0.01172,-0.714844 0.01172,-0.726562 0,-0.46875 0.03516,-0.691407 0.164062,-0.820313 0.175781,-0.140625 0.492188,-0.222656 0.878906,-0.222656 h 0.550782 l 0.05859,-0.07031 v -0.375 l -0.09375,-0.09375 c -1.007812,0.03516 -1.042968,0.03516 -1.394531,0.03516 -0.328125,0 -0.398437,0 -1.382812,-0.03516 l -0.128907,0.1875 c 0.08203,0.363282 0.105469,0.832032 0.105469,1.945313 0,0.210937 0,0.386719 0.02344,0.527344 v 7.746093 c -0.02344,0.222657 -0.02344,0.246094 -0.02344,0.480469 v 0.164063 c 0,0.972656 -0.02344,1.371093 -0.105469,1.816406 z m 7.55566,-5.71875 0.4336,-0.960938 -0.0703,-0.07031 h -3.773442 l -0.386719,0.960937 0.07031,0.07031 z m 1.69336,-4.875 h 0.14063 l 1.85156,-0.832031 c 0.0117,-0.02344 0.0352,-0.02344 0.0469,-0.02344 0.082,0 0.11718,0.128906 0.11718,0.480469 v 6.949219 c 0,0.75 -0.16406,0.914062 -0.9375,0.949218 l -0.79687,0.04687 v 0.433594 c 2.20312,-0.04687 2.20312,-0.04687 2.35547,-0.04687 0.1875,0 0.5039,0 0.99609,0.01172 0.17578,0.01172 0.66797,0.01172 1.26563,0.03516 v -0.433594 l -0.75,-0.04687 c -0.78516,-0.03516 -0.9375,-0.199218 -0.9375,-0.949218 V 41.84868 l -0.19922,-0.07031 c -0.92578,0.480469 -1.94532,0.914063 -3.25782,1.371094 z m 9.14356,6.1875 c -0.38672,0.128906 -0.64453,0.222656 -1.40625,0.433594 -0.10547,1.089843 -0.45703,2.027343 -1.28906,3.398437 l 0.19921,0.164063 0.58594,-0.28125 c 1.16016,-1.5 1.71094,-2.402344 2.10938,-3.503907 z m 1.61719,-6.1875 h 0.14062 l 1.85156,-0.832031 c 0.0117,-0.02344 0.0352,-0.02344 0.0469,-0.02344 0.082,0 0.11719,0.128906 0.11719,0.480469 v 6.949219 c 0,0.75 -0.16407,0.914062 -0.9375,0.949218 l -0.79688,0.04687 v 0.433594 c 2.20313,-0.04687 2.20313,-0.04687 2.35547,-0.04687 0.1875,0 0.50391,0 0.99609,0.01172 0.17578,0.01172 0.66797,0.01172 1.26563,0.03516 v -0.433594 l -0.75,-0.04687 c -0.78516,-0.03516 -0.9375,-0.199218 -0.9375,-0.949218 V 41.84868 l -0.19922,-0.07031 c -0.92578,0.480469 -1.94531,0.914063 -3.25781,1.371094 z m 9.72656,-2.460938 c -1.01953,0.03516 -1.06641,0.03516 -1.39453,0.03516 -0.33985,0 -0.41016,0 -1.39453,-0.03516 l -0.082,0.09375 v 0.375 l 0.0586,0.07031 h 0.53906 c 0.39844,0 0.69141,0.08203 0.86719,0.222656 0.14062,0.128906 0.1875,0.328125 0.1875,0.820313 0,0.04687 0,0.328125 0.0117,0.726562 v 8.4375 c -0.0117,0.421875 -0.0117,0.679688 -0.0117,0.714844 0,0.492187 -0.0469,0.703125 -0.1875,0.832031 -0.17578,0.152344 -0.46875,0.234375 -0.86719,0.234375 h -0.53906 l -0.0586,0.07031 v 0.375 l 0.082,0.08203 c 1.00781,-0.02344 1.04296,-0.02344 1.39453,-0.02344 0.32812,0 0.39843,0 1.39453,0.02344 l 0.1289,-0.1875 c -0.082,-0.339844 -0.10546,-0.785156 -0.11718,-1.886719 0,-0.199219 0,-0.386719 -0.0117,-0.574219 v -7.746093 c 0.0117,-0.164063 0.0117,-0.351563 0.0117,-0.550782 0,-1.101562 0.0352,-1.570312 0.11718,-1.921875 z m 8.36719,8.648438 c -0.38672,0.128906 -0.64454,0.222656 -1.40625,0.433594 -0.10547,1.089843 -0.45704,2.027343 -1.28907,3.398437 l 0.19922,0.164063 0.58594,-0.28125 c 1.16016,-1.5 1.71094,-2.402344 2.10937,-3.503907 z m 3.75,-7.441406 c 0.5039,-0.117188 0.92578,-0.164063 1.40625,-0.164063 1.55859,0 2.39062,0.714844 2.39062,2.074219 0,1.289062 -0.87891,2.191406 -2.13281,2.191406 -0.29297,0 -0.51563,-0.02344 -0.89063,-0.140625 l 0.15235,0.515625 c 0.33984,0.07031 0.53906,0.08203 0.83203,0.08203 1.95703,0 3.46875,-1.324218 3.46875,-3.046875 0,-1.382812 -1.125,-2.226562 -2.94141,-2.226562 -0.0703,0 -0.21094,0 -0.39844,0.01172 -0.53906,0.01172 -1.6289,0.03516 -2.03906,0.03516 -0.3164,0 -0.3164,0 -2.61328,-0.04687 V 42.2354 l 0.64453,0.03516 c 0.64453,0.04687 0.76172,0.234375 0.76172,1.300781 v 6.433594 c 0,1.136719 -0.0703,1.253906 -0.72656,1.289062 l -0.69141,0.04687 v 0.433594 c 0.84375,-0.03516 1.34766,-0.04687 2.09766,-0.04687 0.73828,0 1.2539,0.01172 2.10937,0.04687 v -0.433594 l -0.6914,-0.04687 c -0.65625,-0.03516 -0.73828,-0.152343 -0.73828,-1.289062 z m 11.84179,8.203125 -0.1875,-0.140625 c -0.91406,0.550781 -1.2539,0.679687 -1.86328,0.679687 -0.9375,0 -1.71094,-0.421875 -2.10937,-1.125 -0.26954,-0.46875 -0.375,-0.878906 -0.39844,-1.710937 h 2.08594 c 0.99609,0 1.60546,-0.03516 2.60156,-0.199219 0.0117,-0.199219 0.0234,-0.328125 0.0234,-0.492188 0,-1.652343 -1.05469,-2.730468 -2.66016,-2.730468 -0.53906,0 -1.14844,0.1875 -1.73438,0.527343 -1.18359,0.679688 -1.65234,1.570313 -1.65234,3.058594 0,0.902344 0.21094,1.675781 0.59766,2.226563 0.57422,0.761718 1.53515,1.195312 2.61328,1.195312 0.52734,0 1.0664,-0.105469 1.65234,-0.363281 0.38672,-0.164063 0.69141,-0.351563 0.73828,-0.433594 z m -1.125,-2.824219 c -0.73828,0.03516 -1.08984,0.04687 -1.60547,0.04687 -0.65625,0 -1.03125,-0.01172 -1.80468,-0.08203 0,-0.679688 0.0586,-0.996094 0.24609,-1.371094 0.30469,-0.632813 0.91406,-1.019531 1.60547,-1.019531 0.46875,0 0.84375,0.1875 1.10156,0.574218 0.31641,0.480469 0.42188,0.890625 0.45703,1.851563 z m 2.05371,-1.910156 h 0.52735 c 0.57422,0 0.63281,0.105468 0.63281,1.054687 v 3.222656 c 0,0.902344 -0.0352,1.007813 -0.52734,1.03125 l -0.65625,0.04687 v 0.433594 c 1.03125,-0.03516 1.40625,-0.04687 1.75781,-0.04687 0.29297,0 0.29297,0 2.05078,0.04687 v -0.433594 l -0.73828,-0.04687 c -0.64453,-0.03516 -0.67969,-0.08203 -0.67969,-1.03125 v -2.460937 c 0,-0.867188 0.57422,-1.582031 1.27734,-1.582031 0.4336,0 0.72657,0.199218 0.96094,0.65625 h 0.30469 l 0.12891,-1.722657 c -0.16407,-0.09375 -0.42188,-0.152343 -0.67969,-0.152343 -0.42188,0 -0.89063,0.234375 -1.1836,0.585937 l -0.80859,0.949219 v -1.476563 l -0.12891,-0.05859 c -0.72656,0.304687 -1.47656,0.503906 -2.23828,0.585937 z m 8.03614,-0.925782 -0.12891,-0.05859 c -0.72656,0.304687 -1.47656,0.503906 -2.23828,0.585937 v 0.398438 h 0.52734 c 0.57422,0 0.63281,0.105468 0.63281,1.054687 v 3.222656 c 0,0.902344 -0.0352,1.007813 -0.52734,1.03125 l -0.65625,0.04687 v 0.433594 c 1.42969,-0.04687 1.42969,-0.04687 1.79297,-0.04687 0.35156,0 0.35156,0 1.79297,0.04687 v -0.433594 l -0.66797,-0.04687 c -0.48047,-0.02344 -0.52734,-0.128906 -0.52734,-1.03125 z m -0.65625,-3.1875 c -0.4336,0 -0.8086,0.375 -0.8086,0.808594 0,0.410156 0.375,0.785156 0.79688,0.785156 0.41015,0 0.79687,-0.375 0.79687,-0.785156 0,-0.410156 -0.38672,-0.808594 -0.78515,-0.808594 z m 6.13183,3.128907 c -2.08594,0 -3.53906,1.476562 -3.53906,3.609375 0,2.027343 1.27734,3.398437 3.12891,3.398437 2.20312,0 3.78515,-1.523437 3.78515,-3.679687 0,-1.933594 -1.40625,-3.328125 -3.375,-3.328125 z m -0.25781,0.46875 c 1.32422,0 2.29687,1.441406 2.29687,3.386718 0,1.652344 -0.72656,2.683594 -1.88671,2.683594 -1.40625,0 -2.35547,-1.371094 -2.35547,-3.410156 0,-1.722656 0.6914,-2.660156 1.94531,-2.660156 z m 9.99902,-0.01172 c -0.79687,-0.339844 -1.20703,-0.457031 -1.69922,-0.457031 -0.38671,0 -0.73828,0.08203 -1.08984,0.269531 l -1.26562,0.667969 c -0.82032,0.421875 -1.34766,1.476562 -1.34766,2.695312 0,1.148438 0.38672,2.085938 1.08984,2.660156 0.48047,0.421875 1.16016,0.609375 2.09766,0.609375 0.28125,0 0.60937,-0.05859 0.67969,-0.117187 l 1.59375,-1.335938 -0.0703,1.324219 c 0.70313,-0.03516 0.9375,-0.04687 1.10157,-0.04687 0.11718,0 0.3164,0 0.62109,0.01172 0.10547,0.01172 0.38672,0.01172 0.69141,0.03516 v -0.433594 l -0.66797,-0.04687 c -0.48047,-0.02344 -0.52735,-0.128906 -0.52735,-1.03125 v -8.835937 l -0.1289,-0.117188 c -0.63281,0.246094 -1.10156,0.363282 -2.23828,0.539063 v 0.398437 h 0.80859 c 0.25781,0 0.35156,0.152344 0.35156,0.585938 z m 0,3.09375 c 0,0.9375 -0.0234,1.078125 -0.21093,1.40625 -0.39844,0.679687 -1.10157,1.125 -1.78125,1.125 -1.26563,0 -2.16797,-1.21875 -2.16797,-2.929688 0,-1.558593 0.77343,-2.484375 2.07422,-2.484375 0.53906,0 1.11328,0.1875 1.61718,0.539063 0.30469,0.199219 0.46875,0.386719 0.46875,0.503906 z m 6.85547,-3.550781 c -2.08594,0 -3.53906,1.476562 -3.53906,3.609375 0,2.027343 1.27734,3.398437 3.12891,3.398437 2.20312,0 3.78515,-1.523437 3.78515,-3.679687 0,-1.933594 -1.40625,-3.328125 -3.375,-3.328125 z m -0.25781,0.46875 c 1.32422,0 2.29687,1.441406 2.29687,3.386718 0,1.652344 -0.72656,2.683594 -1.88671,2.683594 -1.40625,0 -2.35547,-1.371094 -2.35547,-3.410156 0,-1.722656 0.6914,-2.660156 1.94531,-2.660156 z m 16.22754,0.726562 h -7.23047 v 0.796875 h 7.23047 z m 0,2.777344 h -7.23047 v 0.808594 h 7.23047 z m 5.14453,2.425781 v 0.375 c 2.67187,-0.04687 2.67187,-0.04687 3.19922,-0.04687 0.51562,0 0.51562,0 3.28125,0.04687 -0.0352,-0.304687 -0.0352,-0.445312 -0.0352,-0.644531 0,-0.1875 0,-0.339844 0.0352,-0.644531 -1.65235,0.07031 -2.3086,0.08203 -4.96875,0.140625 l 2.61328,-2.765625 c 1.39453,-1.488282 1.82812,-2.273438 1.82812,-3.351563 0,-1.640625 -1.125,-2.660156 -2.9414,-2.660156 -1.04297,0 -1.73438,0.28125 -2.4375,0.996094 l -0.2461,1.957031 h 0.41016 l 0.1875,-0.65625 c 0.23438,-0.832031 0.75,-1.195313 1.71094,-1.195313 1.23047,0 2.01562,0.773438 2.01562,1.992188 0,1.078125 -0.59765,2.132812 -2.21484,3.855469 z m 0,0"
         style="fill:#000000;fill-opacity:1;fill-rule:nonzero;stroke:#000000;stroke-opacity:1" />
      <path
         id="path12"
         d="m 207.65181,46.665078 0.12891,-0.105469 c 0.29297,-0.855468 0.86719,-0.902343 1.6875,-0.902343 0.17578,0 0.43359,0.01172 0.72656,0.01172 -1.19531,3.28125 -1.74609,4.265625 -2.90625,6.082032 l 0.12891,0.128906 1.05468,-0.363281 c 0.52735,-1.125 1.39454,-3.304688 2.19141,-5.824219 l 2.66016,0.09375 c -0.2461,0.890625 -1.07813,3.492187 -1.07813,4.40625 0,1.511719 0.55078,1.6875 0.9961,1.6875 0.72656,0 1.14843,-0.175781 2.05078,-0.9375 l -0.11719,-0.28125 -0.33984,0.246094 c 0.0352,-0.02344 -0.375,0.304687 -0.6211,0.304687 -0.66797,0 -0.8789,-0.421875 -0.8789,-1.300781 0,-0.363281 0.0352,-0.75 0.11718,-1.171875 0.2461,-1.183594 0.49219,-2.367188 0.6211,-2.953125 0.32812,0 0.65625,-0.01172 0.98437,-0.05859 0.25781,0 0.57422,-0.140625 0.8086,-0.222656 0.15234,-0.304688 0.21093,-0.328125 0.48046,-0.679688 l -0.0937,-0.164062 c -0.38671,0.128906 -1.03125,0.269531 -1.51171,0.269531 -0.16407,0.01172 -0.52735,0.02344 -0.89063,0.02344 -1.52344,-0.01172 -3.89062,-0.128907 -4.52344,-0.128907 -1.07812,0 -1.46484,0.480469 -1.88672,1.722657 z m 0,0"
         style="fill:#000000;fill-opacity:1;fill-rule:nonzero;stroke:#000000;stroke-opacity:1" />
    </g>
  </g>
</svg>
