<?xml version="1.0" encoding="UTF-8" standalone="no"?>
<!-- Created with Inkscape (http://www.inkscape.org/) -->

<svg
   version="1.1"
   id="svg1"
   width="162.85715"
   height="47.619049"
   viewBox="0 0 162.85715 47.619049"
   sodipodi:docname="writetex.pdf"
   inkscape:export-batch-path="..\Akemicos\Akdemicos-Front\public"
   inkscape:export-batch-name="senoHiperbolico"
   xmlns:inkscape="http://www.inkscape.org/namespaces/inkscape"
   xmlns:sodipodi="http://sodipodi.sourceforge.net/DTD/sodipodi-0.dtd"
   xmlns="http://www.w3.org/2000/svg"
   xmlns:svg="http://www.w3.org/2000/svg">
  <defs
     id="defs1">
    <clipPath
       clipPathUnits="userSpaceOnUse"
       id="clipPath236">
      <rect
         style="fill:#000000"
         id="rect237"
         width="162.85715"
         height="47.619049"
         x="129.5238"
         y="163.80952" />
    </clipPath>
  </defs>
  <sodipodi:namedview
     id="namedview1"
     pagecolor="#ffffff"
     bordercolor="#000000"
     borderopacity="0.25"
     inkscape:showpageshadow="2"
     inkscape:pageopacity="0.0"
     inkscape:pagecheckerboard="0"
     inkscape:deskcolor="#d1d1d1"
     showgrid="false">
    <inkscape:page
       x="0"
       y="0"
       width="162.85715"
       height="47.619049"
       id="page1"
       margin="0"
       bleed="0" />
  </sodipodi:namedview>
  <g
     id="g1"
     inkscape:groupmode="layer"
     inkscape:label="1"
     clip-path="url(#clipPath236)"
     style="stroke:#000000;stroke-width:0.623622;stroke-dasharray:none;stroke-opacity:1"
     transform="translate(-129.5238,-163.80952)">
    <g
       id="g2"
       aria-label="Senohiperbolico&#10;sinh(α)=&#10;e&#10;α&#10;−e&#10;−α"
       transform="matrix(1.3333333,0,0,1.3333333,131.12933,140.54133)"
       style="stroke:#000000;stroke-width:0.467717;stroke-dasharray:none;stroke-opacity:1">
      <path
         id="path2"
         d="m 1.0309297,-2.8933047 c 0,1.078125 -0.0585938,1.6640625 -0.21093751,2.48437501 1.04296871,0.46875 1.91015621,0.65625 2.97656251,0.65625 2.5664062,0 4.21875,-1.33593751 4.21875,-3.39843751 0,-1.2773437 -0.7382813,-2.15625 -2.1679688,-2.53125 l -1.6289062,-0.421875 c -1.0664063,-0.28125 -1.5234375,-0.7265625 -1.5234375,-1.453125 0,-0.9960937 0.7851562,-1.6757812 1.921875,-1.6757812 0.7617187,0 1.40625,0.2578125 1.9570312,0.7851562 l 0.082031,1.171875 h 0.5859375 c 0,-0.9257812 0.070312,-1.6171875 0.1992187,-2.0273437 L 7.3707734,-9.4792422 C 6.4098359,-9.8190859 5.6598359,-9.9714297 4.7223359,-9.9714297 c -2.3789062,0 -3.80859371,1.1484375 -3.80859371,3.0703125 0,1.2421875 0.75000001,2.1445313 2.09765621,2.5429688 l 2.0039063,0.5976562 c 0.8085937,0.2460938 1.1953125,0.6914063 1.1953125,1.3828125 0,1.0546875 -0.9140625,1.85156251 -2.15625,1.85156251 -0.9726563,0 -1.8984375,-0.43359375 -2.34375,-1.11328121 L 1.6051484,-2.8933047 Z M 15.37468,-4.2292422 c 0,-1.5351562 -1.078125,-2.53125 -2.707032,-2.53125 -0.503906,0 -0.878906,0.1054688 -1.265625,0.3398438 l -0.667968,0.3984375 c -0.9492191,0.5625 -1.3710941,1.4179687 -1.3710941,2.7773437 0,2.28515626 1.1484371,3.49218751 3.2929691,3.49218751 0.808593,0 1.347656,-0.140625 2.261718,-0.62109375 l 0.316407,-0.69140626 -0.175782,-0.2109375 c -0.667968,0.37500001 -1.101562,0.50390626 -1.675781,0.50390626 -0.75,0 -1.441406,-0.39843746 -1.804687,-1.01953126 -0.234375,-0.3984375 -0.316407,-0.7265625 -0.339844,-1.40625 h 1.875 c 0.820312,0 1.464844,-0.082031 2.261719,-0.28125 z m -3.023438,0.3164063 h -0.05859 c -0.08203,0 -0.46875,-0.011719 -0.691406,-0.035156 l -0.457031,-0.011719 c 0.04687,-1.4179688 0.386719,-1.9921875 1.21875,-1.9921875 0.820312,0 1.160156,0.5742187 1.195312,1.9921875 z m 3.925781,-1.7109375 0.644532,0.046875 c 0.339843,0.023437 0.375,0.1523437 0.375,1.0078125 v 3.140625 c 0,0.77343746 -0.07031,0.87890621 -0.515625,0.91406246 l -0.503907,0.0234375 v 0.5390625 l 1.851563,-0.046875 c 0.292969,0 0.984375,0.01171875 1.945312,0.046875 v -0.5390625 l -0.503906,-0.0234375 c -0.445312,-0.0351563 -0.515625,-0.140625 -0.515625,-0.91406246 v -3.1171875 c 0,-0.5039063 0.585938,-0.9726563 1.21875,-0.9726563 0.9375,0 1.347656,0.5039063 1.347656,1.6523438 v 3.91406246 c 0.808594,-0.03515625 1.054688,-0.046875 1.289063,-0.046875 0.199219,0 0.199219,0 1.441406,0.046875 v -0.5390625 l -0.46875,-0.0234375 c -0.445312,-0.0351563 -0.515625,-0.140625 -0.515625,-0.91406246 v -2.671875 c 0,-1.1015625 -0.128906,-1.6523438 -0.503906,-2.0507813 -0.375,-0.3867187 -0.960938,-0.609375 -1.664063,-0.609375 -0.433593,0 -0.773437,0.09375 -0.996093,0.28125 l -1.148438,0.890625 v -1.078125 l -0.09375,-0.09375 c -1.488281,0.4921875 -1.886719,0.5742188 -2.683594,0.6210938 z m 12.539063,-1.1367188 c -2.273438,0 -3.539063,1.265625 -3.539063,3.5507813 0,2.203125 1.171875,3.45703121 3.257813,3.45703121 2.296875,0 3.585937,-1.31250001 3.585937,-3.63281251 0,-2.1796875 -1.183593,-3.375 -3.304687,-3.375 z m -0.164063,0.6914063 c 1.03125,0 1.511719,1.0195312 1.511719,3.1289062 0,1.7460938 -0.398437,2.49609376 -1.371094,2.49609376 -1.03125,0 -1.570312,-1.04296876 -1.570312,-3.11718746 0,-1.734375 0.433594,-2.5078125 1.429687,-2.5078125 z m 11.203125,-4.2539061 -1.03125,0.316406 c -0.375,0.1054688 -0.855468,0.1992188 -1.628906,0.2929688 v 0.515625 l 0.644531,0.046875 c 0.339844,0.035156 0.375,0.1640625 0.375,1.0078125 v 6.7148438 c 0,0.77343746 -0.07031,0.87890621 -0.515625,0.91406246 l -0.503906,0.0234375 v 0.5390625 l 1.851563,-0.046875 c 0.292968,0 0.984375,0.01171875 1.945312,0.046875 v -0.5390625 l -0.503906,-0.0234375 c -0.445313,-0.0351563 -0.515625,-0.140625 -0.515625,-0.91406246 v -3.1171875 c 0,-0.5039063 0.585937,-0.9726563 1.21875,-0.9726563 0.9375,0 1.347656,0.5039063 1.347656,1.6640625 v 3.90234376 c 0.808594,-0.03515625 1.054688,-0.046875 1.289063,-0.046875 0.199218,0 0.199218,0 1.441406,0.046875 v -0.5390625 l -0.46875,-0.0234375 c -0.445313,-0.0351563 -0.515625,-0.140625 -0.515625,-0.91406246 v -2.671875 c 0,-1.1015625 -0.128906,-1.6523438 -0.503906,-2.0507813 -0.375,-0.3867187 -0.960938,-0.609375 -1.664063,-0.609375 -0.433594,0 -0.773437,0.09375 -0.996094,0.28125 l -1.148437,0.890625 v -4.6523438 z m 8.882813,3.5624998 -1.007813,0.3164063 c -0.457031,0.1523437 -0.808593,0.2109375 -1.40625,0.28125 -0.04687,0 -0.117187,0.011719 -0.210937,0.023437 v 0.515625 l 0.644531,0.046875 c 0.328125,0.023437 0.375,0.1523437 0.375,1.0078125 v 3.140625 c 0,0.77343746 -0.08203,0.87890621 -0.527344,0.91406246 l -0.492187,0.0234375 v 0.5390625 l 1.851562,-0.046875 c 0.28125,0 0.972657,0.01171875 1.933594,0.046875 v -0.5390625 l -0.503906,-0.0234375 c -0.445313,-0.0351563 -0.515625,-0.140625 -0.515625,-0.91406246 v -5.2382813 z m -0.773438,-3.3632808 c -0.621093,0 -1.101562,0.4570308 -1.101562,1.0546871 0,0.609375 0.480469,1.0898437 1.078125,1.0898437 0.585937,0 1.078125,-0.4804687 1.078125,-1.0664062 0,-0.5976563 -0.46875,-1.0781246 -1.054688,-1.0781246 z m 5.469727,3.3632808 -0.996094,0.3164063 c -0.492187,0.1523437 -0.738281,0.1875 -1.464844,0.2929687 l -0.164062,0.011719 v 0.515625 l 0.65625,0.046875 c 0.328125,0.023437 0.363281,0.1523437 0.363281,1.0078125 v 6.796875 c 0,0.7734375 -0.07031,0.890625 -0.515625,0.9140625 l -0.503906,0.035156 v 0.5273438 l 1.851562,-0.046875 c 0.1875,0 0.222657,0 2.085938,0.046875 V 3.1770078 L 54.102219,3.1418516 C 53.656906,3.1301328 53.586594,3.0012266 53.586594,2.2277891 V 0.00122656 c 0.703125,0.19921875 0.925781,0.24609375 1.277343,0.24609375 0.480469,0 0.984375,-0.2578125 1.957032,-1.03125 0.09375,-0.0585938 0.175781,-0.12890625 0.246093,-0.1875 0.949219,-0.71484371 1.464844,-1.83984371 1.464844,-3.12890621 0,-1.5234375 -1.101562,-2.6601563 -2.601562,-2.6601563 -0.550782,0 -0.972657,0.1640625 -1.476563,0.5625 l -0.867187,0.703125 v -1.171875 z m 0.152344,2.015625 c 0.316406,-0.4804687 0.785156,-0.7148437 1.371093,-0.7148437 1.101563,0 1.769532,0.8554687 1.769532,2.2851562 0,1.5 -0.644532,2.44921876 -1.699219,2.44921876 -0.597656,0 -1.054688,-0.24609375 -1.441406,-0.79687496 z m 12.1875,0.515625 c 0,-1.5351562 -1.078125,-2.53125 -2.707032,-2.53125 -0.503906,0 -0.878906,0.1054688 -1.265625,0.3398438 l -0.667968,0.3984375 c -0.949219,0.5625 -1.371094,1.4179687 -1.371094,2.7773437 0,2.28515626 1.148437,3.49218751 3.292969,3.49218751 0.808593,0 1.347656,-0.140625 2.261718,-0.62109375 l 0.316407,-0.69140626 -0.175782,-0.2109375 c -0.667968,0.37500001 -1.101562,0.50390626 -1.675781,0.50390626 -0.75,0 -1.441406,-0.39843746 -1.804687,-1.01953126 -0.234375,-0.3984375 -0.316407,-0.7265625 -0.339844,-1.40625 h 1.875 c 0.820312,0 1.464844,-0.082031 2.261719,-0.28125 z m -3.023438,0.3164063 h -0.05859 c -0.08203,0 -0.46875,-0.011719 -0.691406,-0.035156 l -0.457031,-0.011719 c 0.04687,-1.4179688 0.386719,-1.9921875 1.21875,-1.9921875 0.820312,0 1.160156,0.5742187 1.195312,1.9921875 z m 6.644531,-2.8476563 -1.007812,0.3164063 c -0.457031,0.1523437 -0.714844,0.1875 -1.617188,0.3046875 v 0.515625 l 0.644532,0.046875 c 0.328125,0.023437 0.375,0.1523437 0.375,1.0078125 v 3.140625 c 0,0.77343746 -0.07031,0.87890621 -0.515625,0.91406246 l -0.503907,0.0234375 v 0.5390625 l 1.851563,-0.046875 c 0.1875,0 0.222656,0 2.15625,0.046875 v -0.5390625 l -0.550781,-0.0234375 c -0.621094,-0.0351563 -0.691407,-0.1171875 -0.691407,-0.91406246 v -2.8476563 c 0,-0.4453125 0.585938,-0.9140625 1.148438,-0.9140625 0.351562,0 0.621094,0.1757813 0.820312,0.515625 l 0.339844,-0.140625 0.07031,-1.8515625 c -0.140625,-0.058594 -0.328125,-0.09375 -0.527344,-0.09375 -0.398438,0 -0.679688,0.1757813 -1.21875,0.7617188 l -0.632813,0.6914062 v -1.359375 z m 5.545899,-3.4804688 -0.117188,-0.08203 -1.03125,0.316406 c -0.410156,0.1289063 -0.902343,0.2109376 -1.734375,0.2929688 v 0.515625 l 0.761719,0.046875 c 0.316406,0.011719 0.375,0.1640625 0.375,1.0078125 v 5.8242188 c 0,0.7617187 -0.04687,1.61718746 -0.128906,2.37890621 l 0.316406,0.1171875 0.5625,-0.45703125 c 0.65625,0.3515625 1.253906,0.52734375 1.875,0.52734375 0.445313,0 0.832031,-0.1171875 1.242188,-0.36328125 0.574218,-0.33984375 1.242187,-0.78515625 1.640625,-1.11328126 0.714843,-0.5859375 1.195312,-1.6992187 1.195312,-2.8007812 0,-1.59375 -1.078125,-2.7304688 -2.601562,-2.7304688 -0.5625,0 -0.972657,0.1640625 -1.476563,0.5625 l -0.878906,0.703125 z m 0,5.4960938 c 0.316406,-0.4804687 0.796875,-0.7148437 1.382812,-0.7148437 1.101563,0 1.757813,0.8554687 1.757813,2.2851562 0,1.5 -0.644531,2.44921876 -1.6875,2.44921876 -0.609375,0 -1.066406,-0.24609375 -1.453125,-0.79687496 z m 9.855469,-2.015625 c -2.273438,0 -3.539063,1.265625 -3.539063,3.5507813 0,2.203125 1.171875,3.45703121 3.257813,3.45703121 2.296875,0 3.585937,-1.31250001 3.585937,-3.63281251 0,-2.1796875 -1.183594,-3.375 -3.304687,-3.375 z m -0.164063,0.6914063 c 1.03125,0 1.511719,1.0195312 1.511719,3.1289062 0,1.7460938 -0.398438,2.49609376 -1.371094,2.49609376 -1.03125,0 -1.570312,-1.04296876 -1.570312,-3.11718746 0,-1.734375 0.433593,-2.5078125 1.429687,-2.5078125 z m 7.145508,-4.2539061 -1.042969,0.316406 c -0.410156,0.1289063 -0.902344,0.2109376 -1.734375,0.2929688 v 0.515625 l 0.761719,0.046875 c 0.316406,0.011719 0.375,0.1640625 0.375,1.0078125 v 6.7148438 c 0,0.77343746 -0.07031,0.87890621 -0.515625,0.91406246 l -0.503906,0.0234375 v 0.5390625 l 1.851562,-0.046875 c 0.292969,0 0.972656,0.01171875 1.933594,0.046875 v -0.5390625 l -0.503906,-0.0234375 c -0.433594,-0.0351563 -0.515625,-0.140625 -0.515625,-0.91406246 v -8.8125001 z m 4.775391,3.5624998 -1.007813,0.3164063 c -0.457031,0.1523437 -0.808594,0.2109375 -1.40625,0.28125 -0.04687,0 -0.117187,0.011719 -0.210937,0.023437 v 0.515625 l 0.644531,0.046875 c 0.328125,0.023437 0.375,0.1523437 0.375,1.0078125 v 3.140625 c 0,0.77343746 -0.08203,0.87890621 -0.527344,0.91406246 l -0.492187,0.0234375 v 0.5390625 l 1.851562,-0.046875 c 0.28125,0 0.972656,0.01171875 1.933594,0.046875 v -0.5390625 l -0.503906,-0.0234375 c -0.445313,-0.0351563 -0.515625,-0.140625 -0.515625,-0.91406246 v -5.2382813 z m -0.773438,-3.3632808 c -0.621094,0 -1.101562,0.4570308 -1.101562,1.0546871 0,0.609375 0.480468,1.0898437 1.078125,1.0898437 0.585937,0 1.078125,-0.4804687 1.078125,-1.0664062 0,-0.5976563 -0.46875,-1.0781246 -1.054688,-1.0781246 z m 8.024417,5.8593746 c 0.0937,-0.9140625 0.16406,-1.3828125 0.29297,-2.015625 l -0.10547,-0.1875 c -0.65625,-0.234375 -0.96094,-0.2929688 -1.47657,-0.2929688 -0.53906,0 -0.94921,0.1054688 -1.28906,0.3046875 l -0.75,0.4453125 c -1.277342,0.7617188 -1.734373,1.4765625 -1.734373,2.7304688 0,2.2734375 1.136719,3.52734371 3.187503,3.52734371 0.71484,0 1.2539,-0.12890625 1.92187,-0.4921875 l 0.30469,-0.65625 -0.12891,-0.14062501 c -0.49218,0.19921876 -0.80859,0.26953126 -1.21875,0.26953126 -1.40625,0 -2.28515,-1.13671876 -2.28515,-2.95312496 0,-1.3125 0.49218,-2.015625 1.40625,-2.015625 0.64453,0 1.21875,0.2929687 1.26562,0.6210937 l 0.0937,0.8554688 z m 4.89258,-2.4960938 c -2.27344,0 -3.53907,1.265625 -3.53907,3.5507813 0,2.203125 1.17188,3.45703121 3.25782,3.45703121 2.29687,0 3.58593,-1.31250001 3.58593,-3.63281251 0,-2.1796875 -1.18359,-3.375 -3.30468,-3.375 z m -0.16407,0.6914063 c 1.03125,0 1.51172,1.0195312 1.51172,3.1289062 0,1.7460938 -0.39844,2.49609376 -1.37109,2.49609376 -1.03125,0 -1.57031,-1.04296876 -1.57031,-3.11718746 0,-1.734375 0.43359,-2.5078125 1.42968,-2.5078125 z m 0,0"
         style="fill:#000000;fill-opacity:1;fill-rule:nonzero;stroke:#000000;stroke-width:0.467717;stroke-dasharray:none;stroke-opacity:1" />
      <path
         id="path3"
         d="m 0.58561719,37.844 c 0,0.984375 -0.0351563,1.417969 -0.15234375,1.992187 0.73828126,0.246094 1.30078126,0.339844 1.95703126,0.339844 1.8867187,0 3.2226562,-0.996094 3.2226562,-2.402344 0,-0.445312 -0.1289062,-0.773437 -0.4101562,-1.066406 -0.375,-0.351562 -0.84375,-0.527344 -2.109375,-0.773437 -1.171875,-0.222657 -1.5585938,-0.515625 -1.5585938,-1.171875 0,-0.714844 0.5039063,-1.125 1.3710938,-1.125 0.9609375,0 1.6992187,0.503906 1.6992187,1.183593 v 0.328125 h 0.3984375 c 0.011719,-0.832031 0.035156,-1.183593 0.070312,-1.617187 -0.7617187,-0.257813 -1.2773437,-0.363281 -1.8632812,-0.363281 -1.6640625,0 -2.68359376,0.785156 -2.68359376,2.074218 0,0.691407 0.31640625,1.183594 0.98437496,1.476563 0.3867188,0.175781 1.1367188,0.410156 2.1210938,0.621094 0.6445312,0.140625 0.9140625,0.445312 0.9140625,0.996093 0,0.773438 -0.7148438,1.3125 -1.734375,1.3125 -1.0429688,0 -1.7929688,-0.503906 -1.7929688,-1.21875 V 37.844 Z M 8.7770234,33.226812 8.6481172,33.168219 c -0.7265625,0.304687 -1.4765625,0.503906 -2.2382813,0.585937 v 0.398438 h 0.5273438 c 0.5742187,0 0.6328125,0.105468 0.6328125,1.054687 v 3.222656 c 0,0.902344 -0.035156,1.007813 -0.5273438,1.03125 l -0.65625,0.04687 v 0.433594 c 1.4296875,-0.04687 1.4296875,-0.04687 1.7929688,-0.04687 0.3515625,0 0.3515625,0 1.7929687,0.04687 V 39.508062 L 9.3043672,39.461187 C 8.8238984,39.43775 8.7770234,39.332281 8.7770234,38.429937 Z m -0.65625,-3.1875 c -0.4335937,0 -0.8085937,0.375 -0.8085937,0.808594 0,0.410156 0.375,0.785156 0.796875,0.785156 0.4101562,0 0.796875,-0.375 0.796875,-0.785156 0,-0.410156 -0.3867188,-0.808594 -0.7851563,-0.808594 z m 8.0185546,9.902344 c 0.878906,-0.04687 0.890625,-0.04687 1.136719,-0.04687 0.199219,0 0.199219,0 1.183594,0.04687 v -0.433594 l -0.585938,-0.04687 C 17.381516,39.43775 17.346359,39.344 17.346359,38.429937 v -2.765625 c 0,-1.675781 -0.796875,-2.496093 -2.402343,-2.496093 -0.527344,0 -0.832032,0.105468 -1.125,0.363281 l -1.089844,0.9375 v -1.242188 l -0.128906,-0.05859 c -0.738282,0.304687 -1.488282,0.503906 -2.238282,0.585937 v 0.398438 h 0.527344 c 0.574219,0 0.632813,0.105468 0.632813,1.054687 v 3.222656 c 0,0.902344 -0.04687,1.007813 -0.539063,1.03125 l -0.644531,0.04687 v 0.433594 c 0.984375,-0.03516 1.371094,-0.04687 1.78125,-0.04687 0.421875,0 0.808594,0.01172 1.78125,0.04687 V 39.50806 l -0.644531,-0.04687 c -0.492188,-0.02344 -0.527344,-0.128906 -0.527344,-1.03125 v -3.035156 c 0,-0.644531 0.9375,-1.347656 1.816406,-1.347656 0.960938,0 1.59375,0.714844 1.59375,1.816406 z m 2.572266,-9.527344 h 0.796875 c 0.257812,0 0.363281,0.152344 0.363281,0.585938 v 7.429687 c 0,0.902344 -0.04687,1.007813 -0.539063,1.03125 l -0.644531,0.04687 v 0.433594 c 0.984375,-0.03516 1.371094,-0.04687 1.78125,-0.04687 0.421875,0 0.808594,0.01172 1.78125,0.04687 v -0.433594 l -0.644531,-0.04687 c -0.492188,-0.02344 -0.527344,-0.128906 -0.527344,-1.03125 v -3.035156 c 0,-0.644531 0.9375,-1.347656 1.816406,-1.347656 0.960938,0 1.59375,0.714844 1.59375,1.816406 v 4.078125 c 0.878907,-0.04687 0.890625,-0.04687 1.136719,-0.04687 0.199219,0 0.199219,0 1.183594,0.04687 v -0.433594 l -0.585938,-0.04687 C 25.731125,39.43775 25.695969,39.344 25.695969,38.429937 v -2.765625 c 0,-1.675781 -0.796875,-2.496093 -2.402344,-2.496093 -0.527344,0 -0.832031,0.105468 -1.125,0.363281 l -1.089844,0.9375 v -4.875 l -0.128906,-0.117188 c -0.632813,0.246094 -1.113281,0.363282 -2.238281,0.539063 z m 0,0"
         style="fill:#000000;fill-opacity:1;fill-rule:nonzero;stroke:#000000;stroke-width:0.467717;stroke-dasharray:none;stroke-opacity:1" />
      <path
         id="path4"
         d="m 32.082687,43.480719 c 0,-0.04687 0,-0.07031 -0.246093,-0.328125 -1.875,-1.886719 -2.355469,-4.710938 -2.355469,-6.996094 0,-2.601563 0.574219,-5.203125 2.414062,-7.078125 0.1875,-0.175781 0.1875,-0.199219 0.1875,-0.246094 0,-0.105469 -0.05859,-0.152344 -0.140625,-0.152344 -0.152343,0 -1.5,1.019532 -2.378906,2.917969 -0.761719,1.640625 -0.949219,3.304688 -0.949219,4.558594 0,1.171875 0.164063,2.976562 0.996094,4.664062 0.890625,1.839844 2.179688,2.8125 2.332031,2.8125 0.08203,0 0.140625,-0.04687 0.140625,-0.152343 z m 0,0"
         style="fill:#000000;fill-opacity:1;fill-rule:nonzero;stroke:#000000;stroke-width:0.467717;stroke-dasharray:none;stroke-opacity:1" />
      <path
         id="path5"
         d="m 40.250656,38.488531 c -0.539062,0.445313 -0.878906,0.5625 -1.113281,0.5625 -0.210938,0 -0.386719,-0.04687 -0.527344,-0.316406 -0.128906,-0.269531 -0.304687,-0.878906 -0.375,-1.3125 -0.03516,-0.234375 -0.07031,-0.457031 -0.09375,-0.667969 0.421875,-0.574219 0.84375,-1.207031 1.054688,-1.523437 0.199218,-0.304688 0.738281,-1.160157 0.820312,-1.441407 -0.08203,-0.164062 -0.140625,-0.292968 -0.234375,-0.503906 -0.03516,-0.03516 -0.152344,-0.07031 -0.210937,-0.105469 -0.328125,1.195313 -0.515625,1.59375 -1.042969,2.4375 -0.05859,0.09375 -0.292969,0.445313 -0.457031,0.691407 -0.257813,-1.722657 -0.316407,-2.121094 -0.410157,-2.625 -0.128906,-0.644532 -0.527343,-0.703125 -0.832031,-0.703125 -0.316406,0.01172 -0.785156,0.257812 -1.253906,0.703125 -0.351563,0.316406 -0.621094,0.691406 -0.878906,1.136718 -0.632813,1.277344 -1.089844,2.976563 -1.089844,4.125 0,0.480469 0.210937,1.101563 0.539062,1.101563 0.5625,0 1.019532,-0.28125 1.464844,-0.609375 0.609375,-0.515625 1.253906,-1.160156 1.699219,-1.664063 0.152344,1.488282 0.585937,2.273438 1.125,2.273438 0.316406,0 0.761719,-0.234375 1.242187,-0.65625 l 0.703125,-0.632813 z m -3,-1.160156 c -0.421875,0.492187 -0.832031,0.914062 -1.195312,1.21875 -0.445313,0.375 -0.84375,0.503906 -1.101563,0.503906 -0.1875,0 -0.257812,-0.199219 -0.257812,-0.574219 0,-0.925781 0.234375,-2.472656 0.703125,-3.65625 0.1875,-0.480468 0.539062,-0.890625 0.855468,-0.890625 0.421875,0 0.574219,0.257813 0.667969,0.890625 z m 0,0"
         style="fill:#000000;fill-opacity:1;fill-rule:nonzero;stroke:#000000;stroke-width:0.467717;stroke-dasharray:none;stroke-opacity:1" />
      <path
         id="path6"
         d="m 45.547531,36.1565 c 0,-1.171875 -0.164062,-2.976563 -0.984375,-4.664063 -0.902344,-1.839843 -2.191406,-2.8125 -2.34375,-2.8125 -0.08203,0 -0.140625,0.05859 -0.140625,0.152344 0,0.04687 0,0.07031 0.28125,0.339844 1.464844,1.476562 2.320313,3.855469 2.320313,6.984375 0,2.554687 -0.550782,5.191406 -2.414063,7.078125 -0.1875,0.175781 -0.1875,0.199219 -0.1875,0.246094 0,0.09375 0.05859,0.152343 0.140625,0.152343 0.152344,0 1.5,-1.019531 2.378906,-2.917968 0.761719,-1.640625 0.949219,-3.304688 0.949219,-4.558594 z m 16.086914,-1.148438 c 0.222657,0 0.503907,0 0.503907,-0.304687 0,-0.292969 -0.28125,-0.292969 -0.492188,-0.292969 h -8.953125 c -0.210937,0 -0.503906,0 -0.503906,0.292969 0,0.304687 0.292969,0.304687 0.515625,0.304687 z m 0.01172,2.894532 c 0.210938,0 0.492188,0 0.492188,-0.292969 0,-0.304688 -0.28125,-0.304688 -0.503907,-0.304688 h -8.929687 c -0.222656,0 -0.515625,0 -0.515625,0.304688 0,0.292969 0.292969,0.292969 0.503906,0.292969 z m 0,0"
         style="fill:#000000;fill-opacity:1;fill-rule:nonzero;stroke:#000000;stroke-width:0.467717;stroke-dasharray:none;stroke-opacity:1" />
      <path
         id="path7"
         d="m 74.612961,29.175055 -0.1875,-0.140625 c -0.914063,0.550781 -1.253906,0.679687 -1.863281,0.679687 -0.9375,0 -1.710938,-0.421875 -2.109375,-1.125 -0.269532,-0.46875 -0.375,-0.878906 -0.398438,-1.710937 h 2.085938 c 0.996093,0 1.605468,-0.03516 2.601562,-0.199219 0.01172,-0.199219 0.02344,-0.328125 0.02344,-0.492188 0,-1.652343 -1.054688,-2.730468 -2.660157,-2.730468 -0.539062,0 -1.148437,0.1875 -1.734375,0.527343 -1.183593,0.679688 -1.652343,1.570313 -1.652343,3.058594 0,0.902344 0.210937,1.675781 0.597656,2.226563 0.574219,0.761718 1.535156,1.195312 2.613281,1.195312 0.527344,0 1.066406,-0.105469 1.652344,-0.363281 0.386719,-0.164063 0.691406,-0.351563 0.738281,-0.433594 z m -1.125,-2.824219 c -0.738281,0.03516 -1.089844,0.04687 -1.605469,0.04687 -0.65625,0 -1.03125,-0.01172 -1.804687,-0.08203 0,-0.679688 0.05859,-0.996094 0.246093,-1.371094 0.304688,-0.632813 0.914063,-1.019531 1.605469,-1.019531 0.46875,0 0.84375,0.1875 1.101563,0.574218 0.316406,0.480469 0.421875,0.890625 0.457031,1.851563 z m 0,0"
         style="fill:#000000;fill-opacity:1;fill-rule:nonzero;stroke:#000000;stroke-width:0.467717;stroke-dasharray:none;stroke-opacity:1" />
      <path
         id="path8"
         d="m 80.167648,24.004156 c -0.363281,0.304688 -0.609375,0.386719 -0.761718,0.386719 -0.152344,0 -0.269532,-0.03516 -0.375,-0.222656 -0.08203,-0.1875 -0.199219,-0.609375 -0.257813,-0.902344 -0.02344,-0.175781 -0.04687,-0.316406 -0.07031,-0.46875 0.304687,-0.398438 0.585937,-0.84375 0.738281,-1.054688 0.140625,-0.210937 0.515625,-0.808593 0.574219,-1.007812 -0.05859,-0.105469 -0.105469,-0.199219 -0.164063,-0.351563 -0.02344,-0.02344 -0.105469,-0.04687 -0.152344,-0.07031 -0.222656,0.832031 -0.351562,1.113281 -0.726562,1.699219 -0.03516,0.05859 -0.199219,0.304687 -0.316406,0.46875 -0.175782,-1.195313 -0.222657,-1.464844 -0.28125,-1.816407 -0.08203,-0.445312 -0.363282,-0.492187 -0.574219,-0.492187 -0.222656,0.01172 -0.550781,0.1875 -0.878906,0.492187 -0.234375,0.222657 -0.421875,0.480469 -0.609375,0.785157 -0.433594,0.890625 -0.75,2.074218 -0.75,2.871093 0,0.328125 0.140625,0.761719 0.375,0.761719 0.386718,0 0.703125,-0.199219 1.019531,-0.421875 0.410156,-0.363281 0.867187,-0.808594 1.171875,-1.160156 0.105469,1.042969 0.410156,1.582031 0.785156,1.582031 0.222656,0 0.527344,-0.164062 0.855469,-0.457031 L 80.2614,24.191658 Z M 78.09343,23.195562 c -0.292969,0.339844 -0.585938,0.632813 -0.832032,0.84375 -0.304687,0.257813 -0.585937,0.351563 -0.761718,0.351563 -0.128907,0 -0.1875,-0.140625 -0.1875,-0.398438 0,-0.644531 0.164062,-1.710937 0.492187,-2.542968 0.128906,-0.328125 0.375,-0.621094 0.597656,-0.621094 0.292969,0 0.398438,0.1875 0.457032,0.621094 z m 0,0"
         style="fill:#000000;fill-opacity:1;fill-rule:nonzero;stroke:#000000;stroke-width:0.467717;stroke-dasharray:none;stroke-opacity:1" />
      <path
         id="path9"
         d="m 94.048508,26.749273 c 0.257812,0 0.527344,0 0.527344,-0.304687 0,-0.304688 -0.269532,-0.304688 -0.527344,-0.304688 H 85.96257 c -0.257812,0 -0.527343,0 -0.527343,0.304688 0,0.304687 0.269531,0.304687 0.527343,0.304687 z m 0,0"
         style="fill:#000000;fill-opacity:1;fill-rule:nonzero;stroke:#000000;stroke-width:0.467717;stroke-dasharray:none;stroke-opacity:1" />
      <path
         id="path10"
         d="m 105.04948,29.175055 -0.1875,-0.140625 c -0.91406,0.550781 -1.2539,0.679687 -1.86328,0.679687 -0.9375,0 -1.71093,-0.421875 -2.10937,-1.125 -0.26953,-0.46875 -0.375,-0.878906 -0.39844,-1.710937 h 2.08594 c 0.99609,0 1.60547,-0.03516 2.60156,-0.199219 0.0117,-0.199219 0.0234,-0.328125 0.0234,-0.492188 0,-1.652343 -1.05469,-2.730468 -2.66016,-2.730468 -0.53906,0 -1.14844,0.1875 -1.73437,0.527343 -1.183597,0.679688 -1.652347,1.570313 -1.652347,3.058594 0,0.902344 0.210938,1.675781 0.597656,2.226563 0.574221,0.761718 1.535161,1.195312 2.613281,1.195312 0.52734,0 1.06641,-0.105469 1.65234,-0.363281 0.38672,-0.164063 0.69141,-0.351563 0.73829,-0.433594 z m -1.125,-2.824219 c -0.73828,0.03516 -1.08984,0.04687 -1.60546,0.04687 -0.65625,0 -1.03125,-0.01172 -1.80469,-0.08203 0,-0.679688 0.0586,-0.996094 0.24609,-1.371094 0.30469,-0.632813 0.91406,-1.019531 1.60547,-1.019531 0.46875,0 0.84375,0.1875 1.10156,0.574218 0.31641,0.480469 0.42188,0.890625 0.45703,1.851563 z m 0,0"
         style="fill:#000000;fill-opacity:1;fill-rule:nonzero;stroke:#000000;stroke-width:0.467717;stroke-dasharray:none;stroke-opacity:1" />
      <path
         id="path11"
         d="m 112.6198,22.586187 c 0.17578,0 0.36328,0 0.36328,-0.210937 0,-0.199219 -0.1875,-0.199219 -0.36328,-0.199219 h -5.61328 c -0.1875,0 -0.36329,0 -0.36329,0.199219 0,0.210937 0.17579,0.210937 0.36329,0.210937 z m 0,0"
         style="fill:#000000;fill-opacity:1;fill-rule:nonzero;stroke:#000000;stroke-width:0.467717;stroke-dasharray:none;stroke-opacity:1" />
      <path
         id="path12"
         d="m 118.92448,24.004156 c -0.36328,0.304688 -0.60937,0.386719 -0.76171,0.386719 -0.15235,0 -0.26954,-0.03516 -0.375,-0.222656 -0.082,-0.1875 -0.19922,-0.609375 -0.25782,-0.902344 -0.0234,-0.175781 -0.0469,-0.316406 -0.0703,-0.46875 0.30469,-0.398438 0.58594,-0.84375 0.73828,-1.054688 0.14063,-0.210937 0.51563,-0.808593 0.57422,-1.007812 -0.0586,-0.105469 -0.10547,-0.199219 -0.16406,-0.351563 -0.0234,-0.02344 -0.10547,-0.04687 -0.15235,-0.07031 -0.22265,0.832031 -0.35156,1.113281 -0.72656,1.699219 -0.0352,0.05859 -0.19922,0.304687 -0.3164,0.46875 -0.17579,-1.195313 -0.22266,-1.464844 -0.28125,-1.816407 -0.082,-0.445312 -0.36329,-0.492187 -0.57422,-0.492187 -0.22266,0.01172 -0.55078,0.1875 -0.87891,0.492187 -0.23437,0.222657 -0.42187,0.480469 -0.60937,0.785157 -0.4336,0.890625 -0.75,2.074218 -0.75,2.871093 0,0.328125 0.14062,0.761719 0.375,0.761719 0.38671,0 0.70312,-0.199219 1.01953,-0.421875 0.41015,-0.363281 0.86718,-0.808594 1.17187,-1.160156 0.10547,1.042969 0.41016,1.582031 0.78516,1.582031 0.22265,0 0.52734,-0.164062 0.85547,-0.457031 l 0.49218,-0.433594 z m -2.07421,-0.808594 c -0.29297,0.339844 -0.58594,0.632813 -0.83204,0.84375 -0.30468,0.257813 -0.58593,0.351563 -0.76171,0.351563 -0.12891,0 -0.1875,-0.140625 -0.1875,-0.398438 0,-0.644531 0.16406,-1.710937 0.49218,-2.542968 0.12891,-0.328125 0.375,-0.621094 0.59766,-0.621094 0.29297,0 0.39844,0.1875 0.45703,0.621094 z m 0,0"
         style="fill:#000000;fill-opacity:1;fill-rule:nonzero;stroke:#000000;stroke-width:0.467717;stroke-dasharray:none;stroke-opacity:1" />
    </g>
    <path
       id="path13"
       d="M 0,0 H 51.635"
       style="fill:none;stroke:#000000;stroke-width:0.467717;stroke-linecap:butt;stroke-linejoin:miter;stroke-miterlimit:10;stroke-dasharray:none;stroke-opacity:1"
       transform="matrix(1.3333333,0,0,-1.3333333,222.25467,188.95467)" />
    <path
       id="path14"
       d="m 0.23327344,-0.32759375 v 0.375 C 2.9051484,5.3125e-4 2.9051484,5.3125e-4 3.4324922,5.3125e-4 c 0.515625,0 0.515625,0 3.28125,0.046875 -0.035156,-0.3046875 -0.035156,-0.4453125 -0.035156,-0.64453125 0,-0.1875 0,-0.33984375 0.035156,-0.6445313 -1.6523438,0.070312 -2.3085938,0.082031 -4.96875,0.140625 l 2.6132812,-2.765625 c 1.3945313,-1.4882812 1.828125,-2.2734375 1.828125,-3.3515625 0,-1.640625 -1.125,-2.6601562 -2.9414062,-2.6601562 -1.0429688,0 -1.734375,0.28125 -2.43750001,0.9960937 L 0.56139844,-6.92525 H 0.97155469 L 1.1590547,-7.5815 c 0.234375,-0.8320313 0.75,-1.1953125 1.7109375,-1.1953125 1.2304687,0 2.015625,0.7734375 2.015625,1.9921875 0,1.078125 -0.5976563,2.1328125 -2.2148438,3.8554687 z m 0,0"
       style="fill:#000000;fill-opacity:1;fill-rule:nonzero;stroke:#000000;stroke-width:0.467717;stroke-dasharray:none;stroke-opacity:1"
       aria-label="2"
       transform="matrix(1.3333333,0,0,1.3333333,251.896,206.85867)" />
  </g>
</svg>
