<?xml version="1.0" encoding="UTF-8" standalone="no"?>
<!-- Created with Inkscape (http://www.inkscape.org/) -->

<svg
   version="1.1"
   id="svg1"
   width="153.57143"
   height="45.535713"
   viewBox="0 0 153.57143 45.535713"
   sodipodi:docname="writetex.pdf"
   inkscape:export-batch-path="..\Akemicos\Akdemicos-Front\public"
   inkscape:export-batch-name="tangente"
   xmlns:inkscape="http://www.inkscape.org/namespaces/inkscape"
   xmlns:sodipodi="http://sodipodi.sourceforge.net/DTD/sodipodi-0.dtd"
   xmlns="http://www.w3.org/2000/svg"
   xmlns:svg="http://www.w3.org/2000/svg">
  <defs
     id="defs1">
    <clipPath
       clipPathUnits="userSpaceOnUse"
       id="clipPath177">
      <rect
         style="fill:#000000;stroke:#000000;stroke-opacity:1"
         id="rect178"
         width="153.57143"
         height="45.535713"
         x="130.35715"
         y="540.17859" />
    </clipPath>
  </defs>
  <sodipodi:namedview
     id="namedview1"
     pagecolor="#ffffff"
     bordercolor="#000000"
     borderopacity="0.25"
     inkscape:showpageshadow="2"
     inkscape:pageopacity="0.0"
     inkscape:pagecheckerboard="0"
     inkscape:deskcolor="#d1d1d1"
     showgrid="false">
    <inkscape:page
       x="0"
       y="0"
       width="153.57143"
       height="45.535713"
       id="page1"
       margin="0"
       bleed="0" />
  </sodipodi:namedview>
  <g
     id="g1"
     inkscape:groupmode="layer"
     inkscape:label="1"
     clip-path="url(#clipPath177)"
     style="stroke:#000000;stroke-opacity:1"
     transform="translate(-130.35715,-540.17859)">
    <g
       id="g25"
       aria-label="Tangente&#10;tanθ=&#10;sinθ"
       transform="matrix(1.3333333,0,0,1.3333333,131.12933,516.30267)"
       style="stroke:#000000;stroke-opacity:1">
      <path
         id="path26"
         d="m 5.7887422,-8.8842266 h 1.6875 c 0.5976562,0 0.7617187,0.035156 0.890625,0.1289063 l 0.1289062,0.3515625 0.070312,0.984375 h 0.5742188 c 0.023437,-1.0898438 0.070312,-1.59375 0.1875,-2.2734375 l -0.09375,-0.082031 c -3.9609375,0.046875 -3.9609375,0.046875 -4.4414063,0.046875 -0.5039062,0 -0.5039062,0 -4.46484371,-0.046875 l -0.0820313,0.082031 c 0.1171875,0.6796875 0.140625,1.1835937 0.1875,2.2734375 H 1.0074922 l 0.070312,-0.984375 c 0,-0.09375 0.070312,-0.2578125 0.1171875,-0.328125 0.070312,-0.1054688 0.2929687,-0.1523438 0.9023437,-0.1523438 h 1.6757813 v 6.9492188 c 0,1.27734374 -0.011719,1.30078124 -0.6914063,1.35937499 l -0.5273437,0.046875 v 0.57421875 c 1.734375,-0.046875 1.734375,-0.046875 2.2265625,-0.046875 0.4804687,0 0.4921875,0 2.2382812,0.046875 v -0.57421875 l -0.5390625,-0.046875 C 5.8121797,-0.63422656 5.7887422,-0.65766406 5.7887422,-1.9350078 Z m 6.4775388,7.92187504 -0.07031,0.890625 0.07031,0.1171875 c 0.890625,-0.03515625 1.136719,-0.046875 1.300781,-0.046875 0.175782,0 0.410157,0.01171875 1.265625,0.046875 v -0.5390625 l -0.433593,-0.0351563 c -0.316407,-0.0585938 -0.386719,-0.19921875 -0.398438,-0.87890624 v -0.3046875 c -0.01172,-0.4570313 -0.02344,-0.8554688 -0.02344,-1.1953126 0,-0.3984375 0.01172,-0.8554687 0.02344,-1.3945311 0.01172,-0.1875 0.01172,-0.3164063 0.01172,-0.421875 0,-1.2773438 -0.855469,-2.0390625 -2.308594,-2.0390625 -0.597656,0 -1.183594,0.1640625 -1.722656,0.4921875 l -0.7617188,0.4570312 v 0.9960938 L 9.653,-4.7240703 9.9694062,-5.4389141 c 0.046875,-0.09375 0.4453128,-0.1992187 0.8320308,-0.1992187 0.960938,0 1.417969,0.515625 1.464844,1.6875 l -1.265625,0.2578125 c -1.8046873,0.375 -2.4492185,0.9375 -2.4492185,2.15625 0,1.16015624 0.5859375,1.78124999 1.6757815,1.78124999 0.316406,0 0.5625,-0.0585938 0.703125,-0.17578125 z m 0,-0.69140624 c -0.269531,0.375 -0.808594,0.6445312 -1.230469,0.6445312 -0.457031,0 -0.738281,-0.3398437 -0.738281,-0.9023437 0,-0.703125 0.304688,-0.984375 1.324219,-1.265625 l 0.644531,-0.1640625 z m 3.222656,-3.9726563 0.644532,0.046875 c 0.339843,0.023437 0.375,0.1523438 0.375,1.0078125 v 3.140625 c 0,0.77343754 -0.07031,0.87890629 -0.515625,0.91406254 l -0.503907,0.0234375 v 0.5390625 l 1.851563,-0.046875 c 0.292969,0 0.984375,0.01171875 1.945312,0.046875 v -0.5390625 l -0.503906,-0.0234375 c -0.445312,-0.0351563 -0.515625,-0.140625 -0.515625,-0.91406254 v -3.1171875 c 0,-0.5039062 0.585938,-0.9726562 1.21875,-0.9726562 0.9375,0 1.347656,0.5039062 1.347656,1.6523437 v 3.91406254 c 0.808594,-0.03515625 1.054688,-0.046875 1.289063,-0.046875 0.199219,0 0.199219,0 1.441406,0.046875 v -0.5390625 l -0.46875,-0.0234375 c -0.445312,-0.0351563 -0.515625,-0.140625 -0.515625,-0.91406254 v -2.671875 c 0,-1.1015625 -0.128906,-1.6523437 -0.503906,-2.0507812 -0.375,-0.3867188 -0.960938,-0.609375 -1.664063,-0.609375 -0.433593,0 -0.773437,0.09375 -0.996093,0.28125 l -1.148438,0.890625 v -1.078125 l -0.09375,-0.09375 c -1.488281,0.4921875 -1.886719,0.5742187 -2.683594,0.6210937 z m 16.007813,0.3515625 0.08203,-0.9257812 c -0.597656,0.058594 -0.867187,0.070312 -1.183594,0.070312 -0.117187,0 -0.28125,0 -0.515625,-0.011719 -0.585937,-0.4335937 -1.265625,-0.6210937 -2.179687,-0.6210937 -1.839844,0 -3.105469,1.0664062 -3.105469,2.578125 0,0.5273437 0.175781,0.9960937 0.527344,1.3710937 0.269531,0.2929688 0.480469,0.421875 0.984375,0.5859375 l -1.019531,0.7734375 c -0.140625,0.1054688 -0.234375,0.4101563 -0.234375,0.69140629 0,0.515625 0.257812,0.7734375 0.972656,0.9609375 l -1.160156,0.69140625 c -0.222657,0.12890626 -0.375,0.50390626 -0.375,0.89062496 0,1.2421875 1.207031,2.0390625 3.09375,2.0390625 2.507812,0 4.207031,-1.3125 4.207031,-3.22265621 0,-1.1953125 -0.679688,-1.76953129 -2.121094,-1.76953129 h -0.351562 c -1.417969,0.035156 -1.933594,0.058594 -2.085938,0.058594 -0.445312,0 -0.679687,-0.1523438 -0.679687,-0.4335938 0,-0.2226562 0.128906,-0.3867187 0.421875,-0.5625 0.257812,0.011719 0.398437,0.035156 0.574218,0.035156 0.984375,0 1.898438,-0.3398438 2.496094,-0.9257813 0.433594,-0.4453125 0.621094,-0.9492187 0.621094,-1.6640625 0,-0.2226562 -0.01172,-0.3984375 -0.07031,-0.6679687 z m -3.972656,-0.7617187 c 0.761718,0 1.183593,0.609375 1.183593,1.7460937 0,1.0195313 -0.386718,1.546875 -1.148437,1.546875 -0.75,0 -1.207031,-0.6445312 -1.207031,-1.7226562 0,-1.03125 0.398437,-1.5703125 1.171875,-1.5703125 z m 0.292968,6.24609374 c 1.746094,0 2.179688,0.234375 2.179688,1.14843746 0,0.9960938 -0.960938,1.734375 -2.238281,1.734375 -1.277344,0 -2.121094,-0.5976562 -2.121094,-1.4882812 0,-0.5273438 0.304687,-1.01953126 0.726562,-1.23046876 0.234375,-0.10546875 0.75,-0.1640625 1.453125,-0.1640625 z M 38.501633,-4.2318828 c 0,-1.5351563 -1.078125,-2.53125 -2.707031,-2.53125 -0.503907,0 -0.878907,0.1054687 -1.265625,0.3398437 l -0.667969,0.3984375 c -0.949219,0.5625 -1.371094,1.4179688 -1.371094,2.7773438 0,2.28515624 1.148438,3.49218749 3.292969,3.49218749 0.808594,0 1.347656,-0.140625 2.261719,-0.62109375 l 0.316406,-0.69140624 -0.175781,-0.2109375 c -0.667969,0.37499999 -1.101563,0.50390624 -1.675782,0.50390624 -0.75,0 -1.441406,-0.39843754 -1.804687,-1.01953124 -0.234375,-0.3984375 -0.316406,-0.7265625 -0.339844,-1.40625 h 1.875 c 0.820313,0 1.464844,-0.082031 2.261719,-0.28125 z m -3.023438,0.3164062 h -0.05859 c -0.08203,0 -0.46875,-0.011719 -0.691407,-0.035156 l -0.457031,-0.011719 c 0.04687,-1.4179687 0.386719,-1.9921875 1.21875,-1.9921875 0.820313,0 1.160156,0.5742188 1.195313,1.9921875 z m 3.925782,-1.7109375 0.644531,0.046875 c 0.339844,0.023437 0.375,0.1523438 0.375,1.0078125 v 3.140625 c 0,0.77343754 -0.07031,0.87890629 -0.515625,0.91406254 l -0.503906,0.0234375 v 0.5390625 l 1.851562,-0.046875 c 0.292969,0 0.984375,0.01171875 1.945313,0.046875 v -0.5390625 l -0.503907,-0.0234375 c -0.445312,-0.0351563 -0.515625,-0.140625 -0.515625,-0.91406254 v -3.1171875 c 0,-0.5039062 0.585938,-0.9726562 1.21875,-0.9726562 0.9375,0 1.347657,0.5039062 1.347657,1.6523437 v 3.91406254 c 0.808593,-0.03515625 1.054687,-0.046875 1.289062,-0.046875 0.199219,0 0.199219,0 1.441406,0.046875 v -0.5390625 l -0.46875,-0.0234375 c -0.445312,-0.0351563 -0.515625,-0.140625 -0.515625,-0.91406254 v -2.671875 c 0,-1.1015625 -0.128906,-1.6523437 -0.503906,-2.0507812 -0.375,-0.3867188 -0.960937,-0.609375 -1.664062,-0.609375 -0.433594,0 -0.773438,0.09375 -0.996094,0.28125 l -1.148438,0.890625 v -1.078125 l -0.09375,-0.09375 c -1.488281,0.4921875 -1.886718,0.5742187 -2.683593,0.6210937 z m 13.078125,4.76953129 -0.117188,-0.28124999 c -0.292969,0.15234374 -0.433594,0.18749999 -0.667969,0.18749999 -0.667968,0 -0.878906,-0.22265629 -0.878906,-0.92578129 v -3.421875 h 1.511719 l 0.117187,-0.9257812 -1.628906,0.082031 v -0.8320312 c 0,-0.7617188 0.03516,-1.2304688 0.164063,-1.9453125 l -0.199219,-0.1523438 c -0.574219,0.28125 -1.019531,0.4453125 -1.746094,0.7265625 0.03516,0.7382813 0.05859,1.0195313 0.05859,1.3125 v 0.8671875 l -0.949219,0.609375 v 0.3164063 l 0.914063,-0.058594 v 3.7148438 c 0,1.27734374 0.539062,1.82812499 1.78125,1.82812499 0.445312,0 0.808593,-0.10546875 0.9375,-0.2578125 z m 6.735351,-3.37499999 c 0,-1.5351563 -1.078125,-2.53125 -2.707031,-2.53125 -0.503906,0 -0.878906,0.1054687 -1.265625,0.3398437 l -0.667969,0.3984375 c -0.949219,0.5625 -1.371094,1.4179688 -1.371094,2.7773438 0,2.28515624 1.148438,3.49218749 3.292969,3.49218749 0.808594,0 1.347656,-0.140625 2.261719,-0.62109375 l 0.316406,-0.69140624 -0.175781,-0.2109375 c -0.667969,0.37499999 -1.101563,0.50390624 -1.675781,0.50390624 -0.75,0 -1.441407,-0.39843754 -1.804688,-1.01953124 -0.234375,-0.3984375 -0.316406,-0.7265625 -0.339844,-1.40625 h 1.875 c 0.820313,0 1.464844,-0.082031 2.261719,-0.28125 z m -3.023437,0.3164062 h -0.05859 c -0.08203,0 -0.46875,-0.011719 -0.691406,-0.035156 l -0.457032,-0.011719 c 0.04687,-1.4179687 0.386719,-1.9921875 1.21875,-1.9921875 0.820313,0 1.160157,0.5742188 1.195313,1.9921875 z m 0,0"
         style="fill:#000000;fill-opacity:1;fill-rule:nonzero;stroke:#000000;stroke-opacity:1" />
      <path
         id="path27"
         d="m 1.4059297,33.364797 v 4.136719 c 0,1.066406 0.46875,1.523437 1.5820312,1.523437 0.328125,0 0.6679688,-0.07031 0.75,-0.175781 l 0.6914063,-0.761719 -0.1875,-0.246094 c -0.3515625,0.199219 -0.5742188,0.28125 -0.84375,0.28125 -0.5625,0 -0.7851563,-0.292968 -0.7851563,-0.996093 v -3.761719 h 1.828125 l 0.1289063,-0.773438 -1.9570313,0.09375 v -0.550781 c 0,-0.597656 0.035156,-1.113281 0.1523438,-2.039062 L 2.6012422,29.942922 c -0.3515625,0.210937 -0.7851563,0.398437 -1.21875,0.539062 0.035156,0.433594 0.046875,0.703125 0.046875,1.136719 v 1.007813 l -1.11328126,0.503906 v 0.292969 z m 7.921875,4.3125 -0.082031,1.21875 c 0.9374993,-0.04687 0.9374993,-0.04687 1.1249993,-0.04687 0.07031,0 0.433594,0.01172 1.066407,0.04687 v -0.433594 l -0.5625,-0.02344 c -0.351563,-0.02344 -0.410157,-0.140625 -0.410157,-0.832032 v -2.625 c 0,-2.097656 -0.5976555,-2.859375 -2.261718,-2.859375 -0.6210938,0 -1.1835938,0.152344 -1.734375,0.492188 l -0.7617188,0.457031 v 0.925781 l 0.375,0.105469 0.1875,-0.445312 c 0.3046875,-0.679688 0.4453125,-0.773438 1.1015625,-0.773438 1.3476563,0 1.9101563,0.527344 1.9570313,1.828125 l -1.4296875,0.269531 c -1.9453125,0.351563 -2.765625,1.03125 -2.765625,2.273438 0,1.125 0.6796875,1.769531 1.8046875,1.769531 0.2578125,0 0.5039062,-0.04687 0.609375,-0.117187 z m 0,-0.609375 c -0.421875,0.585937 -1.3242188,1.136719 -1.8867188,1.136719 -0.5742187,0 -1.078125,-0.527344 -1.078125,-1.148438 0,-0.527344 0.2929688,-1.03125 0.7265625,-1.300781 0.3515625,-0.222656 1.1484375,-0.421875 2.2382813,-0.574219 z m 8.4052733,1.828125 c 0.878906,-0.04687 0.890625,-0.04687 1.136719,-0.04687 0.199219,0 0.199219,0 1.183594,0.04687 v -0.433594 l -0.585938,-0.04687 c -0.492187,-0.02344 -0.527344,-0.117187 -0.527344,-1.03125 v -2.765625 c 0,-1.675781 -0.796875,-2.496094 -2.402343,-2.496094 -0.527344,0 -0.832032,0.105469 -1.125,0.363282 l -1.089844,0.9375 v -1.242188 l -0.128906,-0.05859 c -0.738282,0.304688 -1.488282,0.503907 -2.238282,0.585938 v 0.398437 h 0.527344 c 0.574219,0 0.632813,0.105469 0.632813,1.054688 v 3.222656 c 0,0.902344 -0.04687,1.007813 -0.539063,1.03125 l -0.644531,0.04687 v 0.433594 c 0.984375,-0.03516 1.371094,-0.04687 1.78125,-0.04687 0.421875,0 0.808594,0.01172 1.78125,0.04687 v -0.433594 l -0.644531,-0.04687 c -0.492188,-0.02344 -0.527344,-0.128906 -0.527344,-1.03125 v -3.035156 c 0,-0.644531 0.9375,-1.347656 1.816406,-1.347656 0.960938,0 1.59375,0.714843 1.59375,1.816406 z m 0,0"
         style="fill:#000000;fill-opacity:1;fill-rule:nonzero;stroke:#000000;stroke-opacity:1" />
      <path
         id="path28"
         d="m 27.316086,28.653859 c -0.621094,0 -1.242188,0.292969 -1.910156,0.949219 -1.277344,1.21875 -2.226563,3.375 -2.226563,6.023438 0,2.273437 0.46875,3.375 1.664063,3.375 0.761718,0 1.652343,-0.527344 2.332031,-1.382813 0.972656,-1.253906 1.863281,-3.621094 1.863281,-5.789062 0,-1.992188 -0.550781,-3.175782 -1.722656,-3.175782 z m -1.230469,5.460938 c 0.972656,0 1.371094,0.04687 1.617188,0.164062 -0.316407,1.441407 -0.84375,2.730469 -1.300782,3.480469 -0.292968,0.445313 -0.679687,0.703125 -1.113281,0.703125 -0.855469,0 -1.007812,-1.101562 -1.007812,-2.8125 0,-0.445312 0.02344,-0.902344 0.09375,-1.359375 0.304687,-0.128906 0.691406,-0.175781 1.710937,-0.175781 z m 0.867188,-4.921875 c 0.914062,0 0.996093,1.183594 0.996093,2.953125 0,0.410156 -0.03516,0.820312 -0.08203,1.21875 -0.292969,0.105469 -0.738281,0.152344 -1.6875,0.152344 -0.972656,0 -1.382812,-0.04687 -1.640625,-0.152344 0.363281,-1.6875 1.03125,-3.234375 1.546875,-3.84375 0.199219,-0.210938 0.527344,-0.328125 0.867187,-0.328125 z m 0,0"
         style="fill:#000000;fill-opacity:1;fill-rule:nonzero;stroke:#000000;stroke-opacity:1" />
      <path
         id="path29"
         d="m 44.191086,33.962453 c 0.222656,0 0.503906,0 0.503906,-0.304687 0,-0.292969 -0.28125,-0.292969 -0.492187,-0.292969 H 35.24968 c -0.210938,0 -0.503907,0 -0.503907,0.292969 0,0.304687 0.292969,0.304687 0.515625,0.304687 z m 0.01172,2.894531 c 0.210937,0 0.492187,0 0.492187,-0.292968 0,-0.304688 -0.28125,-0.304688 -0.503906,-0.304688 h -8.929688 c -0.222656,0 -0.515625,0 -0.515625,0.304688 0,0.292968 0.292969,0.292968 0.503907,0.292968 z m 0,0"
         style="fill:#000000;fill-opacity:1;fill-rule:nonzero;stroke:#000000;stroke-opacity:1" />
      <path
         id="path30"
         d="m 52.318039,27.086477 c 0,0.984375 -0.03516,1.417968 -0.152344,1.992187 0.738282,0.246094 1.300782,0.339844 1.957032,0.339844 1.886718,0 3.222656,-0.996094 3.222656,-2.402344 0,-0.445312 -0.128906,-0.773437 -0.410156,-1.066406 -0.375,-0.351563 -0.84375,-0.527344 -2.109375,-0.773438 -1.171875,-0.222656 -1.558594,-0.515625 -1.558594,-1.171875 0,-0.714843 0.503906,-1.125 1.371094,-1.125 0.960937,0 1.699218,0.503907 1.699218,1.183594 v 0.328125 h 0.398438 c 0.01172,-0.832031 0.03516,-1.183594 0.07031,-1.617187 -0.761718,-0.257813 -1.277343,-0.363282 -1.863281,-0.363282 -1.664062,0 -2.683594,0.785157 -2.683594,2.074219 0,0.691406 0.316407,1.183594 0.984375,1.476563 0.386719,0.175781 1.136719,0.410156 2.121094,0.621093 0.644531,0.140625 0.914063,0.445313 0.914063,0.996094 0,0.773438 -0.714844,1.3125 -1.734375,1.3125 -1.042969,0 -1.792969,-0.503906 -1.792969,-1.21875 v -0.585937 z m 8.194336,-4.617188 -0.128906,-0.05859 c -0.726563,0.304688 -1.476563,0.503907 -2.238282,0.585938 v 0.398437 h 0.527344 c 0.574219,0 0.632813,0.105469 0.632813,1.054688 v 3.222656 c 0,0.902344 -0.03516,1.007813 -0.527344,1.03125 l -0.65625,0.04687 v 0.433594 c 1.429687,-0.04687 1.429687,-0.04687 1.792969,-0.04687 0.351562,0 0.351562,0 1.792968,0.04687 v -0.433594 l -0.667968,-0.04687 c -0.480469,-0.02344 -0.527344,-0.128906 -0.527344,-1.03125 z m -0.65625,-3.1875 c -0.433594,0 -0.808594,0.375 -0.808594,0.808594 0,0.410156 0.375,0.785156 0.796875,0.785156 0.410156,0 0.796875,-0.375 0.796875,-0.785156 0,-0.410156 -0.386719,-0.808594 -0.785156,-0.808594 z m 8.018555,9.902344 c 0.878906,-0.04687 0.890625,-0.04687 1.136718,-0.04687 0.199219,0 0.199219,0 1.183594,0.04687 v -0.433594 l -0.585937,-0.04687 c -0.492188,-0.02344 -0.527344,-0.117187 -0.527344,-1.03125 v -2.765625 c 0,-1.675781 -0.796875,-2.496094 -2.402344,-2.496094 -0.527344,0 -0.832031,0.105469 -1.125,0.363282 l -1.089844,0.9375 v -1.242188 l -0.128906,-0.05859 c -0.738281,0.304688 -1.488281,0.503907 -2.238281,0.585938 v 0.398437 h 0.527344 c 0.574218,0 0.632812,0.105469 0.632812,1.054688 v 3.222656 c 0,0.902344 -0.04687,1.007813 -0.539062,1.03125 l -0.644532,0.04687 v 0.433594 c 0.984375,-0.03516 1.371094,-0.04687 1.78125,-0.04687 0.421875,0 0.808594,0.01172 1.78125,0.04687 v -0.433594 l -0.644531,-0.04687 c -0.492187,-0.02344 -0.527344,-0.128906 -0.527344,-1.03125 v -3.035156 c 0,-0.644531 0.9375,-1.347656 1.816407,-1.347656 0.960937,0 1.59375,0.714843 1.59375,1.816406 z m 0,0"
         style="fill:#000000;fill-opacity:1;fill-rule:nonzero;stroke:#000000;stroke-opacity:1" />
      <path
         id="path31"
         d="m 77.457687,18.941945 c -0.621093,0 -1.242187,0.292969 -1.910156,0.949219 -1.277344,1.21875 -2.226562,3.375 -2.226562,6.023438 0,2.273437 0.46875,3.375 1.664062,3.375 0.761719,0 1.652344,-0.527344 2.332031,-1.382813 0.972657,-1.253906 1.863282,-3.621094 1.863282,-5.789062 0,-1.992188 -0.550782,-3.175782 -1.722657,-3.175782 z m -1.230468,5.460938 c 0.972656,0 1.371093,0.04687 1.617187,0.164062 -0.316406,1.441407 -0.84375,2.730469 -1.300781,3.480469 -0.292969,0.445313 -0.679688,0.703125 -1.113281,0.703125 -0.855469,0 -1.007813,-1.101562 -1.007813,-2.8125 0,-0.445312 0.02344,-0.902344 0.09375,-1.359375 0.304688,-0.128906 0.691406,-0.175781 1.710938,-0.175781 z m 0.867187,-4.921875 c 0.914063,0 0.996094,1.183594 0.996094,2.953125 0,0.410156 -0.03516,0.820312 -0.08203,1.21875 -0.292969,0.105469 -0.738282,0.152344 -1.6875,0.152344 -0.972657,0 -1.382813,-0.04687 -1.640625,-0.152344 0.363281,-1.6875 1.03125,-3.234375 1.546875,-3.84375 0.199218,-0.210938 0.527343,-0.328125 0.867186,-0.328125 z m 0,0"
         style="fill:#000000;fill-opacity:1;fill-rule:nonzero;stroke:#000000;stroke-opacity:1" />
    </g>
    <path
       id="path32"
       d="M 0,0 H 29.835"
       style="fill:none;stroke:#000000;stroke-width:0.574;stroke-linecap:butt;stroke-linejoin:miter;stroke-miterlimit:10;stroke-dasharray:none;stroke-opacity:1"
       transform="matrix(1.3333333,0,0,-1.3333333,198.988,563.31867)" />
    <g
       id="g32"
       aria-label="cosθ&#10;=&#10;y"
       transform="matrix(1.3333333,0,0,1.3333333,198.988,581.22267)"
       style="stroke:#000000;stroke-opacity:1">
      <path
         id="path33"
         d="m 5.7189609,-4.4648516 c 0,-0.65625 0.070312,-1.2421875 0.2109375,-1.7578125 -0.5742187,-0.3515625 -1.078125,-0.5039062 -1.6640625,-0.5039062 -0.6914062,0 -1.5,0.2695312 -2.3554687,0.8203125 -1.00781251,0.6328125 -1.53515626,1.6289062 -1.53515626,2.8945312 0,1.9335938 1.35937496,3.29296879 3.28124996,3.29296879 0.75,0 1.828125,-0.26953125 1.96875,-0.48046875 L 5.9298984,-0.65625781 5.7775547,-0.87891406 c -0.5273438,0.29296875 -0.984375,0.421875 -1.5,0.421875 -1.59375,0 -2.6367188,-1.23046874 -2.6367188,-3.12890624 0,-1.5351563 0.7148438,-2.390625 2.0039063,-2.390625 0.6328125,0 1.3242187,0.28125 1.5820312,0.6445312 l 0.09375,0.8671875 z m 4.6464841,-2.2617187 c -2.0859372,0 -3.5390622,1.4765625 -3.5390622,3.609375 0,2.0273437 1.2773438,3.39843749 3.1289063,3.39843749 2.2031249,0 3.7851559,-1.52343749 3.7851559,-3.67968749 0,-1.9335938 -1.40625,-3.328125 -3.375,-3.328125 z m -0.257812,0.46875 c 1.324219,0 2.296875,1.4414062 2.296875,3.3867187 0,1.6523438 -0.726563,2.68359379 -1.886719,2.68359379 -1.4062499,0 -2.3554687,-1.37109379 -2.3554687,-3.41015629 0,-1.7226562 0.6914063,-2.6601562 1.9453127,-2.6601562 z m 4.68164,4.2070312 c 0,0.984375 -0.03516,1.41796879 -0.152343,1.99218754 0.738281,0.24609375 1.300781,0.33984375 1.957031,0.33984375 1.886719,0 3.222656,-0.99609375 3.222656,-2.40234379 0,-0.4453125 -0.128906,-0.7734375 -0.410156,-1.0664062 -0.375,-0.3515625 -0.84375,-0.5273438 -2.109375,-0.7734375 -1.171875,-0.2226563 -1.558594,-0.515625 -1.558594,-1.171875 0,-0.7148438 0.503906,-1.125 1.371094,-1.125 0.960937,0 1.699219,0.5039062 1.699219,1.1835937 v 0.328125 h 0.398437 c 0.01172,-0.8320312 0.03516,-1.1835937 0.07031,-1.6171875 -0.761719,-0.2578125 -1.277344,-0.3632812 -1.863282,-0.3632812 -1.664062,0 -2.683593,0.7851562 -2.683593,2.0742187 0,0.6914063 0.316406,1.1835938 0.984375,1.4765625 0.386718,0.1757813 1.136718,0.4101563 2.121093,0.6210938 0.644532,0.140625 0.914063,0.4453125 0.914063,0.9960937 0,0.77343754 -0.714844,1.31250004 -1.734375,1.31250004 -1.042969,0 -1.792969,-0.50390625 -1.792969,-1.21875004 v -0.5859375 z m 0,0"
         style="fill:#000000;fill-opacity:1;fill-rule:nonzero;stroke:#000000;stroke-opacity:1" />
      <path
         id="path34"
         d="m 27.401578,-10.19532 c -0.621094,0 -1.242187,0.2929684 -1.910156,0.9492184 -1.277344,1.21875 -2.226563,3.375 -2.226563,6.0234375 0,2.27343754 0.46875,3.37500004 1.664063,3.37500004 0.761719,0 1.652344,-0.52734375 2.332031,-1.38281254 0.972656,-1.2539062 1.863281,-3.6210937 1.863281,-5.7890625 0,-1.9921875 -0.550781,-3.1757809 -1.722656,-3.1757809 z m -1.230469,5.4609372 c 0.972657,0 1.371094,0.046875 1.617188,0.1640625 -0.316406,1.4414062 -0.84375,2.7304687 -1.300781,3.4804687 -0.292969,0.44531254 -0.679688,0.70312504 -1.113282,0.70312504 -0.855468,0 -1.007812,-1.10156254 -1.007812,-2.81250004 0,-0.4453125 0.02344,-0.9023437 0.09375,-1.359375 0.304687,-0.1289062 0.691406,-0.1757812 1.710937,-0.1757812 z m 0.867188,-4.921875 c 0.914062,0 0.996094,1.1835937 0.996094,2.953125 0,0.4101562 -0.03516,0.8203125 -0.08203,1.21875 -0.292968,0.1054687 -0.738281,0.1523437 -1.6875,0.1523437 -0.972656,0 -1.382812,-0.046875 -1.640625,-0.1523437 0.363282,-1.6875 1.03125,-3.234375 1.546875,-3.84375 0.199219,-0.2109375 0.527344,-0.328125 0.867188,-0.328125 z m 0,0"
         style="fill:#000000;fill-opacity:1;fill-rule:nonzero;stroke:#000000;stroke-opacity:1" />
      <path
         id="path35"
         d="m 45.471891,-14.727547 c 0.222656,0 0.503906,0 0.503906,-0.304687 0,-0.292969 -0.28125,-0.292969 -0.492188,-0.292969 h -8.953125 c -0.210937,0 -0.503906,0 -0.503906,0.292969 0,0.304687 0.292969,0.304687 0.515625,0.304687 z m 0.01172,2.894531 c 0.210938,0 0.492188,0 0.492188,-0.292968 0,-0.304688 -0.28125,-0.304688 -0.503906,-0.304688 h -8.929688 c -0.222656,0 -0.515625,0 -0.515625,0.304688 0,0.292968 0.292969,0.292968 0.503906,0.292968 z m 0,0"
         style="fill:#000000;fill-opacity:1;fill-rule:nonzero;stroke:#000000;stroke-opacity:1" />
      <path
         id="path36"
         d="m 52.441617,-16.974617 c -0.01172,0.105469 -0.01172,0.1875 -0.01172,0.257812 0,0.621094 0.527344,1.125 1.183594,1.125 1.511719,0 3.09375,-1.78125 3.9375,-4.429687 l 2.027344,-6.316406 -0.164063,-0.128907 c -0.410156,0.152344 -0.738281,0.246094 -1.054687,0.269532 l -0.503906,1.898437 c -0.175782,0.667969 -0.679688,1.722656 -1.148438,2.425781 -0.503906,0.726563 -1.207031,1.359375 -1.523437,1.359375 -0.164063,0 -0.292969,-0.328125 -0.28125,-0.691406 l 0.01172,-0.1875 0.210938,-2.777344 c 0.03516,-0.445312 0.05859,-0.996093 0.05859,-1.394531 0,-0.644531 -0.09375,-0.902344 -0.339844,-0.902344 -0.1875,0 -0.386719,0.105469 -1.078125,0.574219 l -1.171875,0.808594 0.152344,0.257812 0.714843,-0.433593 0.05859,-0.04687 c 0.140625,-0.08203 0.246094,-0.128907 0.304688,-0.128907 0.199218,0 0.316406,0.269532 0.316406,0.75 0,0.01172 0,0.09375 -0.01172,0.210938 l -0.246094,3.492187 -0.01172,0.574219 c 0,0.597656 0.257812,1.007813 0.609375,1.007813 0.539062,0 1.734375,-1.21875 2.8125,-2.835938 l -0.703125,2.449219 c -0.726563,2.542969 -1.441407,3.585937 -2.449219,3.585937 -0.503906,0 -0.890625,-0.386718 -0.890625,-0.878906 0,-0.08203 0.01172,-0.1875 0.02344,-0.316406 l -0.140625,-0.05859 z m 0,0"
         style="fill:#000000;fill-opacity:1;fill-rule:nonzero;stroke:#000000;stroke-opacity:1" />
    </g>
    <path
       id="path37"
       d="M 0,0 H 7.919"
       style="fill:none;stroke:#000000;stroke-width:0.574;stroke-linecap:butt;stroke-linejoin:miter;stroke-miterlimit:10;stroke-dasharray:none;stroke-opacity:1"
       transform="matrix(1.3333333,0,0,-1.3333333,268.55467,563.31867)" />
    <g
       id="g37"
       aria-label="x&#10;Dominio={R−{&#10;π"
       transform="matrix(1.3333333,0,0,1.3333333,269.11867,581.22267)"
       style="stroke:#000000;stroke-opacity:1">
      <path
         id="path38"
         d="m 0.30357813,-1.2656328 c 0,0.29296874 -0.0351563,0.48046874 -0.1171875,0.93749999 -0.0351563,0.17578125 -0.046875,0.2109375 -0.0585938,0.31640625 0.2109375,0.1171875 0.4453125,0.1640625 0.62109375,0.1640625 0.46874992,0 1.03125002,-0.41015625 1.47656252,-1.08984375 l 1.0898438,-1.67578129 0.1523437,0.9960938 c 0.1875,1.21874999 0.515625,1.76953124 1.03125,1.76953124 0.3164062,0 0.7734375,-0.234375 1.2421875,-0.65625 L 6.4442031,-1.1367266 6.3152969,-1.4062578 c -0.5273438,0.43359374 -0.8789063,0.64453124 -1.1132813,0.64453124 -0.2109375,0 -0.3984375,-0.140625 -0.5390625,-0.43359374 -0.1289062,-0.2695313 -0.2929687,-0.796875 -0.3632812,-1.21875 l -0.2578125,-1.4414063 0.5039062,-0.703125 c 0.6796875,-0.9375 1.0664063,-1.265625 1.5117188,-1.265625 0.2226562,0 0.3984375,0.1171875 0.46875,0.328125 l 0.1992187,-0.058594 0.2109375,-1.21875 c -0.1640625,-0.09375 -0.2929687,-0.140625 -0.421875,-0.140625 -0.5742187,0 -1.1484375,0.515625 -2.0390625,1.8398437 l -0.5273437,0.7851563 -0.09375,-0.6914063 c -0.1640625,-1.4179687 -0.5507813,-1.9335937 -1.40625,-1.9335937 -0.375,0 -0.6796875,0.1171875 -0.8085938,0.3046875 l -0.83203122,1.1835937 0.23437502,0.1523438 c 0.4335937,-0.4921875 0.7265625,-0.6914063 0.9960937,-0.6914063 0.46875,0 0.7851563,0.5859375 1.03125,1.9921875 l 0.1523438,0.890625 -0.5742188,0.890625 c -0.609375,0.9609375 -1.1015625,1.41796879 -1.5,1.41796879 -0.21093747,0 -0.37499997,-0.0585938 -0.39843747,-0.12890625 L 0.58482813,-1.3007891 Z m 0,0"
         style="fill:#000000;fill-opacity:1;fill-rule:nonzero;stroke:#000000;stroke-opacity:1" />
      <path
         id="path39"
         d="m -102.67201,51.445305 v 0.328125 c 1.66406,-0.04687 1.66406,-0.04687 1.99219,-0.04687 0.25781,0 0.49219,0 0.75,0.01172 1.125,0.03516 1.125,0.03516 1.324218,0.03516 1.839844,0 3.222657,-0.480469 4.21875,-1.464844 1.03125,-1.019531 1.664063,-2.566406 1.664063,-4.101563 0,-2.671875 -1.980469,-4.40625 -5.003906,-4.40625 -0.105469,0 -0.28125,0 -0.539063,0.01172 -0.726562,0.01172 -1.335937,0.03516 -1.957032,0.03516 -0.52734,0 -1.32422,-0.02344 -2.95312,-0.04687 v 0.433594 l 0.57421,0.03516 c 0.65625,0.04687 0.72657,0.175782 0.72657,1.300782 v 6.796875 c 0,0.410156 -0.12891,0.726562 -0.35157,0.84375 z m 2.16797,-8.953125 c 0.36328,-0.07031 0.867188,-0.117188 1.582032,-0.117188 1.054688,0 2.203125,0.1875 2.800781,0.457031 0.316407,0.128907 0.585938,0.328125 0.84375,0.585938 0.691407,0.691406 1.019532,1.722656 1.019532,3.164062 0,1.605469 -0.480469,2.835938 -1.429688,3.609375 -0.867187,0.703125 -1.722656,0.949219 -3.339844,0.949219 -0.667968,0 -1.113283,-0.03516 -1.476563,-0.117187 z m 12.111329,2.507812 c -2.085937,0 -3.539062,1.476563 -3.539062,3.609375 0,2.027344 1.277343,3.398438 3.128906,3.398438 2.203125,0 3.785156,-1.523438 3.785156,-3.679688 0,-1.933594 -1.40625,-3.328125 -3.375,-3.328125 z m -0.257812,0.46875 c 1.324218,0 2.296875,1.441406 2.296875,3.386719 0,1.652344 -0.726563,2.683594 -1.886719,2.683594 -1.40625,0 -2.355469,-1.371094 -2.355469,-3.410157 0,-1.722656 0.691406,-2.660156 1.945313,-2.660156 z m 4.353515,0.515625 h 0.527344 c 0.574219,0 0.632812,0.105469 0.632812,1.054688 v 3.222656 c 0,0.902344 -0.03516,1.007812 -0.527343,1.03125 l -0.65625,0.04687 v 0.433594 c 1.371093,-0.04687 1.417968,-0.04687 1.816406,-0.04687 0.398437,0 0.773437,0.01172 1.710937,0.04687 v -0.433594 l -0.609375,-0.04687 c -0.480468,-0.02344 -0.527343,-0.128906 -0.527343,-1.03125 v -3.035156 c 0,-0.644532 0.949218,-1.347657 1.804687,-1.347657 0.773438,0 1.3125,0.726563 1.3125,1.816407 v 2.566406 c 0,0.902344 -0.04687,1.007812 -0.539062,1.03125 l -0.65625,0.04687 v 0.433594 c 1.429687,-0.04687 1.429687,-0.04687 1.792968,-0.04687 0.363282,0 0.363282,0 1.792969,0.04687 v -0.433594 l -0.65625,-0.04687 c -0.492187,-0.02344 -0.539062,-0.128906 -0.539062,-1.03125 v -3.035156 c 0,-0.644532 0.949218,-1.347657 1.816406,-1.347657 0.773437,0 1.300781,0.726563 1.300781,1.816407 v 4.078125 c 0.878906,-0.04687 0.890625,-0.04687 1.136719,-0.04687 0.1875,0 0.1875,0 1.277344,0.04687 v -0.433594 l -0.679688,-0.04687 c -0.480469,-0.02344 -0.527344,-0.128906 -0.527344,-1.03125 v -2.953125 c 0,-1.417969 -0.832031,-2.308594 -2.15625,-2.308594 -0.503906,0 -0.914062,0.128906 -1.171875,0.363281 l -1.089843,0.972657 c -0.457032,-0.949219 -1.054688,-1.335938 -2.039063,-1.335938 -0.527344,0 -0.9375,0.128906 -1.195312,0.363281 l -0.984375,0.914063 v -1.21875 l -0.128907,-0.05859 c -0.726562,0.304688 -1.476562,0.503906 -2.238281,0.585938 z m 15.105469,-0.925781 -0.128906,-0.05859 c -0.726563,0.304688 -1.476563,0.503906 -2.238282,0.585938 v 0.398437 h 0.527344 c 0.574219,0 0.632813,0.105469 0.632813,1.054688 v 3.222656 c 0,0.902344 -0.03516,1.007812 -0.527344,1.03125 l -0.65625,0.04687 v 0.433594 c 1.429687,-0.04687 1.429687,-0.04687 1.792969,-0.04687 0.351562,0 0.351562,0 1.792968,0.04687 v -0.433594 l -0.667968,-0.04687 c -0.480469,-0.02344 -0.527344,-0.128906 -0.527344,-1.03125 z m -0.65625,-3.1875 c -0.433594,0 -0.808594,0.375 -0.808594,0.808594 0,0.410156 0.375,0.785156 0.796875,0.785156 0.410156,0 0.796875,-0.375 0.796875,-0.785156 0,-0.410157 -0.386719,-0.808594 -0.785156,-0.808594 z m 8.018555,9.902344 c 0.878906,-0.04687 0.890625,-0.04687 1.136718,-0.04687 0.199219,0 0.199219,0 1.183594,0.04687 v -0.433594 l -0.585937,-0.04687 c -0.492188,-0.02344 -0.527344,-0.117188 -0.527344,-1.03125 v -2.765625 c 0,-1.675781 -0.796875,-2.496094 -2.402344,-2.496094 -0.527344,0 -0.832031,0.105469 -1.125,0.363281 l -1.089844,0.9375 v -1.242187 l -0.128906,-0.05859 c -0.738281,0.304688 -1.488281,0.503906 -2.238281,0.585938 v 0.398437 h 0.527344 c 0.574218,0 0.632812,0.105469 0.632812,1.054688 v 3.222656 c 0,0.902344 -0.04687,1.007812 -0.539062,1.03125 l -0.644532,0.04687 v 0.433594 c 0.984375,-0.03516 1.371094,-0.04687 1.78125,-0.04687 0.421875,0 0.808594,0.01172 1.78125,0.04687 V 51.33984 l -0.644531,-0.04687 c -0.492187,-0.02344 -0.527344,-0.128906 -0.527344,-1.03125 v -3.035156 c 0,-0.644532 0.9375,-1.347657 1.816407,-1.347657 0.960937,0 1.59375,0.714844 1.59375,1.816407 z m 5.162109,-6.714844 -0.128906,-0.05859 c -0.726563,0.304688 -1.476563,0.503906 -2.238281,0.585938 v 0.398437 h 0.527343 c 0.574219,0 0.632813,0.105469 0.632813,1.054688 v 3.222656 c 0,0.902344 -0.03516,1.007812 -0.527344,1.03125 l -0.65625,0.04687 v 0.433594 c 1.429688,-0.04687 1.429688,-0.04687 1.792969,-0.04687 0.351562,0 0.351562,0 1.792969,0.04687 v -0.433594 l -0.667969,-0.04687 c -0.480469,-0.02344 -0.527344,-0.128906 -0.527344,-1.03125 z m -0.65625,-3.1875 c -0.433594,0 -0.808594,0.375 -0.808594,0.808594 0,0.410156 0.375,0.785156 0.796875,0.785156 0.410157,0 0.796875,-0.375 0.796875,-0.785156 0,-0.410157 -0.386718,-0.808594 -0.785156,-0.808594 z m 6.131836,3.128906 c -2.085938,0 -3.539063,1.476563 -3.539063,3.609375 0,2.027344 1.277344,3.398438 3.128907,3.398438 2.203125,0 3.785156,-1.523438 3.785156,-3.679688 0,-1.933594 -1.40625,-3.328125 -3.375,-3.328125 z m -0.257813,0.46875 c 1.324219,0 2.296875,1.441406 2.296875,3.386719 0,1.652344 -0.726562,2.683594 -1.886718,2.683594 -1.40625,0 -2.355469,-1.371094 -2.355469,-3.410157 0,-1.722656 0.691406,-2.660156 1.945312,-2.660156 z m 12.049805,0.726563 h -7.230469 v 0.796875 h 7.230469 z m 0,2.777343 h -7.230469 v 0.808594 h 7.230469 z m 0,0"
         style="fill:#000000;fill-opacity:1;fill-rule:nonzero;stroke:#000000;stroke-opacity:1" />
      <path
         id="path40"
         d="m -34.252086,42.503898 c 0,-0.597656 0.386719,-1.558593 2.015625,-1.664062 0.08203,-0.01172 0.140625,-0.07031 0.140625,-0.164063 0,-0.164062 -0.117187,-0.164062 -0.28125,-0.164062 -1.5,0 -2.859375,0.761719 -2.871094,1.863281 v 3.410156 c 0,0.585938 0,1.066407 -0.597656,1.558594 -0.527344,0.433594 -1.101562,0.46875 -1.429687,0.480469 -0.07031,0.01172 -0.128907,0.07031 -0.128907,0.164062 0,0.152344 0.09375,0.152344 0.234375,0.164063 0.996094,0.05859 1.710938,0.597656 1.875,1.335937 0.04687,0.164063 0.04687,0.1875 0.04687,0.726563 v 2.964844 c 0,0.621093 0,1.101562 0.714844,1.675781 0.585938,0.445312 1.570313,0.609375 2.15625,0.609375 0.164063,0 0.28125,0 0.28125,-0.164063 0,-0.152343 -0.09375,-0.152343 -0.246094,-0.164062 -0.9375,-0.05859 -1.664062,-0.539063 -1.863281,-1.300781 -0.04687,-0.140625 -0.04687,-0.164063 -0.04687,-0.703125 V 49.99218 c 0,-0.691407 -0.117187,-0.9375 -0.597656,-1.417969 -0.316406,-0.316406 -0.75,-0.46875 -1.160156,-0.585938 1.21875,-0.339843 1.757812,-1.03125 1.757812,-1.898437 z m 0,0"
         style="fill:#000000;fill-opacity:1;fill-rule:nonzero;stroke:#000000;stroke-opacity:1" />
      <path
         id="path41"
         d="m -30.510875,42.234367 0.632813,0.03516 c 0.585937,0.04687 0.726562,0.164063 0.726562,1.300782 v 6.433593 c 0,1.136719 -0.140625,1.265625 -0.726562,1.289063 l -0.632813,0.04687 v 0.433594 c 0.84375,-0.03516 2.167969,-0.04687 2.90625,-0.04687 0.75,0 2.132813,0.01172 2.976563,0.04687 v -0.433594 l -0.691407,-0.04687 c -0.644531,-0.03516 -0.726562,-0.152344 -0.726562,-1.207031 v -7.570313 c 0.492187,-0.128906 0.914062,-0.164062 1.40625,-0.164062 1.488281,0 2.320312,0.679687 2.320312,1.898437 0,1.324219 -1.054687,2.15625 -2.71875,2.15625 -0.08203,0 -0.222656,0 -0.410156,-0.01172 l -0.08203,0.164063 c 0.152344,0.1875 0.199219,0.246094 0.363281,0.433594 0.210938,0.234375 0.246094,0.292968 0.375,0.457031 l 2.648438,3.550781 c 0.08203,0.105469 0.164062,0.222656 0.257812,0.328125 l 0.328125,0.445313 c 0.585938,-0.03516 0.796875,-0.04687 0.972656,-0.04687 0.152344,0 0.339844,0.01172 1.03125,0.04687 v -0.433594 c -0.457031,-0.04687 -0.691406,-0.128906 -0.878906,-0.375 l -3.246094,-4.242188 c 0.785157,-0.1875 1.136719,-0.351562 1.605469,-0.65625 0.785156,-0.550781 1.183594,-1.265625 1.183594,-2.109375 0,-1.394531 -0.984375,-2.15625 -2.8125,-2.15625 h -0.19922 c -0.28125,0.01172 -0.527344,0.01172 -0.726562,0.02344 -0.433594,0.02344 -0.972657,0.02344 -1.523438,0.02344 h -1.453125 c -0.738281,0 -2.0625,-0.02344 -2.90625,-0.04687 z m 3.09375,1.335938 v 6.433593 c 0,1.136719 -0.07031,1.253907 -0.527344,1.289063 -0.457031,-0.03516 -0.539062,-0.152344 -0.539062,-1.289063 v -6.433593 c 0,-1.136719 0.08203,-1.253907 0.539062,-1.300782 0.457032,0.03516 0.527344,0.164063 0.527344,1.300782 z m 0,0"
         style="fill:#000000;fill-opacity:1;fill-rule:nonzero;stroke:#000000;stroke-opacity:1" />
      <path
         id="path42"
         d="m -6.55775,48.292961 c 0.2578125,0 0.5273438,0 0.5273438,-0.304688 0,-0.304687 -0.2695313,-0.304687 -0.5273438,-0.304687 h -8.085937 c -0.257813,0 -0.527344,0 -0.527344,0.304687 0,0.304688 0.269531,0.304688 0.527344,0.304688 z m 8.9619141,-5.789063 c 0,-0.597656 0.3867187,-1.558593 2.015625,-1.664062 0.082031,-0.01172 0.140625,-0.07031 0.140625,-0.164063 0,-0.164062 -0.1171875,-0.164062 -0.28125,-0.164062 -1.5,0 -2.859375,0.761719 -2.8710938,1.863281 v 3.410156 c 0,0.585938 0,1.066407 -0.59765624,1.558594 -0.52734375,0.433594 -1.1015625,0.46875 -1.4296875,0.480469 -0.0703125,0.01172 -0.12890625,0.07031 -0.12890625,0.164062 0,0.152344 0.09375,0.152344 0.234375,0.164063 0.99609375,0.05859 1.71093749,0.597656 1.87499999,1.335937 0.046875,0.164063 0.046875,0.1875 0.046875,0.726563 v 2.964844 c 0,0.621093 0,1.101562 0.7148438,1.675781 0.5859375,0.445312 1.5703125,0.609375 2.15625,0.609375 0.1640625,0 0.28125,0 0.28125,-0.164063 0,-0.152343 -0.09375,-0.152343 -0.2460938,-0.164062 -0.9375,-0.05859 -1.6640625,-0.539063 -1.8632812,-1.300781 -0.046875,-0.140625 -0.046875,-0.164063 -0.046875,-0.703125 V 49.99218 c 0,-0.691407 -0.1171875,-0.9375 -0.5976563,-1.417969 -0.3164062,-0.316406 -0.75,-0.46875 -1.16015624,-0.585938 C 1.8651016,47.64843 2.4041641,46.957023 2.4041641,46.089836 Z m 0,0"
         style="fill:#000000;fill-opacity:1;fill-rule:nonzero;stroke:#000000;stroke-opacity:1" />
      <path
         id="path43"
         d="m 8.5916641,36.952141 0.1289062,-0.105469 c 0.2929688,-0.855469 0.8671875,-0.902344 1.6874997,-0.902344 0.175782,0 0.433594,0.01172 0.726563,0.01172 -1.1953127,3.28125 -1.7460939,4.265625 -2.9062502,6.082031 l 0.1289063,0.128906 1.0546875,-0.363281 c 0.5273437,-1.125 1.3945314,-3.304687 2.1914064,-5.824219 l 2.660156,0.09375 c -0.246094,0.890625 -1.078125,3.492188 -1.078125,4.40625 0,1.511719 0.550781,1.6875 0.996094,1.6875 0.726562,0 1.148437,-0.175781 2.050781,-0.9375 l -0.117187,-0.28125 -0.339844,0.246094 c 0.03516,-0.02344 -0.375,0.304688 -0.621094,0.304688 -0.667969,0 -0.878906,-0.421875 -0.878906,-1.300782 0,-0.363281 0.03516,-0.75 0.117187,-1.171875 0.246094,-1.183593 0.492188,-2.367187 0.621094,-2.953125 0.328125,0 0.65625,-0.01172 0.984375,-0.05859 0.257813,0 0.574219,-0.140625 0.808594,-0.222657 0.152344,-0.304687 0.210937,-0.328125 0.480469,-0.679687 l -0.09375,-0.164063 c -0.386719,0.128907 -1.03125,0.269532 -1.511719,0.269532 -0.164063,0.01172 -0.527344,0.02344 -0.890625,0.02344 -1.523438,-0.01172 -3.890625,-0.128906 -4.523438,-0.128906 -1.0781247,0 -1.4648434,0.480469 -1.8867184,1.722656 z m 0,0"
         style="fill:#000000;fill-opacity:1;fill-rule:nonzero;stroke:#000000;stroke-opacity:1" />
    </g>
  </g>
</svg>
