<?xml version="1.0" encoding="UTF-8" standalone="no"?>
<!-- Created with Inkscape (http://www.inkscape.org/) -->

<svg
   version="1.1"
   id="svg1"
   width="258.09525"
   height="48.57143"
   viewBox="0 0 258.09525 48.57143"
   sodipodi:docname="writetex.pdf"
   inkscape:export-batch-path="..\Akemicos\Akdemicos-Front\public"
   inkscape:export-batch-name="TanHiperbolica"
   xmlns:inkscape="http://www.inkscape.org/namespaces/inkscape"
   xmlns:sodipodi="http://sodipodi.sourceforge.net/DTD/sodipodi-0.dtd"
   xmlns="http://www.w3.org/2000/svg"
   xmlns:svg="http://www.w3.org/2000/svg">
  <defs
     id="defs1">
    <clipPath
       clipPathUnits="userSpaceOnUse"
       id="clipPath242">
      <rect
         style="fill:#000000;stroke:#000000;stroke-width:0.623622;stroke-dasharray:none;stroke-opacity:1"
         id="rect243"
         width="258.09525"
         height="48.57143"
         x="1016.1905"
         y="165.71428" />
    </clipPath>
  </defs>
  <sodipodi:namedview
     id="namedview1"
     pagecolor="#ffffff"
     bordercolor="#000000"
     borderopacity="0.25"
     inkscape:showpageshadow="2"
     inkscape:pageopacity="0.0"
     inkscape:pagecheckerboard="0"
     inkscape:deskcolor="#d1d1d1"
     showgrid="false">
    <inkscape:page
       x="0"
       y="0"
       width="258.09525"
       height="48.57143"
       id="page1"
       margin="0"
       bleed="0" />
  </sodipodi:namedview>
  <g
     id="g78"
     inkscape:groupmode="layer"
     inkscape:label="2"
     clip-path="url(#clipPath242)"
     style="stroke:#000000;stroke-width:1.00157;stroke-dasharray:none;stroke-opacity:1"
     transform="translate(-1016.1905,-165.71428)">
    <g
       id="g79"
       aria-label="Tangentehiperbolica&#10;tanh(α)=&#10;sinh(α)"
       transform="matrix(1.3333333,0,0,1.3333333,1016.0907,140.54133)"
       style="stroke:#000000;stroke-width:0.751181;stroke-dasharray:none;stroke-opacity:1">
      <path
         id="path80"
         d="m 5.7884453,-8.8815859 h 1.6875 c 0.5976563,0 0.7617188,0.035156 0.890625,0.1289062 l 0.1289063,0.3515625 0.070312,0.984375 h 0.5742187 c 0.023437,-1.0898437 0.070312,-1.59375 0.1875,-2.2734375 l -0.09375,-0.082031 c -3.9609375,0.046875 -3.9609375,0.046875 -4.4414062,0.046875 -0.5039063,0 -0.5039063,0 -4.46484379,-0.046875 l -0.0820313,0.082031 c 0.1171875,0.6796875 0.140625,1.1835938 0.1875,2.2734375 H 1.0071953 l 0.070312,-0.984375 c 0,-0.09375 0.070312,-0.2578125 0.1171875,-0.328125 0.070312,-0.1054687 0.2929688,-0.1523437 0.9023438,-0.1523437 h 1.6757812 v 6.9492187 c 0,1.27734376 -0.011719,1.30078126 -0.6914062,1.35937501 l -0.5273438,0.046875 v 0.57421875 c 1.734375,-0.046875 1.734375,-0.046875 2.2265625,-0.046875 0.4804688,0 0.4921875,0 2.2382813,0.046875 v -0.57421875 l -0.5390625,-0.046875 C 5.8118828,-0.63158594 5.7884453,-0.65502344 5.7884453,-1.9323672 Z m 6.4775387,7.92187496 -0.07031,0.890625 0.07031,0.1171875 c 0.890625,-0.03515625 1.136719,-0.046875 1.300782,-0.046875 0.175781,0 0.410156,0.01171875 1.265625,0.046875 v -0.5390625 l -0.433594,-0.0351563 c -0.316406,-0.0585938 -0.386719,-0.19921875 -0.398438,-0.87890616 v -0.3046875 c -0.01172,-0.4570313 -0.02344,-0.8554688 -0.02344,-1.1953125 0,-0.3984375 0.01172,-0.8554688 0.02344,-1.3945313 0.01172,-0.1875 0.01172,-0.3164062 0.01172,-0.421875 0,-1.2773437 -0.855469,-2.0390625 -2.308594,-2.0390625 -0.597656,0 -1.183593,0.1640625 -1.7226559,0.4921875 l -0.7617187,0.4570313 v 0.9960937 l 0.4335937,0.09375 0.3164063,-0.7148437 c 0.046875,-0.09375 0.4453126,-0.1992188 0.8320316,-0.1992188 0.960937,0 1.417968,0.515625 1.464843,1.6875 l -1.265625,0.2578125 c -1.8046871,0.375 -2.4492184,0.9375 -2.4492184,2.15625 0,1.16015621 0.5859375,1.78124996 1.6757814,1.78124996 0.316406,0 0.5625,-0.0585938 0.703125,-0.17578125 z m 0,-0.69140626 c -0.269531,0.375 -0.808593,0.6445313 -1.230468,0.6445313 -0.457032,0 -0.738282,-0.3398438 -0.738282,-0.9023438 0,-0.703125 0.304688,-0.984375 1.324219,-1.265625 l 0.644531,-0.1640625 z m 3.222657,-3.9726562 0.644531,0.046875 c 0.339844,0.023437 0.375,0.1523437 0.375,1.0078125 v 3.140625 c 0,0.77343746 -0.07031,0.87890621 -0.515625,0.91406246 l -0.503906,0.0234375 v 0.5390625 l 1.851562,-0.046875 c 0.292969,0 0.984375,0.01171875 1.945313,0.046875 v -0.5390625 l -0.503907,-0.0234375 c -0.445312,-0.0351563 -0.515625,-0.140625 -0.515625,-0.91406246 v -3.1171875 c 0,-0.5039063 0.585938,-0.9726563 1.21875,-0.9726563 0.9375,0 1.347657,0.5039063 1.347657,1.6523438 v 3.91406246 c 0.808593,-0.03515625 1.054687,-0.046875 1.289062,-0.046875 0.199219,0 0.199219,0 1.441406,0.046875 v -0.5390625 l -0.46875,-0.0234375 c -0.445312,-0.0351563 -0.515625,-0.140625 -0.515625,-0.91406246 v -2.671875 c 0,-1.1015625 -0.128906,-1.6523438 -0.503906,-2.0507813 -0.375,-0.3867187 -0.960937,-0.609375 -1.664062,-0.609375 -0.433594,0 -0.773438,0.09375 -0.996094,0.28125 l -1.148438,0.890625 v -1.078125 l -0.09375,-0.09375 c -1.488281,0.4921875 -1.886718,0.5742188 -2.683593,0.6210938 z m 16.007812,0.3515625 0.08203,-0.9257813 c -0.597656,0.058594 -0.867187,0.070312 -1.183593,0.070312 -0.117188,0 -0.28125,0 -0.515625,-0.011719 -0.585938,-0.4335938 -1.265625,-0.6210938 -2.179688,-0.6210938 -1.839844,0 -3.105469,1.0664063 -3.105469,2.578125 0,0.5273438 0.175782,0.9960938 0.527344,1.3710938 0.269531,0.2929687 0.480469,0.421875 0.984375,0.5859375 l -1.019531,0.7734375 c -0.140625,0.1054687 -0.234375,0.4101562 -0.234375,0.69140621 0,0.515625 0.257812,0.7734375 0.972656,0.9609375 l -1.160156,0.69140625 c -0.222656,0.12890624 -0.375,0.50390624 -0.375,0.89062504 0,1.2421875 1.207031,2.0390625 3.09375,2.0390625 2.507812,0 4.207031,-1.3125 4.207031,-3.22265629 0,-1.1953125 -0.679687,-1.76953121 -2.121094,-1.76953121 h -0.351562 c -1.417969,0.035156 -1.933594,0.058594 -2.085938,0.058594 -0.445312,0 -0.679687,-0.1523437 -0.679687,-0.4335937 0,-0.2226563 0.128906,-0.3867188 0.421875,-0.5625 0.257812,0.011719 0.398437,0.035156 0.574219,0.035156 0.984375,0 1.898437,-0.3398437 2.496093,-0.9257812 0.433594,-0.4453125 0.621094,-0.9492188 0.621094,-1.6640625 0,-0.2226563 -0.01172,-0.3984375 -0.07031,-0.6679688 z m -3.972656,-0.7617188 c 0.761719,0 1.183594,0.609375 1.183594,1.7460938 0,1.0195312 -0.386719,1.546875 -1.148438,1.546875 -0.75,0 -1.207031,-0.6445313 -1.207031,-1.7226563 0,-1.03125 0.398437,-1.5703125 1.171875,-1.5703125 z m 0.292969,6.24609376 c 1.746093,0 2.179687,0.234375 2.179687,1.14843754 0,0.9960937 -0.960937,1.734375 -2.238281,1.734375 -1.277344,0 -2.121094,-0.5976563 -2.121094,-1.4882813 0,-0.5273437 0.304688,-1.01953124 0.726563,-1.23046874 0.234375,-0.10546875 0.75,-0.1640625 1.453125,-0.1640625 z m 10.68457,-4.44140626 c 0,-1.5351562 -1.078125,-2.53125 -2.707031,-2.53125 -0.503907,0 -0.878907,0.1054688 -1.265625,0.3398438 l -0.667969,0.3984375 c -0.949219,0.5625 -1.371094,1.4179687 -1.371094,2.7773437 0,2.28515626 1.148438,3.49218751 3.292969,3.49218751 0.808594,0 1.347656,-0.140625 2.261719,-0.62109375 L 38.360711,-1.0651797 38.18493,-1.2761172 c -0.667969,0.37500001 -1.101563,0.50390626 -1.675782,0.50390626 -0.75,0 -1.441406,-0.39843746 -1.804687,-1.01953126 -0.234375,-0.3984375 -0.316406,-0.7265625 -0.339844,-1.40625 h 1.875 c 0.820313,0 1.464844,-0.082031 2.261719,-0.28125 z m -3.023438,0.3164063 h -0.05859 c -0.08203,0 -0.46875,-0.011719 -0.691407,-0.035156 l -0.457031,-0.011719 c 0.04687,-1.4179688 0.386719,-1.9921875 1.21875,-1.9921875 0.820313,0 1.160156,0.5742187 1.195313,1.9921875 z m 3.925782,-1.7109375 0.644531,0.046875 c 0.339844,0.023437 0.375,0.1523437 0.375,1.0078125 v 3.140625 c 0,0.77343746 -0.07031,0.87890621 -0.515625,0.91406246 l -0.503906,0.0234375 v 0.5390625 l 1.851562,-0.046875 c 0.292969,0 0.984375,0.01171875 1.945313,0.046875 v -0.5390625 l -0.503907,-0.0234375 c -0.445312,-0.0351563 -0.515625,-0.140625 -0.515625,-0.91406246 v -3.1171875 c 0,-0.5039063 0.585938,-0.9726563 1.21875,-0.9726563 0.9375,0 1.347657,0.5039063 1.347657,1.6523438 v 3.91406246 c 0.808593,-0.03515625 1.054687,-0.046875 1.289062,-0.046875 0.199219,0 0.199219,0 1.441406,0.046875 v -0.5390625 l -0.46875,-0.0234375 c -0.445312,-0.0351563 -0.515625,-0.140625 -0.515625,-0.91406246 v -2.671875 c 0,-1.1015625 -0.128906,-1.6523438 -0.503906,-2.0507813 -0.375,-0.3867187 -0.960937,-0.609375 -1.664062,-0.609375 -0.433594,0 -0.773438,0.09375 -0.996094,0.28125 l -1.148438,0.890625 v -1.078125 l -0.09375,-0.09375 c -1.488281,0.4921875 -1.886718,0.5742188 -2.683593,0.6210938 z m 13.078125,4.76953121 -0.117188,-0.28125001 c -0.292969,0.15234376 -0.433594,0.18750001 -0.667969,0.18750001 -0.667968,0 -0.878906,-0.22265621 -0.878906,-0.92578121 v -3.421875 h 1.511719 l 0.117187,-0.9257813 -1.628906,0.082031 V -6.97143 c 0,-0.7617187 0.03516,-1.2304687 0.164063,-1.9453125 l -0.199219,-0.1523437 c -0.574219,0.28125 -1.019531,0.4453125 -1.746094,0.7265625 0.03516,0.7382812 0.05859,1.0195312 0.05859,1.3125 v 0.8671875 l -0.949219,0.609375 v 0.3164062 l 0.914063,-0.058594 v 3.7148437 c 0,1.27734376 0.539062,1.82812501 1.78125,1.82812501 0.445312,0 0.808593,-0.10546875 0.9375,-0.2578125 z m 6.735351,-3.37500001 c 0,-1.5351562 -1.078125,-2.53125 -2.707031,-2.53125 -0.503906,0 -0.878906,0.1054688 -1.265625,0.3398438 l -0.667969,0.3984375 c -0.949218,0.5625 -1.371093,1.4179687 -1.371093,2.7773437 0,2.28515626 1.148437,3.49218751 3.292968,3.49218751 0.808594,0 1.347657,-0.140625 2.261719,-0.62109375 L 59.076531,-1.0651797 58.90075,-1.2761172 c -0.667969,0.37500001 -1.101562,0.50390626 -1.675781,0.50390626 -0.75,0 -1.441406,-0.39843746 -1.804688,-1.01953126 -0.234375,-0.3984375 -0.316406,-0.7265625 -0.339843,-1.40625 h 1.875 c 0.820312,0 1.464843,-0.082031 2.261718,-0.28125 z m -3.023437,0.3164063 h -0.05859 c -0.08203,0 -0.46875,-0.011719 -0.691406,-0.035156 l -0.457031,-0.011719 c 0.04687,-1.4179688 0.386718,-1.9921875 1.21875,-1.9921875 0.820312,0 1.160156,0.5742187 1.195312,1.9921875 z m 10.760742,-6.4101561 -1.03125,0.316406 c -0.375,0.1054688 -0.855469,0.1992188 -1.628906,0.2929688 v 0.515625 l 0.644531,0.046875 c 0.339844,0.035156 0.375,0.1640625 0.375,1.0078125 v 6.7148438 c 0,0.77343746 -0.07031,0.87890621 -0.515625,0.91406246 l -0.503906,0.0234375 v 0.5390625 l 1.851562,-0.046875 c 0.292969,0 0.984375,0.01171875 1.945313,0.046875 v -0.5390625 l -0.503907,-0.0234375 c -0.445312,-0.0351563 -0.515625,-0.140625 -0.515625,-0.91406246 v -3.1171875 c 0,-0.5039063 0.585938,-0.9726563 1.21875,-0.9726563 0.9375,0 1.347657,0.5039063 1.347657,1.6640625 v 3.90234376 c 0.808593,-0.03515625 1.054687,-0.046875 1.289062,-0.046875 0.199219,0 0.199219,0 1.441406,0.046875 v -0.5390625 l -0.46875,-0.0234375 c -0.445312,-0.0351563 -0.515625,-0.140625 -0.515625,-0.91406246 v -2.671875 c 0,-1.1015625 -0.128906,-1.6523438 -0.503906,-2.0507813 -0.375,-0.3867187 -0.960937,-0.609375 -1.664062,-0.609375 -0.433594,0 -0.773438,0.09375 -0.996094,0.28125 l -1.148438,0.890625 v -4.6523438 z m 8.882812,3.5624998 -1.007812,0.3164063 c -0.457031,0.1523437 -0.808594,0.2109375 -1.40625,0.28125 -0.04687,0 -0.117188,0.011719 -0.210938,0.023437 v 0.515625 l 0.644532,0.046875 c 0.328125,0.023437 0.375,0.1523437 0.375,1.0078125 v 3.140625 c 0,0.77343746 -0.08203,0.87890621 -0.527344,0.91406246 l -0.492188,0.0234375 v 0.5390625 l 1.851563,-0.046875 c 0.28125,0 0.972656,0.01171875 1.933594,0.046875 v -0.5390625 l -0.503907,-0.0234375 c -0.445312,-0.0351563 -0.515625,-0.140625 -0.515625,-0.91406246 v -5.2382813 z m -0.773437,-3.3632808 c -0.621094,0 -1.101563,0.4570308 -1.101563,1.0546871 0,0.609375 0.480469,1.0898437 1.078125,1.0898437 0.585938,0 1.078125,-0.4804687 1.078125,-1.0664062 0,-0.5976563 -0.46875,-1.0781246 -1.054687,-1.0781246 z m 5.469727,3.3632808 -0.996094,0.3164063 c -0.492188,0.1523437 -0.738281,0.1875 -1.464844,0.2929687 l -0.164062,0.011719 v 0.515625 l 0.65625,0.046875 c 0.328125,0.023437 0.363281,0.1523437 0.363281,1.0078125 v 6.796875 c 0,0.7734375 -0.07031,0.890625 -0.515625,0.9140625 l -0.503906,0.035156 v 0.5273438 l 1.851562,-0.046875 c 0.1875,0 0.222656,0 2.085938,0.046875 V 3.1770078 L 81.201531,3.1418516 C 80.756219,3.1301328 80.685906,3.0012266 80.685906,2.2277891 V 0.00122656 c 0.703125,0.19921875 0.925782,0.24609375 1.277344,0.24609375 0.480469,0 0.984375,-0.2578125 1.957031,-1.03125 0.09375,-0.0585938 0.175782,-0.12890625 0.246094,-0.1875 0.949219,-0.71484371 1.464844,-1.83984371 1.464844,-3.12890621 0,-1.5234375 -1.101563,-2.6601563 -2.601563,-2.6601563 -0.550781,0 -0.972656,0.1640625 -1.476562,0.5625 l -0.867188,0.703125 v -1.171875 z m 0.152343,2.015625 c 0.316407,-0.4804687 0.785157,-0.7148437 1.371094,-0.7148437 1.101563,0 1.769531,0.8554687 1.769531,2.2851562 0,1.5 -0.644531,2.44921876 -1.699218,2.44921876 -0.597657,0 -1.054688,-0.24609375 -1.441407,-0.79687496 z m 12.1875,0.515625 c 0,-1.5351562 -1.078125,-2.53125 -2.707031,-2.53125 -0.503906,0 -0.878906,0.1054688 -1.265625,0.3398438 l -0.667969,0.3984375 c -0.949218,0.5625 -1.371093,1.4179687 -1.371093,2.7773437 0,2.28515626 1.148437,3.49218751 3.292968,3.49218751 0.808594,0 1.347657,-0.140625 2.261719,-0.62109375 L 92.732781,-1.0651797 92.557,-1.2761172 c -0.667969,0.37500001 -1.101562,0.50390626 -1.675781,0.50390626 -0.75,0 -1.441406,-0.39843746 -1.804688,-1.01953126 -0.234375,-0.3984375 -0.316406,-0.7265625 -0.339843,-1.40625 h 1.875 c 0.820312,0 1.464843,-0.082031 2.261718,-0.28125 z m -3.023437,0.3164063 h -0.05859 c -0.08203,0 -0.46875,-0.011719 -0.691406,-0.035156 l -0.457031,-0.011719 c 0.04687,-1.4179688 0.386718,-1.9921875 1.21875,-1.9921875 0.820312,0 1.160156,0.5742187 1.195312,1.9921875 z m 6.644531,-2.8476563 -1.007812,0.3164063 c -0.457032,0.1523437 -0.714844,0.1875 -1.617188,0.3046875 v 0.515625 l 0.644531,0.046875 c 0.328125,0.023437 0.375,0.1523437 0.375,1.0078125 v 3.140625 c 0,0.77343746 -0.07031,0.87890621 -0.515625,0.91406246 l -0.503906,0.0234375 v 0.5390625 l 1.851563,-0.046875 c 0.1875,0 0.222656,0 2.15625,0.046875 v -0.5390625 l -0.550782,-0.0234375 c -0.621093,-0.0351563 -0.691406,-0.1171875 -0.691406,-0.91406246 v -2.8476563 c 0,-0.4453125 0.585938,-0.9140625 1.148438,-0.9140625 0.351562,0 0.621093,0.1757813 0.820312,0.515625 l 0.339844,-0.140625 0.07031,-1.8515625 c -0.140625,-0.058594 -0.328125,-0.09375 -0.527343,-0.09375 -0.398438,0 -0.679688,0.1757813 -1.21875,0.7617188 l -0.632813,0.6914062 v -1.359375 z m 5.5459,-3.4804688 -0.11719,-0.08203 -1.03125,0.316406 c -0.41016,0.1289063 -0.902343,0.2109376 -1.734374,0.2929688 v 0.515625 l 0.761719,0.046875 c 0.316405,0.011719 0.374995,0.1640625 0.374995,1.0078125 v 5.8242188 c 0,0.7617187 -0.0469,1.61718746 -0.1289,2.37890621 l 0.3164,0.1171875 0.5625,-0.45703125 c 0.65625,0.3515625 1.25391,0.52734375 1.875,0.52734375 0.44532,0 0.83204,-0.1171875 1.24219,-0.36328125 0.57422,-0.33984375 1.24219,-0.78515625 1.64063,-1.11328126 0.71484,-0.5859375 1.19531,-1.6992187 1.19531,-2.8007812 0,-1.59375 -1.07813,-2.7304688 -2.60156,-2.7304688 -0.5625,0 -0.97266,0.1640625 -1.47657,0.5625 l -0.8789,0.703125 z m 0,5.4960938 c 0.3164,-0.4804687 0.79687,-0.7148437 1.38281,-0.7148437 1.10156,0 1.75781,0.8554687 1.75781,2.2851562 0,1.5 -0.64453,2.44921876 -1.6875,2.44921876 -0.60937,0 -1.0664,-0.24609375 -1.45312,-0.79687496 z m 9.85547,-2.015625 c -2.27344,0 -3.53907,1.265625 -3.53907,3.5507813 0,2.203125 1.17188,3.45703121 3.25782,3.45703121 2.29687,0 3.58593,-1.31250001 3.58593,-3.63281251 0,-2.1796875 -1.18359,-3.375 -3.30468,-3.375 z m -0.16407,0.6914063 c 1.03125,0 1.51172,1.0195312 1.51172,3.1289062 0,1.7460938 -0.39843,2.49609376 -1.37109,2.49609376 -1.03125,0 -1.57031,-1.04296876 -1.57031,-3.11718746 0,-1.734375 0.43359,-2.5078125 1.42968,-2.5078125 z m 7.14551,-4.2539061 -1.04297,0.316406 c -0.41015,0.1289063 -0.90234,0.2109376 -1.73437,0.2929688 v 0.515625 l 0.76172,0.046875 c 0.3164,0.011719 0.375,0.1640625 0.375,1.0078125 v 6.7148438 c 0,0.77343746 -0.0703,0.87890621 -0.51563,0.91406246 l -0.5039,0.0234375 v 0.5390625 l 1.85156,-0.046875 c 0.29297,0 0.97266,0.01171875 1.93359,0.046875 v -0.5390625 l -0.5039,-0.0234375 c -0.4336,-0.0351563 -0.51563,-0.140625 -0.51563,-0.91406246 v -8.8125001 z m 4.77539,3.5624998 -1.00781,0.3164063 c -0.45703,0.1523437 -0.80859,0.2109375 -1.40625,0.28125 -0.0469,0 -0.11719,0.011719 -0.21094,0.023437 v 0.515625 l 0.64453,0.046875 c 0.32813,0.023437 0.375,0.1523437 0.375,1.0078125 v 3.140625 c 0,0.77343746 -0.082,0.87890621 -0.52734,0.91406246 l -0.49219,0.0234375 v 0.5390625 l 1.85157,-0.046875 c 0.28125,0 0.97265,0.01171875 1.93359,0.046875 v -0.5390625 l -0.50391,-0.0234375 c -0.44531,-0.0351563 -0.51562,-0.140625 -0.51562,-0.91406246 v -5.2382813 z m -0.77343,-3.3632808 c -0.6211,0 -1.10157,0.4570308 -1.10157,1.0546871 0,0.609375 0.48047,1.0898437 1.07813,1.0898437 0.58594,0 1.07812,-0.4804687 1.07812,-1.0664062 0,-0.5976563 -0.46875,-1.0781246 -1.05468,-1.0781246 z m 8.02441,5.8593746 c 0.0937,-0.9140625 0.16406,-1.3828125 0.29297,-2.015625 l -0.10547,-0.1875 c -0.65625,-0.234375 -0.96094,-0.2929688 -1.47656,-0.2929688 -0.53907,0 -0.94922,0.1054688 -1.28907,0.3046875 l -0.75,0.4453125 c -1.27734,0.7617188 -1.73437,1.4765625 -1.73437,2.7304688 0,2.2734375 1.13672,3.52734371 3.1875,3.52734371 0.71484,0 1.25391,-0.12890625 1.92187,-0.4921875 l 0.30469,-0.65625 -0.1289,-0.14062501 c -0.49219,0.19921876 -0.8086,0.26953126 -1.21875,0.26953126 -1.40625,0 -2.28516,-1.13671876 -2.28516,-2.95312496 0,-1.3125 0.49219,-2.015625 1.40625,-2.015625 0.64453,0 1.21875,0.2929687 1.26562,0.6210937 l 0.0937,0.8554688 z m 5.06836,3.30468746 -0.0703,0.890625 0.0703,0.1171875 c 0.89062,-0.03515625 1.13672,-0.046875 1.30078,-0.046875 0.17578,0 0.41016,0.01171875 1.26563,0.046875 v -0.5390625 l -0.4336,-0.0351563 c -0.3164,-0.0585938 -0.38672,-0.19921875 -0.39844,-0.87890626 V -1.709711 c -0.0117,-0.4570313 -0.0234,-0.8554688 -0.0234,-1.1953125 0,-0.3984375 0.0117,-0.8554688 0.0234,-1.3945313 0.0117,-0.1875 0.0117,-0.3164062 0.0117,-0.421875 0,-1.2773437 -0.85547,-2.0390625 -2.30859,-2.0390625 -0.59766,0 -1.18359,0.1640625 -1.72266,0.4921875 l -0.76172,0.4570313 v 0.9960937 l 0.4336,0.09375 0.3164,-0.7148437 c 0.0469,-0.09375 0.44532,-0.1992188 0.83204,-0.1992188 0.96093,0 1.41796,0.515625 1.46484,1.6875 l -1.26563,0.2578125 c -1.80468,0.375 -2.44921,0.9375 -2.44921,2.15625 0,1.16015631 0.58593,1.78125006 1.67578,1.78125006 0.3164,0 0.5625,-0.0585938 0.70312,-0.17578125 z m 0,-0.69140626 c -0.26953,0.375 -0.80859,0.6445313 -1.23047,0.6445313 -0.45703,0 -0.73828,-0.3398438 -0.73828,-0.9023438 0,-0.703125 0.30469,-0.984375 1.32422,-1.265625 l 0.64453,-0.1640625 z m 0,0"
         style="fill:#000000;fill-opacity:1;fill-rule:nonzero;stroke:#000000;stroke-width:0.751181;stroke-dasharray:none;stroke-opacity:1" />
      <path
         id="path81"
         d="m 1.4056328,34.410406 v 4.136719 c 0,1.066406 0.46875,1.523437 1.5820313,1.523437 0.328125,0 0.6679687,-0.07031 0.75,-0.175781 l 0.6914062,-0.761719 -0.1875,-0.246093 c -0.3515625,0.199218 -0.5742187,0.28125 -0.84375,0.28125 -0.5625,0 -0.7851562,-0.292969 -0.7851562,-0.996094 v -3.761719 h 1.828125 l 0.1289062,-0.773437 -1.9570312,0.09375 v -0.550782 c 0,-0.597656 0.035156,-1.113281 0.1523437,-2.039062 L 2.6009453,30.988531 c -0.3515625,0.210938 -0.7851562,0.398438 -1.21875,0.539063 0.035156,0.433593 0.046875,0.703125 0.046875,1.136718 v 1.007813 L 0.31578906,34.176031 V 34.469 Z m 7.9248047,4.3125 -0.082031,1.21875 c 0.9374995,-0.04687 0.9374995,-0.04687 1.1249995,-0.04687 0.07031,0 0.433594,0.01172 1.066407,0.04687 v -0.433594 l -0.5625,-0.02344 C 10.52575,39.461187 10.467156,39.344 10.467156,38.652594 v -2.625 c 0,-2.097657 -0.597656,-2.859375 -2.2617185,-2.859375 -0.6210937,0 -1.1835937,0.152343 -1.734375,0.492187 l -0.7617187,0.457031 v 0.925782 l 0.375,0.105468 0.1875,-0.445312 c 0.3046875,-0.679688 0.4453125,-0.773438 1.1015625,-0.773438 1.3476562,0 1.9101562,0.527344 1.9570312,1.828125 L 7.90075,36.027594 c -1.9453125,0.351562 -2.765625,1.03125 -2.765625,2.273437 0,1.125 0.6796875,1.769531 1.8046875,1.769531 0.2578125,0 0.5039063,-0.04687 0.609375,-0.117187 z m 0,-0.609375 c -0.421875,0.585938 -1.3242187,1.136719 -1.8867187,1.136719 -0.5742188,0 -1.078125,-0.527344 -1.078125,-1.148438 0,-0.527343 0.2929687,-1.03125 0.7265625,-1.300781 0.3515625,-0.222656 1.1484375,-0.421875 2.2382812,-0.574219 z m 8.4023435,1.828125 c 0.878907,-0.04687 0.890625,-0.04687 1.136719,-0.04687 0.199219,0 0.199219,0 1.183594,0.04687 v -0.433594 l -0.585938,-0.04687 C 18.974969,39.43775 18.939813,39.344 18.939813,38.429937 v -2.765625 c 0,-1.675781 -0.796875,-2.496093 -2.402344,-2.496093 -0.527344,0 -0.832031,0.105468 -1.125,0.363281 l -1.089844,0.9375 v -1.242188 l -0.128906,-0.05859 c -0.738281,0.304687 -1.488281,0.503906 -2.238281,0.585937 v 0.398438 h 0.527343 c 0.574219,0 0.632813,0.105468 0.632813,1.054687 v 3.222656 c 0,0.902344 -0.04687,1.007813 -0.539063,1.03125 L 11.932,39.508062 v 0.433594 c 0.984375,-0.03516 1.371094,-0.04687 1.78125,-0.04687 0.421875,0 0.808594,0.01172 1.78125,0.04687 v -0.433594 l -0.644531,-0.04687 c -0.492188,-0.02344 -0.527344,-0.128906 -0.527344,-1.03125 v -3.035156 c 0,-0.644531 0.9375,-1.347656 1.816406,-1.347656 0.960938,0 1.59375,0.714844 1.59375,1.816406 z m 2.572266,-9.527344 h 0.796875 c 0.257812,0 0.363281,0.152344 0.363281,0.585938 v 7.429687 c 0,0.902344 -0.04687,1.007813 -0.539062,1.03125 l -0.644532,0.04687 v 0.433594 c 0.984375,-0.03516 1.371094,-0.04687 1.78125,-0.04687 0.421875,0 0.808594,0.01172 1.78125,0.04687 v -0.433594 l -0.644531,-0.04687 c -0.492187,-0.02344 -0.527344,-0.128906 -0.527344,-1.03125 v -3.035156 c 0,-0.644531 0.9375,-1.347656 1.816407,-1.347656 0.960937,0 1.59375,0.714844 1.59375,1.816406 v 4.078125 c 0.878906,-0.04687 0.890625,-0.04687 1.136718,-0.04687 0.199219,0 0.199219,0 1.183594,0.04687 v -0.433594 l -0.585937,-0.04687 C 27.324578,39.43775 27.289422,39.344 27.289422,38.429937 v -2.765625 c 0,-1.675781 -0.796875,-2.496093 -2.402344,-2.496093 -0.527344,0 -0.832031,0.105468 -1.125,0.363281 l -1.089844,0.9375 v -4.875 l -0.128906,-0.117188 c -0.632812,0.246094 -1.113281,0.363282 -2.238281,0.539063 z m 0,0"
         style="fill:#000000;fill-opacity:1;fill-rule:nonzero;stroke:#000000;stroke-width:0.751181;stroke-dasharray:none;stroke-opacity:1" />
      <path
         id="path82"
         d="m 33.673211,43.480719 c 0,-0.04687 0,-0.07031 -0.246094,-0.328125 -1.875,-1.886719 -2.355469,-4.710938 -2.355469,-6.996094 0,-2.601563 0.574219,-5.203125 2.414063,-7.078125 0.1875,-0.175781 0.1875,-0.199219 0.1875,-0.246094 0,-0.105469 -0.05859,-0.152344 -0.140625,-0.152344 -0.152344,0 -1.5,1.019532 -2.378906,2.917969 -0.761719,1.640625 -0.949219,3.304688 -0.949219,4.558594 0,1.171875 0.164062,2.976562 0.996094,4.664062 0.890625,1.839844 2.179687,2.8125 2.332031,2.8125 0.08203,0 0.140625,-0.04687 0.140625,-0.152343 z m 0,0"
         style="fill:#000000;fill-opacity:1;fill-rule:nonzero;stroke:#000000;stroke-width:0.751181;stroke-dasharray:none;stroke-opacity:1" />
      <path
         id="path83"
         d="m 41.844109,38.488531 c -0.539062,0.445313 -0.878906,0.5625 -1.113281,0.5625 -0.210937,0 -0.386719,-0.04687 -0.527344,-0.316406 -0.128906,-0.269531 -0.304687,-0.878906 -0.375,-1.3125 -0.03516,-0.234375 -0.07031,-0.457031 -0.09375,-0.667969 0.421875,-0.574219 0.84375,-1.207031 1.054688,-1.523437 0.199219,-0.304688 0.738281,-1.160157 0.820312,-1.441407 -0.08203,-0.164062 -0.140625,-0.292968 -0.234375,-0.503906 -0.03516,-0.03516 -0.152343,-0.07031 -0.210937,-0.105469 -0.328125,1.195313 -0.515625,1.59375 -1.042969,2.4375 -0.05859,0.09375 -0.292969,0.445313 -0.457031,0.691407 -0.257813,-1.722657 -0.316406,-2.121094 -0.410156,-2.625 -0.128907,-0.644532 -0.527344,-0.703125 -0.832032,-0.703125 -0.316406,0.01172 -0.785156,0.257812 -1.253906,0.703125 -0.351562,0.316406 -0.621094,0.691406 -0.878906,1.136718 -0.632813,1.277344 -1.089844,2.976563 -1.089844,4.125 0,0.480469 0.210938,1.101563 0.539063,1.101563 0.5625,0 1.019531,-0.28125 1.464843,-0.609375 0.609375,-0.515625 1.253907,-1.160156 1.699219,-1.664063 0.152344,1.488282 0.585938,2.273438 1.125,2.273438 0.316406,0 0.761719,-0.234375 1.242188,-0.65625 l 0.703125,-0.632813 z m -3,-1.160156 c -0.421875,0.492187 -0.832031,0.914062 -1.195312,1.21875 -0.445313,0.375 -0.84375,0.503906 -1.101563,0.503906 -0.1875,0 -0.257812,-0.199219 -0.257812,-0.574219 0,-0.925781 0.234375,-2.472656 0.703125,-3.65625 0.1875,-0.480468 0.539062,-0.890625 0.855469,-0.890625 0.421875,0 0.574218,0.257813 0.667968,0.890625 z m 0,0"
         style="fill:#000000;fill-opacity:1;fill-rule:nonzero;stroke:#000000;stroke-width:0.751181;stroke-dasharray:none;stroke-opacity:1" />
      <path
         id="path84"
         d="m 47.140984,36.1565 c 0,-1.171875 -0.164062,-2.976563 -0.984375,-4.664063 -0.902343,-1.839843 -2.191406,-2.8125 -2.34375,-2.8125 -0.08203,0 -0.140625,0.05859 -0.140625,0.152344 0,0.04687 0,0.07031 0.28125,0.339844 1.464844,1.476562 2.320313,3.855469 2.320313,6.984375 0,2.554687 -0.550781,5.191406 -2.414063,7.078125 -0.1875,0.175781 -0.1875,0.199219 -0.1875,0.246094 0,0.09375 0.05859,0.152343 0.140625,0.152343 0.152344,0 1.5,-1.019531 2.378907,-2.917968 0.761718,-1.640625 0.949218,-3.304688 0.949218,-4.558594 z m 16.086914,-1.148438 c 0.222657,0 0.503907,0 0.503907,-0.304687 0,-0.292969 -0.28125,-0.292969 -0.492188,-0.292969 h -8.953125 c -0.210937,0 -0.503906,0 -0.503906,0.292969 0,0.304687 0.292969,0.304687 0.515625,0.304687 z m 0.01172,2.894532 c 0.210938,0 0.492188,0 0.492188,-0.292969 0,-0.304688 -0.28125,-0.304688 -0.503907,-0.304688 h -8.929687 c -0.222656,0 -0.515625,0 -0.515625,0.304688 0,0.292969 0.292969,0.292969 0.503906,0.292969 z m 0,0"
         style="fill:#000000;fill-opacity:1;fill-rule:nonzero;stroke:#000000;stroke-width:0.751181;stroke-dasharray:none;stroke-opacity:1" />
      <path
         id="path85"
         d="m 71.360711,28.132086 c 0,0.984375 -0.03516,1.417969 -0.152344,1.992187 0.738281,0.246094 1.300781,0.339844 1.957031,0.339844 1.886719,0 3.222657,-0.996094 3.222657,-2.402344 0,-0.445312 -0.128907,-0.773437 -0.410157,-1.066406 -0.375,-0.351562 -0.84375,-0.527344 -2.109375,-0.773437 -1.171875,-0.222657 -1.558593,-0.515625 -1.558593,-1.171875 0,-0.714844 0.503906,-1.125 1.371093,-1.125 0.960938,0 1.699219,0.503906 1.699219,1.183593 v 0.328125 h 0.398438 c 0.01172,-0.832031 0.03516,-1.183593 0.07031,-1.617187 -0.761719,-0.257813 -1.277344,-0.363281 -1.863281,-0.363281 -1.664063,0 -2.683594,0.785156 -2.683594,2.074218 0,0.691407 0.316406,1.183594 0.984375,1.476563 0.386719,0.175781 1.136719,0.410156 2.121094,0.621094 0.644531,0.140625 0.914062,0.445312 0.914062,0.996093 0,0.773438 -0.714843,1.3125 -1.734375,1.3125 -1.042968,0 -1.792968,-0.503906 -1.792968,-1.21875 v -0.585937 z m 8.191406,-4.617188 -0.128906,-0.05859 c -0.726563,0.304687 -1.476563,0.503906 -2.238281,0.585937 v 0.398438 h 0.527343 c 0.574219,0 0.632813,0.105468 0.632813,1.054687 v 3.222656 c 0,0.902344 -0.03516,1.007813 -0.527344,1.03125 l -0.65625,0.04687 v 0.433594 c 1.429688,-0.04687 1.429688,-0.04687 1.792969,-0.04687 0.351562,0 0.351562,0 1.792969,0.04687 v -0.433594 l -0.667969,-0.04687 c -0.480469,-0.02344 -0.527344,-0.128906 -0.527344,-1.03125 z m -0.65625,-3.1875 c -0.433594,0 -0.808594,0.375 -0.808594,0.808594 0,0.410156 0.375,0.785156 0.796875,0.785156 0.410157,0 0.796875,-0.375 0.796875,-0.785156 0,-0.410156 -0.386718,-0.808594 -0.785156,-0.808594 z m 8.018555,9.902344 c 0.878906,-0.04687 0.890625,-0.04687 1.136719,-0.04687 0.199218,0 0.199218,0 1.183593,0.04687 v -0.433594 l -0.585937,-0.04687 c -0.492188,-0.02344 -0.527344,-0.117187 -0.527344,-1.03125 v -2.765625 c 0,-1.675781 -0.796875,-2.496093 -2.402344,-2.496093 -0.527343,0 -0.832031,0.105468 -1.125,0.363281 l -1.089843,0.9375 v -1.242188 l -0.128907,-0.05859 C 82.637078,23.761 81.887078,23.960219 81.137078,24.04225 v 0.398438 h 0.527344 c 0.574219,0 0.632812,0.105468 0.632812,1.054687 v 3.222656 c 0,0.902344 -0.04687,1.007813 -0.539062,1.03125 l -0.644531,0.04687 v 0.433594 c 0.984375,-0.03516 1.371093,-0.04687 1.78125,-0.04687 0.421875,0 0.808593,0.01172 1.78125,0.04687 v -0.433594 l -0.644532,-0.04687 c -0.492187,-0.02344 -0.527343,-0.128906 -0.527343,-1.03125 v -3.035156 c 0,-0.644531 0.9375,-1.347656 1.816406,-1.347656 0.960937,0 1.59375,0.714844 1.59375,1.816406 z m 2.572266,-9.527344 h 0.796875 c 0.257812,0 0.363281,0.152344 0.363281,0.585938 v 7.429687 c 0,0.902344 -0.04687,1.007813 -0.539063,1.03125 l -0.644531,0.04687 v 0.433594 c 0.984375,-0.03516 1.371094,-0.04687 1.78125,-0.04687 0.421875,0 0.808594,0.01172 1.78125,0.04687 v -0.433594 l -0.644531,-0.04687 c -0.492188,-0.02344 -0.527344,-0.128906 -0.527344,-1.03125 v -3.035156 c 0,-0.644531 0.9375,-1.347656 1.816406,-1.347656 0.960938,0 1.59375,0.714844 1.59375,1.816406 v 4.078125 c 0.878907,-0.04687 0.890625,-0.04687 1.136719,-0.04687 0.199219,0 0.199219,0 1.183594,0.04687 v -0.433594 l -0.585938,-0.04687 c -0.492187,-0.02344 -0.527343,-0.117187 -0.527343,-1.03125 v -2.765625 c 0,-1.675781 -0.796875,-2.496093 -2.402344,-2.496093 -0.527344,0 -0.832031,0.105468 -1.125,0.363281 l -1.089844,0.9375 v -4.875 l -0.128906,-0.117188 c -0.632813,0.246094 -1.113281,0.363282 -2.238281,0.539063 z m 0,0"
         style="fill:#000000;fill-opacity:1;fill-rule:nonzero;stroke:#000000;stroke-width:0.751181;stroke-dasharray:none;stroke-opacity:1" />
      <path
         id="path86"
         d="m 102.85485,33.768805 c 0,-0.04687 0,-0.07031 -0.24609,-0.328125 -1.875,-1.886719 -2.35547,-4.710938 -2.35547,-6.996094 0,-2.601563 0.57422,-5.203125 2.41406,-7.078125 0.1875,-0.175781 0.1875,-0.199219 0.1875,-0.246094 0,-0.105469 -0.0586,-0.152344 -0.14062,-0.152344 -0.15235,0 -1.5,1.019532 -2.37891,2.917969 -0.761718,1.640625 -0.949218,3.304688 -0.949218,4.558594 0,1.171875 0.164062,2.976562 0.996098,4.664062 0.89062,1.839844 2.17968,2.8125 2.33203,2.8125 0.082,0 0.14062,-0.04687 0.14062,-0.152343 z m 0,0"
         style="fill:#000000;fill-opacity:1;fill-rule:nonzero;stroke:#000000;stroke-width:0.751181;stroke-dasharray:none;stroke-opacity:1" />
      <path
         id="path87"
         d="m 111.02575,28.776617 c -0.53906,0.445313 -0.87891,0.5625 -1.11328,0.5625 -0.21094,0 -0.38672,-0.04687 -0.52734,-0.316406 -0.12891,-0.269531 -0.30469,-0.878906 -0.375,-1.3125 -0.0352,-0.234375 -0.0703,-0.457031 -0.0937,-0.667969 0.42187,-0.574219 0.84375,-1.207031 1.05468,-1.523437 0.19922,-0.304688 0.73828,-1.160157 0.82032,-1.441407 -0.082,-0.164062 -0.14063,-0.292968 -0.23438,-0.503906 -0.0352,-0.03516 -0.15234,-0.07031 -0.21094,-0.105469 -0.32812,1.195313 -0.51562,1.59375 -1.04297,2.4375 -0.0586,0.09375 -0.29296,0.445313 -0.45703,0.691407 -0.25781,-1.722657 -0.3164,-2.121094 -0.41015,-2.625 -0.12891,-0.644532 -0.52735,-0.703125 -0.83203,-0.703125 -0.31641,0.01172 -0.78516,0.257812 -1.25391,0.703125 -0.35156,0.316406 -0.62109,0.691406 -0.87891,1.136718 -0.63281,1.277344 -1.08984,2.976563 -1.08984,4.125 0,0.480469 0.21094,1.101563 0.53906,1.101563 0.5625,0 1.01953,-0.28125 1.46485,-0.609375 0.60937,-0.515625 1.2539,-1.160156 1.69921,-1.664063 0.15235,1.488282 0.58594,2.273438 1.125,2.273438 0.31641,0 0.76172,-0.234375 1.24219,-0.65625 l 0.70313,-0.632813 z m -3,-1.160156 c -0.42187,0.492187 -0.83203,0.914062 -1.19531,1.21875 -0.44531,0.375 -0.84375,0.503906 -1.10156,0.503906 -0.1875,0 -0.25782,-0.199219 -0.25782,-0.574219 0,-0.925781 0.23438,-2.472656 0.70313,-3.65625 0.1875,-0.480468 0.53906,-0.890625 0.85547,-0.890625 0.42187,0 0.57422,0.257813 0.66797,0.890625 z m 0,0"
         style="fill:#000000;fill-opacity:1;fill-rule:nonzero;stroke:#000000;stroke-width:0.751181;stroke-dasharray:none;stroke-opacity:1" />
      <path
         id="path88"
         d="m 116.32263,26.444586 c 0,-1.171875 -0.16407,-2.976563 -0.98438,-4.664063 -0.90234,-1.839843 -2.19141,-2.8125 -2.34375,-2.8125 -0.082,0 -0.14062,0.05859 -0.14062,0.152344 0,0.04687 0,0.07031 0.28125,0.339844 1.46484,1.476562 2.32031,3.855469 2.32031,6.984375 0,2.554687 -0.55078,5.191406 -2.41406,7.078125 -0.1875,0.175781 -0.1875,0.199219 -0.1875,0.246094 0,0.09375 0.0586,0.152343 0.14062,0.152343 0.15234,0 1.5,-1.019531 2.37891,-2.917968 0.76172,-1.640625 0.94922,-3.304688 0.94922,-4.558594 z m 0,0"
         style="fill:#000000;fill-opacity:1;fill-rule:nonzero;stroke:#000000;stroke-width:0.751181;stroke-dasharray:none;stroke-opacity:1" />
    </g>
    <path
       id="path89"
       d="M 0,0 H 48.877"
       style="fill:none;stroke:#000000;stroke-width:0.751181;stroke-linecap:butt;stroke-linejoin:miter;stroke-miterlimit:10;stroke-dasharray:none;stroke-opacity:1"
       transform="matrix(1.3333333,0,0,-1.3333333,1109.3387,188.95467)" />
    <g
       id="g89"
       aria-label="cosh(α)&#10;=&#10;e&#10;α&#10;−e&#10;−α"
       transform="matrix(1.3333333,0,0,1.3333333,1109.3387,206.85867)"
       style="stroke:#000000;stroke-width:0.751181;stroke-dasharray:none;stroke-opacity:1">
      <path
         id="path90"
         d="m 5.7196328,-4.4643125 c 0,-0.65625 0.070312,-1.2421875 0.2109375,-1.7578125 -0.5742187,-0.3515625 -1.078125,-0.5039063 -1.6640625,-0.5039063 -0.6914062,0 -1.5,0.2695313 -2.3554687,0.8203125 -1.00781254,0.6328125 -1.53515629,1.6289063 -1.53515629,2.8945313 0,1.9335937 1.35937499,3.29296875 3.28124999,3.29296875 0.75,0 1.828125,-0.26953125 1.96875,-0.48046875 L 5.9305703,-0.65571875 5.7782266,-0.878375 c -0.5273438,0.29296875 -0.984375,0.421875 -1.5,0.421875 -1.59375,0 -2.6367188,-1.2304688 -2.6367188,-3.1289063 0,-1.5351562 0.7148438,-2.390625 2.0039063,-2.390625 0.6328125,0 1.3242187,0.28125 1.5820312,0.6445313 l 0.09375,0.8671875 z m 4.6464842,-2.2617188 c -2.0859373,0 -3.5390623,1.4765625 -3.5390623,3.609375 0,2.0273438 1.2773437,3.39843755 3.1289062,3.39843755 2.2031251,0 3.7851561,-1.52343755 3.7851561,-3.67968755 0,-1.9335937 -1.40625,-3.328125 -3.375,-3.328125 z m -0.257812,0.46875 c 1.324218,0 2.296875,1.4414063 2.296875,3.3867188 0,1.6523437 -0.726563,2.68359375 -1.886719,2.68359375 -1.4062501,0 -2.3554688,-1.37109375 -2.3554688,-3.41015625 0,-1.7226563 0.6914062,-2.6601563 1.9453128,-2.6601563 z m 4.68164,4.2070313 c 0,0.984375 -0.03516,1.41796875 -0.152343,1.9921875 0.738281,0.24609375 1.300781,0.33984375 1.957031,0.33984375 1.886719,0 3.222656,-0.99609375 3.222656,-2.40234375 0,-0.4453125 -0.128906,-0.7734375 -0.410156,-1.0664063 -0.375,-0.3515625 -0.84375,-0.5273437 -2.109375,-0.7734375 -1.171875,-0.2226562 -1.558594,-0.515625 -1.558594,-1.171875 0,-0.7148437 0.503906,-1.125 1.371094,-1.125 0.960937,0 1.699219,0.5039063 1.699219,1.1835938 v 0.328125 h 0.398437 c 0.01172,-0.8320313 0.03516,-1.1835938 0.07031,-1.6171875 -0.761719,-0.2578125 -1.277344,-0.3632813 -1.863282,-0.3632813 -1.664062,0 -2.683593,0.7851563 -2.683593,2.0742188 0,0.6914062 0.316406,1.1835937 0.984375,1.4765625 0.386718,0.1757812 1.136718,0.4101562 2.121093,0.6210937 0.644532,0.140625 0.914063,0.4453125 0.914063,0.9960938 0,0.7734375 -0.714844,1.3125 -1.734375,1.3125 -1.042969,0 -1.792969,-0.50390625 -1.792969,-1.21875 V -2.05025 Z m 5.601563,-7.4296875 h 0.796875 c 0.257812,0 0.363281,0.1523437 0.363281,0.5859375 v 7.4296875 c 0,0.90234375 -0.04687,1.0078125 -0.539062,1.03125 l -0.644532,0.046875 v 0.43359375 c 0.984375,-0.03515625 1.371094,-0.046875 1.78125,-0.046875 0.421875,0 0.808594,0.01171875 1.78125,0.046875 V -0.3861875 l -0.644531,-0.046875 C 22.793852,-0.4565 22.758695,-0.56196875 22.758695,-1.4643125 v -3.0351563 c 0,-0.6445312 0.9375,-1.3476562 1.816407,-1.3476562 0.960937,0 1.59375,0.7148437 1.59375,1.8164062 v 4.07812505 c 0.878906,-0.046875 0.890625,-0.046875 1.136718,-0.046875 0.199219,0 0.199219,0 1.183594,0.046875 V -0.3861875 l -0.585937,-0.046875 C 27.411039,-0.4565 27.375883,-0.55025 27.375883,-1.4643125 v -2.765625 c 0,-1.6757813 -0.796875,-2.4960938 -2.402344,-2.4960938 -0.527344,0 -0.832031,0.1054688 -1.125,0.3632813 l -1.089844,0.9375 v -4.875 l -0.128906,-0.117188 c -0.632812,0.246094 -1.113281,0.363282 -2.238281,0.539063 z m 0,0"
         style="fill:#000000;fill-opacity:1;fill-rule:nonzero;stroke:#000000;stroke-width:0.751181;stroke-dasharray:none;stroke-opacity:1" />
      <path
         id="path91"
         d="m 33.759672,3.5864687 c 0,-0.046875 0,-0.070312 -0.246094,-0.328125 -1.875,-1.8867187 -2.355469,-4.7109375 -2.355469,-6.9960937 0,-2.6015625 0.574219,-5.203125 2.414063,-7.078125 0.1875,-0.175781 0.1875,-0.199219 0.1875,-0.246094 0,-0.105469 -0.05859,-0.152344 -0.140625,-0.152344 -0.152344,0 -1.5,1.019532 -2.378906,2.9179692 -0.761719,1.640625 -0.949219,3.3046875 -0.949219,4.5585938 0,1.171875 0.164062,2.9765625 0.996094,4.6640625 0.890625,1.8398437 2.179687,2.8125 2.332031,2.8125 0.08203,0 0.140625,-0.046875 0.140625,-0.1523438 z m 0,0"
         style="fill:#000000;fill-opacity:1;fill-rule:nonzero;stroke:#000000;stroke-width:0.751181;stroke-dasharray:none;stroke-opacity:1" />
      <path
         id="path92"
         d="m 41.927641,-1.4057188 c -0.539063,0.44531255 -0.878907,0.56250005 -1.113282,0.56250005 -0.210937,0 -0.386718,-0.046875 -0.527343,-0.31640625 -0.128907,-0.2695313 -0.304688,-0.8789063 -0.375,-1.3125 -0.03516,-0.234375 -0.07031,-0.4570313 -0.09375,-0.6679688 0.421875,-0.5742187 0.84375,-1.2070312 1.054687,-1.5234375 0.199219,-0.3046875 0.738281,-1.1601562 0.820313,-1.4414062 -0.08203,-0.1640625 -0.140625,-0.2929688 -0.234375,-0.5039063 -0.03516,-0.035156 -0.152344,-0.070312 -0.210938,-0.1054687 -0.328125,1.1953125 -0.515625,1.59375 -1.042969,2.4375 -0.05859,0.09375 -0.292968,0.4453125 -0.457031,0.6914062 -0.257812,-1.7226562 -0.316406,-2.1210937 -0.410156,-2.625 -0.128906,-0.6445312 -0.527344,-0.703125 -0.832031,-0.703125 -0.316407,0.011719 -0.785157,0.2578125 -1.253907,0.703125 C 36.900297,-5.894 36.630766,-5.519 36.372953,-5.0736875 c -0.632812,1.2773437 -1.089844,2.9765625 -1.089844,4.125 0,0.48046875 0.210938,1.1015625 0.539063,1.1015625 0.5625,0 1.019531,-0.28125 1.464844,-0.609375 0.609375,-0.515625 1.253906,-1.1601563 1.699218,-1.6640625 0.152344,1.48828125 0.585938,2.2734375 1.125,2.2734375 0.316407,0 0.761719,-0.234375 1.242188,-0.65625 l 0.703125,-0.6328125 z m -3,-1.1601562 c -0.421875,0.4921875 -0.832032,0.9140625 -1.195313,1.21875 -0.445312,0.375 -0.84375,0.50390625 -1.101562,0.50390625 -0.1875,0 -0.257813,-0.19921875 -0.257813,-0.57421875 0,-0.9257813 0.234375,-2.4726563 0.703125,-3.65625 0.1875,-0.4804688 0.539063,-0.890625 0.855469,-0.890625 0.421875,0 0.574219,0.2578125 0.667969,0.890625 z m 0,0"
         style="fill:#000000;fill-opacity:1;fill-rule:nonzero;stroke:#000000;stroke-width:0.751181;stroke-dasharray:none;stroke-opacity:1" />
      <path
         id="path93"
         d="m 47.227445,-3.73775 c 0,-1.171875 -0.164062,-2.9765625 -0.984375,-4.6640625 -0.902343,-1.8398435 -2.191406,-2.8125005 -2.34375,-2.8125005 -0.08203,0 -0.140625,0.05859 -0.140625,0.152344 0,0.04687 0,0.07031 0.28125,0.339844 1.464844,1.4765625 2.320313,3.8554687 2.320313,6.984375 0,2.5546875 -0.550781,5.1914062 -2.414063,7.078125 -0.1875,0.1757812 -0.1875,0.1992187 -0.1875,0.2460937 0,0.09375 0.05859,0.1523438 0.140625,0.1523438 0.152344,0 1.5,-1.0195313 2.378907,-2.91796875 0.761718,-1.640625 0.949218,-3.30468755 0.949218,-4.55859375 z m 17.288086,-10.992188 c 0.222657,0 0.503907,0 0.503907,-0.304687 0,-0.292969 -0.28125,-0.292969 -0.492188,-0.292969 h -8.953125 c -0.210937,0 -0.503906,0 -0.503906,0.292969 0,0.304687 0.292969,0.304687 0.515625,0.304687 z m 0.01172,2.894532 c 0.210938,0 0.492188,0 0.492188,-0.292969 0,-0.304688 -0.28125,-0.304688 -0.503907,-0.304688 h -8.929687 c -0.222656,0 -0.515625,0 -0.515625,0.304688 0,0.292969 0.292969,0.292969 0.503906,0.292969 z m 0,0"
         style="fill:#000000;fill-opacity:1;fill-rule:nonzero;stroke:#000000;stroke-width:0.751181;stroke-dasharray:none;stroke-opacity:1" />
      <path
         id="path94"
         d="m 76.096586,-21.148883 -0.339844,0.246094 c -0.761719,0.539062 -1.453125,0.832031 -1.96875,0.832031 -0.667969,0 -1.089844,-0.527344 -1.089844,-1.394531 0,-0.351563 0.04687,-0.738281 0.117188,-1.160156 l 1.183594,-0.28125 c 0.234375,-0.05859 0.621093,-0.210938 0.984375,-0.363282 1.21875,-0.527343 1.78125,-1.195312 1.78125,-2.074218 0,-0.679688 -0.492188,-1.125 -1.207032,-1.125 -0.9375,0 -2.519531,0.984375 -3.082031,1.910156 -0.433594,0.714844 -0.867187,2.425781 -0.867187,3.386719 0,1.113281 0.632812,1.769531 1.664062,1.769531 0.820313,0 1.628906,-0.398438 2.941406,-1.476563 z m -3.082031,-2.332031 c 0.246093,-0.996094 0.539062,-1.605469 0.949218,-1.980469 0.257813,-0.234375 0.703125,-0.410156 1.042969,-0.410156 0.421875,0 0.691406,0.292969 0.691406,0.75 0,0.632812 -0.503906,1.300781 -1.242187,1.664062 -0.410156,0.199219 -0.925781,0.363282 -1.570313,0.503907 z m 0,0"
         style="fill:#000000;fill-opacity:1;fill-rule:nonzero;stroke:#000000;stroke-width:0.751181;stroke-dasharray:none;stroke-opacity:1" />
      <path
         id="path95"
         d="m 82.108305,-25.733844 c -0.363282,0.304688 -0.609375,0.386719 -0.761719,0.386719 -0.152344,0 -0.269531,-0.03516 -0.375,-0.222656 -0.08203,-0.1875 -0.199219,-0.609375 -0.257813,-0.902344 -0.02344,-0.175781 -0.04687,-0.316406 -0.07031,-0.46875 0.304687,-0.398438 0.585937,-0.84375 0.738281,-1.054688 0.140625,-0.210937 0.515625,-0.808593 0.574219,-1.007812 -0.05859,-0.105469 -0.105469,-0.199219 -0.164063,-0.351563 -0.02344,-0.02344 -0.105468,-0.04687 -0.152343,-0.07031 -0.222657,0.832031 -0.351563,1.113281 -0.726563,1.699219 -0.03516,0.05859 -0.199219,0.304687 -0.316406,0.46875 -0.175781,-1.195313 -0.222656,-1.464844 -0.28125,-1.816407 -0.08203,-0.445312 -0.363281,-0.492187 -0.574219,-0.492187 -0.222656,0.01172 -0.550781,0.1875 -0.878906,0.492187 -0.234375,0.222657 -0.421875,0.480469 -0.609375,0.785157 -0.433594,0.890625 -0.75,2.074218 -0.75,2.871093 0,0.328125 0.140625,0.761719 0.375,0.761719 0.386719,0 0.703125,-0.199219 1.019531,-0.421875 0.410156,-0.363281 0.867188,-0.808594 1.171875,-1.160156 0.105469,1.042969 0.410156,1.582031 0.785156,1.582031 0.222657,0 0.527344,-0.164062 0.855469,-0.457031 l 0.492188,-0.433594 z m -2.074219,-0.808594 c -0.292969,0.339844 -0.585938,0.632813 -0.832031,0.84375 -0.304688,0.257813 -0.585938,0.351563 -0.761719,0.351563 -0.128906,0 -0.1875,-0.140625 -0.1875,-0.398438 0,-0.644531 0.164062,-1.710937 0.492187,-2.542968 0.128907,-0.328125 0.375,-0.621094 0.597657,-0.621094 0.292968,0 0.398437,0.1875 0.457031,0.621094 z m 0,0"
         style="fill:#000000;fill-opacity:1;fill-rule:nonzero;stroke:#000000;stroke-width:0.751181;stroke-dasharray:none;stroke-opacity:1" />
      <path
         id="path96"
         d="m 95.989164,-22.988727 c 0.257813,0 0.527344,0 0.527344,-0.304687 0,-0.304688 -0.269531,-0.304688 -0.527344,-0.304688 h -8.085937 c -0.257813,0 -0.527344,0 -0.527344,0.304688 0,0.304687 0.269531,0.304687 0.527344,0.304687 z m 0,0"
         style="fill:#000000;fill-opacity:1;fill-rule:nonzero;stroke:#000000;stroke-width:0.751181;stroke-dasharray:none;stroke-opacity:1" />
      <path
         id="path97"
         d="m 105.60147,-21.148883 -0.33984,0.246094 c -0.76172,0.539062 -1.45313,0.832031 -1.96875,0.832031 -0.66797,0 -1.08985,-0.527344 -1.08985,-1.394531 0,-0.351563 0.0469,-0.738281 0.11719,-1.160156 l 1.18359,-0.28125 c 0.23438,-0.05859 0.6211,-0.210938 0.98438,-0.363282 1.21875,-0.527343 1.78125,-1.195312 1.78125,-2.074218 0,-0.679688 -0.49219,-1.125 -1.20703,-1.125 -0.9375,0 -2.51953,0.984375 -3.08203,1.910156 -0.4336,0.714844 -0.86719,2.425781 -0.86719,3.386719 0,1.113281 0.63281,1.769531 1.66406,1.769531 0.82031,0 1.62891,-0.398438 2.94141,-1.476563 z m -3.08203,-2.332031 c 0.24609,-0.996094 0.53906,-1.605469 0.94922,-1.980469 0.25781,-0.234375 0.70312,-0.410156 1.04297,-0.410156 0.42187,0 0.6914,0.292969 0.6914,0.75 0,0.632812 -0.5039,1.300781 -1.24219,1.664062 -0.41015,0.199219 -0.92578,0.363282 -1.57031,0.503907 z m 0,0"
         style="fill:#000000;fill-opacity:1;fill-rule:nonzero;stroke:#000000;stroke-width:0.751181;stroke-dasharray:none;stroke-opacity:1" />
      <path
         id="path98"
         d="m 113.62881,-27.151813 c 0.17578,0 0.36328,0 0.36328,-0.210937 0,-0.199219 -0.1875,-0.199219 -0.36328,-0.199219 h -5.61328 c -0.1875,0 -0.36328,0 -0.36328,0.199219 0,0.210937 0.17578,0.210937 0.36328,0.210937 z m 0,0"
         style="fill:#000000;fill-opacity:1;fill-rule:nonzero;stroke:#000000;stroke-width:0.751181;stroke-dasharray:none;stroke-opacity:1" />
      <path
         id="path99"
         d="m 119.9335,-25.733844 c -0.36328,0.304688 -0.60937,0.386719 -0.76172,0.386719 -0.15234,0 -0.26953,-0.03516 -0.375,-0.222656 -0.082,-0.1875 -0.19922,-0.609375 -0.25781,-0.902344 -0.0234,-0.175781 -0.0469,-0.316406 -0.0703,-0.46875 0.30468,-0.398438 0.58593,-0.84375 0.73828,-1.054688 0.14062,-0.210937 0.51562,-0.808593 0.57422,-1.007812 -0.0586,-0.105469 -0.10547,-0.199219 -0.16407,-0.351563 -0.0234,-0.02344 -0.10546,-0.04687 -0.15234,-0.07031 -0.22266,0.832031 -0.35156,1.113281 -0.72656,1.699219 -0.0352,0.05859 -0.19922,0.304687 -0.31641,0.46875 -0.17578,-1.195313 -0.22265,-1.464844 -0.28125,-1.816407 -0.082,-0.445312 -0.36328,-0.492187 -0.57422,-0.492187 -0.22265,0.01172 -0.55078,0.1875 -0.8789,0.492187 -0.23438,0.222657 -0.42188,0.480469 -0.60938,0.785157 -0.43359,0.890625 -0.75,2.074218 -0.75,2.871093 0,0.328125 0.14063,0.761719 0.375,0.761719 0.38672,0 0.70313,-0.199219 1.01953,-0.421875 0.41016,-0.363281 0.86719,-0.808594 1.17188,-1.160156 0.10547,1.042969 0.41015,1.582031 0.78515,1.582031 0.22266,0 0.52735,-0.164062 0.85547,-0.457031 l 0.49219,-0.433594 z m -2.07422,-0.808594 c -0.29297,0.339844 -0.58594,0.632813 -0.83203,0.84375 -0.30469,0.257813 -0.58594,0.351563 -0.76172,0.351563 -0.1289,0 -0.1875,-0.140625 -0.1875,-0.398438 0,-0.644531 0.16406,-1.710937 0.49219,-2.542968 0.12891,-0.328125 0.375,-0.621094 0.59766,-0.621094 0.29296,0 0.39843,0.1875 0.45703,0.621094 z m 0,0"
         style="fill:#000000;fill-opacity:1;fill-rule:nonzero;stroke:#000000;stroke-width:0.751181;stroke-dasharray:none;stroke-opacity:1" />
    </g>
    <path
       id="path100"
       d="M 0,0 H 49.77"
       style="fill:none;stroke:#000000;stroke-width:0.751181;stroke-linecap:butt;stroke-linejoin:miter;stroke-miterlimit:10;stroke-dasharray:none;stroke-opacity:1"
       transform="matrix(1.3333333,0,0,-1.3333333,1204.2947,188.95467)" />
    <g
       id="g100"
       aria-label="e&#10;α&#10;+e&#10;−α"
       transform="matrix(1.3333333,0,0,1.3333333,1204.5333,206.85867)"
       style="stroke:#000000;stroke-width:0.751181;stroke-dasharray:none;stroke-opacity:1">
      <path
         id="path101"
         d="M 4.7005859,-1.5932188 4.3607422,-1.347125 c -0.7617188,0.5390625 -1.453125,0.83203125 -1.96875,0.83203125 -0.6679688,0 -1.0898438,-0.52734375 -1.0898438,-1.39453125 0,-0.3515625 0.046875,-0.7382813 0.1171875,-1.1601563 l 1.1835938,-0.28125 c 0.234375,-0.058594 0.6210937,-0.2109375 0.984375,-0.3632812 1.21875,-0.5273438 1.78125,-1.1953125 1.78125,-2.0742188 0,-0.6796875 -0.4921875,-1.125 -1.2070313,-1.125 -0.9375,0 -2.5195312,0.984375 -3.0820312,1.9101563 -0.43359376,0.7148437 -0.86718751,2.4257812 -0.86718751,3.3867187 0,1.1132813 0.6328125,1.7695313 1.66406251,1.7695313 0.8203125,0 1.6289062,-0.3984375 2.9414062,-1.4765625 z M 1.6185547,-3.92525 c 0.2460937,-0.9960938 0.5390625,-1.6054688 0.9492187,-1.9804688 0.2578125,-0.234375 0.703125,-0.4101562 1.0429688,-0.4101562 0.421875,0 0.6914062,0.2929687 0.6914062,0.75 0,0.6328125 -0.5039062,1.3007812 -1.2421875,1.6640625 -0.4101562,0.1992187 -0.9257812,0.3632812 -1.5703125,0.5039062 z m 0,0"
         style="fill:#000000;fill-opacity:1;fill-rule:nonzero;stroke:#000000;stroke-width:0.751181;stroke-dasharray:none;stroke-opacity:1" />
      <path
         id="path102"
         d="m 10.712305,-5.1176328 c -0.363282,0.3046875 -0.609375,0.3867187 -0.7617191,0.3867187 -0.1523437,0 -0.2695312,-0.035156 -0.375,-0.2226562 -0.082031,-0.1875 -0.1992187,-0.609375 -0.2578125,-0.9023438 -0.023437,-0.1757812 -0.046875,-0.3164062 -0.070312,-0.46875 0.3046875,-0.3984375 0.5859375,-0.84375 0.7382813,-1.0546875 0.1406253,-0.2109375 0.5156253,-0.8085937 0.5742193,-1.0078125 -0.05859,-0.1054687 -0.105469,-0.1992187 -0.164063,-0.3515625 -0.02344,-0.023437 -0.105468,-0.046875 -0.152343,-0.070312 -0.222657,0.8320313 -0.3515633,1.1132813 -0.7265633,1.6992188 -0.035156,0.058594 -0.1992188,0.3046875 -0.3164063,0.46875 -0.1757812,-1.1953125 -0.2226562,-1.4648438 -0.28125,-1.8164063 -0.082031,-0.4453125 -0.3632812,-0.4921875 -0.5742187,-0.4921875 -0.2226563,0.011719 -0.5507813,0.1875 -0.8789063,0.4921875 -0.234375,0.2226563 -0.421875,0.4804688 -0.609375,0.7851563 -0.4335937,0.890625 -0.75,2.0742187 -0.75,2.8710937 0,0.328125 0.140625,0.7617188 0.375,0.7617188 0.3867188,0 0.703125,-0.1992188 1.0195313,-0.421875 0.4101562,-0.3632813 0.8671875,-0.8085938 1.171875,-1.1601563 0.1054687,1.0429688 0.4101562,1.5820313 0.7851562,1.5820313 0.2226563,0 0.5273438,-0.1640625 0.8554691,-0.4570313 l 0.492188,-0.4335937 z M 8.6380859,-5.9262266 c -0.2929687,0.3398438 -0.5859375,0.6328125 -0.8320312,0.84375 -0.3046875,0.2578125 -0.5859375,0.3515625 -0.7617188,0.3515625 -0.1289062,0 -0.1875,-0.140625 -0.1875,-0.3984375 0,-0.6445312 0.1640625,-1.7109375 0.4921875,-2.5429687 0.1289063,-0.328125 0.375,-0.6210938 0.5976563,-0.6210938 0.2929687,0 0.3984375,0.1875 0.4570312,0.6210938 z m 0,0"
         style="fill:#000000;fill-opacity:1;fill-rule:nonzero;stroke:#000000;stroke-width:0.751181;stroke-dasharray:none;stroke-opacity:1" />
      <path
         id="path103"
         d="m 20.854883,-3.4330625 h 4.171875 c 0.210937,0 0.492187,0 0.492187,-0.3046875 0,-0.3046875 -0.28125,-0.3046875 -0.492187,-0.3046875 h -4.171875 v -4.1835938 c 0,-0.2109375 0,-0.4921875 -0.304688,-0.4921875 -0.292968,0 -0.292968,0.28125 -0.292968,0.4921875 v 4.1835938 h -4.183594 c -0.210938,0 -0.503906,0 -0.503906,0.3046875 0,0.3046875 0.292968,0.3046875 0.503906,0.3046875 h 4.183594 v 4.18359375 c 0,0.2109375 0,0.49218745 0.292968,0.49218745 0.304688,0 0.304688,-0.28124995 0.304688,-0.49218745 z m 0,0"
         style="fill:#000000;fill-opacity:1;fill-rule:nonzero;stroke:#000000;stroke-width:0.751181;stroke-dasharray:none;stroke-opacity:1" />
      <path
         id="path104"
         d="m 34.205469,-1.5932188 -0.339844,0.2460938 c -0.761719,0.5390625 -1.453125,0.83203125 -1.96875,0.83203125 -0.667969,0 -1.089844,-0.52734375 -1.089844,-1.39453125 0,-0.3515625 0.04687,-0.7382813 0.117188,-1.1601563 l 1.183594,-0.28125 c 0.234375,-0.058594 0.621093,-0.2109375 0.984375,-0.3632812 1.21875,-0.5273438 1.78125,-1.1953125 1.78125,-2.0742188 0,-0.6796875 -0.492188,-1.125 -1.207032,-1.125 -0.9375,0 -2.519531,0.984375 -3.082031,1.9101563 -0.433594,0.7148437 -0.867187,2.4257812 -0.867187,3.3867187 0,1.1132813 0.632812,1.7695313 1.664062,1.7695313 0.820313,0 1.628906,-0.3984375 2.941406,-1.4765625 z M 31.123438,-3.92525 c 0.246093,-0.9960938 0.539062,-1.6054688 0.949218,-1.9804688 0.257813,-0.234375 0.703125,-0.4101562 1.042969,-0.4101562 0.421875,0 0.691406,0.2929687 0.691406,0.75 0,0.6328125 -0.503906,1.3007812 -1.242187,1.6640625 -0.410156,0.1992187 -0.925781,0.3632812 -1.570313,0.5039062 z m 0,0"
         style="fill:#000000;fill-opacity:1;fill-rule:nonzero;stroke:#000000;stroke-width:0.751181;stroke-dasharray:none;stroke-opacity:1" />
      <path
         id="path105"
         d="m 42.232813,-6.5356016 c 0.175781,0 0.363281,0 0.363281,-0.2109375 0,-0.1992187 -0.1875,-0.1992187 -0.363281,-0.1992187 h -5.613282 c -0.1875,0 -0.363281,0 -0.363281,0.1992187 0,0.2109375 0.175781,0.2109375 0.363281,0.2109375 z m 0,0"
         style="fill:#000000;fill-opacity:1;fill-rule:nonzero;stroke:#000000;stroke-width:0.751181;stroke-dasharray:none;stroke-opacity:1" />
      <path
         id="path106"
         d="m 48.5375,-5.1176328 c -0.363281,0.3046875 -0.609375,0.3867187 -0.761719,0.3867187 -0.152343,0 -0.269531,-0.035156 -0.375,-0.2226562 -0.08203,-0.1875 -0.199218,-0.609375 -0.257812,-0.9023438 -0.02344,-0.1757812 -0.04687,-0.3164062 -0.07031,-0.46875 0.304688,-0.3984375 0.585938,-0.84375 0.738282,-1.0546875 0.140625,-0.2109375 0.515625,-0.8085937 0.574218,-1.0078125 -0.05859,-0.1054687 -0.105468,-0.1992187 -0.164062,-0.3515625 -0.02344,-0.023437 -0.105469,-0.046875 -0.152344,-0.070312 -0.222656,0.8320313 -0.351562,1.1132813 -0.726562,1.6992188 -0.03516,0.058594 -0.199219,0.3046875 -0.316407,0.46875 C 46.85,-7.8363828 46.803125,-8.1059141 46.744531,-8.4574766 46.6625,-8.9027891 46.38125,-8.9496641 46.170313,-8.9496641 c -0.222657,0.011719 -0.550782,0.1875 -0.878907,0.4921875 -0.234375,0.2226563 -0.421875,0.4804688 -0.609375,0.7851563 -0.433593,0.890625 -0.75,2.0742187 -0.75,2.8710937 0,0.328125 0.140625,0.7617188 0.375,0.7617188 0.386719,0 0.703125,-0.1992188 1.019532,-0.421875 0.410156,-0.3632813 0.867187,-0.8085938 1.171875,-1.1601563 0.105468,1.0429688 0.410156,1.5820313 0.785156,1.5820313 0.222656,0 0.527344,-0.1640625 0.855469,-0.4570313 l 0.492187,-0.4335937 z m -2.074219,-0.8085938 c -0.292968,0.3398438 -0.585937,0.6328125 -0.832031,0.84375 -0.304687,0.2578125 -0.585937,0.3515625 -0.761719,0.3515625 -0.128906,0 -0.1875,-0.140625 -0.1875,-0.3984375 0,-0.6445312 0.164063,-1.7109375 0.492188,-2.5429687 0.128906,-0.328125 0.375,-0.6210938 0.597656,-0.6210938 0.292969,0 0.398438,0.1875 0.457031,0.6210938 z m 0,0"
         style="fill:#000000;fill-opacity:1;fill-rule:nonzero;stroke:#000000;stroke-width:0.751181;stroke-dasharray:none;stroke-opacity:1" />
    </g>
  </g>
</svg>
