<?xml version="1.0" encoding="UTF-8" standalone="no"?>
<!-- Created with Inkscape (http://www.inkscape.org/) -->

<svg
   version="1.1"
   id="svg1"
   width="231.42857"
   height="46.4781"
   viewBox="0 0 231.42857 46.4781"
   sodipodi:docname="10.pdf"
   inkscape:export-batch-path="Akemicos\Akdemicos-Front\public"
   inkscape:export-batch-name="vertice"
   xmlns:inkscape="http://www.inkscape.org/namespaces/inkscape"
   xmlns:sodipodi="http://sodipodi.sourceforge.net/DTD/sodipodi-0.dtd"
   xmlns="http://www.w3.org/2000/svg"
   xmlns:svg="http://www.w3.org/2000/svg">
  <defs
     id="defs1">
    <clipPath
       clipPathUnits="userSpaceOnUse"
       id="clipPath1797">
      <rect
         style="fill:#000000;fill-opacity:1;stroke:#000000;stroke-width:1.3;stroke-dasharray:none;stroke-opacity:1"
         id="rect1798"
         width="231.42857"
         height="56.190475"
         x="182.85715"
         y="964.7619" />
    </clipPath>
  </defs>
  <sodipodi:namedview
     id="namedview1"
     pagecolor="#ffffff"
     bordercolor="#000000"
     borderopacity="0.25"
     inkscape:showpageshadow="2"
     inkscape:pageopacity="0.0"
     inkscape:pagecheckerboard="0"
     inkscape:deskcolor="#d1d1d1">
    <inkscape:page
       x="0"
       y="0"
       width="231.42857"
       height="46.4781"
       id="page1"
       margin="0"
       bleed="0" />
  </sodipodi:namedview>
  <g
     id="g1"
     inkscape:groupmode="layer"
     inkscape:label="1"
     clip-path="url(#clipPath1797)"
     transform="translate(-182.85715,-964.7619)">
    <path
       id="path1743"
       d="m 0,0 -1.28,-9.77 v -0.16 c 0,-0.32 0.32,-0.48 0.8,-0.48 h 0.8 v -0.64 h -0.8 c -0.64,0.16 -1.12,0.16 -1.44,0.16 -0.32,0 -0.96,0 -1.6,-0.16 h -0.81 v 0.64 h 0.48 c 0.81,0 0.97,0.16 1.13,0.8 l 1.6,11.37 h 0.96 L 6.73,-9.45 c 0.48,-0.8 0.64,-0.96 1.12,-0.96 h 0.33 v -0.64 H 7.69 c -0.48,0.16 -0.96,0.16 -1.28,0.16 -0.16,0 -0.64,0 -1.44,-0.16 h -0.8 v 0.64 h 0.48 c 0.64,0 1.12,0.16 1.12,0.48 0,0.32 -0.16,0.48 -0.32,0.8 z"
       style="fill:#000000;fill-opacity:1;fill-rule:nonzero;stroke:none"
       transform="translate(190.11999,992.17999)" />
    <path
       id="path1744"
       d="M 0,0 C 0.32,0 0.64,0 0.64,-0.48 0.64,-0.8 0.32,-0.8 0,-0.8 h -11.54 c -0.16,0 -0.64,0 -0.64,0.32 0,0.48 0.48,0.48 0.64,0.48 z m 0,3.69 c 0.32,0 0.64,0 0.64,-0.48 C 0.64,2.89 0.32,2.89 0,2.89 h -11.54 c -0.16,0 -0.64,0 -0.64,0.32 0,0.48 0.48,0.48 0.64,0.48 z"
       style="fill:#000000;fill-opacity:1;fill-rule:nonzero;stroke:none"
       transform="translate(220.25,987.69)" />
    <path
       id="path1745"
       d="M 0,0 C 0,0 0,-0.16 0,-0.16 -0.8,-0.8 -1.92,-2.08 -3.2,-4 -6.09,-8.81 -7.53,-14.74 -7.53,-21.780001 -7.53,-26.75 -6.89,-33.16 -3.84,-38.599998 c 1.44,-2.57 3.04,-4.010003 3.84,-4.970002 0,0 0,0 0,0 0,-0.319999 -0.16,-0.319999 -0.32,-0.319999 -0.32,0 -0.32,0 -0.64,0.319999 -6.09,5.610001 -8.01,14.100001 -8.01,21.789999 C -8.97,-14.58 -7.37,-7.37 -2.72,-1.92 -2.4,-1.44 -1.6,-0.64 -0.96,0 -0.64,0.16 -0.64,0.16 -0.32,0.16 -0.16,0.16 0,0.16 0,0 Z"
       style="fill:#000000;fill-opacity:1;fill-rule:nonzero;stroke:none"
       transform="translate(243.33,1011.08)" />
    <path
       id="path1746"
       d="M 0,0 C 0.32,0 0.64,0 0.64,-0.32 0.64,-0.8 0.32,-0.8 0,-0.8 h -10.42 c -0.32,0 -0.64,0 -0.64,0.48 0,0.32 0.32,0.32 0.64,0.32 z"
       style="fill:#000000;fill-opacity:1;fill-rule:nonzero;stroke:none"
       transform="translate(257.12,989.46002)" />
    <path
       id="path1747"
       d="m 0,0 -0.32,-0.16 c -0.96,0.48 -1.6,0.64 -2.89,0.8 l -0.16,0.32 h 0.97 c 0.48,0 0.64,0.16 0.64,0.48 0,0.16 0,0.32 0,0.48 l -1.93,10.1 c 0,0 0,0.16 0,0.16 0,0.8 0.8,1.28 1.93,1.28 0.64,0 1.6,-0.32 2.4,-0.8 C 2.4,11.38 3.53,8.81 3.53,6.41 3.53,5.77 3.37,4.97 3.21,4.65 3.05,4.49 2.89,4.49 2.56,4.49 2.08,4.49 1.6,4.65 0.96,4.81 0.16,5.29 -0.48,5.93 -1.6,7.37 Z m 1.6,5.45 c 0.48,0 0.64,0.48 0.64,1.44 0,1.12 -0.32,2.72 -0.96,3.84 -0.64,1.29 -1.28,1.93 -2.24,1.93 -0.96,0 -1.28,-0.48 -1.28,-1.28 0,-0.33 0,-0.97 0.16,-1.61 0.32,-1.44 0.8,-2.4 1.6,-3.04 C 0,6.09 0.96,5.45 1.6,5.45 Z"
       style="fill:#000000;fill-opacity:1;fill-rule:nonzero;stroke:none"
       transform="translate(269.78,968.15002)" />
    <path
       id="path1748"
       d="m 260.64001,989.29999 h 18.12"
       style="fill:none;stroke:#000000;stroke-width:0.801;stroke-linecap:butt;stroke-linejoin:miter;stroke-miterlimit:10;stroke-dasharray:none;stroke-opacity:1" />
    <path
       id="path1749"
       d="m 0,0 v 0.32 c 3.37,0 3.37,0 4.01,0 0.64,0 0.64,0 4.17,0 0,-0.32 0,-0.48 0,-0.8 0,-0.16 0,-0.33 0,-0.81 -2.08,0.16 -2.89,0.16 -6.25,0.16 l 3.36,-3.52 c 1.77,-1.92 2.25,-2.88 2.25,-4.16 0,-2.25 -1.44,-3.53 -3.69,-3.53 -1.28,0 -2.24,0.48 -3.2,1.28 l -0.32,2.57 h 0.64 l 0.16,-0.8 c 0.32,-1.13 0.96,-1.61 2.24,-1.61 1.6,0 2.56,0.96 2.56,2.57 0,1.44 -0.8,2.72 -2.88,4.96 z"
       style="fill:#000000;fill-opacity:1;fill-rule:nonzero;stroke:none"
       transform="translate(260.95999,1006.12)" />
    <path
       id="path1750"
       d="M 0,0 -0.16,-0.16 -0.8,0.16 c -0.64,-0.32 -0.96,-0.32 -1.44,-0.32 -0.64,0 -0.96,0.16 -1.44,0.32 -1.12,0.64 -1.77,1.12 -2.25,2.08 -0.8,1.6 -1.28,3.84 -1.28,5.12 0,0.97 0.16,1.45 0.64,1.45 0.32,0 0.96,-0.32 1.77,-0.96 C -4,7.2 -3.36,6.24 -2.4,4.96 L -2.88,7.2 c 0,0.32 -0.16,0.65 -0.16,0.97 0,0.48 0.16,0.64 0.48,0.64 0.48,0 1.12,-0.48 2.72,-1.77 L 0,6.72 C -0.16,6.88 -0.16,6.88 -0.32,6.88 -0.8,7.36 -1.12,7.52 -1.44,7.52 -1.6,7.52 -1.6,7.36 -1.6,7.2 c 0,-0.16 0,-0.16 0,-0.32 z m -1.44,1.12 c -0.48,1.92 -0.8,2.88 -1.44,3.84 -0.96,1.6 -2.08,2.56 -2.73,2.56 -0.16,0 -0.32,-0.16 -0.32,-0.64 0,-1.28 0.48,-3.36 1.13,-4.8 0.48,-0.96 0.96,-1.28 1.76,-1.28 0.48,0 0.8,0 1.6,0.32 z"
       style="fill:#000000;fill-opacity:1;fill-rule:nonzero;stroke:none"
       transform="translate(277.63,997.78998)" />
    <path
       id="path1751"
       d="m 0,0 c -0.48,0.32 -0.81,0.32 -1.77,0.64 -0.16,1.44 -0.64,2.56 -1.6,4.32 l 0.16,0.16 0.8,-0.32 C -0.97,2.88 -0.16,1.76 0.32,0.32 Z"
       style="fill:#000000;fill-opacity:1;fill-rule:nonzero;stroke:none"
       transform="translate(301.84,991.53998)" />
    <path
       id="path1752"
       d="m 0,0 c 0.16,-0.32 0.16,-0.8 0.32,-1.12 v -0.16 l -0.16,0.16 c -0.48,0 -0.64,0.16 -1.6,0.16 h -0.32 l 0.48,-2.08 c 0.32,-1.6 0.8,-2.4 1.6,-2.4 0.48,0 1.12,0.32 1.28,0.8 L 1.76,-4.8 C 1.92,-4.96 2.08,-5.6 2.24,-5.92 L 2.4,-6.24 C 2.08,-6.4 1.44,-6.4 1.12,-6.4 c -0.32,0 -0.48,0 -0.64,0 -0.48,0.32 -2.08,1.44 -2.41,1.76 -0.48,0.48 -0.64,0.96 -0.8,2.08 l -0.32,1.44 c -0.8,0.32 -1.12,0.48 -1.6,0.64 V 0 h 1.44 l -0.16,0.96 c -0.64,3.53 -1.28,7.05 -1.6,8.33 -0.32,0.97 -0.96,1.61 -1.6,1.61 -0.48,0 -0.64,-0.16 -0.96,-0.48 h -0.33 c 0,0.48 -0.32,1.28 -0.32,1.44 0.16,0.16 0.48,0.16 0.65,0.16 0.64,0 1.76,-0.48 2.4,-1.44 1.12,-1.29 1.6,-2.57 2.88,-8.97 0,-0.32 0.16,-0.97 0.32,-1.61 z"
       style="fill:#000000;fill-opacity:1;fill-rule:nonzero;stroke:none"
       transform="translate(331.97,986.89001)" />
    <path
       id="path1753"
       d="M 0,0 C 0,0 0,-0.16 -0.16,-0.16 -0.8,-0.8 -2.08,-2.08 -3.2,-4 -6.25,-8.81 -7.53,-14.74 -7.53,-21.780001 -7.53,-26.75 -6.89,-33.16 -3.85,-38.599998 c 1.45,-2.57 2.89,-4.010003 3.69,-4.970002 0.16,0 0.16,0 0.16,0 0,-0.319999 -0.16,-0.319999 -0.48,-0.319999 -0.16,0 -0.16,0 -0.48,0.319999 -6.25,5.610001 -8.17,14.100001 -8.17,21.789999 C -9.13,-14.58 -7.37,-7.37 -2.72,-1.92 -2.4,-1.44 -1.76,-0.64 -0.96,0 -0.64,0.16 -0.64,0.16 -0.48,0.16 -0.16,0.16 0,0.16 0,0 Z"
       style="fill:#000000;fill-opacity:1;fill-rule:nonzero;stroke:none"
       transform="translate(350.72,1011.08)" />
    <path
       id="path1754"
       d="M 0,0 C 0.33,0 0.81,0 0.81,-0.32 0.81,-0.8 0.33,-0.8 0,-0.8 h -10.25 c -0.32,0 -0.64,0 -0.64,0.48 0,0.32 0.32,0.32 0.64,0.32 z"
       style="fill:#000000;fill-opacity:1;fill-rule:nonzero;stroke:none"
       transform="translate(364.34,989.46002)" />
    <path
       id="path1755"
       d="m 0,0 -0.16,-0.16 c -0.97,0.48 -1.61,0.64 -2.89,0.8 l -0.16,0.32 h 0.96 c 0.32,0 0.64,0.16 0.64,0.48 0,0.16 -0.16,0.32 -0.16,0.48 l -1.76,10.1 c 0,0 0,0.16 0,0.16 0,0.8 0.8,1.28 1.76,1.28 0.81,0 1.77,-0.32 2.41,-0.8 C 2.4,11.38 3.68,8.81 3.68,6.41 3.68,5.77 3.52,4.97 3.36,4.65 3.2,4.49 2.88,4.49 2.72,4.49 2.24,4.49 1.6,4.65 1.12,4.81 0.16,5.29 -0.32,5.93 -1.45,7.37 Z m 1.6,5.45 c 0.48,0 0.8,0.48 0.8,1.44 0,1.12 -0.48,2.72 -0.96,3.84 -0.64,1.29 -1.28,1.93 -2.4,1.93 -0.81,0 -1.29,-0.48 -1.29,-1.28 0,-0.33 0.16,-0.97 0.32,-1.61 0.32,-1.44 0.8,-2.4 1.45,-3.04 C 0.16,6.09 1.12,5.45 1.6,5.45 Z"
       style="fill:#000000;fill-opacity:1;fill-rule:nonzero;stroke:none"
       transform="translate(377.01001,968.15002)" />
    <path
       id="path1756"
       d="m 368.03,989.29999 h 17.95001"
       style="fill:none;stroke:#000000;stroke-width:0.801;stroke-linecap:butt;stroke-linejoin:miter;stroke-miterlimit:10;stroke-dasharray:none;stroke-opacity:1" />
    <path
       id="path1757"
       d="m 0,0 v 0.32 c 3.53,0 3.53,0 4.17,0 0.64,0 0.64,0 4.17,0 0,-0.32 0,-0.48 0,-0.8 0,-0.16 0,-0.33 0,-0.81 -2.09,0.16 -2.89,0.16 -6.25,0.16 l 3.2,-3.52 c 1.92,-1.92 2.4,-2.88 2.4,-4.16 0,-2.25 -1.44,-3.53 -3.68,-3.53 -1.44,0 -2.25,0.48 -3.21,1.28 l -0.32,2.57 h 0.48 l 0.32,-0.8 c 0.32,-1.13 0.97,-1.61 2.25,-1.61 1.44,0 2.56,0.96 2.56,2.57 0,1.44 -0.8,2.72 -2.88,4.96 z"
       style="fill:#000000;fill-opacity:1;fill-rule:nonzero;stroke:none"
       transform="translate(368.19,1006.12)" />
    <path
       id="path1758"
       d="M 0,0 -0.16,-0.16 -0.8,0.16 c -0.8,-0.32 -0.96,-0.32 -1.6,-0.32 -0.48,0 -0.8,0.16 -1.29,0.32 -1.12,0.64 -1.76,1.12 -2.24,2.08 -0.8,1.6 -1.44,3.84 -1.44,5.12 0,0.97 0.32,1.45 0.64,1.45 0.48,0 1.12,-0.32 1.92,-0.96 C -4.17,7.2 -3.37,6.24 -2.4,4.96 L -2.88,7.2 c -0.16,0.32 -0.16,0.65 -0.16,0.97 0,0.48 0.16,0.64 0.48,0.64 0.32,0 1.12,-0.48 2.72,-1.77 L 0,6.72 c -0.16,0.16 -0.16,0.16 -0.32,0.16 -0.48,0.48 -0.8,0.64 -1.12,0.64 -0.16,0 -0.32,-0.16 -0.32,-0.32 0,-0.16 0,-0.16 0.16,-0.32 z m -1.44,1.12 c -0.48,1.92 -0.8,2.88 -1.44,3.84 -1.13,1.6 -2.25,2.56 -2.73,2.56 -0.32,0 -0.32,-0.16 -0.32,-0.64 0,-1.28 0.48,-3.36 1.12,-4.8 0.48,-0.96 0.8,-1.28 1.77,-1.28 0.32,0 0.8,0 1.6,0.32 z"
       style="fill:#000000;fill-opacity:1;fill-rule:nonzero;stroke:none"
       transform="translate(385.01999,997.78998)" />
    <path
       id="path1759"
       d="m 0,0 c 0,-7.21 -1.76,-14.42 -6.41,-20.030001 -0.32,-0.319999 -0.96,-1.119999 -1.76,-1.76 -0.16,-0.32 -0.32,-0.32 -0.48,-0.32 -0.32,0 -0.48,0 -0.48,0.32 0,0 0.16,0 0.16,0.160002 0.64,0.639999 1.92,1.92 3.04,3.849998 C -2.88,-13.14 -1.6,-7.05 -1.6,0 c 0,4.96 -0.64,11.21 -3.69,16.66 -1.44,2.719999 -2.88,4.16 -3.68,4.960001 0,0 -0.16,0.16 -0.16,0.16 0,0.16 0.16,0.16 0.48,0.16 0.16,0 0.32,0 0.48,-0.32 C -1.92,16.18 0,7.69 0,0 Z"
       style="fill:#000000;fill-opacity:1;fill-rule:nonzero;stroke:none"
       transform="translate(397.04001,989.29999)" />
    <path
       id="path1760"
       d="m 0,0 c 0,-7.21 -1.61,-14.42 -6.25,-20.030001 -0.49,-0.319999 -1.13,-1.119999 -1.93,-1.76 -0.16,-0.32 -0.16,-0.32 -0.48,-0.32 -0.16,0 -0.32,0 -0.32,0.32 0,0 0,0 0,0.160002 0.64,0.639999 1.92,1.92 3.21,3.849998 C -2.89,-13.14 -1.61,-7.05 -1.61,0 c 0,4.96 -0.64,11.21 -3.68,16.66 -1.45,2.719999 -2.89,4.16 -3.69,4.960001 0,0 0,0.16 0,0.16 0,0.16 0.16,0.16 0.32,0.16 0.32,0 0.32,0 0.64,-0.32 C -1.93,16.18 0,7.69 0,0 Z"
       style="fill:#000000;fill-opacity:1;fill-rule:nonzero;stroke:none"
       transform="translate(410.98999,989.29999)" />
  </g>
</svg>
